<svg width="522" height="522" viewBox="0 0 522 522" fill="none" xmlns="http://www.w3.org/2000/svg">
<g clip-path="url(#clip0_53_68245)">
<g opacity="0.5">
<mask id="mask0_53_68245" style="mask-type:alpha" maskUnits="userSpaceOnUse" x="0" y="0" width="522" height="522">
<rect width="522" height="522" rx="24" fill="url(#paint0_linear_53_68245)"/>
</mask>
<g mask="url(#mask0_53_68245)">
<path d="M372.542 348.5C372.542 353.435 371.472 358.114 369.545 362.323C367.881 365.967 365.58 369.255 362.785 372.049C356.763 378.078 348.433 381.806 339.236 381.806H320.425C313.065 381.806 307.101 387.769 307.101 395.129V434.737C307.101 442.097 301.138 448.06 293.778 448.06H121.31C113.95 448.06 107.986 442.097 107.986 434.737V262.263C107.986 254.903 113.95 248.939 121.31 248.939H293.778C301.138 248.939 307.101 254.903 307.101 262.263V301.877C307.101 309.237 313.065 315.2 320.425 315.2H339.236C357.631 315.2 372.542 330.111 372.542 348.5Z" fill="url(#paint1_linear_53_68245)"/>
<path d="M475.576 173.497V173.497C475.576 191.89 460.666 206.8 442.274 206.8H426.476C419.116 206.8 413.15 212.766 413.15 220.125V259.729C413.15 267.088 407.184 273.054 399.825 273.054H360.221C352.862 273.054 346.896 279.021 346.896 286.38V304.211C346.896 322.604 331.985 337.514 313.593 337.514H313.593C295.2 337.514 280.29 322.604 280.29 304.211V286.38C280.29 279.021 274.324 273.054 266.964 273.054H227.361C220.001 273.054 214.035 267.088 214.035 259.729V87.2651C214.035 79.9055 220.001 73.9395 227.361 73.9395H399.825C407.184 73.9395 413.15 79.9055 413.15 87.2651V126.869C413.15 134.228 419.116 140.194 426.476 140.194H442.274C460.666 140.194 475.576 155.104 475.576 173.497Z" fill="url(#paint2_linear_53_68245)"/>
</g>
</g>
</g>
<defs>
<linearGradient id="paint0_linear_53_68245" x1="409.654" y1="1.07018e-05" x2="409.654" y2="522" gradientUnits="userSpaceOnUse">
<stop stop-color="white"/>
<stop offset="1" stop-color="white" stop-opacity="0"/>
</linearGradient>
<linearGradient id="paint1_linear_53_68245" x1="343.861" y1="281.631" x2="41.4605" y2="489.987" gradientUnits="userSpaceOnUse">
<stop stop-color="#51249E"/>
<stop offset="1" stop-color="#441B89"/>
</linearGradient>
<linearGradient id="paint2_linear_53_68245" x1="418.467" y1="49.8489" x2="133.427" y2="347.082" gradientUnits="userSpaceOnUse">
<stop stop-color="#DBCDF4"/>
<stop offset="1" stop-color="#AE8DE5"/>
</linearGradient>
<clipPath id="clip0_53_68245">
<rect width="522" height="522" fill="white"/>
</clipPath>
</defs>
</svg>
