<svg width="45" height="45" viewBox="0 0 45 45" fill="none" xmlns="http://www.w3.org/2000/svg">
<path d="M9.50945 44.8004H15.2652C15.7271 44.8004 16.0009 41.9031 16.0252 41.6791C16.2608 39.5102 16.2468 37.1661 15.6888 35.0596C15.0672 32.713 13.9773 30.341 14.4311 27.8594C14.8542 25.5455 16.2155 23.5952 16.2156 21.158C16.2156 17.1875 13.6277 12.856 8.04343 12.6003C7.82449 12.5903 7.68116 12.8363 7.7985 13.0214C9.32568 15.4314 10.7325 18.2849 10.7345 21.2923C10.7366 24.5852 8.66926 27.3237 8.66926 30.6228C8.66926 35.675 12.0124 35.4438 9.50945 44.8004Z" fill="url(#paint0_linear_121_851)"/>
<path opacity="0.8" d="M12.9872 26.8484C18.6686 26.8484 23.2743 25.1862 23.2743 23.1357C23.2743 21.0853 18.6686 19.4231 12.9872 19.4231C7.30573 19.4231 2.70001 21.0853 2.70001 23.1357C2.70001 25.1862 7.30573 26.8484 12.9872 26.8484Z" fill="#CEEFFF"/>
<path d="M10.6806 22.2098H16.1321C16.1838 21.8685 16.2169 21.5204 16.2169 21.1604C16.2169 17.1836 13.6286 12.8598 8.04522 12.602C7.82708 12.5921 7.67842 12.84 7.7973 13.0185C9.32455 15.4283 10.7328 18.2844 10.7328 21.2893C10.7328 21.6002 10.7142 21.9069 10.6806 22.2098Z" fill="#00A998"/>
<path d="M30.3351 35.8004H36.0909C36.5528 35.8004 36.8265 32.9031 36.8509 32.6791C37.0865 30.5102 37.0725 28.1661 36.5145 26.0596C35.8929 23.713 34.803 21.341 35.2568 18.8594C35.6799 16.5455 37.0412 14.5952 37.0413 12.158C37.0413 8.18748 34.4534 3.85593 28.8691 3.60027C28.6502 3.59025 28.5068 3.83622 28.6242 4.02138C30.1514 6.43134 31.5582 9.28484 31.5602 12.2923C31.5623 15.5852 29.4949 18.3237 29.4949 21.6228C29.4949 26.675 32.8381 26.4438 30.3351 35.8004Z" fill="url(#paint1_linear_121_851)"/>
<path opacity="0.8" d="M33.8128 17.8484C39.4943 17.8484 44.1 16.1862 44.1 14.1357C44.1 12.0853 39.4943 10.4231 33.8128 10.4231C28.1314 10.4231 23.5257 12.0853 23.5257 14.1357C23.5257 16.1862 28.1314 17.8484 33.8128 17.8484Z" fill="#CEEFFF"/>
<path d="M31.5063 13.2098H36.9578C37.0094 12.8685 37.0426 12.5204 37.0426 12.1604C37.0426 8.18361 34.4543 3.85981 28.8709 3.60197C28.6528 3.59204 28.5041 3.83997 28.623 4.01847C30.1502 6.42828 31.5585 9.28438 31.5585 12.2893C31.5585 12.6002 31.5398 12.9069 31.5063 13.2098Z" fill="#00A998"/>
<defs>
<linearGradient id="paint0_linear_121_851" x1="11.986" y1="19.3962" x2="11.986" y2="42.0252" gradientUnits="userSpaceOnUse">
<stop stop-color="#00AE97"/>
<stop offset="1" stop-color="#00A1A3" stop-opacity="0"/>
</linearGradient>
<linearGradient id="paint1_linear_121_851" x1="32.8117" y1="10.3962" x2="32.8117" y2="33.0252" gradientUnits="userSpaceOnUse">
<stop stop-color="#00AE97"/>
<stop offset="1" stop-color="#00A1A3" stop-opacity="0"/>
</linearGradient>
</defs>
</svg>
