<svg width="45" height="45" viewBox="0 0 45 45" fill="none" xmlns="http://www.w3.org/2000/svg">
<path d="M5.14865 31.0197V31.5701C5.14865 32.1407 5.61118 32.6032 6.18173 32.6032H9.9784C10.2524 32.6032 10.5152 32.7121 10.7089 32.9058L11.062 33.2589C11.2557 33.4526 11.5185 33.5615 11.7925 33.5615H20.4443C20.7183 33.5615 20.981 33.4526 21.1748 33.2589L21.6635 32.7701C21.8573 32.5764 22.12 32.4676 22.394 32.4676H31.6294C31.9034 32.4676 32.1662 32.5764 32.3599 32.7701L33.0553 33.4655C33.2491 33.6593 33.5118 33.7681 33.7858 33.7681H43.9648C44.2388 33.7681 44.5016 33.6593 44.6953 33.4655C45.3461 32.8147 44.8852 31.702 43.9648 31.702H40.466L12.7396 30.7007C12.7142 30.6998 12.6889 30.698 12.6636 30.6952L6.295 29.9929C5.68331 29.9254 5.14865 30.4043 5.14865 31.0197Z" fill="#CEEFFF"/>
<path d="M15.7103 31.3H7.16815C5.8477 31.3 4.87649 30.8447 4.23355 30.3856C3.58196 29.9216 3.26728 29.4539 3.26728 29.4539L2.7243 30.4461L2.35285 30.0746C2.17638 29.8982 2.03816 29.6896 1.94437 29.4625C1.84935 29.2367 1.79999 28.9911 1.79999 28.7406C1.79999 28.3778 1.89131 28.036 2.05173 27.7373C2.40961 27.0635 3.11919 26.6057 3.93615 26.6057H10.8271L15.7103 31.3Z" fill="#34C2A4"/>
<path d="M7.16736 28.4174C7.38401 28.6342 7.2305 29.0047 6.92402 29.0047H4.17925C3.82137 29.0047 3.4857 29.1701 3.26727 29.4539L2.05173 27.7373C2.4096 27.0635 3.11919 26.6057 3.93614 26.6057H5.35654L7.16736 28.4174Z" fill="#2DAB87"/>
<path d="M6.51164 27.3128C6.51164 27.8471 6.07972 28.2803 5.54537 28.2803C5.01226 28.2803 4.5791 27.8471 4.5791 27.3128C4.5791 27.2572 4.58404 27.2029 4.59268 27.1499C4.67042 26.6945 5.06779 26.3465 5.54538 26.3465C6.02419 26.3465 6.42032 26.6945 6.49806 27.1499C6.5067 27.2029 6.51164 27.2572 6.51164 27.3128Z" fill="white"/>
<path d="M5.54559 27.7102C5.76482 27.7102 5.94254 27.5325 5.94254 27.3133C5.94254 27.094 5.76482 26.9163 5.54559 26.9163C5.32637 26.9163 5.14865 27.094 5.14865 27.3133C5.14865 27.5325 5.32637 27.7102 5.54559 27.7102Z" fill="#432829"/>
<path d="M15.7103 31.3H7.16815C5.84771 31.3 4.87649 30.8447 4.23355 30.3856H11.9605C12.4212 30.3856 12.6519 29.8286 12.3261 29.5029L9.42895 26.6057H10.8271L15.7103 31.3Z" fill="#2DAB87"/>
<path d="M6.49807 27.1499H4.59268C4.67043 26.6945 5.0678 26.3465 5.54538 26.3465C6.0242 26.3465 6.42032 26.6945 6.49807 27.1499Z" fill="#34C2A4"/>
<path d="M20.0752 31.0137V31.8973C20.0752 32.1577 19.8641 32.3687 19.6038 32.3687H12.0711C11.691 32.3687 11.4738 31.9343 11.7021 31.6308L12.9152 30.0129L14.5676 30.2437L20.0752 31.0137Z" fill="#2DAB87"/>
<path d="M20.0752 31.0138V31.8974C20.0752 32.1577 19.8641 32.3688 19.6038 32.3688H13.8962C13.5162 32.3688 13.3002 31.9344 13.5273 31.6308L14.5676 30.2437L20.0752 31.0138Z" fill="#34C2A4"/>
<path d="M42.45 31.0137V31.8973C42.45 32.1577 42.239 32.3687 41.9786 32.3687H34.4459C34.0658 32.3687 33.8486 31.9343 34.0769 31.6308L35.29 30.0129L36.9424 30.2437L42.45 31.0137Z" fill="#2DAB87"/>
<path d="M42.6968 31.0138V31.8974C42.6968 32.1577 42.4857 32.3688 42.2253 32.3688H36.5178C36.1377 32.3688 35.9218 31.9344 36.1488 31.6308L37.1892 30.2437L42.6968 31.0138Z" fill="#34C2A4"/>
<path d="M41.9032 31.0137H15.9584L11.4269 26.481C11.4269 26.481 12.0501 25.3556 13.4347 23.9636C13.7124 23.6847 14.0221 23.3934 14.3627 23.0997C15.403 22.2013 16.7395 21.2696 18.4055 20.502C18.6844 20.3737 18.9719 20.2503 19.2693 20.1318C20.5231 19.632 21.9423 19.2322 23.5392 18.999C23.8946 18.9483 24.2586 18.9039 24.6313 18.8706C25.2854 18.8101 25.9666 18.778 26.6762 18.778C27.0908 18.778 27.4968 18.7953 27.8917 18.8286C27.9682 18.8348 28.046 18.8422 28.1225 18.8509C28.4865 18.8866 28.8444 18.9385 29.1924 19.0027C31.9777 19.5099 34.2471 20.8266 36.0562 22.4124C36.3574 22.6764 36.6449 22.9467 36.9201 23.2219C37.7198 24.024 38.4145 24.8657 39.0106 25.6888C39.2216 25.98 39.4203 26.2688 39.6066 26.5526C41.1949 28.9702 41.9032 31.0137 41.9032 31.0137Z" fill="#805259"/>
<path d="M36.4042 26.834C36.5844 26.6538 36.8288 26.5526 37.0842 26.5526H39.6066C39.4203 26.2688 39.2216 25.98 39.0106 25.6888H37.8802C37.3495 25.6888 36.9201 25.2581 36.9201 24.7275V23.2219C36.6449 22.9467 36.3573 22.6765 36.0562 22.4124V25.2026C36.0562 25.6876 35.8625 26.154 35.5194 26.4971L34.4594 27.5572C34.1151 27.9015 33.6498 28.094 33.1636 28.094H29.7304C29.2442 28.094 28.779 27.9015 28.4347 27.5572L27.3351 26.4576C26.9921 26.1145 26.7996 25.6493 26.7996 25.1631V22.1544C26.7996 21.6682 26.9921 21.203 27.3351 20.8599L29.1924 19.0026C28.8444 18.9385 28.4865 18.8866 28.1225 18.8509L26.3787 20.5946C26.3726 20.6008 26.3615 20.6008 26.3553 20.5946L24.6313 18.8706C24.2586 18.9039 23.8946 18.9483 23.5392 18.999L25.3989 20.8599C25.742 21.203 25.9357 21.6682 25.9357 22.1544V23.8377C25.9357 24.8484 25.1151 25.669 24.1044 25.669H21.5931C21.5881 25.669 21.5844 25.6666 21.5807 25.6641L19.2743 23.3577C19.2718 23.3539 19.2693 23.3502 19.2693 23.3453V20.1318C18.9719 20.2503 18.6844 20.3737 18.4055 20.502V22.1384C18.4055 22.669 17.976 23.0997 17.4454 23.0997H14.3627C14.0221 23.3934 13.7124 23.6847 13.4347 23.9636H18.2611C18.5153 23.9636 18.7597 24.0648 18.9411 24.2449L20.1171 25.421C20.4923 25.7961 20.4923 26.4045 20.1171 26.7797L16.1891 30.7077C16.1052 30.7928 16.062 30.9027 16.062 31.0137H17.1048L21.3043 26.8142C21.4845 26.6341 21.7288 26.5329 21.9843 26.5329H26.1813C26.1862 26.5329 26.1899 26.5341 26.1936 26.5378L27.5017 27.8472C27.8769 28.2223 27.8769 28.8307 27.5017 29.2058L25.9049 30.8027C25.8444 30.8619 25.8049 30.936 25.7876 31.0137H26.9156L28.6901 29.2392C28.8703 29.059 29.1147 28.9578 29.3689 28.9578H33.5239C33.7794 28.9578 34.0237 29.059 34.2039 29.2392L35.9785 31.0137H36.9065C36.9423 30.8731 36.904 30.7176 36.793 30.6065L35.3911 29.2058C35.0159 28.8307 35.0159 28.2223 35.3911 27.8472L36.4042 26.834Z" fill="#945F67"/>
<path d="M27.8917 18.8286C25.458 19.5929 22.129 21.5876 19.6725 23.1937C17.602 24.5474 16.3557 26.8549 16.3557 29.3286V31.0137H15.9584L11.4269 26.481C11.4269 26.481 15.6906 18.778 26.6761 18.778C27.0908 18.778 27.4968 18.7953 27.8917 18.8286Z" fill="#6E4C52"/>
<path d="M43.3643 31.0138C43.3643 31.5247 42.9509 31.9393 42.4388 31.9393H15.9583C15.7128 31.9393 15.4783 31.8418 15.3043 31.6678L10.2582 26.6217C9.89664 26.2602 9.89664 25.6752 10.2582 25.3136C10.3039 25.268 10.3545 25.2273 10.4063 25.1927C10.7666 24.9582 11.2516 24.9977 11.5676 25.3136L16.3421 30.0882H42.4388C42.8991 30.0882 43.2804 30.4239 43.3507 30.8632C43.3606 30.9126 43.3643 30.9619 43.3643 31.0138Z" fill="#6E4C52"/>
<path d="M43.3507 30.8632C43.2063 30.9582 43.0323 31.0138 42.846 31.0138H16.3655C16.12 31.0138 15.8843 30.9163 15.7103 30.7423L10.6642 25.6962C10.521 25.5543 10.4347 25.3778 10.4063 25.1927C10.7666 24.9582 11.2516 24.9977 11.5675 25.3136L16.3421 30.0882H42.4388C42.8991 30.0882 43.2804 30.4239 43.3507 30.8632Z" fill="#4B353D"/>
</svg>
