<svg width="45" height="45" viewBox="0 0 45 45" fill="none" xmlns="http://www.w3.org/2000/svg">
<path d="M43.0899 4.95379L37.0144 4.80647C36.7433 4.80058 36.4781 4.87719 36.2483 5.0304L36.1186 5.11879C35.8358 5.31326 35.6354 5.6079 35.5706 5.94379C35.5235 6.17361 35.3879 6.37397 35.1876 6.50361L33.8086 7.38754C33.7202 7.44647 33.6201 7.47593 33.514 7.47593L32.9954 7.48772C32.8599 7.49361 32.7244 7.44647 32.6183 7.35807L31.917 6.47415C31.8404 6.40933 31.7344 6.39165 31.646 6.43879C31.5399 6.49183 31.481 6.60379 31.5045 6.72165L31.9642 7.75879C31.9936 7.89432 31.9701 8.03575 31.9053 8.15361L31.6519 8.60736C31.5988 8.70164 31.5281 8.77236 31.4338 8.82539L30.0137 9.63861C29.8074 9.75646 29.5658 9.78593 29.3419 9.71521C29.0119 9.62093 28.6583 9.65628 28.3578 9.82128L28.2222 9.89789C27.9806 10.0275 27.792 10.2279 27.6683 10.4695L24.9929 15.9321C24.9458 16.0205 25.0401 16.1207 25.1344 16.0854L27.6565 15.0954C28.1633 14.895 28.5876 14.5414 28.8763 14.0936C29.1828 13.6104 29.5658 13.1861 30.0195 12.8384L30.7503 12.2786C30.927 12.143 31.1156 12.0311 31.316 11.9427L32.801 11.2886C32.8717 11.2591 32.9424 11.3122 32.9424 11.3829L32.8658 13.133C32.8658 13.1802 32.9011 13.2214 32.9483 13.2273L33.296 13.2568H33.3019C33.7026 13.2863 34.0974 13.192 34.4392 12.9798L36.1069 11.9663C36.4486 11.76 36.7197 11.4536 36.8729 11.0823C36.8729 11.0823 36.8729 11.0764 36.8788 11.0764L37.0144 10.7523C37.032 10.7111 37.0143 10.658 36.9672 10.6345L35.382 9.892C35.3172 9.86253 35.3054 9.76825 35.3644 9.72111L36.6254 8.71343C36.7963 8.57789 36.9849 8.46004 37.1793 8.36575L38.0161 7.97682C38.5347 7.73522 39.0886 7.59379 39.6602 7.54075C40.1906 7.49361 40.7033 7.28147 41.1158 6.922L43.1606 5.14237C43.2372 5.08344 43.1959 4.95969 43.0899 4.95379Z" fill="#B7F1F5"/>
<path d="M41.0686 4.24667L34.9872 4.09346C34.7161 4.08756 34.451 4.16417 34.2212 4.31738L34.0974 4.40578C33.8145 4.60024 33.6142 4.89488 33.5494 5.23077C33.5022 5.4606 33.3667 5.66095 33.1663 5.79059L31.7874 6.67452C31.699 6.73345 31.5988 6.76291 31.4928 6.76291L30.9742 6.78059C30.8387 6.78649 30.7031 6.73934 30.597 6.65095L29.8958 5.76702C29.8192 5.7022 29.7131 5.68452 29.6247 5.73167C29.5187 5.7847 29.4597 5.89667 29.4833 6.01452L29.9429 7.05166C29.9724 7.1872 29.9488 7.32863 29.884 7.44648L29.6306 7.90023C29.5776 7.99452 29.5069 8.06523 29.4126 8.11827L27.9924 8.92559C27.7862 9.04345 27.5446 9.07291 27.3206 9.0022C26.9906 8.90791 26.6371 8.94327 26.3365 9.10827L26.201 9.18487C25.9594 9.31452 25.7708 9.51487 25.6471 9.75648L22.9717 15.2191C22.9246 15.3075 23.0189 15.4077 23.1131 15.3723L25.6353 14.3823C26.1421 14.182 26.5663 13.8284 26.8551 13.3805C27.1615 12.8973 27.5446 12.4731 27.9983 12.1254L28.729 11.5656C28.9058 11.43 29.0944 11.3181 29.2947 11.2297L30.7738 10.5756C30.8445 10.5461 30.9153 10.5991 30.9153 10.6698L30.8387 12.42C30.8387 12.4672 30.874 12.5084 30.9212 12.5143L31.2688 12.5438H31.2747C31.6754 12.5732 32.0703 12.4789 32.412 12.2668L34.0797 11.2532C34.4215 11.047 34.6926 10.7406 34.8458 10.3693C34.8458 10.3693 34.8458 10.3634 34.8517 10.3634L34.9872 10.0393C35.0049 9.99809 34.9872 9.94505 34.946 9.92148L33.3608 9.17898C33.296 9.14952 33.2842 9.05523 33.3431 9.00809L34.6042 8.00041C34.7751 7.86488 34.9636 7.74702 35.1581 7.65273L35.9949 7.26381C36.5135 7.0222 37.0674 6.88077 37.639 6.82774C38.1694 6.78059 38.682 6.56845 39.0945 6.20899L41.1393 4.42935C41.216 4.37042 41.1688 4.24667 41.0686 4.24667Z" fill="#F9F7F7"/>
<path d="M23.3901 14.3529L23.3724 14.3882L23.3547 14.4236L22.9658 15.2191C22.9186 15.3075 23.0129 15.4077 23.1072 15.3723L25.6294 14.3823C26.1361 14.182 26.5604 13.8284 26.8492 13.3806L23.3901 14.3529Z" fill="#ADB2BE"/>
<path d="M40.1022 4.22308H40.1376H40.1788L41.0628 4.24665C41.1629 4.24665 41.2101 4.37629 41.1335 4.44111L39.0887 6.22075C38.6762 6.58022 38.1635 6.79236 37.6331 6.8395L40.1022 4.22308Z" fill="#ADB2BE"/>
<path d="M30.7208 26.168L24.6394 26.0148C24.3683 26.0089 24.1031 26.0855 23.8733 26.2387L23.7437 26.3271C23.4608 26.5216 23.2605 26.8162 23.1956 27.1521C23.1485 27.3819 23.013 27.5823 22.8126 27.7119L21.4396 28.6018C21.3512 28.6607 21.251 28.6901 21.1449 28.6901L20.6264 28.7019C20.4908 28.7078 20.3553 28.6607 20.2492 28.5723L19.548 27.6884C19.4714 27.6235 19.3653 27.6059 19.2769 27.653C19.1708 27.706 19.1119 27.818 19.1355 27.9359L19.5951 28.973C19.6246 29.1085 19.601 29.25 19.5362 29.3678L19.2828 29.8216C19.2297 29.9159 19.159 29.9866 19.0647 30.0396L17.6446 30.8528C17.4383 30.9707 17.1967 31.0001 16.9728 30.9294C16.6428 30.8351 16.2892 30.8705 15.9887 31.0355L15.8531 31.1121C15.6115 31.2417 15.423 31.4421 15.2992 31.6837L12.6239 37.1464C12.5767 37.2348 12.671 37.335 12.7653 37.2996L15.2874 36.3096C15.7942 36.1092 16.2185 35.7557 16.5073 35.3078C16.8137 34.8246 17.1967 34.4003 17.6505 34.0526L18.3812 33.4928C18.558 33.3573 18.7465 33.2453 18.9469 33.1569L20.426 32.5028C20.4967 32.4734 20.5674 32.5264 20.5674 32.5971L20.4908 34.3473C20.4908 34.3944 20.5262 34.4357 20.5733 34.4416L20.921 34.471H20.9269C21.3276 34.5005 21.7224 34.4062 22.0642 34.1941L23.7319 33.1805C24.0737 32.9742 24.3447 32.6678 24.498 32.2966C24.498 32.2966 24.498 32.2907 24.5038 32.2907L24.6394 31.9666C24.6571 31.9253 24.6394 31.8723 24.5981 31.8487L23.013 31.1062C22.9481 31.0767 22.9363 30.9825 22.9953 30.9353L24.2563 29.9276C24.4272 29.7921 24.6158 29.6743 24.8103 29.58L25.6471 29.191C26.1656 28.9494 26.7196 28.808 27.2912 28.755C27.8215 28.7078 28.3342 28.4957 28.7467 28.1362L30.7915 26.3566C30.8622 26.2977 30.821 26.1739 30.7208 26.168Z" fill="#B7F1F5"/>
<path d="M28.6937 25.4609L22.6123 25.3077C22.3412 25.3018 22.076 25.3784 21.8462 25.5316L21.7165 25.62C21.4337 25.8144 21.2333 26.1091 21.1685 26.445C21.1214 26.6748 20.9858 26.8752 20.7855 27.0048L19.4065 27.8887C19.3182 27.9477 19.218 27.9771 19.1119 27.9771L18.5933 27.9889C18.4578 27.9948 18.3223 27.9477 18.2162 27.8593L17.5149 26.9753C17.4383 26.9105 17.3323 26.8928 17.2439 26.94C17.1378 26.993 17.0789 27.105 17.1024 27.2228L17.5621 28.26C17.5915 28.3955 17.568 28.5369 17.5032 28.6548L17.2498 29.1085C17.1967 29.2028 17.126 29.2735 17.0317 29.3266L15.6116 30.1398C15.4053 30.2576 15.1637 30.2871 14.9398 30.2164C14.6098 30.1221 14.2562 30.1575 13.9557 30.3225L13.8201 30.3991C13.5785 30.5287 13.3899 30.7291 13.2662 30.9707L10.5908 36.4333C10.5437 36.5217 10.638 36.6219 10.7323 36.5866L13.2544 35.5966C13.7612 35.3962 14.1855 35.0426 14.4742 34.5948C14.7807 34.1116 15.1637 33.6873 15.6174 33.3396L16.3482 32.7798C16.5249 32.6442 16.7135 32.5323 16.9139 32.4439L18.393 31.7898C18.4637 31.7603 18.5344 31.8134 18.5344 31.8841L18.4578 33.6342C18.4578 33.6814 18.4932 33.7226 18.5403 33.7285L18.888 33.758H18.8939C19.2946 33.7875 19.6894 33.6932 20.0312 33.481L21.6989 32.4675C22.0406 32.2612 22.3117 31.9548 22.4649 31.5835C22.4649 31.5835 22.4649 31.5776 22.4708 31.5776L22.6064 31.2535C22.624 31.2123 22.6064 31.1593 22.5651 31.1357L20.9799 30.3932C20.9151 30.3637 20.9033 30.2694 20.9623 30.2223L22.2233 29.2146C22.3942 29.0791 22.5828 28.9612 22.7773 28.8669L23.614 28.478C24.1326 28.2364 24.6865 28.095 25.2581 28.0419C25.7885 27.9948 26.3012 27.7827 26.7137 27.4232L28.7644 25.6553C28.841 25.5846 28.7938 25.4609 28.6937 25.4609Z" fill="#F9F7F7"/>
<path d="M11.0151 35.5671L10.9975 35.6025L10.9798 35.6378L10.5908 36.4334C10.5437 36.5217 10.638 36.6219 10.7323 36.5866L13.2544 35.5966C13.7612 35.3962 14.1855 35.0426 14.4742 34.5948L11.0151 35.5671Z" fill="#ADB2BE"/>
<path d="M27.7331 25.4373H27.7685H27.8097L28.6937 25.4609C28.7939 25.4609 28.841 25.5905 28.7644 25.6553L26.7196 27.435C26.3071 27.7944 25.7944 28.0066 25.264 28.0537L27.7331 25.4373Z" fill="#ADB2BE"/>
<path d="M21.8756 4.95407L15.7942 4.80085C15.5231 4.79496 15.2579 4.87157 15.0281 5.02478L14.8985 5.11317C14.6156 5.30764 14.4153 5.60228 14.3504 5.93817C14.3033 6.16799 14.1678 6.36835 13.9674 6.49799L12.5944 7.38781C12.506 7.44674 12.4058 7.47621 12.2997 7.47621L11.7812 7.48799C11.6456 7.49388 11.5101 7.44674 11.404 7.35835L10.7028 6.47442C10.6262 6.4096 10.5201 6.39192 10.4317 6.43906C10.3256 6.4921 10.2667 6.60406 10.2903 6.72192L10.7499 7.75906C10.7794 7.8946 10.7558 8.03602 10.691 8.15388L10.4376 8.60763C10.3846 8.70192 10.3139 8.77263 10.2196 8.82567L8.79939 9.63888C8.59314 9.75674 8.35153 9.7862 8.12761 9.71549C7.79761 9.6212 7.44404 9.65656 7.1435 9.82156L7.00796 9.89816C6.76636 10.0278 6.57189 10.2282 6.45404 10.4698L3.77279 15.9325C3.72565 16.0209 3.81994 16.121 3.91422 16.0857L6.43636 15.0957C6.94314 14.8953 7.36743 14.5418 7.65618 14.0939C7.96261 13.6107 8.34564 13.1864 8.79939 12.8387L9.5301 12.2789C9.70689 12.1434 9.89546 12.0314 10.0958 11.943L11.5749 11.2889C11.6456 11.2594 11.7163 11.3125 11.7163 11.3832L11.6397 13.1334C11.6397 13.1805 11.6751 13.2218 11.7222 13.2277L12.0699 13.2571H12.0758C12.4765 13.2866 12.8713 13.1923 13.2131 12.9802L14.8808 11.9666C15.2226 11.7603 15.4937 11.4539 15.6469 11.0827C15.6469 11.0827 15.6469 11.0768 15.6528 11.0768L15.7883 10.7527C15.806 10.7114 15.7883 10.6584 15.7412 10.6348L14.156 9.89227C14.0912 9.86281 14.0794 9.76852 14.1383 9.72138L15.3994 8.7137C15.5703 8.57817 15.7588 8.46031 15.9533 8.36602L16.7901 7.9771C17.3087 7.73549 17.8626 7.59406 18.4342 7.54102C18.9645 7.49388 19.4772 7.28174 19.8897 6.92228L21.9345 5.14264C22.0229 5.08371 21.9758 4.95996 21.8756 4.95407Z" fill="#B7F1F5"/>
<path d="M19.8544 4.24697L13.773 4.09376C13.5019 4.08786 13.2367 4.16447 13.0069 4.31768L12.8772 4.40608C12.5944 4.60054 12.394 4.89518 12.3292 5.23107C12.2821 5.4609 12.1465 5.66125 11.9462 5.7909L10.5672 6.67482C10.4789 6.73375 10.3787 6.76321 10.2726 6.76321L9.75404 6.775C9.6185 6.78089 9.48297 6.73375 9.37689 6.64536L8.67565 5.76143C8.59904 5.69661 8.49297 5.67893 8.40457 5.72607C8.2985 5.77911 8.23957 5.89107 8.26315 6.00893L8.72279 7.04607C8.75225 7.1816 8.72868 7.32303 8.66386 7.44089L8.41047 7.89464C8.35743 7.98893 8.28672 8.05964 8.19243 8.11268L6.77226 8.92589C6.56601 9.04375 6.3244 9.07321 6.10047 9.0025C5.77047 8.90821 5.4169 8.94357 5.11637 9.10856L4.98083 9.18517C4.73923 9.31482 4.55065 9.51517 4.4269 9.75678L1.75155 15.2194C1.70441 15.3078 1.7987 15.408 1.89298 15.3727L4.41512 14.3827C4.9219 14.1823 5.34619 13.8287 5.63494 13.3809C5.94137 12.8977 6.3244 12.4734 6.77815 12.1257L7.50886 11.5659C7.68565 11.4303 7.87422 11.3184 8.07458 11.23L9.55368 10.5759C9.62439 10.5464 9.69511 10.5994 9.69511 10.6702L9.6185 12.4203C9.6185 12.4675 9.65386 12.5087 9.701 12.5146L10.0487 12.5441H10.0546C10.4553 12.5735 10.8501 12.4793 11.1919 12.2671L12.8596 11.2536C13.2014 11.0473 13.4724 10.7409 13.6256 10.3696C13.6256 10.3696 13.6256 10.3637 13.6315 10.3637L13.7671 10.0396C13.7847 9.99839 13.7671 9.94535 13.7258 9.92178L12.1406 9.17928C12.0758 9.14982 12.064 9.05553 12.123 9.00839L13.384 8.00071C13.5549 7.86518 13.7435 7.74732 13.938 7.65303L14.7747 7.26411C15.2933 7.0225 15.8472 6.88107 16.4188 6.82803C16.9492 6.78089 17.4619 6.56875 17.8744 6.20929L19.9251 4.44143C20.0017 4.37072 19.9546 4.24697 19.8544 4.24697Z" fill="#F9F7F7"/>
<path d="M2.17584 14.3532L2.15816 14.3886L2.14048 14.4239L1.75155 15.2194C1.70441 15.3078 1.7987 15.408 1.89298 15.3727L4.41512 14.3827C4.9219 14.1823 5.34619 13.8287 5.63494 13.3809L2.17584 14.3532Z" fill="#ADB2BE"/>
<path d="M18.8879 4.22339H18.9233H18.9645L19.8485 4.24696C19.9486 4.24696 19.9958 4.3766 19.9192 4.44142L17.8744 6.22106C17.4619 6.58053 16.9492 6.79267 16.4188 6.83981L18.8879 4.22339Z" fill="#ADB2BE"/>
</svg>
