<svg width="18" height="33" viewBox="0 0 18 33" fill="none" xmlns="http://www.w3.org/2000/svg">
<path d="M1.03488 26.5152C0.674129 26.5152 0.389316 26.7083 0.417797 26.9401C0.740581 30.37 4.46211 33.0738 9.00954 33.0738C13.557 33.0738 17.2786 30.37 17.6013 26.9401C17.6203 26.7083 17.3355 26.5152 16.9842 26.5152H1.03488Z" fill="#762700"/>
<path d="M18 25.5881L17.9905 24.2131C17.9905 23.5796 17.3639 23.0698 16.5855 23.0698H1.40507C0.626601 23.0698 0 23.5874 0 24.2208V25.6113C0 28.9177 4.02533 31.5983 9 31.5983C13.9747 31.5983 18 28.9177 18 25.6113V25.5881Z" fill="#F96A22"/>
<path d="M9 29.4739C13.9709 29.4739 18 26.7933 18 23.487C18 20.1806 13.9709 17.5 9 17.5C4.02911 17.5 0 20.1806 0 23.487C0 26.7933 4.02912 29.4739 9 29.4739Z" fill="#F1AA86"/>
<path d="M8.99991 20.5C8.4418 20.5 8 20.2559 8 19.9617V8.03829C8 7.73786 8.45342 7.5 8.99991 7.5C9.55795 7.5 9.99978 7.74412 9.99978 8.03829V19.9617C10.0114 20.2559 9.55795 20.5 8.99991 20.5Z" fill="#F96A22"/>
<path d="M15.2077 26.4934C14.7039 26.5421 14.2324 26.3127 14.1574 25.9861L10.01 8.18755C9.93503 7.86092 10.2887 7.55512 10.7924 7.50646C11.2961 7.45781 11.7676 7.68717 11.8426 8.01381L15.9899 25.8124C16.065 26.1459 15.7113 26.4448 15.2077 26.4934Z" fill="#F96A22"/>
<path d="M2.79234 26.4935C3.29603 26.5422 3.76757 26.3128 3.8426 25.9862L7.98996 8.1876C8.06497 7.85401 7.71131 7.55517 7.20763 7.50651C6.69323 7.45786 6.22171 7.68722 6.15741 8.01386L2.01004 25.8124C1.93502 26.146 2.28865 26.4448 2.79234 26.4935Z" fill="#F96A22"/>
<path d="M12.9436 15.3552C12.8094 15.4806 12.4624 15.5358 12.1827 15.4756L5.32304 13.9859C5.04328 13.9257 4.92021 13.7702 5.05449 13.6448C5.18877 13.5194 5.53566 13.4642 5.81542 13.5244L12.6751 15.0141C12.966 15.0793 13.0779 15.2298 12.9436 15.3552Z" fill="#F96A22"/>
<path d="M5.0545 15.3552C5.18881 15.4806 5.53579 15.5358 5.81561 15.4756L12.6769 13.9859C12.9567 13.9257 13.0798 13.7702 12.9455 13.6448C12.8112 13.5194 12.4642 13.4642 12.1843 13.5244L5.32312 15.0141C5.04329 15.0793 4.92019 15.2298 5.0545 15.3552Z" fill="#F96A22"/>
<path d="M13.9382 20.2956C13.7987 20.4762 13.436 20.5496 13.1478 20.4649L5.33672 18.1843C5.03916 18.0996 4.91828 17.8794 5.05777 17.7044C5.19726 17.5237 5.5599 17.4504 5.84817 17.5351L13.6592 19.8157C13.9568 19.9004 14.0869 20.1149 13.9382 20.2956Z" fill="#F96A22"/>
<path d="M4.0584 20.2948C4.1994 20.4761 4.56602 20.5498 4.85743 20.4648L12.6596 18.1869C12.9605 18.1019 13.0826 17.8809 12.9416 17.7052C12.8006 17.5239 12.434 17.4502 12.1426 17.5352L4.3404 19.8131C4.03959 19.9038 3.91739 20.1191 4.0584 20.2948Z" fill="#F96A22"/>
<path d="M13.9474 7.29843C13.9474 8.87291 11.7195 10.1561 8.97897 10.1561C6.23844 10.1561 4 8.87291 4 7.29843V6.0971C4 5.77855 4.30334 5.51465 4.66943 5.51465H13.278C13.6545 5.51465 13.9474 5.77856 13.9474 6.0971V7.29843Z" fill="#762700"/>
<path d="M8.96849 8.68176C11.7121 8.68176 13.937 7.40217 13.937 5.82407C13.937 4.24596 11.7121 2.96637 8.96849 2.96637C6.22484 2.96637 4 4.24596 4 5.82407C4 7.40217 6.22484 8.68176 8.96849 8.68176Z" fill="#F1AA86"/>
<path d="M8.96841 7.43495C10.869 7.43495 12.4097 6.63227 12.4097 5.64208C12.4097 4.65188 10.869 3.84918 8.96841 3.84918C7.06785 3.84918 5.5271 4.65191 5.5271 5.64208C5.5271 6.63224 7.06785 7.43495 8.96841 7.43495Z" fill="white"/>
<path d="M12 5.63339V2.91107C12 1.30153 10.6564 0 8.9949 0C7.34361 0 6 1.30154 6 2.91107V5.64331C6 5.77247 6.04104 5.89169 6.1231 5.99105C7.13851 7.27273 10.7488 7.4019 11.8769 5.98111C11.9591 5.88178 12 5.75262 12 5.63339Z" fill="#F96A22"/>
<path d="M9.82744 4.07592L9.78779 4.05028C9.68341 3.9833 9.53281 3.9833 9.4294 4.05028L9.32575 4.11726C9.31359 4.12529 9.29583 4.1251 9.28366 4.11707L9.18075 4.05066C9.07686 3.9835 8.9265 3.9833 8.82212 4.05028L8.71823 4.11726C8.70607 4.1251 8.68831 4.12529 8.67614 4.11745L8.57128 4.04971C8.46764 3.98349 8.31752 3.9833 8.21387 4.0499L8.17348 4.07593C8.03553 4.16471 7.97325 4.30479 8.01072 4.44143L8.36131 5.72202V7H8.61045V5.71169C8.61045 5.7048 8.60948 5.69791 8.60778 5.69103L8.25426 4.40009C8.23674 4.33561 8.26618 4.26939 8.33114 4.22748L8.37153 4.20165C8.38345 4.1938 8.40121 4.19361 8.41362 4.20146L8.51848 4.2692C8.62262 4.33579 8.77274 4.3356 8.87638 4.26882L8.98027 4.20184C8.99243 4.1938 9.01019 4.19399 9.02236 4.20203L9.12528 4.26843C9.22941 4.33579 9.38026 4.33599 9.4839 4.26882L9.58755 4.20184C9.59947 4.19399 9.61723 4.19361 9.62964 4.20184L9.6693 4.22729C9.73401 4.26939 9.76345 4.33541 9.74569 4.3999L9.39218 5.69102C9.39047 5.69791 9.3895 5.7048 9.3895 5.71169V7H9.63864V5.72202L9.98948 4.44104C10.0265 4.3046 9.96442 4.16471 9.82744 4.07592Z" fill="#F1AA86"/>
<path opacity="0.4" d="M11 2C11.2689 1.65575 11.1954 1.17493 11 1.00001C10.8046 0.825084 10.2689 0.655748 10 1C9.73111 1.34425 9.78346 1.80617 9.99999 2.00003C10.2165 2.19388 10.7311 2.34426 11 2Z" fill="white" fill-opacity="0.4"/>
<path d="M6.68888 2.5C6.75253 2.5 6.81618 2.45794 6.84175 2.40216C7.17338 1.70299 7.72181 1.15741 8.38506 0.877618C8.47458 0.835865 8.52544 0.724014 8.48708 0.625857C8.449 0.528028 8.34698 0.472259 8.25776 0.514003C7.51778 0.835865 6.90569 1.43721 6.52292 2.2202C6.47177 2.31834 6.51013 2.4302 6.59936 2.48597C6.62493 2.5 6.6633 2.5 6.68888 2.5Z" fill="white"/>
</svg>
