<svg width="423" height="181" viewBox="0 0 423 181" fill="none" xmlns="http://www.w3.org/2000/svg">
<path opacity="0.4" d="M327.843 170.347C250.832 172.488 173.541 174.139 96.5194 174.379C80.4748 174.43 63.9269 174.273 47.937 172.995C34.8096 171.942 21.1862 168.23 12.0772 158.748C5.68489 152.089 2.09672 143.085 0.773041 133.978C-4.94833 94.7822 21.9702 56.5629 52.3784 34.6411C80.6717 14.2419 117.505 1.91864 152.369 0.578123C177.104 -0.376266 201.626 4.16619 225.044 12.7812C237.515 17.4106 249.579 23.0666 261.112 29.6907C270.13 34.8342 279.031 40.1926 287.837 45.6931C297.949 52.0132 307.944 58.5191 317.899 65.0796C329.484 72.7293 340.584 81.0346 351.618 89.4384C364.661 99.3757 377.589 109.454 390.402 119.673C396.966 124.911 403.486 130.192 409.962 135.515C414.039 138.863 423.487 143.092 422.98 149.47C422.35 157.364 406.381 162.609 400.182 164.405C385.013 168.777 369.092 168.445 353.478 169.305C344.931 169.786 336.383 170.106 327.843 170.347Z" fill="#FFF1BE"/>
<path d="M373.203 170.359H38.796C36.1271 170.359 33.9635 172.522 33.9635 175.191C33.9635 177.86 36.1271 180.024 38.796 180.024H373.203C375.872 180.024 378.035 177.86 378.035 175.191C378.035 172.522 375.872 170.359 373.203 170.359Z" fill="#6A7680"/>
<path d="M299.722 80.9276H288.634C286.84 80.9276 285.385 82.3821 285.385 84.1762V86.8642C285.385 88.6584 286.84 90.1128 288.634 90.1128H299.722C301.516 90.1128 302.97 88.6584 302.97 86.8642V84.1762C302.97 82.3821 301.516 80.9276 299.722 80.9276Z" fill="#CB1116"/>
<path d="M205.335 110.832H187.075C176.535 110.832 167.987 125.44 167.987 143.457C167.987 145.746 168.129 148.032 168.412 150.303C170.208 164.681 177.55 175.548 186.426 176.058V176.083H205.335C214.503 176.083 222.164 165.042 224.02 150.303C224.303 148.033 224.445 145.749 224.444 143.462C224.423 125.44 215.879 110.832 205.335 110.832Z" fill="#2C2E30"/>
<path d="M349.287 110.832H331.027C320.487 110.832 311.943 125.435 311.943 143.457C311.942 145.744 312.084 148.029 312.368 150.299C314.164 164.681 321.506 175.544 330.381 176.053V176.079H349.295C358.463 176.079 366.12 165.038 367.98 150.299C368.263 148.029 368.405 145.744 368.404 143.457C368.375 125.435 359.826 110.832 349.287 110.832Z" fill="#3A3842"/>
<path d="M93.4613 75.7554H55.2853L45.374 72.2224H109.798L93.4613 75.7554Z" fill="#6A7680"/>
<path d="M145.689 103.451H52.1979C50.8728 103.451 49.7986 104.525 49.7986 105.85V145.746C49.7986 147.071 50.8728 148.145 52.1979 148.145H145.689C147.014 148.145 148.088 147.071 148.088 145.746V105.85C148.088 104.525 147.014 103.451 145.689 103.451Z" fill="#433144"/>
<path d="M147.668 55.3934C132.737 55.3934 131.781 52.9389 122.894 56.2172C108.944 61.3682 77.2948 84.9957 77.2948 84.9957L66.8781 101.476L172.896 97.1619L147.668 55.3934Z" fill="#F37276"/>
<path d="M119.225 58.1284C142.266 43.8262 228.542 47.3211 246.619 55.4404C261.198 59.4661 302.414 96.0751 302.414 96.0751L121.773 89.1957C121.805 87.656 121.935 86.1199 122.163 84.5968C112.728 80.0743 101.326 69.2372 119.225 58.1284Z" fill="#F37276"/>
<path d="M139.455 56.1197C143.47 55.6612 147.508 55.44 151.549 55.4572H242.708C255.358 55.4572 301.403 96.0919 301.403 96.0919L111.721 91.7902C81.4774 91.7265 111.984 61.0668 139.455 56.1197Z" fill="#BDF1FF"/>
<path opacity="0.4" d="M236.555 55.4403H242.708C255.359 55.4403 301.403 96.075 301.403 96.075L297.611 95.99C292.94 93.3784 288.269 91.1788 288.269 91.1788C284.456 87.0384 251.397 55.4403 236.555 55.4403Z" fill="#8C4C57"/>
<g style="mix-blend-mode:multiply" opacity="0.4">
<path d="M139.455 56.1197C143.47 55.6612 147.508 55.44 151.549 55.4572H237.566C233.525 55.44 229.486 55.6613 225.472 56.1197C198.001 61.0668 167.494 91.7265 197.738 91.7902L299.654 94.5419C300.77 95.5101 301.395 96.0621 301.395 96.0621L111.721 91.7902C81.4774 91.7265 111.984 61.0668 139.455 56.1197Z" fill="#8C4C57"/>
</g>
<path d="M188.013 63.1563C188.013 63.1563 197.462 84.7072 197.462 88.2573" stroke="#647F7F" stroke-width="2.4261" stroke-miterlimit="10" stroke-linecap="square"/>
<g style="mix-blend-mode:screen">
<path style="mix-blend-mode:screen" d="M292.324 89.7179C291.955 89.5184 291.564 89.2933 291.148 89.047C282.8 84.0531 259.771 72.4432 226.368 72.4432C224.538 72.4432 222.678 72.4814 220.848 72.5494L219.998 72.5834C208.63 73.008 200.413 73.3223 193.984 73.3223C180.727 73.3223 176.051 72.0483 172.251 67.3772C170.684 65.462 170.811 63.9205 170.977 61.7845C171.205 60.0271 171.111 58.2428 170.701 56.5189H242.708C249.129 56.5444 267.546 68.8592 292.324 89.7179Z" fill="url(#paint0_linear_555_27905)"/>
</g>
<g style="mix-blend-mode:multiply" opacity="0.3">
<path d="M139.455 56.1197C143.47 55.6612 147.508 55.44 151.549 55.4572H162.755C164.389 56.4264 165.628 57.9406 166.254 59.7334C168.734 66.0607 172.378 88.8176 175.656 92.3295V93.2595L149.116 92.6395L108.128 89.9727C108.128 89.9727 103.457 89.548 99.7799 87.6583C95.2107 79.1017 118.235 59.9415 139.455 56.1197Z" fill="#2C2E30"/>
</g>
<path opacity="0.7" d="M120.367 63.1563H174.064C186.379 63.1563 177.202 69.6364 177.202 69.6364L166.985 79.9002C166.985 79.9002 164.012 82.4481 157.914 82.4481H101.75C102.442 76.2609 108.918 69.4538 120.367 63.1563Z" fill="#BDF1FF"/>
<g style="mix-blend-mode:screen" opacity="0.8">
<path style="mix-blend-mode:screen" d="M168.442 78.6514C165.265 76.1884 158.581 74.4729 151.222 74.4729H150.844C149.57 74.4729 148.241 74.4729 146.912 74.4729C143.515 74.4729 139.977 74.4431 136.546 74.4177C133.2 74.3922 129.752 74.3667 126.525 74.3667C115.28 74.3667 109.288 74.6979 106.375 75.5982C106.353 75.3686 106.295 75.1438 106.205 74.9315C113.089 67.912 126.164 59.5889 139.646 57.1514C143.295 56.7399 146.964 56.5372 150.636 56.5442C159.193 56.6079 163.299 60.0603 165.771 69.2837C166.382 71.5683 167.091 74.0058 167.839 76.5876L168.442 78.6514Z" fill="url(#paint1_linear_555_27905)"/>
</g>
<path d="M244.237 57.4659C246.246 57.4659 251.855 59.071 266.901 69.8359C275.733 76.1504 283.946 81.535 290.808 87.2465C288.226 87.5183 236.504 87.616 219.514 87.0682C208.732 86.7242 195.135 86.4524 195.135 86.4524L185.521 86.0999C180.875 86.0999 178.862 79.3268 176.429 72.2606C176.055 71.1735 175.703 70.1374 175.342 69.1437C174.493 66.8294 172.968 62.5234 174.289 60.0732C174.365 59.9288 175.202 58.6591 180.803 57.95C184.064 57.603 187.342 57.4456 190.621 57.4786H244.237V57.4659ZM242.721 55.4403H188.905C185.054 55.4743 172.021 55.2704 169.962 59.0965C168.263 62.2517 169.792 66.7402 170.896 69.8104C173.924 78.2652 177.092 90.1341 183.992 90.1341L196.137 91.9983C206.469 91.9983 247.634 91.8157 273.253 91.8157C286.71 91.8157 295.879 91.3104 294.031 89.7604C280.018 77.9934 251.838 55.4403 242.687 55.4403H242.721Z" fill="#4E4C59"/>
<path d="M196.158 89.977C207.794 91.3996 228.975 89.4122 256.705 90.4017C299.968 91.9219 274.897 89.6543 304.69 89.6543C334.483 89.6543 363.359 98.9499 369.534 109.766L373.152 118.484C374.328 121.745 373.576 126.879 373.576 130.565L366.706 146.328C366.706 150.01 367.555 152.303 364.888 152.303C364.888 152.303 366.264 153.441 362.824 153.441C359.385 153.441 358.54 153.105 358.54 146.222C358.54 146.035 358.54 145.848 358.54 145.665C358.54 145.572 358.54 145.479 358.54 145.389C358.54 125.142 348.773 108.67 336.751 108.67C324.729 108.67 314.966 125.142 314.966 145.389C314.966 145.479 314.966 145.572 314.966 145.661C314.966 145.848 314.966 146.035 314.966 146.222C314.966 151.882 314.393 153.441 311.145 153.441H210.715C205.016 153.441 205.428 151.615 205.428 148.426C205.428 147.436 205.471 146.511 205.471 145.733C205.471 133.24 201.785 122.174 196.158 115.443V89.977Z" fill="#CB1116"/>
<path d="M335.307 108.368H89.9832C88.7683 108.368 87.7835 109.353 87.7835 110.568V158.94C87.7835 160.155 88.7683 161.14 89.9832 161.14H335.307C336.522 161.14 337.507 160.155 337.507 158.94V110.568C337.507 109.353 336.522 108.368 335.307 108.368Z" fill="#433144"/>
<path d="M73.7193 176.079H92.6374C101.81 176.079 109.466 165.038 111.322 150.299C111.605 148.029 111.747 145.744 111.747 143.457C111.747 125.435 103.198 110.832 92.6374 110.832H74.3775L72.6789 144.379L73.715 176.092L73.7193 176.079Z" fill="#2C2E30"/>
<path d="M216.745 176.079H235.655C244.823 176.079 252.484 165.038 254.339 150.299C254.623 148.029 254.764 145.744 254.764 143.457C254.764 125.435 246.22 110.832 235.655 110.832H217.395L215.696 144.379L216.737 176.092L216.745 176.079Z" fill="#2C2E30"/>
<path d="M322.372 152.286C322.216 151.035 322.138 149.776 322.139 148.515C322.139 138.591 326.848 130.548 332.653 130.548L322.372 152.286Z" fill="#2C2E30"/>
<path d="M332.67 130.548C338.475 130.548 343.18 138.591 343.18 148.515C343.182 149.776 343.106 151.035 342.951 152.286L332.67 130.548Z" fill="#2C2E30"/>
<path d="M246.823 108.075H249.027V154.528H360.977C362.756 154.528 368.582 151.517 368.582 147.835L374.638 132.582C374.638 128.9 374.277 123.24 373.101 119.991L368.825 108.92C368.323 107.528 358.93 106.249 358.242 105.184H246.823V108.075Z" fill="#ED2A2F"/>
<path d="M215.259 90.7115C245.604 96.4103 263.125 107.273 263.125 107.273C268.081 108.241 285.415 117.889 285.415 117.889L344.301 117.129L352.994 114.347C322.453 90.6945 291.679 90.6945 269.92 90.6945L215.259 90.7115Z" fill="#ED2A2F"/>
<path d="M343.18 103.94C342.471 104.564 337.694 104.364 337.694 104.364C337.694 104.364 339.681 105.392 341.482 106.487C345.083 108.721 348.178 114.335 337.503 114.335C326.827 114.335 345.423 119.006 345.423 119.006L350.692 119.121C350.692 119.121 364.591 107.502 363.432 106.87C362.273 106.237 352.595 101.774 352.973 101.438C357.147 97.7354 343.18 103.94 343.18 103.94Z" fill="#CB1116"/>
<path d="M285.53 117.906C285.53 117.906 257.045 89.977 196.158 89.977L99.9159 91.2212L200.982 100.449L269.291 117.906H285.53Z" fill="#F37276"/>
<path d="M69.7363 84.4692C55.4214 84.4692 49.5697 86.24 49.5697 107.294V132.879H54.4404C57.5446 118.709 65.6384 108.577 75.1124 108.577C87.2616 108.577 97.1474 125.236 97.1474 145.712C97.1474 146.489 97.1049 147.411 97.1049 148.404C97.1049 151.593 96.6803 153.419 102.392 153.419H192.655C195.921 153.419 196.477 151.874 196.477 146.2C196.477 146.014 196.477 145.827 196.477 145.64C196.477 145.551 196.477 145.457 196.477 145.368C196.477 125.121 206.244 108.649 218.262 108.649C230.279 108.649 242.072 125.121 242.072 145.368C242.072 145.457 245.104 145.551 245.104 145.644C245.104 145.827 242.072 146.014 242.072 146.2C242.072 153.076 250.509 148.353 253.962 148.353C257.414 148.353 247.431 153.411 247.431 153.411C250.11 153.411 255.724 149.98 255.724 146.298L253.699 131.045C253.699 127.363 250.187 113.876 244.573 113.396L261.194 115.303C255.019 104.483 216.011 94.682 186.23 94.682C156.45 94.682 161.278 93.9134 118.019 92.3974C74.7599 90.8814 77.7961 84.4565 77.7961 84.4565L69.7363 84.4692Z" fill="#CB1116"/>
<g style="mix-blend-mode:multiply" opacity="0.2">
<path d="M66.428 84.5159C59.209 84.741 54.5378 85.964 51.9899 91.2127C54.4062 86.4014 72.1183 87.3908 74.2415 88.049L70.925 86.1848L66.428 84.5159Z" fill="#2C2E30"/>
</g>
<path d="M75.8426 103.451H86.7773L91.1724 106.22L89.3592 108.479L78.6495 107.502L75.8426 103.451Z" fill="#2C2E30"/>
<path d="M75.1119 108.577C84.2164 108.577 92.0512 117.919 95.4017 131.24C97.1003 128.692 102.043 128.391 102.901 130.985C104.213 134.947 104.659 128.038 104.659 128.038C104.659 128.038 105.708 110.398 82.9637 104.258C60.2195 98.1175 52.6268 124.399 52.6268 132.879H54.44C57.5442 118.709 65.638 108.577 75.1119 108.577Z" fill="#ED2A2F"/>
<g style="mix-blend-mode:multiply" opacity="0.3">
<path d="M200.965 117.061C177.202 114.687 92.6372 108.776 91.8771 108.776C91.8771 108.776 97.5207 105.587 103.343 118.968C109.165 132.348 104.332 142.379 115.088 147.908C125.845 153.436 189.695 152.307 189.695 152.307L193.899 149.551L196.175 130.569L198.324 123.996L203.356 118.178C203.356 118.178 206.018 117.566 200.965 117.061Z" fill="#8C4C57"/>
</g>
<path d="M197.878 116.458C203.089 107.676 210.333 102.844 218.261 102.844C226.083 102.844 233.829 107.706 239.494 116.19C244.9 124.259 247.881 134.633 247.881 145.381H242.088C242.088 125.134 230.292 108.661 218.278 108.661C206.265 108.661 196.494 125.134 196.494 145.381H190.676C190.676 134.557 193.232 124.289 197.878 116.458Z" fill="#F37276"/>
<path d="M179.588 105.332H174.815C173.6 105.332 172.616 106.317 172.616 107.532V109.804C172.616 111.019 173.6 112.003 174.815 112.003H179.588C180.803 112.003 181.788 111.019 181.788 109.804V107.532C181.788 106.317 180.803 105.332 179.588 105.332Z" fill="#FFCC0D"/>
<path d="M118.931 99.9137C118.507 101.472 116.231 102.598 113.836 102.415L109.254 102.062C106.88 101.88 105.275 100.462 105.695 98.9031C106.116 97.3446 108.396 96.2235 110.77 96.4061L115.356 96.7543C117.747 96.9369 119.348 98.3595 118.931 99.9137Z" fill="#2C2E30"/>
<path d="M217.395 110.832C227.939 110.832 236.504 125.435 236.504 143.457C236.504 145.744 236.363 148.029 236.079 150.299C234.241 165.03 226.58 176.079 217.395 176.079C208.21 176.079 200.57 165.038 198.71 150.299C198.427 148.029 198.285 145.744 198.286 143.457C198.286 125.435 206.834 110.832 217.374 110.832H217.395Z" fill="#6A7680"/>
<path d="M217.17 119.817C224.813 119.817 231.005 130.404 231.005 143.461C231.006 145.12 230.903 146.776 230.699 148.421C229.366 159.093 223.816 167.106 217.17 167.106C210.524 167.106 204.978 159.097 203.645 148.421C203.44 146.777 203.338 145.122 203.339 143.466C203.339 130.408 209.535 119.821 217.17 119.821V119.817Z" fill="#8C98A4" stroke="#DFE7E8" stroke-width="2.02175" stroke-miterlimit="10"/>
<path d="M74.3774 110.832C84.9214 110.832 93.4866 125.435 93.4866 143.457C93.4872 145.744 93.3453 148.029 93.062 150.299C91.2232 165.03 83.5668 176.079 74.3774 176.079C65.188 176.079 57.5528 165.038 55.6928 150.299C55.4095 148.029 55.2677 145.744 55.2682 143.457C55.2682 125.435 63.8121 110.832 74.3519 110.832H74.3774Z" fill="#6A7680"/>
<path d="M242.092 165.976V145.381L374.638 132.582L370.086 165.976H242.092Z" fill="#ED2A2F"/>
<path d="M371.449 165.993H362.128L327.515 172.499L318.126 165.993H268.982V161.56H371.449V165.993Z" fill="#3A3842"/>
<path d="M365.343 132.034C366.077 129.35 364.4 127.155 361.619 127.155H271.045C268.264 127.155 266.612 129.342 267.381 132.017L272.451 149.725C273.219 152.4 276.124 154.592 278.906 154.592H354.124C356.905 154.592 359.784 152.392 360.493 149.708L365.343 132.034Z" fill="#2C2E30" stroke="#C82E27" stroke-width="0.8087" stroke-miterlimit="10"/>
<path d="M281.789 119.125C273.377 115.116 248.734 100.313 241.328 104.687C233.922 109.061 243.027 117.116 252.437 118.662C261.847 120.208 281.789 119.125 281.789 119.125Z" fill="#FFCC0D"/>
<path opacity="0.2" d="M172.251 90.2784C172.251 90.2784 169.461 92.0024 168.28 94.3677C167.1 96.733 164.564 106.36 163.809 114.067V149.368" stroke="#37333F" stroke-width="0.8087" stroke-miterlimit="10" stroke-linecap="square"/>
<path d="M86.5014 103.451C101.109 103.451 113.05 123.061 113.552 147.479C106.107 146.052 105.305 142.608 104.243 138.603C103.976 136.688 103.233 133.002 103.233 132.998C102.731 130.026 102.252 128.132 101.487 126.722C97.6357 115.227 90.9135 106.801 82.9641 104.258C84.6032 103.731 84.773 103.451 86.5014 103.451Z" fill="#2C2E30"/>
<path d="M377.301 161.344C377.299 160.627 377.013 159.94 376.506 159.433C375.999 158.927 375.313 158.641 374.596 158.639H254.004C253.287 158.641 252.601 158.927 252.094 159.433C251.587 159.94 251.301 160.627 251.299 161.344V163.267C251.301 163.984 251.587 164.672 252.093 165.179C252.6 165.686 253.287 165.973 254.004 165.976H284.732C286.476 165.892 288.166 165.336 289.619 164.367L290.069 164.04C291.522 163.073 293.21 162.518 294.953 162.435H355.882C357.372 162.435 359.117 163.229 359.763 164.206C360.408 165.182 362.154 165.976 363.644 165.976H374.604C375.322 165.974 376.009 165.688 376.516 165.18C377.023 164.673 377.308 163.985 377.309 163.267L377.301 161.344Z" fill="#ED2A2F"/>
<path d="M161.783 90.4186C151.01 90.27 93.4611 92.3126 100.909 79.9171C105.874 71.6534 93.4611 86.8049 93.4611 86.8049L99.9157 91.0896L106.71 91.8412L157.243 94.0197L159.974 91.8455L161.783 90.4186Z" fill="#F37276"/>
<path d="M150.39 52.3785C151.982 52.2638 153.651 52.0855 155.303 51.8986C155.676 50.4251 157.286 49.2106 159.001 50.2001C159.613 50.5525 160.22 50.9135 160.819 51.2914C163.898 51.0026 166.339 50.9474 167.104 51.6269C167.494 51.9666 167.69 52.7607 167.766 53.7501C171.197 50.5695 176.472 49.8816 180.998 49.8433C184.264 49.8136 192.188 55.402 188.926 55.4317C185.075 55.4657 172.042 55.2619 169.983 59.088C168.284 62.2431 169.813 66.7316 170.917 69.8018C173.949 78.2693 177.121 90.151 184.035 90.1256C187.304 90.1256 173.796 94.2701 172.994 91.1362C170.599 81.692 168.424 74.9316 166.832 68.9823C164.029 58.5784 158.968 55.4402 150.39 55.4402C137.548 55.4402 143.536 52.8881 150.39 52.3785Z" fill="#F37276"/>
<path d="M76.5008 88.049C69.9527 84.482 65.2986 81.4245 62.5766 77.4328L54.8862 75.7342L62.4959 85.2251C62.4959 85.2251 63.5617 85.1912 67.2265 85.7347C69.596 86.0872 74.2247 88.0278 74.2247 88.0278L76.5008 88.049Z" fill="#ED2A2F"/>
<path d="M105.521 142.468C112.422 150.961 134.176 149.262 144.296 149.262H184.523C189.075 149.262 190.591 149.012 190.676 145.368L196.515 143.971C196.515 144.434 196.515 144.897 196.515 145.368C196.515 145.457 196.515 145.551 196.515 145.64C196.515 145.827 196.515 146.013 196.515 146.2C196.515 151.861 195.942 153.419 192.693 153.419H102.404C96.7054 153.419 97.1173 151.593 97.1173 148.404C97.1173 147.415 97.1598 146.489 97.1598 145.712C101.253 141.122 105.521 142.468 105.521 142.468Z" fill="#F37276"/>
<path d="M345.613 119.125H286.85L276.914 111.328H344.777L345.613 119.125Z" fill="#2C2E30"/>
<path d="M74.2414 88.049C67.6933 84.482 63.0392 81.4245 60.3172 77.4328L52.6268 75.7342L60.2365 85.2251C60.2365 85.2251 61.3023 85.1912 64.9628 85.7347C68.113 86.2546 71.216 87.0286 74.2414 88.049Z" fill="#CB1116"/>
<path d="M41.2551 75.059C41.6723 76.4309 42.5058 77.6393 43.6403 78.5165C44.7747 79.3938 46.1538 79.8965 47.5866 79.9552H56.9671C59.7486 79.9552 63.9781 78.7831 66.3604 77.3478L69.834 75.2543C72.2205 73.819 71.919 72.303 69.1673 71.8826L44.2574 68.0607C43.8699 67.9988 43.4763 67.9846 43.0853 68.0183H40.1935V70.736L43.8582 72.2096L41.2551 75.059Z" fill="#ED2A2F"/>
<path d="M65.5746 71.8316C68.5174 72.2818 68.8402 73.9082 66.288 75.4411L63.4216 77.1695C60.8737 78.7024 56.347 79.9594 53.3702 79.9594H44.7158C41.7433 79.9594 38.6901 77.6026 37.9215 74.7235L37.3567 72.5493C36.6093 69.6702 38.4056 67.6786 41.3484 68.1287L65.5746 71.8316Z" fill="#F37276"/>
<path d="M116.099 66.8122C116.099 66.8122 108.54 84.053 108.54 86.8897" stroke="#45424F" stroke-width="2.02175" stroke-miterlimit="10"/>
<path d="M150.628 57.6102C157.545 57.6654 162.093 59.64 164.726 69.5513C165.342 71.8444 166.051 74.2904 166.798 76.8765C167.762 80.1973 168.832 83.8875 169.962 88.1467L161.783 88.2528H160.237C159.116 88.2528 157.732 88.2528 156.148 88.2741C153.986 88.2741 151.541 88.3038 148.819 88.3038C136.64 88.3038 127.136 87.9386 119.751 87.187C105.449 85.7304 102.948 83.1613 102.523 82.4097C102.43 82.2483 102.243 81.9128 102.765 81.0381L103.007 80.6134C105.657 76.3287 110.991 71.4622 117.641 67.2667C124.826 62.7399 132.686 59.5169 139.773 58.2429C143.372 57.8274 146.992 57.6162 150.615 57.6102H150.628ZM150.628 55.4445C146.894 55.4569 143.163 55.6824 139.455 56.1197C123.628 58.9818 106.795 70.3666 101.152 79.5221L100.91 79.9467C95.1216 89.5778 128.554 90.4908 148.819 90.4908C153.575 90.4908 157.613 90.4398 160.237 90.4398H161.783L172.756 90.2997C170.45 81.3098 168.361 74.7745 166.811 69.012C164.046 58.7058 159.061 55.5294 150.619 55.4657L150.628 55.4445Z" fill="#45424F"/>
<path d="M355.457 149.708L360.285 132.034C361.016 129.35 359.338 127.155 356.557 127.155H361.619C364.4 127.155 366.077 129.35 365.343 132.034L360.515 149.708C359.784 152.392 356.905 154.592 354.145 154.592H349.083C351.847 154.592 354.722 152.392 355.457 149.708Z" fill="#C82E27"/>
<path d="M201.318 88.257C205.051 89.1487 202.91 89.7814 210.388 90.5033C217.867 91.2252 240.64 91.8452 255.482 91.8452C270.323 91.8452 296.303 91.6329 293.908 89.6371H275.398L221.077 88.257H201.318Z" fill="#4E4C59"/>
<path d="M281.789 119.125C274.2 115.511 253.418 103.12 243.995 103.948C254.76 107.405 254.089 114.904 266.378 117.163C275.75 118.887 281.789 119.125 281.789 119.125Z" fill="#FFE16F"/>
<path opacity="0.7" d="M246.823 107.281C244.161 105.239 243.987 105.205 241.434 104.657C241.4 104.678 241.358 104.691 241.328 104.708C235.434 108.207 239.995 114.004 246.849 117.023C257.601 120.641 249.957 109.681 246.823 107.281Z" fill="#FFE16F"/>
<path d="M373.394 119.333C373.326 119.045 373.241 118.762 373.139 118.484L369.509 109.749C368.568 108.184 367.374 106.786 365.976 105.613C359.181 109.01 353.627 116.454 350.625 119.125C350.637 119.125 363.988 119.817 373.394 119.333Z" fill="#FFE16F"/>
<path opacity="0.7" d="M276.018 119.469C272.349 115.222 260.199 108.717 250.42 104.759C249.088 104.392 247.729 104.133 246.356 103.982C245.048 103.85 260.199 107.027 265.771 119.397C269.419 119.533 272.578 119.528 276.018 119.469Z" fill="#FFF1BE"/>
<path d="M245.086 127.618C249.261 141.181 248.314 152.354 248.11 164.346L256.318 165.573C256.318 165.573 259.716 142.281 250.913 120.233L245.086 127.618Z" fill="#CB1116"/>
<path d="M241.897 165.976H260.374C261.049 165.976 261.697 165.708 262.175 165.23C262.653 164.752 262.921 164.104 262.921 163.429V161.152C262.921 160.477 262.653 159.829 262.175 159.351C261.697 158.873 261.049 158.605 260.374 158.605H241.897V165.976Z" fill="#CB1116"/>
<path d="M327.757 134.115H292.77C291.931 134.115 291.25 134.795 291.25 135.635V144.88C291.25 145.719 291.931 146.4 292.77 146.4H327.757C328.597 146.4 329.277 145.719 329.277 144.88V135.635C329.277 134.795 328.597 134.115 327.757 134.115Z" fill="white"/>
<path d="M292.766 146.4H297.263V134.115H292.766C292.363 134.116 291.977 134.277 291.692 134.561C291.407 134.846 291.247 135.232 291.246 135.635V144.871C291.245 145.071 291.284 145.27 291.36 145.455C291.436 145.64 291.548 145.808 291.689 145.95C291.83 146.092 291.998 146.205 292.183 146.282C292.368 146.359 292.566 146.399 292.766 146.4Z" fill="#FFCC0D"/>
<path opacity="0.3" d="M279.852 135.86H346.891L348.947 128.883H279.852V135.86Z" fill="#2C2E30"/>
<path opacity="0.2" d="M101.245 81.3947C99.5461 85.3482 94.7179 97.7904 94.7306 109.154" stroke="#37333F" stroke-width="0.8087" stroke-miterlimit="10" stroke-linecap="square"/>
<path d="M119.726 97.9094L105.139 96.886L119.726 97.9094Z" fill="#F37276" stroke="#D6332B" stroke-width="3.63915" stroke-linejoin="round"/>
<g style="mix-blend-mode:lighten">
<path d="M221.204 120.84C226.877 123.813 231.005 132.799 231.005 143.457C231.006 145.115 230.903 146.772 230.699 148.417C229.646 156.842 225.964 163.598 221.195 166.074C216.427 163.598 212.749 156.838 211.696 148.413C211.492 146.769 211.39 145.114 211.39 143.457C211.39 132.786 215.526 123.779 221.204 120.84Z" fill="#CAD5D7"/>
</g>
<g style="mix-blend-mode:darken">
<g style="mix-blend-mode:darken">
<path d="M189.458 145.759H182.663C180.196 145.759 178.179 142.786 178.179 139.181V134.782C178.183 133.038 178.878 131.367 180.11 130.134C181.343 128.901 183.013 128.205 184.757 128.2H191.695C191.695 128.2 189.445 132.871 189.445 140.374L189.458 145.759Z" fill="#2C2E30"/>
</g>
</g>
<path d="M224.24 126.025C224.775 126.302 229.464 131.389 229.464 142.901C229.464 154.413 224.792 161.093 224.232 161.386C220.355 161.386 216.614 154.167 215.794 147.581C215.634 146.295 215.555 145 215.556 143.704C215.556 135.364 219.293 126.025 224.24 126.025Z" fill="#3A3842"/>
<g style="mix-blend-mode:lighten">
<path d="M211.39 143.453H231.005" stroke="#CAD5D7" stroke-width="1.6174" stroke-miterlimit="10"/>
</g>
<g style="mix-blend-mode:lighten">
<path d="M224.58 161.509L225.591 143.457L224.58 125.397" stroke="#CAD5D7" stroke-width="1.6174" stroke-miterlimit="10"/>
</g>
<path d="M217.272 131.643L225.591 143.457L217.272 155.764" stroke="#CAD5D7" stroke-width="1.6174" stroke-miterlimit="10"/>
<g style="mix-blend-mode:lighten">
<path d="M230.011 152.265L225.591 143.457L229.463 132.582" stroke="#CAD5D7" stroke-width="1.6174" stroke-miterlimit="10"/>
</g>
<g style="mix-blend-mode:lighten">
<g style="mix-blend-mode:lighten">
<g style="mix-blend-mode:lighten">
<path d="M224.763 136.977C226.856 136.977 228.555 139.877 228.559 143.461C228.559 143.916 228.531 144.37 228.474 144.82C228.109 147.75 226.585 149.946 224.763 149.946C222.941 149.946 221.417 147.75 221.051 144.82C220.995 144.37 220.966 143.916 220.966 143.461C220.966 139.877 222.665 136.977 224.763 136.977Z" fill="#CAD5D7"/>
</g>
</g>
</g>
<path d="M73.9994 119.592C81.6431 119.592 87.8345 130.178 87.8345 143.236C87.8352 144.894 87.7331 146.551 87.5287 148.196C86.1953 158.872 80.6451 166.881 73.9994 166.881C67.3536 166.881 61.8077 158.872 60.4743 148.196C60.2701 146.551 60.168 144.894 60.1686 143.236C60.1686 130.178 66.3642 119.592 73.9994 119.592Z" fill="#8C98A4" stroke="#DFE7E8" stroke-width="2.02175" stroke-miterlimit="10"/>
<g style="mix-blend-mode:lighten">
<path d="M78.038 120.62C83.707 123.592 87.8346 132.578 87.8346 143.236C87.8354 144.894 87.7333 146.551 87.5289 148.196C86.4758 156.621 82.7983 163.382 78.0252 165.857C73.2564 163.377 69.579 156.617 68.5258 148.196C68.3216 146.551 68.2195 144.894 68.2201 143.236C68.2201 132.556 72.3562 123.558 78.038 120.62Z" fill="#CAD5D7"/>
</g>
<path d="M81.07 125.805C81.6051 126.081 86.2932 131.172 86.2932 142.684C86.2932 154.197 81.6221 160.872 81.0615 161.165C77.1845 161.165 73.4476 153.946 72.6238 147.36C72.4638 146.074 72.3844 144.779 72.3859 143.483C72.3859 135.143 76.1229 125.805 81.07 125.805Z" fill="#3A3842"/>
<g style="mix-blend-mode:lighten">
<path d="M68.2201 143.236H87.8346" stroke="#CAD5D7" stroke-width="1.6174" stroke-miterlimit="10"/>
</g>
<g style="mix-blend-mode:lighten">
<path d="M81.4096 161.288L82.4245 143.236L81.4096 125.176" stroke="#CAD5D7" stroke-width="1.6174" stroke-miterlimit="10"/>
</g>
<path d="M74.1012 131.427L82.4243 143.236L74.1012 155.543" stroke="#CAD5D7" stroke-width="1.6174" stroke-miterlimit="10"/>
<g style="mix-blend-mode:lighten">
<path d="M86.8453 152.044L82.4247 143.236L86.2933 132.361" stroke="#CAD5D7" stroke-width="1.6174" stroke-miterlimit="10"/>
</g>
<g style="mix-blend-mode:lighten">
<g style="mix-blend-mode:lighten">
<g style="mix-blend-mode:lighten">
<path d="M81.5964 136.756C83.69 136.756 85.3928 139.661 85.3928 143.241C85.3928 143.696 85.3644 144.152 85.3079 144.604C84.9427 147.53 83.4182 149.725 81.5964 149.725C79.7747 149.725 78.2502 147.53 77.885 144.599C77.8297 144.149 77.8028 143.695 77.8043 143.241C77.8043 139.661 79.5029 136.756 81.5964 136.756Z" fill="#CAD5D7"/>
</g>
</g>
</g>
<path d="M221.799 147.78C221.518 147.78 220.525 146.808 220.236 144.553C220.19 144.191 220.167 143.826 220.168 143.462C220.168 140.672 221.391 139.143 221.794 139.143C222.198 139.143 223.425 140.672 223.425 143.462C223.426 143.828 223.403 144.194 223.357 144.557C223.077 146.808 222.079 147.78 221.799 147.78Z" fill="#DFEBED"/>
<path d="M78.624 147.559C78.3437 147.559 77.35 146.591 77.0613 144.332C77.0149 143.97 76.9922 143.606 76.9933 143.241C76.9933 140.455 78.2163 138.922 78.624 138.922C79.0316 138.922 80.2504 140.455 80.2504 143.241C80.2508 143.605 80.2296 143.97 80.1867 144.332C79.8979 146.591 78.9085 147.559 78.624 147.559Z" fill="#DFEBED"/>
<path d="M167.146 91.8455C166.636 92.9623 164.568 94.3212 159.761 95.2767C154.954 96.2321 145.217 94.0027 145.217 94.0027C145.217 94.0027 150.088 91.1491 163.303 91.1491L167.146 91.8455Z" fill="#933838"/>
<path d="M166.178 88.2529L158.606 86.066L157.23 87.6117C157.23 87.6117 162.088 91.8157 163.116 92.8731C165.137 94.9623 170.624 89.8241 166.178 88.2529Z" fill="#CB1116"/>
<path d="M159.341 87.9684C159.341 87.9684 161.112 89.5524 162.552 90.0407C163.991 90.5291 166.102 88.8899 165.252 87.9684L166.191 88.2402C170.637 89.8114 165.151 94.9497 163.129 92.8604C162.28 92.0111 158.883 89.0131 157.668 87.9684H159.341Z" fill="#CB1116"/>
<path d="M159.176 79.4117H143.026C141.232 79.4117 139.778 80.8662 139.778 82.6603V85.3483C139.778 87.1425 141.232 88.5969 143.026 88.5969H159.176C160.97 88.5969 162.424 87.1425 162.424 85.3483V82.6603C162.424 80.8662 160.97 79.4117 159.176 79.4117Z" fill="#CB1116"/>
<path d="M146.228 81.726C146.228 82.4437 146.958 83.0297 147.85 83.0297H159.787C160.679 83.0297 161.409 82.4437 161.409 81.726C161.409 81.0084 160.679 80.4223 159.787 80.4223H147.842C146.958 80.4223 146.228 81.0084 146.228 81.726Z" fill="#F37276"/>
<path d="M370.918 119.431L362.973 107.413C361.043 108.781 359.229 110.306 357.55 111.974L364.532 119.507C366.663 119.515 368.846 119.498 370.918 119.431Z" fill="#FFF1BE"/>
<defs>
<linearGradient id="paint0_linear_555_27905" x1="236.513" y1="26.8402" x2="229.349" y2="93.2001" gradientUnits="userSpaceOnUse">
<stop offset="0.21" stop-color="white"/>
<stop offset="1" stop-color="#231F20"/>
</linearGradient>
<linearGradient id="paint1_linear_555_27905" x1="147.85" y1="30.8487" x2="137.043" y2="78.0187" gradientUnits="userSpaceOnUse">
<stop stop-color="white"/>
<stop offset="1" stop-color="#231F20"/>
</linearGradient>
</defs>
</svg>
