<svg width="51" height="51" viewBox="0 0 51 51" fill="none" xmlns="http://www.w3.org/2000/svg">
<circle cx="25.6078" cy="25.5883" r="25" fill="#ED2A2F"/>
<path fill-rule="evenodd" clip-rule="evenodd" d="M32.8991 18.2979C33.3236 18.7224 33.3236 19.4106 32.8991 19.8351L19.8556 32.8786C19.4311 33.3031 18.7429 33.3031 18.3184 32.8786C17.8939 32.4541 17.8939 31.7659 18.3184 31.3414L31.3619 18.2979C31.7864 17.8734 32.4746 17.8734 32.8991 18.2979Z" fill="white" stroke="white" stroke-linecap="round" stroke-linejoin="round"/>
<path fill-rule="evenodd" clip-rule="evenodd" d="M18.3184 18.2979C18.7429 17.8734 19.4311 17.8734 19.8556 18.2979L32.8991 31.3414C33.3236 31.7659 33.3236 32.4541 32.8991 32.8786C32.4746 33.3031 31.7864 33.3031 31.3619 32.8786L18.3184 19.8351C17.8939 19.4106 17.8939 18.7224 18.3184 18.2979Z" fill="white" stroke="white" stroke-linecap="round" stroke-linejoin="round"/>
</svg>
