<svg width="491" height="254" viewBox="0 0 491 254" fill="none" xmlns="http://www.w3.org/2000/svg">
<path opacity="0.4" d="M380.546 249.307C291.155 251.795 201.439 253.711 112.036 253.991C93.4116 254.05 74.2036 253.868 55.6432 252.383C40.4054 251.16 24.592 246.849 14.0187 235.837C6.59877 228.104 2.43379 217.646 0.897312 207.07C-5.74381 161.55 25.502 117.164 60.7986 91.7047C93.6402 68.014 136.395 53.7023 176.864 52.1454C205.574 51.037 234.039 56.3125 261.222 66.3176C275.697 71.694 289.7 78.2625 303.087 85.9555C313.555 91.929 323.887 98.152 334.109 104.54C345.846 111.88 357.448 119.436 369.003 127.055C382.451 135.939 395.335 145.584 408.143 155.344C423.282 166.885 438.288 178.589 453.162 190.457C460.781 196.54 468.349 202.673 475.866 208.855C480.599 212.743 491.566 217.655 490.977 225.062C490.245 234.23 471.71 240.322 464.514 242.407C446.906 247.484 428.426 247.099 410.302 248.097C400.38 248.656 390.459 249.028 380.546 249.307Z" fill="#FFF1BE"/>
<path d="M326.392 196.294C326.392 196.294 324.963 202.789 322.613 205.917C320.199 206.648 317.42 201.63 317.42 201.63L322.311 192.928C322.311 192.928 326.058 192.705 326.392 196.294Z" fill="#AA5943"/>
<path d="M205.229 250.984H281.658C275.704 235.739 214.169 235.358 205.229 250.984Z" fill="#DBCCCC"/>
<path d="M319.341 202.662L325.566 205.615C325.566 205.615 316.801 229.594 300.984 229.118C289.741 227.911 283.469 206.155 283.469 206.155L319.357 202.646L319.341 202.662Z" fill="#FFC44D"/>
<path d="M276.688 207.854C273.782 196.977 252.884 162.915 252.884 162.915C252.884 162.915 244.468 162.311 237.02 162.676C229.573 163.042 215.551 164.614 215.551 164.614C215.551 164.614 196.463 166.424 190.778 179.477C185.093 192.53 186.3 211.253 188.603 223.703C190.905 236.152 198.274 239.773 198.274 239.773L200.798 251H284.549C283.04 241.504 279.007 216.604 276.672 207.87L276.688 207.854Z" fill="#FFC44D"/>
<path d="M275.243 208.109C275.243 208.109 284.66 229.673 300.984 229.133C290.837 223.877 285.755 206.838 285.755 206.838L275.243 208.109Z" fill="#FFB024"/>
<path d="M206.61 194.563C206.61 194.563 205.642 214.985 209.993 214.985C214.344 214.985 233.908 200.613 233.908 200.613L234.988 202.424L240.419 199.263L249.835 190.323C249.835 190.323 217.472 206.028 213.471 207.235C209.469 208.442 208.865 185.607 208.865 187.052C208.865 188.497 208.024 197.93 208.024 197.93L206.579 194.547L206.61 194.563Z" fill="#FFB024"/>
<path d="M274.878 51.6924C274.878 51.6924 284.898 67.6357 270.828 79.9585C257.124 67.2705 262.19 53.6774 262.19 53.6774L274.878 51.6765V51.6924Z" fill="#331712"/>
<path d="M245.453 208.791L253.059 156.849C253.313 155.134 254.726 153.831 256.441 153.72L327.122 148.988C329.552 148.829 331.458 151.037 330.949 153.419L320.024 204.552C319.691 206.14 318.357 207.315 316.737 207.442L249.375 213C247.025 213.19 245.103 211.142 245.453 208.807V208.791Z" fill="#443634"/>
<path d="M232.288 140.143C247.739 139.031 258.76 136.888 266.573 134.601C270.32 132.536 273.782 130.17 276.561 127.391C289.011 114.942 280.674 98.1567 274.258 84.1348C267.843 70.1129 267.128 53.8043 267.128 53.8043C263.508 44.864 216.138 22.3941 182.314 52.8198C158.828 73.94 158.463 105.271 160.432 122.453C166.72 118.118 172.644 114.751 172.644 114.751C172.644 114.751 189.317 143.208 232.272 140.127L232.288 140.143Z" fill="#AA5943"/>
<path d="M163.116 142.858C165.053 148.543 180.996 151.322 181.6 142.731C189.937 148.162 201.291 151.068 210.723 151.672C220.14 152.275 221.236 162.914 215.551 164.598C224.729 170.394 236.814 171.728 237.02 162.66C230.462 162.184 228.366 155.657 233.32 149.845C237.163 145.336 253.599 141.763 266.573 134.585C258.76 136.872 247.739 139.015 232.288 140.127C189.333 143.208 172.659 114.751 172.659 114.751C172.659 114.751 166.736 118.118 160.448 122.453C161.321 130.027 162.639 134.871 162.639 134.871C162.639 134.871 161.194 137.173 163.116 142.842V142.858Z" fill="#8C3E2C"/>
<path d="M228.445 117.038C228.445 117.038 232.526 119.976 239.593 119.849C246.659 119.706 249.835 117.451 249.962 117.991C250.089 118.531 245.167 120.436 239.196 120.532C233.241 120.627 228.159 117.626 227.937 117.276C227.715 116.911 227.937 116.736 228.429 117.054L228.445 117.038Z" fill="#840D0D"/>
<path d="M238.45 87.9142C238.45 87.9142 236.576 93.0116 237.116 99.4747C237.656 105.938 239.529 107.208 240.069 107.033C240.609 106.859 241.403 103.715 243.928 104.921C246.469 106.128 245.135 110.352 245.135 110.352C245.135 110.352 248.152 104.969 244.77 103.349C241.387 101.714 239.879 104.255 239.688 104.08C239.514 103.905 236.909 98.109 238.418 87.9301L238.45 87.9142Z" fill="#8C3E2C"/>
<path d="M255.012 97.9185L252.233 100.078C252.233 100.078 245.77 99.4906 246.373 92.4241C246.977 85.3576 257.124 81.7846 264.746 83.2932C272.353 84.8018 272.115 92.2335 268.002 95.5365C262.984 95.6794 255.012 97.9185 255.012 97.9185Z" fill="white"/>
<path d="M210.914 107.637L207.595 110.352C207.595 110.352 198.226 112.226 195.034 106.24C191.826 100.253 200.163 92.8846 211.581 92.17C222.998 91.4396 227.048 99.0619 223.538 104.493C218.346 102.857 210.914 107.637 210.914 107.637Z" fill="white"/>
<path d="M207.579 110.352C207.579 110.352 207.134 101.936 213.343 99.9986C219.553 98.0613 222.983 102.079 223.522 104.508C222.125 107.954 214.01 110.082 207.579 110.368V110.352Z" fill="#331712"/>
<path d="M252.217 100.078C252.217 100.078 251.09 91.6933 258.839 90.2483C265.302 89.0414 267.7 94.2976 267.986 95.5363C265.636 98.8234 258.617 100.634 252.217 100.078Z" fill="#331712"/>
<path d="M197.321 84.8176C197.321 84.8176 205.292 79.736 210.596 78.7991C215.9 77.8463 216.805 82.515 211.914 84.103C207.023 85.691 199.004 88.6287 197.051 87.7712C195.098 86.9137 196.463 85.3575 197.321 84.8335V84.8176Z" fill="#422019"/>
<path d="M261.38 73.1617C261.38 73.1617 252.757 70.7479 247.819 71.4308C242.88 72.1136 243.595 76.7981 248.39 76.8458C253.186 76.8775 261.158 77.2745 262.571 75.8771C264 74.4797 262.301 73.4157 261.38 73.1775V73.1617Z" fill="#422019"/>
<path d="M219.187 54.6619C219.187 54.6619 221.363 56.7104 228.366 57.5679C235.369 58.4095 234.162 51.0413 234.162 51.0413C234.162 51.0413 257.235 57.0756 271.622 45.0069C285.994 32.9224 275.973 15.534 254.583 17.4554C254.059 8.14987 250.105 3.17949 246.58 0.559315C245.897 0.416396 245.198 0.289358 244.436 0.178199C229.207 -1.75914 215.694 12.7391 215.694 12.7391C215.694 12.7391 210.977 -4.53811 186.221 2.83013C161.448 10.1984 159.638 38.2263 159.638 38.2263C159.638 38.2263 151.174 31.9378 144.171 40.1636C137.168 48.3735 146.712 57.9172 146.712 57.9172C146.712 57.9172 136.072 54.6619 134.198 63.9516C132.309 73.2571 144.536 72.1614 144.536 72.1614C144.536 72.1614 139.216 73.8606 135.723 79.8949C134.754 81.5782 134.246 83.7061 134.214 85.9451C135.485 87.5966 137.152 89.1052 139.344 90.0421C147.204 93.4245 156.256 88.597 156.256 88.597C156.256 88.597 154.572 96.4576 160.734 102.365C165.593 107.034 174.057 105.906 179.027 103.985C179.742 102.73 180.377 101.142 180.79 99.1254C182.489 90.9314 176.312 80.4983 176.312 80.4983C176.312 80.4983 182.95 82.5468 186.697 77.9576C190.445 73.3683 182.108 65.6348 182.108 65.6348C182.108 65.6348 183.188 66.1112 196.606 67.8104C199.766 68.2074 202.783 68.3026 205.578 68.128C219.743 63.634 219.203 54.646 219.203 54.646L219.187 54.6619Z" fill="#422019"/>
<path d="M160.702 102.381C154.54 96.4574 156.224 88.6127 156.224 88.6127C156.224 88.6127 147.156 93.4402 139.312 90.0578C137.12 89.1209 135.453 87.6123 134.183 85.9608C134.119 91.7887 137.454 98.3471 145.235 99.4745C143.901 118.086 148.141 128.836 162.639 134.871C166.26 129.551 173.628 133.299 173.628 133.299C173.628 133.299 178.217 130.758 178.106 123.151C177.979 115.545 173.882 108.415 173.882 108.415C173.882 108.415 176.82 107.796 178.995 103.984C174.041 105.906 165.577 107.049 160.702 102.365V102.381Z" fill="#331712"/>
<path d="M221.728 57.3138C230.668 63.8404 238.767 59.9658 237.925 52.8357C257.616 64.3168 288.312 58.5207 289.757 33.3829C291.202 8.24518 258.601 13.1997 258.601 13.1997C258.601 13.1997 259.538 3.1954 246.596 0.527588C250.137 3.16364 254.091 8.13402 254.599 17.4237C275.989 15.4864 286.01 32.8907 271.638 44.9752C257.267 57.0597 234.178 51.0095 234.178 51.0095C234.178 51.0095 235.385 58.3778 228.382 57.5361C221.379 56.6945 219.203 54.6301 219.203 54.6301C219.203 54.6301 219.743 63.6181 205.578 68.1121C214.63 67.5404 221.188 63.9357 221.744 57.2821L221.728 57.3138Z" fill="#331712"/>
<path d="M177.9 142.048C177.9 142.048 174.057 135.601 169.325 135.252C164.592 134.903 165.783 141.382 165.783 141.382C165.783 141.382 166.244 137.983 168.404 137.443C170.547 136.903 172.644 139.222 172.644 139.222C172.644 139.222 169.849 139.555 170.484 143.16C171.119 146.765 171.246 142.271 172.532 141.477C173.819 140.683 177.09 146.511 177.9 142.033V142.048Z" fill="#752C20"/>
<path d="M217.012 243.505C223.538 235.406 242.149 213 242.149 213C242.149 213 227.778 228.895 216.662 235.771C205.546 242.663 198.289 239.757 198.289 239.757L197.337 250.984H210.517C212.613 248.713 214.884 246.141 217.012 243.505Z" fill="#FFB024"/>
<path d="M324.042 200.994C324.042 200.994 326.233 196.897 326.503 195.992C326.773 195.087 326.503 193.69 326.503 193.69C326.503 193.69 327.122 192.721 327.17 191.879C327.218 191.038 327.122 190.307 327.122 190.307C327.122 190.307 327.869 189.577 327.916 188.799C327.964 188.02 327.472 186.925 327.472 186.925C327.472 186.925 329.234 185.416 326.408 184.146C323.581 182.875 319.929 184.273 320.024 185.178C320.119 186.083 322.47 185.321 325.137 186.623C321.787 185.956 319.532 186.988 320.024 187.893C320.516 188.799 322.755 188.529 324.963 189.704C321.167 188.973 319.754 189.227 319.961 190.307C320.167 191.387 324.661 191.943 324.661 191.943C324.661 191.943 319.897 191.181 320.215 192.324C320.516 193.467 323.629 194.007 323.994 194.484C324.359 194.96 324.693 197.548 324.058 200.994H324.042Z" fill="#AA5943"/>
<path opacity="0.09" d="M270.654 153.736L251.328 174.999L246.247 208.585L300.984 152.037L270.654 153.736Z" fill="white"/>
<path d="M235.004 202.439C235.004 202.439 241.117 196.056 244.611 193.737C248.104 191.419 253.043 190.291 252.805 191.387C252.583 192.467 248.358 193.197 246.183 195.643C250.979 193.562 253.662 193.562 253.837 194.563C254.012 195.563 249.851 196.008 247.358 197.914C252.201 196.326 254.79 196.278 254.52 197.374C254.25 198.453 250.121 198.644 248.311 200.82C252.789 199.374 255.012 199.549 253.885 200.724C252.757 201.899 250.947 202.217 248.851 203.63C246.77 205.028 243.769 209.347 240.657 210.284C236.623 205.933 234.988 202.439 234.988 202.439H235.004Z" fill="#AA5943"/>
</svg>
