<svg width="69" height="68" viewBox="0 0 69 68" fill="none" xmlns="http://www.w3.org/2000/svg">
<g filter="url(#filter0_d_40_106352)">
<circle cx="34.5" cy="34" r="24" fill="#804DD7"/>
</g>
<path d="M36.8828 26.8599C36.6965 26.8599 36.5178 26.9339 36.3861 27.0656C36.2544 27.1973 36.1804 27.376 36.1804 27.5623C36.1804 27.7486 36.2544 27.9272 36.3861 28.059C36.5178 28.1907 36.6965 28.2647 36.8828 28.2647C37.0691 28.2647 37.2477 28.1907 37.3795 28.059C37.5112 27.9272 37.5853 27.7486 37.5853 27.5623C37.5853 27.376 37.5112 27.1973 37.3795 27.0656C37.2477 26.9339 37.0691 26.8599 36.8828 26.8599Z" fill="white"/>
<path d="M44.0894 37.3331C44.0142 37.092 43.9203 36.8571 43.8084 36.6307L43.3448 35.7948C43.0498 35.268 42.7407 34.7201 42.4036 34.2073C42.3818 34.1789 42.363 34.1483 42.3474 34.116L42.3052 34.0458L42.3825 33.9334C42.732 33.3769 42.8807 32.7176 42.8039 32.065C42.8039 31.784 42.6986 31.3626 42.6353 31.0675V31.0184C42.5721 30.6531 42.5581 30.5758 42.5581 30.5478C42.5435 30.4407 42.5057 30.3382 42.4475 30.2472C42.3893 30.1562 42.312 30.079 42.2209 30.0209L42.1507 29.9718C40.8793 29.0375 35.9413 28.9392 33.8832 28.9392C29.1208 28.9392 26.1145 29.3677 25.412 30.1404L25.377 30.1825C25.2977 30.3008 25.2383 30.4313 25.2014 30.5688C24.9481 31.4637 24.8858 32.4018 25.0187 33.3223C25.175 34.6368 25.5853 35.9083 26.2269 37.0662C26.4165 37.4034 26.7958 38.0004 27.1962 38.6326L28.0251 39.9391C28.4465 40.6415 28.7275 41.077 28.8118 41.2245C29.5142 42.6996 29.1841 44.5399 27.8354 46.5488C27.7385 46.6745 27.6796 46.8254 27.6659 46.9835C27.6522 47.1417 27.6843 47.3004 27.7582 47.4409C27.831 47.5876 27.9431 47.7113 28.0819 47.7981C28.2208 47.8849 28.3811 47.9315 28.5449 47.9326H37.5498C37.7256 47.9351 37.8975 47.8812 38.0404 47.7788C38.1832 47.6764 38.2895 47.5309 38.3436 47.3636C38.3937 47.1985 38.3923 47.0219 38.3396 46.8576C38.2868 46.6932 38.1853 46.5488 38.0485 46.4435C37.744 46.2406 37.5037 45.9551 37.3556 45.6204C37.2076 45.2857 37.158 44.9158 37.2127 44.554V44.4416H37.3251C38.516 44.526 39.7128 44.4576 40.8863 44.2379C41.385 44.0623 42.4177 43.697 42.0805 42.3975C42.0786 42.3718 42.0786 42.346 42.0805 42.3203C42.085 42.2665 42.085 42.2125 42.0805 42.1587C42.075 42.0709 42.0608 41.9839 42.0383 41.8988V41.8286L42.0874 41.7794C42.2088 41.6354 42.3126 41.4774 42.3965 41.3088C42.6129 41.0193 42.7489 40.6778 42.7909 40.3189C42.8328 39.96 42.7791 39.5963 42.6353 39.2648L42.5792 39.1383L42.7126 39.0962C43.1273 38.9842 43.5194 38.8012 43.8716 38.5553C44.0343 38.4175 44.1521 38.2342 44.2097 38.0288C44.2673 37.8235 44.262 37.6057 44.1947 37.4034L44.0894 37.3331ZM28.1585 30.4775C30.0235 30.2602 31.9004 30.1617 33.7779 30.1825C35.6555 30.1714 37.5321 30.2746 39.3972 30.4916L40.3384 30.618L39.3972 30.7374C37.5322 30.9549 35.6553 31.0534 33.7779 31.0324C31.9002 31.0435 30.0236 30.9403 28.1585 30.7234L27.2173 30.5969L28.1585 30.4775ZM42.7407 37.7054C42.5453 37.8052 42.3374 37.8785 42.1226 37.9231H42.0313C41.9172 37.9341 41.8069 37.9693 41.7077 38.0266C41.6084 38.0838 41.5226 38.1616 41.456 38.2548C41.3894 38.348 41.3437 38.4544 41.3217 38.5669C41.2998 38.6793 41.3022 38.7951 41.3289 38.9065C41.3308 39.1663 41.3808 39.4235 41.4763 39.6651C41.5347 39.8105 41.5525 39.969 41.5278 40.1236C41.503 40.2783 41.4367 40.4233 41.3359 40.5432C41.2444 40.6855 41.1434 40.8216 41.0338 40.9506C40.9043 41.0953 40.8128 41.2699 40.7675 41.4587C40.7221 41.6475 40.7243 41.8446 40.7739 42.0323C40.7788 42.0813 40.7788 42.1307 40.7739 42.1798C40.7772 42.3487 40.8032 42.5165 40.8513 42.6785L40.8934 42.7909L40.781 42.833C40.6643 42.8866 40.5447 42.9335 40.4227 42.9735C39.2904 43.1445 38.1408 43.1705 37.0019 43.0508C36.501 42.9253 36.0257 42.7138 35.5971 42.4256L35.4848 42.3695C35.4848 42.3695 33.3775 41.2315 33.3775 39.8759V39.4123C33.3775 39.2446 33.3109 39.0838 33.1923 38.9653C33.0738 38.8467 32.913 38.7801 32.7453 38.7801C32.5777 38.7801 32.4169 38.8467 32.2983 38.9653C32.1798 39.0838 32.1131 39.2446 32.1131 39.4123V39.8759C32.1131 41.9831 34.6489 43.388 34.9228 43.5074C35.2225 43.6865 35.5347 43.8437 35.857 43.978L35.9553 44.0131V44.1114C35.8008 44.8884 35.9491 45.695 36.3698 46.3662L36.4892 46.5559H29.2403L29.3456 46.3662C30.8769 43.6479 30.5046 41.7092 29.9146 40.5642C29.7811 40.2903 29.2543 39.4544 28.6292 38.457C28.1164 37.6773 27.5826 36.7923 27.3156 36.3497C26.7489 35.3391 26.3861 34.2269 26.248 33.0765C26.1786 32.6115 26.162 32.1403 26.1987 31.6716V31.5241L26.3463 31.5663C28.4536 32.1984 32.8998 32.2265 33.7708 32.2265C35.4004 32.2265 39.3902 32.1633 41.2657 31.5733L41.4061 31.5311V31.6716C41.4061 31.8753 41.4623 32.065 41.4763 32.1984C41.5035 32.3716 41.4958 32.5484 41.4535 32.7185C41.4113 32.8886 41.3355 33.0485 41.2305 33.1889C41.0627 33.4261 40.9726 33.7095 40.9726 34.0001C40.9726 34.2907 41.0627 34.5742 41.2305 34.8114C41.6098 35.3874 41.9891 36.0407 42.3614 36.7501L42.5932 37.1716C42.6444 37.274 42.689 37.3795 42.7267 37.4876V37.586L42.7407 37.7054Z" fill="white"/>
<path d="M39.9452 26.7054H40.0716C40.1517 26.7054 40.2285 26.7373 40.2852 26.7939C40.3418 26.8506 40.3737 26.9274 40.3737 27.0075V27.1269C40.372 27.2973 40.4324 27.4626 40.5435 27.5918C40.6547 27.7211 40.809 27.8055 40.9777 27.8293C41.1624 27.8475 41.3467 27.792 41.4905 27.6748C41.5645 27.6097 41.6241 27.5298 41.6652 27.4403C41.7064 27.3507 41.7282 27.2535 41.7294 27.155V26.9934C41.7284 26.9581 41.7346 26.923 41.7477 26.8902C41.7608 26.8573 41.7804 26.8275 41.8053 26.8025C41.8303 26.7776 41.8601 26.7579 41.893 26.7449C41.9258 26.7318 41.961 26.7255 41.9963 26.7265H42.1578C42.2564 26.7254 42.3535 26.7036 42.4431 26.6624C42.5327 26.6213 42.6126 26.5617 42.6776 26.4877C42.7418 26.4174 42.789 26.3335 42.8157 26.2422C42.8425 26.1509 42.8482 26.0547 42.8321 25.9609C42.8067 25.7934 42.7216 25.6407 42.5926 25.531C42.4635 25.4213 42.2991 25.3619 42.1297 25.3638H42.0032C41.9679 25.3648 41.9328 25.3586 41.9 25.3455C41.8672 25.3324 41.8373 25.3128 41.8124 25.2878C41.7874 25.2628 41.7677 25.233 41.7547 25.2002C41.7416 25.1674 41.7353 25.1322 41.7363 25.0969V24.9705C41.7298 24.8024 41.6665 24.6414 41.5568 24.5139C41.4472 24.3863 41.2975 24.2997 41.1322 24.268C40.9476 24.2498 40.7633 24.3054 40.6195 24.4226C40.5446 24.4884 40.4845 24.5694 40.4434 24.6603C40.4022 24.7511 40.3808 24.8497 40.3807 24.9494V25.0196C40.3789 25.0985 40.3462 25.1736 40.2898 25.2287C40.2334 25.2838 40.1575 25.3147 40.0786 25.3147H39.9803C39.8112 25.3215 39.6495 25.3858 39.5218 25.4969C39.3941 25.608 39.308 25.7592 39.2778 25.9258C39.2711 26.0221 39.2843 26.1187 39.3165 26.2097C39.3488 26.3007 39.3995 26.384 39.4654 26.4546C39.5313 26.5251 39.611 26.5813 39.6996 26.6196C39.7882 26.6579 39.8837 26.6776 39.9803 26.6773L39.9452 26.7054Z" fill="white"/>
<path d="M32.7386 21.9994H32.8651C32.9044 21.9984 32.9434 22.0054 32.98 22.0198C33.0166 22.0342 33.0501 22.0558 33.0782 22.0832C33.1064 22.1107 33.1287 22.1436 33.144 22.1798C33.1592 22.2161 33.1671 22.255 33.167 22.2944V22.3927C33.1739 22.5618 33.2382 22.7235 33.3492 22.8512C33.4603 22.9789 33.6116 23.0649 33.7781 23.0951C33.9628 23.1134 34.1471 23.0578 34.2909 22.9406C34.3658 22.8748 34.4259 22.7937 34.4671 22.7029C34.5083 22.6121 34.5297 22.5135 34.5298 22.4138V22.2593C34.5288 22.2239 34.5351 22.1888 34.5481 22.156C34.5612 22.1231 34.5808 22.0933 34.6057 22.0684C34.6307 22.0434 34.6606 22.0237 34.6934 22.0107C34.7262 21.9976 34.7614 21.9914 34.7967 21.9923H34.9512C35.0509 21.9922 35.1495 21.9708 35.2403 21.9297C35.3312 21.8885 35.4122 21.8284 35.478 21.7535C35.5396 21.6818 35.5848 21.5975 35.6102 21.5065C35.6357 21.4155 35.6409 21.32 35.6255 21.2267C35.5927 21.0657 35.5044 20.9212 35.3761 20.8185C35.2477 20.7159 35.0874 20.6615 34.9231 20.6648H34.7967C34.761 20.6648 34.7257 20.6576 34.6929 20.6438C34.66 20.6299 34.6303 20.6097 34.6054 20.5841C34.5805 20.5586 34.561 20.5283 34.548 20.4951C34.535 20.4619 34.5288 20.4265 34.5298 20.3908V20.2363C34.5312 20.0648 34.4698 19.8987 34.3573 19.7693C34.2447 19.6399 34.0887 19.5562 33.9187 19.5339C33.8271 19.52 33.7336 19.5267 33.6449 19.5534C33.5562 19.5802 33.4745 19.6263 33.4058 19.6884C33.3318 19.7534 33.2723 19.8333 33.2312 19.9229C33.19 20.0124 33.1682 20.1096 33.167 20.2082V20.3346C33.167 20.4147 33.1352 20.4916 33.0786 20.5482C33.0219 20.6048 32.9452 20.6367 32.8651 20.6367H32.7737C32.6022 20.6352 32.4361 20.6966 32.3067 20.8091C32.1773 20.9217 32.0936 21.0777 32.0713 21.2478C32.058 21.3393 32.0648 21.4327 32.0916 21.5213C32.1183 21.6099 32.1641 21.6916 32.2258 21.7605C32.2901 21.8337 32.3688 21.8927 32.4571 21.9338C32.5454 21.975 32.6412 21.9973 32.7386 21.9994Z" fill="white"/>
<path d="M35.8571 24.3945V24.514H35.7377C35.513 24.5781 35.3217 24.7266 35.2039 24.9284C35.1593 25 35.1306 25.0802 35.1197 25.1639C35.1088 25.2475 35.116 25.3324 35.1407 25.413C35.1868 25.5573 35.281 25.6812 35.4076 25.7643C35.5066 25.8316 35.6253 25.8638 35.7448 25.8556C35.8701 25.8586 35.9931 25.8217 36.096 25.7502C36.2975 25.7746 36.5018 25.743 36.6865 25.6587C36.8712 25.5744 37.029 25.4408 37.1426 25.2726C37.2657 25.0602 37.301 24.8081 37.2409 24.5701V24.4507H37.3532C37.5835 24.3825 37.7794 24.2293 37.9011 24.0223C38.0195 23.808 38.0497 23.556 37.9854 23.3198V23.1934H38.1049C38.2252 23.1678 38.3387 23.117 38.438 23.0444C38.5373 22.9717 38.62 22.8789 38.6808 22.772C38.7233 22.7018 38.7512 22.6237 38.7629 22.5425C38.7746 22.4613 38.7698 22.3786 38.7488 22.2993C38.7278 22.22 38.6912 22.1457 38.6409 22.0809C38.5906 22.0161 38.5277 21.962 38.4561 21.922C38.3518 21.8534 38.2297 21.8169 38.1049 21.8169C37.9801 21.8169 37.858 21.8534 37.7537 21.922H37.6905C37.492 21.8984 37.2909 21.9306 37.1097 22.015C36.9286 22.0994 36.7745 22.2326 36.6649 22.3997C36.6041 22.505 36.5652 22.6215 36.5508 22.7422C36.5363 22.863 36.5464 22.9854 36.5806 23.1021V23.2145H36.4612C36.227 23.2785 36.0275 23.4325 35.9063 23.643C35.8447 23.7574 35.8084 23.8837 35.7999 24.0134C35.7914 24.1431 35.8109 24.2731 35.8571 24.3945Z" fill="white"/>
<path d="M33.2724 25.7994H33.174V25.68C33.182 25.5638 33.1661 25.4471 33.1274 25.3372C33.0888 25.2273 33.0282 25.1265 32.9493 25.0408C32.7965 24.8622 32.5793 24.7511 32.3451 24.7317H32.2258V24.6123C32.2352 24.5003 32.2213 24.3876 32.185 24.2812C32.1488 24.1748 32.0909 24.0771 32.015 23.9942C31.962 23.9241 31.8942 23.8664 31.8166 23.8251C31.7389 23.7839 31.6532 23.7601 31.5654 23.7554H31.5163C31.355 23.7573 31.201 23.8229 31.0878 23.938C31.0046 24.0207 30.9461 24.125 30.9188 24.2392C30.8916 24.3533 30.8966 24.4728 30.9333 24.5842V24.6334V24.6825V24.7598C30.859 24.9309 30.8335 25.1192 30.8595 25.3039C30.8855 25.4886 30.9621 25.6625 31.0808 25.8064C31.2336 25.985 31.4507 26.0961 31.6849 26.1155H31.8043V26.2349C31.7949 26.4701 31.8781 26.6996 32.0361 26.8741C32.1889 27.0527 32.406 27.1637 32.6402 27.1832H32.7596V27.3026C32.7528 27.422 32.7705 27.5415 32.8116 27.6538C32.8526 27.7662 32.9162 27.8689 32.9984 27.9558C33.1239 28.073 33.2904 28.1361 33.462 28.1314C33.584 28.1246 33.7034 28.0936 33.8132 28.0401L33.9116 27.9699C33.9879 27.8858 34.041 27.7833 34.0657 27.6724C34.0903 27.5616 34.0856 27.4462 34.052 27.3377V27.2885V27.2394V27.1621C34.1297 26.9921 34.1577 26.8037 34.1329 26.6185C34.108 26.4333 34.0313 26.2589 33.9116 26.1155C33.8314 26.0229 33.7336 25.9473 33.6238 25.893C33.5141 25.8387 33.3946 25.8069 33.2724 25.7994Z" fill="white"/>
<path d="M26.234 27.4009L26.4518 27.436V27.6046C26.448 27.6798 26.4595 27.755 26.4857 27.8256C26.5118 27.8962 26.5521 27.9608 26.604 28.0153C26.6559 28.0698 26.7184 28.1133 26.7877 28.1429C26.8569 28.1725 26.9314 28.1877 27.0067 28.1876C27.1652 28.1896 27.3183 28.1299 27.4337 28.0211C27.549 27.9124 27.6175 27.763 27.6248 27.6046V27.3728H27.8355C27.9146 27.371 27.9924 27.3535 28.0647 27.3214C28.1369 27.2892 28.202 27.2431 28.2562 27.1856C28.3104 27.1281 28.3527 27.0604 28.3805 26.9864C28.4084 26.9125 28.4213 26.8337 28.4185 26.7547C28.4077 26.6088 28.3411 26.4726 28.2325 26.3745C28.124 26.2764 27.9818 26.2239 27.8355 26.2279L27.6248 26.27V25.9961C27.6296 25.9209 27.619 25.8455 27.5937 25.7746C27.5684 25.7036 27.5289 25.6386 27.4776 25.5833C27.4264 25.5281 27.3644 25.4839 27.2955 25.4535C27.2266 25.423 27.1522 25.4069 27.0769 25.4061C26.9172 25.4041 26.7631 25.4648 26.6476 25.5751C26.532 25.6854 26.4642 25.8365 26.4587 25.9961L26.4237 26.2279H26.2551C26.1796 26.2241 26.104 26.2356 26.033 26.2617C25.962 26.2878 25.8971 26.3279 25.842 26.3798C25.7869 26.4316 25.7428 26.494 25.7124 26.5632C25.682 26.6325 25.6659 26.7072 25.6651 26.7828C25.6629 26.939 25.7206 27.0902 25.8265 27.2051C25.9323 27.3201 26.0781 27.3902 26.234 27.4009Z" fill="white"/>
<path d="M30.2798 19.1053H30.3781C30.4153 19.1044 30.4522 19.111 30.4867 19.1247C30.5213 19.1385 30.5526 19.1592 30.5789 19.1855C30.6052 19.2117 30.6258 19.2431 30.6396 19.2776C30.6534 19.3122 30.66 19.3491 30.6591 19.3863V19.4495C30.6552 19.5062 30.6631 19.5632 30.6821 19.6167C30.7012 19.6703 30.7312 19.7194 30.77 19.7609C30.8089 19.8024 30.8559 19.8355 30.9081 19.858C30.9603 19.8806 31.0166 19.8922 31.0735 19.892C31.1948 19.894 31.3122 19.8491 31.4012 19.7667C31.4902 19.6842 31.5439 19.5706 31.5511 19.4495V19.3231C31.5511 19.2572 31.5768 19.1939 31.6227 19.1467C31.6686 19.0995 31.7312 19.072 31.797 19.0702H31.9234C31.984 19.0693 32.0437 19.0563 32.0992 19.0321C32.1548 19.0079 32.2049 18.9728 32.2467 18.929C32.2886 18.8852 32.3213 18.8336 32.3429 18.777C32.3646 18.7204 32.3748 18.6601 32.3729 18.5996V18.5574V18.5223C32.3295 18.4266 32.2608 18.3446 32.1741 18.2852C32.0874 18.2257 31.9862 18.1911 31.8813 18.1852H31.7689C31.7024 18.1834 31.6391 18.1562 31.5921 18.1091C31.545 18.0621 31.5178 17.9988 31.516 17.9323V17.841C31.5198 17.7839 31.512 17.7266 31.4929 17.6727C31.4739 17.6187 31.4442 17.5692 31.4054 17.5272C31.3666 17.4851 31.3197 17.4514 31.2674 17.428C31.2152 17.4047 31.1588 17.3922 31.1016 17.3914C30.9798 17.3895 30.8622 17.4356 30.7742 17.5197C30.6861 17.6038 30.6346 17.7192 30.631 17.841V17.9323C30.632 17.9701 30.6252 18.0076 30.611 18.0426C30.5968 18.0777 30.5754 18.1094 30.5484 18.1358C30.5213 18.1621 30.4892 18.1826 30.4538 18.196C30.4185 18.2093 30.3807 18.2152 30.3429 18.2132H30.2798C30.2232 18.2104 30.1667 18.219 30.1136 18.2384C30.0605 18.2579 30.0119 18.2879 29.9706 18.3266C29.9293 18.3652 29.8961 18.4118 29.8732 18.4636C29.8503 18.5153 29.8381 18.5711 29.8372 18.6277C29.8352 18.749 29.8801 18.8664 29.9626 18.9554C30.045 19.0444 30.1586 19.0981 30.2798 19.1053Z" fill="white"/>
<path d="M27.716 22.6595L27.9338 22.6946V22.8351C27.931 22.9101 27.9432 22.9848 27.9697 23.055C27.9963 23.1252 28.0366 23.1893 28.0883 23.2437C28.14 23.298 28.2021 23.3414 28.2709 23.3714C28.3396 23.4014 28.4137 23.4173 28.4887 23.4181C28.6465 23.4201 28.7989 23.3601 28.9131 23.2512C29.0273 23.1422 29.0943 22.9929 29.0998 22.8351V22.5963H29.3667C29.446 22.5955 29.5243 22.5786 29.597 22.5468C29.6697 22.515 29.7352 22.4689 29.7896 22.4112C29.844 22.3535 29.8862 22.2854 29.9137 22.211C29.9413 22.1366 29.9535 22.0574 29.9498 21.9782V21.8869L29.9005 21.8166C29.8368 21.7136 29.7494 21.6273 29.6455 21.565C29.5417 21.5026 29.4244 21.4661 29.3035 21.4584L29.0998 21.5005V21.2547C29.1036 21.1795 29.0921 21.1043 29.0659 21.0337C29.0397 20.9631 28.9995 20.8986 28.9476 20.844C28.8957 20.7895 28.8331 20.7461 28.7639 20.7164C28.6947 20.6868 28.6202 20.6716 28.5449 20.6717C28.3864 20.6697 28.2332 20.7294 28.1179 20.8382C28.0026 20.947 27.9341 21.0963 27.9268 21.2547V21.4865H27.7582C27.6833 21.4837 27.6084 21.4959 27.5383 21.5224C27.4681 21.549 27.404 21.5893 27.3496 21.641C27.2953 21.6927 27.2518 21.7548 27.2219 21.8235C27.1919 21.8923 27.176 21.9664 27.1751 22.0414C27.1724 22.1932 27.2263 22.3406 27.3263 22.4549C27.4263 22.5691 27.5652 22.6421 27.716 22.6595Z" fill="white"/>
<path d="M29.5002 27.6045C29.5002 27.7434 29.5414 27.8792 29.6186 27.9948C29.6958 28.1103 29.8055 28.2003 29.9339 28.2535C30.0622 28.3066 30.2034 28.3206 30.3397 28.2935C30.4759 28.2663 30.6011 28.1994 30.6993 28.1012C30.7975 28.003 30.8644 27.8778 30.8915 27.7416C30.9186 27.6053 30.9047 27.4641 30.8516 27.3357C30.7984 27.2074 30.7084 27.0977 30.5929 27.0205C30.4774 26.9433 30.3416 26.9021 30.2027 26.9021C30.0164 26.9021 29.8377 26.9761 29.7059 27.1078C29.5742 27.2396 29.5002 27.4182 29.5002 27.6045Z" fill="white"/>
<defs>
<filter id="filter0_d_40_106352" x="0.5" y="0" width="68" height="68" filterUnits="userSpaceOnUse" color-interpolation-filters="sRGB">
<feFlood flood-opacity="0" result="BackgroundImageFix"/>
<feColorMatrix in="SourceAlpha" type="matrix" values="0 0 0 0 0 0 0 0 0 0 0 0 0 0 0 0 0 0 127 0" result="hardAlpha"/>
<feOffset/>
<feGaussianBlur stdDeviation="5"/>
<feComposite in2="hardAlpha" operator="out"/>
<feColorMatrix type="matrix" values="0 0 0 0 0.501961 0 0 0 0 0.301961 0 0 0 0 0.843137 0 0 0 0.7 0"/>
<feBlend mode="normal" in2="BackgroundImageFix" result="effect1_dropShadow_40_106352"/>
<feBlend mode="normal" in="SourceGraphic" in2="effect1_dropShadow_40_106352" result="shape"/>
</filter>
</defs>
</svg>
