<svg width="30" height="30" viewBox="0 0 30 30" fill="none" xmlns="http://www.w3.org/2000/svg">
<rect width="30" height="30" rx="15" fill="#ED2A2F"/>
<path fill-rule="evenodd" clip-rule="evenodd" d="M8.56247 10.681C8.56247 10.3119 8.86095 10.0126 9.22914 10.0126H21.2291C21.5973 10.0126 21.8958 10.3119 21.8958 10.681C21.8958 11.0501 21.5973 11.3493 21.2291 11.3493H9.22914C8.86095 11.3493 8.56247 11.0501 8.56247 10.681Z" fill="white"/>
<path fill-rule="evenodd" clip-rule="evenodd" d="M13.8958 8.676C13.719 8.676 13.5494 8.74641 13.4244 8.87174C13.2994 8.99708 13.2291 9.16707 13.2291 9.34432V10.0126H17.2291V9.34432C17.2291 9.16707 17.1589 8.99708 17.0339 8.87174C16.9088 8.74641 16.7393 8.676 16.5625 8.676H13.8958ZM18.5625 10.0126V9.34432C18.5625 8.81257 18.3518 8.3026 17.9767 7.9266C17.6016 7.55059 17.0929 7.33936 16.5625 7.33936H13.8958C13.3654 7.33936 12.8567 7.55059 12.4816 7.9266C12.1065 8.3026 11.8958 8.81257 11.8958 9.34432V10.0126H10.5625C10.1943 10.0126 9.8958 10.3119 9.8958 10.681V20.0375C9.8958 20.5692 10.1065 21.0792 10.4816 21.4552C10.8567 21.8312 11.3654 22.0424 11.8958 22.0424H18.5625C19.0929 22.0424 19.6016 21.8312 19.9767 21.4552C20.3518 21.0792 20.5625 20.5692 20.5625 20.0375V10.681C20.5625 10.3119 20.264 10.0126 19.8958 10.0126H18.5625Z" fill="white"/>
<path fill-rule="evenodd" clip-rule="evenodd" d="M13.8958 13.3542C14.264 13.3542 14.5625 13.6535 14.5625 14.0226V18.0325C14.5625 18.4016 14.264 18.7008 13.8958 18.7008C13.5276 18.7008 13.2291 18.4016 13.2291 18.0325V14.0226C13.2291 13.6535 13.5276 13.3542 13.8958 13.3542Z" fill="white"/>
<path fill-rule="evenodd" clip-rule="evenodd" d="M16.5625 13.3542C16.9307 13.3542 17.2291 13.6535 17.2291 14.0226V18.0325C17.2291 18.4016 16.9307 18.7008 16.5625 18.7008C16.1943 18.7008 15.8958 18.4016 15.8958 18.0325V14.0226C15.8958 13.6535 16.1943 13.3542 16.5625 13.3542Z" fill="white"/>
</svg>
