<svg width="50" height="50" viewBox="0 0 50 50" fill="none" xmlns="http://www.w3.org/2000/svg">
<rect width="50" height="50" fill="#F7DFC4"/>
<rect x="0.943359" y="4.71698" width="2.83019" height="2.83019" rx="0.943396" fill="#A75542" fill-opacity="0.1"/>
<rect x="16.9811" y="12.2642" width="2.83019" height="2.83019" rx="0.943396" fill="#A75542" fill-opacity="0.1"/>
<path d="M24.1896 19.8113H19.6783C19.2308 19.8113 18.8679 20.175 18.8679 20.6236V20.6322C18.8679 21.0808 19.2308 21.4445 19.6783 21.4445H24.1896C24.6372 21.4445 25 21.0808 25 20.6322V20.6236C25 20.175 24.6372 19.8113 24.1896 19.8113Z" fill="#A75542" fill-opacity="0.1"/>
<path d="M15.699 8.4906H11.1877C10.7402 8.4906 10.3773 8.85426 10.3773 9.30285V9.31149C10.3773 9.76008 10.7402 10.1237 11.1877 10.1237H15.699C16.1466 10.1237 16.5094 9.76008 16.5094 9.31149V9.30285C16.5094 8.85426 16.1466 8.4906 15.699 8.4906Z" fill="#A75542" fill-opacity="0.1"/>
<path d="M10.9819 38.6793H6.47069C6.02311 38.6793 5.66028 39.0429 5.66028 39.4915V39.5001C5.66028 39.9487 6.02311 40.3124 6.47069 40.3124H10.9819C11.4295 40.3124 11.7924 39.9487 11.7924 39.5001V39.4915C11.7924 39.0429 11.4295 38.6793 10.9819 38.6793Z" fill="#A75542" fill-opacity="0.1"/>
<path d="M42.114 44.3397H37.6028C37.1552 44.3397 36.7924 44.7033 36.7924 45.1519V45.1605C36.7924 45.6091 37.1552 45.9728 37.6028 45.9728H42.114C42.5616 45.9728 42.9244 45.6091 42.9244 45.1605V45.1519C42.9244 44.7033 42.5616 44.3397 42.114 44.3397Z" fill="#A75542" fill-opacity="0.1"/>
<rect x="22.6415" y="0.94342" width="2.83019" height="2.83019" rx="0.943396" fill="#A75542" fill-opacity="0.1"/>
<rect x="2.83008" y="31.1321" width="2.83019" height="2.83019" rx="0.943396" fill="#A75542" fill-opacity="0.1"/>
<rect x="35.849" y="21.6981" width="2.83019" height="2.83019" rx="0.943396" fill="#A75542" fill-opacity="0.1"/>
<rect x="45.283" y="24.5283" width="2.83019" height="2.83019" rx="0.943396" fill="#A75542" fill-opacity="0.1"/>
<rect x="30.1886" y="10.3774" width="2.83019" height="2.83019" rx="0.943396" fill="#A75542" fill-opacity="0.1"/>
<rect x="17.9244" y="25.4717" width="2.83019" height="2.83019" rx="0.943396" fill="#A75542" fill-opacity="0.1"/>
<rect x="3.77356" y="17.9246" width="2.83019" height="2.83019" rx="0.943396" fill="#A75542" fill-opacity="0.1"/>
<rect x="11.3207" y="46.2264" width="2.83019" height="2.83019" rx="0.943396" fill="#A75542" fill-opacity="0.1"/>
<rect x="28.3019" y="33.0189" width="2.83019" height="2.83019" rx="0.943396" fill="#A75542" fill-opacity="0.1"/>
<rect x="20.7546" y="43.3962" width="2.83019" height="2.83019" rx="0.943396" fill="#A75542" fill-opacity="0.1"/>
<rect x="25.4717" y="4.71698" width="1.88679" height="1.88679" rx="0.943396" fill="#A75542" fill-opacity="0.1"/>
<rect x="6.60376" y="29.2453" width="1.88679" height="1.88679" rx="0.943396" fill="#A75542" fill-opacity="0.1"/>
<rect x="18.8679" y="41.5095" width="1.88679" height="1.88679" rx="0.943396" fill="#A75542" fill-opacity="0.1"/>
<rect x="2.83008" y="45.283" width="1.88679" height="1.88679" rx="0.943396" fill="#A75542" fill-opacity="0.1"/>
<rect x="41.5094" y="32.0755" width="1.88679" height="1.88679" rx="0.943396" fill="#A75542" fill-opacity="0.1"/>
<rect x="31.132" y="40.566" width="1.88679" height="1.88679" rx="0.943396" fill="#A75542" fill-opacity="0.1"/>
<rect x="16.0377" y="33.9623" width="1.88679" height="1.88679" rx="0.943396" fill="#A75542" fill-opacity="0.1"/>
<rect x="39.6226" y="19.8113" width="1.88679" height="1.88679" rx="0.943396" fill="#A75542" fill-opacity="0.1"/>
<rect x="41.5094" y="6.60382" width="1.88679" height="1.88679" rx="0.943396" fill="#A75542" fill-opacity="0.1"/>
</svg>
