<svg width="56" height="66" viewBox="0 0 56 66" fill="none" xmlns="http://www.w3.org/2000/svg">
<path d="M48.0396 0.977975C49.177 0.977975 50.7034 2.04486 52.619 4.17863C54.5945 6.25313 55.5822 8.03127 55.5822 9.51305C55.5822 10.165 55.2829 10.7281 54.6843 11.2023C54.0857 11.6765 53.2476 12.2395 52.1701 12.8915C51.1524 13.5435 50.2844 14.314 49.5661 15.2031C42.2628 24.1531 36.8154 30.9693 33.2236 35.6517C34.6603 38.2004 36.6956 41.6974 39.3296 46.1427C41.9635 50.5881 43.8492 53.9073 44.9866 56.1003C46.124 58.2341 46.6927 59.8937 46.6927 61.0791C46.6927 62.2053 46.2138 63.2129 45.256 64.102C44.358 64.9318 43.3104 65.3467 42.1132 65.3467C38.9405 65.3467 33.493 58.9454 25.7708 46.1427C21.8198 51.9513 18.3778 56.6041 15.4445 60.1012C12.5112 63.5389 10.1167 65.2578 8.26101 65.2578C6.46514 65.2578 4.63933 64.6058 2.7836 63.3018C0.927867 61.9978 0 60.7531 0 59.5677C0 58.9157 0.149656 58.4416 0.448968 58.1452C1.28704 57.3154 1.8258 56.7227 2.06525 56.3671C7.21342 50.5585 12.9303 43.2088 19.2158 34.3181C15.8037 27.7983 12.9901 21.723 10.7752 16.0922C8.56032 10.4021 7.45287 6.3124 7.45287 3.823C7.45287 1.27433 7.99163 0 9.06915 0C11.5834 0 14.2173 0.533442 16.971 1.60033C19.7845 2.60794 21.1913 3.79337 21.1913 5.15661C21.1913 9.42415 23.047 15.4995 26.7585 23.3825C32.6849 14.2548 37.1147 8.23872 40.0479 5.33442C42.9812 2.43012 45.6451 0.977975 48.0396 0.977975Z" fill="#6A7680"/>
</svg>
