<svg width="61" height="67" viewBox="0 0 61 67" fill="none" xmlns="http://www.w3.org/2000/svg">
<path d="M31.3135 0.931468C34.4909 1.04815 37.6978 1.63153 40.9341 2.68162C44.2292 3.67338 47.2596 5.30685 50.0251 7.58205C52.7907 9.79892 55.1443 12.6867 57.0861 16.2453C59.0279 19.7456 60.2341 24.0335 60.7048 29.1089C61.1167 33.251 60.5872 37.3638 59.1161 41.4475C57.7039 45.4729 55.7327 49.1774 53.2026 52.561C50.6724 55.9446 47.7597 58.8324 44.4646 61.2243C41.1695 63.5578 37.8743 65.1038 34.5792 65.8622C32.5786 66.3289 30.372 66.3872 27.9595 66.0372C25.6059 65.6288 23.1934 64.8996 20.722 63.8495C18.3095 62.7411 15.9264 61.341 13.5728 59.6491C11.278 57.9573 9.18909 56.0322 7.30616 53.8736C5.42323 51.6568 3.83451 49.2649 2.53999 46.698C1.30432 44.1311 0.539381 41.4475 0.245173 38.6473C-0.0490346 36.3138 -0.0784554 33.7469 0.156911 30.9466C0.451118 28.088 1.01011 25.2586 1.83389 22.4584C2.71652 19.5998 3.92277 16.8579 5.45265 14.2326C7.04137 11.5491 9.04198 9.21553 11.4545 7.23202C13.867 5.19018 16.6914 3.61504 19.9277 2.50661C23.2228 1.33984 27.0181 0.814791 31.3135 0.931468ZM15.5146 36.3721C14.6908 42.6143 15.2792 47.6314 17.2798 51.4234C19.3393 55.2154 22.4284 57.5198 26.5473 58.3365C28.548 58.7449 30.4603 58.3365 32.2844 57.1114C34.1673 55.828 35.8737 53.9903 37.4036 51.5984C38.9335 49.2066 40.2574 46.4063 41.3754 43.1977C42.4934 39.9891 43.3172 36.6346 43.8467 33.1343C44.3763 29.634 44.4057 26.4837 43.935 23.6835C43.5231 20.8249 42.7876 18.4038 41.7285 16.4203C40.6693 14.3785 39.3748 12.8033 37.8449 11.6949C36.3739 10.5865 34.844 9.97393 33.2553 9.85725C30.4897 9.68224 28.0772 10.4115 26.0178 12.0449C23.9583 13.6201 22.2225 15.6911 20.8103 18.258C19.3981 20.8249 18.2507 23.7126 17.3681 26.9213C16.5443 30.1299 15.9264 33.2802 15.5146 36.3721Z" fill="#6A7680"/>
</svg>
