<svg width="1108" height="500" viewBox="0 0 1108 500" fill="none" xmlns="http://www.w3.org/2000/svg">
<mask id="mask0_6_7579" style="mask-type:alpha" maskUnits="userSpaceOnUse" x="0" y="0" width="1108" height="500">
<path d="M1 1H1068C1089.54 1 1107 18.4609 1107 40V460C1107 481.539 1089.54 499 1068 499H40C18.4609 499 1 481.539 1 460V1Z" fill="#EFF3FB" stroke="#E3E8EB" stroke-width="2"/>
</mask>
<g mask="url(#mask0_6_7579)">
<rect x="0.151733" width="1107.85" height="499.942" fill="white"/>
<mask id="mask1_6_7579" style="mask-type:alpha" maskUnits="userSpaceOnUse" x="0" y="0" width="1108" height="500">
<rect y="0.0584106" width="1107.85" height="499.942" fill="white"/>
</mask>
<g mask="url(#mask1_6_7579)">
<path d="M1215.1 425.198C1188.79 444.782 1158.81 461.674 1124.94 469.337C1108.03 473.156 1090.23 474.609 1072.81 472.829C1055.39 471.048 1038.34 466.034 1023.91 457.666C1010.35 449.77 999.264 439.114 990.406 427.4C981.528 415.729 974.782 402.94 968.799 390.021C956.832 364.185 947.568 337.006 929.303 313.896C913.699 294.218 891.828 278.126 866.655 267.607C841.482 257.089 813.109 252.161 785.031 253.201C755.876 254.268 727.605 261.613 698.785 265.397C684.34 267.306 669.722 268.278 655.154 267.134C640.638 265.999 626.213 262.61 613.718 256.254C598.886 248.66 587.336 237.109 578.64 224.432C569.945 211.763 563.961 197.89 558.354 184.06C552.696 170.213 547.362 156.245 539.815 143.095C532.277 129.902 522.413 117.413 509.044 108.047C496.102 98.9562 480.316 93.1078 464.398 88.4634C448.439 83.7674 432.073 80.1207 416.49 74.6937C395.492 67.4003 375.856 56.787 361.339 42.1142C346.813 27.4414 337.802 8.50266 339.001 -10.5651C339.753 -23.0447 344.852 -35.2061 352.755 -45.7936C360.649 -56.338 371.356 -65.3516 383.343 -72.731C407.327 -87.3952 436.187 -95.3852 464.824 -101.853C685.569 -151.488 927.85 -120.878 1127.78 -27.7837C1200.99 6.33527 1271.58 51.0331 1308.02 114.42C1337.69 166.093 1341.89 227.021 1323.83 282.332C1305.72 337.609 1266.15 387.217 1215.1 425.198Z" fill="url(#paint0_linear_6_7579)"/>
<path d="M669.732 524.089C659.462 506.535 640.882 493.608 623.46 480.612C614.795 474.101 606.241 467.376 598.896 459.773C591.592 452.17 585.477 443.578 582.257 434.151C577.371 419.857 579.382 404.634 580.55 389.763C581.759 374.935 581.993 359.325 574.039 346.028C566.409 333.317 551.802 324.114 535.741 319.633C519.67 315.186 502.197 315.135 485.537 317.552C452.167 322.377 421.711 336.49 388.92 343.577C362.558 349.28 334.186 350.269 308.292 343.173C295.339 339.604 283.139 334.048 272.859 326.539C262.527 319.022 254.207 309.561 249.098 298.931C243.043 286.185 241.743 272.226 240.971 258.542C240.24 244.858 239.894 230.96 235.556 217.749C230.101 201.124 218.165 185.952 201.475 175.967C184.784 166.016 163.39 161.475 143.236 164.519C133.341 165.981 123.955 169.189 114.325 171.598C104.694 174.006 94.4342 175.623 84.6007 173.894C76.3114 172.423 68.7839 168.587 62.7498 163.608C56.7156 158.628 52.1138 152.495 48.4973 146.054C41.2746 133.204 37.9528 119.013 31.7866 105.751C23.5378 88.0934 10.22 72.0875 -6.89711 59.7455C-24.0244 47.4379 -44.9509 38.7856 -67.0762 35.2077C-99.4718 29.9355 -133.828 35.5861 -162.556 49.2698C-191.244 62.9622 -214.344 84.3435 -229.745 108.916C-245.135 133.488 -252.987 161.122 -254.674 188.851C-256.37 216.579 -252.002 244.437 -243.977 271.383C-222.207 344.171 -174.259 409.407 -122.349 470.446C-30.0585 578.901 83.7576 682.23 233.261 726.42C308.058 748.541 390.433 754.588 467.171 737.816C543.868 721.036 614.134 680.441 654.494 623.031C664.947 608.118 673.501 591.991 677.026 574.876C680.541 557.812 678.824 539.656 669.732 524.089Z" fill="url(#paint1_linear_6_7579)"/>
<path d="M604.453 564.59C621.408 537.145 626.497 504.144 615.749 474.661C610.355 459.893 601.131 446.175 588.626 434.943C576.162 423.727 560.436 415.092 543.136 410.353C525.146 405.382 505.804 404.668 487 406.509C468.197 408.349 449.84 412.718 431.86 417.853C395.909 428.088 360.516 441.428 322.757 443.913C302.806 445.203 282.215 443.32 264.173 435.983C255.203 432.328 246.934 427.331 240.148 421.061C233.423 414.8 228.293 407.283 225.56 399.129C222.076 388.8 222.615 377.696 225.327 367.152C228.039 356.607 232.936 346.588 238.116 336.723C243.287 326.892 248.874 317.147 253.1 306.999C257.326 296.85 260.252 286.116 259.927 275.391C259.47 261.785 253.74 248.428 244.029 237.651C234.378 226.849 220.928 218.618 205.955 213.913C190.91 209.243 174.463 208.091 158.677 210.241C142.87 212.434 127.734 217.904 114.68 225.808C96.9942 236.542 83.3919 251.309 67.5141 263.918C59.5295 270.196 50.9253 275.976 41.2848 280.216C31.6545 284.413 20.8865 287.045 10.0372 286.804C-0.151825 286.555 -10.1884 283.794 -18.8537 279.227C-27.5189 274.66 -34.9041 268.407 -40.6843 261.277C-52.2549 247.052 -57.4764 229.687 -59.8027 212.477C-61.7734 197.692 -61.8141 182.779 -64.6991 168.14C-67.5841 153.502 -73.5878 138.795 -85.7171 128.104C-95.3677 119.65 -108.401 114.223 -122.064 112.004C-135.717 109.776 -149.929 110.722 -163.389 113.655C-190.34 119.615 -213.836 133.497 -236.378 147.421C-270.592 168.605 -304.491 191.01 -330.548 219.383C-356.554 247.766 -374.29 283.089 -371.69 318.902C-369.363 351.387 -350.296 381.997 -323.315 405.021C-296.395 428.088 -261.978 444.085 -225.986 455.18C-154.064 477.404 -75.7008 480.965 -2.84381 501.022C105.009 530.686 195.451 594.907 301.861 628.02C355.112 644.585 413.097 653.134 468.959 644.284C496.834 639.846 523.987 631.021 547.576 617.579C571.164 604.144 591.237 585.988 604.453 564.59Z" fill="url(#paint2_linear_6_7579)"/>
<path d="M513.28 4.43438C505.499 26.2114 503.203 51.0588 516.958 70.634C535.964 97.6918 579.108 105.536 616.115 101.313C653.123 97.0811 687.946 83.7242 724.882 79.0713C761.819 74.4183 804.952 81.1354 825.279 107.514C839.257 125.653 839.278 148.625 842.152 170.11C845.027 191.594 853.469 215.332 876.265 225.292C894.225 233.136 916.127 230.134 935.57 234.839C964.796 241.917 984.463 265.577 993.657 289.978C1002.86 314.378 1003.93 340.361 1009.73 365.483C1015.53 390.615 1027.39 416.434 1052.03 431.442C1086.91 452.703 1138.1 445.117 1171.89 422.635C1205.68 400.153 1225.45 366.137 1241.27 332.414C1265.65 280.422 1283.42 225.111 1280.32 169.275C1277.22 113.44 1251.11 56.7782 1200 21.1025C1166.94 -1.96456 1125.81 -15.0204 1085.01 -26.3045C999.315 -50.0167 911.281 -67.7341 822.12 -79.2677C777.544 -85.0301 732.674 -89.2617 687.682 -91.9107C652.31 -94.0007 614.154 -103.04 584.837 -83.74C551.1 -61.5502 525.603 -30.0716 513.28 4.43438Z" fill="url(#paint3_linear_6_7579)"/>
</g>
</g>
<defs>
<linearGradient id="paint0_linear_6_7579" x1="1587.27" y1="-492.332" x2="754.334" y2="492.462" gradientUnits="userSpaceOnUse">
<stop stop-color="#D2D2D2"/>
<stop offset="1" stop-color="white"/>
</linearGradient>
<linearGradient id="paint1_linear_6_7579" x1="77.0531" y1="442.193" x2="264.31" y2="179.123" gradientUnits="userSpaceOnUse">
<stop stop-color="#E6E6E6"/>
<stop offset="1" stop-color="white"/>
</linearGradient>
<linearGradient id="paint2_linear_6_7579" x1="238.066" y1="307.162" x2="45.2887" y2="562.29" gradientUnits="userSpaceOnUse">
<stop stop-color="#FBFBFB"/>
<stop offset="1" stop-color="#F0F0F0"/>
</linearGradient>
<linearGradient id="paint3_linear_6_7579" x1="1384.61" y1="-151.744" x2="852.786" y2="345.952" gradientUnits="userSpaceOnUse">
<stop stop-color="#EEEEEE"/>
<stop offset="1" stop-color="#FDFDFD"/>
</linearGradient>
</defs>
</svg>
