<svg width="522" height="522" viewBox="0 0 522 522" fill="none" xmlns="http://www.w3.org/2000/svg">
<path d="M504.624 275.799H462.622V247.41C462.622 240.449 460.077 233.909 455.456 228.993C450.84 224.07 444.699 221.36 438.163 221.36C424.673 221.36 413.698 233.046 413.698 247.41V275.799H371.697C363.968 275.799 357.679 269.102 357.679 260.87V216.131H388.124C394.656 216.131 400.8 213.422 405.423 208.503C410.044 203.582 412.589 197.039 412.589 190.08C412.589 175.716 401.614 164.03 388.124 164.03H357.679V119.291C357.679 111.059 363.968 104.362 371.697 104.362H504.624C512.353 104.362 518.641 111.059 518.641 119.291V260.87C518.641 269.102 512.353 275.799 504.624 275.799ZM465.932 272.274H504.624C510.528 272.274 515.331 267.158 515.331 260.87V119.291C515.331 113.003 510.528 107.887 504.624 107.887H371.697C365.792 107.887 360.989 113.003 360.989 119.291V160.505H388.124C403.439 160.505 415.899 173.772 415.899 190.08C415.899 197.981 413.009 205.409 407.763 210.997C402.513 216.581 395.539 219.656 388.124 219.656H360.989V260.87C360.989 267.158 365.792 272.274 371.697 272.274H410.388V247.41C410.388 231.102 422.848 217.835 438.163 217.835C445.583 217.835 452.556 220.912 457.797 226.5C463.042 232.08 465.932 239.507 465.932 247.41V272.274Z" fill="white"/>
<path d="M158.177 422.518H15.6538C8.6705 422.518 2.98877 416.467 2.98877 409.03V257.237C2.98877 249.799 8.6705 243.748 15.6538 243.748H48.3834C53.5415 243.748 57.738 239.279 57.738 233.785V213.185C57.738 204.883 60.7736 197.082 66.2857 191.217C71.7907 185.349 79.1177 182.116 86.9149 182.116C103.001 182.116 116.087 196.053 116.087 213.185V233.785C116.087 239.279 120.283 243.748 125.442 243.748H158.177C165.16 243.748 170.842 249.799 170.842 257.237V305.589H142.269C128.005 305.589 116.402 317.945 116.402 333.133C116.402 340.49 119.092 347.408 123.979 352.613C128.867 357.813 135.362 360.677 142.269 360.677H170.842V409.03C170.842 416.467 165.16 422.518 158.177 422.518ZM15.6538 247.273C10.4951 247.273 6.29858 251.743 6.29858 257.237V409.03C6.29858 414.523 10.4951 418.993 15.6538 418.993H158.177C163.335 418.993 167.532 414.523 167.532 409.03V364.202H142.269C134.479 364.202 127.153 360.972 121.639 355.106C116.127 349.235 113.092 341.432 113.092 333.133C113.092 316.001 126.181 302.064 142.269 302.064H167.532V257.237C167.532 251.743 163.335 247.273 158.177 247.273H125.442C118.459 247.273 112.777 241.222 112.777 233.785V213.185C112.777 197.997 101.176 185.641 86.9149 185.641C80.0022 185.641 73.5071 188.507 68.6258 193.71C63.7387 198.91 61.0479 205.826 61.0479 213.185V233.785C61.0479 241.222 55.3667 247.273 48.3834 247.273H15.6538V247.273Z" fill="white"/>
<path d="M296.564 370.118C296.564 374.995 295.571 379.618 293.783 383.778C292.239 387.379 290.104 390.628 287.511 393.39C281.923 399.347 274.195 403.031 265.661 403.031H248.207C241.378 403.031 235.845 408.924 235.845 416.197V455.337C235.845 462.611 230.312 468.503 223.483 468.503H63.4591C56.6298 468.503 51.0969 462.611 51.0969 455.337V284.899C51.0969 277.626 56.6298 271.733 63.4591 271.733H223.483C230.312 271.733 235.845 277.626 235.845 284.899V324.045C235.845 331.319 241.378 337.212 248.207 337.212H265.661C282.729 337.212 296.564 351.946 296.564 370.118Z" fill="url(#paint0_linear_40_109946)"/>
<path d="M217.294 271.733V288.26C217.294 306.438 203.459 321.172 186.397 321.172C177.863 321.172 170.14 317.489 164.546 311.531C158.953 305.58 155.494 297.349 155.494 288.26V271.733H217.294Z" fill="#340B79"/>
<path d="M293.783 383.778C292.239 387.38 290.104 390.629 287.511 393.39C281.923 399.347 274.195 403.031 265.661 403.031H265.126V383.778H293.783Z" fill="#340B79"/>
<path d="M340.242 151.431V151.431C340.242 169.606 326.408 184.34 309.342 184.34H294.684C287.856 184.34 282.32 190.236 282.32 197.509V236.645C282.32 243.917 276.785 249.813 269.956 249.813H233.21C226.382 249.813 220.846 255.709 220.846 262.981V280.602C220.846 298.777 207.012 313.511 189.946 313.511H189.946C172.881 313.511 159.046 298.777 159.046 280.602V262.981C159.046 255.709 153.511 249.813 146.682 249.813H109.936C103.108 249.813 97.572 243.917 97.572 236.645V66.2169C97.572 58.9443 103.108 53.0486 109.936 53.0486H269.956C276.785 53.0486 282.32 58.9443 282.32 66.2169V105.353C282.32 112.626 287.856 118.521 294.684 118.521H309.342C326.408 118.521 340.242 133.255 340.242 151.431Z" fill="url(#paint1_linear_40_109946)"/>
<path d="M455.865 270.552V440.99C455.865 448.263 450.332 454.156 443.503 454.156H283.473C276.644 454.156 271.111 448.263 271.111 440.99V388.678H301.335C309.869 388.678 317.592 384.994 323.185 379.043C328.779 373.085 332.238 364.86 332.238 355.771C332.238 337.593 318.403 322.864 301.335 322.864H271.111V270.552C271.111 263.279 276.644 257.386 283.473 257.386H320.229C327.058 257.386 332.591 251.493 332.591 244.22V221.089C332.591 202.918 346.426 188.183 363.488 188.183C372.022 188.183 379.75 191.866 385.338 197.824C390.932 203.775 394.391 212.001 394.391 221.089V244.22C394.391 251.493 399.923 257.386 406.753 257.386H443.503C450.332 257.386 455.865 263.279 455.865 270.552Z" fill="url(#paint2_linear_40_109946)"/>
<defs>
<linearGradient id="paint0_linear_40_109946" x1="269.952" y1="304.038" x2="-21.7476" y2="492.748" gradientUnits="userSpaceOnUse">
<stop stop-color="#51249E"/>
<stop offset="1" stop-color="#441B89"/>
</linearGradient>
<linearGradient id="paint1_linear_40_109946" x1="287.253" y1="29.2425" x2="5.39374" y2="305.21" gradientUnits="userSpaceOnUse">
<stop stop-color="#DBCDF4"/>
<stop offset="1" stop-color="#AE8DE5"/>
</linearGradient>
<linearGradient id="paint2_linear_40_109946" x1="289.51" y1="224.724" x2="458.254" y2="483.636" gradientUnits="userSpaceOnUse">
<stop stop-color="#DBCDF4"/>
<stop offset="1" stop-color="#AE8DE5"/>
</linearGradient>
</defs>
</svg>
