<svg width="50" height="50" viewBox="0 0 50 50" fill="none" xmlns="http://www.w3.org/2000/svg">
<path d="M36.5886 10.6312C36.5886 5.74397 27.9415 8.4014 27.9415 12.9323C27.9415 17.8195 36.5886 15.1519 36.5886 10.6312Z" fill="#E7EAED"/>
<path d="M28.4579 34.538C32.103 34.2121 34.5534 28.9685 34.5534 25.7918C34.5534 22.6559 33.4902 18.2879 29.5109 18.6544C25.8658 18.9802 23.4154 24.2238 23.4154 27.4006C23.4154 30.5365 24.4786 34.8943 28.4579 34.538Z" fill="#E7EAED"/>
<path d="M41.2159 33.6216C41.2159 32.1249 38.5732 30.3227 38.5732 32.3794C38.5631 33.8863 41.2159 35.6783 41.2159 33.6216Z" fill="#E7EAED"/>
<path d="M27.6782 13.3497L27.6782 35.6681L17.4718 38.8245L17.4718 10.3868L27.6782 13.3497Z" fill="#6F898E"/>
<path d="M10.5865 13.2276L10.5865 35.5154L17.4718 38.8245L17.4718 10.3868L10.5865 13.2276Z" fill="#6C757D"/>
<path d="M24.0293 13.8825L24.0293 35.0096L31.9474 35.0096L31.9474 13.8825L24.0293 13.8825Z" fill="#5C6B73" stroke="black" stroke-width="0.1826" stroke-miterlimit="10"/>
<path d="M42.9778 26.5046L43.1297 26.5555C43.8081 26.7998 44.446 27.1562 45.0029 27.6144L45.9648 28.3984C46.3192 28.6835 46.6229 29.0398 46.8457 29.4369C46.9571 29.6202 46.9976 29.8442 46.9773 30.058L46.9469 30.3431C46.8963 30.9031 46.6027 31.402 46.147 31.7278L45.661 32.074C45.2965 32.3285 44.8611 32.4507 44.4156 32.4202L41.4488 32.1758C41.0033 32.1453 40.7097 31.7074 40.8312 31.2798L42.0766 26.9729C42.188 26.586 42.6031 26.3722 42.9778 26.5046Z" fill="#5C6B73"/>
<path d="M43.9498 28.6427L43.1195 31.6362" stroke="#8C8C8C" stroke-width="0.1826" stroke-miterlimit="10" stroke-linecap="round" stroke-linejoin="round"/>
<path d="M43.241 29.6405L43.1398 30.3024" stroke="#8C8C8C" stroke-width="0.1826" stroke-miterlimit="10" stroke-linecap="round" stroke-linejoin="round"/>
<path d="M42.9778 22.33L43.1297 22.2791C43.8081 22.0348 44.446 21.6784 45.0029 21.2202L45.9648 20.4362C46.3192 20.1511 46.6229 19.7948 46.8457 19.3977C46.9571 19.2144 46.9976 18.9904 46.9773 18.7766L46.9469 18.4915C46.8963 17.9315 46.6027 17.4326 46.147 17.1068L45.661 16.7606C45.2965 16.5061 44.8611 16.3839 44.4156 16.4144L41.4387 16.6486C40.9932 16.6792 40.6995 17.117 40.821 17.5446L42.0665 21.8515C42.188 22.2588 42.6031 22.4726 42.9778 22.33Z" fill="#5C6B73"/>
<path d="M43.9498 20.2021L43.1195 17.2086" stroke="#8C8C8C" stroke-width="0.1826" stroke-miterlimit="10" stroke-linecap="round" stroke-linejoin="round"/>
<path d="M43.241 19.2042L43.1398 18.5424" stroke="#8C8C8C" stroke-width="0.1826" stroke-miterlimit="10" stroke-linecap="round" stroke-linejoin="round"/>
<path d="M36.1532 34.1714C36.1532 34.1714 37.8745 35.1387 38.9175 33.8456C38.9175 33.8456 39.7883 33.5503 40.5983 32.6747L41.5906 31.5649C41.5906 31.5649 42.5221 31.1576 42.755 29.3453L42.8158 27.0646C42.8158 27.0646 42.4107 25.7817 40.9021 24.7228L40.0313 24.5497L38.5732 24.5497L38.4314 27.1053C38.4011 27.6042 38.3099 28.0929 38.1581 28.5715C37.8138 29.6202 37.1455 31.6565 36.6089 33.3671L36.1532 34.1714Z" fill="white"/>
<path d="M40.0211 24.5497L40.1629 25.5271C40.3654 26.9729 40.2338 28.4391 39.7883 29.8238L39.5047 30.7096C39.3529 31.178 39.2415 31.6464 39.1706 32.1351L38.9175 33.8456" stroke="#8C8C8C" stroke-width="0.1826" stroke-miterlimit="10"/>
<path d="M40.7907 29.9053L40.6084 30.6587C40.3958 31.5649 39.9401 32.3998 39.2921 33.0718L38.9681 33.4078" stroke="#8C8C8C" stroke-width="0.1826" stroke-miterlimit="10" stroke-linecap="round" stroke-linejoin="round"/>
<path d="M41.5906 31.5649L42.0057 30.3838L42.026 28.3576" stroke="#8C8C8C" stroke-width="0.1826" stroke-miterlimit="10" stroke-linecap="round" stroke-linejoin="round"/>
<path d="M36.1532 14.8872C36.1532 14.8872 37.8745 13.9199 38.9175 15.213C38.9175 15.213 39.7883 15.5083 40.5983 16.3839L41.5906 17.4937C41.5906 17.4937 42.5221 17.901 42.755 19.7133L42.8158 21.9941C42.8158 21.9941 42.4107 23.277 40.9021 24.3359L40.0313 24.5089L38.5732 24.5089L38.4314 21.9533C38.4011 21.4544 38.3099 20.9657 38.1581 20.4872C37.8138 19.4384 37.1455 17.4021 36.6089 15.6915L36.1532 14.8872Z" fill="white"/>
<path d="M38.9175 15.213L39.1706 16.9235C39.2415 17.4021 39.3529 17.8806 39.5047 18.349L39.7883 19.2348C40.2338 20.6195 40.3654 22.0857 40.1629 23.5315L40.0211 24.5089" stroke="#8C8C8C" stroke-width="0.1826" stroke-miterlimit="10"/>
<path d="M40.7907 19.1533L40.6084 18.3897C40.3958 17.4835 39.9401 16.6486 39.2921 15.9766L38.9681 15.6406" stroke="#8C8C8C" stroke-width="0.1826" stroke-miterlimit="10" stroke-linecap="round" stroke-linejoin="round"/>
<path d="M41.5906 17.4835L42.0057 18.6748L42.026 20.6908" stroke="#8C8C8C" stroke-width="0.1826" stroke-miterlimit="10" stroke-linecap="round" stroke-linejoin="round"/>
<path d="M38.3403 27.93C38.3403 27.93 39.3529 27.4718 39.3326 26.6166L39.3326 24.7024C39.3326 24.2544 39.2617 23.8064 39.1098 23.3788L38.4618 21.5257L38.4618 24.5395L38.4314 26.9526C38.4314 27.0544 38.4213 27.1664 38.4112 27.2682L38.3403 27.93Z" fill="#6C757D"/>
<path d="M41.1856 28.0115L41.2159 26.7795C41.2362 26.1278 41.1248 25.4864 40.9122 24.8857L40.8514 24.7329" stroke="#8C8C8C" stroke-width="0.1826" stroke-miterlimit="10" stroke-linecap="round" stroke-linejoin="round"/>
<path d="M40.8919 24.3257L41.2159 22.9206C41.3577 22.3199 41.3881 21.709 41.3071 21.098L41.1248 19.7031" stroke="#8C8C8C" stroke-width="0.1826" stroke-miterlimit="10" stroke-linecap="round" stroke-linejoin="round"/>
<path d="M22.251 39.1096C22.251 39.1096 24.4786 41.879 28.5895 41.6754C28.873 41.6652 29.1565 41.6856 29.4299 41.7365C30.4425 41.9299 32.9941 42.3066 34.5838 41.4921C35.2217 41.1663 35.89 40.8914 36.5785 40.6877C37.0139 40.5554 37.429 40.3416 37.7935 40.0667L38.4517 39.5576L39.1909 38.743C39.4237 38.4885 39.5554 38.1728 39.5655 37.8267C39.5857 37.0732 39.4642 35.7089 38.4416 34.7212C38.2087 34.4972 37.8442 34.4667 37.5809 34.6703C37.267 34.9045 36.4671 34.3852 35.6267 34.5889C34.7053 34.8129 33.6219 35.495 32.2144 36.2078C29.8248 37.4296 26.7062 38.6412 22.251 39.1096Z" fill="white"/>
<path d="M39.5756 38.071C39.5756 38.071 40.6692 35.8107 39.1909 34.538C38.9681 34.3445 38.634 34.314 38.3808 34.4667L38.1783 34.5787C38.1783 34.5889 39.3934 34.9045 39.5756 38.071Z" fill="#6C757D"/>
<path d="M39.849 37.5619L41.2767 36.2689C41.4387 36.1161 41.5602 35.9227 41.621 35.6987C41.6615 35.5561 41.7323 35.3932 41.8842 35.2507C42.0462 35.1081 42.1576 34.9147 42.2082 34.7009C42.2791 34.4158 42.3399 34.0187 42.2589 33.5503C42.2285 33.3772 42.107 33.2245 41.9348 33.1736C41.783 33.1227 41.6108 33.1532 41.4792 33.2551L40.8615 33.7438C40.6793 33.8863 40.4464 33.9678 40.2135 33.9576C40.1325 33.9576 40.0616 33.978 39.9908 34.0187L39.1909 34.5482C39.1909 34.538 40.2236 35.0878 39.849 37.5619Z" fill="#5C6B73"/>
<path d="M31.3841 40.2499L33.0751 38.6208C33.3586 38.3459 33.6117 38.0303 33.8142 37.6943L34.8774 34.9452" stroke="#8C8C8C" stroke-width="0.1826" stroke-miterlimit="10" stroke-linecap="round" stroke-linejoin="round"/>
<path d="M33.8446 41.1968C33.8446 41.1968 35.7887 37.9489 35.5862 34.6398" stroke="#8C8C8C" stroke-width="0.1826" stroke-miterlimit="10" stroke-linecap="round" stroke-linejoin="round"/>
<path d="M35.8191 40.3619C35.8191 40.3619 37.6214 36.9714 36.3456 34.5685" stroke="#8C8C8C" stroke-width="0.1826" stroke-miterlimit="10" stroke-linecap="round" stroke-linejoin="round"/>
<path d="M37.9049 39.9648C37.9049 39.9648 38.6643 38.4681 38.4213 37.4907" stroke="#8C8C8C" stroke-width="0.1826" stroke-miterlimit="10" stroke-linecap="round" stroke-linejoin="round"/>
<path d="M27.6073 39.751C27.6073 39.751 29.8552 38.8041 30.3007 37.1343" stroke="#8C8C8C" stroke-width="0.1826" stroke-miterlimit="10" stroke-linecap="round" stroke-linejoin="round"/>
<path d="M25.5417 41.2172C25.5417 41.2172 27.9617 40.8201 29.2578 40.0463C29.3995 39.9648 29.5717 39.9547 29.7236 40.0259L29.8957 40.1074C29.9666 40.1379 30.0273 40.1888 30.0779 40.2601L30.2906 40.5452C30.4728 40.7997 30.3716 41.1561 30.0881 41.2681L29.0046 41.6448" fill="#5C6B73"/>
<path d="M22.251 9.91849C22.251 9.91849 24.4786 7.14905 28.5895 7.35269C28.873 7.36287 29.1565 7.3425 29.4299 7.29159C30.4425 7.09814 32.9941 6.72142 34.5838 7.53596C35.2217 7.86177 35.89 8.13668 36.5785 8.34032C37.0139 8.47268 37.429 8.6865 37.7935 8.9614L38.4517 9.47049L39.1909 10.285C39.4237 10.5396 39.5554 10.8552 39.5655 11.2014C39.5857 11.9548 39.4642 13.3192 38.4416 14.3068C38.2087 14.5308 37.8442 14.5614 37.5809 14.3577C37.267 14.1236 36.4671 14.6428 35.6267 14.4392C34.7053 14.2152 33.6219 13.533 32.2144 12.8203C29.8248 11.5985 26.7062 10.3868 22.251 9.91849Z" fill="white"/>
<path d="M39.5756 10.957C39.5756 10.957 40.6692 13.2174 39.1909 14.4901C38.9681 14.6835 38.6441 14.7141 38.3808 14.5614L38.1783 14.4392C38.1783 14.4392 39.3934 14.1235 39.5756 10.957Z" fill="#6C757D"/>
<path d="M39.849 11.4661L41.2767 12.7592C41.4387 12.9119 41.5602 13.1156 41.621 13.3294C41.6615 13.4719 41.7323 13.6348 41.8842 13.7774C42.0462 13.9199 42.1576 14.1134 42.2082 14.3272C42.2791 14.6123 42.3399 15.0094 42.2589 15.4777C42.2285 15.661 42.0969 15.8035 41.9348 15.8646C41.7728 15.9155 41.6007 15.885 41.4792 15.7832L40.8514 15.2944C40.6692 15.1417 40.4464 15.0705 40.2135 15.0705C40.1325 15.0705 40.0616 15.0501 39.9908 15.0094L39.1909 14.4901C39.1909 14.4901 40.2236 13.9403 39.849 11.4661Z" fill="#5C6B73"/>
<path d="M31.3841 8.77813L33.0751 10.4072C33.3586 10.6821 33.6117 10.9978 33.8142 11.3337L34.8774 14.0828" stroke="#8C8C8C" stroke-width="0.1826" stroke-miterlimit="10" stroke-linecap="round" stroke-linejoin="round"/>
<path d="M33.8446 7.83123C33.8446 7.83123 35.7887 11.0792 35.5862 14.3883" stroke="#8C8C8C" stroke-width="0.1826" stroke-miterlimit="10" stroke-linecap="round" stroke-linejoin="round"/>
<path d="M35.8191 8.66613C35.8191 8.66613 37.6214 12.0567 36.3456 14.4595" stroke="#8C8C8C" stroke-width="0.1826" stroke-miterlimit="10" stroke-linecap="round" stroke-linejoin="round"/>
<path d="M37.9049 9.06322C37.9049 9.06322 38.6643 10.5599 38.4213 11.5374" stroke="#8C8C8C" stroke-width="0.1826" stroke-miterlimit="10" stroke-linecap="round" stroke-linejoin="round"/>
<path d="M27.6073 9.27704C27.6073 9.27704 29.8552 10.2239 30.3007 11.8937" stroke="#8C8C8C" stroke-width="0.1826" stroke-miterlimit="10" stroke-linecap="round" stroke-linejoin="round"/>
<path d="M21.2891 10.5396L18.7476 13.7672C18.5957 13.9606 18.6868 14.2457 18.9298 14.3068L28.387 16.8828C29.3793 17.1577 30.0881 18.0435 30.1184 19.0821L30.2602 24.5191L30.1184 29.9562C30.0881 30.9947 29.3793 31.8805 28.387 32.1554L19.021 34.7009C18.7374 34.7722 18.6261 35.1183 18.8083 35.3423L21.2891 38.4987C21.6232 38.9263 22.17 39.1198 22.6864 38.9976L25.643 38.3154C27.9719 37.786 30.2298 36.951 32.3562 35.8412L34.6648 34.6398C35.2419 34.3343 35.6773 33.8253 35.8798 33.2042L37.3986 28.6529C37.5505 28.2049 37.6315 27.7366 37.6518 27.2682L37.7024 24.5293L37.7024 24.5191L37.7024 24.5089L37.6518 21.7701C37.6315 21.3017 37.5505 20.8333 37.3986 20.3853L35.8798 15.8341C35.6773 15.213 35.2318 14.7039 34.6648 14.3985L32.3562 13.197C30.2298 12.0872 27.982 11.2523 25.643 10.7229L22.6864 10.0407C22.1598 9.92867 21.6232 10.1221 21.2891 10.5396Z" fill="#B8D5F1"/>
<path d="M22.0485 10.4887L19.507 13.7163C19.3551 13.9097 19.4462 14.1948 19.6892 14.2559L29.1464 16.8319C30.1387 17.1068 30.8475 17.9926 30.8779 19.0312L31.0196 24.4682L30.8779 29.9053C30.8475 30.9438 30.1387 31.8296 29.1464 32.1045L19.7804 34.65C19.4968 34.7212 19.3855 35.0674 19.5677 35.2914L22.0485 38.4478C22.3826 38.8754 22.9294 39.0688 23.4458 38.9467L26.4024 38.2645C28.7313 37.735 30.9892 36.9001 33.1156 35.7903L35.4242 34.5889C36.0013 34.2834 36.4367 33.7743 36.6392 33.1532L38.1581 28.602C38.3099 28.154 38.3909 27.6856 38.4112 27.2173L38.4618 24.4784L38.4618 24.4682L38.4618 24.458L38.4112 21.7191C38.3909 21.2508 38.3099 20.7824 38.1581 20.3344L36.6392 15.7832C36.4367 15.1621 35.9912 14.653 35.4242 14.3476L33.1156 13.1461C30.9892 12.0363 28.7414 11.2014 26.4024 10.6719L23.4458 9.98976C22.9193 9.86758 22.3725 10.061 22.0485 10.4887Z" fill="#00D3AE"/>
<path d="M18.4438 12.4945L19.4057 11.8123C19.9626 11.6188 20.5702 11.629 21.1169 11.8327L24.2862 13.0239C24.9038 13.2581 25.4101 13.7265 25.6936 14.3272L26.8378 16.7606C26.8378 16.7708 23.7192 12.8814 18.4438 12.4945Z" fill="#6C757D"/>
<path d="M18.4438 36.4521L19.4057 37.1343C19.9626 37.3278 20.5702 37.3176 21.1169 37.1139L24.2862 35.9227C24.9038 35.6885 25.4101 35.2201 25.6936 34.6194L26.8378 32.1758C26.8378 32.1758 23.7192 36.0652 18.4438 36.4521Z" fill="#6C757D"/>
<path d="M4.40993 24.4275C4.40993 31.0685 9.76378 36.4521 16.3681 36.4521C22.9724 36.4521 28.3262 31.0685 28.3262 24.4275C28.3262 17.7865 22.9724 12.4028 16.3681 12.4028C9.76378 12.4028 4.40993 17.7865 4.40993 24.4275Z" fill="#6F898E"/>
<path d="M5.69587 24.4886C5.69587 31.1296 11.0497 36.5132 17.654 36.5132C24.2583 36.5132 29.6122 31.1296 29.6122 24.4886C29.6122 17.8475 24.2583 12.4639 17.654 12.4639C11.0497 12.4639 5.69587 17.8475 5.69587 24.4886Z" fill="white"/>
<path d="M9.16889 32.0027C8.35886 32.0027 7.97409 33.0209 8.59174 33.5503C10.6776 35.3525 13.4013 36.4419 16.3681 36.4419C19.3348 36.4419 22.0485 35.3525 24.1444 33.5503C24.7621 33.0209 24.3874 32.0027 23.5673 32.0027L9.16889 32.0027Z" fill="#00D3AE"/>
<path d="M9.3714 16.7504C8.48036 16.7504 8.07535 15.6203 8.76388 15.0501C10.8295 13.3396 13.4722 12.3112 16.3681 12.3112C19.2538 12.3112 21.9067 13.3396 23.9723 15.0501C24.6608 15.6203 24.2558 16.7504 23.3648 16.7504L9.3714 16.7504Z" fill="#00D3AE"/>
<path d="M25.076 33.9067C27.8402 31.7074 29.6122 28.3067 29.6122 24.4886C29.6122 20.6602 27.8301 17.2392 25.0557 15.0399C22.251 15.9155 20.1449 19.805 20.1449 24.4682C20.1348 29.1518 22.2611 33.0514 25.076 33.9067Z" fill="white"/>
<path d="M24.6608 33.6012C25.0557 33.8252 25.5519 33.754 25.886 33.4383C28.1946 31.2391 29.6426 28.042 29.6426 24.4784C29.6426 20.9046 28.1845 17.6973 25.8658 15.4981C25.5316 15.1825 25.0355 15.1214 24.6406 15.3454C22.3624 16.6283 20.7119 20.2224 20.7119 24.458C20.7119 28.7242 22.3725 32.3387 24.6608 33.6012Z" fill="#383735"/>
<path d="M36.1127 20.4872L36.1127 28.9176L32.2549 30.1089L32.2549 19.3672L36.1127 20.4872Z" fill="#B8D5F1"/>
<path d="M30.9285 19.8966L30.9285 29.5082L32.2549 30.1089L32.2549 19.3672L30.9285 19.8966Z" fill="#6C757D"/>
<path d="M38.4719 21.7293L38.4719 27.6958L35.7381 28.5409L35.7381 20.9351L38.4719 21.7293Z" fill="#93ABBC"/>
<path d="M34.7964 21.3017L34.7964 28.1133L35.7381 28.5409L35.7381 20.9351L34.7964 21.3017Z" fill="#6C757D"/>
<path d="M24.1739 28.3428L24.1739 28.9924C24.1739 30.0686 25.0463 30.941 26.1225 30.941C27.1987 30.941 28.0712 30.0686 28.0712 28.9924L28.0712 28.3428C28.0712 27.2666 27.1987 26.3941 26.1225 26.3941C25.0463 26.3941 24.1739 27.2666 24.1739 28.3428Z" fill="white"/>
<path d="M23.1324 25.0486L23.1324 25.385C23.1324 25.9424 23.5842 26.3941 24.1415 26.3941C24.6988 26.3941 25.1507 25.9424 25.1507 25.385L25.1507 25.0486C25.1507 24.4913 24.6988 24.0395 24.1415 24.0395C23.5842 24.0395 23.1324 24.4913 23.1324 25.0486Z" fill="white"/>
<path d="M46.9875 29.9462C46.9875 29.9768 46.9875 30.0175 46.9875 30.048L46.9571 30.3331C46.9064 30.8931 46.6128 31.392 46.1572 31.7178L45.6711 32.064C45.3066 32.3186 44.8712 32.4407 44.4257 32.4102L41.4488 32.176C41.3375 32.1658 41.2261 32.1251 41.1349 32.0742L40.7806 32.4713C41.0033 32.7767 41.1653 33.1229 41.2058 33.4589L41.4792 33.2451C41.6108 33.1433 41.783 33.1127 41.9349 33.1637C42.107 33.2247 42.2285 33.3673 42.2589 33.5404C42.2892 33.7033 42.2994 33.856 42.2994 34.0087C42.2994 34.2836 42.2589 34.5178 42.2082 34.6909C42.1576 34.9047 42.0462 35.0982 41.8842 35.2407C41.7323 35.3833 41.6513 35.5462 41.621 35.6887C41.5602 35.9025 41.4488 36.1062 41.2767 36.2589L39.849 37.552C39.849 37.5418 39.849 37.5418 39.849 37.5418C39.849 37.44 39.4136 38.4887 39.1909 38.7331L38.4517 39.5476L37.7935 40.0567C37.429 40.3418 37.024 40.5556 36.5785 40.6778C36.4975 40.6982 36.4165 40.7389 36.3355 40.7694C35.4242 40.9527 34.766 41.6552 33.6117 41.8181C32.5081 41.9811 31.7284 42.0727 30.5032 41.8894C30.0779 41.8385 29.7033 41.7774 29.44 41.7265C29.1667 41.6756 28.8831 41.6552 28.5996 41.6654C24.4887 41.8691 22.2611 39.0996 22.2611 39.0996L21.2891 38.4989L20.7423 37.8065L17.4718 38.8145L10.5966 35.5055L10.5966 34.9353C10.5662 34.9149 10.5257 34.8946 10.4953 34.8742C10.3131 34.7724 10.1308 34.6502 9.94856 34.5382C9.81692 34.4567 9.69542 34.3753 9.56379 34.2836C9.38153 34.1615 9.2094 34.0189 9.03727 33.8866C8.92588 33.7949 8.80438 33.7135 8.693 33.6218C8.66263 33.6015 8.63225 33.5709 8.60187 33.5506C8.58162 33.5302 8.5715 33.52 8.56137 33.4997C6.03001 31.3004 4.42006 28.0524 4.42006 24.4175C4.42006 20.7928 6.01988 17.555 8.531 15.3558C8.59175 15.2438 8.66262 15.1318 8.774 15.0503C9.34103 14.582 9.94856 14.1645 10.5966 13.8081L10.5966 13.2176L17.4718 10.3871L20.6815 11.3136L21.2891 10.5398L22.2611 9.91871C22.2611 9.91871 24.4887 7.14927 28.5996 7.35291C28.8831 7.36309 29.1667 7.34273 29.44 7.29182C30.4526 7.09836 33.0042 6.72164 34.5939 7.53618C35.2318 7.862 35.9001 8.1369 36.5886 8.34054C37.024 8.4729 37.4392 8.68672 37.8037 8.96163L38.4618 9.47071L39.1909 10.2853C39.4136 10.5296 39.6364 11.2932 39.6465 11.2118L39.849 11.4663L41.2767 12.7594C41.4387 12.9121 41.5602 13.1056 41.621 13.3296C41.6615 13.4721 41.7323 13.6351 41.8842 13.7776C42.0462 13.9201 42.1576 14.1136 42.2082 14.3274C42.2589 14.5107 42.2994 14.7449 42.2994 15.0096C42.2994 15.1521 42.2892 15.315 42.2589 15.4779C42.2285 15.651 42.0969 15.7936 41.9349 15.8547C41.783 15.9056 41.6108 15.875 41.4792 15.7732L40.8514 15.2845C40.6692 15.1419 40.4464 15.0605 40.2135 15.0707C40.1325 15.0707 40.0616 15.0503 39.9908 15.0096L39.1909 14.4801C38.9681 14.6736 38.634 14.7041 38.3808 14.5514L38.2087 14.4496C38.0062 14.5209 37.7733 14.5005 37.5809 14.358C37.267 14.1238 36.4671 14.643 35.6267 14.4394C35.6267 14.4598 36.1532 14.8772 36.1532 14.8772C36.1532 14.8772 37.8745 13.91 38.9175 15.203C38.9175 15.203 39.7883 15.4983 40.5983 16.3739L41.0337 16.8627C41.1451 16.7608 41.2767 16.6794 41.4488 16.659L44.4257 16.4249C44.8712 16.3943 45.3066 16.5165 45.6711 16.771L46.1572 17.1172C46.6128 17.443 46.9064 17.9419 46.9571 18.5019L46.9875 18.787C46.9875 18.8176 46.9875 18.8583 46.9875 18.8888C46.9875 19.0721 46.9368 19.2452 46.8457 19.4081C46.6128 19.8052 46.3192 20.1514 45.9648 20.4466L45.0029 21.2306C44.446 21.6888 43.8081 22.0452 43.1297 22.2895L42.9778 22.3405C42.8664 22.3812 42.755 22.3812 42.6436 22.3608C42.4107 22.819 41.9045 23.6234 40.8919 24.3259L40.0211 24.499L39.3225 24.499C39.3225 24.5193 39.3225 24.5295 39.3225 24.5499L40.0211 24.5499L40.8919 24.723C41.783 25.3441 42.2791 26.0364 42.5525 26.5048C42.6943 26.4641 42.836 26.4539 42.9778 26.5048L43.1297 26.5557C43.8081 26.8001 44.446 27.1564 45.0029 27.6146L45.9648 28.3986C46.3192 28.6837 46.6229 29.04 46.8457 29.4371C46.9368 29.5899 46.9875 29.7629 46.9875 29.9462ZM48 29.9462C48 29.5797 47.8987 29.2233 47.7165 28.9179C47.433 28.4088 47.0482 27.971 46.6027 27.6044L45.6408 26.8204C44.9927 26.291 44.2536 25.8735 43.4638 25.5986L43.3119 25.5477C43.241 25.5273 43.1702 25.507 43.0892 25.4866C42.8765 25.1913 42.6031 24.8553 42.2487 24.5295C42.6943 24.1121 43.0284 23.6844 43.2613 23.3077C43.2714 23.3077 43.2917 23.2975 43.3018 23.2975L43.4537 23.2466C44.2435 22.9615 44.9725 22.5543 45.6306 22.0248L46.5926 21.2408C47.0381 20.8743 47.4228 20.4365 47.7165 19.9274C47.8987 19.6016 48 19.2452 48 18.8888C48 18.8176 48 18.7565 47.9899 18.6852L47.9595 18.4001C47.8785 17.5448 47.433 16.7812 46.7343 16.2823L46.2483 15.9361C45.6914 15.5492 45.013 15.3558 44.3447 15.4169L43.2815 15.4983C43.3018 15.3354 43.3119 15.1725 43.3119 15.0096C43.3119 14.694 43.2714 14.3681 43.1904 14.0627C43.0892 13.6554 42.8664 13.2991 42.5728 13.014C42.4918 12.6372 42.269 12.2707 41.9551 11.9958L40.578 10.7536L40.5072 10.662C40.3553 10.2751 40.1933 9.87798 39.9401 9.60308L39.1909 8.77835L39.1402 8.71726L39.0694 8.66635L38.4112 8.15727C37.9454 7.79072 37.429 7.526 36.862 7.35291C36.2646 7.17982 35.6571 6.92527 35.0394 6.60964C33.2371 5.69328 30.6349 6.00892 29.2375 6.28382C29.035 6.32455 28.8325 6.33473 28.63 6.32455C24.5596 6.12092 22.1295 8.51363 21.5726 9.12453L20.722 9.67435L20.5803 9.76598L20.479 9.89835L20.2866 10.1427L17.735 9.39944L17.4009 9.29762L17.0769 9.42999L10.2017 12.2707L9.57392 12.5252L9.57392 13.2074C9.05752 13.5231 8.56137 13.8794 8.11585 14.246C7.96397 14.3681 7.83234 14.5209 7.73108 14.6838C4.97696 17.1579 3.39739 20.691 3.39739 24.3972C3.39739 28.144 5.00734 31.7077 7.82221 34.192C7.85259 34.2226 7.89309 34.2633 7.93359 34.304C7.96397 34.3346 7.99434 34.3549 8.03484 34.3855C8.12597 34.4567 8.2171 34.528 8.30823 34.5993L8.40949 34.6706C8.60187 34.8233 8.78413 34.9658 8.98664 35.1084C9.10814 35.1898 9.21953 35.2713 9.34103 35.3425L9.40178 35.3833C9.46254 35.424 9.52329 35.4647 9.58404 35.5055L9.58404 36.1367L10.1612 36.4116L17.0364 39.7207L17.3908 39.8938L17.7654 39.7818L20.3676 38.9774L20.4891 39.1302L20.6005 39.2727L20.7524 39.3643L21.5928 39.8836C22.1598 40.5149 24.59 42.877 28.6401 42.6734C28.8325 42.6632 29.035 42.6734 29.2375 42.7141C29.4907 42.765 29.8856 42.8261 30.3716 42.8872C31.6879 43.0909 32.5587 42.989 33.7434 42.816C34.5433 42.6938 35.1508 42.3781 35.6368 42.1236C35.9608 41.9505 36.2443 41.808 36.5177 41.7469L36.5785 41.7367L36.6291 41.7163C36.6797 41.696 36.7304 41.6858 36.781 41.6654C36.8012 41.6552 36.8316 41.6451 36.8519 41.6349C37.4189 41.472 37.9353 41.1971 38.4011 40.8407L39.0592 40.3316L39.1301 40.2807L39.1909 40.24L39.93 39.4254C40.1426 39.1913 40.3249 38.8247 40.5679 38.3156C40.5882 38.2851 40.5983 38.2545 40.6084 38.224L41.9349 37.0225C42.2386 36.7476 42.4614 36.3709 42.5728 35.9636C42.8461 35.7295 43.0588 35.3629 43.1702 34.9556C43.2512 34.6502 43.2917 34.3346 43.2917 34.0087C43.2917 33.7949 43.2714 33.5811 43.241 33.3775C43.241 33.3673 43.241 33.3571 43.2309 33.3367L44.3245 33.4182C45.0029 33.4691 45.6711 33.2858 46.228 32.8989L46.7141 32.5527C47.4127 32.064 47.8582 31.2902 47.9392 30.4349L47.9696 30.1499C48 30.0786 48 30.0175 48 29.9462Z" fill="black"/>
</svg>
