<svg width="50" height="50" viewBox="0 0 50 50" fill="none" xmlns="http://www.w3.org/2000/svg">
<path d="M4.01151 16.4234L19.9742 16.4234C20.6906 16.4234 21.2807 17.0134 21.2807 17.7299C21.2807 18.4464 20.6906 19.0364 19.9742 19.0364L4.01151 19.0364C3.29504 19.0364 2.705 18.4464 2.705 17.7299C2.705 17.0134 3.29504 16.4234 4.01151 16.4234Z" fill="#495057"/>
<path d="M4.01151 34.1456L19.9742 34.1456C20.6906 34.1456 21.2807 33.5556 21.2807 32.8391C21.2807 32.1226 20.6906 31.5326 19.9742 31.5326L4.01151 31.5326C3.29504 31.5326 2.705 32.1226 2.705 32.8391C2.705 33.5555 3.29504 34.1456 4.01151 34.1456Z" fill="#495057"/>
<path d="M30.0259 14.3161L45.9885 14.3161C46.705 14.3161 47.295 14.9062 47.295 15.6226C47.295 16.3391 46.705 16.9292 45.9885 16.9292L30.0259 16.9292C29.3094 16.9292 28.7193 16.3391 28.7193 15.6226C28.7193 14.9062 29.3094 14.3161 30.0259 14.3161Z" fill="#495057"/>
<path d="M30.0259 36.2529L45.9885 36.2529C46.705 36.2529 47.295 35.6629 47.295 34.9464C47.295 34.2299 46.705 33.6399 45.9885 33.6399L30.0259 33.6399C29.3094 33.6399 28.7193 34.2299 28.7193 34.9464C28.7193 35.6629 29.3094 36.2529 30.0259 36.2529Z" fill="#495057"/>
<path d="M38.5919 34.0297L40.5728 32.8285C43.523 31.0479 45.8621 28.4243 47.2845 25.295L47.295 25.295L47.295 25.2845L47.295 25.2739L47.2845 25.2739C45.8621 22.1446 43.523 19.5211 40.5728 17.7404L38.5919 16.5498C38.3391 16.3917 38.0441 16.318 37.7596 16.318L33.0603 16.318L12.4511 17.8247C11.2816 17.909 10.2174 18.5201 9.55364 19.4894L5.58141 25.2739L5.57088 25.2739L5.58141 25.2845L5.57088 25.295L5.58141 25.295L9.55364 31.09C10.2174 32.0594 11.2816 32.6705 12.4511 32.7548L33.0603 34.2615L37.7596 34.2615C38.0441 34.2615 38.3391 34.1772 38.5919 34.0297Z" fill="#F22535"/>
<path d="M5.29713 25.8161L8.90767 31.0747L4.02203 31.0747C3.02941 31.0747 2.21551 31.8886 2.21551 32.8812C2.21551 33.8738 3.02941 34.6877 4.02203 34.6877L19.9741 34.6877C20.5788 34.6877 21.0973 34.3894 21.4219 33.9501L28.3054 34.456C28.2504 34.6213 28.2193 34.7995 28.2193 34.9885C28.2193 35.9811 29.0332 36.795 30.0259 36.795L45.9885 36.795C46.9811 36.795 47.795 35.9811 47.795 34.9885C47.795 33.9959 46.9811 33.182 45.9885 33.182L41.0173 33.182C41.0266 33.176 41.0363 33.1697 41.0462 33.1633C41.1816 33.0754 41.3753 32.9455 41.6135 32.7749C42.0897 32.4338 42.7453 31.9286 43.4688 31.2684C44.9125 29.9512 46.6456 28 47.7526 25.486L47.8413 25.2845L47.7526 25.083C46.6456 22.5689 44.9125 20.6177 43.4688 19.3005C42.7453 18.6404 42.0897 18.1352 41.6135 17.7941C41.3774 17.625 41.185 17.4959 41.0499 17.408L45.9885 17.408C46.9811 17.408 47.795 16.5941 47.795 15.6015C47.795 14.6089 46.9811 13.795 45.9885 13.795L30.0259 13.795C29.0332 13.795 28.2193 14.6089 28.2193 15.6015C28.2193 15.7874 28.2485 15.9664 28.3024 16.1342L21.4219 16.6399C21.0973 16.2007 20.5788 15.9023 19.9741 15.9023L4.01149 15.9023C3.01887 15.9023 2.20498 16.7162 2.20498 17.7088C2.20498 18.7014 3.01887 19.5153 4.01149 19.5153L8.89713 19.5153L5.13761 24.9909L5.04981 25.1188L5.04981 25.2739L5.04981 25.3161L5.04981 25.8161L5.29713 25.8161ZM40.5728 17.6983L40.7456 17.408L40.7456 17.408C40.7078 17.4715 40.6528 17.5638 40.5728 17.6983Z" stroke="black" stroke-miterlimit="10"/>
<path d="M19.7318 25.3372L19.7318 26.7385C19.7318 27.4761 20.3324 28.0766 21.07 28.0766L27.1389 28.0766C27.4656 28.0766 27.7816 28.1399 28.0872 28.2663L29.7625 28.9828C30.2682 29.204 30.6897 29.5833 30.9531 30.0785L31.6485 31.3956C32.2385 32.5019 33.5345 33.0393 34.7357 32.6705L36.6217 32.1015C37.7912 31.7433 38.8659 31.1638 39.8037 30.3736L44.0814 26.7912C44.3659 26.5383 44.5345 26.1801 44.5345 25.7902L44.5345 25.295L44.5345 25.274L44.5345 24.7787C44.5345 24.3994 44.3659 24.0307 44.0709 23.7883L39.7931 20.2059C38.8554 19.4263 37.7807 18.8362 36.6111 18.478L34.7251 17.8985C33.524 17.5297 32.228 18.0671 31.638 19.1734L30.9426 20.4904C30.6792 20.9751 30.2577 21.3649 29.7519 21.5862L28.0767 22.3027C27.7816 22.4291 27.455 22.4923 27.1284 22.4923L21.0594 22.4923C20.3219 22.4923 19.7213 23.0929 19.7213 23.8305L19.7213 25.2318" fill="#CF071E"/>
<path d="M38.1389 27.0124L43.4598 25.4215C43.5125 25.4004 43.5546 25.3477 43.5546 25.2845C43.5546 25.2213 43.5125 25.1686 43.4598 25.158L38.1389 23.567C37.6859 23.4301 37.2012 23.567 36.8851 23.9042L35.7998 25.0527C35.7788 25.0737 35.7682 25.1054 35.7682 25.1475L35.7682 25.4425C35.7682 25.4741 35.7788 25.5057 35.7998 25.5374L36.8851 26.6858C37.2012 27.0124 37.6859 27.1494 38.1389 27.0124Z" fill="#F22535"/>
<path d="M19.2681 25.432C19.2681 26.8519 20.4192 28.0029 21.839 28.0029C23.2589 28.0029 24.4099 26.8519 24.4099 25.432C24.4099 24.0121 23.2589 22.8611 21.839 22.8611C20.4192 22.8611 19.2681 24.0121 19.2681 25.432Z" fill="#212529"/>
<path d="M28.2452 30.4789L28.2452 20.1532C28.2452 19.8688 28.477 19.637 28.7615 19.637L29.0565 19.637C29.341 19.637 29.5728 19.8688 29.5728 20.1532L29.5728 30.4789C29.5728 30.7634 29.341 30.9952 29.0565 30.9952L28.7615 30.9952C28.477 30.9952 28.2452 30.7634 28.2452 30.4789Z" fill="#343A40"/>
<path d="M27.2442 27.8448L27.2442 23.0297C27.2442 22.7663 27.4549 22.5555 27.7183 22.5555L27.9607 22.5555C28.2241 22.5555 28.4348 22.7663 28.4348 23.0297L28.4348 27.8448C28.4348 28.1082 28.2241 28.319 27.9607 28.319L27.7183 28.319C27.4549 28.319 27.2442 28.1082 27.2442 27.8448Z" fill="#343A40"/>
<path d="M32.0067 26.2327L32.0067 24.6733C32.0067 24.1044 31.5431 23.6408 30.9741 23.6408L29.5727 23.6408L29.5727 27.2653L30.9741 27.2653C31.5431 27.2653 32.0067 26.8017 32.0067 26.2327Z" fill="black"/>
<path d="M20.8908 25.4109L16.5498 25.4109L16.5498 22.9454C16.5498 22.9454 16.6657 21.3333 18.2567 21.2069C18.478 21.1858 18.6782 21.0804 18.8151 20.9013L19.1418 20.4799C19.3736 20.1743 19.6896 19.9636 20.0584 19.8688L22.2711 19.3209L22.6925 19.068C22.8084 18.9942 22.9559 18.9837 23.0929 19.0258L23.6513 19.2155L27.3601 19.8477L27.8132 20.2481L27.5709 20.5115L28.1293 20.5958L27.4128 21.6494L27.0967 21.386L26.8544 21.7021L24.5259 21.4597L24.1571 21.6599C24.0201 21.7337 23.8621 21.7337 23.7251 21.6705L23.2299 21.4281L21.1437 22.682C20.9856 22.7768 20.8487 22.9138 20.7538 23.0824L20.364 23.7883L20.8908 25.4109Z" fill="#A2D900"/>
<path d="M28.3506 21.9128L28.909 22.3658C29.0987 22.5239 29.3621 22.5344 29.5728 22.408L29.7941 22.271C29.9521 22.1762 30.0469 22.0076 30.068 21.8285L30.0996 21.4597C30.1207 21.2174 29.9837 20.9961 29.7625 20.8907L29.067 20.5746C28.9511 20.522 28.8142 20.5009 28.6877 20.5114L28.1188 20.5746L27.4023 21.6283L28.1398 22.3974L28.3506 21.9128Z" fill="#FFC100"/>
<path d="M23.2194 21.4387L22.6399 22.271C22.5345 22.4185 22.3975 22.5555 22.2395 22.6609L21.228 23.3247L20.6169 23.4616L20.7855 23.1034C20.8697 22.9243 21.0067 22.7768 21.1753 22.6714L23.2194 21.4387Z" fill="#212529"/>
<path d="M20.8908 25.432L16.5498 25.432L16.5498 27.8975C16.5498 27.8975 16.6657 29.5096 18.2567 29.636C18.478 29.6571 18.6782 29.7624 18.8151 29.9416L19.1418 30.363C19.3736 30.6686 19.6896 30.8793 20.0584 30.9741L22.2711 31.522L22.6925 31.7749C22.8084 31.8486 22.9559 31.8592 23.0929 31.817L23.6513 31.6274L27.3601 30.9952L27.8132 30.5948L27.5709 30.3314L28.1293 30.2471L27.4128 29.1935L27.0967 29.4569L26.8544 29.1408L24.5259 29.3831L24.1571 29.1829C24.0201 29.1092 23.8621 29.1092 23.7251 29.1724L23.2299 29.4147L21.1437 28.1609C20.9856 28.0661 20.8487 27.9291 20.7538 27.7605L20.364 27.0546L20.8908 25.432Z" fill="#A2D900"/>
<path d="M28.3506 28.9195L28.909 28.4665C29.0987 28.3084 29.3621 28.2979 29.5728 28.4243L29.7941 28.5613C29.9521 28.6561 30.0469 28.8247 30.068 29.0038L30.0996 29.3726C30.1207 29.6149 29.9837 29.8362 29.7625 29.9416L29.067 30.2577C28.9511 30.3103 28.8142 30.3314 28.6877 30.3209L28.1188 30.2577L27.4023 29.204L28.1398 28.4349L28.3506 28.9195Z" fill="#FFC100"/>
<path d="M23.2194 29.3936L22.6399 28.5612C22.5345 28.4137 22.3975 28.2768 22.2395 28.1714L21.228 27.5076L20.6169 27.3706L20.7855 27.7289C20.8697 27.908 21.0067 28.0555 21.1753 28.1609L23.2194 29.3936Z" fill="#212529"/>
<path d="M16.7289 25.2634C16.7289 26.5378 17.762 27.5709 19.0364 27.5709C20.3108 27.5709 21.3438 26.5378 21.3438 25.2634C21.3438 23.989 20.3108 22.9559 19.0364 22.9559C17.762 22.9559 16.7289 23.989 16.7289 25.2634Z" fill="#FF9B37"/>
<path d="M17.3716 25.2634C17.3716 26.1829 18.117 26.9282 19.0364 26.9282C19.9558 26.9282 20.7011 26.1829 20.7011 25.2634C20.7011 24.344 19.9558 23.5987 19.0364 23.5987C18.117 23.5987 17.3716 24.344 17.3716 25.2634Z" fill="#FF9B37"/>
<path d="M20.8908 26.6858C20.9224 26.6858 20.9646 26.6858 20.9962 26.6858C21.7127 26.6331 22.2816 26.0431 22.3132 25.3266C22.3448 24.5048 21.6916 23.8304 20.8803 23.8304C20.6379 23.8304 20.4378 24.0306 20.4378 24.2835L20.4378 26.2433C20.4378 26.4856 20.6379 26.6858 20.8908 26.6858Z" fill="#495057"/>
</svg>
