<svg width="50" height="50" viewBox="0 0 50 50" fill="none" xmlns="http://www.w3.org/2000/svg">
<path d="M26.3154 36.7388L5.58304 35.5514C4.2807 35.4721 3.26119 34.397 3.26119 33.0843L3.26119 16.3886C3.26119 15.0825 4.2807 14.0008 5.58304 13.9281L26.3154 12.7408C26.9666 12.7408 27.6112 12.7738 28.2492 12.8464C31.3077 13.1828 34.2347 14.3108 36.7408 16.138L45.6797 22.6486C47.0873 23.6843 47.0873 25.7952 45.6797 26.8243L36.7408 33.335C33.7085 35.5448 30.0646 36.7388 26.3154 36.7388L26.3154 36.7388Z" fill="#FA3E00"/>
<path d="M46.7387 24.7397L46.2914 23.2754L38.2931 17.2726L32.2221 13.7566L28.7791 12.8866L27.3638 12.7474L26.7628 12.7474C26.6115 12.7408 26.4668 12.7408 26.3155 12.7408L5.58313 13.9281C4.28079 14.0008 3.26128 15.0825 3.26128 16.3886L3.26128 24.7332L28.2493 24.7332L28.2493 15.9797L43.4434 24.7397L46.7387 24.7397Z" fill="#E23000"/>
<path d="M26.7694 34.8388L9.30603 33.8427C8.21413 33.7769 7.35248 32.8665 7.35248 31.7649L7.35248 17.7078C7.35248 16.6063 8.21413 15.6959 9.30603 15.6366L17.3043 15.1747L26.7693 14.6339C29.92 14.6339 32.9917 15.6366 35.5437 17.4967L39.2864 20.2211L43.0684 22.9784C44.259 23.8492 44.259 25.6236 43.0684 26.4944L35.5437 31.9761C32.9917 33.8361 29.92 34.8388 26.7693 34.8388L26.7694 34.8388Z" fill="white"/>
<path opacity="0.3" d="M25.6577 33.1569L17.3043 15.1747L26.7693 14.6339C29.92 14.6339 32.9917 15.6366 35.5437 17.4967L39.2864 20.2211L42.2002 24.7396L25.6577 33.1568L25.6577 33.1569Z" fill="#E7EAED"/>
<path d="M42.1995 24.7373C42.1995 24.7373 35.4494 17.5092 26.8416 16.316L26.8416 24.7373L42.1995 24.7373L42.1995 24.7373Z" fill="#E7EAED"/>
<path d="M42.1995 24.7373C42.1995 24.7373 35.4494 31.9654 26.8416 33.1586L26.8416 24.7373L42.1995 24.7373Z" fill="#CCD2D8"/>
<path d="M26.8476 24.7373L26.8476 33.1545L21.9418 30.5887L21.9418 24.7373L26.8476 24.7373Z" fill="#ED2A2F"/>
<path d="M26.8476 24.7373L26.8476 16.3202L21.9418 18.886L21.9418 24.7373L26.8476 24.7373Z" fill="#ED2A2F"/>
<path d="M18.9684 30.5908L9.06691 30.5908C8.12004 30.5908 7.35246 29.821 7.35246 28.8714L7.35246 20.608C7.35246 19.6584 8.12004 18.8886 9.06691 18.8886L18.9684 18.8886L18.9684 30.5908Z" fill="#B26B36"/>
<path d="M21.9414 30.5908L11.3432 30.5908C10.7812 30.5908 10.3255 30.1338 10.3255 29.5701L10.3255 19.9093C10.3255 19.3456 10.7812 18.8886 11.3432 18.8886L21.9414 18.8886L21.9414 30.5908Z" fill="#D38644"/>
<path d="M26.8476 16.3202L19.2444 16.3202L15.3835 18.8887L21.9414 18.8887L26.8476 16.3202Z" fill="#CB1116"/>
<path d="M26.8476 33.145L19.2444 33.145L15.3835 30.5765L21.9414 30.5765L26.8476 33.145Z" fill="#CB1116"/>
<path d="M19.2444 16.3202L9.0669 18.8887L15.3835 18.8887L19.2444 16.3202Z" fill="#E7EAED"/>
<path d="M19.2444 33.145L9.0669 30.5765L15.3835 30.5765L19.2444 33.145Z" fill="#CCD2D8"/>
<path d="M3.26158 33.0861L3.26158 16.3885C3.26158 15.0805 4.27945 13.9998 5.58161 13.9252L26.3169 12.7387C30.0623 12.7387 33.7116 13.9283 36.7412 16.1369L45.6773 22.6514C47.09 23.6812 47.09 25.7935 45.6773 26.8233L36.7412 33.3378C33.7116 35.5463 30.0623 36.7359 26.3169 36.7359L5.5816 35.5494C4.27945 35.4749 3.26158 34.3942 3.26158 33.0862L3.26158 33.0861Z" stroke="#2C2E30" stroke-miterlimit="10"/>
</svg>
