<svg width="50" height="50" viewBox="0 0 50 50" fill="none" xmlns="http://www.w3.org/2000/svg">
<path d="M35.1912 10.6312C35.1912 5.74397 26.5441 8.40141 26.5441 12.9323C26.5441 17.8195 35.1912 15.1519 35.1912 10.6312Z" fill="#E7EAED"/>
<path d="M27.0605 34.538C30.7057 34.2121 33.156 28.9685 33.156 25.7918C33.156 22.6558 32.0928 18.2879 28.1135 18.6544C24.4684 18.9802 22.018 24.2238 22.018 27.4005C22.018 30.5365 23.0812 34.8943 27.0605 34.538Z" fill="#E7EAED"/>
<path d="M39.8186 33.6216C39.8186 32.1249 37.1758 30.3227 37.1758 32.3794C37.1657 33.8863 39.8186 35.6783 39.8186 33.6216Z" fill="#E7EAED"/>
<path d="M26.2808 13.3497L26.2808 35.6681L16.0744 38.8245L16.0744 10.3868L26.2808 13.3497Z" fill="#6F898E"/>
<path d="M9.18908 13.2275L9.18907 35.5154L16.0744 38.8245L16.0744 10.3868L9.18908 13.2275Z" fill="#6C757D"/>
<path d="M22.6319 13.8824L22.6319 35.0096L30.55 35.0096L30.55 13.8824L22.6319 13.8824Z" fill="#5C6B73" stroke="black" stroke-width="0.1826" stroke-miterlimit="10"/>
<path d="M41.5804 26.5046L41.7323 26.5555C42.4107 26.7998 43.0486 27.1562 43.6055 27.6144L44.5674 28.3984C44.9218 28.6835 45.2255 29.0398 45.4483 29.4369C45.5597 29.6202 45.6002 29.8442 45.5799 30.058L45.5496 30.3431C45.4989 30.9031 45.2053 31.402 44.7496 31.7278L44.2636 32.074C43.8991 32.3285 43.4637 32.4507 43.0182 32.4202L40.0514 32.1758C39.6059 32.1453 39.3123 31.7074 39.4338 31.2798L40.6792 26.9729C40.7906 26.586 41.2057 26.3722 41.5804 26.5046Z" fill="#5C6B73"/>
<path d="M42.5524 28.6427L41.7221 31.6362" stroke="#8C8C8C" stroke-width="0.1826" stroke-miterlimit="10" stroke-linecap="round" stroke-linejoin="round"/>
<path d="M41.8437 29.6405L41.7424 30.3024" stroke="#8C8C8C" stroke-width="0.1826" stroke-miterlimit="10" stroke-linecap="round" stroke-linejoin="round"/>
<path d="M41.5804 22.3301L41.7323 22.2791C42.4107 22.0348 43.0486 21.6784 43.6055 21.2202L44.5674 20.4362C44.9218 20.1512 45.2255 19.7948 45.4483 19.3977C45.5597 19.2144 45.6002 18.9904 45.5799 18.7766L45.5496 18.4915C45.4989 17.9315 45.2053 17.4326 44.7496 17.1068L44.2636 16.7606C43.8991 16.5061 43.4637 16.3839 43.0182 16.4145L40.0413 16.6486C39.5958 16.6792 39.3022 17.117 39.4237 17.5446L40.6691 21.8515C40.7906 22.2588 41.2057 22.4726 41.5804 22.3301Z" fill="#5C6B73"/>
<path d="M42.5524 20.2021L41.7221 17.2086" stroke="#8C8C8C" stroke-width="0.1826" stroke-miterlimit="10" stroke-linecap="round" stroke-linejoin="round"/>
<path d="M41.8437 19.2042L41.7424 18.5424" stroke="#8C8C8C" stroke-width="0.1826" stroke-miterlimit="10" stroke-linecap="round" stroke-linejoin="round"/>
<path d="M34.7558 34.1714C34.7558 34.1714 36.4771 35.1387 37.5201 33.8456C37.5201 33.8456 38.3909 33.5503 39.2009 32.6747L40.1932 31.5649C40.1932 31.5649 41.1247 31.1576 41.3576 29.3453L41.4184 27.0646C41.4184 27.0646 41.0134 25.7817 39.5047 24.7228L38.6339 24.5497L37.1758 24.5497L37.034 27.1053C37.0037 27.6042 36.9125 28.0929 36.7607 28.5715C36.4164 29.6202 35.7481 31.6565 35.2115 33.3671L34.7558 34.1714Z" fill="white"/>
<path d="M38.6238 24.5497L38.7655 25.5271C38.968 26.9729 38.8364 28.4391 38.3909 29.8238L38.1074 30.7096C37.9555 31.178 37.8441 31.6464 37.7732 32.1351L37.5201 33.8456" stroke="#8C8C8C" stroke-width="0.1826" stroke-miterlimit="10"/>
<path d="M39.3933 29.9053L39.211 30.6587C38.9984 31.5649 38.5428 32.3998 37.8947 33.0718L37.5707 33.4078" stroke="#8C8C8C" stroke-width="0.1826" stroke-miterlimit="10" stroke-linecap="round" stroke-linejoin="round"/>
<path d="M40.1932 31.5649L40.6084 30.3838L40.6286 28.3577" stroke="#8C8C8C" stroke-width="0.1826" stroke-miterlimit="10" stroke-linecap="round" stroke-linejoin="round"/>
<path d="M34.7558 14.8872C34.7558 14.8872 36.4771 13.9199 37.5201 15.213C37.5201 15.213 38.3909 15.5083 39.2009 16.3839L40.1932 17.4937C40.1932 17.4937 41.1247 17.901 41.3576 19.7133L41.4184 21.9941C41.4184 21.9941 41.0134 23.277 39.5047 24.3359L38.6339 24.5089L37.1758 24.5089L37.034 21.9533C37.0037 21.4544 36.9125 20.9657 36.7607 20.4872C36.4164 19.4384 35.7481 17.4021 35.2115 15.6915L34.7558 14.8872Z" fill="white"/>
<path d="M37.5201 15.213L37.7732 16.9235C37.8441 17.4021 37.9555 17.8806 38.1074 18.349L38.3909 19.2348C38.8364 20.6195 38.968 22.0857 38.7655 23.5315L38.6238 24.5089" stroke="#8C8C8C" stroke-width="0.1826" stroke-miterlimit="10"/>
<path d="M39.3933 19.1533L39.211 18.3897C38.9984 17.4835 38.5428 16.6486 37.8947 15.9766L37.5707 15.6406" stroke="#8C8C8C" stroke-width="0.1826" stroke-miterlimit="10" stroke-linecap="round" stroke-linejoin="round"/>
<path d="M40.1932 17.4835L40.6084 18.6748L40.6286 20.6908" stroke="#8C8C8C" stroke-width="0.1826" stroke-miterlimit="10" stroke-linecap="round" stroke-linejoin="round"/>
<path d="M36.9429 27.93C36.9429 27.93 37.9555 27.4718 37.9352 26.6165L37.9352 24.7024C37.9352 24.2544 37.8643 23.8064 37.7124 23.3788L37.0644 21.5257L37.0644 24.5395L37.034 26.9525C37.034 27.0544 37.0239 27.1664 37.0138 27.2682L36.9429 27.93Z" fill="#6C757D"/>
<path d="M39.7882 28.0115L39.8186 26.7795C39.8388 26.1278 39.7274 25.4864 39.5148 24.8857L39.454 24.7329" stroke="#8C8C8C" stroke-width="0.1826" stroke-miterlimit="10" stroke-linecap="round" stroke-linejoin="round"/>
<path d="M39.4945 24.3257L39.8185 22.9206C39.9603 22.3199 39.9907 21.709 39.9097 21.098L39.7274 19.7031" stroke="#8C8C8C" stroke-width="0.1826" stroke-miterlimit="10" stroke-linecap="round" stroke-linejoin="round"/>
<path d="M20.8536 39.1096C20.8536 39.1096 23.0812 41.879 27.1921 41.6754C27.4756 41.6652 27.7591 41.6856 28.0325 41.7365C29.0451 41.9299 31.5967 42.3066 33.1864 41.4921C33.8243 41.1663 34.4926 40.8914 35.1811 40.6877C35.6165 40.5554 36.0316 40.3416 36.3962 40.0667L37.0543 39.5576L37.7935 38.743C38.0264 38.4885 38.158 38.1728 38.1681 37.8267C38.1884 37.0732 38.0669 35.7089 37.0442 34.7212C36.8113 34.4972 36.4468 34.4667 36.1835 34.6703C35.8696 34.9045 35.0697 34.3852 34.2293 34.5889C33.3079 34.8129 32.2245 35.495 30.817 36.2078C28.4274 37.4296 25.3088 38.6412 20.8536 39.1096Z" fill="white"/>
<path d="M38.1782 38.071C38.1782 38.071 39.2718 35.8107 37.7935 34.538C37.5707 34.3445 37.2366 34.314 36.9834 34.4667L36.7809 34.5787C36.7809 34.5889 37.996 34.9045 38.1782 38.071Z" fill="#6C757D"/>
<path d="M38.4516 37.5619L39.8793 36.2689C40.0413 36.1161 40.1628 35.9227 40.2236 35.6987C40.2641 35.5561 40.3349 35.3932 40.4868 35.2507C40.6488 35.1081 40.7602 34.9147 40.8108 34.7009C40.8817 34.4158 40.9425 34.0187 40.8615 33.5503C40.8311 33.3772 40.7096 33.2245 40.5375 33.1736C40.3856 33.1227 40.2134 33.1532 40.0818 33.2551L39.4642 33.7438C39.2819 33.8863 39.049 33.9678 38.8161 33.9576C38.7351 33.9576 38.6642 33.978 38.5934 34.0187L37.7935 34.5481C37.7935 34.538 38.8263 35.0878 38.4516 37.5619Z" fill="#5C6B73"/>
<path d="M29.9868 40.2499L31.6777 38.6208C31.9612 38.3459 32.2144 38.0303 32.4169 37.6943L33.48 34.9452" stroke="#8C8C8C" stroke-width="0.1826" stroke-miterlimit="10" stroke-linecap="round" stroke-linejoin="round"/>
<path d="M32.4472 41.1968C32.4472 41.1968 34.3913 37.9489 34.1888 34.6398" stroke="#8C8C8C" stroke-width="0.1826" stroke-miterlimit="10" stroke-linecap="round" stroke-linejoin="round"/>
<path d="M34.4217 40.3619C34.4217 40.3619 36.224 36.9714 34.9482 34.5685" stroke="#8C8C8C" stroke-width="0.1826" stroke-miterlimit="10" stroke-linecap="round" stroke-linejoin="round"/>
<path d="M36.5075 39.9648C36.5075 39.9648 37.267 38.4681 37.0239 37.4907" stroke="#8C8C8C" stroke-width="0.1826" stroke-miterlimit="10" stroke-linecap="round" stroke-linejoin="round"/>
<path d="M26.21 39.751C26.21 39.751 28.4578 38.8041 28.9033 37.1343" stroke="#8C8C8C" stroke-width="0.1826" stroke-miterlimit="10" stroke-linecap="round" stroke-linejoin="round"/>
<path d="M24.1444 41.2172C24.1444 41.2172 26.5644 40.8201 27.8604 40.0463C28.0022 39.9648 28.1743 39.9547 28.3262 40.0259L28.4983 40.1074C28.5692 40.1379 28.63 40.1888 28.6806 40.2601L28.8932 40.5452C29.0755 40.7997 28.9742 41.1561 28.6907 41.2681L27.6073 41.6448" fill="#5C6B73"/>
<path d="M20.8536 9.91849C20.8536 9.91849 23.0812 7.14906 27.1921 7.35269C27.4756 7.36287 27.7591 7.34251 28.0325 7.2916C29.0451 7.09815 31.5967 6.72142 33.1864 7.53596C33.8243 7.86178 34.4926 8.13669 35.1811 8.34032C35.6165 8.47269 36.0316 8.6865 36.3961 8.96141L37.0543 9.4705L37.7935 10.285C38.0263 10.5396 38.158 10.8552 38.1681 11.2014C38.1883 11.9548 38.0668 13.3192 37.0442 14.3068C36.8113 14.5308 36.4468 14.5614 36.1835 14.3577C35.8696 14.1236 35.0697 14.6428 34.2293 14.4392C33.3079 14.2152 32.2245 13.533 30.817 12.8203C28.4274 11.5985 25.3088 10.3869 20.8536 9.91849Z" fill="white"/>
<path d="M38.1782 10.957C38.1782 10.957 39.2718 13.2174 37.7935 14.4901C37.5707 14.6835 37.2467 14.7141 36.9834 14.5614L36.7809 14.4392C36.7809 14.4392 37.996 14.1235 38.1782 10.957Z" fill="#6C757D"/>
<path d="M38.4516 11.4661L39.8793 12.7592C40.0413 12.9119 40.1628 13.1156 40.2236 13.3294C40.2641 13.4719 40.3349 13.6348 40.4868 13.7774C40.6488 13.9199 40.7602 14.1134 40.8108 14.3272C40.8817 14.6123 40.9425 15.0094 40.8615 15.4777C40.8311 15.661 40.6995 15.8035 40.5374 15.8646C40.3754 15.9155 40.2033 15.885 40.0818 15.7832L39.454 15.2945C39.2718 15.1417 39.049 15.0705 38.8161 15.0705C38.7351 15.0705 38.6642 15.0501 38.5934 15.0094L37.7934 14.4901C37.7934 14.4901 38.8262 13.9403 38.4516 11.4661Z" fill="#5C6B73"/>
<path d="M29.9867 8.77812L31.6777 10.4072C31.9612 10.6821 32.2143 10.9977 32.4169 11.3337L33.48 14.0828" stroke="#8C8C8C" stroke-width="0.1826" stroke-miterlimit="10" stroke-linecap="round" stroke-linejoin="round"/>
<path d="M32.4472 7.83123C32.4472 7.83123 34.3913 11.0792 34.1888 14.3883" stroke="#8C8C8C" stroke-width="0.1826" stroke-miterlimit="10" stroke-linecap="round" stroke-linejoin="round"/>
<path d="M34.4217 8.66613C34.4217 8.66613 36.224 12.0567 34.9482 14.4595" stroke="#8C8C8C" stroke-width="0.1826" stroke-miterlimit="10" stroke-linecap="round" stroke-linejoin="round"/>
<path d="M36.5075 9.06321C36.5075 9.06321 37.2669 10.5599 37.0239 11.5374" stroke="#8C8C8C" stroke-width="0.1826" stroke-miterlimit="10" stroke-linecap="round" stroke-linejoin="round"/>
<path d="M26.2099 9.27704C26.2099 9.27704 28.4578 10.2239 28.9033 11.8937" stroke="#8C8C8C" stroke-width="0.1826" stroke-miterlimit="10" stroke-linecap="round" stroke-linejoin="round"/>
<path d="M19.8917 10.5396L17.3502 13.7672C17.1983 13.9606 17.2894 14.2457 17.5324 14.3068L26.9896 16.8828C27.9819 17.1577 28.6907 18.0435 28.7211 19.0821L28.8628 24.5191L28.721 29.9562C28.6907 30.9947 27.9819 31.8805 26.9896 32.1554L17.6236 34.7009C17.34 34.7721 17.2287 35.1183 17.4109 35.3423L19.8917 38.4987C20.2258 38.9263 20.7726 39.1198 21.289 38.9976L24.2456 38.3154C26.5745 37.7859 28.8324 36.951 30.9588 35.8412L33.2674 34.6398C33.8445 34.3343 34.2799 33.8252 34.4824 33.2042L36.0012 28.6529C36.1531 28.2049 36.2341 27.7366 36.2544 27.2682L36.305 24.5293L36.305 24.5191L36.305 24.5089L36.2544 21.77C36.2341 21.3017 36.1531 20.8333 36.0012 20.3853L34.4824 15.8341C34.2799 15.213 33.8344 14.7039 33.2674 14.3985L30.9588 13.197C28.8324 12.0872 26.5846 11.2523 24.2456 10.7228L21.289 10.0407C20.7624 9.92867 20.2258 10.1221 19.8917 10.5396Z" fill="#B8D5F1"/>
<path d="M20.6511 10.4887L18.1096 13.7163C17.9577 13.9097 18.0488 14.1948 18.2919 14.2559L27.749 16.8319C28.7413 17.1068 29.4501 17.9926 29.4805 19.0312L29.6222 24.4682L29.4805 29.9053C29.4501 30.9438 28.7413 31.8296 27.749 32.1045L18.383 34.65C18.0995 34.7212 17.9881 35.0674 18.1704 35.2914L20.6511 38.4478C20.9852 38.8754 21.532 39.0688 22.0484 38.9467L25.005 38.2645C27.3339 37.735 29.5919 36.9001 31.7182 35.7903L34.0268 34.5889C34.604 34.2834 35.0394 33.7743 35.2419 33.1532L36.7607 28.602C36.9126 28.154 36.9936 27.6856 37.0138 27.2173L37.0644 24.4784L37.0644 24.4682L37.0644 24.458L37.0138 21.7191C36.9936 21.2508 36.9126 20.7824 36.7607 20.3344L35.2419 15.7832C35.0394 15.1621 34.5938 14.653 34.0268 14.3475L31.7182 13.1461C29.5919 12.0363 27.344 11.2014 25.005 10.6719L22.0484 9.98976C21.5219 9.86758 20.9751 10.061 20.6511 10.4887Z" fill="#ED2A2F"/>
<path d="M17.0464 12.4945L18.0083 11.8123C18.5652 11.6188 19.1728 11.629 19.7195 11.8327L22.8888 13.0239C23.5065 13.2581 24.0127 13.7265 24.2962 14.3272L25.4404 16.7606C25.4404 16.7708 22.3218 12.8814 17.0464 12.4945Z" fill="#6C757D"/>
<path d="M17.0464 36.4521L18.0083 37.1343C18.5652 37.3278 19.1728 37.3176 19.7195 37.1139L22.8888 35.9227C23.5065 35.6885 24.0127 35.2201 24.2962 34.6194L25.4404 32.1758C25.4404 32.1758 22.3218 36.0652 17.0464 36.4521Z" fill="#6C757D"/>
<path d="M3.01253 24.4275C3.01253 31.0685 8.36638 36.4521 14.9707 36.4521C21.575 36.4521 26.9288 31.0685 26.9288 24.4275C26.9288 17.7865 21.575 12.4028 14.9707 12.4028C8.36638 12.4028 3.01253 17.7864 3.01253 24.4275Z" fill="#6F898E"/>
<path d="M4.29848 24.4886C4.29848 31.1296 9.65233 36.5132 16.2566 36.5132C22.8609 36.5132 28.2148 31.1296 28.2148 24.4886C28.2148 17.8475 22.8609 12.4639 16.2566 12.4639C9.65233 12.4639 4.29848 17.8475 4.29848 24.4886Z" fill="white"/>
<path d="M7.7715 32.0027C6.96146 32.0027 6.57669 33.0209 7.19435 33.5503C9.28019 35.3525 12.0039 36.4419 14.9707 36.4419C17.9374 36.4419 20.6511 35.3525 22.747 33.5503C23.3647 33.0209 22.99 32.0027 22.1699 32.0027L7.7715 32.0027Z" fill="#ED2A2F"/>
<path d="M7.97401 16.7504C7.08297 16.7504 6.67796 15.6203 7.36649 15.0501C9.43208 13.3395 12.0748 12.3112 14.9707 12.3112C17.8565 12.3112 20.5093 13.3395 22.5749 15.0501C23.2634 15.6203 22.8584 16.7504 21.9674 16.7504L7.97401 16.7504Z" fill="#ED2A2F"/>
<path d="M23.6786 33.9067C26.4428 31.7074 28.2148 28.3067 28.2148 24.4886C28.2148 20.6602 26.4327 17.2392 23.6583 15.0399C20.8536 15.9155 18.7475 19.805 18.7475 24.4682C18.7374 29.1518 20.8637 33.0514 23.6786 33.9067Z" fill="white"/>
<path d="M23.2634 33.6012C23.6583 33.8252 24.1545 33.754 24.4886 33.4383C26.7972 31.2391 28.2452 28.042 28.2452 24.4784C28.2452 20.9046 26.7871 17.6973 24.4684 15.4981C24.1342 15.1824 23.6381 15.1214 23.2432 15.3454C20.965 16.6283 19.3145 20.2224 19.3145 24.458C19.3145 28.7242 20.9751 32.3387 23.2634 33.6012Z" fill="#383735"/>
<path d="M34.7153 20.4872L34.7153 28.9176L30.8575 30.1089L30.8575 19.3672L34.7153 20.4872Z" fill="#B8D5F1"/>
<path d="M29.5311 19.8966L29.5311 29.5082L30.8575 30.1089L30.8575 19.3672L29.5311 19.8966Z" fill="#6C757D"/>
<path d="M37.0745 21.7293L37.0745 27.6958L34.3407 28.5409L34.3407 20.9352L37.0745 21.7293Z" fill="#93ABBC"/>
<path d="M33.399 21.3017L33.399 28.1133L34.3407 28.5409L34.3407 20.9352L33.399 21.3017Z" fill="#6C757D"/>
<path d="M22.7765 28.3428L22.7765 28.9924C22.7765 30.0686 23.6489 30.941 24.7251 30.941C25.8013 30.941 26.6738 30.0686 26.6738 28.9924L26.6738 28.3428C26.6738 27.2666 25.8013 26.3941 24.7251 26.3941C23.6489 26.3941 22.7765 27.2666 22.7765 28.3428Z" fill="white"/>
<path d="M21.735 25.0486L21.735 25.385C21.735 25.9424 22.1868 26.3941 22.7441 26.3941C23.3014 26.3941 23.7533 25.9424 23.7533 25.385L23.7533 25.0486C23.7533 24.4913 23.3014 24.0395 22.7441 24.0395C22.1868 24.0395 21.735 24.4913 21.735 25.0486Z" fill="white"/>
<path d="M45.5901 29.9462C45.5901 29.9768 45.5901 30.0175 45.5901 30.048L45.5597 30.3331C45.5091 30.8931 45.2154 31.392 44.7598 31.7178L44.2737 32.064C43.9092 32.3186 43.4738 32.4407 43.0283 32.4102L40.0514 32.176C39.9401 32.1658 39.8287 32.1251 39.7375 32.0742L39.3832 32.4713C39.6059 32.7767 39.7679 33.1229 39.8084 33.4589L40.0818 33.2451C40.2134 33.1433 40.3856 33.1127 40.5375 33.1637C40.7096 33.2247 40.8311 33.3673 40.8615 33.5404C40.8918 33.7033 40.902 33.856 40.902 34.0087C40.902 34.2836 40.8615 34.5178 40.8108 34.6909C40.7602 34.9047 40.6488 35.0982 40.4868 35.2407C40.3349 35.3833 40.2539 35.5462 40.2236 35.6887C40.1628 35.9025 40.0514 36.1062 39.8793 36.2589L38.4516 37.552C38.4516 37.5418 38.4516 37.5418 38.4516 37.5418C38.4516 37.44 38.0162 38.4887 37.7935 38.7331L37.0543 39.5476L36.3961 40.0567C36.0316 40.3418 35.6266 40.5556 35.1811 40.6778C35.1001 40.6982 35.0191 40.7389 34.9381 40.7694C34.0268 40.9527 33.3686 41.6552 32.2143 41.8181C31.1107 41.9811 30.331 42.0727 29.1058 41.8894C28.6806 41.8385 28.3059 41.7774 28.0427 41.7265C27.7693 41.6756 27.4858 41.6552 27.2022 41.6654C23.0913 41.8691 20.8637 39.0996 20.8637 39.0996L19.8917 38.4989L19.3449 37.8065L16.0744 38.8145L9.19919 35.5055L9.19919 34.9353C9.16881 34.9149 9.12831 34.8946 9.09793 34.8742C8.91568 34.7724 8.73342 34.6502 8.55116 34.5382C8.41953 34.4567 8.29803 34.3753 8.1664 34.2836C7.98414 34.1615 7.812 34.0189 7.63987 33.8866C7.52849 33.7949 7.40699 33.7135 7.29561 33.6218C7.26523 33.6015 7.23485 33.5709 7.20448 33.5506C7.18423 33.5302 7.1741 33.52 7.16397 33.4997C4.63261 31.3004 3.02267 28.0524 3.02267 24.4175C3.02267 20.7928 4.62249 17.555 7.1336 15.3558C7.19435 15.2438 7.26523 15.1318 7.37661 15.0503C7.94363 14.582 8.55116 14.1645 9.19919 13.8081L9.19919 13.2176L16.0744 10.3871L19.2841 11.3136L19.8917 10.5398L20.8637 9.91871C20.8637 9.91871 23.0913 7.14927 27.2022 7.35291C27.4858 7.36309 27.7693 7.34273 28.0427 7.29182C29.0552 7.09836 31.6068 6.72164 33.1965 7.53618C33.8344 7.862 34.5027 8.1369 35.1912 8.34054C35.6266 8.4729 36.0418 8.68672 36.4063 8.96163L37.0644 9.47071L37.7935 10.2853C38.0162 10.5296 38.239 11.2932 38.2491 11.2118L38.4516 11.4663L39.8793 12.7594C40.0413 12.9121 40.1628 13.1056 40.2236 13.3296C40.2641 13.4721 40.335 13.6351 40.4868 13.7776C40.6488 13.9201 40.7602 14.1136 40.8108 14.3274C40.8615 14.5107 40.902 14.7449 40.902 15.0096C40.902 15.1521 40.8918 15.315 40.8615 15.4779C40.8311 15.651 40.6995 15.7936 40.5375 15.8547C40.3856 15.9056 40.2134 15.875 40.0818 15.7732L39.454 15.2845C39.2718 15.1419 39.049 15.0605 38.8161 15.0707C38.7351 15.0707 38.6643 15.0503 38.5934 15.0096L37.7935 14.4801C37.5707 14.6736 37.2366 14.7041 36.9834 14.5514L36.8113 14.4496C36.6088 14.5209 36.3759 14.5005 36.1835 14.358C35.8696 14.1238 35.0697 14.643 34.2293 14.4394C34.2293 14.4598 34.7558 14.8772 34.7558 14.8772C34.7558 14.8772 36.4772 13.91 37.5201 15.203C37.5201 15.203 38.3909 15.4983 39.2009 16.3739L39.6363 16.8627C39.7477 16.7608 39.8793 16.6794 40.0514 16.659L43.0283 16.4249C43.4738 16.3943 43.9092 16.5165 44.2738 16.771L44.7598 17.1172C45.2154 17.443 45.5091 17.9419 45.5597 18.5019L45.5901 18.787C45.5901 18.8176 45.5901 18.8583 45.5901 18.8888C45.5901 19.0721 45.5394 19.2452 45.4483 19.4081C45.2154 19.8052 44.9218 20.1514 44.5674 20.4466L43.6055 21.2306C43.0486 21.6888 42.4107 22.0452 41.7323 22.2895L41.5804 22.3405C41.469 22.3812 41.3576 22.3812 41.2462 22.3608C41.0134 22.819 40.5071 23.6234 39.4945 24.3259L38.6237 24.499L37.9251 24.499C37.9251 24.5193 37.9251 24.5295 37.9251 24.5499L38.6237 24.5499L39.4945 24.723C40.3856 25.3441 40.8817 26.0364 41.1551 26.5048C41.2969 26.4641 41.4386 26.4539 41.5804 26.5048L41.7323 26.5557C42.4107 26.8001 43.0486 27.1564 43.6055 27.6146L44.5674 28.3986C44.9218 28.6837 45.2255 29.04 45.4483 29.4371C45.5394 29.5899 45.5901 29.7629 45.5901 29.9462ZM46.6026 29.9462C46.6026 29.5797 46.5013 29.2233 46.3191 28.9179C46.0356 28.4088 45.6508 27.971 45.2053 27.6044L44.2434 26.8204C43.5953 26.291 42.8562 25.8735 42.0664 25.5986L41.9145 25.5477C41.8436 25.5273 41.7728 25.507 41.6918 25.4866C41.4791 25.1913 41.2057 24.8553 40.8513 24.5295C41.2969 24.1121 41.631 23.6844 41.8639 23.3077C41.874 23.3077 41.8943 23.2975 41.9044 23.2975L42.0563 23.2466C42.8461 22.9615 43.5751 22.5543 44.2332 22.0248L45.1952 21.2408C45.6407 20.8743 46.0255 20.4365 46.3191 19.9274C46.5013 19.6016 46.6026 19.2452 46.6026 18.8888C46.6026 18.8176 46.6026 18.7565 46.5925 18.6852L46.5621 18.4001C46.4811 17.5448 46.0356 16.7812 45.3369 16.2823L44.8509 15.9361C44.294 15.5492 43.6156 15.3558 42.9473 15.4169L41.8841 15.4983C41.9044 15.3354 41.9145 15.1725 41.9145 15.0096C41.9145 14.694 41.874 14.3681 41.793 14.0627C41.6918 13.6554 41.469 13.2991 41.1754 13.014C41.0944 12.6372 40.8716 12.2707 40.5577 11.9958L39.1806 10.7536L39.1098 10.662C38.9579 10.2751 38.7959 9.87798 38.5427 9.60308L37.7935 8.77835L37.7428 8.71726L37.672 8.66635L37.0138 8.15727C36.548 7.79072 36.0316 7.526 35.4646 7.35291C34.8672 7.17982 34.2597 6.92527 33.642 6.60964C31.8397 5.69328 29.2375 6.00892 27.8401 6.28382C27.6376 6.32455 27.4351 6.33473 27.2326 6.32455C23.1622 6.12092 20.7321 8.51363 20.1752 9.12453L19.3246 9.67435L19.1829 9.76598L19.0816 9.89835L18.8892 10.1427L16.3376 9.39944L16.0035 9.29762L15.6795 9.42999L8.8043 12.2707L8.17652 12.5252L8.17652 13.2074C7.66012 13.5231 7.16398 13.8794 6.71846 14.246C6.56657 14.3681 6.43494 14.5209 6.33369 14.6838C3.57957 17.1579 2 20.691 2 24.3972C2 28.144 3.60994 31.7077 6.42482 34.192C6.4552 34.2226 6.4957 34.2633 6.5362 34.304C6.56657 34.3346 6.59695 34.3549 6.63745 34.3855C6.72858 34.4567 6.81971 34.528 6.91084 34.5993L7.0121 34.6706C7.20448 34.8233 7.38674 34.9658 7.58924 35.1084C7.71075 35.1898 7.82213 35.2713 7.94363 35.3425L8.00439 35.3833C8.06514 35.424 8.1259 35.4647 8.18665 35.5055L8.18665 36.1367L8.7638 36.4116L15.639 39.7207L15.9934 39.8938L16.368 39.7818L18.9702 38.9774L19.0918 39.1302L19.2031 39.2727L19.355 39.3643L20.1954 39.8836C20.7625 40.5149 23.1926 42.877 27.2427 42.6734C27.4351 42.6632 27.6376 42.6734 27.8401 42.7141C28.0933 42.765 28.4882 42.8261 28.9742 42.8872C30.2905 43.0909 31.1613 42.989 32.346 42.816C33.1459 42.6938 33.7534 42.3781 34.2394 42.1236C34.5634 41.9505 34.847 41.808 35.1203 41.7469L35.1811 41.7367L35.2317 41.7163C35.2823 41.696 35.333 41.6858 35.3836 41.6654C35.4039 41.6552 35.4342 41.6451 35.4545 41.6349C36.0215 41.472 36.5379 41.1971 37.0037 40.8407L37.6618 40.3316L37.7327 40.2807L37.7935 40.24L38.5326 39.4254C38.7453 39.1913 38.9275 38.8247 39.1705 38.3156C39.1908 38.2851 39.2009 38.2545 39.211 38.224L40.5375 37.0225C40.8412 36.7476 41.064 36.3709 41.1754 35.9636C41.4487 35.7295 41.6614 35.3629 41.7728 34.9556C41.8538 34.6502 41.8943 34.3346 41.8943 34.0087C41.8943 33.7949 41.874 33.5811 41.8436 33.3775C41.8436 33.3673 41.8436 33.3571 41.8335 33.3367L42.9271 33.4182C43.6055 33.4691 44.2737 33.2858 44.8306 32.8989L45.3167 32.5527C46.0153 32.064 46.4608 31.2902 46.5419 30.4349L46.5722 30.1499C46.6026 30.0786 46.6026 30.0175 46.6026 29.9462Z" fill="black"/>
</svg>
