<svg width="45" height="45" viewBox="0 0 45 45" fill="none" xmlns="http://www.w3.org/2000/svg">
<path d="M22.765 41.0165C25.3156 41.0165 27.3833 39.8036 27.3833 38.3075C27.3833 36.8113 25.3156 35.5985 22.765 35.5985C20.2144 35.5985 18.1467 36.8113 18.1467 38.3075C18.1467 39.8036 20.2144 41.0165 22.765 41.0165Z" fill="#9BB3D5"/>
<path d="M23.2447 38.3075H22.1351C21.5254 38.3075 21.0255 37.8076 21.0255 37.1979V22.9731C21.0255 22.9731 19.2262 18.6448 16.4772 18.6448C13.7283 18.6448 10.3395 18.6448 9 14.0964H11.0193C11.0193 14.0964 11.0992 16.4356 15.2977 16.4356C19.4961 16.4356 21.3554 19.5044 21.3554 19.5044V13.1268C21.3554 13.1268 16.0274 14.5763 15.7075 8.28859H18.0466C18.0466 8.28859 17.3969 11.1975 21.2754 11.0376C21.2754 11.0376 21.0355 4.89985 27.1633 4.5V7.15901C27.1633 7.15901 24.5442 6.6592 24.4043 9.23824C24.2643 11.8173 24.4043 18.7347 24.4043 18.7347C24.4043 18.7347 25.5539 17.6351 29.2225 17.6351C32.9011 17.6351 33.6609 14.8162 33.6609 14.8162H36C36 14.8162 35.2803 19.9243 29.9422 19.8743C24.5942 19.8243 24.5942 21.8736 24.5942 23.5929C24.5942 25.0024 24.4243 34.069 24.3643 37.2279C24.3443 37.8376 23.8545 38.3075 23.2447 38.3075Z" fill="#6C492A"/>
</svg>
