<svg width="45" height="45" viewBox="0 0 45 45" fill="none" xmlns="http://www.w3.org/2000/svg">
<path d="M29.4727 16.8633C29.475 17.2447 29.3829 17.6205 29.2048 17.9558C29.0316 18.2768 28.7856 18.5511 28.4875 18.7556L28.2579 18.8923L8.88932 30.3536C8.51864 30.6157 8.07794 30.7553 7.62683 30.7534C7.03578 30.7534 6.46891 30.514 6.05096 30.0878C5.63302 29.6616 5.39824 29.0835 5.39824 28.4808C5.39832 28.0402 5.52283 27.6091 5.75692 27.2389C5.991 26.8687 6.32475 26.5751 6.71817 26.3933L25.9815 14.9905C26.2259 14.8187 26.5017 14.6984 26.7923 14.6368C27.083 14.5751 27.3828 14.5733 27.6742 14.6315C27.9655 14.6896 28.2425 14.8066 28.489 14.9755C28.7354 15.1443 28.9462 15.3616 29.1091 15.6148C29.3461 15.9863 29.4724 16.42 29.4727 16.8633Z" fill="#C3DD83"/>
<path d="M27.684 16.4635C27.6806 16.8453 27.5854 17.2205 27.4066 17.5559C27.2333 17.8771 26.9874 18.1512 26.6892 18.3559L26.4596 18.4827L7.0911 29.944C6.72041 30.2062 6.2797 30.3458 5.82861 30.3439C5.53594 30.3439 5.24613 30.2851 4.97576 30.1709C4.70537 30.0567 4.45968 29.8893 4.25274 29.6782C4.0458 29.4672 3.88165 29.2166 3.76966 28.9409C3.65766 28.6651 3.60001 28.3696 3.60001 28.0711C3.5994 27.4975 3.81516 26.9457 4.20259 26.5299C4.40654 26.3025 4.65392 26.1199 4.92951 25.9934L24.1833 14.5809C24.5574 14.3272 24.9965 14.1915 25.4458 14.1908C25.8159 14.1885 26.1807 14.2811 26.5066 14.46C26.8325 14.639 27.1091 14.8986 27.311 15.215C27.5576 15.5823 27.6879 16.0182 27.684 16.4635Z" fill="#8C4737"/>
<path d="M27.3493 15.215C27.2321 15.344 27.1004 15.4586 26.9571 15.5563L26.7276 15.6929L7.35899 27.1542C6.98563 27.4096 6.546 27.5455 6.09644 27.5444C6.01393 27.7055 5.89269 27.8426 5.74401 27.9428C5.59533 28.043 5.42411 28.103 5.24645 28.1174C5.06878 28.1316 4.89045 28.0995 4.72822 28.0243C4.56601 27.9491 4.4252 27.833 4.31899 27.6871C4.21278 27.5412 4.14466 27.3701 4.12103 27.1899C4.09739 27.0098 4.11905 26.8265 4.1839 26.6572C4.24876 26.4879 4.35468 26.3381 4.49179 26.2221C4.62891 26.106 4.79272 26.0273 4.96781 25.9934L24.2216 14.5809C24.5957 14.3272 25.0349 14.1915 25.4841 14.1908C25.8543 14.1885 26.219 14.2811 26.5449 14.46C26.8708 14.639 27.1474 14.8986 27.3493 15.215Z" fill="#A75542"/>
<path d="M5.8668 29.8463C6.82821 29.8463 7.60758 29.0515 7.60758 28.0711C7.60758 27.0906 6.82821 26.2957 5.8668 26.2957C4.9054 26.2957 4.12602 27.0906 4.12602 28.0711C4.12602 29.0515 4.9054 29.8463 5.8668 29.8463Z" fill="#FFD386"/>
<path d="M5.86672 28.9197C6.3263 28.9197 6.69885 28.5398 6.69885 28.0711C6.69885 27.6024 6.3263 27.2225 5.86672 27.2225C5.40716 27.2225 5.03459 27.6024 5.03459 28.0711C5.03459 28.5398 5.40716 28.9197 5.86672 28.9197Z" fill="#E8BF7E"/>
<path d="M33.4229 18.6192C33.4267 19.002 33.331 19.379 33.1456 19.7117C32.9747 20.0345 32.7283 20.3093 32.4282 20.5115C32.3607 20.5662 32.2868 20.6121 32.2081 20.6482L12.8396 32.1094C12.5837 32.2768 12.297 32.3889 11.997 32.4391C11.6969 32.4892 11.3901 32.4762 11.0953 32.4009C10.8004 32.3256 10.5237 32.1896 10.2822 32.0011C10.0408 31.8128 9.83979 31.576 9.69138 31.3053C9.54306 31.0348 9.45054 30.7361 9.41958 30.4277C9.38862 30.1193 9.41994 29.8077 9.51147 29.5121C9.60291 29.2164 9.75276 28.943 9.95175 28.7087C10.1507 28.4743 10.3946 28.2839 10.6684 28.1492L29.9317 16.7464C30.2671 16.5153 30.6577 16.3813 31.0618 16.3586C31.466 16.3359 31.8685 16.4254 32.2267 16.6176C32.5849 16.8098 32.8854 17.0974 33.0961 17.4498C33.3067 17.8023 33.4196 18.2065 33.4229 18.6192Z" fill="#C3DD83"/>
<path d="M31.6917 18.229C31.6929 18.6102 31.6008 18.9857 31.4239 19.3215C31.2497 19.645 31.0001 19.9197 30.6969 20.1213L30.477 20.2579L11.1083 31.7094C10.7728 31.9459 10.3804 32.0842 9.97335 32.1097C9.56628 32.1351 9.16011 32.0467 8.79876 31.854C8.4374 31.6611 8.13463 31.3713 7.92303 31.0158C7.71142 30.6603 7.59907 30.2525 7.59815 29.8366C7.59753 29.263 7.8133 28.7112 8.20073 28.2955C8.40469 28.068 8.65205 27.8854 8.92766 27.759L28.191 16.3561C28.5617 16.094 29.0024 15.9544 29.4535 15.9562C29.7465 15.9549 30.037 16.0128 30.3079 16.1266C30.5789 16.2403 30.825 16.4077 31.0322 16.619C31.2394 16.8304 31.4034 17.0814 31.515 17.3577C31.6265 17.6341 31.6833 17.9302 31.6821 18.229H31.6917Z" fill="#8C4737"/>
<path d="M31.3282 16.9804C31.2055 17.1074 31.071 17.2217 30.9264 17.3219L30.7065 17.4584L11.3379 28.9197C10.9646 29.1764 10.5256 29.3154 10.0754 29.3197C9.99279 29.4829 9.87075 29.6221 9.72081 29.7241C9.57087 29.8261 9.39798 29.8875 9.21843 29.9024C9.03879 29.9174 8.8584 29.8856 8.69421 29.8098C8.53003 29.734 8.38745 29.6169 8.27991 29.4695C8.17236 29.322 8.10339 29.149 8.0795 28.9669C8.05559 28.7848 8.07755 28.5994 8.1433 28.4283C8.20905 28.2572 8.31638 28.1059 8.45527 27.9888C8.59416 27.8717 8.76004 27.7926 8.93719 27.759L28.2005 16.3562C28.5712 16.094 29.0119 15.9544 29.463 15.9562C29.833 15.9548 30.1974 16.0478 30.5232 16.2267C30.8489 16.4056 31.1257 16.6647 31.3282 16.9804Z" fill="#A75542"/>
<path d="M9.84563 31.6119C10.807 31.6119 11.5864 30.817 11.5864 29.8365C11.5864 28.8561 10.807 28.0613 9.84563 28.0613C8.8842 28.0613 8.10483 28.8561 8.10483 29.8365C8.10483 30.817 8.8842 31.6119 9.84563 31.6119Z" fill="#FFD386"/>
<path d="M9.84574 30.6853C10.3054 30.6853 10.6779 30.3054 10.6779 29.8367C10.6779 29.368 10.3054 28.9881 9.84574 28.9881C9.3862 28.9881 9.0136 29.368 9.0136 29.8367C9.0136 30.3054 9.3862 30.6853 9.84574 30.6853Z" fill="#E8BF7E"/>
<path d="M37.4208 20.3846C37.4233 20.766 37.3312 21.1418 37.1531 21.4771C36.9816 21.8026 36.7313 22.0779 36.4262 22.277C36.3586 22.3315 36.2847 22.3774 36.2061 22.4135L16.8376 33.8748C16.4669 34.137 16.0261 34.2766 15.575 34.2748C15.0612 34.2818 14.5607 34.1084 14.1574 33.7835C13.7542 33.4587 13.4728 33.0022 13.3606 32.4908C13.2485 31.9793 13.3123 31.4441 13.5413 30.975C13.7704 30.5059 14.1508 30.1315 14.6186 29.9146L33.8819 18.5118C34.2531 18.2507 34.6935 18.1112 35.1444 18.1119C35.4374 18.1106 35.7278 18.1685 35.9987 18.2822C36.2697 18.396 36.5159 18.5634 36.7231 18.7746C36.9302 18.9859 37.0944 19.237 37.2059 19.5133C37.3175 19.7896 37.3743 20.0857 37.373 20.3846H37.4208Z" fill="#C3DD83"/>
<path d="M35.6611 19.9945C35.667 20.3658 35.5827 20.7329 35.4158 21.0631C35.2489 21.3933 35.0047 21.6762 34.7046 21.8868L34.475 22.0234L15.0778 33.4456C14.7072 33.7078 14.2663 33.8475 13.8153 33.8456C13.2242 33.8456 12.6573 33.6062 12.2394 33.1799C11.8215 32.7537 11.5867 32.1756 11.5867 31.5728C11.5825 31.0004 11.7949 30.4484 12.1797 30.0317C12.3889 29.8061 12.6391 29.624 12.9162 29.4952L32.17 18.0924C32.5046 17.8578 32.8957 17.7209 33.3011 17.6964C33.7064 17.672 34.1106 17.761 34.47 17.9538C34.8294 18.1466 35.1303 18.4359 35.3402 18.7904C35.5501 19.1449 35.6611 19.5511 35.6611 19.9652V19.9945Z" fill="#8C4737"/>
<path d="M35.3358 18.7459C35.2186 18.875 35.087 18.9896 34.9437 19.0873L34.7141 19.2239L15.3455 30.6852C15.1011 30.857 14.8254 30.9773 14.5347 31.0389C14.2441 31.1006 13.9442 31.1024 13.6529 31.0442C13.3616 30.986 13.0846 30.8691 12.8381 30.7003C12.5917 30.5314 12.3809 30.314 12.2179 30.0609C12.4272 29.8354 12.6772 29.6532 12.9543 29.5244L32.2081 18.1217C32.4526 17.9499 32.7282 17.8295 33.0189 17.7679C33.3096 17.7062 33.6094 17.7044 33.9008 17.7626C34.1922 17.8207 34.4692 17.9377 34.7156 18.1066C34.962 18.2754 35.1729 18.4928 35.3358 18.7459Z" fill="#A75542"/>
<path d="M13.8152 33.3872C14.7766 33.3872 15.556 32.5924 15.556 31.612C15.556 30.6315 14.7766 29.8367 13.8152 29.8367C12.8538 29.8367 12.0744 30.6315 12.0744 31.612C12.0744 32.5924 12.8538 33.3872 13.8152 33.3872Z" fill="#FFD386"/>
<path d="M13.8151 32.4605C14.2747 32.4605 14.6472 32.0806 14.6472 31.6119C14.6472 31.1432 14.2747 30.7633 13.8151 30.7633C13.3556 30.7633 12.983 31.1432 12.983 31.6119C12.983 32.0806 13.3556 32.4605 13.8151 32.4605Z" fill="#E8BF7E"/>
<path d="M41.3998 22.1502C41.4037 22.5329 41.3079 22.91 41.1224 23.2427C40.9517 23.5656 40.7052 23.8403 40.4051 24.0425C40.3362 24.0951 40.2625 24.1408 40.1851 24.1791L20.8166 35.6404C20.5607 35.8078 20.2739 35.9199 19.9739 35.97C19.6739 36.0202 19.367 36.0072 19.0722 35.9319C18.7772 35.8565 18.5006 35.7206 18.2592 35.5322C18.0177 35.3437 17.8168 35.1069 17.6684 34.8364C17.52 34.5658 17.4275 34.267 17.3966 33.9587C17.3656 33.6503 17.3968 33.3387 17.4884 33.0431C17.5799 32.7474 17.7297 32.474 17.9287 32.2396C18.1277 32.0053 18.3715 31.8148 18.6454 31.6802L37.8991 20.2774C38.1436 20.1056 38.4193 19.9853 38.71 19.9237C39.0006 19.862 39.3004 19.8602 39.5917 19.9184C39.8831 19.9765 40.1602 20.0935 40.4066 20.2623C40.653 20.4312 40.8639 20.6485 41.0269 20.9017C41.2713 21.2702 41.4014 21.7053 41.3998 22.1502Z" fill="#C3DD83"/>
<path d="M39.6399 21.7406C39.6411 22.1218 39.5491 22.4973 39.372 22.8331C39.1924 23.1524 38.9438 23.4259 38.6452 23.6329L38.4251 23.7694L19.0758 35.2406C18.7403 35.4743 18.3488 35.6105 17.9432 35.6346C17.5377 35.6586 17.1332 35.5696 16.7734 35.3772C16.4137 35.1847 16.1121 34.896 15.9009 34.542C15.6899 34.1879 15.5772 33.782 15.5751 33.3678C15.5745 32.7942 15.7902 32.2423 16.1776 31.8265C16.3816 31.5991 16.6289 31.4166 16.9045 31.29L36.1679 19.8873C36.5386 19.6251 36.9794 19.4854 37.4305 19.4873C38.0156 19.4899 38.5762 19.7281 38.99 20.1501C39.4038 20.5721 39.6374 21.1438 39.6399 21.7406Z" fill="#8C4737"/>
<path d="M39.2764 20.5115C39.1538 20.6384 39.0192 20.7527 38.8747 20.8529L38.6546 20.9894L19.2861 32.4703C19.3936 32.8144 19.4001 33.183 19.3049 33.5309C19.2097 33.8786 19.017 34.1906 18.7503 34.4282C18.4837 34.6658 18.1548 34.8188 17.8041 34.8684C17.4533 34.918 17.096 34.8619 16.776 34.7072C16.456 34.5525 16.1873 34.3059 16.003 33.9976C15.8186 33.6893 15.7266 33.3328 15.7382 32.9718C15.7498 32.6109 15.8647 32.2613 16.0684 31.9659C16.2723 31.6706 16.5562 31.4425 16.8854 31.3096L36.1488 19.9067C36.5194 19.6446 36.9602 19.505 37.4113 19.5068C37.779 19.5059 38.1414 19.5971 38.4666 19.7722C38.7918 19.9473 39.0698 20.2012 39.2764 20.5115Z" fill="#A75542"/>
<path d="M17.7845 35.1527C18.7459 35.1527 19.5253 34.358 19.5253 33.3775C19.5253 32.397 18.7459 31.6021 17.7845 31.6021C16.8232 31.6021 16.0438 32.397 16.0438 33.3775C16.0438 34.358 16.8232 35.1527 17.7845 35.1527Z" fill="#FFD386"/>
<path d="M17.7844 34.226C18.2441 34.226 18.6166 33.846 18.6166 33.3774C18.6166 32.9087 18.2441 32.5288 17.7844 32.5288C17.3249 32.5288 16.9523 32.9087 16.9523 33.3774C16.9523 33.846 17.3249 34.226 17.7844 34.226Z" fill="#E8BF7E"/>
<path d="M31.0413 14.0736C31.0437 14.455 30.9515 14.8307 30.7734 15.1661C30.5993 15.4896 30.3496 15.7643 30.0465 15.9659L29.8265 16.1025L10.4675 27.5931C10.0942 27.8498 9.6552 27.9888 9.20502 27.993C8.91151 27.993 8.62091 27.9339 8.3499 27.8191C8.0789 27.7043 7.83279 27.5359 7.62572 27.3239C7.41866 27.1118 7.25471 26.86 7.14328 26.5832C7.03185 26.3064 6.97512 26.0097 6.97638 25.7105C6.9722 25.1381 7.18459 24.586 7.56939 24.1693C7.77335 23.9419 8.02071 23.7593 8.29632 23.6328L27.5597 12.23C27.9309 11.969 28.3713 11.8295 28.8222 11.8301C29.1153 11.8288 29.4056 11.8867 29.6765 12.0005C29.9475 12.1143 30.1937 12.2816 30.4009 12.4929C30.6081 12.7042 30.7722 12.9552 30.8838 13.2316C30.9953 13.5079 31.0521 13.804 31.0508 14.1029L31.0413 14.0736Z" fill="#8C4737"/>
<path d="M30.6777 12.8251C30.5571 12.9542 30.4223 13.0688 30.2759 13.1665L30.0559 13.303L10.6873 24.7643C10.7948 25.1085 10.8013 25.477 10.7061 25.8249C10.611 26.1727 10.4182 26.4846 10.1515 26.7223C9.88488 26.9599 9.55602 27.1129 9.2052 27.1625C8.85447 27.212 8.49721 27.1561 8.17724 27.0013C7.85727 26.8466 7.58857 26.6 7.4042 26.2916C7.21983 25.9834 7.12783 25.6268 7.13945 25.2659C7.15107 24.905 7.26583 24.5553 7.46964 24.26C7.67344 23.9647 7.95735 23.7365 8.28658 23.6036L27.55 12.2008C27.9211 11.9398 28.3616 11.8003 28.8125 11.8009C29.182 11.8021 29.5455 11.8962 29.8708 12.0749C30.1961 12.2535 30.4733 12.5112 30.6777 12.8251Z" fill="#A75542"/>
<path d="M9.19548 27.4664C10.1569 27.4664 10.9363 26.6716 10.9363 25.6911C10.9363 24.7107 10.1569 23.9158 9.19548 23.9158C8.23404 23.9158 7.45467 24.7107 7.45467 25.6911C7.45467 26.6716 8.23404 27.4664 9.19548 27.4664Z" fill="#FFD386"/>
<path d="M9.19539 26.5397C9.65493 26.5397 10.0275 26.1597 10.0275 25.691C10.0275 25.2223 9.65493 24.8424 9.19539 24.8424C8.73579 24.8424 8.36324 25.2223 8.36324 25.691C8.36324 26.1597 8.73579 26.5397 9.19539 26.5397Z" fill="#E8BF7E"/>
<path d="M35.0201 15.7026C35.0192 16.0847 34.9238 16.4605 34.7427 16.795C34.572 17.1179 34.3255 17.3927 34.0253 17.5949C33.9551 17.6454 33.8817 17.691 33.8053 17.7314L14.4273 29.1928C14.0574 29.4566 13.6161 29.5964 13.1647 29.5926C12.6558 29.5863 12.1642 29.4034 11.771 29.0739C11.3778 28.7443 11.1064 28.288 11.0017 27.78C10.897 27.2722 10.9651 26.743 11.1948 26.2798C11.4246 25.8168 11.8023 25.4473 12.2656 25.2325L31.5098 13.8298C31.7542 13.6579 32.03 13.5376 32.3206 13.476C32.6113 13.4143 32.9111 13.4125 33.2024 13.4707C33.4938 13.5288 33.7709 13.6458 34.0173 13.8146C34.2637 13.9835 34.4746 14.2008 34.6375 14.454C34.8854 14.8214 35.0187 15.2565 35.0201 15.7026Z" fill="#8C4737"/>
<path d="M34.647 14.454C34.5302 14.5861 34.3985 14.704 34.2549 14.8052L34.0253 14.9319L14.6568 26.3932C14.7623 26.7356 14.7676 27.102 14.6719 27.4473C14.5762 27.7927 14.3838 28.102 14.1182 28.3375C13.8526 28.5729 13.5254 28.7242 13.1767 28.7727C12.8281 28.8213 12.4731 28.765 12.1553 28.6107C11.8376 28.4565 11.5708 28.2109 11.388 27.9044C11.205 27.5978 11.1138 27.2434 11.1255 26.8848C11.1372 26.5261 11.2513 26.1787 11.4538 25.8852C11.6563 25.5917 11.9385 25.3648 12.2656 25.2325L31.5098 13.8298C31.7542 13.6579 32.03 13.5376 32.3206 13.476C32.6113 13.4143 32.9111 13.4125 33.2024 13.4707C33.4938 13.5288 33.7709 13.6458 34.0173 13.8146C34.2637 13.9835 34.4746 14.2008 34.6375 14.454H34.647Z" fill="#A75542"/>
<path d="M13.1648 29.0953C14.1262 29.0953 14.9056 28.3005 14.9056 27.32C14.9056 26.3396 14.1262 25.5448 13.1648 25.5448C12.2034 25.5448 11.4241 26.3396 11.4241 27.32C11.4241 28.3005 12.2034 29.0953 13.1648 29.0953Z" fill="#FFD386"/>
<path d="M13.1648 28.1686C13.6243 28.1686 13.9969 27.7887 13.9969 27.3199C13.9969 26.8513 13.6243 26.4713 13.1648 26.4713C12.7051 26.4713 12.3326 26.8513 12.3326 27.3199C12.3326 27.7887 12.7051 28.1686 13.1648 28.1686Z" fill="#E8BF7E"/>
<path d="M38.9894 17.3415C38.9945 17.7127 38.9098 18.0795 38.743 18.4095C38.5762 18.7395 38.3323 19.0226 38.033 19.2338C37.963 19.2818 37.8895 19.3242 37.813 19.3606L18.4062 30.8219C17.9529 31.1194 17.4094 31.2393 16.8762 31.1593C16.3429 31.0795 15.8561 30.8053 15.506 30.3874C15.1558 29.9696 14.966 29.4365 14.9716 28.8869C14.9773 28.3373 15.178 27.8084 15.5367 27.3982C15.7411 27.1736 15.9885 26.9943 16.2636 26.8715L35.527 15.4589C35.8996 15.2006 36.3391 15.0614 36.7896 15.059C37.1683 15.0513 37.5427 15.1422 37.8774 15.3231C38.2121 15.504 38.4961 15.769 38.7025 16.0929C38.9153 16.4718 39.0149 16.9057 38.9894 17.3415Z" fill="#8C4737"/>
<path d="M38.626 16.0929C38.5054 16.2221 38.3707 16.3367 38.2243 16.4344L38.0043 16.5709L18.6357 28.0225C18.3912 28.1942 18.1157 28.3145 17.825 28.3762C17.5343 28.4378 17.2345 28.4396 16.943 28.3814C16.6517 28.3233 16.3747 28.2064 16.1283 28.0375C15.8819 27.8687 15.671 27.6512 15.5081 27.3982C15.7124 27.1736 15.9599 26.9943 16.235 26.8715L35.4983 15.4589C35.8709 15.2006 36.3104 15.0614 36.7609 15.059C37.1316 15.0595 37.4963 15.1544 37.8219 15.3349C38.1476 15.5155 38.424 15.776 38.626 16.0929Z" fill="#A75542"/>
<path d="M17.1436 30.7244C18.105 30.7244 18.8844 29.9296 18.8844 28.9491C18.8844 27.9687 18.105 27.1738 17.1436 27.1738C16.1822 27.1738 15.4029 27.9687 15.4029 28.9491C15.4029 29.9296 16.1822 30.7244 17.1436 30.7244Z" fill="#FFD386"/>
<path d="M17.1437 29.7977C17.6033 29.7977 17.9759 29.4177 17.9759 28.949C17.9759 28.4803 17.6033 28.1004 17.1437 28.1004C16.6842 28.1004 16.3116 28.4803 16.3116 28.949C16.3116 29.4177 16.6842 29.7977 17.1437 29.7977Z" fill="#E8BF7E"/>
<path d="M34.1114 11.2741C34.1105 11.6563 34.0151 12.0321 33.8341 12.3666C33.6608 12.6877 33.4149 12.9619 33.1168 13.1665L32.8968 13.3031L13.5186 24.7644C13.148 25.0266 12.7072 25.1662 12.2561 25.1644C11.7472 25.158 11.2556 24.975 10.8624 24.6454C10.4692 24.3159 10.1979 23.8596 10.0931 23.3517C9.98838 22.8438 10.0565 22.3146 10.2863 21.8515C10.516 21.3884 10.8938 21.019 11.357 20.8041L30.6108 9.40131C30.8552 9.2295 31.131 9.10926 31.4216 9.04761C31.7123 8.98596 32.0121 8.98416 32.3034 9.0423C32.5948 9.10044 32.8719 9.21744 33.1183 9.38628C33.3647 9.55512 33.5756 9.77247 33.7385 10.0256C33.983 10.3941 34.113 10.8292 34.1114 11.2741Z" fill="#8C4737"/>
<path d="M33.7385 10.0354C33.6216 10.1676 33.49 10.2854 33.3463 10.3865L33.1168 10.5134L13.7482 21.9747C13.8538 22.317 13.859 22.6833 13.7633 23.0288C13.6677 23.3741 13.4752 23.6835 13.2097 23.9189C12.944 24.1544 12.6168 24.3056 12.2682 24.3542C11.9195 24.4027 11.5645 24.3463 11.2468 24.1922C10.9291 24.0379 10.6623 23.7924 10.4794 23.4858C10.2964 23.1792 10.2053 22.8249 10.217 22.4662C10.2287 22.1075 10.3428 21.7601 10.5453 21.4665C10.7478 21.173 11.0299 20.9462 11.357 20.8138L30.6108 9.41112C30.8553 9.23931 31.131 9.11907 31.4216 9.05742C31.7123 8.99574 32.0121 8.99394 32.3034 9.05211C32.5948 9.11025 32.8719 9.22716 33.1183 9.396C33.3647 9.56493 33.5756 9.78228 33.7385 10.0354Z" fill="#A75542"/>
<path d="M12.256 24.6669C13.2174 24.6669 13.9968 23.8721 13.9968 22.8917C13.9968 21.9112 13.2174 21.1163 12.256 21.1163C11.2946 21.1163 10.5152 21.9112 10.5152 22.8917C10.5152 23.8721 11.2946 24.6669 12.256 24.6669Z" fill="#FFD386"/>
<path d="M12.2561 23.7402C12.7157 23.7402 13.0882 23.3603 13.0882 22.8916C13.0882 22.4229 12.7157 22.043 12.2561 22.043C11.7966 22.043 11.4241 22.4229 11.4241 22.8916C11.4241 23.3603 11.7966 23.7402 12.2561 23.7402Z" fill="#E8BF7E"/>
<path d="M38.0806 12.9616C38.0857 13.3329 38.0011 13.6996 37.8342 14.0297C37.6674 14.3597 37.4236 14.6427 37.1242 14.854C37.0542 14.9019 36.9806 14.9443 36.9042 14.9808L17.5357 26.4421C17.0824 26.7395 16.5388 26.8594 16.0056 26.7795C15.4723 26.6997 14.9856 26.4254 14.6354 26.0076C14.2853 25.5898 14.0954 25.0567 14.1011 24.5071C14.1067 23.9575 14.3076 23.4285 14.6662 23.0183C14.8705 22.7938 15.118 22.6145 15.3931 22.4915L34.5895 11.0108C34.9602 10.7486 35.401 10.609 35.852 10.6108C36.1459 10.6096 36.437 10.6678 36.7087 10.7821C36.9802 10.8965 37.2269 11.0647 37.4341 11.2771C37.6415 11.4894 37.8054 11.7417 37.9164 12.0191C38.0273 12.2965 38.0831 12.5937 38.0806 12.8933V12.9616Z" fill="#8C4737"/>
<path d="M37.7174 11.6545C37.5975 11.7873 37.4627 11.9051 37.3157 12.0057C37.2457 12.0537 37.1722 12.0961 37.0958 12.1325L17.7272 23.5939C17.4828 23.7656 17.207 23.8859 16.9164 23.9476C16.6257 24.0092 16.3259 24.011 16.0345 23.9529C15.7432 23.8947 15.4661 23.7777 15.2197 23.6089C14.9733 23.44 14.7624 23.2227 14.5995 22.9695C14.8038 22.745 15.0512 22.5657 15.3265 22.4428L34.5897 11.0108C34.9604 10.7486 35.4012 10.609 35.8523 10.6108C36.2235 10.6142 36.5882 10.7113 36.9136 10.8934C37.239 11.0756 37.5152 11.337 37.7174 11.6545Z" fill="#A75542"/>
<path d="M16.235 26.2957C17.1965 26.2957 17.9758 25.501 17.9758 24.5205C17.9758 23.54 17.1965 22.7452 16.235 22.7452C15.2736 22.7452 14.4942 23.54 14.4942 24.5205C14.4942 25.501 15.2736 26.2957 16.235 26.2957Z" fill="#FFD386"/>
<path d="M16.2349 25.3692C16.6945 25.3692 17.0671 24.9892 17.0671 24.5205C17.0671 24.0519 16.6945 23.6719 16.2349 23.6719C15.7754 23.6719 15.4029 24.0519 15.4029 24.5205C15.4029 24.9892 15.7754 25.3692 16.2349 25.3692Z" fill="#E8BF7E"/>
</svg>
