<svg width="45" height="45" viewBox="0 0 45 45" fill="none" xmlns="http://www.w3.org/2000/svg">
<mask id="mask0_121_832" style="mask-type:luminance" maskUnits="userSpaceOnUse" x="2" y="12" width="40" height="23">
<path d="M42 12H2V35H42V12Z" fill="white"/>
</mask>
<g mask="url(#mask0_121_832)">
<path d="M41.9645 33.4331C39.3851 32.8372 37.0983 27.8499 35.4762 26.0163C35.4584 25.998 35.4407 25.9705 35.423 25.9522C35.1482 25.6679 34.9177 25.4388 34.7139 25.2554C34.2441 24.8245 33.7123 24.4853 33.1273 24.2561C28.9967 22.6242 24.5559 23.5685 22.2159 24.3111C21.4271 24.5678 20.6647 24.8795 19.9291 25.2646C14.921 27.8866 10.4359 28.4366 8.77837 28.5466C8.24656 28.5833 7.83881 29.0784 7.89199 29.6284C7.97179 30.4261 8.43267 31.297 8.7695 31.8287C8.91134 32.0671 9.07089 32.2871 9.24818 32.498C9.26587 32.5072 9.27474 32.5255 9.28362 32.5347C9.77999 33.1581 9.647 34.0382 9.08858 34.5057C8.97341 34.6066 8.82268 34.6891 8.66314 34.7441L7.98061 34.9733C7.82107 35.0467 7.62609 34.955 7.47542 34.8633C7.33357 34.7716 7.16515 34.7349 6.99673 34.7349C6.00399 34.7533 5.9065 33.7907 5.91538 33.2956C5.91538 33.1214 5.8267 32.9564 5.68491 32.8739C4.77191 32.2871 4.43509 31.4253 4.31103 30.8845C4.2401 30.5636 4.08943 30.2702 3.87671 30.0318C2.95484 28.9867 2.77755 27.4923 2.74212 26.8506C2.73324 26.6489 2.66231 26.4472 2.55596 26.2822C1.93555 25.3012 2.05073 24.1736 2.19259 23.541C2.26351 23.2293 2.26351 22.9084 2.18371 22.5967C2.14828 22.4409 2.12166 22.3033 2.10397 22.1658C2.04191 21.7166 2.11278 21.2582 2.29894 20.8456C2.63577 20.0847 2.34325 19.5621 2.24576 19.4246C2.22801 19.3971 2.21032 19.3604 2.19258 19.3237C1.87349 18.4345 2.36986 18.0953 2.73326 17.9761C2.88393 17.9211 3.01691 17.8111 3.0967 17.6644C3.21193 17.4535 3.5044 17.3068 3.81467 17.206C3.91216 17.1693 4.01852 17.1418 4.11601 17.1235C4.85173 16.9493 5.59625 17.3985 5.79128 18.1503C5.90651 18.5903 5.86221 18.9754 5.86221 18.9754C5.55194 20.3781 5.68493 21.3682 5.87108 21.9824C6.03062 22.4775 6.50925 22.7709 7.00563 22.6792L7.27153 22.6334C11.2869 19.5988 21.0104 18.9662 21.0104 18.9662C27.0999 18.2328 32.2232 21.3407 32.2232 21.3407C33.3045 22.0099 34.058 22.4133 34.5809 22.6425C35.5116 23.0551 35.7155 22.9542 35.7155 22.9542C37.7276 22.2575 38.871 22.1841 39.4471 22.23C39.7308 22.2575 39.8726 22.6059 39.6865 22.8351C39.2522 23.376 38.4101 23.9902 38.2417 24.1186C38.224 24.1277 38.1974 24.146 38.1796 24.1644C37.0362 25.1362 37.6301 26.163 37.6301 26.163L38.7026 27.9416C38.7824 28.0699 38.8621 28.1982 38.9419 28.3358C38.9596 28.3633 38.9685 28.3816 38.9863 28.4091C39.066 28.5375 39.1458 28.675 39.2344 28.8125L39.7752 29.711C39.8638 29.8668 39.9701 30.0043 40.0854 30.1327C40.5108 30.7653 40.954 31.4162 41.3529 32.0029C42.2215 33.2589 41.9645 33.4331 41.9645 33.4331Z" fill="#7BA0D8"/>
<path d="M9.0886 34.5058C8.97342 34.6067 8.8227 34.6891 8.66316 34.7441L7.98063 34.9733C7.82109 35.0467 7.62611 34.955 7.47543 34.8633C7.33358 34.7717 7.16516 34.735 6.99675 34.735C6.004 34.7533 5.90652 33.7907 5.91539 33.2956C5.91539 33.1215 5.82672 32.9564 5.68493 32.8739C4.77193 32.2872 4.4351 31.4254 4.31104 30.8845C4.24012 30.5636 4.08945 30.2702 3.87673 30.0318C2.95485 28.9867 2.77757 27.4924 2.74213 26.8506C2.73326 26.6489 2.66233 26.4472 2.55597 26.2822C1.93555 25.3012 2.05073 24.1736 2.19258 23.541C2.26351 23.2293 2.26351 22.9084 2.18371 22.5967C2.14827 22.4409 2.12166 22.3033 2.10396 22.1658C2.04191 21.7166 2.11278 21.2582 2.29894 20.8457C2.63577 20.0847 2.34325 19.5621 2.24576 19.4246C2.22801 19.3971 2.21032 19.3605 2.19258 19.3237C1.87349 18.4345 2.36986 18.0953 2.73326 17.9761C2.88393 17.9211 3.01691 17.8111 3.0967 17.6644C3.21193 17.4535 3.5044 17.3069 3.81467 17.206C3.59308 18.4987 3.14101 22.0283 4.0717 26.0438C5.09106 30.3986 7.44882 33.2406 9.0886 34.5058Z" fill="#B3CCF0"/>
<path d="M17.0838 19.4888C17.0838 19.4979 13.8573 19.8921 11.278 20.7539C11.278 20.7539 11.8275 20.0113 12.2087 18.5445C12.2885 18.2053 12.3682 17.8202 12.4214 17.3985C12.4214 17.3985 13.4141 13.5938 15.1781 12.0811C15.3908 11.8978 15.7099 12.0444 15.7188 12.3286L15.772 13.4288C15.7896 13.768 15.7542 14.1164 15.6745 14.4464C15.5149 15.0515 15.311 16.17 15.506 17.2427C15.6745 18.1136 16.1176 18.9662 17.0838 19.4888Z" fill="#7BA0D8"/>
<path d="M17.0838 19.4887C17.0838 19.4979 13.8573 19.8921 11.278 20.7539C11.278 20.7539 11.8275 20.0113 12.2087 18.5445C13.0153 18.5811 14.2651 18.3886 15.506 17.2427C15.6745 18.1136 16.1176 18.9662 17.0838 19.4887Z" fill="#4F7DC2"/>
<path d="M21.5866 18.9846C21.5866 18.9846 22.7566 17.4168 24.3964 17.3343C24.618 17.3252 24.7598 17.5819 24.6357 17.7744C24.4319 18.0861 24.2546 18.5262 24.4407 18.9479C24.4496 18.9479 22.5705 18.8012 21.5866 18.9846Z" fill="#4F7DC2"/>
<path d="M22.2071 24.2194C22.2071 24.2194 23.5987 25.5121 25.2917 25.2737C25.5487 25.237 25.6639 24.9253 25.5044 24.7236C25.3271 24.4944 25.0967 24.1461 24.8573 23.6418C24.8573 23.6418 23.315 23.7885 22.2071 24.2194Z" fill="#4F7DC2"/>
<path d="M20.975 33.2956C19.0249 32.8464 16.4278 30.6919 14.8057 29.2067C13.8928 28.3633 13.2989 27.7398 13.2989 27.7398C16.286 27.0614 18.9186 25.7688 18.9186 25.7688C18.4399 26.658 18.4399 27.5015 18.6527 28.2441C18.9363 29.2617 19.6188 30.0685 20.0354 30.4902C20.3191 30.7744 20.5761 31.1045 20.78 31.462C21.0813 31.9846 21.2852 32.4247 21.4182 32.7455C21.5423 33.0481 21.2852 33.3689 20.975 33.2956Z" fill="#7BA0D8"/>
<path d="M17.4738 22.3492L12.2796 23.2476C11.9516 23.3026 11.6502 23.486 11.4375 23.7519C11.2602 23.9811 11.3311 24.3203 11.5882 24.4395C11.7921 24.5403 12.1023 24.6136 12.5809 24.6045C13.3787 24.5861 14.1498 24.3386 14.8146 23.8894C15.3553 23.5318 16.2417 23.0001 17.5004 22.4684C17.5801 22.45 17.5535 22.34 17.4738 22.3492Z" fill="#4F7DC2"/>
<path d="M26.6655 20.6898C25.8323 20.6898 24.5028 20.7081 23.2175 20.8823C22.8984 20.9281 22.792 21.3407 23.0402 21.5424C23.1998 21.6707 23.4214 21.7808 23.7405 21.8358C24.1393 21.9091 24.5559 21.8633 24.9371 21.7166L26.7276 21.0198C26.8871 20.9465 26.8428 20.6898 26.6655 20.6898Z" fill="#4F7DC2"/>
<path d="M2.54489 19.3208C2.84583 19.3208 3.08979 19.0685 3.08979 18.7572C3.08979 18.4459 2.84583 18.1936 2.54489 18.1936C2.24396 18.1936 2 18.4459 2 18.7572C2 19.0685 2.24396 19.3208 2.54489 19.3208Z" fill="black"/>
<path d="M6.51065 34.6672C6.81159 34.6672 7.05555 34.4148 7.05555 34.1036C7.05555 33.7923 6.81159 33.54 6.51065 33.54C6.20972 33.54 5.96576 33.7923 5.96576 34.1036C5.96576 34.4148 6.20972 34.6672 6.51065 34.6672Z" fill="black"/>
<path d="M40.0854 30.1327C39.9701 30.0043 39.8638 29.8668 39.7751 29.711L39.2344 28.8125C39.5003 29.2251 39.784 29.6743 40.0854 30.1327Z" fill="#232E68"/>
<path d="M18.6527 28.2441C17.0394 28.2624 15.7276 28.73 14.8057 29.2067C13.8928 28.3633 13.2989 27.7398 13.2989 27.7398C16.286 27.0614 18.9186 25.7688 18.9186 25.7688C18.4399 26.658 18.4399 27.5015 18.6527 28.2441Z" fill="#4F7DC2"/>
<path d="M41.9645 33.4331C39.3851 32.8372 37.0982 27.8499 35.4762 26.0163C35.3609 24.9986 35.1039 23.8252 34.5809 22.6425C35.5116 23.0551 35.7155 22.9542 35.7155 22.9542C37.7275 22.2575 38.871 22.1841 39.4471 22.23C39.7308 22.2575 39.8726 22.6058 39.6865 22.835C39.2521 23.376 38.4101 23.9902 38.2417 24.1186C38.224 24.1277 38.1974 24.146 38.1796 24.1644C37.0362 25.1362 37.6301 26.163 37.6301 26.163L38.7026 27.9416C38.7823 28.0699 38.8621 28.1982 38.9419 28.3358C38.9596 28.3633 38.9685 28.3816 38.9862 28.4091C39.066 28.5375 39.1458 28.675 39.2344 28.8125L39.7751 29.711C39.8638 29.8668 39.9701 30.0043 40.0854 30.1327C40.5108 30.7653 40.954 31.4162 41.3529 32.0029C42.2215 33.2589 41.9645 33.4331 41.9645 33.4331Z" fill="#4F7DC2"/>
</g>
</svg>
