<svg width="45" height="45" viewBox="0 0 45 45" fill="none" xmlns="http://www.w3.org/2000/svg">
<path d="M41.4 26.1334H3.60001V39.7414H41.4V26.1334Z" fill="#9DB4D7"/>
<path d="M16.6941 10.0299H3.68747V26.3985H16.6941V10.0299Z" fill="#7A2644"/>
<path d="M3.68747 10.0299L16.6941 17.3594V25.1715H3.68747V10.0299Z" fill="#D94241"/>
<path d="M28.2527 19.4453L22.4775 16.255L16.6941 19.4453V36.7138H28.2527V19.4453Z" fill="#7A2B36"/>
<path d="M26.265 18.8318L22.4775 17.5638L18.6819 18.8318V23.2H26.265V18.8318Z" fill="#E4A753"/>
<path d="M16.6941 26.3985H5.37262V36.7138H16.6941V26.3985Z" fill="#7A2644"/>
<path d="M6.48513 26.3985H5.37262V34.7505H6.48513V26.3985Z" fill="#A05D3F"/>
<path d="M16.7023 26.3985H7.51584V34.7505H16.7023V26.3985Z" fill="#E18C32"/>
<path d="M16.7023 34.7505H7.51584V35.724H16.7023V34.7505Z" fill="#A05D44"/>
<path d="M16.6941 27.6583H8.41568V34.7505H16.6941V27.6583Z" fill="#E4A753"/>
<path d="M12.2522 28.8526H10.3135V30.7913H12.2522V28.8526Z" fill="#7B273B"/>
<path d="M14.5836 28.8526H12.6449V30.7913H14.5836V28.8526Z" fill="#7B273B"/>
<path d="M12.2522 31.2167H10.3135V32.4683H12.2522V31.2167Z" fill="#7B273B"/>
<path d="M14.5836 31.2167H12.6449V32.4683H14.5836V31.2167Z" fill="#7B273B"/>
<path d="M12.2522 32.4683H10.3135V32.9918H12.2522V32.4683Z" fill="#FBCD98"/>
<path d="M14.5836 32.4683H12.6449V32.9918H14.5836V32.4683Z" fill="#FBCD98"/>
<path d="M28.2868 36.7174H39.6082V26.4021H28.2868V36.7174Z" fill="#7A2644"/>
<path d="M38.4957 34.7509H39.6082V26.3989H38.4957V34.7509Z" fill="#A05D3F"/>
<path d="M28.2832 34.7509H37.4696V26.3989H28.2832V34.7509Z" fill="#E18C32"/>
<path d="M28.2832 35.7218H37.4696V34.7483H28.2832V35.7218Z" fill="#A05D44"/>
<path d="M28.2893 34.7488H36.5677V27.6566H28.2893V34.7488Z" fill="#E4A753"/>
<path d="M32.7347 30.7866H34.6734V28.8478H32.7347V30.7866Z" fill="#7B273B"/>
<path d="M30.3962 30.7866H32.335V28.8478H30.3962V30.7866Z" fill="#7B273B"/>
<path d="M32.7347 32.4672H34.6734V31.2156H32.7347V32.4672Z" fill="#7B273B"/>
<path d="M30.3962 32.4672H32.335V31.2156H30.3962V32.4672Z" fill="#7B273B"/>
<path d="M32.7347 32.987H34.6734V32.4635H32.7347V32.987Z" fill="#FBCD98"/>
<path d="M30.3962 32.987H32.335V32.4635H30.3962V32.987Z" fill="#FBCD98"/>
<path d="M26.265 20.0343L22.4775 17.9974L18.6819 20.0343V18.5455L22.4775 16.5086L26.265 18.5455V20.0343Z" fill="#DF8A42"/>
<path d="M22.4775 22.4393C23.3449 22.4393 24.0481 21.7361 24.0481 20.8686C24.0481 20.0012 23.3449 19.298 22.4775 19.298C21.61 19.298 20.9069 20.0012 20.9069 20.8686C20.9069 21.7361 21.61 22.4393 22.4775 22.4393Z" fill="white" stroke="#A05D3F" stroke-miterlimit="10"/>
<path d="M26.265 23.2H18.6819V24.1899H26.265V23.2Z" fill="#A05F39"/>
<path d="M26.265 24.1817H18.6819V25.1715H26.265V24.1817Z" fill="#7D2831"/>
<path d="M26.265 25.1715H18.6819V26.3985H26.265V25.1715Z" fill="#E08C34"/>
<path d="M26.265 35.724H18.6819V36.7138H26.265V35.724Z" fill="#E2A55E"/>
<path d="M26.265 34.7424H18.6819V35.7322H26.265V34.7424Z" fill="#DC8E35"/>
<path d="M26.265 26.3985H18.6819V34.7342H26.265V26.3985Z" fill="#E4A654"/>
<path d="M25.3243 28.9835L24.858 28.3454C23.7127 26.7748 21.365 26.7748 20.2198 28.3454L19.7535 28.9835V34.7424H25.3243V28.9835Z" fill="#7A2838"/>
<path d="M24.6698 29.4416L24.3181 28.9589C23.4428 27.7564 21.6431 27.7564 20.7678 28.9589L20.4161 29.4416V34.7423H24.678V29.4416H24.6698Z" fill="#A05F3F"/>
<path d="M23.4673 30.9549H21.5286V29.4825L21.6676 29.3107C22.093 28.779 22.8947 28.779 23.32 29.3107L23.4591 29.4825V30.9549H23.4673Z" fill="#7A2644"/>
<path d="M24.0317 31.5602H23.4673V32.73H24.0317V31.5602Z" fill="#FDCA9E"/>
<path d="M16.6941 34.7505H17.6675V18.9218L16.6941 19.4453V34.7505Z" fill="#9F5E3F"/>
<path d="M27.2384 34.3579H26.265V18.5291L27.2384 19.0526V34.3579Z" fill="#9F5B4D"/>
<path d="M16.7023 12.0995H7.51584V21.2859H16.7023V12.0995Z" fill="#A8333C"/>
<path d="M28.2559 26.4013H41.2625V10.0326H28.2559V26.4013Z" fill="#7A2644"/>
<path d="M41.2593 10.0299L28.2527 17.3594V25.1715H41.2593V10.0299Z" fill="#D94241"/>
<path d="M28.252 21.2901H37.4384V12.1037H28.252V21.2901Z" fill="#A8333C"/>
<path d="M14.919 8.26291V19.3308L22.4448 15.437L22.5102 4.5L14.919 8.26291Z" fill="#D9443F"/>
<path d="M29.9706 8.26291V19.3308L22.4448 15.437L22.3793 4.5L29.9706 8.26291Z" fill="#B53A47"/>
<path d="M22.4775 16.5086L14.9517 20.5987V19.2981L22.4775 15.4043L30.0197 19.2981V20.5987L22.4775 16.5086Z" fill="#7D2543"/>
</svg>
