<svg width="45" height="45" viewBox="0 0 45 45" fill="none" xmlns="http://www.w3.org/2000/svg">
<path d="M22.5 35C33.2696 35 42 33.3292 42 31.2682C42 29.2072 33.2696 27.5365 22.5 27.5365C11.7304 27.5365 3 29.2072 3 31.2682C3 33.3292 11.7304 35 22.5 35Z" fill="#CEEFFF"/>
<path d="M34.0043 31.2636H13.1711C13.1711 31.2636 17.9206 13.1189 30.3019 9.11658C31.1439 8.84833 31.9642 9.06291 32.5364 9.55646C33.2595 10.1681 33.605 11.2089 33.1408 12.2176C31.0574 16.8315 28.8661 24.7181 34.0043 31.2636Z" fill="#618DB5"/>
<path d="M34.0043 31.2635H19.8205C19.896 20.5548 29.773 11.7991 32.5364 9.55646C33.2595 10.1681 33.605 11.2089 33.1408 12.2175C31.0574 16.8315 28.8661 24.7181 34.0043 31.2635Z" fill="#5579A0"/>
<path d="M21.0826 18.9397C20.994 18.9397 20.9055 18.9188 20.8233 18.8737C20.5618 18.7312 20.4659 18.4053 20.6093 18.1455C20.7094 17.9642 23.1097 13.6773 27.7501 11.3532C28.0104 11.2211 28.3393 11.3249 28.4743 11.591C28.6081 11.8551 28.5017 12.1779 28.235 12.311C23.9035 14.4811 21.5791 18.6201 21.5559 18.661C21.4579 18.8391 21.2723 18.9397 21.0826 18.9397Z" fill="#76A7D5"/>
</svg>
