<svg width="45" height="45" viewBox="0 0 45 45" fill="none" xmlns="http://www.w3.org/2000/svg">
<path d="M40.6629 34.0582L35.2283 35.6566L33.9495 41.6083V43.0093L37.9738 44.1L43.4084 38.9192L43.54 35.6566L40.6629 34.0582Z" fill="#CEEFFF"/>
<path d="M32.8588 7.37408L5.06527 10.0444L1.74622 16.3628L4.23786 34.5847L9.97334 41.3263L24.2838 41.157L38.096 30.0904L41.5091 20.7726V14.2003L32.8588 7.37408Z" fill="#CEEFFF"/>
<path d="M4.22845 6.46209V18.61L8.55357 30.6733L13.7155 26.6773L35.0966 23.5181L40.6628 10.6274L32.0126 3.80121L4.22845 6.46209Z" fill="#FFBB70"/>
<path d="M9.13654 37.744L8.55359 30.6733L13.7155 26.6773L35.0966 23.5181L40.6629 10.6274V17.1997L37.2592 26.5175L23.447 37.5747L9.13654 37.744Z" fill="#D38644"/>
<path d="M4.22845 6.4621L0.899994 12.7899L3.39164 31.0024L9.13652 37.7439L8.55357 30.6733L4.22845 18.61V6.4621Z" fill="#FACF82"/>
<path d="M33.9495 40.1322L35.2283 34.1804L40.6629 32.582L43.54 34.1804L37.2686 40.9031L33.9495 40.1322Z" fill="#FFBB70"/>
<path d="M37.9738 42.6238L43.4084 37.4431L43.54 34.1804L37.2686 40.9032L33.9495 40.1322V41.5425L37.9738 42.6238Z" fill="#D38644"/>
<path d="M25.9996 17.3834H24.8595C24.3866 17.3834 24.0033 17.7667 24.0033 18.2396C24.0033 18.7124 24.3866 19.0958 24.8595 19.0958H25.9996C26.4725 19.0958 26.8558 18.7124 26.8558 18.2396C26.8558 17.7667 26.4725 17.3834 25.9996 17.3834Z" fill="#187B69"/>
<path d="M23.3283 16.0244L25.4324 18.1284C25.4324 18.1284 25.4758 16.0244 23.3283 16.0244Z" fill="#187B69"/>
<path d="M27.5367 16.0244L25.4326 18.1284C25.4326 18.1284 25.3892 16.0244 27.5367 16.0244Z" fill="#187B69"/>
<path d="M28.3335 17.466L25.4266 18.1258C25.4266 18.1258 26.5091 16.321 28.3335 17.466Z" fill="#006F65"/>
<path d="M22.5255 17.466L25.4325 18.1258C25.4325 18.1258 24.35 16.321 22.5255 17.466Z" fill="#006F65"/>
<path d="M22.3741 22.059H21.2339C20.761 22.059 20.3777 22.4423 20.3777 22.9152C20.3777 23.388 20.761 23.7714 21.2339 23.7714H22.3741C22.8469 23.7714 23.2302 23.388 23.2302 22.9152C23.2302 22.4423 22.8469 22.059 22.3741 22.059Z" fill="#187B69"/>
<path d="M19.7027 20.7L21.8068 22.8041C21.8068 22.8041 21.8502 20.7 19.7027 20.7Z" fill="#187B69"/>
<path d="M23.911 20.7L21.807 22.8041C21.807 22.8041 21.7636 20.7 23.911 20.7Z" fill="#187B69"/>
<path d="M24.7079 22.1416L21.801 22.8014C21.801 22.8014 22.8835 20.9966 24.7079 22.1416Z" fill="#006F65"/>
<path d="M18.9 22.1416L21.8069 22.8014C21.8069 22.8014 20.7244 20.9966 18.9 22.1416Z" fill="#006F65"/>
<path d="M17.1805 21.6403C17.1805 21.121 16.7595 20.7 16.2402 20.7C15.721 20.7 15.3 21.121 15.3 21.6403C15.3 22.1595 15.721 22.5805 16.2402 22.5805C16.7595 22.5805 17.1805 22.1595 17.1805 21.6403Z" fill="#FED392"/>
<path d="M31.292 13.2036H27.8627C27.5115 13.2036 27.2268 13.6246 27.2268 14.1439C27.2268 14.6631 27.5115 15.0841 27.8627 15.0841H31.292C31.6433 15.0841 31.928 14.6631 31.928 14.1439C31.928 13.6246 31.6433 13.2036 31.292 13.2036Z" fill="#FED392"/>
<path d="M35.053 16.9646H31.6237C31.2725 16.9646 30.9878 17.3856 30.9878 17.9048C30.9878 18.4241 31.2725 18.8451 31.6237 18.8451H35.053C35.4042 18.8451 35.689 18.4241 35.689 17.9048C35.689 17.3856 35.4042 16.9646 35.053 16.9646Z" fill="#FED392"/>
<path d="M6.85468 21.4354H6.98957C7.36978 21.4354 7.67801 21.1272 7.67801 20.747C7.67801 20.3668 7.98623 20.0585 8.36644 20.0585H9.13696C9.51717 20.0585 9.82539 20.3668 9.82539 20.747V20.8318C9.82539 21.212 10.1336 21.5202 10.5138 21.5202H11.3295C11.7097 21.5202 12.0179 21.8284 12.0179 22.2086V22.5944C12.0179 22.9746 11.7097 23.2828 11.3295 23.2828H11.2876C10.9074 23.2828 10.5992 23.591 10.5992 23.9713V24.0131C10.5992 24.3933 10.291 24.7015 9.91079 24.7015H9.31007C8.92986 24.7015 8.62164 24.3933 8.62164 24.0131V23.9713C8.62164 23.591 8.31343 23.2828 7.93322 23.2828H6.85468C6.47447 23.2828 6.16626 22.9746 6.16626 22.5944V22.1238C6.16626 21.7436 6.47447 21.4354 6.85468 21.4354Z" fill="#F3A35C"/>
<path d="M8.84864 20.7123C8.86322 20.7123 8.8779 20.7119 8.8928 20.7108C9.25298 20.6869 9.52559 20.3753 9.50154 20.0151C9.15073 14.7524 11.2449 10.937 11.2661 10.8991C11.442 10.5843 11.3299 10.1859 11.0154 10.0096C10.7004 9.83299 10.3029 9.94451 10.126 10.2589C10.0317 10.4267 7.81907 14.4332 8.19702 20.1021C8.22 20.4475 8.5074 20.7123 8.84864 20.7123Z" fill="#905641"/>
<path d="M10.4992 11.0746L12.5616 14.8183C12.6153 14.9157 12.7546 14.9199 12.8114 14.8244C13.0098 14.4906 13.2546 13.6313 12.4719 11.7516C12.4447 11.6863 12.5048 11.6178 12.5724 11.639L15.5328 12.5641C15.6759 12.6088 15.8079 12.4717 15.7582 12.3302C15.5967 11.8708 15.1464 11.0441 13.9314 10.5794L12.6985 10.1213C12.6306 10.0961 12.6252 10.0021 12.6898 9.96919L14.8953 8.84674C15.0111 8.78782 14.998 8.61826 14.8737 8.58047C14.3364 8.41708 13.2321 8.17359 12.3294 8.57284L11.1848 9.06661C11.1432 9.08452 11.095 9.06598 11.0762 9.02485L10.4645 7.68818C10.4645 7.68818 9.77405 6.49006 8.58031 6.30218C8.44019 6.28013 8.33366 6.42872 8.39245 6.55782L9.40089 8.77245C9.43161 8.83991 9.3654 8.91084 9.29598 8.88481L8.14528 8.45329C8.14528 8.45329 6.64214 7.92516 5.4894 8.62881C5.3595 8.70811 5.37362 8.90092 5.51567 8.95556L8.43861 10.0798C8.50902 10.1068 8.51338 10.2048 8.44564 10.238L7.68747 10.6097C7.25596 10.8212 6.87286 11.1286 6.60251 11.5259C6.46011 11.7352 6.3316 11.9877 6.25072 12.2848C6.21241 12.4255 6.35448 12.55 6.49105 12.4989L10.3972 11.0368C10.4358 11.0223 10.4793 11.0384 10.4992 11.0746Z" fill="#0B8274"/>
<path d="M21.9883 15.1354H21.8534C21.4732 15.1354 21.165 14.8272 21.165 14.447C21.165 14.0668 20.8568 13.7586 20.4766 13.7586H19.706C19.3258 13.7586 19.0176 14.0668 19.0176 14.447V14.5318C19.0176 14.912 18.7094 15.2203 18.3292 15.2203H17.5135C17.1333 15.2203 16.8251 15.5285 16.8251 15.9087V16.2944C16.8251 16.6747 17.1333 16.9829 17.5135 16.9829H17.5553C17.9355 16.9829 18.2438 17.2911 18.2438 17.6713V17.7131C18.2438 18.0933 18.552 18.4016 18.9322 18.4016H19.5329C19.9131 18.4016 20.2213 18.0933 20.2213 17.7131V17.6713C20.2213 17.2911 20.5296 16.9829 20.9098 16.9829H21.9883C22.3685 16.9829 22.6767 16.6747 22.6767 16.2944V15.8239C22.6767 15.4437 22.3685 15.1354 21.9883 15.1354Z" fill="#F3A35C"/>
<path d="M19.9944 14.4123C19.9798 14.4123 19.9651 14.4119 19.9502 14.4109C19.59 14.3869 19.3174 14.0754 19.3415 13.7151C19.6923 8.45236 17.5981 4.637 17.577 4.59912C17.401 4.28427 17.5131 3.88589 17.8277 3.70958C18.1426 3.53294 18.5401 3.64446 18.717 3.95888C18.8114 4.12669 21.024 8.13315 20.646 13.8021C20.623 14.1475 20.3356 14.4123 19.9944 14.4123Z" fill="#905641"/>
<path d="M18.3439 4.77459L16.2814 8.51835C16.2278 8.61574 16.0884 8.61996 16.0316 8.52437C15.8332 8.19057 15.5885 7.33131 16.3711 5.45166C16.3984 5.38627 16.3382 5.31784 16.2706 5.33897L13.3102 6.2641C13.1671 6.30882 13.0351 6.17169 13.0848 6.03025C13.2463 5.57078 13.6966 4.7441 14.9117 4.27937L16.1445 3.82131C16.2125 3.79607 16.2179 3.70207 16.1533 3.6692L13.9478 2.54675C13.832 2.48783 13.845 2.31827 13.9693 2.28048C14.5067 2.11708 15.611 1.8736 16.5136 2.27285L17.6583 2.76662C17.6998 2.78454 17.748 2.76599 17.7669 2.72486L18.3786 1.3882C18.3786 1.3882 19.069 0.190072 20.2627 0.0021915C20.4029 -0.0198604 20.5094 0.128737 20.4506 0.257829L19.4421 2.47246C19.4114 2.53993 19.4776 2.61085 19.5471 2.58482L20.6978 2.1533C20.6978 2.1533 22.2009 1.62517 23.3536 2.32882C23.4835 2.40812 23.4694 2.60094 23.3274 2.65557L20.4044 3.77978C20.334 3.80686 20.3297 3.90484 20.3974 3.93805L21.1556 4.3097C21.5871 4.52122 21.9702 4.82864 22.2406 5.22594C22.3829 5.4352 22.5114 5.68775 22.5923 5.98484C22.6306 6.12554 22.4886 6.25 22.352 6.19889L18.4459 4.73682C18.4072 4.72235 18.3638 4.73843 18.3439 4.77459Z" fill="#0B8274"/>
<path d="M34.6388 8.37242C34.6388 9.23712 33.9378 9.93809 33.0731 9.93809H29.8776C29.2817 9.93809 28.7987 10.4211 28.7987 11.017C28.7987 11.6128 28.3157 12.0958 27.7199 12.0958H22.4504C21.5857 12.0958 20.8848 11.3948 20.8848 10.5301C20.8848 9.66544 21.5857 8.96446 22.4504 8.96446H25.646C26.2418 8.96446 26.7248 8.48144 26.7248 7.88561C26.7248 7.28978 27.2078 6.80676 27.8037 6.80676H33.0731C33.9378 6.80676 34.6388 7.50772 34.6388 8.37242Z" fill="#F3A35C"/>
<path d="M33.2069 6.91019C33.2069 7.31321 33.0428 7.68056 32.7789 7.94447C32.5756 8.14598 32.3153 8.28862 32.0228 8.3457C31.9337 8.36353 31.8409 8.37243 31.7446 8.37243H27.3062C26.4984 8.37243 25.8421 7.718 25.8421 6.91019V5.45687C25.8421 5.06455 26.0008 4.68829 26.2808 4.41188L28.8237 1.92072L32.7789 5.8759C33.0535 6.15053 33.2069 6.52146 33.2069 6.91019Z" fill="#9A8079"/>
<path d="M32.0228 8.3457C31.9337 8.36353 31.8409 8.37243 31.7446 8.37243H27.3062C26.4984 8.37243 25.8421 7.718 25.8421 6.91019V5.45687C25.8421 5.06455 26.0008 4.68829 26.2808 4.41188L28.8237 1.92072V4.26209C28.8237 4.82738 29.0484 5.37127 29.4496 5.7725L32.0228 8.3457Z" fill="#6D5B4F"/>
<path d="M27.217 8.36711C27.217 8.73266 27.0726 9.08397 26.8122 9.34253L26.0258 10.1289C25.9099 10.2448 25.778 10.3376 25.6317 10.4036C25.4516 10.4892 25.2537 10.5337 25.0504 10.5337H24.6724C24.3068 10.5337 23.9555 10.3875 23.697 10.1289L22.8874 9.31935C22.6288 9.06079 22.4843 8.70949 22.4843 8.34392V8.30113C22.4843 7.93021 22.6324 7.57534 22.8981 7.315L23.606 6.62134C23.7719 6.46083 23.9716 6.34494 24.1891 6.2825C24.3122 6.24507 24.4423 6.22723 24.5725 6.22723H25.079C25.4445 6.22723 25.7958 6.37345 26.0544 6.63203L26.8122 7.39166C27.0726 7.65024 27.217 7.99977 27.217 8.36711Z" fill="#9A8079"/>
<path d="M25.6317 8.65953V10.4036C25.4516 10.4892 25.2537 10.5337 25.0504 10.5337H24.6724C24.3068 10.5337 23.9555 10.3875 23.697 10.1289L22.8874 9.31931C22.6288 9.06075 22.4843 8.70946 22.4843 8.34389V8.3011C22.4843 7.93017 22.6324 7.57531 22.8981 7.31497L23.606 6.62131C23.7718 6.46079 23.9716 6.3449 24.1891 6.28247L25.0504 7.19729C25.4231 7.59316 25.6317 8.11563 25.6317 8.65953Z" fill="#6D5B4F"/>
</svg>
