<svg width="45" height="45" viewBox="0 0 45 45" fill="none" xmlns="http://www.w3.org/2000/svg">
<path d="M40.0207 23.0476H30.6085C30.3438 23.0476 30.1291 23.2584 30.1291 23.5186V23.5933C30.1291 23.8534 30.3438 24.0644 30.6085 24.0644H40.0207C40.2854 24.0644 40.5 23.8534 40.5 23.5933V23.5186C40.5 23.2584 40.2854 23.0476 40.0207 23.0476Z" fill="#C3DD83"/>
<path d="M14.3915 24.3H4.97938C4.71462 24.3 4.5 24.5109 4.5 24.7711V24.8458C4.5 25.1059 4.71462 25.3168 4.97938 25.3168H14.3915C14.6562 25.3168 14.8709 25.1059 14.8709 24.8458V24.7711C14.8709 24.5109 14.6562 24.3 14.3915 24.3Z" fill="#C3DD83"/>
<path d="M28.9365 24.6332C28.9365 25.0552 29.1072 25.4599 29.4108 25.7584C29.7145 26.0568 30.1264 26.2245 30.5559 26.2245H34.4435C34.8745 26.2245 35.2879 26.3927 35.5927 26.6922C35.8975 26.9917 36.0687 27.3979 36.0687 27.8214C36.0687 27.8789 36.0687 27.9364 36.0687 27.9938C36.0242 28.3838 35.835 28.744 35.5375 29.0057C35.2399 29.2675 34.8546 29.4124 34.4552 29.4127H7.47569C7.15232 29.4125 6.8364 29.3173 6.56863 29.1391C6.30085 28.961 6.09349 28.7081 5.97324 28.4132C5.89803 28.2306 5.85837 28.0357 5.85632 27.8387C5.85322 27.6277 5.89283 27.4184 5.97282 27.2227C6.05281 27.027 6.1716 26.8488 6.32228 26.6986C6.47296 26.5484 6.65254 26.4291 6.85055 26.3477C7.04856 26.2663 7.26105 26.2244 7.47569 26.2245H14.9937V23.0648H11.714V19.7387H34.3675C34.8167 19.7402 35.247 19.9162 35.5646 20.2283C35.8822 20.5404 36.0614 20.9632 36.0629 21.4046C36.0598 21.8451 35.88 22.2664 35.5626 22.5773C35.2452 22.8882 34.8157 23.0634 34.3675 23.0648H30.55C30.1256 23.0663 29.7187 23.2315 29.4169 23.5248C29.1152 23.8181 28.9426 24.2161 28.9365 24.6332Z" fill="#7BD8D6"/>
<path d="M35.5366 20.158V22.5995C35.2203 22.8908 34.8008 23.0494 34.3674 23.0418H33.1982V21.7148C33.1982 21.3674 33.0578 21.0343 32.8078 20.7886C32.5579 20.543 32.2188 20.4051 31.8653 20.4051H17.8348V19.7157H34.3674C34.8008 19.708 35.2203 19.8667 35.5366 20.158Z" fill="#5CCFCD"/>
<path d="M26.3643 15.4245V19.7157H16.2448V15.4245C16.2448 15.1358 16.3028 14.8499 16.4154 14.5833C16.528 14.3167 16.693 14.0746 16.901 13.8707C17.109 13.6669 17.3559 13.5053 17.6275 13.3953C17.899 13.2854 18.1901 13.2292 18.4838 13.23H24.1429C24.7331 13.233 25.2981 13.4655 25.7144 13.8767C26.1307 14.288 26.3643 14.8444 26.3643 15.4245Z" fill="#6A7680"/>
<path d="M23.4823 15.4245V19.7157H16.2448V15.4245C16.2448 15.1358 16.3028 14.8499 16.4154 14.5833C16.528 14.3167 16.693 14.0746 16.901 13.8707C17.109 13.6669 17.3559 13.5053 17.6275 13.3953C17.899 13.2854 18.1901 13.2292 18.4838 13.23H21.2666C21.8559 13.2345 22.4194 13.4677 22.8343 13.8787C23.2494 14.2898 23.4823 14.8454 23.4823 15.4245Z" fill="#AEB7BD"/>
<path d="M33.6543 21.9159V23.3406H30.2753V21.9159C30.2745 21.8196 30.2931 21.7241 30.3301 21.6349C30.3671 21.5457 30.4216 21.4646 30.4907 21.3962C30.5597 21.3279 30.6418 21.2737 30.7322 21.2367C30.8227 21.1996 30.9198 21.1806 31.0177 21.1806H32.906C33.0044 21.1798 33.1021 21.1983 33.1933 21.235C33.2844 21.2717 33.3672 21.3258 33.4369 21.3943C33.5065 21.4627 33.5616 21.544 33.5989 21.6336C33.6362 21.7231 33.655 21.8191 33.6543 21.9159Z" fill="#6A7680"/>
<path d="M32.6956 21.9159V23.3406H30.2753V21.9159C30.2745 21.8196 30.2931 21.7241 30.3301 21.6349C30.3671 21.5457 30.4216 21.4646 30.4907 21.3962C30.5597 21.3279 30.6418 21.2737 30.7322 21.2367C30.8227 21.1996 30.9198 21.1806 31.0177 21.1806H31.9472C32.0457 21.1798 32.1433 21.1983 32.2345 21.235C32.3257 21.2717 32.4085 21.3258 32.4781 21.3943C32.5478 21.4627 32.6029 21.544 32.6401 21.6336C32.6775 21.7231 32.6963 21.8191 32.6956 21.9159Z" fill="#AEB7BD"/>
<path d="M27.9369 30.4065C27.7096 30.2287 27.4266 30.1333 27.136 30.1365H20.8398C20.7214 30.1351 20.6084 30.0877 20.5252 30.0049C20.4421 29.9222 20.3954 29.8105 20.3955 29.6941V29.4529C20.3955 29.1055 20.255 28.7724 20.0051 28.5268C19.7551 28.2811 19.4161 28.1431 19.0626 28.1431H13.0996C12.9737 28.1443 12.8489 28.1678 12.7313 28.212V28.1431H12.0883V29.0738V29.137C12.0875 29.268 12.1131 29.3978 12.1636 29.519C12.2141 29.6402 12.2884 29.7505 12.3824 29.8435C12.4764 29.9363 12.5881 30.01 12.7112 30.0604C12.8344 30.1107 12.9663 30.1365 13.0996 30.1365H15.8414C16.0352 30.1365 16.2211 30.2122 16.3581 30.3468C16.4952 30.4816 16.5721 30.6642 16.5721 30.8546V31.228C16.5721 31.6104 16.7268 31.9772 17.002 32.2476C17.2771 32.518 17.6503 32.6699 18.0395 32.6699H27.1594C27.3288 32.6707 27.4966 32.6386 27.6533 32.5754C27.8101 32.5122 27.9526 32.4193 28.0726 32.3018C28.1927 32.1844 28.2879 32.0448 28.3529 31.8911C28.4179 31.7374 28.4513 31.5725 28.4513 31.4061V30.4065H27.9369Z" fill="#6A7680"/>
<path d="M28.4513 30.4065C28.4513 30.7433 28.3153 31.0662 28.073 31.3043C27.8307 31.5424 27.502 31.6761 27.1594 31.6761H18.0395C17.6503 31.6761 17.2771 31.5242 17.002 31.2538C16.7268 30.9834 16.5721 30.6166 16.5721 30.2341V29.8551C16.5721 29.6646 16.4952 29.4819 16.3581 29.3473C16.2211 29.2127 16.0352 29.137 15.8414 29.137H13.0996C12.9666 29.1378 12.8347 29.1126 12.7117 29.0629C12.5887 29.0132 12.4768 28.94 12.3827 28.8476C12.2887 28.7552 12.2143 28.6453 12.1637 28.5243C12.1131 28.4035 12.0875 28.2739 12.0883 28.1431C12.0883 27.8796 12.1948 27.6268 12.3845 27.4404C12.5742 27.254 12.8314 27.1493 13.0996 27.1493H19.0626C19.4161 27.1493 19.7551 27.2873 20.0051 27.5329C20.255 27.7786 20.3955 28.1117 20.3955 28.4591V28.6946C20.3947 28.7525 20.4057 28.8098 20.4277 28.8634C20.4496 28.9171 20.4822 28.9659 20.5235 29.0071C20.5649 29.0482 20.6141 29.0809 20.6684 29.1032C20.7227 29.1254 20.7809 29.137 20.8398 29.137H27.1594C27.502 29.137 27.8307 29.2707 28.073 29.5088C28.3153 29.7469 28.4513 30.0698 28.4513 30.4065Z" fill="#AEB7BD"/>
<path d="M39.6698 20.767V23.5015H33.1983V20.767C33.1983 20.5829 33.2352 20.4007 33.3068 20.2306C33.3786 20.0605 33.4836 19.906 33.6161 19.7759C33.7486 19.6457 33.9058 19.5424 34.0788 19.472C34.2518 19.4016 34.4374 19.3653 34.6247 19.3653H38.2317C38.42 19.3638 38.6068 19.399 38.7812 19.4687C38.9556 19.5385 39.1142 19.6415 39.2479 19.7717C39.3816 19.9021 39.4878 20.0571 39.5601 20.2279C39.6326 20.3988 39.6698 20.582 39.6698 20.767Z" fill="#6A7680"/>
<path d="M37.8342 20.767V23.5014H33.1983V20.767C33.1983 20.5828 33.2352 20.4006 33.3068 20.2306C33.3786 20.0605 33.4836 19.9059 33.6161 19.7758C33.7486 19.6457 33.9058 19.5423 34.0788 19.472C34.2518 19.4015 34.4374 19.3652 34.6247 19.3652H36.3785C36.5683 19.3614 36.7569 19.3948 36.9334 19.4636C37.1098 19.5323 37.2705 19.6349 37.4061 19.7655C37.5417 19.896 37.6493 20.0518 37.7229 20.2238C37.7964 20.3958 37.8342 20.5804 37.8342 20.767Z" fill="#AEB7BD"/>
<path d="M18.9924 24.6734V25.4489C18.9924 25.8329 18.8372 26.2011 18.561 26.4726C18.2847 26.744 17.9099 26.8966 17.5192 26.8966H7.83232C7.38981 26.8967 6.96112 27.0481 6.61979 27.3247C6.27845 27.6015 6.04573 27.9863 5.96158 28.4132C5.88635 28.2306 5.84673 28.0357 5.84467 27.8387C5.84156 27.6268 5.88153 27.4165 5.96225 27.22C6.04296 27.0235 6.16279 26.8448 6.31471 26.6945C6.46664 26.5442 6.6476 26.4251 6.84697 26.3444C7.04634 26.2637 7.26009 26.2228 7.47572 26.2245H14.9937V23.9668L17.1275 23.9266H18.25C18.4485 23.9311 18.6373 24.0117 18.7761 24.1513C18.9149 24.2909 18.9925 24.4783 18.9924 24.6734Z" fill="#5CCFCD"/>
<path d="M18.5831 20.4567V24.748H8.45772V20.4567C8.45772 19.8747 8.69299 19.3165 9.11178 18.905C9.53064 18.4935 10.0986 18.2623 10.6909 18.2623H16.3557C16.947 18.2638 17.5136 18.4956 17.9311 18.907C18.3486 19.3184 18.5831 19.8757 18.5831 20.4567Z" fill="#6A7680"/>
<path d="M15.7127 20.4567V24.748H8.45772V20.4567C8.45772 19.8747 8.69299 19.3165 9.11178 18.905C9.53064 18.4935 10.0986 18.2623 10.6909 18.2623H13.4795C14.0718 18.2623 14.6398 18.4935 15.0585 18.905C15.4774 19.3165 15.7127 19.8747 15.7127 20.4567Z" fill="#AEB7BD"/>
<path d="M11.4977 22.6685V24.7883H6.45248V22.6513C6.45248 22.3618 6.56953 22.0842 6.77783 21.8794C6.98614 21.6748 7.26866 21.5598 7.56326 21.5598H10.3986C10.5449 21.5613 10.6896 21.5912 10.8241 21.6478C10.9587 21.7044 11.0805 21.7866 11.1827 21.8896C11.2848 21.9927 11.3652 22.1145 11.4193 22.2482C11.4733 22.3818 11.4999 22.5247 11.4977 22.6685Z" fill="#6A7680"/>
<path d="M10.0653 22.6685V24.7883H6.45248V22.6513C6.45248 22.3618 6.56953 22.0842 6.77783 21.8794C6.98614 21.6748 7.26866 21.5598 7.56326 21.5598H8.94876C9.09639 21.5598 9.24255 21.5886 9.37872 21.6444C9.51498 21.7003 9.63864 21.7821 9.7425 21.8852C9.84627 21.9883 9.92835 22.1107 9.9837 22.2451C10.0391 22.3796 10.0669 22.5235 10.0653 22.6685Z" fill="#AEB7BD"/>
<path d="M17.1159 23.4899V26.2244H10.6853V23.4899C10.6853 23.1182 10.8356 22.7616 11.1031 22.4987C11.3706 22.2359 11.7334 22.0882 12.1118 22.0882H15.7188C16.092 22.0957 16.4473 22.2467 16.7086 22.5088C16.9698 22.7709 17.116 23.1231 17.1159 23.4899Z" fill="#6A7680"/>
<path d="M15.2801 23.4899V26.2244H10.6558V23.4899C10.6558 23.1182 10.8061 22.7616 11.0737 22.4987C11.3412 22.2359 11.704 22.0882 12.0823 22.0882H13.8362C14.0249 22.0859 14.2123 22.1206 14.3874 22.19C14.5625 22.2593 14.7218 22.3622 14.8561 22.4926C14.9904 22.623 15.0971 22.7783 15.1699 22.9496C15.2427 23.1207 15.2801 23.3044 15.2801 23.4899Z" fill="#AEB7BD"/>
<path d="M36.0686 27.8215C36.0686 27.8789 36.0686 27.9364 36.0686 27.9939C36.0316 27.6994 35.8863 27.4283 35.6603 27.2316C35.4343 27.0347 35.1429 26.9259 34.8409 26.9254H30.398C30.0134 26.9254 29.6447 26.7753 29.3728 26.5081C29.1009 26.2408 28.9481 25.8785 28.9481 25.5007V24.6332C28.9481 25.0553 29.1187 25.46 29.4224 25.7584C29.7261 26.0568 30.1379 26.2245 30.5674 26.2245H34.4551C34.8841 26.2275 35.2945 26.3971 35.5967 26.6962C35.899 26.9955 36.0686 27.4 36.0686 27.8215Z" fill="#5CCFCD"/>
</svg>
