<svg width="45" height="45" viewBox="0 0 45 45" fill="none" xmlns="http://www.w3.org/2000/svg">
<path d="M42.3968 35.0928C42.3968 35.4117 41.8313 35.7164 40.8079 35.9923C39.813 36.2627 38.3856 36.5055 36.6243 36.7119C35.132 36.8874 33.4004 37.0353 31.491 37.149C31.3812 37.1567 31.2713 37.1622 31.1604 37.1688C31.1243 37.1711 31.0869 37.1732 31.0506 37.1755C30.976 37.1799 30.9002 37.1832 30.8245 37.1876C30.3819 37.2119 29.9307 37.234 29.4706 37.2549C27.1713 37.3575 24.6688 37.4139 22.05 37.4139C20.3898 37.4139 18.7756 37.3907 17.2307 37.3476C16.9748 37.341 16.7212 37.3333 16.4697 37.3256C8.74168 37.075 2.8891 36.3157 1.86352 35.3853C1.75812 35.2893 1.70322 35.1921 1.70322 35.0928C1.70322 34.5045 3.62699 33.967 6.79595 33.5576C9.44883 33.2154 12.9758 32.9627 16.9781 32.8457C18.5989 32.7982 20.2986 32.7728 22.05 32.7728C23.4302 32.7728 24.7786 32.7882 26.082 32.8192C27.5446 32.8522 28.9501 32.9031 30.281 32.9704C30.965 33.0046 31.6293 33.0432 32.2717 33.0862C32.2805 33.0874 32.2892 33.0874 32.297 33.0874C32.3815 33.094 32.4661 33.0995 32.5495 33.105C33.1907 33.1491 33.8079 33.1977 34.3997 33.2496C34.4876 33.2562 34.5754 33.264 34.6622 33.2717C34.9179 33.2949 35.1683 33.3192 35.4132 33.3435C35.9128 33.393 36.3904 33.445 36.845 33.5001C38.8567 33.743 40.4137 34.0355 41.3602 34.3599C42.0322 34.5906 42.3968 34.8367 42.3968 35.0928Z" fill="#CEEFFF"/>
<path d="M37.2035 34.1714C37.0707 34.6088 36.9251 35.0374 36.77 35.4523C35.9894 35.6646 34.8692 35.8551 33.487 36.017C33.6714 35.4003 33.7946 34.8555 33.7541 34.4797C33.718 34.148 33.6869 33.8145 33.6603 33.4966C33.6198 33.0212 33.5887 32.5821 33.5663 32.2356C33.5371 31.7809 33.5232 31.4881 33.5232 31.4881C33.5232 31.4881 33.5448 31.3149 33.5878 31.0213C33.6051 30.9009 33.6258 30.7605 33.6499 30.6039C33.8059 29.5965 34.1023 27.9041 34.5202 26.4811C34.7192 25.8004 34.9467 25.182 35.2001 24.7281C35.6257 23.9642 36.1247 23.668 36.6864 24.3366C36.7269 24.386 36.7691 24.4397 36.8105 24.5003C37.007 24.7783 37.2095 25.1751 37.4198 25.7086C37.4499 25.7856 37.4792 25.8627 37.5059 25.9407C37.536 26.0229 37.5637 26.1052 37.5895 26.1884C38.3607 28.6126 38.0022 31.5531 37.2035 34.1714Z" fill="#5579A0"/>
<path d="M42.3967 6.68701C42.3967 6.68701 42.4088 16.8344 37.5895 26.1884C37.0811 27.175 36.5193 28.1519 35.898 29.1081C35.2862 30.0505 34.6158 30.972 33.8826 31.8598C33.7783 31.9853 33.6731 32.1109 33.5663 32.2357C33.2363 32.622 32.8934 33.0021 32.5366 33.3737C31.6284 34.3239 30.6357 35.2229 29.5509 36.0526C29.5156 36.0803 29.4802 36.1072 29.444 36.134C29.4431 36.1357 29.4423 36.1366 29.4414 36.1357C29.3329 36.218 29.2234 36.2995 29.1132 36.3809C29.0545 36.3843 28.9951 36.3869 28.9356 36.3904C28.5884 36.4094 28.2343 36.4268 27.8732 36.4433C26.0689 36.5238 24.1051 36.5679 22.05 36.5679C20.7472 36.5679 19.4805 36.5497 18.2681 36.516C18.0673 36.5108 17.8683 36.5047 17.671 36.4986L18.0699 32.9831L18.331 30.6844L32.2006 15.7266L35.0639 11.6542L35.225 11.4246L35.3422 11.2575L36.6141 10.109L36.7726 9.96608L38.5632 8.34995L38.7209 8.20705L38.9707 7.98185L40.265 7.40589L40.4304 7.33227L41.2861 6.95118L42.3864 6.68961L42.3967 6.68701Z" fill="#D7ECFF"/>
<path d="M42.3959 6.6861C42.3959 6.6861 42.3933 6.68696 42.3873 6.68956C42.2978 6.72074 41.5402 6.99616 40.4597 7.63709C40.4054 7.66913 40.3511 7.70204 40.2952 7.73496C40.2952 7.73583 40.2943 7.73583 40.2943 7.73583C39.8341 8.01645 39.3215 8.36116 38.7803 8.77776L38.7795 8.77862C38.726 8.82019 38.6726 8.86091 38.6183 8.90421L38.6175 8.90508C38.0401 9.36151 37.4343 9.89935 36.8277 10.5308L36.8269 10.5316C36.7744 10.587 36.7218 10.6417 36.6692 10.6988L36.6683 10.6996C36.1927 11.2072 35.7197 11.7719 35.2612 12.3998C35.2604 12.3998 35.2604 12.4007 35.2604 12.4007C35.2043 12.4778 35.1492 12.554 35.0941 12.6328C35.0932 12.6328 35.0932 12.6337 35.0932 12.6337C34.4573 13.5353 33.8558 14.5599 33.3259 15.7223C33.3259 15.7223 32.5383 17.6528 32.3978 19.6977C32.3177 20.867 32.3108 22.9751 31.8731 25.2633C31.5456 26.9783 30.9752 28.7945 29.9516 30.3925C29.9516 30.3925 30.0748 30.8455 30.117 31.6622V31.664C30.1222 31.7618 30.1256 31.8666 30.1282 31.9749V31.9775C30.136 32.3179 30.1273 32.7094 30.0929 33.1459V33.1476C30.092 33.1554 30.0911 33.1641 30.0911 33.1727C30.0843 33.2568 30.0765 33.3434 30.0679 33.4308V33.4325C30.0015 34.0917 29.8758 34.8426 29.6569 35.6724C29.6569 35.6732 29.656 35.6741 29.656 35.6749C29.6258 35.7867 29.5957 35.8993 29.5621 36.0145C29.5621 36.0153 29.5612 36.0162 29.5612 36.0171C29.5578 36.0291 29.5543 36.0404 29.5509 36.0525C29.5216 36.1539 29.4906 36.2561 29.4587 36.3601C29.3725 36.3661 29.2864 36.3704 29.1993 36.3756C29.1709 36.3773 29.1416 36.3791 29.1131 36.3808C29.0545 36.3843 28.9951 36.3869 28.9356 36.3903C28.5884 36.4094 28.2343 36.4268 27.8732 36.4431C26.0689 36.5237 24.1051 36.5679 22.05 36.5679C20.7472 36.5679 19.4805 36.5497 18.2681 36.5159C18.0673 36.5107 17.8682 36.5047 17.671 36.4986C11.6065 36.302 7.01374 35.7061 6.20892 34.976C7.53591 34.5629 8.90081 34.0787 10.0796 33.5417C10.5647 33.3217 11.018 33.0922 11.4238 32.8557C11.4238 32.8557 21.1763 28.1441 29.4139 17.58C31.6301 14.7384 33.4801 12.6371 35.0312 11.0834C35.0854 11.0297 35.1389 10.9759 35.1923 10.9231C35.6774 10.4424 36.1332 10.0154 36.5615 9.63781C36.6141 9.59101 36.6666 9.54511 36.7183 9.50011C37.3904 8.91634 37.9927 8.45297 38.533 8.08573C38.5873 8.04849 38.6407 8.01298 38.6933 7.97833C39.2775 7.59291 39.7885 7.32268 40.2366 7.13301C40.2926 7.10875 40.3477 7.08624 40.402 7.06458C41.2852 6.71727 41.9168 6.6861 42.3959 6.6861Z" fill="#618DB5"/>
<path d="M31.2501 24.3339C31.2501 24.3339 31.0043 23.7848 31.4686 23.1672C31.4686 23.1672 31.8612 23.3462 31.7369 23.8607C31.6331 24.2904 31.2501 24.3339 31.2501 24.3339Z" fill="black"/>
<path d="M31.5643 22.7253C31.2007 23.1498 30.9865 23.6529 31.0167 24.2133C31.0165 24.2948 31.0275 24.3757 31.0228 24.4646C30.5701 23.888 30.8532 22.9274 31.5643 22.7253Z" fill="#D7ECFF"/>
<path d="M40.0001 17.554C39.3823 21.1388 38.2923 24.4906 36.7619 27.5169C36.4879 28.0573 36.2002 28.5882 35.8977 29.1079C35.2858 30.0503 34.6155 30.9718 33.8822 31.8596C34.9068 30.4772 35.8167 29.0022 36.6069 27.4415C38.1294 24.4318 39.2134 21.0973 39.8295 17.5297C40.5886 13.1315 40.4387 9.45144 40.2948 7.73655C40.2853 7.61615 40.275 7.50616 40.2646 7.40569C40.2552 7.30522 40.2457 7.21428 40.2371 7.13373C40.2931 7.10948 40.3483 7.08696 40.4025 7.06531C40.4112 7.14326 40.4206 7.23246 40.4301 7.33207C40.4396 7.42474 40.4491 7.52694 40.4594 7.63781C40.605 9.32589 40.7731 13.0692 40.0001 17.554Z" fill="#618DB5"/>
<path d="M38.5641 17.3307C38.2177 19.8268 37.63 22.2286 36.8105 24.5004C36.5236 25.2972 36.2083 26.0767 35.8653 26.8397C35.2078 28.2983 34.4487 29.6944 33.5879 31.0213C33.0761 31.8121 32.5298 32.5769 31.9472 33.3174C31.2079 34.2589 30.4126 35.1596 29.563 36.0153L29.5612 36.0171C29.5225 36.0561 29.4837 36.0959 29.444 36.134C29.4432 36.1357 29.4415 36.1357 29.4415 36.1357C29.3613 36.2172 29.2803 36.2968 29.1993 36.3757C29.1709 36.3774 29.1416 36.3791 29.1132 36.3809C29.0546 36.3843 28.9951 36.3869 28.9357 36.3903C29.1795 36.1556 29.4199 35.9175 29.6561 35.6749L29.6578 35.6732C30.3945 34.9154 31.0899 34.1238 31.7413 33.3001C32.4264 32.4366 33.0622 31.5366 33.6499 30.6039C34.4211 29.381 35.1087 28.1008 35.7085 26.7678C36.0643 25.9763 36.3909 25.1646 36.6864 24.3366C37.4818 22.1082 38.054 19.7532 38.3935 17.3064C38.894 13.7008 38.776 10.6651 38.6184 8.906V8.90426C38.6003 8.70245 38.5822 8.51711 38.5632 8.34995C38.5537 8.25641 38.5434 8.16893 38.5339 8.08664C38.5882 8.0494 38.6416 8.01389 38.6941 7.97925C38.7028 8.05028 38.7122 8.12649 38.7209 8.20704C38.7407 8.3768 38.7605 8.56734 38.7804 8.77781V8.77954C38.9432 10.5325 39.0776 13.635 38.5641 17.3307Z" fill="#618DB5"/>
<path d="M36.7775 17.4847C36.4716 20.4719 35.8029 23.279 34.7896 25.8279C33.647 28.7034 32.0607 31.2567 30.0685 33.4316C29.8513 33.6688 29.6299 33.9009 29.4033 34.1287L29.2818 34.0058C29.56 33.7261 29.8307 33.4402 30.0935 33.1466C31.9995 31.0254 33.522 28.5484 34.6285 25.7673C35.6358 23.2331 36.301 20.4424 36.606 17.4725C36.8878 14.7244 36.805 12.3252 36.6689 10.7004C36.6353 10.2959 36.5982 9.93996 36.562 9.63855C36.6146 9.59175 36.6672 9.54585 36.7189 9.50085C36.7551 9.79092 36.7921 10.1374 36.8275 10.5323C36.9714 12.1658 37.0696 14.6395 36.7775 17.4847Z" fill="#618DB5"/>
<path d="M35.0782 16.9676C34.6922 20.7854 33.5151 26.4446 30.1288 31.9756C30.0348 32.1306 29.9374 32.2857 29.8392 32.4407L29.6944 32.3472C29.8392 32.1194 29.9805 31.8916 30.1175 31.6629C33.3815 26.2324 34.5267 20.7031 34.9068 16.9554C35.0765 15.2778 35.1127 13.8036 35.0937 12.6344C35.0834 12.0324 35.0592 11.5111 35.0317 11.084C35.086 11.0304 35.1394 10.9767 35.1928 10.9238C35.2221 11.3266 35.248 11.8237 35.2609 12.4014C35.2894 13.6105 35.26 15.173 35.0782 16.9676Z" fill="#618DB5"/>
<path d="M31.8731 25.2634C31.5456 26.9783 30.9752 28.7945 29.9516 30.3926C29.9516 30.3926 29.3855 29.2943 28.5091 33.0809C28.3118 33.9323 28.0989 35.0305 27.8732 36.4432C26.0689 36.5237 24.1051 36.5679 22.05 36.5679C20.7471 36.5679 19.4804 36.5497 18.2681 36.516C20.6592 35.6464 23.0486 34.4927 25.214 32.9623C27.9275 31.0464 30.2902 28.5408 31.8731 25.2634Z" fill="#5579A0"/>
</svg>
