<svg width="45" height="45" viewBox="0 0 45 45" fill="none" xmlns="http://www.w3.org/2000/svg">
<g clip-path="url(#clip0_113_2090)">
<mask id="mask0_113_2090" style="mask-type:luminance" maskUnits="userSpaceOnUse" x="0" y="0" width="45" height="45">
<path d="M45 0H0V45H45V0Z" fill="white"/>
</mask>
<g mask="url(#mask0_113_2090)">
<path d="M32.7472 19.3177C32.7499 19.721 32.6476 20.1185 32.4497 20.4733C32.2572 20.8129 31.9839 21.1029 31.6526 21.3193L31.3975 21.4638L9.87688 33.5873C9.46501 33.8646 8.97534 34.0123 8.47411 34.0103C7.81738 34.0103 7.18753 33.757 6.72315 33.3062C6.25877 32.8553 5.99789 32.2438 5.99789 31.6062C5.99799 31.1403 6.13633 30.6843 6.39642 30.2927C6.65652 29.9011 7.02736 29.5905 7.46449 29.3982L28.8682 17.3366C29.1398 17.1549 29.4461 17.0277 29.7691 16.9625C30.092 16.8973 30.4252 16.8954 30.7489 16.9569C31.0727 17.0184 31.3804 17.1421 31.6542 17.3207C31.9281 17.4993 32.1624 17.7292 32.3434 17.997C32.6067 18.39 32.747 18.8488 32.7472 19.3177Z" fill="#9DB4D7"/>
<path d="M30.76 18.8947C30.7563 19.2986 30.6505 19.6954 30.4518 20.0503C30.2593 20.3899 29.986 20.6799 29.6547 20.8963L29.3996 21.0305L7.87899 33.154C7.46712 33.4313 6.97744 33.579 6.47622 33.577C6.15104 33.577 5.82904 33.5148 5.52861 33.394C5.22818 33.2732 4.95519 33.0961 4.72526 32.8729C4.49532 32.6496 4.31294 32.3846 4.1885 32.0929C4.06406 31.8013 4 31.4886 4 31.1729C3.99932 30.5662 4.23906 29.9825 4.66954 29.5427C4.89615 29.3021 5.17101 29.109 5.47724 28.9752L26.8703 16.9033C27.286 16.6349 27.7739 16.4914 28.2731 16.4906C28.6844 16.4882 29.0897 16.5862 29.4518 16.7755C29.8139 16.9648 30.1212 17.2393 30.3455 17.574C30.6196 17.9627 30.7643 18.4236 30.76 18.8947Z" fill="#8F7C4C"/>
<path d="M30.3884 17.574C30.2582 17.7105 30.112 17.8317 29.9526 17.9351L29.6976 18.0796L8.17696 30.2031C7.76212 30.4732 7.27363 30.6169 6.77413 30.6158C6.68245 30.7862 6.54773 30.9312 6.38254 31.0372C6.21734 31.1432 6.0271 31.2067 5.82969 31.2218C5.63229 31.2369 5.43413 31.203 5.25389 31.1234C5.07364 31.0438 4.91719 30.9211 4.79918 30.7667C4.68118 30.6123 4.60549 30.4314 4.57923 30.2408C4.55297 30.0503 4.57703 29.8564 4.64909 29.6773C4.72114 29.4982 4.83883 29.3399 4.99118 29.2171C5.14354 29.0943 5.32555 29.0111 5.52009 28.9752L26.9132 16.9033C27.3289 16.6349 27.8168 16.4914 28.316 16.4906C28.7273 16.4882 29.1325 16.5862 29.4946 16.7755C29.8567 16.9648 30.1641 17.2393 30.3884 17.574Z" fill="#BBA57E"/>
<path d="M6.51849 33.0508C7.58672 33.0508 8.45269 32.2101 8.45269 31.173C8.45269 30.1359 7.58672 29.2951 6.51849 29.2951C5.45026 29.2951 4.58429 30.1359 4.58429 31.173C4.58429 32.2101 5.45026 33.0508 6.51849 33.0508Z" fill="#FFD386"/>
<path d="M6.51886 32.0706C7.0295 32.0706 7.44345 31.6687 7.44345 31.173C7.44345 30.6772 7.0295 30.2753 6.51886 30.2753C6.00822 30.2753 5.59427 30.6772 5.59427 31.173C5.59427 31.6687 6.00822 32.0706 6.51886 32.0706Z" fill="#E8BF7E"/>
<path d="M37.1367 21.1749C37.141 21.5798 37.0346 21.9785 36.8285 22.3305C36.6388 22.6721 36.3649 22.9627 36.0315 23.1766C35.9564 23.2343 35.8743 23.2829 35.787 23.321L14.2663 35.4445C13.982 35.6215 13.6634 35.7402 13.3301 35.7932C12.9968 35.8462 12.6558 35.8325 12.3282 35.7529C12.0005 35.6732 11.6931 35.5293 11.4249 35.33C11.1566 35.1307 10.9332 34.8802 10.7684 34.594C10.6035 34.3078 10.5008 33.9919 10.4664 33.6656C10.432 33.3394 10.4667 33.0098 10.5684 32.6971C10.6701 32.3844 10.8365 32.0952 11.0576 31.8473C11.2787 31.5993 11.5497 31.3979 11.8539 31.2555L33.2576 19.1939C33.6303 18.9494 34.0642 18.8077 34.5133 18.7837C34.9623 18.7597 35.4097 18.8543 35.8077 19.0576C36.2057 19.2609 36.5395 19.5651 36.7735 19.938C37.0075 20.3108 37.1331 20.7383 37.1367 21.1749Z" fill="#9DB4D7"/>
<path d="M35.2128 20.7621C35.2141 21.1653 35.1118 21.5625 34.9152 21.9177C34.7217 22.2599 34.4444 22.5505 34.1075 22.7638L33.8631 22.9082L12.3424 35.0214C11.9696 35.2714 11.5335 35.4179 11.0813 35.4448C10.629 35.4717 10.1777 35.3782 9.77618 35.1742C9.37468 34.9703 9.03826 34.6638 8.80314 34.2877C8.56803 33.9116 8.44319 33.4803 8.44217 33.0404C8.44149 32.4337 8.68122 31.8499 9.11171 31.4102C9.33832 31.1696 9.61318 30.9765 9.9194 30.8427L31.3232 18.7811C31.735 18.5038 32.2247 18.3561 32.7259 18.3581C33.0515 18.3567 33.3742 18.4179 33.6752 18.5383C33.9763 18.6586 34.2498 18.8356 34.48 19.0591C34.7102 19.2826 34.8926 19.5482 35.0165 19.8405C35.1404 20.1328 35.2035 20.446 35.2021 20.7621H35.2128Z" fill="#8F7C4C"/>
<path d="M34.8092 19.4414C34.6729 19.5757 34.5234 19.6966 34.3628 19.8025L34.1183 19.947L12.5977 32.0705C12.183 32.342 11.6952 32.4891 11.1949 32.4935C11.1032 32.6663 10.9675 32.8135 10.801 32.9214C10.6344 33.0292 10.4423 33.0942 10.2427 33.11C10.0432 33.1259 9.84274 33.0921 9.66031 33.012C9.47788 32.9319 9.31945 32.808 9.19996 32.652C9.08047 32.496 9.00383 32.3131 8.97728 32.1204C8.95072 31.9277 8.97512 31.7317 9.04818 31.5507C9.12123 31.3697 9.2405 31.2097 9.39481 31.0859C9.54913 30.962 9.73344 30.8783 9.93027 30.8427L31.334 18.7811C31.7458 18.5038 32.2356 18.3561 32.7368 18.3581C33.1479 18.3566 33.5528 18.4549 33.9147 18.6441C34.2767 18.8334 34.5841 19.1074 34.8092 19.4414Z" fill="#BBA57E"/>
<path d="M10.9395 34.9183C12.0077 34.9183 12.8737 34.0775 12.8737 33.0404C12.8737 32.0033 12.0077 31.1626 10.9395 31.1626C9.87128 31.1626 9.00531 32.0033 9.00531 33.0404C9.00531 34.0775 9.87128 34.9183 10.9395 34.9183Z" fill="#FFD386"/>
<path d="M10.9399 33.9381C11.4505 33.9381 11.8645 33.5362 11.8645 33.0404C11.8645 32.5447 11.4505 32.1428 10.9399 32.1428C10.4292 32.1428 10.0153 32.5447 10.0153 33.0404C10.0153 33.5362 10.4292 33.9381 10.9399 33.9381Z" fill="#E8BF7E"/>
<path d="M41.5787 23.0424C41.5814 23.4458 41.4791 23.8433 41.2812 24.198C41.0907 24.5423 40.8126 24.8336 40.4735 25.0441C40.3985 25.1018 40.3163 25.1504 40.229 25.1885L18.7084 37.312C18.2965 37.5893 17.8068 37.737 17.3056 37.7351C16.7347 37.7425 16.1785 37.559 15.7304 37.2154C15.2824 36.8718 14.9698 36.389 14.8451 35.848C14.7205 35.307 14.7914 34.7409 15.0459 34.2447C15.3004 33.7485 15.7231 33.3524 16.2429 33.123L37.6465 21.0614C38.059 20.7853 38.5483 20.6377 39.0494 20.6383C39.3749 20.637 39.6976 20.6982 39.9987 20.8185C40.2997 20.9389 40.5732 21.1159 40.8034 21.3394C41.0337 21.563 41.216 21.8285 41.3399 22.1208C41.4639 22.4131 41.527 22.7263 41.5256 23.0424H41.5787Z" fill="#9DB4D7"/>
<path d="M39.6232 22.6298C39.6297 23.0226 39.5361 23.411 39.3506 23.7602C39.1652 24.1094 38.8938 24.4087 38.5605 24.6315L38.3053 24.7759L16.7529 36.8582C16.341 37.1355 15.8513 37.2832 15.35 37.2812C14.6933 37.2812 14.0634 37.0279 13.5991 36.5771C13.1347 36.1262 12.8738 35.5147 12.8738 34.8771C12.8692 34.2716 13.1052 33.6877 13.5327 33.2469C13.7653 33.0083 14.0432 32.8156 14.3511 32.6794L35.7442 20.6178C36.116 20.3697 36.5505 20.2249 37.0009 20.199C37.4513 20.1732 37.9005 20.2673 38.2998 20.4712C38.6991 20.6752 39.0334 20.9812 39.2666 21.3561C39.4999 21.7311 39.6232 22.1608 39.6232 22.5989V22.6298Z" fill="#8F7C4C"/>
<path d="M39.2618 21.309C39.1317 21.4455 38.9855 21.5668 38.8261 21.6701L38.571 21.8146L17.0504 33.9381C16.7788 34.1198 16.4725 34.247 16.1496 34.3122C15.8266 34.3774 15.4934 34.3793 15.1697 34.3178C14.846 34.2563 14.5382 34.1326 14.2644 33.954C13.9906 33.7754 13.7563 33.5455 13.5753 33.2777C13.8078 33.0391 14.0856 32.8465 14.3935 32.7103L35.7866 20.6487C36.0583 20.4669 36.3646 20.3397 36.6875 20.2745C37.0105 20.2093 37.3437 20.2074 37.6674 20.2689C37.9911 20.3304 38.2989 20.4541 38.5727 20.6327C38.8465 20.8113 39.0808 21.0413 39.2618 21.309Z" fill="#BBA57E"/>
<path d="M15.3499 36.7963C16.4182 36.7963 17.2841 35.9555 17.2841 34.9184C17.2841 33.8813 16.4182 33.0406 15.3499 33.0406C14.2817 33.0406 13.4157 33.8813 13.4157 34.9184C13.4157 35.9555 14.2817 36.7963 15.3499 36.7963Z" fill="#FFD386"/>
<path d="M15.3503 35.816C15.8609 35.816 16.2749 35.4141 16.2749 34.9183C16.2749 34.4226 15.8609 34.0207 15.3503 34.0207C14.8397 34.0207 14.4257 34.4226 14.4257 34.9183C14.4257 35.4141 14.8397 35.816 15.3503 35.816Z" fill="#E8BF7E"/>
<path d="M45.9999 24.91C46.0042 25.3149 45.8978 25.7136 45.6916 26.0656C45.5019 26.4071 45.2281 26.6978 44.8946 26.9117C44.818 26.9672 44.7362 27.0156 44.6502 27.0561L23.1295 39.1796C22.8452 39.3566 22.5266 39.4753 22.1933 39.5283C21.86 39.5813 21.519 39.5676 21.1913 39.4879C20.8637 39.4083 20.5562 39.2644 20.288 39.0651C20.0198 38.8658 19.7964 38.6153 19.6316 38.3291C19.4667 38.0429 19.364 37.7269 19.3296 37.4007C19.2952 37.0745 19.3298 36.7449 19.4315 36.4322C19.5332 36.1195 19.6997 35.8303 19.9208 35.5823C20.1419 35.3344 20.4129 35.133 20.7171 34.9906L42.1102 22.929C42.3818 22.7472 42.6881 22.62 43.0111 22.5548C43.3341 22.4896 43.6672 22.4877 43.9909 22.5492C44.3146 22.6107 44.6225 22.7344 44.8963 22.913C45.1701 23.0917 45.4044 23.3216 45.5854 23.5893C45.8571 23.9791 46.0015 24.4394 45.9999 24.91Z" fill="#9DB4D7"/>
<path d="M44.044 24.4767C44.0453 24.8799 43.943 25.2771 43.7464 25.6323C43.5467 25.9701 43.2706 26.2594 42.9388 26.4784L42.6943 26.6228L21.195 38.7566C20.8222 39.0039 20.3872 39.1479 19.9366 39.1734C19.4859 39.1989 19.0366 39.1047 18.6368 38.9011C18.2371 38.6975 17.902 38.3921 17.6674 38.0177C17.4328 37.6432 17.3077 37.2139 17.3053 36.7756C17.3046 36.1689 17.5443 35.5852 17.9748 35.1454C18.2014 34.9048 18.4763 34.7117 18.7825 34.5779L40.1862 22.5163C40.5981 22.239 41.0879 22.0913 41.5891 22.0933C42.2393 22.096 42.8621 22.348 43.3219 22.7944C43.7817 23.2407 44.0412 23.8454 44.044 24.4767Z" fill="#8F7C4C"/>
<path d="M43.6406 23.1767C43.5044 23.311 43.3549 23.4319 43.1943 23.5378L42.9498 23.6823L21.4292 35.8264C21.5486 36.1904 21.5558 36.5803 21.4501 36.9482C21.3443 37.3161 21.1301 37.6461 20.8339 37.8974C20.5376 38.1488 20.1722 38.3106 19.7825 38.3631C19.3927 38.4155 18.9957 38.3563 18.6402 38.1926C18.2847 38.029 17.9861 37.7681 17.7812 37.442C17.5764 37.1158 17.4742 36.7387 17.4871 36.3569C17.5 35.9751 17.6275 35.6053 17.854 35.2929C18.0804 34.9806 18.3959 34.7392 18.7617 34.5986L40.1654 22.537C40.5773 22.2597 41.067 22.112 41.5683 22.1139C41.9769 22.113 42.3795 22.2094 42.7408 22.3947C43.1021 22.5799 43.4111 22.8485 43.6406 23.1767Z" fill="#BBA57E"/>
<path d="M19.7604 38.6637C20.8286 38.6637 21.6946 37.823 21.6946 36.7859C21.6946 35.7487 20.8286 34.908 19.7604 34.908C18.6921 34.908 17.8262 35.7487 17.8262 36.7859C17.8262 37.823 18.6921 38.6637 19.7604 38.6637Z" fill="#FFD386"/>
<path d="M19.7608 37.6835C20.2714 37.6835 20.6854 37.2816 20.6854 36.7859C20.6854 36.2901 20.2714 35.8882 19.7608 35.8882C19.2501 35.8882 18.8362 36.2901 18.8362 36.7859C18.8362 37.2816 19.2501 37.6835 19.7608 37.6835Z" fill="#E8BF7E"/>
<path d="M34.49 16.3667C34.4927 16.7701 34.3903 17.1676 34.1924 17.5223C33.999 17.8646 33.7216 18.1551 33.3847 18.3684L33.1403 18.5128L11.6303 30.6673C11.2156 30.9388 10.7277 31.0859 10.2275 31.0903C9.90143 31.0903 9.57855 31.0278 9.27743 30.9063C8.97631 30.7849 8.70286 30.6069 8.47278 30.3825C8.2427 30.1582 8.06055 29.892 7.93674 29.5991C7.81292 29.3062 7.74989 28.9925 7.75129 28.6759C7.74664 28.0705 7.98264 27.4865 8.41019 27.0457C8.6368 26.8051 8.91166 26.612 9.21788 26.4782L30.6216 14.4166C31.0341 14.1405 31.5234 13.993 32.0245 13.9936C32.35 13.9922 32.6726 14.0535 32.9737 14.1738C33.2748 14.2942 33.5483 14.4712 33.7785 14.6947C34.0088 14.9182 34.1911 15.1838 34.315 15.4761C34.439 15.7684 34.5021 16.0816 34.5007 16.3977L34.49 16.3667Z" fill="#8F7C4C"/>
<path d="M34.0865 15.0462C33.9526 15.1829 33.8028 15.3041 33.6402 15.4073L33.3957 15.5518L11.8751 27.6753C11.9945 28.0393 12.0017 28.4292 11.896 28.7971C11.7902 29.165 11.576 29.495 11.2797 29.7463C10.9835 29.9977 10.618 30.1595 10.2283 30.212C9.83856 30.2644 9.4416 30.2052 9.08608 30.0415C8.73056 29.8779 8.43199 29.617 8.22714 29.2908C8.02228 28.9647 7.92006 28.5876 7.93297 28.2058C7.94588 27.824 8.0734 27.4542 8.29985 27.1418C8.5263 26.8295 8.84176 26.5881 9.20757 26.4475L30.6113 14.3859C31.0238 14.1098 31.5131 13.9622 32.0141 13.9628C32.4247 13.9642 32.8286 14.0637 33.19 14.2527C33.5515 14.4416 33.8594 14.7142 34.0865 15.0462Z" fill="#BBA57E"/>
<path d="M10.2168 30.5333C11.2851 30.5333 12.151 29.6925 12.151 28.6554C12.151 27.6183 11.2851 26.7776 10.2168 26.7776C9.14859 26.7776 8.28262 27.6183 8.28262 28.6554C8.28262 29.6925 9.14859 30.5333 10.2168 30.5333Z" fill="#FFD386"/>
<path d="M10.2172 29.553C10.7279 29.553 11.1418 29.1511 11.1418 28.6553C11.1418 28.1596 10.7279 27.7577 10.2172 27.7577C9.70659 27.7577 9.29263 28.1596 9.29263 28.6553C9.29263 29.1511 9.70659 29.553 10.2172 29.553Z" fill="#E8BF7E"/>
<path d="M38.9116 18.0899C38.9105 18.4941 38.8046 18.8916 38.6034 19.2455C38.4136 19.587 38.1398 19.8777 37.8063 20.0915C37.7283 20.145 37.6466 20.1932 37.5619 20.236L16.0307 32.3595C15.6197 32.6387 15.1294 32.7865 14.6278 32.7825C14.0624 32.7758 13.5161 32.5823 13.0792 32.2337C12.6423 31.8852 12.3409 31.4024 12.2245 30.8652C12.1081 30.3279 12.1838 29.7682 12.4391 29.2783C12.6944 28.7884 13.1141 28.3976 13.6288 28.1704L35.0113 16.1089C35.2829 15.9271 35.5892 15.7999 35.9122 15.7347C36.2352 15.6695 36.5683 15.6676 36.892 15.7291C37.2157 15.7906 37.5236 15.9143 37.7974 16.0929C38.0712 16.2715 38.3055 16.5014 38.4865 16.7692C38.762 17.1578 38.9101 17.6181 38.9116 18.0899Z" fill="#8F7C4C"/>
<path d="M38.4967 16.7692C38.3668 16.909 38.2206 17.0337 38.061 17.1406L37.8059 17.2748L16.2853 29.3982C16.4026 29.7604 16.4084 30.1479 16.3021 30.5132C16.1958 30.8785 15.982 31.2058 15.6869 31.4548C15.3917 31.7039 15.0282 31.8639 14.6408 31.9152C14.2534 31.9666 13.8589 31.907 13.5059 31.7439C13.1528 31.5807 12.8565 31.321 12.6532 30.9967C12.45 30.6724 12.3487 30.2976 12.3617 29.9182C12.3747 29.5388 12.5015 29.1713 12.7265 28.8608C12.9515 28.5504 13.265 28.3104 13.6284 28.1704L35.0109 16.1089C35.2825 15.9271 35.5888 15.7999 35.9118 15.7347C36.2348 15.6695 36.5679 15.6676 36.8916 15.7291C37.2153 15.7906 37.5232 15.9143 37.797 16.0929C38.0708 16.2715 38.3051 16.5014 38.4861 16.7692H38.4967Z" fill="#BBA57E"/>
<path d="M14.6273 32.2562C15.6955 32.2562 16.5615 31.4155 16.5615 30.3784C16.5615 29.3413 15.6955 28.5005 14.6273 28.5005C13.5591 28.5005 12.6931 29.3413 12.6931 30.3784C12.6931 31.4155 13.5591 32.2562 14.6273 32.2562Z" fill="#FFD386"/>
<path d="M14.6277 31.2761C15.1383 31.2761 15.5522 30.8742 15.5522 30.3785C15.5522 29.8827 15.1383 29.4808 14.6277 29.4808C14.117 29.4808 13.7031 29.8827 13.7031 30.3785C13.7031 30.8742 14.117 31.2761 14.6277 31.2761Z" fill="#E8BF7E"/>
<path d="M43.3221 19.8233C43.3277 20.216 43.2337 20.604 43.0483 20.953C42.863 21.3021 42.5921 21.6016 42.2594 21.825C42.1816 21.8757 42.0999 21.9206 42.015 21.9591L20.4518 34.0826C19.9482 34.3972 19.3443 34.524 18.7518 34.4395C18.1593 34.355 17.6185 34.065 17.2294 33.623C16.8403 33.181 16.6294 32.6171 16.6357 32.0358C16.642 31.4544 16.865 30.895 17.2636 30.461C17.4906 30.2235 17.7655 30.0339 18.0713 29.9039L39.475 17.832C39.8889 17.5588 40.3773 17.4115 40.8778 17.4089C41.2987 17.4008 41.7146 17.497 42.0865 17.6883C42.4584 17.8797 42.774 18.16 43.0033 18.5026C43.2397 18.9033 43.3505 19.3623 43.3221 19.8233Z" fill="#8F7C4C"/>
<path d="M42.9179 18.5025C42.784 18.6392 42.6342 18.7604 42.4716 18.8636L42.2271 19.0081L20.7065 31.1213C20.4348 31.303 20.1286 31.4302 19.8056 31.4954C19.4827 31.5606 19.1495 31.5625 18.8258 31.501C18.502 31.4395 18.1943 31.3158 17.9204 31.1372C17.6466 30.9586 17.4123 30.7287 17.2313 30.4609C17.4584 30.2234 17.7333 30.0338 18.039 29.9038L39.4427 17.8318C39.8566 17.5586 40.345 17.4114 40.8455 17.4088C41.2574 17.4094 41.6626 17.5097 42.0245 17.7007C42.3863 17.8917 42.6934 18.1673 42.9179 18.5025Z" fill="#BBA57E"/>
<path d="M19.0483 33.9794C20.1165 33.9794 20.9825 33.1386 20.9825 32.1015C20.9825 31.0644 20.1165 30.2237 19.0483 30.2237C17.9801 30.2237 17.1141 31.0644 17.1141 32.1015C17.1141 33.1386 17.9801 33.9794 19.0483 33.9794Z" fill="#FFD386"/>
<path d="M19.0482 32.9993C19.5588 32.9993 19.9728 32.5974 19.9728 32.1017C19.9728 31.6059 19.5588 31.204 19.0482 31.204C18.5375 31.204 18.1236 31.6059 18.1236 32.1017C18.1236 32.5974 18.5375 32.9993 19.0482 32.9993Z" fill="#E8BF7E"/>
<path d="M37.9015 13.4055C37.9005 13.8098 37.7945 14.2073 37.5934 14.5612C37.4008 14.9008 37.1276 15.1908 36.7963 15.4072L36.5519 15.5517L15.0206 27.6752C14.6088 27.9525 14.119 28.1002 13.6178 28.0982C13.0524 28.0915 12.5061 27.8979 12.0692 27.5494C11.6323 27.2008 11.3309 26.7181 11.2145 26.1809C11.0981 25.6436 11.1738 25.0839 11.4291 24.594C11.6844 24.1041 12.104 23.7134 12.6188 23.4861L34.0119 11.4245C34.2835 11.2428 34.5899 11.1156 34.9128 11.0504C35.2358 10.9852 35.5689 10.9832 35.8926 11.0448C36.2163 11.1063 36.5242 11.23 36.798 11.4086C37.0718 11.5872 37.3061 11.8171 37.4871 12.0849C37.7588 12.4747 37.9032 12.9349 37.9015 13.4055Z" fill="#8F7C4C"/>
<path d="M37.4872 12.0953C37.3574 12.2351 37.2111 12.3598 37.0515 12.4667L36.7964 12.6009L15.2758 24.7244C15.3931 25.0865 15.3989 25.474 15.2926 25.8394C15.1863 26.2047 14.9725 26.5319 14.6774 26.781C14.3823 27.03 14.0187 27.19 13.6313 27.2413C13.2439 27.2927 12.8495 27.2331 12.4964 27.07C12.1434 26.9068 11.847 26.6471 11.6438 26.3228C11.4405 25.9985 11.3392 25.6237 11.3522 25.2443C11.3652 24.8649 11.492 24.4974 11.717 24.1869C11.942 23.8765 12.2555 23.6365 12.6189 23.4965L34.012 11.435C34.2837 11.2532 34.59 11.126 34.913 11.0608C35.2359 10.9956 35.569 10.9937 35.8927 11.0552C36.2165 11.1167 36.5243 11.2404 36.7981 11.419C37.0719 11.5976 37.3062 11.8276 37.4872 12.0953Z" fill="#BBA57E"/>
<path d="M13.6183 27.572C14.6865 27.572 15.5525 26.7313 15.5525 25.6942C15.5525 24.6571 14.6865 23.8163 13.6183 23.8163C12.55 23.8163 11.6841 24.6571 11.6841 25.6942C11.6841 26.7313 12.55 27.572 13.6183 27.572Z" fill="#FFD386"/>
<path d="M13.6177 26.5918C14.1283 26.5918 14.5423 26.1899 14.5423 25.6942C14.5423 25.1984 14.1283 24.7965 13.6177 24.7965C13.107 24.7965 12.6931 25.1984 12.6931 25.6942C12.6931 26.1899 13.107 26.5918 13.6177 26.5918Z" fill="#E8BF7E"/>
<path d="M42.3119 15.1906C42.3175 15.5833 42.2235 15.9713 42.0381 16.3203C41.8528 16.6694 41.5819 16.9688 41.2492 17.1923C41.1714 17.243 41.0897 17.2879 41.0048 17.3264L19.4842 29.4499C18.9806 29.7645 18.3766 29.8913 17.7841 29.8068C17.1916 29.7223 16.6508 29.4322 16.2617 28.9903C15.8726 28.5483 15.6617 27.9844 15.668 27.4031C15.6742 26.8217 15.8974 26.2622 16.2959 25.8283C16.5229 25.5908 16.7979 25.4011 17.1036 25.2711L38.4329 13.127C38.8448 12.8497 39.3345 12.702 39.8357 12.704C40.1622 12.7026 40.4857 12.7642 40.7875 12.8852C41.0892 13.0061 41.3633 13.1841 41.5936 13.4087C41.824 13.6333 42.0061 13.9001 42.1294 14.1936C42.2527 14.4871 42.3148 14.8014 42.3119 15.1183V15.1906Z" fill="#8F7C4C"/>
<path d="M41.9084 13.808C41.7751 13.9484 41.6253 14.073 41.4621 14.1794C41.3843 14.2302 41.3026 14.275 41.2177 14.3136L19.697 26.437C19.4254 26.6188 19.1191 26.746 18.7961 26.8112C18.4732 26.8764 18.14 26.8783 17.8163 26.8168C17.4925 26.7553 17.1848 26.6316 16.911 26.453C16.6371 26.2744 16.4028 26.0445 16.2218 25.7767C16.4489 25.5392 16.7238 25.3495 17.0295 25.2195L38.4332 13.127C38.8451 12.8497 39.3348 12.702 39.836 12.704C40.2485 12.7075 40.6537 12.8102 41.0153 13.0029C41.3769 13.1955 41.6838 13.4721 41.9084 13.808Z" fill="#BBA57E"/>
<path d="M18.0388 29.2951C19.107 29.2951 19.973 28.4543 19.973 27.4172C19.973 26.3801 19.107 25.5394 18.0388 25.5394C16.9706 25.5394 16.1046 26.3801 16.1046 27.4172C16.1046 28.4543 16.9706 29.2951 18.0388 29.2951Z" fill="#FFD386"/>
<path d="M18.0387 28.3149C18.5493 28.3149 18.9633 27.913 18.9633 27.4172C18.9633 26.9215 18.5493 26.5196 18.0387 26.5196C17.5281 26.5196 17.1141 26.9215 17.1141 27.4172C17.1141 27.913 17.5281 28.3149 18.0387 28.3149Z" fill="#E8BF7E"/>
</g>
</g>
<defs>
<clipPath id="clip0_113_2090">
<rect width="45" height="45" fill="white"/>
</clipPath>
</defs>
</svg>
