<svg width="45" height="45" viewBox="0 0 45 45" fill="none" xmlns="http://www.w3.org/2000/svg">
<path opacity="0.5" d="M39.5597 20.4911H5.35287C4.53815 20.4911 3.7568 20.8147 3.18072 21.3908L2.90167 21.6699C1.22524 23.3463 1.99924 26.2093 4.29199 26.8127L20.9579 31.1988C21.5107 31.3443 22.0932 31.3327 22.6398 31.1652L36.9825 26.7697C37.2742 26.6803 37.5776 26.6349 37.8826 26.6349H39.5597C41.2563 26.6349 42.6316 25.2595 42.6316 23.563C42.6316 21.8664 41.2563 20.4911 39.5597 20.4911Z" fill="#999895"/>
<path d="M4.63776 23.9837L23.6846 25.8691C24.1308 25.9132 24.5823 25.8603 25.0074 25.7139L26.8346 25.086L32.7785 23.0419L37.4225 22.4563L41.3275 21.9642L40.7895 18.733L35.336 16.1738H32.7785L29.8824 13.8192H26.0463L22.2453 12.2212C21.6968 11.9901 21.0883 11.939 20.5098 12.073L7.53384 15.0979L4.63776 23.9837Z" fill="#999895"/>
<path d="M32.5086 18.941L32.7785 23.0418L37.4225 22.4562L35.6058 20.0787L32.5086 18.941Z" fill="#848380"/>
<path d="M4.63776 23.9837L23.6846 25.8692C24.1308 25.9133 24.5823 25.8604 25.0074 25.714L26.8346 25.086L24.0514 21.1C23.1272 19.7754 21.5381 19.0822 19.9383 19.3045L16.3773 19.8018C15.4178 19.9359 14.4478 19.6572 13.7035 19.0364L11.9115 17.5372C10.8832 16.6782 9.72796 15.9868 8.48803 15.4842L7.53384 15.0979L4.63776 23.9837Z" fill="#848380"/>
</svg>
