<svg width="45" height="45" viewBox="0 0 45 45" fill="none" xmlns="http://www.w3.org/2000/svg">
<path d="M24.1048 41.2147C28.275 41.2147 31.6557 39.2894 31.6557 36.9145C31.6557 34.5395 28.275 32.6142 24.1048 32.6142C19.9345 32.6142 16.5538 34.5395 16.5538 36.9145C16.5538 39.2894 19.9345 41.2147 24.1048 41.2147Z" fill="#C3DD83"/>
<path d="M14.7376 29.0431C17.4789 29.0431 19.7011 26.8357 19.7011 24.1127C19.7011 21.3897 17.4789 19.1822 14.7376 19.1822C11.9964 19.1822 9.77409 21.3897 9.77409 24.1127C9.77409 26.8357 11.9964 29.0431 14.7376 29.0431Z" fill="#95CC5F"/>
<path d="M30.2626 29.0431C33.0039 29.0431 35.2261 26.8357 35.2261 24.1127C35.2261 21.3897 33.0039 19.1822 30.2626 19.1822C27.5214 19.1822 25.2991 21.3897 25.2991 24.1127C25.2991 26.8357 27.5214 29.0431 30.2626 29.0431Z" fill="#95CC5F"/>
<path d="M19.7259 25.7066H24.8761V34.6777C24.8761 35.3561 24.6047 36.0068 24.1218 36.4865C23.6389 36.9662 22.9839 37.2356 22.301 37.2356C21.6181 37.2356 20.9631 36.9662 20.4801 36.4865C19.9973 36.0068 19.7259 35.3561 19.7259 34.6777V25.7066Z" fill="#564218"/>
<path d="M22.5002 27.1771C28.1064 27.1771 32.6511 22.6626 32.6511 17.0938C32.6511 11.5249 28.1064 7.01049 22.5002 7.01049C16.894 7.01049 12.3493 11.5249 12.3493 17.0938C12.3493 22.6626 16.894 27.1771 22.5002 27.1771Z" fill="#95CC5F"/>
<path d="M22.5001 13.6462C25.2414 13.6462 27.4636 11.4388 27.4636 8.71578C27.4636 5.99277 25.2414 3.78534 22.5001 3.78534C19.7589 3.78534 17.5366 5.99277 17.5366 8.71578C17.5366 11.4388 19.7589 13.6462 22.5001 13.6462Z" fill="#95CC5F"/>
<path d="M20.1491 19.7999C22.9934 19.7999 25.2992 17.5095 25.2992 14.6841C25.2992 11.8588 22.9934 9.56835 20.1491 9.56835C17.3047 9.56835 14.9989 11.8588 14.9989 14.6841C14.9989 17.5095 17.3047 19.7999 20.1491 19.7999Z" fill="#BCE466"/>
</svg>
