<svg width="45" height="45" viewBox="0 0 45 45" fill="none" xmlns="http://www.w3.org/2000/svg">
<path d="M44.4007 25.2721H32.6355C32.3046 25.2721 32.0363 25.5357 32.0363 25.8609V25.9542C32.0363 26.2794 32.3046 26.5431 32.6355 26.5431H44.4007C44.7317 26.5431 44.9999 26.2794 44.9999 25.9542V25.8609C44.9999 25.5357 44.7317 25.2721 44.4007 25.2721Z" fill="#E3E8EB"/>
<path d="M12.3644 26.8375H0.59922C0.26828 26.8375 0 27.1011 0 27.4263V27.5197C0 27.8449 0.26828 28.1085 0.59922 28.1085H12.3644C12.6953 28.1085 12.9636 27.8449 12.9636 27.5197V27.4263C12.9636 27.1011 12.6953 26.8375 12.3644 26.8375Z" fill="#E3E8EB"/>
<path d="M30.5456 27.254C30.5456 27.7815 30.7588 28.2875 31.1384 28.6605C31.518 29.0335 32.0329 29.2431 32.5697 29.2431H37.4293C37.9681 29.2431 38.4848 29.4534 38.8658 29.8278C39.2468 30.2022 39.4608 30.7099 39.4608 31.2394C39.4608 31.3112 39.4608 31.383 39.4608 31.4548C39.4051 31.9423 39.1687 32.3926 38.7967 32.7198C38.4247 33.0469 37.9431 33.228 37.4439 33.2285H3.71949C3.31528 33.2283 2.92038 33.1091 2.58567 32.8865C2.25095 32.6638 1.99174 32.3477 1.84144 31.979C1.74742 31.7507 1.69784 31.5071 1.69528 31.2609C1.69141 30.9973 1.74092 30.7355 1.8409 30.4909C1.94089 30.2462 2.08938 30.0236 2.27773 29.8358C2.46609 29.648 2.69055 29.4989 2.93806 29.3972C3.18558 29.2954 3.45119 29.2431 3.71949 29.2431H13.117V25.2936H9.01747V21.1359H37.3343C37.8957 21.1378 38.4336 21.3578 38.8306 21.7479C39.2276 22.1381 39.4516 22.6666 39.4535 23.2184C39.4497 23.7688 39.2249 24.2956 38.8281 24.6841C38.4313 25.0727 37.8945 25.2917 37.3343 25.2936H32.5624C32.0319 25.2954 31.5233 25.5019 31.146 25.8685C30.7688 26.2352 30.5532 26.7327 30.5456 27.254Z" fill="white"/>
<path d="M38.7958 21.6601V24.712C38.4004 25.0761 37.8762 25.2744 37.3343 25.2649H35.8728V23.6061C35.8728 23.1719 35.6973 22.7555 35.3848 22.4484C35.0724 22.1414 34.6486 21.9689 34.2067 21.9689H16.6685V21.1072H37.3343C37.8762 21.0976 38.4004 21.296 38.7958 21.6601Z" fill="#E3E8EB"/>
<path d="M27.3303 15.7431V21.1072H14.6809V15.7431C14.6809 15.3823 14.7534 15.025 14.8941 14.6917C15.0348 14.3584 15.2411 14.0557 15.5011 13.8009C15.7611 13.5461 16.0697 13.3442 16.4092 13.2067C16.7487 13.0693 17.1125 12.9991 17.4797 13H24.5534C25.2912 13.0038 25.9975 13.2945 26.5179 13.8085C27.0382 14.3225 27.3303 15.0181 27.3303 15.7431Z" fill="#6A7680"/>
<path d="M23.7277 15.7431V21.1072H14.6809V15.7431C14.6809 15.3823 14.7534 15.025 14.8941 14.6917C15.0348 14.3584 15.2411 14.0557 15.5011 13.8009C15.7611 13.5461 16.0697 13.3442 16.4092 13.2067C16.7487 13.0693 17.1125 12.9991 17.4797 13H20.9581C21.6947 13.0057 22.3991 13.2972 22.9178 13.811C23.4366 14.3248 23.7277 15.0193 23.7277 15.7431Z" fill="#AEB7BD"/>
<path d="M36.4429 23.8574V25.6383H32.2191V23.8574C32.2181 23.7371 32.2414 23.6177 32.2876 23.5062C32.3338 23.3948 32.402 23.2934 32.4883 23.2079C32.5746 23.1225 32.6772 23.0547 32.7903 23.0084C32.9034 22.9621 33.0247 22.9383 33.1472 22.9383H35.5075C35.6306 22.9373 35.7527 22.9605 35.8666 23.0063C35.9805 23.0522 36.084 23.1198 36.1711 23.2054C36.2581 23.2909 36.327 23.3926 36.3737 23.5046C36.4203 23.6165 36.4439 23.7365 36.4429 23.8574Z" fill="#6A7680"/>
<path d="M35.2444 23.8574V25.6383H32.2191V23.8574C32.2181 23.7371 32.2414 23.6177 32.2876 23.5062C32.3338 23.3948 32.402 23.2934 32.4883 23.2079C32.5746 23.1225 32.6772 23.0547 32.7903 23.0084C32.9034 22.9621 33.0247 22.9383 33.1472 22.9383H34.309C34.4321 22.9373 34.5542 22.9605 34.6681 23.0063C34.782 23.0522 34.8856 23.1198 34.9726 23.2054C35.0597 23.2909 35.1285 23.3926 35.1752 23.5046C35.2219 23.6165 35.2454 23.7365 35.2444 23.8574Z" fill="#AEB7BD"/>
<path d="M29.296 34.4707C29.0117 34.2484 28.6581 34.1292 28.2949 34.1332H20.4246C20.2766 34.1313 20.1354 34.0723 20.0314 33.9688C19.9275 33.8653 19.8692 33.7257 19.8692 33.5803V33.2787C19.8692 32.8445 19.6937 32.4281 19.3812 32.121C19.0688 31.814 18.645 31.6415 18.2031 31.6415H10.7494C10.5919 31.643 10.436 31.6722 10.289 31.7277V31.6415H9.48519V32.8048V32.8838C9.48423 33.0475 9.5162 33.2098 9.5793 33.3614C9.6424 33.5129 9.73535 33.6507 9.85284 33.7668C9.97033 33.883 10.11 33.9751 10.2639 34.038C10.4178 34.1009 10.5827 34.1332 10.7494 34.1332H14.1766C14.4189 34.1332 14.6513 34.2278 14.8226 34.3961C14.9939 34.5645 15.0901 34.7928 15.0901 35.0308V35.4976C15.0901 35.9756 15.2833 36.4341 15.6273 36.7721C15.9713 37.1101 16.4378 37.3 16.9243 37.3H28.3241C28.5358 37.3009 28.7456 37.2608 28.9415 37.1818C29.1374 37.1028 29.3155 36.9866 29.4656 36.8398C29.6157 36.693 29.7347 36.5186 29.816 36.3264C29.8972 36.1343 29.9391 35.9283 29.9391 35.7202V34.4707H29.296Z" fill="#6A7680"/>
<path d="M29.9391 34.4707C29.9391 34.8916 29.7689 35.2953 29.4661 35.5929C29.1632 35.8905 28.7524 36.0577 28.3241 36.0577H16.9243C16.4378 36.0577 15.9713 35.8678 15.6273 35.5298C15.2833 35.1918 15.0901 34.7333 15.0901 34.2553V33.7814C15.0901 33.5433 14.9939 33.315 14.8226 33.1467C14.6513 32.9783 14.4189 32.8838 14.1766 32.8838H10.7494C10.5831 32.8847 10.4183 32.8532 10.2645 32.7911C10.1107 32.7291 9.97087 32.6376 9.85329 32.522C9.7357 32.4065 9.64262 32.2692 9.57943 32.118C9.51624 31.9669 9.48422 31.8049 9.48519 31.6415C9.48519 31.312 9.61839 30.996 9.85547 30.7631C10.0926 30.5301 10.4141 30.3992 10.7494 30.3992H18.2031C18.645 30.3992 19.0688 30.5717 19.3812 30.8787C19.6937 31.1858 19.8692 31.6022 19.8692 32.0364V32.3309C19.8682 32.4031 19.8819 32.4749 19.9094 32.5419C19.9369 32.609 19.9776 32.67 20.0293 32.7214C20.081 32.7728 20.1425 32.8137 20.2104 32.8416C20.2782 32.8694 20.351 32.8838 20.4246 32.8838H28.3241C28.7524 32.8838 29.1632 33.051 29.4661 33.3486C29.7689 33.6462 29.9391 34.0499 29.9391 34.4707Z" fill="#AEB7BD"/>
<path d="M43.9622 22.4213V25.8394H35.8727V22.4213C35.8727 22.1912 35.9189 21.9634 36.0085 21.7508C36.0981 21.5382 36.2294 21.3451 36.395 21.1824C36.5606 21.0197 36.7571 20.8906 36.9734 20.8025C37.1898 20.7145 37.4216 20.6692 37.6558 20.6692H42.1645C42.3999 20.6673 42.6333 20.7112 42.8514 20.7984C43.0694 20.8856 43.2677 21.0144 43.4348 21.1773C43.6019 21.3401 43.7346 21.5339 43.8251 21.7475C43.9156 21.961 43.9622 22.19 43.9622 22.4213Z" fill="#6A7680"/>
<path d="M41.6676 22.4213V25.8393H35.8727V22.4213C35.8727 22.1912 35.9189 21.9633 36.0085 21.7507C36.0981 21.5382 36.2294 21.345 36.395 21.1823C36.5606 21.0196 36.7571 20.8906 36.9734 20.8025C37.1898 20.7144 37.4216 20.6691 37.6558 20.6691H39.8481C40.0853 20.6644 40.3211 20.7061 40.5416 20.7921C40.7622 20.878 40.9631 21.0063 41.1325 21.1695C41.302 21.3326 41.4366 21.5274 41.5285 21.7423C41.6204 21.9573 41.6677 22.1881 41.6676 22.4213Z" fill="#AEB7BD"/>
<path d="M18.1155 27.3043V28.2737C18.1155 28.7536 17.9214 29.2139 17.5761 29.5532C17.2307 29.8926 16.7623 30.0832 16.2739 30.0832H4.1653C3.61217 30.0833 3.07631 30.2726 2.64964 30.6185C2.22297 30.9644 1.93207 31.4454 1.82687 31.979C1.73285 31.7507 1.68331 31.5071 1.68075 31.2609C1.67685 30.9961 1.72682 30.7331 1.82772 30.4875C1.92861 30.2419 2.07839 30.0186 2.26829 29.8307C2.4582 29.6427 2.68441 29.4939 2.93362 29.393C3.18283 29.2921 3.45002 29.2411 3.71955 29.2431H13.1171V26.421L15.7843 26.3707H17.1874C17.4355 26.3764 17.6716 26.4772 17.845 26.6517C18.0184 26.8261 18.1155 27.0604 18.1155 27.3043Z" fill="#E3E8EB"/>
<path d="M17.6039 22.0335V27.3976H4.9472V22.0335C4.9472 21.306 5.24129 20.6083 5.7648 20.0939C6.28831 19.5794 6.99835 19.2904 7.7387 19.2904H14.8197C15.5588 19.2923 16.267 19.5822 16.7889 20.0964C17.3108 20.6106 17.6039 21.3073 17.6039 22.0335Z" fill="#6A7680"/>
<path d="M14.0159 22.0335V27.3976H4.9472V22.0335C4.9472 21.306 5.24129 20.6083 5.7648 20.0939C6.28831 19.5794 6.99835 19.2904 7.7387 19.2904H11.2244C11.9648 19.2904 12.6748 19.5794 13.1983 20.0939C13.7218 20.6083 14.0159 21.306 14.0159 22.0335Z" fill="#AEB7BD"/>
<path d="M8.74711 24.7981V27.4479H2.44067V24.7766C2.44067 24.4148 2.58697 24.0677 2.84735 23.8119C3.10774 23.556 3.46089 23.4122 3.82913 23.4122H7.37328C7.55624 23.4141 7.737 23.4515 7.9052 23.5223C8.07341 23.593 8.22574 23.6957 8.35341 23.8245C8.48107 23.9533 8.5816 24.1056 8.64916 24.2727C8.71672 24.4398 8.75 24.6184 8.74711 24.7981Z" fill="#6A7680"/>
<path d="M6.95674 24.7981V27.4479H2.44067V24.7766C2.44067 24.4148 2.58697 24.0677 2.84735 23.8119C3.10774 23.556 3.46089 23.4122 3.82913 23.4122H5.56102C5.74555 23.4122 5.92822 23.4482 6.09851 23.518C6.26881 23.5878 6.42334 23.6901 6.55314 23.819C6.68294 23.9479 6.78546 24.1008 6.85474 24.2689C6.92402 24.4369 6.95868 24.6168 6.95674 24.7981Z" fill="#AEB7BD"/>
<path d="M15.7698 25.825V29.2431H7.73151V25.825C7.73151 25.3603 7.91936 24.9147 8.25375 24.5861C8.58814 24.2575 9.04166 24.0729 9.51455 24.0729H14.0233C14.4898 24.0823 14.934 24.271 15.2606 24.5986C15.5871 24.9262 15.7699 25.3665 15.7698 25.825Z" fill="#6A7680"/>
<path d="M13.4751 25.825V29.2431H7.69489V25.825C7.69489 25.3603 7.88274 24.9146 8.21713 24.5861C8.55151 24.2575 9.00504 24.0729 9.47793 24.0729H11.6702C11.9062 24.07 12.1404 24.1132 12.3593 24.2C12.5781 24.2868 12.7773 24.4154 12.9452 24.5784C13.1131 24.7414 13.2464 24.9355 13.3374 25.1495C13.4283 25.3635 13.4752 25.5931 13.4751 25.825Z" fill="#AEB7BD"/>
<path d="M39.4609 31.2394C39.4609 31.3112 39.4609 31.383 39.4609 31.4548C39.4146 31.0867 39.2331 30.7478 38.9505 30.5019C38.6679 30.2559 38.3037 30.1198 37.9263 30.1191H32.3725C31.8919 30.1191 31.4309 29.9315 31.091 29.5975C30.7512 29.2636 30.5602 28.8106 30.5602 28.3383V27.254C30.5602 27.7815 30.7735 28.2875 31.1531 28.6605C31.5327 29.0335 32.0476 29.2431 32.5845 29.2431H37.444C37.9803 29.2469 38.4932 29.4589 38.871 29.8328C39.2489 30.2068 39.4609 30.7124 39.4609 31.2394Z" fill="#E3E8EB"/>
</svg>
