<svg width="45" height="45" viewBox="0 0 45 45" fill="none" xmlns="http://www.w3.org/2000/svg">
<path d="M40.5736 30.3309C39.7525 31.152 35.0069 31.9 21.8937 31.9C8.77696 31.9 4 30.5257 4 30.5257L4.19486 30.31L4.87677 29.5515L5.5552 28.8H39.0427L40.5736 30.3309Z" fill="#848380"/>
<path d="M26.3958 28.8V30.31H4.19485L4.87677 29.5515L5.5552 28.8H26.3958Z" fill="#999895"/>
<path d="M38.9254 18.4863V28.8084H6.21136V18.4863C6.21136 18.47 6.21136 18.4536 6.21318 18.4372C6.22227 18.0057 6.37341 17.5978 6.63013 17.27C6.84317 16.9933 7.13267 16.7748 7.47317 16.6419L15.1933 13.6503L22.5693 10.7917L29.9453 13.6503L37.6636 16.6419C38.086 16.8058 38.4265 17.1044 38.6487 17.4758C38.8143 17.7544 38.9108 18.0767 38.9236 18.4135C38.9254 18.4372 38.9254 18.4627 38.9254 18.4863Z" fill="#FCFAED"/>
<path d="M38.9254 18.4863V28.8084H15.8378V18.6265C15.8378 18.5628 15.8397 18.5009 15.8451 18.4372C15.8743 18.0239 15.9999 17.6251 16.2075 17.27C16.3204 17.0789 16.4587 16.9022 16.619 16.742L19.7107 13.6503L22.5693 10.7917L29.9453 13.6503L37.6636 16.6419C38.086 16.8058 38.4265 17.1044 38.6487 17.4758C38.6523 17.4831 38.6559 17.4886 38.6596 17.4958C38.6796 17.5322 38.6996 17.5687 38.7178 17.6051C38.7251 17.6178 38.7324 17.6324 38.736 17.6451C38.7542 17.6815 38.7706 17.718 38.7852 17.7562C38.8034 17.7981 38.818 17.8418 38.8307 17.8855C38.8744 18.0166 38.9017 18.1531 38.9145 18.2934C38.9181 18.3261 38.9218 18.3589 38.9218 18.3917C38.9236 18.3989 38.9236 18.4062 38.9236 18.4135C38.9254 18.4372 38.9254 18.4627 38.9254 18.4863Z" fill="#E5E3DA"/>
<path d="M29.9453 13.6503H15.1933L22.5693 10.7917L29.9453 13.6503Z" fill="#CEEBF0"/>
<path d="M29.9453 13.6503H19.7107L22.5693 10.7917L29.9453 13.6503Z" fill="#AEDFE6"/>
<path d="M38.9254 19.3276H27.9825V20.3527H38.9254V19.3276Z" fill="#D1CFC9"/>
<path d="M23.0081 19.3276H6.21136V20.3527H23.0081V19.3276Z" fill="#E5E3DA"/>
<path d="M23.0081 24.0526H6.21136V25.0777H23.0081V24.0526Z" fill="#E5E3DA"/>
<path d="M23.0081 19.3276H15.8378V20.3527H23.0081V19.3276Z" fill="#D1CFC9"/>
<path d="M23.0081 24.0526H15.8378V25.0777H23.0081V24.0526Z" fill="#D1CFC9"/>
<path d="M38.9254 24.0526H27.9825V25.0777H38.9254V24.0526Z" fill="#D1CFC9"/>
<path d="M7.49318 17.2701H6.63013C6.37341 17.5979 6.22227 18.0057 6.21318 18.4372H7.49318C7.81728 18.4372 8.07766 18.1769 8.07766 17.8546C8.07766 17.5305 7.81728 17.2701 7.49318 17.2701ZM10.5048 17.2701H8.99897C8.67669 17.2701 8.41633 17.5305 8.41633 17.8546C8.41633 18.1769 8.67669 18.4372 8.99897 18.4372H10.5048C10.827 18.4372 11.0874 18.1769 11.0874 17.8546C11.0874 17.5305 10.827 17.2701 10.5048 17.2701ZM13.5145 17.2701H12.0087C11.6865 17.2701 11.4243 17.5305 11.4243 17.8546C11.4243 18.1769 11.6865 18.4372 12.0087 18.4372H13.5145C13.835 18.4372 14.0972 18.1769 14.0972 17.8546C14.0972 17.5305 13.835 17.2701 13.5145 17.2701ZM16.5225 17.2701H15.0167C14.6962 17.2701 14.434 17.5305 14.434 17.8546C14.434 18.1769 14.6962 18.4372 15.0167 18.4372H16.5225C16.8448 18.4372 17.1069 18.1769 17.1069 17.8546C17.1069 17.5305 16.8447 17.2701 16.5225 17.2701ZM19.5322 17.2701H18.0264C17.7042 17.2701 17.4438 17.5305 17.4438 17.8546C17.4438 18.1769 17.7042 18.4372 18.0264 18.4372H19.5322C19.8527 18.4372 20.1149 18.1769 20.1149 17.8546C20.1149 17.5305 19.8527 17.2701 19.5322 17.2701ZM22.5402 17.2701H21.0362C20.7139 17.2701 20.4517 17.5305 20.4517 17.8546C20.4517 18.1769 20.7139 18.4372 21.0362 18.4372H22.5402C22.8625 18.4372 23.1246 18.1769 23.1246 17.8546C23.1246 17.5305 22.8625 17.2701 22.5402 17.2701ZM25.5499 17.2701H24.046C23.7237 17.2701 23.4633 17.5305 23.4633 17.8546C23.4633 18.1769 23.7237 18.4372 24.046 18.4372H25.5499C25.8722 18.4372 26.1326 18.1769 26.1326 17.8546C26.1326 17.5305 25.8722 17.2701 25.5499 17.2701ZM28.5597 17.2701H27.0557C26.7316 17.2701 26.4712 17.5305 26.4712 17.8546C26.4712 18.1769 26.7316 18.4372 27.0557 18.4372H28.5597C28.8801 18.4372 29.1423 18.1769 29.1423 17.8546C29.1423 17.5305 28.8801 17.2701 28.5597 17.2701ZM31.5676 17.2701H30.0636C29.7414 17.2701 29.481 17.5305 29.481 17.8546C29.481 18.1769 29.7414 18.4372 30.0636 18.4372H31.5676C31.8917 18.4372 32.1521 18.1769 32.1521 17.8546C32.1521 17.5305 31.8917 17.2701 31.5676 17.2701ZM34.5774 17.2701H33.0734C32.7493 17.2701 32.4907 17.5305 32.4907 17.8546C32.4907 18.1769 32.7493 18.4372 33.0734 18.4372H34.5774C34.9015 18.4372 35.16 18.1769 35.16 17.8546C35.16 17.5305 34.9015 17.2701 34.5774 17.2701ZM37.5871 17.2701H36.0832C35.7609 17.2701 35.4987 17.5305 35.4987 17.8546C35.4987 18.1769 35.7609 18.4372 36.0832 18.4372H37.5871C37.9094 18.4372 38.1698 18.1769 38.1698 17.8546C38.1698 17.5305 37.9094 17.2701 37.5871 17.2701Z" fill="#E5E3DA"/>
<path d="M38.9236 18.4137C38.6833 18.3409 38.5085 18.1187 38.5085 17.8547C38.5085 17.709 38.5613 17.5761 38.6487 17.476C38.8143 17.7546 38.9109 18.0769 38.9236 18.4137Z" fill="#E5E3DA"/>
<path d="M16.5225 17.2701H16.2075C15.9999 17.6252 15.8743 18.0239 15.8452 18.4372H16.5225C16.8448 18.4372 17.1069 18.1769 17.1069 17.8546C17.1069 17.5305 16.8448 17.2701 16.5225 17.2701ZM19.5322 17.2701H18.0264C17.7042 17.2701 17.4438 17.5305 17.4438 17.8546C17.4438 18.1769 17.7042 18.4372 18.0264 18.4372H19.5322C19.8527 18.4372 20.1149 18.1769 20.1149 17.8546C20.1149 17.5305 19.8527 17.2701 19.5322 17.2701ZM22.5402 17.2701H21.0362C20.7139 17.2701 20.4517 17.5305 20.4517 17.8546C20.4517 18.1769 20.7139 18.4372 21.0362 18.4372H22.5402C22.8625 18.4372 23.1246 18.1769 23.1246 17.8546C23.1246 17.5305 22.8625 17.2701 22.5402 17.2701ZM25.5499 17.2701H24.046C23.7237 17.2701 23.4633 17.5305 23.4633 17.8546C23.4633 18.1769 23.7237 18.4372 24.046 18.4372H25.5499C25.8722 18.4372 26.1326 18.1769 26.1326 17.8546C26.1326 17.5305 25.8722 17.2701 25.5499 17.2701ZM28.5597 17.2701H27.0557C26.7316 17.2701 26.4713 17.5305 26.4713 17.8546C26.4713 18.1769 26.7316 18.4372 27.0557 18.4372H28.5597C28.8801 18.4372 29.1424 18.1769 29.1424 17.8546C29.1424 17.5305 28.8801 17.2701 28.5597 17.2701ZM31.5676 17.2701H30.0637C29.7414 17.2701 29.481 17.5305 29.481 17.8546C29.481 18.1769 29.7414 18.4372 30.0637 18.4372H31.5676C31.8917 18.4372 32.1521 18.1769 32.1521 17.8546C32.1521 17.5305 31.8917 17.2701 31.5676 17.2701ZM34.5774 17.2701H33.0734C32.7493 17.2701 32.4908 17.5305 32.4908 17.8546C32.4908 18.1769 32.7493 18.4372 33.0734 18.4372H34.5774C34.9015 18.4372 35.16 18.1769 35.16 17.8546C35.16 17.5305 34.9015 17.2701 34.5774 17.2701ZM37.5871 17.2701H36.0832C35.7609 17.2701 35.4987 17.5305 35.4987 17.8546C35.4987 18.1769 35.7609 18.4372 36.0832 18.4372H37.5871C37.9094 18.4372 38.1698 18.1769 38.1698 17.8546C38.1698 17.5305 37.9094 17.2701 37.5871 17.2701Z" fill="#D1CFC9"/>
<path d="M38.9236 18.4137C38.6833 18.3409 38.5085 18.1187 38.5085 17.8547C38.5085 17.709 38.5613 17.5761 38.6487 17.476C38.8144 17.7546 38.9109 18.0769 38.9236 18.4137Z" fill="#D1CFC9"/>
<path d="M27.2957 20.4073H25.1038V28.8085H27.2957V20.4073Z" fill="#999895"/>
<path d="M25.8409 20.4073H23.649V28.8085H25.8409V20.4073Z" fill="#848380"/>
<path d="M28.3576 19.3276V28.8085H27.2779V20.4074H23.649V28.8085H22.5693V19.3276H28.3576Z" fill="#D1CFC9"/>
<path d="M25.2666 24.0033C25.1767 24.0033 25.1038 24.0762 25.1038 24.1662V25.0497C25.1038 25.1396 25.1767 25.2125 25.2666 25.2125C25.3566 25.2125 25.4295 25.1396 25.4295 25.0497V24.1662C25.4295 24.0762 25.3566 24.0033 25.2666 24.0033Z" fill="#666563"/>
<path d="M26.6341 24.0033C26.5441 24.0033 26.4712 24.0762 26.4712 24.1662V25.0497C26.4712 25.1396 26.5441 25.2125 26.6341 25.2125C26.724 25.2125 26.7969 25.1396 26.7969 25.0497V24.1662C26.7969 24.0762 26.724 24.0033 26.6341 24.0033Z" fill="#666563"/>
<path d="M22.5684 8C22.8245 8 23.0324 8.2079 23.0324 8.46398V10.9655H22.1044V8.46398C22.1044 8.2079 22.3123 8 22.5684 8Z" fill="#D1D3D4"/>
<path d="M5.41995 24.0526H11.0874V25.9876H13.1267V28.8085H8.07765L5.41995 24.0526Z" fill="#E5E3DA"/>
<path d="M11.1195 25.9875H4.48383V29.8962H11.1195V25.9875Z" fill="#506A6E"/>
<path d="M8.39249 25.9875H4.48383V29.8962H8.39249V25.9875Z" fill="#6F898E"/>
<path d="M7.24256 27.1375H5.63375V28.7464H7.24256V27.1375Z" fill="#A9B3B6"/>
<path d="M9.36691 24.0526H5.41995V25.9876H9.36691V24.0526Z" fill="#506A6E"/>
<path d="M9.36692 24.0526H7.30235V25.9876H9.36692V24.0526Z" fill="#445C5F"/>
</svg>
