<svg width="45" height="45" viewBox="0 0 45 45" fill="none" xmlns="http://www.w3.org/2000/svg">
<path d="M44.8191 18.1791V28.869C44.8191 29.7531 44.4683 30.601 43.8445 31.2248L38.5148 36.5545C37.8897 37.1796 37.0432 37.5305 36.1591 37.5305H33.3731C32.4904 37.5305 31.6425 37.8813 31.0188 38.5051L28.0017 41.5221C27.3765 42.1473 26.53 42.4981 25.6459 42.4981H15.2553C14.3712 42.4981 13.5247 42.1473 12.8995 41.5221L3.62413 32.2467C2.99899 31.6216 2.64813 30.7751 2.64813 29.891V23.7844C2.64813 22.9017 2.29727 22.0538 1.67214 21.4287L0.975995 20.7325C0.66273 20.4193 0.419078 20.0517 0.253395 19.6521C0.0877131 19.2511 0 18.8181 0 18.3768C0 17.9856 0.0668406 17.611 0.19214 17.263C0.648815 15.9723 1.88237 15.0464 3.33174 15.0464H17.0764C17.9605 15.0464 18.8084 14.6956 19.4321 14.0704L21.1252 12.3774C21.7503 11.7523 22.5982 11.4014 23.4809 11.4014H38.0428C38.9256 11.4014 39.7735 11.7523 40.3972 12.3774L43.8445 15.8233C44.4683 16.4485 44.8191 17.295 44.8191 18.1791Z" fill="#CEEFFF"/>
<path d="M41.3699 19.529V28.5736C41.3699 29.3216 41.0731 30.039 40.5453 30.5668L36.036 35.0761C35.5071 35.605 34.7908 35.9019 34.0428 35.9019H31.6857C30.9388 35.9019 30.2214 36.1987 29.6937 36.7265L27.141 39.2792C26.6121 39.8081 25.8958 40.105 25.1478 40.105H16.3565C15.6085 40.105 14.8922 39.8081 14.3633 39.2792L6.51556 31.4314C5.98664 30.9025 5.68979 30.1863 5.68979 29.4383V24.2716C5.68979 23.5248 5.39293 22.8074 4.86401 22.2785L4.27503 21.6895C4.00998 21.4244 3.80383 21.1134 3.66364 20.7754C3.52346 20.4361 3.44925 20.0697 3.44925 19.6963C3.44925 19.3653 3.5058 19.0484 3.61182 18.7539C3.9982 17.6619 5.0419 16.8785 6.26818 16.8785H17.8973C18.6453 16.8785 19.3627 16.5817 19.8904 16.0528L21.3229 14.6204C21.8518 14.0914 22.5692 13.7946 23.316 13.7946H35.6366C36.3835 13.7946 37.1009 14.0914 37.6286 14.6204L40.5453 17.5359C41.0731 18.0648 41.3699 18.781 41.3699 19.529Z" fill="#F5A35B"/>
<path d="M40.1198 17.1106L37.6286 14.6204C37.1009 14.0914 36.3835 13.7946 35.6366 13.7946H23.316C22.5686 13.7946 21.8517 14.0915 21.3232 14.62L19.8904 16.0528C19.3627 16.5817 18.6453 16.8785 17.8973 16.8785H6.26818C5.0419 16.8785 3.9982 17.6619 3.61182 18.7539C3.62713 18.7999 3.64481 18.8458 3.66365 18.8906C3.80383 19.2286 4.00998 19.5396 4.27503 19.8047L4.86433 20.394C5.39286 20.9225 5.68979 21.6394 5.68979 22.3868V27.5531C5.68979 28.3008 5.98683 29.0179 6.51557 29.5467L14.3633 37.3944C14.8921 37.9232 15.6092 38.2202 16.3569 38.2202H25.1474C25.8951 38.2202 26.6122 37.9232 27.141 37.3944L29.6937 34.8417C30.2217 34.3137 30.9377 34.0171 31.6844 34.0171H34.0428C34.7908 34.0171 35.507 33.7203 36.036 33.1913L38.7902 30.4365C39.6416 29.5849 40.1198 28.4301 40.1198 27.226V17.1106Z" fill="#FFBB70"/>
<path d="M29.2421 16.9027H28.0166C27.7011 16.9027 27.4453 17.1585 27.4453 17.4741C27.4453 17.7896 27.7011 18.0454 28.0166 18.0454H29.2421C29.5576 18.0454 29.8135 17.7896 29.8135 17.4741C29.8135 17.1585 29.5576 16.9027 29.2421 16.9027Z" fill="#FED392"/>
<path d="M17.6054 19.1906H16.3799C16.0644 19.1906 15.8086 19.4464 15.8086 19.762C15.8086 20.0775 16.0644 20.3333 16.3799 20.3333H17.6054C17.9209 20.3333 18.1768 20.0775 18.1768 19.762C18.1768 19.4464 17.9209 19.1906 17.6054 19.1906Z" fill="#FED392"/>
<path d="M24.8388 33.4875H23.6133C23.2977 33.4875 23.0419 33.7433 23.0419 34.0588C23.0419 34.3744 23.2977 34.6302 23.6133 34.6302H24.8388C25.1543 34.6302 25.4101 34.3744 25.4101 34.0588C25.4101 33.7433 25.1543 33.4875 24.8388 33.4875Z" fill="#FED392"/>
<path d="M22.1648 23.1394C22.1648 22.8239 21.909 22.5681 21.5935 22.5681C21.2779 22.5681 21.0221 22.8239 21.0221 23.1394C21.0221 23.455 21.2779 23.7108 21.5935 23.7108C21.909 23.7108 22.1648 23.455 22.1648 23.1394Z" fill="#FED392"/>
<path d="M15.8085 31.3132C15.8085 30.9977 15.5527 30.7419 15.2372 30.7419C14.9216 30.7419 14.6658 30.9977 14.6658 31.3132C14.6658 31.6288 14.9216 31.8846 15.2372 31.8846C15.5527 31.8846 15.8085 31.6288 15.8085 31.3132Z" fill="#FED392"/>
<path d="M25.6204 34.0496C25.5598 34.431 25.2793 34.7586 24.8822 34.8662L20.1347 36.1249C19.5873 36.2685 19.0308 35.9387 18.894 35.3913L18.5597 34.0496L18.1289 32.3153C18.1289 32.3085 18.1267 32.3041 18.1267 32.2996L17.5568 30.0088C17.4446 29.5444 17.6757 29.0755 18.0863 28.8691C18.1491 28.8377 18.2164 28.813 18.2882 28.7928L18.3017 28.7905L22.8338 27.6261L22.9998 27.5835C23.0065 27.5812 23.0155 27.5812 23.0222 27.579C23.5562 27.4556 24.0925 27.7787 24.2293 28.3104L24.7969 30.5159C24.7992 30.5181 24.7992 30.5204 24.7992 30.5226L25.6024 33.6367C25.6383 33.7759 25.6428 33.915 25.6204 34.0496Z" fill="#6E4C52"/>
<path d="M24.1611 31.0842L19.0837 32.4525L18.0863 28.869C18.1495 28.8374 18.2168 28.812 18.2882 28.7935L18.3027 28.79L22.834 27.6264L22.9989 27.5839C23.0064 27.5818 23.0147 27.5797 23.0222 27.5784L24.1611 31.0842Z" fill="#805259"/>
<path d="M24.0373 31.815L23.0076 32.0877C22.7432 32.1578 22.5811 32.4243 22.6401 32.6922L22.6539 32.7526C22.713 33.0191 22.5522 33.2843 22.2898 33.3564L21.741 33.5054C21.4683 33.5796 21.1874 33.4189 21.1139 33.1462C21.0528 32.9195 20.8467 32.7691 20.6221 32.7691C20.5774 32.7691 20.5321 32.7753 20.4868 32.7877L19.4441 33.072C18.8712 33.228 18.2819 32.8866 18.1301 32.3144C18.1287 32.3089 18.1274 32.3041 18.126 32.2986L17.5572 30.0079C17.4288 29.4721 17.7537 28.9308 18.2888 28.7935L18.3032 28.79L19.0787 31.7718C19.1062 31.8769 19.2133 31.9401 19.3184 31.9126L23.474 30.8198C23.5791 30.7916 23.6416 30.6844 23.6135 30.58L22.8345 27.6265L22.9994 27.5839C23.54 27.4451 24.0902 27.7707 24.2296 28.3106L24.7983 30.5155C24.799 30.5182 24.7997 30.5203 24.8004 30.523C24.9419 31.0897 24.6019 31.6653 24.0373 31.815Z" fill="#E3E8EB"/>
<path d="M25.6203 34.0492C25.5597 34.4306 25.2793 34.7581 24.8822 34.8658L20.1346 36.1245C19.5872 36.2681 19.0308 35.9383 18.8939 35.3909L18.5596 34.0492H25.6203Z" fill="#FFBB70"/>
<path d="M34.4824 23.1589H34.6357C35.068 23.1589 35.4184 22.8085 35.4184 22.3763C35.4184 21.944 35.7688 21.5936 36.201 21.5936H37.077C37.5093 21.5936 37.8597 21.944 37.8597 22.3763V22.4727C37.8597 22.9049 38.2101 23.2553 38.6423 23.2553H39.5697C40.0019 23.2553 40.3523 23.6057 40.3523 24.038V24.4766C40.3523 24.9088 40.0019 25.2592 39.5697 25.2592H39.5221C39.0898 25.2592 38.7394 25.6096 38.7394 26.0419V26.0894C38.7394 26.5217 38.389 26.8721 37.9568 26.8721H37.2738C36.8416 26.8721 36.4912 26.5217 36.4912 26.0894V26.0419C36.4912 25.6096 36.1408 25.2592 35.7085 25.2592H34.4824C34.0501 25.2592 33.6997 24.9088 33.6997 24.4766V23.9416C33.6997 23.5093 34.0501 23.1589 34.4824 23.1589Z" fill="#F5A35B"/>
<path d="M36.7492 22.3369C36.7658 22.3369 36.7825 22.3364 36.7994 22.3352C37.2089 22.308 37.5188 21.9538 37.4915 21.5442C37.0926 15.5612 39.4734 11.2236 39.4975 11.1805C39.6976 10.8226 39.5701 10.3697 39.2125 10.1692C38.8544 9.96842 38.4025 10.0952 38.2014 10.4526C38.0941 10.6434 35.5787 15.1983 36.0084 21.6431C36.0345 22.0358 36.3613 22.3369 36.7492 22.3369Z" fill="#905641"/>
<path d="M38.6257 11.38L40.9704 15.6361C41.0314 15.7469 41.1898 15.7517 41.2544 15.643C41.4799 15.2635 41.7582 14.2866 40.8684 12.1497C40.8375 12.0754 40.9058 11.9976 40.9827 12.0216L44.3483 13.0733C44.511 13.1242 44.661 12.9683 44.6045 12.8075C44.4209 12.2851 43.909 11.3453 42.5276 10.8169L41.126 10.2962C41.0488 10.2675 41.0427 10.1606 41.1161 10.1233L43.6235 8.84719C43.7551 8.78021 43.7403 8.58743 43.599 8.54447C42.9881 8.35871 41.7326 8.0819 40.7064 8.5358L39.4051 9.09715C39.3579 9.11752 39.303 9.09642 39.2816 9.04966L38.5862 7.53005C38.5862 7.53005 37.8013 6.16793 36.4441 5.95433C36.2848 5.92926 36.1637 6.0982 36.2306 6.24497L37.377 8.76272C37.412 8.83942 37.3367 8.92005 37.2578 8.89046L35.9495 8.39989C35.9495 8.39989 34.2407 7.79945 32.9302 8.59942C32.7825 8.68956 32.7985 8.90879 32.96 8.9709L36.283 10.249C36.3631 10.2798 36.368 10.3912 36.291 10.4289L35.4291 10.8514C34.9385 11.0919 34.503 11.4414 34.1956 11.8931C34.0337 12.131 33.8876 12.4181 33.7957 12.7559C33.7521 12.9158 33.9137 13.0573 34.0689 12.9992L38.5097 11.337C38.5536 11.3206 38.603 11.3389 38.6257 11.38Z" fill="#048C7C"/>
<path d="M16.6327 20.4856H16.4662C15.9968 20.4856 15.6163 20.105 15.6163 19.6356C15.6163 19.1662 15.2357 18.7857 14.7664 18.7857H13.8151C13.3457 18.7857 12.9652 19.1662 12.9652 19.6356V19.7404C12.9652 20.2098 12.5847 20.5903 12.1153 20.5903H11.1083C10.6389 20.5903 10.2584 20.9708 10.2584 21.4402V21.9164C10.2584 22.3858 10.6389 22.7663 11.1083 22.7663H11.1599C11.6293 22.7663 12.0099 23.1468 12.0099 23.6162V23.6679C12.0099 24.1373 12.3904 24.5178 12.8598 24.5178H13.6014C14.0708 24.5178 14.4513 24.1373 14.4513 23.6679V23.6162C14.4513 23.1468 14.8318 22.7663 15.3012 22.7663H16.6327C17.1021 22.7663 17.4826 22.3858 17.4826 21.9164V21.3355C17.4826 20.8661 17.1021 20.4856 16.6327 20.4856Z" fill="#F5A35B"/>
<path d="M14.171 19.5929C14.153 19.5929 14.1349 19.5924 14.1165 19.5911C13.6718 19.5615 13.3353 19.1769 13.365 18.7321C13.7981 12.235 11.2127 7.52471 11.1865 7.47794C10.9693 7.08924 11.1077 6.59742 11.496 6.37976C11.8849 6.16169 12.3757 6.29937 12.594 6.68754C12.7105 6.8947 15.4421 11.8409 14.9755 18.8396C14.9471 19.266 14.5923 19.5929 14.171 19.5929Z" fill="#905641"/>
<path d="M12.1333 7.69451L9.58711 12.3164C9.52087 12.4366 9.34882 12.4418 9.27869 12.3238C9.03378 11.9117 8.73163 10.8509 9.69785 8.53038C9.73147 8.44966 9.65724 8.36519 9.57378 8.39127L5.91897 9.53338C5.74231 9.58859 5.57936 9.41931 5.64072 9.24469C5.84007 8.67746 6.396 7.65687 7.89606 7.08312L9.41807 6.51762C9.50194 6.48646 9.50862 6.37041 9.42888 6.32983L6.70604 4.9441C6.56312 4.87136 6.57921 4.66203 6.73265 4.61538C7.39605 4.41366 8.75937 4.11306 9.87375 4.60595L11.2869 5.21555C11.3382 5.23766 11.3977 5.21476 11.4209 5.16398L12.1761 3.5138C12.1761 3.5138 13.0285 2.03464 14.5023 1.80269C14.6753 1.77547 14.8067 1.95893 14.7342 2.1183L13.4892 4.85238C13.4513 4.93567 13.533 5.02323 13.6187 4.99109L15.0393 4.45837C15.0393 4.45837 16.895 3.80637 18.3182 4.67507C18.4785 4.77296 18.4611 5.011 18.2857 5.07845L14.6772 6.46634C14.5903 6.49977 14.5849 6.62074 14.6685 6.66174L15.6045 7.12057C16.1373 7.38171 16.6102 7.76124 16.944 8.25173C17.1198 8.51008 17.2784 8.82185 17.3783 9.18862C17.4255 9.36233 17.2502 9.51597 17.0816 9.45287L12.2592 7.64788C12.2115 7.63001 12.1579 7.64986 12.1333 7.69451Z" fill="#048C7C"/>
<path d="M33.6677 20.3002C33.6677 21.2583 32.891 22.0349 31.9329 22.0349H28.3924C27.7322 22.0349 27.197 22.5701 27.197 23.2303C27.197 23.8905 26.6618 24.4256 26.0017 24.4256H20.1632C19.2052 24.4256 18.4285 23.649 18.4285 22.6909C18.4285 21.7328 19.2052 20.9562 20.1632 20.9562H23.7038C24.364 20.9562 24.8992 20.421 24.8992 19.7608C24.8992 19.1007 25.4343 18.5655 26.0945 18.5655H31.9329C32.891 18.5655 33.6677 19.3422 33.6677 20.3002Z" fill="#F3A35C"/>
<path d="M32.0811 18.6801C32.0811 19.1266 31.8993 19.5336 31.6069 19.826C31.3817 20.0493 31.0932 20.2073 30.7692 20.2706C30.6704 20.2903 30.5677 20.3002 30.461 20.3002H25.5433C24.6483 20.3002 23.9212 19.5751 23.9212 18.6801V17.0698C23.9212 16.6351 24.097 16.2183 24.4072 15.912L27.2247 13.1519L31.6069 17.5341C31.9112 17.8384 32.0811 18.2494 32.0811 18.6801Z" fill="#9A8079"/>
<path d="M30.7692 20.2706C30.6704 20.2903 30.5677 20.3002 30.461 20.3002H25.5433C24.6483 20.3002 23.9212 19.5751 23.9212 18.6801V17.0698C23.9212 16.6351 24.097 16.2183 24.4072 15.912L27.2247 13.1519V15.746C27.2247 16.3724 27.4736 16.975 27.9182 17.4195L30.7692 20.2706Z" fill="#6D5B4F"/>
<path d="M25.4445 20.2943C25.4445 20.6993 25.2844 21.0886 24.996 21.375L24.1247 22.2464C23.9962 22.3748 23.85 22.4775 23.688 22.5506C23.4885 22.6455 23.2692 22.6949 23.0439 22.6949H22.6251C22.22 22.6949 21.8308 22.5328 21.5443 22.2464L20.6473 21.3494C20.3608 21.0629 20.2008 20.6736 20.2008 20.2686V20.2212C20.2008 19.8102 20.3648 19.417 20.6592 19.1286L21.4435 18.36C21.6273 18.1822 21.8486 18.0538 22.0896 17.9846C22.226 17.9431 22.3702 17.9234 22.5144 17.9234H23.0755C23.4806 17.9234 23.8698 18.0854 24.1563 18.3719L24.996 19.2135C25.2844 19.5 25.4445 19.8873 25.4445 20.2943Z" fill="#9A8079"/>
<path d="M23.688 20.6183V22.5506C23.4885 22.6454 23.2692 22.6948 23.0439 22.6948H22.6251C22.22 22.6948 21.8308 22.5328 21.5443 22.2463L20.6473 21.3493C20.3608 21.0628 20.2008 20.6736 20.2008 20.2686V20.2211C20.2008 19.8102 20.3648 19.417 20.6591 19.1285L21.4435 18.36C21.6273 18.1821 21.8486 18.0537 22.0896 17.9846L23.0439 18.9982C23.4569 19.4368 23.688 20.0157 23.688 20.6183Z" fill="#6D5B4F"/>
</svg>
