<svg width="45" height="45" viewBox="0 0 45 45" fill="none" xmlns="http://www.w3.org/2000/svg">
<path d="M8.10009 27.7699V30.7583C8.09488 31.6716 8.31908 32.5722 8.75306 33.3807C9.18702 34.1893 9.81747 34.8811 10.5889 35.3953L16.9031 39.6493C17.7443 40.2045 18.7359 40.5008 19.7505 40.5002H25.6844C27.1417 40.5014 28.5461 39.9661 29.6186 39.0006L35.0526 34.151C35.6318 33.6324 36.0942 33.0015 36.4105 32.2983C36.7267 31.5952 36.8897 30.8353 36.8893 30.067V19.7934C36.8893 18.2252 36.2526 16.7211 35.1194 15.6122C33.9862 14.5032 32.4493 13.8803 30.8467 13.8803H25.4996C23.9759 13.8794 22.4942 14.369 21.2829 15.2735L9.98019 23.6966C9.39546 24.2109 8.92642 24.8387 8.60276 25.5398C8.27909 26.241 8.10793 27.0005 8.10009 27.7699Z" fill="#A75542"/>
<path d="M8.1 24.2813V27.2592C8.10039 28.1682 8.32843 29.0633 8.76419 29.8661C9.19998 30.6689 9.83016 31.355 10.5996 31.8642L16.9139 36.1184C17.7518 36.6815 18.7448 36.9819 19.7613 36.9797H25.6952C27.1515 36.9759 28.554 36.4413 29.6294 35.4802L35.0634 30.6199C35.6426 30.1014 36.105 29.4704 36.4213 28.7672C36.7375 28.0642 36.9005 27.3042 36.9001 26.5361V16.2518C36.9001 14.6835 36.2634 13.1794 35.1302 12.0705C33.997 10.9616 32.46 10.3386 30.8575 10.3386H25.5104C23.9867 10.3377 22.5049 10.8273 21.2936 11.7318L9.99099 20.1761C9.40131 20.6941 8.92855 21.3267 8.60294 22.0335C8.27732 22.7404 8.10602 23.5059 8.1 24.2813Z" fill="#8C4737"/>
<path d="M8.10001 21.5694V24.5472C8.0985 25.4566 8.32574 26.3524 8.76168 27.1555C9.19764 27.9586 9.82881 28.6444 10.5997 29.1523L16.9139 33.4064C17.7518 33.9695 18.7448 34.27 19.7613 34.2679H25.6952C27.1515 34.2639 28.5541 33.7293 29.6294 32.7683L35.0634 27.908C35.6426 27.3894 36.105 26.7584 36.4213 26.0554C36.7375 25.3522 36.9005 24.5923 36.9001 23.8241V13.5504C36.9001 11.9822 36.2634 10.4781 35.1302 9.36918C33.997 8.26025 32.4601 7.63726 30.8575 7.63726H25.5104C23.9867 7.63639 22.5049 8.12595 21.2936 9.03051L9.99099 17.4749C9.40266 17.9915 8.9307 18.6224 8.60513 19.3273C8.27956 20.0323 8.10753 20.7959 8.10001 21.5694Z" fill="#95CC5F"/>
<path d="M8.1 18.4321V21.41C8.10039 22.319 8.32843 23.2141 8.76419 24.0169C9.19998 24.8197 9.83016 25.5057 10.5996 26.015L16.9139 30.2691C17.7518 30.8323 18.7448 31.1327 19.7613 31.1306H25.6952C27.1515 31.1266 28.554 30.592 29.6294 29.631L35.0634 24.7707C35.6426 24.2521 36.105 23.6212 36.4213 22.9181C36.7375 22.2149 36.9005 21.455 36.9001 20.6868V10.4132C36.9001 8.8449 36.2634 7.34086 35.1302 6.23192C33.997 5.12299 32.46 4.5 30.8575 4.5H25.5104C23.9867 4.49914 22.5049 4.98869 21.2936 5.89321L9.99099 14.3375C9.40266 14.8542 8.93069 15.4851 8.60512 16.1901C8.27956 16.895 8.10753 17.6585 8.1 18.4321Z" fill="#BCE466"/>
<path d="M23.4076 20.0741C25.2431 20.0741 26.7311 19.2267 26.7311 18.1814C26.7311 17.1361 25.2431 16.2887 23.4076 16.2887C21.5721 16.2887 20.0841 17.1361 20.0841 18.1814C20.0841 19.2267 21.5721 20.0741 23.4076 20.0741Z" fill="#95CC5F"/>
<path d="M19.2847 14.717C20.4912 14.717 21.4692 13.7454 21.4692 12.5469C21.4692 11.3484 20.4912 10.3768 19.2847 10.3768C18.0781 10.3768 17.1 11.3484 17.1 12.5469C17.1 13.7454 18.0781 14.717 19.2847 14.717Z" fill="#95CC5F"/>
<path d="M26.1177 14.717C27.3243 14.717 28.3023 13.7454 28.3023 12.5469C28.3023 11.3484 27.3243 10.3768 26.1177 10.3768C24.9112 10.3768 23.9331 11.3484 23.9331 12.5469C23.9331 13.7454 24.9112 14.717 26.1177 14.717Z" fill="#95CC5F"/>
<path d="M21.4802 13.2485H23.747V17.197C23.747 17.4956 23.6276 17.7819 23.415 17.9931C23.2025 18.2042 22.9142 18.3228 22.6137 18.3228C22.3131 18.3228 22.0248 18.2042 21.8122 17.9931C21.5996 17.7819 21.4802 17.4956 21.4802 17.197V13.2485Z" fill="#564218"/>
<path d="M22.7014 13.8956C25.1689 13.8956 27.1692 11.9087 27.1692 9.45756C27.1692 7.00653 25.1689 5.01954 22.7014 5.01954C20.2339 5.01954 18.2336 7.00653 18.2336 9.45756C18.2336 11.9087 20.2339 13.8956 22.7014 13.8956Z" fill="#95CC5F"/>
<path d="M22.7012 7.94016C23.9077 7.94016 24.8858 6.96858 24.8858 5.77008C24.8858 4.57158 23.9077 3.6 22.7012 3.6C21.4946 3.6 20.5165 4.57158 20.5165 5.77008C20.5165 6.96858 21.4946 7.94016 22.7012 7.94016Z" fill="#95CC5F"/>
<path d="M21.6664 10.6487C22.9183 10.6487 23.9332 9.64062 23.9332 8.39708C23.9332 7.15352 22.9183 6.14542 21.6664 6.14542C20.4145 6.14542 19.3997 7.15352 19.3997 8.39708C19.3997 9.64062 20.4145 10.6487 21.6664 10.6487Z" fill="#BCE466"/>
</svg>
