<svg width="45" height="45" viewBox="0 0 45 45" fill="none" xmlns="http://www.w3.org/2000/svg">
<path d="M20.0983 11.0998H9.30456C8.03908 11.0998 7.01323 12.1133 7.01323 13.3635V13.369C7.01323 14.6191 8.03908 15.6326 9.30456 15.6326H20.0983C21.3637 15.6326 22.3896 14.6191 22.3896 13.369V13.3635C22.3896 12.1133 21.3637 11.0998 20.0983 11.0998Z" fill="#C3DD83"/>
<path d="M19.3851 9.44649H8.5913C7.32585 9.44649 6.3 10.46 6.3 11.7101V11.7157C6.3 12.9658 7.32585 13.9793 8.5913 13.9793H19.3851C20.6505 13.9793 21.6763 12.9658 21.6763 11.7157V11.7101C21.6763 10.46 20.6505 9.44649 19.3851 9.44649Z" fill="#95CC5F"/>
<path d="M17.15 7.86533H12.7527C11.4872 7.86533 10.4614 8.8788 10.4614 10.129V10.5839C10.4614 11.8341 11.4872 12.8476 12.7527 12.8476H17.15C18.4154 12.8476 19.4413 11.8341 19.4413 10.5839V10.129C19.4413 8.8788 18.4154 7.86533 17.15 7.86533Z" fill="#95CC5F"/>
<path d="M15.0046 8.29259H11.7362C10.5886 8.29259 9.65826 9.21042 9.65826 10.3426C9.65826 11.4748 10.5886 12.3926 11.7362 12.3926H15.0046C16.1522 12.3926 17.0825 11.4748 17.0825 10.3426C17.0825 9.21042 16.1522 8.29259 15.0046 8.29259Z" fill="#BCE466"/>
<path d="M36.2803 34.4018H25.4865C24.2211 34.4018 23.1953 35.4153 23.1953 36.6655V36.671C23.1953 37.9211 24.2211 38.9346 25.4865 38.9346H36.2803C37.5458 38.9346 38.5716 37.9211 38.5716 36.671V36.6655C38.5716 35.4153 37.5458 34.4018 36.2803 34.4018Z" fill="#C3DD83"/>
<path d="M35.567 32.7485H24.7733C23.5078 32.7485 22.482 33.762 22.482 35.0122V35.0176C22.482 36.2678 23.5078 37.2813 24.7733 37.2813H35.567C36.8325 37.2813 37.8583 36.2678 37.8583 35.0176V35.0122C37.8583 33.762 36.8325 32.7485 35.567 32.7485Z" fill="#95CC5F"/>
<path d="M33.3319 31.1674H28.9346C27.6692 31.1674 26.6434 32.1808 26.6434 33.431V33.8859C26.6434 35.1361 27.6692 36.1496 28.9346 36.1496H33.3319C34.5973 36.1496 35.6233 35.1361 35.6233 33.8859V33.431C35.6233 32.1808 34.5973 31.1674 33.3319 31.1674Z" fill="#95CC5F"/>
<path d="M31.1866 31.5946H27.9182C26.7706 31.5946 25.8403 32.5124 25.8403 33.6446C25.8403 34.7768 26.7706 35.6946 27.9182 35.6946H31.1866C32.3342 35.6946 33.2645 34.7768 33.2645 33.6446C33.2645 32.5124 32.3342 31.5946 31.1866 31.5946Z" fill="#BCE466"/>
<path d="M33.3837 20.9328C33.3837 20.6671 33.2868 20.4123 33.1143 20.2244C32.9418 20.0365 32.7079 19.931 32.4639 19.931H7.86708C7.62315 19.931 7.38918 20.0365 7.21669 20.2244C7.0442 20.4123 6.94731 20.6671 6.94731 20.9328C6.94729 21.1996 7.04387 21.4555 7.21609 21.6451C7.3883 21.8347 7.62224 21.9426 7.86708 21.9455H8.80663V22.3763H7.86708C7.62315 22.3763 7.38918 22.4819 7.21669 22.6698C7.0442 22.8577 6.94731 23.1125 6.94731 23.3782C6.94731 23.6439 7.0442 23.8988 7.21669 24.0867C7.38918 24.2745 7.62315 24.3801 7.86708 24.3801H8.80663V24.811H7.86708C7.62315 24.811 7.38918 24.9166 7.21669 25.1044C7.0442 25.2923 6.94731 25.5471 6.94731 25.8129C6.94729 26.0796 7.04387 26.3355 7.21609 26.5252C7.3883 26.7147 7.62224 26.8227 7.86708 26.8255H8.80663V27.5365H7.86708C7.62315 27.5365 7.38918 27.6421 7.21669 27.8299C7.0442 28.0178 6.94731 28.2727 6.94731 28.5384C6.94729 28.805 7.04387 29.061 7.21609 29.2506C7.3883 29.4403 7.62224 29.5482 7.86708 29.551H8.80663V30.8437H10.7847V29.551H29.3782V30.8437H31.3562V29.551H32.4243C32.6692 29.5482 32.9032 29.4403 33.0754 29.2506C33.2476 29.061 33.3441 28.805 33.3441 28.5384C33.3441 28.2727 33.2472 28.0178 33.0747 27.8299C32.9022 27.6421 32.6683 27.5365 32.4243 27.5365H31.3958V26.8794H32.4639C32.7088 26.8765 32.9427 26.7686 33.1149 26.579C33.2871 26.3893 33.3837 26.1335 33.3837 25.8667C33.3837 25.601 33.2868 25.3462 33.1143 25.1583C32.9418 24.9704 32.7079 24.8648 32.4639 24.8648H31.3958V24.434H32.4639C32.7079 24.434 32.9418 24.3284 33.1143 24.1405C33.2868 23.9526 33.3837 23.6978 33.3837 23.432C33.3837 23.1664 33.2868 22.9116 33.1143 22.7237C32.9418 22.5358 32.7079 22.4303 32.4639 22.4303H31.3958V21.9993H32.4639C32.5894 21.9981 32.7135 21.9691 32.8284 21.9143C32.9434 21.8594 33.0469 21.7797 33.1329 21.6801C33.2188 21.5804 33.2854 21.4628 33.3284 21.3344C33.3715 21.206 33.3904 21.0694 33.3837 20.9328ZM29.4277 27.5365H10.8341V26.8794H29.4277V27.5365ZM29.4277 24.811H10.8341V24.3801H29.4277V24.811ZM29.4277 22.3763H10.8341V21.9455H29.4277V22.3763Z" fill="#C3DD83"/>
<path d="M35.3815 26.5346V16.2036H33.4035V26.5346H35.3815Z" fill="#6A7680"/>
<path d="M14.7901 26.5346V16.2036H12.812V26.5346H14.7901Z" fill="#6A7680"/>
<path d="M37.3693 24.2401C37.3693 23.9743 37.2724 23.7195 37.0999 23.5316C36.9273 23.3438 36.6934 23.2382 36.4495 23.2382H11.8527C11.6087 23.2382 11.3748 23.3438 11.2023 23.5316C11.0299 23.7195 10.9329 23.9743 10.9329 24.2401C10.9329 24.5057 11.0299 24.7606 11.2023 24.9485C11.3748 25.1364 11.6087 25.2419 11.8527 25.2419H36.4495C36.6934 25.2419 36.9273 25.1364 37.0999 24.9485C37.2724 24.7606 37.3693 24.5057 37.3693 24.2401Z" fill="#F9BBBC"/>
<path d="M37.3693 21.493C37.3693 21.2263 37.2727 20.9704 37.1005 20.7807C36.9283 20.5912 36.6943 20.4832 36.4495 20.4804H11.8527C11.6078 20.4832 11.3739 20.5912 11.2017 20.7807C11.0295 20.9704 10.9329 21.2263 10.9329 21.493C10.9329 21.7588 11.0299 22.0136 11.2023 22.2015C11.3748 22.3893 11.6087 22.4949 11.8527 22.4949H36.4495C36.6934 22.4949 36.9273 22.3893 37.0999 22.2015C37.2724 22.0136 37.3693 21.7588 37.3693 21.493Z" fill="#F37276"/>
<path d="M37.3693 19.0692C37.3693 18.8035 37.2724 18.5486 37.0999 18.3607C36.9273 18.1729 36.6934 18.0673 36.4495 18.0673H11.8527C11.6087 18.0673 11.3748 18.1729 11.2023 18.3607C11.0299 18.5486 10.9329 18.8035 10.9329 19.0692C10.9329 19.3359 11.0295 19.5918 11.2017 19.7815C11.3739 19.9711 11.6078 20.079 11.8527 20.0819H36.4495C36.6943 20.079 36.9283 19.9711 37.1005 19.7815C37.2727 19.5918 37.3693 19.3359 37.3693 19.0692Z" fill="#F37276"/>
<path d="M37.3693 16.6345C37.3693 16.5029 37.3455 16.3727 37.2992 16.2511C37.2531 16.1295 37.1853 16.0192 37.0999 15.9261C37.0145 15.8331 36.9131 15.7593 36.8015 15.709C36.6899 15.6586 36.5703 15.6326 36.4495 15.6326H11.8527C11.7319 15.6326 11.6123 15.6586 11.5007 15.709C11.3891 15.7593 11.2877 15.8331 11.2023 15.9261C11.1169 16.0192 11.0491 16.1295 11.0029 16.2511C10.9567 16.3727 10.9329 16.5029 10.9329 16.6345C10.9329 16.9002 11.0299 17.1551 11.2023 17.343C11.3748 17.5308 11.6087 17.6364 11.8527 17.6364H36.4495C36.6934 17.6364 36.9273 17.5308 37.0999 17.343C37.2724 17.1551 37.3693 16.9002 37.3693 16.6345Z" fill="#F37276"/>
</svg>
