<svg width="45" height="45" viewBox="0 0 45 45" fill="none" xmlns="http://www.w3.org/2000/svg">
<path d="M36.4873 24.4782V33.5465H4.47977V24.4782C4.47977 24.1198 4.56745 23.7752 4.72436 23.4706C4.85358 23.2214 5.03048 22.9968 5.24431 22.8153C5.42582 22.6584 5.6335 22.5291 5.86425 22.4384L15.3848 18.648L20.4843 16.6174L25.5838 18.648L35.1028 22.4384C35.3351 22.5307 35.5459 22.6599 35.7289 22.8199C36.055 23.1014 36.2919 23.4737 36.4073 23.8921C36.4596 24.0798 36.4873 24.2766 36.4873 24.4782Z" fill="#FCFAED"/>
<path d="M36.4873 24.4782V33.5465H25.1361V23.0906L24.9377 22.8153L21.9442 18.648L20.4843 16.6174L25.5838 18.648L35.1028 22.4384C35.3351 22.5307 35.5459 22.6599 35.7289 22.8199C35.7335 22.8229 35.7366 22.8276 35.7412 22.8306C35.7689 22.8553 35.7966 22.8799 35.8228 22.906C35.8428 22.9245 35.8612 22.9429 35.8797 22.9629C35.8981 22.9814 35.9151 23.0014 35.932 23.0214C35.9535 23.0429 35.972 23.0645 35.9889 23.0875C36.0043 23.1045 36.0166 23.1214 36.0289 23.1383C36.0504 23.1629 36.0689 23.1875 36.0858 23.2137C36.1074 23.2429 36.1274 23.2737 36.1474 23.3044C36.1489 23.3075 36.1504 23.3106 36.1535 23.3137C36.1797 23.3552 36.2043 23.3998 36.2273 23.4429C36.2304 23.446 36.232 23.4506 36.2335 23.4537C36.2566 23.4983 36.2781 23.5429 36.2981 23.5875C36.3196 23.6367 36.3396 23.6859 36.3581 23.7367C36.3596 23.7413 36.3612 23.7459 36.3627 23.749C36.3796 23.7967 36.3935 23.8444 36.4073 23.8921C36.4596 24.0798 36.4873 24.2767 36.4873 24.4782Z" fill="#E5E3DA"/>
<path d="M6.63802 22.8152H5.24431C5.03048 22.9968 4.85358 23.2213 4.72437 23.4705C4.7782 23.7105 4.99357 23.892 5.25047 23.892H6.63802C6.93645 23.892 7.17642 23.6505 7.17642 23.3536C7.17642 23.0552 6.93645 22.8152 6.63802 22.8152ZM9.4162 22.8152H8.0271C7.73021 22.8152 7.48869 23.0552 7.48869 23.3536C7.48869 23.6505 7.73021 23.892 8.0271 23.892H9.4162C9.7131 23.892 9.95461 23.6505 9.95461 23.3536C9.95461 23.0552 9.7131 22.8152 9.4162 22.8152ZM12.1928 22.8152H10.8037C10.5069 22.8152 10.2653 23.0552 10.2653 23.3536C10.2653 23.6505 10.5069 23.892 10.8037 23.892H12.1928C12.4897 23.892 12.7312 23.6505 12.7312 23.3536C12.7312 23.0552 12.4897 22.8152 12.1928 22.8152ZM14.9695 22.8152H13.5804C13.2835 22.8152 13.042 23.0552 13.042 23.3536C13.042 23.6505 13.2835 23.892 13.5804 23.892H14.9695C15.2664 23.892 15.5079 23.6505 15.5079 23.3536C15.5079 23.0552 15.2664 22.8152 14.9695 22.8152ZM17.7461 22.8152H16.357C16.0601 22.8152 15.8186 23.0552 15.8186 23.3536C15.8186 23.6505 16.0601 23.892 16.357 23.892H17.7461C18.043 23.892 18.2845 23.6505 18.2845 23.3536C18.2845 23.0552 18.043 22.8152 17.7461 22.8152ZM20.5228 22.8152H19.1337C18.8368 22.8152 18.5953 23.0552 18.5953 23.3536C18.5953 23.6505 18.8368 23.892 19.1337 23.892H20.5228C20.8197 23.892 21.0612 23.6505 21.0612 23.3536C21.0612 23.0552 20.8197 22.8152 20.5228 22.8152ZM23.2994 22.8152H21.9119C21.6134 22.8152 21.3735 23.0552 21.3735 23.3536C21.3735 23.6505 21.6134 23.892 21.9119 23.892H23.2994C23.5963 23.892 23.8378 23.6505 23.8378 23.3536C23.8378 23.0552 23.5963 22.8152 23.2994 22.8152ZM26.076 22.8152H24.6885C24.3901 22.8152 24.1501 23.0552 24.1501 23.3536C24.1501 23.6505 24.3901 23.892 24.6885 23.892H26.076C26.3729 23.892 26.6145 23.6505 26.6145 23.3536C26.6145 23.0552 26.3729 22.8152 26.076 22.8152ZM28.8527 22.8152H27.4651C27.1667 22.8152 26.9267 23.0552 26.9267 23.3536C26.9267 23.6505 27.1667 23.892 27.4651 23.892H28.8527C29.1511 23.892 29.3911 23.6505 29.3911 23.3536C29.3911 23.0552 29.1511 22.8152 28.8527 22.8152ZM31.6293 22.8152H30.2418C29.9434 22.8152 29.7034 23.0552 29.7034 23.3536C29.7034 23.6505 29.9434 23.892 30.2418 23.892H31.6293C31.9278 23.892 32.1677 23.6505 32.1677 23.3536C32.1677 23.0552 31.9278 22.8152 31.6293 22.8152ZM34.406 22.8152H33.0184C32.7215 22.8152 32.48 23.0552 32.48 23.3536C32.48 23.6505 32.7215 23.892 33.0184 23.892H34.406C34.7044 23.892 34.9444 23.6505 34.9444 23.3536C34.9444 23.0552 34.7044 22.8152 34.406 22.8152Z" fill="#E5E3DA"/>
<path d="M36.4073 23.8921H35.7951C35.4982 23.8921 35.2567 23.6505 35.2567 23.3536C35.2567 23.0783 35.4628 22.8522 35.7289 22.8199C36.055 23.1014 36.2919 23.4736 36.4073 23.8921Z" fill="#E5E3DA"/>
<path d="M26.6145 23.3536C26.6145 23.6505 26.3729 23.8921 26.076 23.8921H25.1361V23.0906L24.9377 22.8152H26.076C26.3729 22.8152 26.6145 23.0552 26.6145 23.3536Z" fill="#D1CFC9"/>
<path d="M28.8527 22.8152H27.4651C27.1667 22.8152 26.9267 23.0552 26.9267 23.3536C26.9267 23.6505 27.1667 23.892 27.4651 23.892H28.8527C29.1511 23.892 29.3911 23.6505 29.3911 23.3536C29.3911 23.0552 29.1511 22.8152 28.8527 22.8152Z" fill="#D1CFC9"/>
<path d="M34.406 22.8152H33.0184C32.7215 22.8152 32.48 23.0552 32.48 23.3536C32.48 23.6505 32.7215 23.892 33.0184 23.892H34.406C34.7044 23.892 34.9444 23.6505 34.9444 23.3536C34.9444 23.0552 34.7044 22.8152 34.406 22.8152Z" fill="#D1CFC9"/>
<path d="M31.6293 22.8152H30.2418C29.9433 22.8152 29.7034 23.0552 29.7034 23.3536C29.7034 23.6505 29.9433 23.892 30.2418 23.892H31.6293C31.9278 23.892 32.1677 23.6505 32.1677 23.3536C32.1677 23.0552 31.9278 22.8152 31.6293 22.8152Z" fill="#D1CFC9"/>
<path d="M36.4073 23.8921H35.7951C35.4982 23.8921 35.2567 23.6505 35.2567 23.3536C35.2567 23.0783 35.4628 22.8522 35.7289 22.8199C36.055 23.1014 36.2919 23.4736 36.4073 23.8921Z" fill="#D1CFC9"/>
<path d="M10.8645 24.632H4.47977V25.5347H10.8645V24.632Z" fill="#E5E3DA"/>
<path d="M10.8645 27.8167H4.47977V28.7194H10.8645V27.8167Z" fill="#E5E3DA"/>
<path d="M10.8645 31.0013H4.47977V31.9041H10.8645V31.0013Z" fill="#E5E3DA"/>
<path d="M25.1361 24.632H14.8476V25.5347H25.1361V24.632Z" fill="#E5E3DA"/>
<path d="M36.4873 24.632H25.1361V25.5347H36.4873V24.632Z" fill="#D1CFC9"/>
<path d="M25.1361 27.8167H14.8476V28.7194H25.1361V27.8167Z" fill="#E5E3DA"/>
<path d="M36.4873 27.8167H25.1361V28.7194H36.4873V27.8167Z" fill="#D1CFC9"/>
<path d="M25.1361 31.0013H14.8476V31.9041H25.1361V31.0013Z" fill="#E5E3DA"/>
<path d="M36.4873 31.0013H25.1361V31.9041H36.4873V31.0013Z" fill="#D1CFC9"/>
<path d="M39.7839 35.0802C38.9347 35.9293 34.0322 36.7 20.4843 36.7C6.93642 36.7 2 35.2817 2 35.2817L2.90607 34.2756L3.60599 33.4988H38.2025L39.7839 35.0802Z" fill="#848380"/>
<path d="M25.1361 33.4988V34.2756H2.90605L3.60598 33.4988H25.1361Z" fill="#999895"/>
<path d="M15.3025 25.2693H10.6576V33.4988H15.3025V25.2693Z" fill="#999895"/>
<path d="M15.5079 24.632V24.6284H10.054V24.632H9.95459V33.4988H10.8645V25.5335H14.8476V33.4988H15.7575V24.632H15.5079Z" fill="#D1CFC9"/>
<path d="M25.5838 18.648H15.3848L20.4843 16.6174L25.5838 18.648Z" fill="#CEEBF0"/>
<path d="M25.5838 18.648H21.9442L20.4843 16.6174L25.5838 18.648Z" fill="#AEDFE6"/>
<path d="M20.4835 13.7975C20.7146 13.7975 20.9021 13.985 20.9021 14.216V16.798H20.0649V14.216C20.0649 13.985 20.2525 13.7975 20.4835 13.7975Z" fill="#D1D3D4"/>
<path d="M32.988 7C33.2031 7 33.3778 7.17468 33.3778 7.38983V29.4805H32.5981V7.38984C32.5981 7.17468 32.7728 7 32.988 7Z" fill="#848380"/>
<path d="M42.9664 7.95261V13.8183C42.9664 13.9861 42.8064 14.111 42.6425 14.072C42.2757 13.9822 41.6278 13.8534 40.8551 13.8534C40.4843 13.8534 39.9692 13.9237 39.3916 14.0212C38.092 14.2398 36.4724 14.5988 35.4226 14.5988C33.9045 14.5988 33.3776 14.2164 33.3776 14.2164V7.75357C33.3776 7.75357 34.0137 8.04236 34.8801 8.15165H34.884C35.0869 8.17507 35.3016 8.19068 35.5241 8.19068C36.7105 8.19068 39.4658 7.39062 40.9058 7.39062C41.9401 7.39062 42.5489 7.59745 42.8103 7.71455C42.9079 7.75357 42.9664 7.84723 42.9664 7.95261Z" fill="#A7DCDF"/>
<path d="M39.3916 14.0212C38.092 14.2398 36.4724 14.5988 35.4226 14.5988C33.9045 14.5988 33.3776 14.2164 33.3776 14.2164V7.75354C33.3776 7.75354 34.0137 8.04233 34.8801 8.15162H34.884C35.368 9.7361 36.5934 12.5538 39.3916 14.0212Z" fill="#84D0D3"/>
<path d="M35.814 31.0013H30.0713V33.5464H35.814V31.0013Z" fill="#B7B6B2"/>
<path d="M35.814 31.0013H32.5981V33.5464H35.814V31.0013Z" fill="#999895"/>
<path d="M34.9828 29.4805H31.7085V31.0013H34.9828V29.4805Z" fill="#999895"/>
<path d="M34.9828 29.4805H33.3457V31.0013H34.9828V29.4805Z" fill="#848380"/>
<path d="M14.8476 25.5347H12.3784V33.4988H14.8476V25.5347Z" fill="#848380"/>
<path d="M13.3842 29.2657C13.3842 29.1541 13.2938 29.0636 13.1821 29.0636C13.0705 29.0636 12.9801 29.1541 12.9801 29.2657V30.3622C12.9801 30.4738 13.0705 30.5643 13.1821 30.5643C13.2938 30.5643 13.3842 30.4738 13.3842 30.3622V29.2657Z" fill="#666563"/>
<path d="M11.9024 29.2657C11.9024 29.1541 11.812 29.0636 11.7004 29.0636C11.5887 29.0636 11.4983 29.1541 11.4983 29.2657V30.3622C11.4983 30.4738 11.5887 30.5643 11.7004 30.5643C11.812 30.5643 11.9024 30.4738 11.9024 30.3622V29.2657Z" fill="#666563"/>
</svg>
