<svg width="45" height="45" viewBox="0 0 45 45" fill="none" xmlns="http://www.w3.org/2000/svg">
<path d="M33.8612 5.4H11.1388C7.96935 5.4 5.4 8.08962 5.4 11.4074V33.5926C5.4 36.9104 7.96935 39.6 11.1388 39.6H33.8612C37.0307 39.6 39.6 36.9104 39.6 33.5926V11.4074C39.6 8.08962 37.0307 5.4 33.8612 5.4Z" fill="#F7DFC3"/>
<path d="M32.1057 7.15419H12.8944C9.72495 7.15419 7.15561 9.84384 7.15561 13.1616V31.8314C7.15561 35.1492 9.72495 37.8388 12.8944 37.8388H32.1057C35.2751 37.8388 37.8445 35.1492 37.8445 31.8314V13.1616C37.8445 9.84384 35.2751 7.15419 32.1057 7.15419Z" fill="#ACE9F4"/>
<path d="M32.1124 7.16111H12.9277C11.8945 7.16068 10.8804 7.45293 9.99297 8.00686C9.10557 8.5608 8.37788 9.35577 7.88708 10.3075C8.87571 9.53451 10.0777 9.11916 11.3117 9.12411L29.1997 8.85267H30.2438C31.7646 8.85451 33.2226 9.48825 34.2974 10.6147C35.3722 11.741 35.9759 13.2681 35.9759 14.8601V33.5368C35.9807 34.8286 35.5839 36.0868 34.8454 37.1218C35.7546 36.608 36.5141 35.8463 37.0432 34.9173C37.5724 33.9883 37.8516 32.9269 37.8511 31.8452V13.1616C37.8511 12.373 37.7027 11.5922 37.4142 10.8637C37.1257 10.1353 36.7029 9.4734 36.1699 8.91616C35.6369 8.35887 35.0042 7.91701 34.308 7.61587C33.6118 7.31473 32.8657 7.1602 32.1124 7.16111Z" fill="#5097B3"/>
<path d="M33.4954 32.1794H27.2645C26.9193 32.1794 26.6395 32.4724 26.6395 32.8337V32.8407C26.6395 33.2021 26.9193 33.495 27.2645 33.495H33.4954C33.8406 33.495 34.1204 33.2021 34.1204 32.8407V32.8337C34.1204 32.4724 33.8406 32.1794 33.4954 32.1794Z" fill="#D3F9FE"/>
<path d="M27.1914 19.1413H20.9605C20.6153 19.1413 20.3355 19.4342 20.3355 19.7956V19.8026C20.3355 20.164 20.6153 20.4569 20.9605 20.4569H27.1914C27.5367 20.4569 27.8165 20.164 27.8165 19.8026V19.7956C27.8165 19.4342 27.5367 19.1413 27.1914 19.1413Z" fill="#D3F9FE"/>
<path d="M14.8825 30.2165H12.3888C12.0436 30.2165 11.7637 30.5095 11.7637 30.8708V30.8777C11.7637 31.2392 12.0436 31.5321 12.3888 31.5321H14.8825C15.2277 31.5321 15.5075 31.2392 15.5075 30.8777V30.8708C15.5075 30.5095 15.2277 30.2165 14.8825 30.2165Z" fill="#D3F9FE"/>
<path d="M31.627 13.6907H29.1333C28.788 13.6907 28.5082 13.9837 28.5082 14.3451V14.352C28.5082 14.7134 28.788 15.0064 29.1333 15.0064H31.627C31.9722 15.0064 32.252 14.7134 32.252 14.352V14.3451C32.252 13.9837 31.9722 13.6907 31.627 13.6907Z" fill="#D3F9FE"/>
<path d="M19.624 13.9135C19.5399 13.9153 19.4596 13.951 19.4001 14.0133C19.3406 14.0755 19.3064 14.1595 19.3048 14.2475V14.359C18.9533 14.0204 18.4923 13.8339 18.0148 13.8369H16.6847V12.918C16.6858 12.4983 16.5448 12.0919 16.2867 11.7707C16.0286 11.4496 15.6702 11.2345 15.275 11.1638C15.2893 11.1501 15.3007 11.1334 15.3086 11.1148C15.3164 11.0963 15.3204 11.0762 15.3204 11.0559C15.3204 11.0356 15.3164 11.0155 15.3086 10.9969C15.3007 10.9784 15.2893 10.9617 15.275 10.948C15.2613 10.9328 15.2448 10.9208 15.2266 10.9125C15.2082 10.9042 15.1886 10.9 15.1686 10.9C15.1487 10.9 15.1289 10.9042 15.1106 10.9125C15.0924 10.9208 15.0759 10.9328 15.0622 10.948L14.9558 11.0594V11.0107C14.9558 10.97 14.9404 10.931 14.913 10.9023C14.8856 10.8736 14.8483 10.8575 14.8095 10.8575C14.7897 10.8566 14.77 10.8598 14.7515 10.8671C14.733 10.8743 14.7161 10.8855 14.7018 10.8998C14.6875 10.9141 14.676 10.9313 14.6683 10.9504C14.6606 10.9695 14.6566 10.9899 14.6566 11.0107V11.1986C14.2638 11.2734 13.9084 11.4898 13.6521 11.8102C13.3958 12.1306 13.2548 12.5349 13.2535 12.9528V15.3126C13.2552 16.0025 13.5178 16.6637 13.9838 17.1515C14.4499 17.6394 15.0814 17.9142 15.7405 17.9161H17.9948C18.2486 17.917 18.5 17.8654 18.7349 17.7644C18.9696 17.6634 19.183 17.5148 19.3627 17.3272C19.5425 17.1397 19.6852 16.9168 19.7825 16.6715C19.8797 16.4262 19.9299 16.163 19.9299 15.8973V14.2475C19.9283 14.1619 19.896 14.0798 19.8393 14.0179C19.7826 13.9559 19.7058 13.9187 19.624 13.9135Z" fill="#FFE16F"/>
<path d="M18.5068 14.9089C18.5261 14.9089 18.5448 14.917 18.5585 14.9313C18.5722 14.9457 18.58 14.9651 18.58 14.9854C18.5512 15.4976 18.3364 15.979 17.9798 16.331C17.6232 16.6829 17.1516 16.879 16.6614 16.879C16.1714 16.879 15.6997 16.6829 15.3431 16.331C14.9865 15.979 14.7718 15.4976 14.743 14.9854C14.743 14.9651 14.7507 14.9457 14.7644 14.9313C14.7782 14.917 14.7967 14.9089 14.8162 14.9089H18.5068Z" fill="#FFCC0D"/>
<path d="M14.3174 13.0016H12.9875C12.8516 13.0016 12.7214 13.058 12.6254 13.1585C12.5294 13.2591 12.4754 13.3954 12.4754 13.5375C12.4754 13.6797 12.5294 13.8161 12.6254 13.9166C12.7214 14.017 12.8516 14.0736 12.9875 14.0736H14.3174C14.4532 14.0736 14.5834 14.017 14.6795 13.9166C14.7755 13.8161 14.8295 13.6797 14.8295 13.5375C14.8295 13.3954 14.7755 13.2591 14.6795 13.1585C14.5834 13.058 14.4532 13.0016 14.3174 13.0016Z" fill="#FFB163"/>
<path d="M14.896 12.73C14.9951 12.73 15.0755 12.6459 15.0755 12.542C15.0755 12.4383 14.9951 12.3541 14.896 12.3541C14.7968 12.3541 14.7164 12.4383 14.7164 12.542C14.7164 12.6459 14.7968 12.73 14.896 12.73Z" fill="#333E48"/>
<path d="M24.0794 27.2441V28.8311C24.0794 29.3665 24.2826 29.88 24.6443 30.2586C25.0059 30.6372 25.4964 30.8499 26.0078 30.8499H28.2622C28.9212 30.848 29.5528 30.5732 30.0188 30.0853C30.4848 29.5975 30.7474 28.9363 30.7491 28.2464V25.9144C30.7491 25.4962 30.6086 25.0912 30.3521 24.7705C30.0956 24.4498 29.7394 24.2338 29.346 24.1602V23.9584C29.3508 23.935 29.3504 23.9109 29.3451 23.8877C29.3398 23.8646 29.3297 23.8429 29.3153 23.8243C29.3009 23.8059 29.2829 23.791 29.2622 23.7807C29.2417 23.7704 29.2192 23.765 29.1965 23.765C29.1737 23.765 29.1512 23.7704 29.1306 23.7807C29.1101 23.791 29.092 23.8059 29.0776 23.8243C29.0633 23.8429 29.0531 23.8646 29.0477 23.8877C29.0424 23.9109 29.0421 23.935 29.0468 23.9584V24.0001L28.9404 23.8888C28.9267 23.8736 28.9103 23.8615 28.892 23.8532C28.8736 23.845 28.8539 23.8407 28.834 23.8407C28.8141 23.8407 28.7944 23.845 28.7762 23.8532C28.7578 23.8615 28.7413 23.8736 28.7276 23.8888C28.7019 23.9183 28.6877 23.9567 28.6877 23.9967C28.6877 24.0366 28.7019 24.0751 28.7276 24.1046C28.3313 24.1738 27.9713 24.3883 27.7119 24.7095C27.4524 25.0308 27.3105 25.4381 27.3112 25.8588V26.7776H25.9813C25.5045 26.7793 25.0451 26.9653 24.6912 27.2997V27.1884C24.6912 27.096 24.6561 27.0075 24.5938 26.9422C24.5315 26.877 24.4469 26.8402 24.3587 26.8402C24.2706 26.8402 24.186 26.877 24.1236 26.9422C24.0612 27.0075 24.0262 27.096 24.0262 27.1884L24.0794 27.2441Z" fill="#FFE16F"/>
<path d="M25.5157 27.8775H29.213C29.2325 27.8775 29.251 27.8855 29.2648 27.8999C29.2784 27.9143 29.2862 27.9338 29.2862 27.9541C29.2862 28.4876 29.0837 28.9993 28.7233 29.3765C28.3629 29.7538 27.8741 29.9658 27.3643 29.9658C26.8547 29.9658 26.3659 29.7538 26.0054 29.3765C25.645 28.9993 25.4426 28.4876 25.4426 27.9541C25.4426 27.9338 25.4503 27.9143 25.464 27.8999C25.4777 27.8855 25.4963 27.8775 25.5157 27.8775Z" fill="#FFCC0D"/>
<path d="M29.1997 26.534C29.1989 26.604 29.2113 26.6736 29.2363 26.7385C29.2613 26.8035 29.2984 26.8627 29.3454 26.9125C29.3924 26.9624 29.4485 27.002 29.5102 27.029C29.5719 27.0561 29.6382 27.0699 29.7051 27.0699H31.0351C31.1709 27.0699 31.3011 27.0135 31.3971 26.913C31.4932 26.8124 31.5472 26.6761 31.5472 26.534C31.5472 26.3918 31.4932 26.2554 31.3971 26.1549C31.3011 26.0544 31.1709 25.9979 31.0351 25.9979H29.7051C29.5705 25.9997 29.442 26.0571 29.3474 26.1573C29.2528 26.2577 29.1997 26.393 29.1997 26.534Z" fill="#FFB163"/>
<path d="M29.1265 25.7265C29.2257 25.7265 29.3061 25.6424 29.3061 25.5386C29.3061 25.4348 29.2257 25.3507 29.1265 25.3507C29.0273 25.3507 28.947 25.4348 28.947 25.5386C28.947 25.6424 29.0273 25.7265 29.1265 25.7265Z" fill="#333E48"/>
</svg>
