<svg width="45" height="45" viewBox="0 0 45 45" fill="none" xmlns="http://www.w3.org/2000/svg">
<path opacity="0.5" d="M41.8971 23.6729C41.8971 24.26 40.95 24.8086 39.2999 25.2843C35.9357 26.2528 29.6485 26.9 22.4486 26.9C15.2486 26.9 8.96142 26.2529 5.59715 25.2843C3.94714 24.8086 3 24.26 3 23.6729C3 21.89 11.7085 20.4457 22.4486 20.4457C33.1886 20.4457 41.8971 21.89 41.8971 23.6729Z" fill="#999895"/>
<path d="M22.4479 25.5515C15.3413 25.5515 5.84405 23.795 7.24116 22.6362C8.63827 21.4793 8.98804 20.2341 8.98804 20.2341H35.9098C35.9098 20.2341 36.2576 21.4793 37.6547 22.6362C39.0518 23.795 29.5565 25.5515 22.4479 25.5515Z" fill="#999895"/>
<path d="M35.9086 20.2335C35.9086 20.6398 35.2531 21.0195 34.1112 21.3487C31.7828 22.019 27.4316 22.4669 22.4486 22.4669C17.4655 22.4669 13.1143 22.019 10.7859 21.3487C9.64398 21.0195 8.98849 20.6398 8.98849 20.2335C8.98849 18.9996 15.0155 18 22.4486 18C29.8816 18 35.9086 18.9996 35.9086 20.2335Z" fill="#848380"/>
<path d="M34.8081 19.9932C34.8081 20.3254 34.209 20.6309 33.159 20.8979C33.0047 20.9364 32.8416 20.975 32.6696 21.0136C30.4421 21.4941 26.6959 21.8055 22.4485 21.8055C18.2011 21.8055 14.4549 21.4941 12.2274 21.0136C12.0553 20.975 11.8922 20.9364 11.738 20.8979C10.688 20.6309 10.0888 20.3254 10.0888 19.9932C10.0888 18.9937 15.6236 18.1809 22.4485 18.1809C29.2734 18.1809 34.8081 18.9937 34.8081 19.9932Z" fill="#848380"/>
<path d="M32.6696 21.0136C30.4421 21.4941 26.6959 21.8055 22.4485 21.8055C18.2011 21.8055 14.4549 21.4941 12.2274 21.0136C14.6982 20.536 18.3613 20.2335 22.4485 20.2335C26.5358 20.2335 30.1989 20.536 32.6696 21.0136Z" fill="#494846"/>
<path d="M34.8081 19.9932C34.8081 20.3254 34.209 20.6309 33.159 20.8979C33.0047 20.9364 32.8416 20.975 32.6696 21.0136C30.1988 20.536 26.5357 20.2335 22.4485 20.2335C18.3613 20.2335 14.6981 20.536 12.2274 21.0136C12.0553 20.975 11.8922 20.9364 11.738 20.8979C10.688 20.6309 10.0888 20.3254 10.0888 19.9932C10.0888 18.9937 15.6236 18.1809 22.4485 18.1809C29.2734 18.1809 34.8081 18.9937 34.8081 19.9932Z" fill="#706F6D"/>
</svg>
