<svg width="45" height="45" viewBox="0 0 45 45" fill="none" xmlns="http://www.w3.org/2000/svg">
<path d="M7.70943 35.5962H13.4652C13.9271 35.5962 14.2008 32.6988 14.2252 32.4749C14.4608 30.306 14.4468 27.9618 13.8888 25.8553C13.2672 23.5088 12.1773 21.1367 12.6311 18.6552C13.0542 16.3413 14.4155 14.3909 14.4156 11.9537C14.4156 7.98326 11.8277 3.65171 6.24341 3.39605C6.02447 3.38602 5.88114 3.632 5.99848 3.81716C7.52567 6.22712 8.9325 9.08062 8.93447 12.088C8.93662 15.3809 6.86924 18.1194 6.86924 21.4186C6.86924 26.4708 10.2124 26.2395 7.70943 35.5962Z" fill="url(#paint0_linear_121_919)"/>
<path opacity="0.8" d="M11.1871 17.6441C16.8686 17.6441 21.4743 15.9819 21.4743 13.9315C21.4743 11.8811 16.8686 10.2188 11.1871 10.2188C5.50571 10.2188 0.899994 11.8811 0.899994 13.9315C0.899994 15.9819 5.50571 17.6441 11.1871 17.6441Z" fill="#CEEFFF"/>
<path d="M8.88061 13.0056H14.332C14.3837 12.6642 14.4169 12.3162 14.4169 11.9561C14.4169 7.9794 11.8286 3.65559 6.2452 3.39775C6.02706 3.38782 5.87841 3.63575 5.99728 3.81425C7.52454 6.22407 8.93278 9.08017 8.93278 12.085C8.93278 12.396 8.91414 12.7026 8.88061 13.0056Z" fill="#00A998"/>
<path d="M18.6182 44.5215H24.3739C24.8358 44.5215 25.1096 41.6241 25.1339 41.4002C25.3695 39.2313 25.3555 36.8871 24.7975 34.7806C24.1759 32.4341 23.086 30.062 23.5398 27.5805C23.9629 25.2665 25.3243 23.3162 25.3243 20.879C25.3243 16.9086 22.7364 12.577 17.1521 12.3213C16.9332 12.3113 16.7899 12.5573 16.9072 12.7425C18.4344 15.1524 19.8412 18.0059 19.8432 21.0133C19.8453 24.3062 17.778 27.0447 17.778 30.3439C17.778 35.396 21.1211 35.1648 18.6182 44.5215Z" fill="url(#paint1_linear_121_919)"/>
<path opacity="0.8" d="M22.0959 26.5694C27.7773 26.5694 32.383 24.9072 32.383 22.8568C32.383 20.8063 27.7773 19.1441 22.0959 19.1441C16.4144 19.1441 11.8087 20.8063 11.8087 22.8568C11.8087 24.9072 16.4144 26.5694 22.0959 26.5694Z" fill="#CEEFFF"/>
<path d="M19.7893 21.9309H25.2408C25.2925 21.5895 25.3256 21.2415 25.3256 20.8814C25.3256 16.9047 22.7373 12.5809 17.1539 12.323C16.9358 12.3131 16.7871 12.561 16.906 12.7395C18.4333 15.1494 19.8415 18.0055 19.8415 21.0103C19.8415 21.3213 19.8229 21.6279 19.7893 21.9309Z" fill="#00A998"/>
<path d="M28.5351 32.6211H34.2909C34.7528 32.6211 35.0265 29.7237 35.0509 29.4998C35.2865 27.3309 35.2725 24.9867 34.7145 22.8802C34.0929 20.5337 33.003 18.1616 33.4568 15.6801C33.8799 13.3662 35.2412 11.4158 35.2413 8.97861C35.2413 5.00816 32.6534 0.676611 27.0691 0.420951C26.8502 0.410925 26.7069 0.656903 26.8242 0.842063C28.3514 3.25202 29.7582 6.10552 29.7602 9.11294C29.7623 12.4059 27.695 15.1443 27.695 18.4435C27.695 23.4957 31.038 23.2644 28.5351 32.6211Z" fill="url(#paint2_linear_121_919)"/>
<path opacity="0.8" d="M32.0129 14.669C37.6943 14.669 42.3 13.0068 42.3 10.9564C42.3 8.90592 37.6943 7.24371 32.0129 7.24371C26.3314 7.24371 21.7257 8.90592 21.7257 10.9564C21.7257 13.0068 26.3314 14.669 32.0129 14.669Z" fill="#CEEFFF"/>
<path d="M29.7063 10.0305H35.1578C35.2094 9.68914 35.2426 9.34111 35.2426 8.98102C35.2426 5.0043 32.6543 0.680494 27.0709 0.422652C26.8528 0.412725 26.7041 0.660653 26.823 0.839149C28.3503 3.24897 29.7585 6.10507 29.7585 9.10995C29.7585 9.42088 29.7399 9.72752 29.7063 10.0305Z" fill="#00A998"/>
<defs>
<linearGradient id="paint0_linear_121_919" x1="10.186" y1="10.192" x2="10.186" y2="32.821" gradientUnits="userSpaceOnUse">
<stop stop-color="#00AE97"/>
<stop offset="1" stop-color="#00A1A3" stop-opacity="0"/>
</linearGradient>
<linearGradient id="paint1_linear_121_919" x1="21.0947" y1="19.1172" x2="21.0947" y2="41.7463" gradientUnits="userSpaceOnUse">
<stop stop-color="#00AE97"/>
<stop offset="1" stop-color="#00A1A3" stop-opacity="0"/>
</linearGradient>
<linearGradient id="paint2_linear_121_919" x1="31.0117" y1="7.21686" x2="31.0117" y2="29.8459" gradientUnits="userSpaceOnUse">
<stop stop-color="#00AE97"/>
<stop offset="1" stop-color="#00A1A3" stop-opacity="0"/>
</linearGradient>
</defs>
</svg>
