<svg width="45" height="45" viewBox="0 0 45 45" fill="none" xmlns="http://www.w3.org/2000/svg">
<path d="M3.65615 31.9028H2.22157C1.58789 31.9028 1.07419 32.4161 1.07419 33.0492C1.07419 33.6824 1.58789 34.1957 2.22157 34.1957H3.65615C4.28983 34.1957 4.80354 33.6824 4.80354 33.0492C4.80354 32.4161 4.28983 31.9028 3.65615 31.9028Z" fill="#CEEFFF"/>
<path d="M8.09148 29.6444H6.6569C6.02322 29.6444 5.50952 30.1577 5.50952 30.7908C5.50952 31.424 6.02322 31.9373 6.6569 31.9373H8.09148C8.72517 31.9373 9.23886 31.424 9.23886 30.7908C9.23886 30.1577 8.72517 29.6444 8.09148 29.6444Z" fill="#CEEFFF"/>
<path d="M11.4714 31.9071H10.0368C9.40316 31.9071 8.88947 32.4204 8.88947 33.0536C8.88947 33.6867 9.40316 34.2 10.0368 34.2H11.4714C12.1051 34.2 12.6188 33.6867 12.6188 33.0536C12.6188 32.4204 12.1051 31.9071 11.4714 31.9071Z" fill="#CEEFFF"/>
<path d="M29.9358 31.9071H15.3896C14.7559 31.9071 14.2422 32.4204 14.2422 33.0536C14.2422 33.6867 14.7559 34.2 15.3896 34.2H29.9358C30.5695 34.2 31.0832 33.6867 31.0832 33.0536C31.0832 32.4204 30.5695 31.9071 29.9358 31.9071Z" fill="#CEEFFF"/>
<path d="M4.54437 25.7833C4.54437 27.7277 2.93888 27.6309 2.93888 27.6309C2.93888 27.6309 1.3334 27.7277 1.3334 25.7833C1.3334 23.839 2.93888 22.1849 2.93888 22.1849C2.93888 22.1849 4.54437 23.839 4.54437 25.7833Z" fill="#D15400"/>
<path d="M17.9722 23.0559V24.5223H13.1793C10.4585 24.5223 8.24837 26.7336 8.24837 29.4493V30.8892H6.78082V29.4493C6.78082 25.9916 9.54272 23.1645 12.9797 23.0618C13.0443 23.0559 13.1118 23.0559 13.1793 23.0559H17.9722Z" fill="#EF7D30"/>
<path d="M17.9723 26.4109V27.8773H13.7047C12.4397 27.8773 11.4124 28.9067 11.4124 30.1707V33.0535H9.94485V30.1707C9.94485 28.0973 11.6296 26.4109 13.7047 26.4109H17.9723Z" fill="#EF7D30"/>
<path d="M28.7586 15.9236V17.3137C28.7586 18.2874 27.9691 19.0792 26.9917 19.0792H18.4213C17.444 19.0792 16.6515 18.2874 16.6515 17.3137V15.9236C16.6515 11.328 18.48 6.92312 21.7321 3.67367L22.7065 2.70001L23.681 3.67367C26.933 6.92312 28.7586 11.328 28.7586 15.9236Z" fill="#EF7D30"/>
<path d="M27.3616 17.1553V29.546H17.9752V17.1553C17.9752 17.1553 17.7287 12.4806 21.286 7.91439C21.6969 7.38942 22.1548 6.86741 22.6684 6.35419C27.6668 11.3456 27.3616 17.1553 27.3616 17.1553Z" fill="#E7660E"/>
<path d="M27.3616 23.8977V29.546H17.9752V17.1553C17.9752 17.1553 17.7287 12.4806 21.286 7.91443C21.286 7.91443 24.4129 9.37583 24.5564 20.3133C24.5631 20.8206 24.7688 21.3069 25.1278 21.6656L27.3616 23.8977Z" fill="#D15400"/>
<path d="M29.7742 33.0535H15.5626C15.5626 31.5109 16.176 30.027 17.2679 28.936L22.6684 23.5428L28.066 28.936C29.1578 30.027 29.7742 31.5109 29.7742 33.0535Z" fill="#EF7D30"/>
<path d="M18.5153 31.8218C18.5153 32.2939 18.345 32.7221 18.0603 33.0535H15.1693C14.8875 32.7221 14.7144 32.2939 14.7144 31.8218C14.7144 30.7748 15.5655 29.9243 16.6134 29.9243C17.6641 29.9243 18.5153 30.7748 18.5153 31.8218Z" fill="#FFFFFD"/>
<path d="M30.6224 31.8218C30.6224 32.2939 30.4493 32.7221 30.1675 33.0535H27.2765C26.9918 32.7221 26.8215 32.2939 26.8215 31.8218C26.8215 30.7748 27.6727 29.9243 28.7205 29.9243C29.7713 29.9243 30.6224 30.7748 30.6224 31.8218Z" fill="#FFFFFD"/>
<path d="M16.6148 32.7559C17.1306 32.7559 17.5488 32.3381 17.5488 31.8227C17.5488 31.3073 17.1306 30.8895 16.6148 30.8895C16.099 30.8895 15.6809 31.3073 15.6809 31.8227C15.6809 32.3381 16.099 32.7559 16.6148 32.7559Z" fill="#2C2E30"/>
<path d="M28.7219 32.7559C29.2378 32.7559 29.6559 32.3381 29.6559 31.8227C29.6559 31.3073 29.2378 30.8895 28.7219 30.8895C28.2061 30.8895 27.788 31.3073 27.788 31.8227C27.788 32.3381 28.2061 32.7559 28.7219 32.7559Z" fill="#2C2E30"/>
<path d="M3.67215 33.0492H2.20462V26.0302C2.20462 25.6253 2.53314 25.297 2.93839 25.297C3.34363 25.297 3.67215 25.6253 3.67215 26.0302V33.0492Z" fill="#EF7D30"/>
<path d="M41.6777 34.1957H43.1123C43.746 34.1957 44.2597 33.6824 44.2597 33.0492C44.2597 32.416 43.746 31.9028 43.1123 31.9028H41.6777C41.044 31.9028 40.5303 32.416 40.5303 33.0492C40.5303 33.6824 41.044 34.1957 41.6777 34.1957Z" fill="#CEEFFF"/>
<path d="M37.2423 31.9373H38.6769C39.3106 31.9373 39.8243 31.424 39.8243 30.7908C39.8243 30.1576 39.3106 29.6444 38.6769 29.6444H37.2423C36.6087 29.6444 36.095 30.1576 36.095 30.7908C36.095 31.424 36.6087 31.9373 37.2423 31.9373Z" fill="#CEEFFF"/>
<path d="M33.8624 34.2H35.297C35.9307 34.2 36.4444 33.6867 36.4444 33.0535C36.4444 32.4204 35.9307 31.9071 35.297 31.9071H33.8624C33.2288 31.9071 32.715 32.4204 32.715 33.0535C32.715 33.6867 33.2288 34.2 33.8624 34.2Z" fill="#CEEFFF"/>
<path d="M40.7895 25.7833C40.7895 27.7277 42.395 27.6309 42.395 27.6309C42.395 27.6309 44.0005 27.7277 44.0005 25.7833C44.0005 23.839 42.395 22.1849 42.395 22.1849C42.395 22.1849 40.7895 23.839 40.7895 25.7833Z" fill="#D15400"/>
<path d="M27.3616 23.0559V24.5223H32.1545C34.8754 24.5223 37.0855 26.7336 37.0855 29.4493V30.8892H38.553V29.4493C38.553 25.9916 35.7911 23.1645 32.3541 23.0618C32.2896 23.0559 32.222 23.0559 32.1545 23.0559H27.3616Z" fill="#EF7D30"/>
<path d="M27.3616 26.4109V27.8773H31.6292C32.8942 27.8773 33.9215 28.9067 33.9215 30.1707V33.0535H35.389V30.1707C35.389 28.0973 33.7043 26.4109 31.6292 26.4109H27.3616Z" fill="#EF7D30"/>
<path d="M41.6617 33.0492H43.1292V26.0302C43.1292 25.6253 42.8007 25.297 42.3954 25.297C41.9902 25.297 41.6617 25.6253 41.6617 26.0302V33.0492Z" fill="#EF7D30"/>
<path d="M17.9723 23.0559V24.5223H14.0481L12.9797 23.0618C13.0443 23.0559 13.1118 23.0559 13.1793 23.0559H17.9723Z" fill="#D15400"/>
<path d="M15.4247 26.4109H17.9723V27.8773H16.4959L15.4247 26.4109Z" fill="#D15400"/>
</svg>
