<svg width="45" height="45" viewBox="0 0 45 45" fill="none" xmlns="http://www.w3.org/2000/svg">
<g clip-path="url(#clip0_121_809)">
<mask id="mask0_121_809" style="mask-type:luminance" maskUnits="userSpaceOnUse" x="0" y="0" width="45" height="45">
<path d="M45 0H0V45H45V0Z" fill="white"/>
</mask>
<g mask="url(#mask0_121_809)">
<mask id="mask1_121_809" style="mask-type:luminance" maskUnits="userSpaceOnUse" x="5" y="3" width="40" height="45">
<path d="M44.38 3H5V47.32H44.38V3Z" fill="white"/>
</mask>
<g mask="url(#mask1_121_809)">
<path d="M32.0024 19.4939C31.9124 19.5039 31.8224 19.5139 31.7424 19.5439C31.5624 19.5839 31.4024 19.6739 31.2524 19.7839L30.7924 20.1539C30.7924 20.1539 29.8724 18.624 28.5224 17.1439C28.5224 17.1439 29.0024 17.124 29.6824 17.2739C30.4524 17.4339 31.4624 17.8039 32.3124 18.6339C32.6224 18.934 32.4324 19.4639 32.0024 19.4939Z" fill="#707E88"/>
<path d="M26.4725 24.6139L26.3024 24.9139C26.1625 25.1639 26.0624 25.4239 26.0124 25.7039C26.0024 25.7339 25.9924 25.7539 25.9924 25.7839L25.8724 26.5039C25.8224 26.804 25.4524 26.9239 25.2424 26.7039C24.1824 25.6139 23.7724 24.4239 23.6025 23.554C23.4725 22.814 23.5224 22.314 23.5224 22.314C24.9024 23.364 26.4725 24.6139 26.4725 24.6139Z" fill="#707E88"/>
<path d="M26.4725 24.6139L26.3024 24.9139C26.1625 25.1639 26.0624 25.4239 26.0124 25.7039C25.1025 24.7239 24.2024 23.994 23.6025 23.554C23.4725 22.814 23.5224 22.314 23.5224 22.314C24.9024 23.364 26.4725 24.6139 26.4725 24.6139Z" fill="#56626B"/>
<path d="M31.7424 19.5439C31.5624 19.5839 31.4024 19.6739 31.2524 19.7839L30.7924 20.1539C30.7924 20.1539 29.8724 18.624 28.5224 17.1439C28.5224 17.1439 29.0024 17.124 29.6824 17.2739C29.9924 18.0239 30.5824 18.9339 31.7424 19.5439Z" fill="#56626B"/>
<path d="M31.3424 4.83392C30.9924 5.31396 30.0524 6.19391 27.5724 7.51391C25.8324 8.43395 25.0124 9.7539 24.6824 11.064C24.2424 12.7639 24.6424 14.4539 24.9225 15.2039C25.4024 16.4939 17.3824 9.29394 16.9225 8.8839L16.9024 8.86394L18.0924 7.2639C18.0924 7.2639 19.9124 6.42393 22.3124 5.61394C25.1324 4.66393 28.7524 3.75389 31.1524 4.28392C31.3924 4.33391 31.4924 4.63391 31.3424 4.83392Z" fill="#707E88"/>
<path d="M24.9225 15.2039C25.4024 16.4939 17.3824 9.29395 16.9225 8.88391L16.9024 8.86395L18.0924 7.26391C18.0924 7.26391 19.9124 6.42394 22.3124 5.61395C22.3824 6.90393 22.7824 9.61395 24.6824 11.0639C24.2424 12.7639 24.6424 14.4539 24.9225 15.2039Z" fill="#56626B"/>
<path d="M21.6024 19.2239C21.2924 19.2039 20.8524 19.2139 20.3524 19.2839C18.9824 19.4539 17.1125 20.064 15.9624 21.7639C15.5425 22.374 15.2224 23.124 15.0524 24.0439C14.5425 26.814 13.9724 27.9639 13.6224 28.4439C13.4725 28.6439 13.1625 28.6439 13.0324 28.4239C11.3525 25.5039 11.5824 19.5939 11.8224 16.7139C11.9024 15.7039 11.9825 15.0739 11.9825 15.0739L12.5324 14.314L13.1524 13.4639C13.1524 13.4639 15.4624 14.8339 17.6924 16.2339C18.6524 16.8339 19.5924 17.4439 20.3224 17.9539C21.4125 18.7039 22.0424 19.2439 21.6024 19.2239Z" fill="#707E88"/>
<path d="M20.3525 19.2839C18.9825 19.4539 17.1125 20.064 15.9625 21.7639C14.2424 19.124 12.5825 17.434 11.8224 16.7139C11.9025 15.7039 11.9825 15.0739 11.9825 15.0739L12.5325 14.314L17.6924 16.2339L20.3024 17.2039C20.3024 17.2039 20.3124 17.4839 20.3224 17.9539C20.3425 18.304 20.3525 18.7639 20.3525 19.2839Z" fill="#56626B"/>
<path d="M44.4624 48.0639C44.3124 47.9139 44.1624 47.7539 44.0124 47.6039C42.7124 46.2739 41.3724 44.9839 40.0024 43.7339C38.7325 42.5939 37.3724 41.1439 35.7925 40.4439C33.9424 39.624 32.0924 42.3239 31.5724 43.1639C31.5124 43.2539 31.3724 43.2339 31.3424 43.1339C30.7624 41.0739 32.0924 38.5339 32.7424 37.4639C32.9624 37.1139 33.0724 36.6939 33.0524 36.2839C32.9424 34.2739 32.4524 32.684 31.9324 31.5439C31.9225 31.5239 31.9225 31.5139 31.9124 31.494C31.2624 30.054 30.5724 29.3239 30.5724 29.3239C25.2824 22.8239 23.0824 22.434 16.9724 18.6039C15.8024 17.864 14.4824 17.0039 12.9724 15.9439C12.0124 15.2739 11.1724 14.6039 10.4324 13.9539C6.49241 10.494 5.36246 7.33392 5.08243 5.36395C5.01243 4.86395 4.99241 4.43395 5.00242 4.10394C5.00242 3.9439 5.04246 3.79394 5.13242 3.66393C5.14243 3.64391 5.15244 3.61394 5.17246 3.59392C5.17909 3.58725 5.18241 3.58057 5.18241 3.5739C5.18241 3.56395 5.19242 3.56395 5.19242 3.55394C5.21244 3.53392 5.22245 3.5139 5.24241 3.49394C5.25242 3.47392 5.26243 3.46391 5.28245 3.4539L5.30241 3.43394C5.43241 3.29393 5.61247 3.19389 5.81242 3.16392C6.48246 3.06396 7.12241 3.01391 7.74241 3.0039C8.12241 2.99395 8.49241 3.0039 8.86246 3.02392C9.4924 3.06396 10.1024 3.15392 10.7124 3.28393C12.6324 3.71392 14.4624 4.63391 16.5124 6.05395C17.1224 6.48394 17.7424 6.9439 18.3924 7.45391C19.9424 8.66393 21.6524 10.1339 23.6125 11.874C25.6624 13.6939 27.5524 15.684 29.2024 17.8639C29.6924 18.5139 30.1824 19.1739 30.6424 19.8639C31.8224 21.6139 32.8424 23.4839 33.5024 25.4839C34.2124 27.624 34.5524 29.9039 35.0824 32.0839C35.0924 32.0939 35.0924 32.1039 35.0924 32.1039C35.2424 32.7039 35.4024 33.304 35.5924 33.8839C36.3724 36.314 37.6524 38.5239 39.2824 40.484C41.1324 42.7139 43.2224 44.874 44.2925 47.604C44.3525 47.7539 44.4125 47.9139 44.4624 48.0639Z" fill="#DBDDE4"/>
<path d="M44.4624 48.0639C44.3124 47.9139 44.1624 47.7539 44.0124 47.6039C42.7124 46.2739 41.3724 44.9839 40.0024 43.7339C38.7325 42.5939 37.3724 41.1439 35.7925 40.4439C33.9424 39.624 32.0924 42.3239 31.5724 43.1639C31.5124 43.2539 31.3724 43.2339 31.3424 43.1339C30.7624 41.0739 32.0924 38.5339 32.7424 37.4639C32.8324 37.3239 32.8924 37.1739 32.9424 37.0239C33.0324 36.7839 33.0624 36.5339 33.0524 36.2839C32.9424 34.2739 32.4524 32.684 31.9324 31.5439C31.9225 31.5239 31.9225 31.5139 31.9124 31.494C29.1824 22.804 21.8024 20.4639 16.9724 18.6039C15.8024 17.864 14.4825 17.0039 12.9724 15.9439C12.0124 15.2739 11.1725 14.6039 10.4324 13.9539C8.88242 12.124 7.83243 10.2239 6.77244 8.32393C5.12241 5.36396 5.08243 3.91394 5.08243 3.91394C5.08243 3.91394 5.11246 3.78394 5.19242 3.55395C5.21244 3.53393 5.22245 3.51391 5.24241 3.49395C5.25242 3.47393 5.26243 3.46392 5.30241 3.43395C5.43241 3.29394 5.61247 3.1939 5.81242 3.16393C6.48246 3.06397 7.12241 3.01392 7.74241 3.00391C8.01243 3.09394 8.27244 3.19391 8.53245 3.28394C12.3024 4.63392 15.0324 5.56397 16.5124 6.05396C17.1224 6.48395 17.7424 6.94391 18.3924 7.45392C19.9424 8.66394 21.6524 10.1339 23.6125 11.874C25.6624 13.6939 27.5524 15.684 29.2024 17.8639C29.6924 18.5139 30.1824 19.1739 30.6424 19.8639C30.9524 20.3239 31.0824 21.0539 31.2224 21.5839C31.3824 22.184 31.5024 22.7939 31.6624 23.3939C32.2424 25.5839 33.0824 27.684 34.0024 29.7539C34.3424 30.5339 34.7024 31.314 35.0924 32.1039C35.2424 32.7039 35.4024 33.304 35.5924 33.8839C36.3724 36.314 37.6524 38.5239 39.2824 40.484C39.3824 40.604 39.4825 40.7239 39.5824 40.8439C41.3525 42.9439 43.2824 45.0239 44.2925 47.604C44.3525 47.7539 44.4125 47.9139 44.4624 48.0639Z" fill="#707E88"/>
<path d="M14.667 9.84835C14.5781 9.83923 14.5047 9.91387 14.51 10.0031C14.5459 10.6083 14.8437 12.7518 17.228 14.1184C19.4014 15.3642 20.7721 15.3948 21.2763 15.3463C21.3752 15.3368 21.4198 15.2237 21.3547 15.1487C20.5869 14.2637 16.8452 10.0718 14.667 9.84835Z" fill="#56626B"/>
<path d="M10.7805 4.34154C11.1201 4.34154 11.3953 4.06631 11.3953 3.7268C11.3953 3.38729 11.1201 3.11206 10.7805 3.11206C10.441 3.11206 10.1658 3.38729 10.1658 3.7268C10.1658 4.06631 10.441 4.34154 10.7805 4.34154Z" fill="black"/>
<path d="M6.77465 9.55059C7.11416 9.55059 7.38939 9.27536 7.38939 8.93585C7.38939 8.59634 7.11416 8.32111 6.77465 8.32111C6.43514 8.32111 6.15991 8.59634 6.15991 8.93585C6.15991 9.27536 6.43514 9.55059 6.77465 9.55059Z" fill="black"/>
<path d="M44.4624 48.0639C44.3124 47.9139 44.1624 47.7539 44.0124 47.6039C42.7124 46.2739 41.3724 44.9839 40.0024 43.7339C38.7325 42.5939 37.3724 41.1439 35.7925 40.4439C33.9424 39.624 32.0924 42.3239 31.5724 43.1639C31.5124 43.2539 31.3724 43.2339 31.3424 43.1339C30.7624 41.0739 32.0924 38.5339 32.7424 37.4639C32.8324 37.3239 32.8924 37.1739 32.9424 37.0239C34.3324 38.3239 36.7325 40.2039 39.5824 40.8439C41.3524 42.9439 43.2824 45.0239 44.2924 47.6039C44.3524 47.7539 44.4125 47.9139 44.4624 48.0639Z" fill="#56626B"/>
</g>
</g>
</g>
<defs>
<clipPath id="clip0_121_809">
<rect width="45" height="45" fill="white"/>
</clipPath>
</defs>
</svg>
