<svg width="25" height="25" viewBox="0 0 25 25" fill="none" xmlns="http://www.w3.org/2000/svg">
<circle cx="12.5" cy="12.5" r="12.5" fill="#D2DDFD"/>
<path d="M13.7136 16.5811H11.2864V15.2824C11.2864 14.7147 11.3508 14.296 11.4797 14.0263C11.6229 13.7424 11.9236 13.3734 12.3819 12.9192L13.9499 11.3651C14.2792 11.0102 14.4439 10.5702 14.4439 10.0451C14.4439 9.51993 14.2721 9.08704 13.9284 8.7464C13.5847 8.39157 13.1408 8.21415 12.5967 8.21415C12.0525 8.21415 11.5943 8.38447 11.222 8.72511C10.864 9.05155 10.6563 9.49154 10.599 10.0451H8C8.1432 8.78188 8.63723 7.79545 9.4821 7.08579C10.3413 6.36193 11.4081 6 12.6826 6C13.957 6 14.9952 6.34773 15.7971 7.0432C16.599 7.72448 17 8.68253 17 9.91734C17 10.7689 16.7637 11.4786 16.2912 12.0463C16.0191 12.387 15.8115 12.6283 15.6683 12.7702C15.5251 12.9121 15.3317 13.0966 15.0883 13.3237C14.8592 13.5366 14.6587 13.7282 14.4869 13.8986C14.3294 14.0547 14.2005 14.1895 14.1002 14.3031C13.8425 14.6153 13.7136 15.0553 13.7136 15.623V16.5811Z" fill="#164DF5"/>
<circle cx="12.5" cy="19.2568" r="1.45946" fill="#164DF5"/>
</svg>
