<svg width="45" height="45" viewBox="0 0 45 45" fill="none" xmlns="http://www.w3.org/2000/svg">
<path d="M12 24.0093C12 18.3729 16.6955 13.808 22.4718 14.0062C27.7438 14.1872 32.0839 18.532 32.2151 23.7532C32.3047 27.3224 30.514 30.4669 27.7676 32.2957C26.9306 32.853 26.4676 33.8201 26.4676 34.8189V35.0082C26.4676 37.4988 24.3357 39.5211 21.7324 39.3074C19.447 39.1196 17.7507 37.1043 17.7507 34.8337V34.8144C17.7507 33.8064 17.2697 32.8447 16.4275 32.2784C13.7599 30.4848 12 27.4317 12 24.0093Z" fill="#9F9F9F"/>
<path d="M26.4679 35.2544V38.7923C26.4679 39.977 25.9714 41.073 25.1819 41.8386C25.1248 41.9031 25.0679 41.9514 25.0029 42.0078C24.9295 43.531 23.6841 44.7318 22.1132 44.7318C20.5748 44.7318 19.2887 43.531 19.2154 42.0078C19.1504 41.9514 19.0934 41.9031 19.0363 41.8386C18.2469 41.073 17.7502 39.977 17.7502 38.7923V35.2544H26.4679Z" fill="#2C2E30"/>
<path d="M26.4679 35.2544V38.7923C26.4679 39.977 25.9714 41.073 25.1819 41.8386H19.0363C18.2469 41.073 17.7502 39.977 17.7502 38.7923V35.2544H26.4679Z" fill="#E3E8EB"/>
<path d="M14.2865 20.7905C14.4648 20.7905 14.6431 20.6841 14.7147 20.5431C15.6435 18.775 17.1794 17.3953 19.0369 16.6877C19.2876 16.5821 19.43 16.2992 19.3227 16.051C19.216 15.8036 18.9303 15.6626 18.6804 15.7682C16.608 16.5821 14.8938 18.1028 13.8218 20.0829C13.6785 20.3312 13.7859 20.614 14.0359 20.7551C14.1075 20.7905 14.2149 20.7905 14.2865 20.7905Z" fill="white"/>
<path d="M24.8126 23.517L24.683 23.4115C24.342 23.1361 23.8499 23.1361 23.5122 23.4115L23.1735 23.687C23.1338 23.72 23.0757 23.7192 23.036 23.6862L22.6997 23.4131C22.3603 23.1368 21.8691 23.1361 21.5281 23.4115L21.1886 23.687C21.1489 23.7192 21.0909 23.72 21.0511 23.6878L20.7086 23.4092C20.3699 23.1369 19.8795 23.1361 19.5408 23.41L19.4089 23.517C18.9581 23.8822 18.7547 24.4583 18.8771 25.0202L20.0225 30.2869V35.5427H20.8365V30.2444C20.8365 30.216 20.8333 30.1877 20.8277 30.1593L19.6727 24.8501C19.6155 24.585 19.7117 24.3127 19.9239 24.1403L20.0559 24.034C20.0948 24.0018 20.1529 24.001 20.1934 24.0333L20.536 24.3119C20.8762 24.5857 21.3667 24.5849 21.7053 24.3103L22.0447 24.0348C22.0845 24.0018 22.1425 24.0025 22.1822 24.0356L22.5185 24.3087C22.8587 24.5857 23.3516 24.5865 23.6902 24.3103L24.0288 24.0348C24.0677 24.0025 24.1258 24.001 24.1664 24.0348L24.2959 24.1395C24.5074 24.3127 24.6035 24.5842 24.5455 24.8494L23.3905 30.1593C23.385 30.1877 23.3817 30.216 23.3817 30.2443V35.5427H24.1957V30.2869L25.3419 25.0186C25.4628 24.4575 25.2601 23.8822 24.8126 23.517Z" fill="#CFCFCF"/>
<path d="M26.5554 34.7848H17.8765C17.5336 34.7848 17.2556 35.06 17.2556 35.3996C17.2556 35.7391 17.5336 36.0143 17.8765 36.0143H26.5554C26.8984 36.0143 27.1764 35.7391 27.1764 35.3996C27.1764 35.06 26.8984 34.7848 26.5554 34.7848Z" fill="#AEB7BD"/>
<path d="M26.5554 36.709H17.8765C17.5336 36.709 17.2556 36.9843 17.2556 37.3238C17.2556 37.6634 17.5336 37.9386 17.8765 37.9386H26.5554C26.8984 37.9386 27.1764 37.6634 27.1764 37.3238C27.1764 36.9843 26.8984 36.709 26.5554 36.709Z" fill="#AEB7BD"/>
<path d="M26.5554 38.6332H17.8765C17.5336 38.6332 17.2556 38.9084 17.2556 39.248C17.2556 39.5875 17.5336 39.8627 17.8765 39.8627H26.5554C26.8984 39.8627 27.1764 39.5875 27.1764 39.248C27.1764 38.9084 26.8984 38.6332 26.5554 38.6332Z" fill="#AEB7BD"/>
<path opacity="0.6" d="M29.7256 21.1099C30.5105 20.1807 30.0055 18.4823 28.5977 17.3166C27.1897 16.1508 25.4121 15.9592 24.6271 16.8885C23.8422 17.8177 24.3472 19.5161 25.7551 20.6818C27.1631 21.8476 28.9406 22.0393 29.7256 21.1099Z" fill="#CFCFCF"/>
</svg>
