<svg width="45" height="45" viewBox="0 0 45 45" fill="none" xmlns="http://www.w3.org/2000/svg">
<g clip-path="url(#clip0_134_7)">
<path d="M14.0349 38.5152C13.6741 38.5152 13.3893 38.7083 13.4178 38.9401C13.7406 42.37 17.4621 45.0738 22.0095 45.0738C26.557 45.0738 30.2786 42.37 30.6013 38.9401C30.6203 38.7083 30.3355 38.5152 29.9842 38.5152H14.0349Z" fill="#4C4C4C"/>
<path d="M31 37.5881L30.9905 36.2131C30.9905 35.5796 30.3639 35.0698 29.5855 35.0698H14.4051C13.6266 35.0698 13 35.5874 13 36.2208V37.6113C13 40.9177 17.0253 43.5983 22 43.5983C26.9747 43.5983 31 40.9177 31 37.6113V37.5881Z" fill="#737373"/>
<path d="M22 41.4739C26.9709 41.4739 31 38.7933 31 35.487C31 32.1806 26.9709 29.5 22 29.5C17.0291 29.5 13 32.1806 13 35.487C13 38.7933 17.0291 41.4739 22 41.4739Z" fill="#9E9E9E"/>
<path d="M21.9999 32.5C21.4418 32.5 21 32.2559 21 31.9617V20.0383C21 19.7379 21.4534 19.5 21.9999 19.5C22.5579 19.5 22.9998 19.7441 22.9998 20.0383V31.9617C23.0114 32.2559 22.5579 32.5 21.9999 32.5Z" fill="#737373"/>
<path d="M28.2077 38.4934C27.7039 38.5421 27.2324 38.3127 27.1574 37.9861L23.01 20.1876C22.935 19.8609 23.2887 19.5551 23.7924 19.5065C24.2961 19.4578 24.7676 19.6872 24.8426 20.0138L28.9899 37.8124C29.065 38.1459 28.7113 38.4448 28.2077 38.4934Z" fill="#737373"/>
<path d="M15.7923 38.4935C16.296 38.5422 16.7676 38.3128 16.8426 37.9862L20.99 20.1876C21.065 19.854 20.7113 19.5552 20.2076 19.5065C19.6932 19.4579 19.2217 19.6872 19.1574 20.0139L15.01 37.8124C14.935 38.146 15.2886 38.4448 15.7923 38.4935Z" fill="#737373"/>
<path d="M25.9436 27.3552C25.8094 27.4806 25.4624 27.5358 25.1827 27.4756L18.323 25.9859C18.0433 25.9257 17.9202 25.7702 18.0545 25.6448C18.1888 25.5194 18.5357 25.4642 18.8154 25.5244L25.6751 27.0141C25.966 27.0793 26.0779 27.2298 25.9436 27.3552Z" fill="#737373"/>
<path d="M18.0545 27.3552C18.1888 27.4806 18.5358 27.5358 18.8156 27.4756L25.6769 25.9859C25.9567 25.9257 26.0798 25.7702 25.9455 25.6448C25.8112 25.5194 25.4642 25.4642 25.1843 25.5244L18.3231 27.0141C18.0433 27.0793 17.9202 27.2298 18.0545 27.3552Z" fill="#737373"/>
<path d="M26.9382 32.2956C26.7987 32.4762 26.436 32.5496 26.1478 32.4649L18.3367 30.1843C18.0392 30.0996 17.9183 29.8794 18.0578 29.7044C18.1973 29.5237 18.5599 29.4504 18.8482 29.5351L26.6592 31.8157C26.9568 31.9004 27.0869 32.1149 26.9382 32.2956Z" fill="#737373"/>
<path d="M17.0584 32.2948C17.1994 32.4761 17.566 32.5498 17.8574 32.4648L25.6596 30.1869C25.9605 30.1019 26.0826 29.8809 25.9416 29.7052C25.8006 29.5239 25.434 29.4502 25.1426 29.5352L17.3404 31.8131C17.0396 31.9038 16.9174 32.1191 17.0584 32.2948Z" fill="#737373"/>
<path d="M26.9474 19.2984C26.9474 20.8729 24.7195 22.1561 21.979 22.1561C19.2384 22.1561 17 20.8729 17 19.2984V18.0971C17 17.7786 17.3033 17.5146 17.6694 17.5146H26.278C26.6545 17.5146 26.9474 17.7786 26.9474 18.0971V19.2984Z" fill="#4C4C4C"/>
<path d="M21.9685 20.6818C24.7121 20.6818 26.937 19.4022 26.937 17.8241C26.937 16.246 24.7121 14.9664 21.9685 14.9664C19.2248 14.9664 17 16.246 17 17.8241C17 19.4022 19.2248 20.6818 21.9685 20.6818Z" fill="#9E9E9E"/>
<path d="M21.9684 19.435C23.869 19.435 25.4097 18.6323 25.4097 17.6421C25.4097 16.6519 23.869 15.8492 21.9684 15.8492C20.0679 15.8492 18.5271 16.6519 18.5271 17.6421C18.5271 18.6322 20.0679 19.435 21.9684 19.435Z" fill="white"/>
<path d="M25 17.6334V14.9111C25 13.3015 23.6564 12 21.9949 12C20.3436 12 19 13.3015 19 14.9111V17.6433C19 17.7725 19.041 17.8917 19.1231 17.9911C20.1385 19.2727 23.7488 19.4019 24.8769 17.9811C24.9591 17.8818 25 17.7526 25 17.6334Z" fill="#737373"/>
<path d="M22.8274 16.0759L22.7878 16.0503C22.6834 15.9833 22.5328 15.9833 22.4294 16.0503L22.3258 16.1173C22.3136 16.1253 22.2958 16.1251 22.2837 16.1171L22.1807 16.0507C22.0769 15.9835 21.9265 15.9833 21.8221 16.0503L21.7182 16.1173C21.7061 16.1251 21.6883 16.1253 21.6761 16.1174L21.5713 16.0497C21.4676 15.9835 21.3175 15.9833 21.2139 16.0499L21.1735 16.0759C21.0355 16.1647 20.9733 16.3048 21.0107 16.4414L21.3613 17.722V19H21.6105V17.7117C21.6105 17.7048 21.6095 17.6979 21.6078 17.691L21.2543 16.4001C21.2367 16.3356 21.2662 16.2694 21.3311 16.2275L21.3715 16.2016C21.3835 16.1938 21.4012 16.1936 21.4136 16.2015L21.5185 16.2692C21.6226 16.3358 21.7727 16.3356 21.8764 16.2688L21.9803 16.2018C21.9924 16.1938 22.0102 16.194 22.0224 16.202L22.1253 16.2684C22.2294 16.3358 22.3803 16.336 22.4839 16.2688L22.5875 16.2018C22.5995 16.194 22.6172 16.1936 22.6296 16.2018L22.6693 16.2273C22.734 16.2694 22.7635 16.3354 22.7457 16.3999L22.3922 17.691C22.3905 17.6979 22.3895 17.7048 22.3895 17.7117V19H22.6386V17.722L22.9895 16.441C23.0265 16.3046 22.9644 16.1647 22.8274 16.0759Z" fill="#737373"/>
<path opacity="0.4" d="M24 14C24.2689 13.6558 24.1954 13.1749 24 13C23.8046 12.8251 23.2689 12.6557 23 13C22.7311 13.3443 22.7835 13.8062 23 14C23.2165 14.1939 23.7311 14.3443 24 14Z" fill="white" fill-opacity="0.4"/>
<path d="M19.6889 14.5C19.7525 14.5 19.8162 14.4579 19.8418 14.4022C20.1734 13.703 20.7218 13.1574 21.3851 12.8776C21.4746 12.8359 21.5254 12.724 21.4871 12.6259C21.449 12.528 21.347 12.4723 21.2578 12.514C20.5178 12.8359 19.9057 13.4372 19.5229 14.2202C19.4718 14.3183 19.5101 14.4302 19.5994 14.486C19.6249 14.5 19.6633 14.5 19.6889 14.5Z" fill="white"/>
</g>
<defs>
<clipPath id="clip0_134_7">
<rect width="45" height="45" fill="white"/>
</clipPath>
</defs>
</svg>
