<svg width="47" height="31" viewBox="0 0 47 31" fill="none" xmlns="http://www.w3.org/2000/svg">
<g clip-path="url(#clip0_1_22927)">
<path d="M40.0955 26.7628C41.3152 26.6254 42.6357 26.3048 43.3295 25.6406C44.8066 24.2091 45.7802 18.3801 45.8809 15.4943C45.8809 15.4943 45.8809 15.4943 45.8809 15.4828C45.8809 15.4828 45.8809 15.4828 45.8809 15.4714C45.769 12.5855 44.7955 6.75655 43.3295 5.31362C42.6357 4.63796 41.3152 4.32877 40.0955 4.19135V26.7628Z" fill="#005D4D"/>
<path d="M40.0955 26.7628C41.3152 26.6254 42.6357 26.3048 43.3295 25.6406C44.8066 24.2091 45.7802 18.3801 45.8809 15.4943C45.8809 15.4943 45.8809 15.4943 45.8809 15.4828C45.8809 15.4828 45.8809 15.4828 45.8809 15.4714C45.769 12.5855 44.7955 6.75655 43.3295 5.31362C42.6357 4.63796 41.3152 4.32877 40.0955 4.19135V26.7628Z" fill="#005D4D"/>
<path d="M39.4128 26.8086C40.6326 26.6712 41.9531 26.3506 42.6469 25.6864C44.124 24.2434 45.0976 18.4259 45.1983 15.5286C45.1983 15.5286 45.1983 15.5286 45.1983 15.5172C45.1983 15.5172 45.1983 15.5172 45.1983 15.5057C45.0864 12.6199 44.1128 6.79091 42.6469 5.34798C41.9531 4.67233 40.6326 4.36313 39.4128 4.22571V26.8086Z" fill="#00D3AE"/>
<path d="M35.832 3.7791L6.91576 3.87072C0.995997 4.27153 1.11909 8.14223 1.11909 8.14223L1.11909 15.334V15.4943V15.5057V15.6661L1.11909 22.8578C1.11909 22.8578 0.995997 26.7285 6.91576 27.1293L35.832 27.2209C35.832 27.2209 40.5208 27.4385 42.1098 25.9612C43.6877 24.4839 44.7172 18.4832 44.8403 15.5057C44.8403 15.5057 44.8403 15.5057 44.8403 15.4943C44.8403 15.4943 44.8403 15.4943 44.8403 15.4828C44.7172 12.5054 43.6877 6.50463 42.1098 5.02735C40.532 3.56152 35.832 3.7791 35.832 3.7791Z" fill="#005D4D"/>
<path d="M36.0446 3.90508L7.79979 3.99669C2.01432 4.38605 2.13741 8.2224 2.13741 8.2224L2.13741 15.334V15.4828V15.4943V15.6432L2.13741 22.7547C2.13741 22.7547 2.01432 26.5796 7.7886 26.9804L36.0334 27.0721C36.0334 27.0721 40.6215 27.2896 42.1657 25.8238C43.71 24.3694 44.7172 18.4374 44.8291 15.4943C44.8291 15.4943 44.8291 15.4943 44.8291 15.4828C44.8291 15.4828 44.8291 15.4828 44.8291 15.4714C44.7172 12.5397 43.71 6.59625 42.1657 5.14187C40.6327 3.69894 36.0446 3.90508 36.0446 3.90508Z" fill="#00D3AE"/>
<path d="M36.1229 3.77908L8.14668 3.87069C2.41715 4.2715 2.54025 8.14221 2.54025 8.14221L2.54025 15.3339V15.4943V15.5057V15.666L2.54025 22.8578C2.54025 22.8578 2.41715 26.7285 8.14668 27.1293L36.1229 27.2209C36.1229 27.2209 40.6662 27.4385 42.1993 25.9612C43.7324 24.461 44.7283 18.4603 44.8402 15.4828C44.8402 15.4828 44.8402 15.4828 44.8402 15.4714C44.8402 15.4714 44.8402 15.4714 44.8402 15.4599C44.7283 12.4824 43.7324 6.4817 42.1993 5.00442C40.6662 3.56149 36.1229 3.77908 36.1229 3.77908Z" fill="#00987E"/>
<path d="M36.1229 3.77908L8.14668 3.87069C2.41715 4.2715 2.54025 8.14221 2.54025 8.14221L2.54025 15.3339V15.4943V15.5057V15.666L2.54025 22.8578C2.54025 22.8578 2.41715 26.7285 8.14668 27.1293L36.1229 27.2209C36.1229 27.2209 40.6662 27.4385 42.1993 25.9612C43.7324 24.461 44.7283 18.4603 44.8402 15.4828C44.8402 15.4828 44.8402 15.4828 44.8402 15.4714C44.8402 15.4714 44.8402 15.4714 44.8402 15.4599C44.7283 12.4824 43.7324 6.4817 42.1993 5.00442C40.6662 3.56149 36.1229 3.77908 36.1229 3.77908Z" fill="#00987E"/>
<path d="M36.1228 3.77907L8.14664 3.87068C5.86378 4.03101 4.50973 4.72957 3.71521 5.54264L9.37759 6.29846L15.0847 8.95528C15.0847 8.95528 24.6526 9.34464 27.5733 8.08494C30.5052 6.81379 34.8247 5.07312 34.8247 5.07312L38.7974 5.22199C38.7974 5.22199 40.8564 5.47393 43.0162 6.39008C42.7588 5.81749 42.4902 5.35941 42.1881 5.06167C40.6662 3.56148 36.1228 3.77907 36.1228 3.77907Z" fill="#005D4D"/>
<path d="M34.8359 25.6863C34.8359 25.6863 30.5164 23.9342 27.5845 22.6745C24.6638 21.4034 15.4428 21.9072 15.4428 21.9072L9.33284 24.7129L3.48022 25.2283C4.24118 26.1215 5.6288 26.9689 8.14665 27.1407L36.1228 27.2323C36.1228 27.2323 40.6662 27.4499 42.1993 25.9726C42.5462 25.6291 42.8819 25.045 43.1728 24.3236C40.9571 25.2855 38.8086 25.5489 38.8086 25.5489L34.8359 25.6863Z" fill="#005D4D"/>
<path d="M38.9541 5.21057C39.4689 5.29073 41.2034 5.57703 43.0274 6.35575C42.8148 5.88623 42.6022 5.49687 42.3672 5.21057H38.9541Z" fill="#005D4D"/>
<path d="M36.1229 3.77909L8.14669 3.8707C6.27788 3.99667 5.03574 4.50055 4.20764 5.11895L34.6681 5.11895C34.78 5.07314 34.836 5.05024 34.836 5.05024L36.6824 5.11895H42.2776C42.2441 5.08459 42.2329 5.07314 42.1993 5.03879C40.6662 3.5615 36.1229 3.77909 36.1229 3.77909Z" fill="#005D4D"/>
<path d="M39.3457 25.526C36.2236 25.7322 33.0902 25.7092 29.9569 25.8123C28.3679 25.8581 26.7788 25.9154 25.1898 25.9383C23.6119 25.9497 22.0229 25.9154 20.4338 25.8925C14.9281 25.7894 9.42238 25.652 3.92786 25.6863C4.74476 26.3964 6.06524 27.0033 8.14667 27.1522L36.1229 27.2438C36.1229 27.2438 40.6662 27.4614 42.1993 25.9841C42.3671 25.8123 42.535 25.5947 42.7029 25.3199C41.5838 25.3542 40.4536 25.4459 39.3457 25.526Z" fill="#005D4D"/>
<path d="M40.3416 25.3542C41.1473 25.297 41.953 25.2397 42.7587 25.1939C42.9042 24.9305 43.0385 24.6442 43.1728 24.3121C41.7852 24.9191 40.4199 25.2512 39.603 25.4115C39.8492 25.3772 40.0842 25.3542 40.3416 25.3542Z" fill="#005D4D"/>
<path d="M27.0474 21.8386C27.0474 21.8386 27.7076 16.7998 27.0474 8.96675C27.0474 8.96675 26.9131 8.6232 27.3383 8.34836C27.7636 8.07351 33.5378 5.96639 33.5378 5.96639C33.5378 5.96639 34.9143 5.37089 35.2052 5.88622C35.4962 6.40155 38.4057 14.2231 35.485 25.4001C35.485 25.4001 34.8471 25.9841 33.8512 25.4688C33.4259 25.2512 27.6516 22.8692 27.6516 22.8692C27.6516 22.8692 27.0026 22.5829 27.025 22.2165L27.0474 21.8386Z" fill="#2C2E30"/>
<path d="M27.0586 21.9187C27.0586 21.9187 27.7748 16.7769 27.0586 8.80643C27.0586 8.80643 26.9131 8.45142 27.3831 8.18803C27.8531 7.92464 33.9296 5.68009 33.9296 5.68009C33.9296 5.68009 35.7089 4.95863 35.9327 5.66864C36.1117 6.24123 39.4129 14.1659 36.2348 25.5375C36.2348 25.5375 35.25 26.2132 34.187 25.6864C33.7393 25.4688 27.7301 22.9494 27.7301 22.9494C27.7301 22.9494 27.0139 22.6631 27.0474 22.2737L27.0586 21.9187Z" fill="#2C2E30"/>
<path d="M27.0474 21.8386C27.0474 21.8386 27.7076 16.7998 27.0474 8.96675C27.0474 8.96675 26.9131 8.6232 27.3383 8.34836C27.7636 8.07351 33.5378 5.96639 33.5378 5.96639C33.5378 5.96639 34.9143 5.37089 35.2052 5.88622C35.4962 6.40155 38.4057 14.2231 35.485 25.4001C35.485 25.4001 34.8471 25.9841 33.8512 25.4688C33.4259 25.2512 27.6516 22.8692 27.6516 22.8692C27.6516 22.8692 27.0026 22.5829 27.025 22.2165L27.0474 21.8386Z" fill="#2C2E30"/>
<path opacity="0.5" d="M27.0474 21.8386L27.025 22.205C27.0026 22.5715 27.6516 22.8578 27.6516 22.8578C27.6516 22.8578 29.9569 23.8083 31.7586 24.5641C31.5347 24.0831 31.3445 23.5907 31.1766 23.0868C30.6843 21.6553 30.3933 20.1781 30.2478 18.6893C30.1247 17.4869 30.1024 16.2615 30.0912 15.0477C30.0576 12.3908 30.1807 9.71112 30.7514 7.11157C30.7626 7.06576 30.7738 7.0314 30.785 6.9856C29.2295 7.56964 27.5733 8.21094 27.3495 8.34836C26.9243 8.6232 27.0586 8.96676 27.0586 8.96676C27.7076 16.7998 27.0474 21.8386 27.0474 21.8386Z" fill="#2C2E30"/>
<path d="M15.3198 21.3462C15.3198 21.3462 14.7826 16.6967 15.3198 9.49355C15.3198 9.49355 15.4317 9.18436 15.0848 8.93242C14.7379 8.68048 10.0379 6.73367 10.0379 6.73367C10.0379 6.73367 8.91884 6.19544 8.67265 6.65351C8.43765 7.12303 6.06527 14.3377 8.44884 24.6214C8.44884 24.6214 8.97479 25.1596 9.78051 24.6901C10.1162 24.4839 14.8386 22.2852 14.8386 22.2852C14.8386 22.2852 15.3646 22.0218 15.3534 21.6783L15.3198 21.3462Z" fill="#2C2E30"/>
<path d="M15.2191 21.3461C15.2191 21.3461 14.6931 16.7082 15.2191 9.50499C15.2191 9.50499 15.3198 9.1958 14.9841 8.94386C14.6484 8.69192 10.0827 6.61914 10.0827 6.61914C10.0827 6.61914 9.07552 6.08091 8.78457 6.66495C8.54957 7.13447 6.25552 14.3377 8.56076 24.6214C8.56076 24.6214 9.07552 25.1596 9.84766 24.6786C10.1834 24.4725 14.7379 22.2852 14.7379 22.2852C14.7379 22.2852 15.2527 22.0218 15.2415 21.6782L15.2191 21.3461Z" fill="#2C2E30"/>
<path d="M15.2191 21.3461C15.2191 21.3461 14.6931 16.7082 15.2191 9.50499C15.2191 9.50499 15.3198 9.1958 14.9841 8.94386C14.6484 8.69192 10.0827 6.61914 10.0827 6.61914C10.0827 6.61914 9.07552 6.08091 8.78457 6.66495C8.54957 7.13447 6.25552 14.3377 8.56076 24.6214C8.56076 24.6214 9.07552 25.1596 9.84766 24.6786C10.1834 24.4725 14.7379 22.2852 14.7379 22.2852C14.7379 22.2852 15.2527 22.0218 15.2415 21.6782L15.2191 21.3461Z" fill="#2C2E30"/>
<path opacity="0.5" d="M13.0146 10.2264C13.3391 12.4366 13.3503 14.6926 13.2496 16.9143C13.2048 17.819 13.1376 18.7122 12.9698 19.594C12.8131 20.4987 12.5669 21.3805 12.2312 22.2394C11.9962 22.8463 11.6829 23.4304 11.3136 23.9571C12.7684 23.2586 14.7603 22.2852 14.7603 22.2852C14.7603 22.2852 15.275 22.0218 15.2638 21.6782L15.2526 21.3347C15.2526 21.3347 14.7267 16.6967 15.2526 9.49353C15.2526 9.49353 15.3534 9.18434 15.0176 8.9324C14.861 8.80643 13.6748 8.25674 12.511 7.71851C12.7236 8.55449 12.8803 9.39047 13.0146 10.2264Z" fill="#2C2E30"/>
<path d="M10.5302 5.37091C10.5302 5.37091 10.3736 4.9701 11.1905 4.90139C12.0074 4.83268 32.139 4.90139 32.139 4.90139C32.139 4.90139 32.8552 4.83268 32.609 5.11897C32.3628 5.40527 28.4126 7.89031 25.8948 8.32547C23.3769 8.77209 15.51 8.32547 15.51 8.32547C15.51 8.32547 14.5252 8.1766 13.7755 7.76434C13.0257 7.35207 10.5302 5.37091 10.5302 5.37091Z" fill="#2C2E30"/>
<path d="M12.2088 5.05024C11.459 5.11895 11.6045 5.48541 11.6045 5.48541C11.6045 5.48541 13.8762 7.27189 14.5588 7.6498C15.2526 8.01626 16.1367 8.15368 16.1367 8.15368C16.1367 8.15368 17.7257 8.24529 19.6617 8.2911L20.0309 5.03879C16.0807 5.01589 12.5333 5.02734 12.2088 5.05024Z" fill="#2C2E30"/>
<path d="M20.6688 8.30257C22.56 8.33693 24.5631 8.31402 25.5926 8.14225C27.8867 7.75289 31.4788 5.50833 31.7138 5.24494C31.9488 4.98155 31.2886 5.03881 31.2886 5.03881C31.2886 5.03881 26.2976 5.01591 21.4186 5.00446L20.6688 8.30257Z" fill="#2C2E30"/>
<path d="M21.8438 4.66086H24.205C24.205 4.66086 24.5407 4.6265 24.4288 4.38602C24.3169 4.14553 24.0259 4.16843 23.8469 4.16843H22.1236C22.1236 4.16843 21.7878 4.19134 21.7655 4.48908C21.7543 4.48908 21.7543 4.66086 21.8438 4.66086Z" fill="#005D4D"/>
<path d="M22.0341 4.66089H24.0596C24.0596 4.66089 24.3393 4.62654 24.2498 4.43186C24.1603 4.22572 23.9141 4.23718 23.7462 4.23718H22.2691C22.2691 4.23718 21.9781 4.24863 21.9558 4.51202C21.9446 4.51202 21.9446 4.66089 22.0341 4.66089Z" fill="#00987E"/>
<path d="M11.9179 4.66086H14.2791C14.2791 4.66086 14.6148 4.6265 14.5029 4.38602C14.391 4.14553 14.1 4.16843 13.921 4.16843H12.1977C12.1977 4.16843 11.8619 4.19134 11.8396 4.48908C11.8284 4.48908 11.8284 4.66086 11.9179 4.66086Z" fill="#005D4D"/>
<path d="M12.0969 4.66089H14.1223C14.1223 4.66089 14.4021 4.62654 14.3126 4.43186C14.223 4.22572 13.9769 4.23718 13.809 4.23718H12.343C12.343 4.23718 12.0521 4.24863 12.0297 4.51202C12.0185 4.51202 12.0185 4.66089 12.0969 4.66089Z" fill="#00987E"/>
<g opacity="0.4">
<path opacity="0.5" d="M17.6698 7.15736C16.2934 7.13446 14.917 7.0772 13.5405 6.95123C13.9658 7.24898 14.3462 7.52382 14.5589 7.64979C15.2527 8.01625 16.1367 8.15367 16.1367 8.15367C16.1367 8.15367 17.7258 8.24528 19.6617 8.29109L19.796 7.18027C19.091 7.18027 18.3748 7.18027 17.6698 7.15736Z" fill="#2C2E30"/>
<path opacity="0.5" d="M30.0129 6.10379C29.0281 6.28702 28.0545 6.4817 27.0698 6.64203C25.5143 6.87106 23.9364 7.05429 22.3698 7.123C21.8886 7.1459 21.4074 7.15736 20.9262 7.16881L20.6688 8.30254C22.56 8.33689 24.5631 8.31399 25.5926 8.14221C27.1593 7.86737 29.3526 6.73364 30.6395 5.96637C30.4269 6.01218 30.2143 6.05798 30.0129 6.10379Z" fill="#2C2E30"/>
</g>
<path d="M10.5302 25.6864C10.5302 25.6864 10.3736 26.0872 11.1905 26.1559C12.0074 26.2246 32.139 26.1559 32.139 26.1559C32.139 26.1559 32.8552 26.2246 32.609 25.9383C32.3628 25.652 28.4126 23.167 25.8948 22.7318C23.3769 22.2852 15.51 22.7318 15.51 22.7318C15.51 22.7318 14.5252 22.8807 13.7755 23.293C13.0257 23.7052 10.5302 25.6864 10.5302 25.6864Z" fill="#2C2E30"/>
<path d="M12.2088 26.007C11.459 25.9383 11.6045 25.5719 11.6045 25.5719C11.6045 25.5719 13.8762 23.7854 14.5588 23.4075C15.2526 23.041 16.1367 22.9036 16.1367 22.9036C16.1367 22.9036 17.7257 22.812 19.6617 22.7662L20.0309 26.0185C16.0807 26.0299 12.5333 26.0299 12.2088 26.007Z" fill="#2C2E30"/>
<path d="M20.6688 22.7433C22.56 22.7089 24.5631 22.7318 25.5926 22.9036C27.8867 23.293 31.4788 25.5375 31.7138 25.8009C31.9488 26.0643 31.2886 26.007 31.2886 26.007C31.2886 26.007 26.2976 26.0299 21.4186 26.0414L20.6688 22.7433Z" fill="#2C2E30"/>
<path d="M12.2088 26.007C11.459 25.9383 11.6045 25.5719 11.6045 25.5719C11.6045 25.5719 13.8762 23.7854 14.5588 23.4075C15.2526 23.041 16.1367 22.9036 16.1367 22.9036C16.1367 22.9036 17.7257 22.812 19.6617 22.7662L20.0309 26.0185C16.0807 26.0299 12.5333 26.0299 12.2088 26.007Z" fill="#2C2E30"/>
<path d="M20.6688 22.7433C22.56 22.7089 24.5631 22.7318 25.5926 22.9036C27.8867 23.293 31.4788 25.5375 31.7138 25.8009C31.9488 26.0643 31.2886 26.007 31.2886 26.007C31.2886 26.007 26.2976 26.0299 21.4186 26.0414L20.6688 22.7433Z" fill="#2C2E30"/>
<path d="M21.8438 26.3849H24.205C24.205 26.3849 24.5407 26.4193 24.4288 26.6598C24.3169 26.9003 24.0259 26.8774 23.8469 26.8774H22.1236C22.1236 26.8774 21.7878 26.8545 21.7655 26.5567C21.7543 26.5682 21.7543 26.3849 21.8438 26.3849Z" fill="#005D4D"/>
<path d="M22.0341 26.3849H24.0596C24.0596 26.3849 24.3393 26.4193 24.2498 26.614C24.1603 26.8201 23.9141 26.8087 23.7462 26.8087H22.2691C22.2691 26.8087 21.9781 26.7972 21.9558 26.5338C21.9446 26.5338 21.9446 26.3849 22.0341 26.3849Z" fill="#00987E"/>
<path d="M11.9179 26.3849H14.2791C14.2791 26.3849 14.6148 26.4193 14.5029 26.6598C14.391 26.9003 14.1 26.8774 13.921 26.8774H12.1977C12.1977 26.8774 11.8619 26.8545 11.8396 26.5567C11.8284 26.5682 11.8284 26.3849 11.9179 26.3849Z" fill="#005D4D"/>
<path d="M12.0969 26.3849H14.1223C14.1223 26.3849 14.4021 26.4193 14.3126 26.614C14.223 26.8201 13.9769 26.8087 13.809 26.8087H12.343C12.343 26.8087 12.0521 26.7972 12.0297 26.5338C12.0185 26.5338 12.0185 26.3849 12.0969 26.3849Z" fill="#00987E"/>
<path opacity="0.5" d="M17.7369 24.0602C18.4307 24.0602 19.1245 24.0717 19.8183 24.0946L19.6728 22.7662C17.748 22.812 16.1478 22.9036 16.1478 22.9036C16.1478 22.9036 15.2526 23.0296 14.5699 23.4075C14.3014 23.5563 13.7642 23.9343 13.2383 24.3236C14.7266 24.1289 16.2373 24.0717 17.7369 24.0602Z" fill="#2C2E30"/>
<path opacity="0.5" d="M22.1907 24.1633C23.6343 24.2091 25.0779 24.2778 26.5103 24.4037C27.7972 24.5297 29.1176 24.69 30.3933 24.942C29.0841 24.1747 27.0698 23.167 25.5926 22.9036C24.5631 22.7203 22.5712 22.7089 20.6688 22.7432L20.9822 24.1175C21.385 24.1404 21.7879 24.1518 22.1907 24.1633Z" fill="#2C2E30"/>
<path d="M32.3292 4.88989L32.609 5.50828C32.609 5.50828 32.9559 5.86329 33.2021 5.50828C33.3476 5.2907 33.2021 4.39746 33.2021 4.39746L32.3292 4.88989Z" fill="#005D4D"/>
<path d="M33.3141 4.69526C33.3141 4.69526 33.4036 4.91284 32.8441 5.03881C32.2846 5.16478 31.9376 5.23349 31.6915 5.03881C31.4453 4.84413 30.6955 1.7636 30.8186 1.37424C30.9417 1.00778 31.8146 1.33988 32.4972 2.0957C33.191 2.84007 33.37 4.15702 33.3141 4.69526Z" fill="#00987E"/>
<path d="M32.3292 26.1788L32.609 25.5604C32.609 25.5604 32.9559 25.2054 33.2021 25.5604C33.3476 25.778 33.2021 26.6712 33.2021 26.6712L32.3292 26.1788Z" fill="#005D4D"/>
<path d="M33.3141 26.3849C33.3141 26.3849 33.4036 26.1674 32.8441 26.0414C32.2846 25.9154 31.9376 25.8467 31.6915 26.0414C31.4453 26.2361 30.6955 29.3166 30.8186 29.706C30.9417 30.0724 31.8146 29.7403 32.4972 28.9845C33.191 28.2287 33.37 26.9117 33.3141 26.3849Z" fill="#00987E"/>
<path d="M31.0536 1.22534C30.9417 1.23679 30.8633 1.2826 30.8298 1.37422C30.7067 1.74067 31.4452 4.84411 31.7026 5.03879C31.8817 5.16476 32.1055 5.17621 32.4188 5.1304C31.9376 3.8249 31.5236 2.50794 31.0536 1.22534Z" fill="#005D4D"/>
<path d="M30.8185 29.6945C30.8633 29.8434 31.0424 29.8777 31.255 29.8205C31.6578 28.5379 32.0271 27.2438 32.3516 25.9383C32.0607 25.8925 31.8369 25.904 31.669 26.0299C31.434 26.2246 30.6954 29.3166 30.8185 29.6945Z" fill="#005D4D"/>
<path d="M43.4749 8.94387C43.4749 8.94387 42.6245 6.73368 40.6773 5.51979C40.6773 5.51979 39.3345 4.84413 40.1626 4.52348C41.0018 4.19138 42.5126 5.16478 42.9266 5.86334C43.6316 7.05433 43.8666 8.95532 43.8666 8.95532C43.8666 8.95532 43.833 9.7455 43.4749 8.94387Z" fill="#FFE16F"/>
<path d="M43.4749 21.9875C43.4749 21.9875 42.6245 24.1977 40.6773 25.4116C40.6773 25.4116 39.3345 26.0872 40.1626 26.4079C41.0018 26.74 42.5126 25.7666 42.9266 25.068C43.6316 23.877 43.8666 21.976 43.8666 21.976C43.8666 21.976 43.833 21.1744 43.4749 21.9875Z" fill="#FFE16F"/>
<path d="M3.54737 24.232C3.11094 23.8656 2.64094 23.5335 2.14856 23.2357C2.26046 23.9915 2.76404 25.6406 5.02451 26.5453C5.00213 25.6177 4.22999 24.8046 3.54737 24.232Z" fill="#FFE16F"/>
<path d="M3.22289 24.8618C2.83122 24.4038 2.55146 23.8655 2.29408 23.3273C2.23813 23.3044 2.19336 23.2586 2.12622 23.2242C2.23813 23.9801 2.7417 25.6291 5.00217 26.5338C5.00217 26.488 5.00217 26.4422 4.99098 26.3964C4.36432 25.9498 3.73765 25.4802 3.22289 24.8618Z" fill="#00987E"/>
<path opacity="0.4" d="M3.54737 25.6864C3.88308 25.5719 4.2188 25.4001 4.47618 25.171C4.20761 24.816 3.8607 24.4954 3.54737 24.2205C3.11094 23.8541 2.64094 23.522 2.14856 23.2242C2.22689 23.7968 2.50665 24.816 3.54737 25.6864Z" fill="#00987E"/>
<path d="M3.54733 6.7222C3.09971 7.08865 2.62971 7.42076 2.13733 7.7185C2.24923 6.96268 2.75281 5.31363 5.01328 4.40894C5.00209 5.32508 4.22995 6.13816 3.54733 6.7222Z" fill="#FFE16F"/>
<path d="M3.22289 6.0809C2.83122 6.53897 2.55146 7.0772 2.29408 7.61544C2.23813 7.64979 2.19336 7.68415 2.12622 7.7185C2.23813 6.96268 2.7417 5.31363 5.00217 4.40894C5.00217 4.45474 5.00217 4.50055 4.99098 4.54636C4.36432 5.00443 3.73765 5.4625 3.22289 6.0809Z" fill="#00987E"/>
<path opacity="0.4" d="M3.54733 5.26782C3.88304 5.38234 4.21876 5.55412 4.47614 5.78315C4.20757 6.12671 3.86066 6.44736 3.54733 6.7222C3.09971 7.08866 2.62971 7.42076 2.13733 7.71851C2.22685 7.16882 2.50661 6.12671 3.54733 5.26782Z" fill="#00987E"/>
<path d="M43.6429 24.8504C43.7548 24.9191 43.7436 25.1367 43.6317 25.3313C43.5086 25.5375 43.3184 25.6291 43.2065 25.5718C43.0946 25.5031 43.1058 25.2855 43.2177 25.0908C43.3408 24.8847 43.531 24.7817 43.6429 24.8504Z" fill="#FFE16F"/>
<path d="M43.6429 6.32136C43.7548 6.25265 43.7436 6.03507 43.6317 5.84039C43.5086 5.63426 43.3184 5.54264 43.2065 5.5999C43.0946 5.66861 43.1058 5.88619 43.2177 6.08088C43.3408 6.27556 43.531 6.39007 43.6429 6.32136Z" fill="#FFE16F"/>
<path opacity="0.5" d="M27.1481 15.3568C27.2489 13.5016 26.9467 9.59658 26.8796 9.17287C26.8012 8.74915 26.2193 8.87512 26.2193 8.87512C23.142 9.44771 16.4948 9.19577 16.0808 9.23013C15.6555 9.25303 15.6108 9.84852 15.6108 9.84852C15.6108 9.84852 15.0177 16.021 15.6108 20.8651C15.6108 20.8651 15.6555 21.4721 16.0808 21.4835C16.506 21.5064 23.142 21.266 26.2193 21.8385C26.2193 21.8385 26.8012 21.9645 26.8796 21.5408C26.9467 21.1171 27.2489 17.212 27.1481 15.3568Z" fill="#00987E"/>
<path d="M31.0537 1.22534C31.0649 1.22534 31.0649 1.22534 31.0761 1.22534C31.4118 1.22534 32.0049 1.55744 32.5085 2.09568C32.9337 2.55375 33.1575 3.2065 33.2583 3.77909L35.8433 3.76764C35.8433 3.76764 36.0895 3.75619 36.4923 3.75619C36.5371 3.75619 36.5818 3.75619 36.6266 3.75619C36.6714 3.75619 36.7273 3.75619 36.7721 3.75619C37.7345 3.75619 39.6033 3.8249 40.9909 4.32878C41.9197 4.51201 42.8149 4.80975 43.3409 5.32508C44.8068 6.76801 45.7692 12.597 45.8811 15.4828C45.8811 15.4943 45.8811 15.4943 45.8811 15.4943C45.8811 15.5057 45.8811 15.5057 45.8811 15.5057C45.7916 18.174 44.9523 23.3388 43.6542 25.2397C43.643 25.2741 43.643 25.3085 43.6206 25.3428C43.5535 25.4459 43.4752 25.526 43.3968 25.5604C43.3745 25.5948 43.3409 25.6291 43.3185 25.652C42.8373 26.1215 42.0316 26.4078 41.1811 26.5911C40.118 27.0262 38.6968 27.1866 37.6225 27.2324C37.2868 27.2438 36.9959 27.2553 36.7497 27.2553C36.7049 27.2553 36.6602 27.2553 36.6266 27.2553C36.5706 27.2553 36.5147 27.2553 36.4699 27.2553C36.0671 27.2553 35.8209 27.2438 35.8209 27.2438L33.2471 27.2324C33.1464 27.8164 32.9226 28.515 32.4861 28.9845C31.9825 29.5342 31.3895 29.8548 31.0537 29.8548C30.9306 29.8548 30.8299 29.809 30.7964 29.7059C30.7852 29.683 30.7852 29.6487 30.7852 29.6029C30.774 29.225 30.9978 28.1141 31.2328 27.2209L6.91588 27.1407C0.996119 26.7399 1.11921 22.8692 1.11921 22.8692L1.11921 15.6661V15.5057V15.4943V15.3339L1.11921 8.14222C1.11921 8.14222 0.996119 4.27152 6.91588 3.87071L31.244 3.79054C30.9866 2.81714 30.7404 1.60325 30.8187 1.37422C30.8523 1.2826 30.9306 1.23679 31.0537 1.22534C31.0425 1.22534 31.0425 1.22534 31.0537 1.22534ZM31.7811 0L30.9418 0.0801625L30.8859 0.0801625H30.8747L30.7516 0.0916143L30.7292 0.114518C30.2816 0.217584 29.9123 0.549686 29.7556 1.01921C29.7109 1.16808 29.6102 1.48873 29.834 2.65682L6.91588 2.72553H6.88231H6.84874C1.30945 3.10344 -0.0557854 6.45881 0.000166954 8.17658L0.000166954 15.3339L0.000166954 15.4943L0.000166954 15.6661L0.000166954 22.8692C-0.0557854 24.5526 1.30945 27.908 6.83755 28.2859H6.87112H6.90469L29.834 28.3546C29.7445 28.8242 29.6661 29.3166 29.6773 29.6258C29.6773 29.7747 29.6997 29.9235 29.7445 30.0495C29.9347 30.6335 30.4495 31 31.0649 31C31.8818 31 32.7659 30.3587 33.3142 29.7632C33.7059 29.3395 33.9521 28.8356 34.1199 28.3661H35.8209C35.8209 28.3661 36.0895 28.3775 36.4811 28.3775H36.649H36.7721C37.0295 28.3775 37.3428 28.3775 37.6897 28.3546C38.7752 28.3088 40.2971 28.1485 41.5168 27.6675C42.6806 27.4041 43.5311 27.0148 44.1018 26.4536C44.113 26.4422 44.1354 26.4193 44.1578 26.3964C44.3256 26.2704 44.4711 26.0986 44.5942 25.904C44.639 25.8352 44.6614 25.7665 44.6837 25.7093C46.1609 23.3617 46.9218 17.9564 47.0114 15.5172V15.4943V15.4485C46.9218 13.1581 46.0825 6.3901 44.113 4.4662C43.4975 3.85925 42.5687 3.44699 41.2706 3.19505C39.7487 2.66827 37.8016 2.5881 36.7721 2.5881H36.6154H36.4923C36.0671 2.5881 35.7985 2.59956 35.7985 2.59956H34.1199C33.9521 2.14148 33.7059 1.67196 33.3366 1.27115C32.9673 0.870336 32.4525 0.458072 31.9042 0.217584L31.7811 0Z" fill="black"/>
</g>
<defs>
<clipPath id="clip0_1_22927">
<rect width="47" height="31" fill="white"/>
</clipPath>
</defs>
</svg>
