<svg width="45" height="45" viewBox="0 0 45 45" fill="none" xmlns="http://www.w3.org/2000/svg">
<path d="M14.3258 32.9089C17.3612 32.9089 19.822 31.5076 19.822 29.7788C19.822 28.0501 17.3612 26.6487 14.3258 26.6487C11.2902 26.6487 8.8295 28.0501 8.8295 29.7788C8.8295 31.5076 11.2902 32.9089 14.3258 32.9089Z" fill="#C3DD83"/>
<path d="M7.50751 24.0493C9.50283 24.0493 11.1203 22.4426 11.1203 20.4606C11.1203 18.4785 9.50283 16.8718 7.50751 16.8718C5.51218 16.8718 3.89465 18.4785 3.89465 20.4606C3.89465 22.4426 5.51218 24.0493 7.50751 24.0493Z" fill="#95CC5F"/>
<path d="M18.8078 24.0493C20.8031 24.0493 22.4206 22.4426 22.4206 20.4606C22.4206 18.4785 20.8031 16.8718 18.8078 16.8718C16.8125 16.8718 15.195 18.4785 15.195 20.4606C15.195 22.4426 16.8125 24.0493 18.8078 24.0493Z" fill="#95CC5F"/>
<path d="M11.1386 21.6209H14.8873V28.1508C14.8873 28.6447 14.6898 29.1182 14.3383 29.4674C13.9868 29.8166 13.5101 30.0127 13.0129 30.0127C12.5159 30.0127 12.0391 29.8166 11.6876 29.4674C11.336 29.1182 11.1386 28.6447 11.1386 28.1508V21.6209Z" fill="#564218"/>
<path d="M13.1578 22.6912C17.2385 22.6912 20.5465 19.4053 20.5465 15.3517C20.5465 11.2983 17.2385 8.01233 13.1578 8.01233C9.07714 8.01233 5.76915 11.2983 5.76915 15.3517C5.76915 19.4053 9.07714 22.6912 13.1578 22.6912Z" fill="#95CC5F"/>
<path d="M13.1575 12.8424C15.1528 12.8424 16.7704 11.2356 16.7704 9.25353C16.7704 7.27152 15.1528 5.66477 13.1575 5.66477C11.1622 5.66477 9.54468 7.27152 9.54468 9.25353C9.54468 11.2356 11.1622 12.8424 13.1575 12.8424Z" fill="#95CC5F"/>
<path d="M11.4464 17.3216C13.5166 17.3216 15.1951 15.6544 15.1951 13.5979C15.1951 11.5413 13.5166 9.87417 11.4464 9.87417C9.37601 9.87417 7.69768 11.5413 7.69768 13.5979C7.69768 15.6544 9.37601 17.3216 11.4464 17.3216Z" fill="#BCE466"/>
<path d="M32.3531 41.4C35.2166 41.4 37.5379 40.0781 37.5379 38.4473C37.5379 36.8166 35.2166 35.4946 32.3531 35.4946C29.4896 35.4946 27.1683 36.8166 27.1683 38.4473C27.1683 40.0781 29.4896 41.4 32.3531 41.4Z" fill="#C3DD83"/>
<path d="M25.9213 33.0425C27.8035 33.0425 29.3294 31.5268 29.3294 29.6572C29.3294 27.7874 27.8035 26.2717 25.9213 26.2717C24.0391 26.2717 22.5131 27.7874 22.5131 29.6572C22.5131 31.5268 24.0391 33.0425 25.9213 33.0425Z" fill="#95CC5F"/>
<path d="M36.5813 33.0425C38.4636 33.0425 39.9894 31.5268 39.9894 29.6572C39.9894 27.7874 38.4636 26.2717 36.5813 26.2717C34.699 26.2717 33.1732 27.7874 33.1732 29.6572C33.1732 31.5268 34.699 33.0425 36.5813 33.0425Z" fill="#95CC5F"/>
<path d="M29.3467 30.7516H32.8829V36.9115C32.8829 37.3774 32.6966 37.8241 32.3651 38.1534C32.0334 38.4828 31.5837 38.6679 31.1148 38.6679C30.6459 38.6679 30.1962 38.4828 29.8645 38.1534C29.533 37.8241 29.3467 37.3774 29.3467 36.9115V30.7516Z" fill="#564218"/>
<path d="M31.2513 31.7613C35.1007 31.7613 38.2213 28.6615 38.2213 24.8378C38.2213 21.014 35.1007 17.9142 31.2513 17.9142C27.4019 17.9142 24.2813 21.014 24.2813 24.8378C24.2813 28.6615 27.4019 31.7613 31.2513 31.7613Z" fill="#95CC5F"/>
<path d="M31.2514 22.4705C33.1337 22.4705 34.6595 20.9548 34.6595 19.0851C34.6595 17.2154 33.1337 15.6997 31.2514 15.6997C29.3692 15.6997 27.8433 17.2154 27.8433 19.0851C27.8433 20.9548 29.3692 22.4705 31.2514 22.4705Z" fill="#95CC5F"/>
<path d="M29.6369 26.696C31.5899 26.696 33.1732 25.1232 33.1732 23.1833C33.1732 21.2432 31.5899 19.6706 29.6369 19.6706C27.6839 19.6706 26.1006 21.2432 26.1006 23.1833C26.1006 25.1232 27.6839 26.696 29.6369 26.696Z" fill="#BCE466"/>
</svg>
