<svg width="45" height="45" viewBox="0 0 45 45" fill="none" xmlns="http://www.w3.org/2000/svg">
<path d="M36.0172 20.6627H10.6589C7.68592 20.6627 5.27586 23.0437 5.27586 25.9808V25.9939C5.27586 28.9309 7.68592 31.3119 10.6589 31.3119H36.0172C38.9901 31.3119 41.4002 28.9309 41.4002 25.9939V25.9808C41.4002 23.0437 38.9901 20.6627 36.0172 20.6627Z" fill="#C3DD83"/>
<path d="M34.3413 16.7786H8.98303C6.01007 16.7786 3.60001 19.1597 3.60001 22.0967V22.1098C3.60001 25.0468 6.01007 27.4278 8.98303 27.4278H34.3413C37.3143 27.4278 39.7243 25.0468 39.7243 22.1098V22.0967C39.7243 19.1597 37.3143 16.7786 34.3413 16.7786Z" fill="#95CC5F"/>
<path d="M29.0902 13.0638H18.7595C15.7865 13.0638 13.3765 15.4447 13.3765 18.3818V19.4506C13.3765 22.3877 15.7865 24.7686 18.7595 24.7686H29.0902C32.0631 24.7686 34.4732 22.3877 34.4732 19.4506V18.3818C34.4732 15.4447 32.0631 13.0638 29.0902 13.0638Z" fill="#95CC5F"/>
<path d="M26.1889 12.9307H18.5102C15.8142 12.9307 13.6285 15.087 13.6285 17.7469C13.6285 20.4069 15.8142 22.5632 18.5102 22.5632H26.1889C28.885 22.5632 31.0706 20.4069 31.0706 17.7469C31.0706 15.087 28.885 12.9307 26.1889 12.9307Z" fill="#BCE466"/>
<path d="M39.4715 32.9879H26.3571C25.7181 32.9879 25.2 33.5059 25.2 34.145V34.145C25.2 34.7841 25.7181 35.3022 26.3571 35.3022H39.4715C40.1105 35.3022 40.6286 34.7841 40.6286 34.145C40.6286 33.5059 40.1105 32.9879 39.4715 32.9879Z" fill="#C3DD83"/>
<path d="M39.4573 28.6241V33.6677H27.5568V28.6241C27.5568 27.9401 27.8333 27.284 28.3255 26.8004C28.8177 26.3167 29.4854 26.0449 30.1815 26.0449H36.8394C37.5343 26.0467 38.2002 26.3192 38.6909 26.8027C39.1817 27.2863 39.4573 27.9413 39.4573 28.6241Z" fill="#6A7680"/>
<path d="M36.0836 28.6241V33.6677H27.5568V28.6241C27.5568 27.9401 27.8333 27.284 28.3255 26.8004C28.8177 26.3167 29.4854 26.0449 30.1815 26.0449H33.4589C34.1551 26.0449 34.8226 26.3167 35.3148 26.8004C35.8071 27.284 36.0836 27.9401 36.0836 28.6241Z" fill="#AEB7BD"/>
<path d="M31.1296 31.2236V33.715H25.2V31.2034C25.2 30.8631 25.3375 30.5368 25.5824 30.2962C25.8272 30.0557 26.1592 29.9205 26.5055 29.9205H29.8379C30.0099 29.9222 30.1799 29.9574 30.338 30.0239C30.4961 30.0904 30.6394 30.1871 30.7595 30.3081C30.8794 30.4293 30.974 30.5725 31.0375 30.7295C31.101 30.8867 31.1323 31.0546 31.1296 31.2236Z" fill="#6A7680"/>
<path d="M29.4462 31.2236V33.715H25.2V31.2034C25.2 30.8631 25.3375 30.5368 25.5824 30.2962C25.8272 30.0557 26.1592 29.9205 26.5055 29.9205H28.1339C28.3074 29.9205 28.4791 29.9543 28.6393 30.02C28.7994 30.0856 28.9447 30.1818 29.0668 30.303C29.1888 30.4241 29.2852 30.568 29.3503 30.7259C29.4154 30.884 29.4481 31.0531 29.4462 31.2236Z" fill="#AEB7BD"/>
</svg>
