<svg width="45" height="45" viewBox="0 0 45 45" fill="none" xmlns="http://www.w3.org/2000/svg">
<path d="M8.10009 27.7698V30.7583C8.09488 31.6715 8.31908 32.5721 8.75306 33.3806C9.18702 34.1892 9.81747 34.881 10.5888 35.3952L16.9031 39.6492C17.7442 40.2044 18.7358 40.5007 19.7504 40.5001H25.6844C27.1417 40.5013 28.546 39.966 29.6185 39.0005L35.0525 34.1509C35.6317 33.6323 36.0941 33.0014 36.4103 32.2982C36.7266 31.5951 36.8896 30.8352 36.8891 30.0669V19.7934C36.8891 18.2251 36.2525 16.7211 35.1193 15.6122C33.9862 14.5032 32.4491 13.8803 30.8466 13.8803H25.4995C23.9758 13.8794 22.4941 14.369 21.2828 15.2735L9.98019 23.6966C9.39546 24.2109 8.92641 24.8386 8.60276 25.5398C8.27909 26.241 8.10793 27.0004 8.10009 27.7698Z" fill="#A75542"/>
<path d="M8.1 24.2814V27.2592C8.10039 28.1683 8.32842 29.0633 8.76418 29.8661C9.19998 30.6689 9.83016 31.355 10.5996 31.8642L16.9139 36.1184C17.7517 36.6815 18.7447 36.9819 19.7612 36.9797H25.6951C27.1514 36.9759 28.5539 36.4413 29.6293 35.4802L35.0633 30.62C35.6424 30.1014 36.1049 29.4704 36.4211 28.7673C36.7374 28.0642 36.9004 27.3043 36.8999 26.5361V16.2518C36.8999 14.6836 36.2633 13.1795 35.1301 12.0706C33.997 10.9616 32.4599 10.3387 30.8574 10.3387H25.5103C23.9866 10.3379 22.5049 10.8274 21.2935 11.7319L9.99099 20.1762C9.40131 20.6941 8.92855 21.3267 8.60293 22.0335C8.27732 22.7405 8.10602 23.506 8.1 24.2814Z" fill="#8C4737"/>
<path d="M8.10001 21.5694V24.5472C8.0985 25.4567 8.32574 26.3525 8.76167 27.1555C9.19764 27.9586 9.82881 28.6444 10.5996 29.1523L16.9139 33.4064C17.7517 33.9695 18.7447 34.27 19.7612 34.2679H25.6952C27.1514 34.2639 28.554 33.7293 29.6293 32.7683L35.0633 27.908C35.6424 27.3894 36.1049 26.7585 36.4211 26.0554C36.7374 25.3522 36.9004 24.5923 36.8999 23.8241V13.5505C36.8999 11.9822 36.2633 10.4783 35.1301 9.36927C33.997 8.26035 32.4599 7.63736 30.8574 7.63736H25.5103C23.9866 7.6365 22.5049 8.12606 21.2935 9.0306L9.99099 17.4748C9.40266 17.9915 8.9307 18.6224 8.60512 19.3274C8.27956 20.0324 8.10753 20.7958 8.10001 21.5694Z" fill="#95CC5F"/>
<path d="M8.1 18.432V21.4099C8.10039 22.3189 8.32842 23.214 8.76418 24.0168C9.19998 24.8196 9.83016 25.5056 10.5996 26.015L16.9139 30.269C17.7517 30.8321 18.7447 31.1326 19.7612 31.1305H25.6951C27.1514 31.1265 28.5539 30.5919 29.6293 29.6309L35.0633 24.7706C35.6424 24.252 36.1049 23.6211 36.4211 22.918C36.7374 22.2148 36.9004 21.4549 36.8999 20.6867V10.4132C36.8999 8.84488 36.2633 7.34085 35.1301 6.23191C33.997 5.12298 32.4599 4.5 30.8574 4.5H25.5103C23.9866 4.49914 22.5049 4.98869 21.2935 5.89321L9.99099 14.3375C9.40266 14.8542 8.93069 15.485 8.60512 16.19C8.27955 16.895 8.10753 17.6584 8.1 18.432Z" fill="#BCE466"/>
</svg>
