<svg width="45" height="45" viewBox="0 0 45 45" fill="none" xmlns="http://www.w3.org/2000/svg">
<path d="M27.8532 11.9486H37.2342C38.5778 11.9486 39.8663 12.4843 40.8163 13.438C41.7664 14.3916 42.3001 15.685 42.3001 17.0336V37.201C42.3001 37.8688 42.169 38.53 41.9144 39.1469C41.6599 39.7639 41.2868 40.3244 40.8163 40.7966C40.3459 41.2688 39.7875 41.6434 39.1729 41.899C38.5582 42.1545 37.8994 42.286 37.2342 42.286H27.8532V11.9486Z" fill="#C3DD83"/>
<path d="M30.6212 29.3648V39.8798C30.6212 40.73 30.2848 41.5452 29.686 42.1463C29.0871 42.7475 28.2749 43.0852 27.428 43.0852H10.24C9.81991 43.0863 9.40366 43.0043 9.01522 42.8438C8.62672 42.6832 8.27362 42.4473 7.97613 42.1495C7.67864 41.8518 7.44261 41.498 7.28156 41.1086C7.12052 40.7191 7.03763 40.3016 7.03763 39.8798V29.3648H30.6212Z" fill="white"/>
<path d="M27.8529 29.4828H10.1494V35.1399H27.8529V29.4828Z" fill="#EBE5E5"/>
<path d="M18.8249 31.208L8.24076 37.0467C7.76621 37.3092 7.23192 37.4436 6.69013 37.4367C6.14833 37.4298 5.61758 37.2818 5.14984 37.0073C4.68211 36.7327 4.2934 36.3409 4.02174 35.8704C3.75007 35.3998 3.60475 34.8665 3.60001 34.3226V12.5934C3.59865 11.8957 3.78441 11.2106 4.13777 10.6098C4.49113 10.0092 4.99907 9.51498 5.60828 9.17919L18.8249 1.91492V31.208Z" fill="#005D4D"/>
<path d="M18.8248 31.208L29.3999 37.0467C29.8751 37.3086 30.4098 37.4426 30.9519 37.4355C31.494 37.4284 32.0251 37.2804 32.4932 37.0061C32.9614 36.7318 33.3509 36.3405 33.6237 35.8702C33.8964 35.3999 34.0432 34.8667 34.0497 34.3226V12.5934C34.0511 11.8947 33.8645 11.2085 33.5093 10.6075C33.1543 10.0065 32.644 9.513 32.0324 9.17919L18.8248 1.91492V31.208Z" fill="#00987E"/>
<path d="M22.2716 40.7424V43.0851H15.3512V40.7424C15.3512 40.3105 15.5215 39.8961 15.8249 39.5898C16.1284 39.2836 16.5402 39.1103 16.9705 39.1079H20.6523C21.0826 39.1103 21.4944 39.2836 21.7978 39.5898C22.1013 39.8961 22.2716 40.3105 22.2716 40.7424Z" fill="#A75540"/>
</svg>
