<svg width="45" height="45" viewBox="0 0 45 45" fill="none" xmlns="http://www.w3.org/2000/svg">
<path d="M14.4471 31.2552C17.0798 31.2552 19.2141 30.0397 19.2141 28.5404C19.2141 27.0411 17.0798 25.8257 14.4471 25.8257C11.8143 25.8257 9.68004 27.0411 9.68004 28.5404C9.68004 30.0397 11.8143 31.2552 14.4471 31.2552Z" fill="#C3DD83"/>
<path d="M8.5335 23.5713C10.264 23.5713 11.667 22.1777 11.667 20.4586C11.667 18.7395 10.264 17.346 8.5335 17.346C6.80291 17.346 5.39999 18.7395 5.39999 20.4586C5.39999 22.1777 6.80291 23.5713 8.5335 23.5713Z" fill="#95CC5F"/>
<path d="M18.3346 23.5713C20.0652 23.5713 21.4682 22.1777 21.4682 20.4586C21.4682 18.7395 20.0652 17.346 18.3346 17.346C16.604 17.346 15.2011 18.7395 15.2011 20.4586C15.2011 22.1777 16.604 23.5713 18.3346 23.5713Z" fill="#95CC5F"/>
<path d="M11.6829 21.465H14.9341V27.1285C14.9341 27.5568 14.7629 27.9676 14.458 28.2704C14.1531 28.5732 13.7397 28.7434 13.3085 28.7434C12.8774 28.7434 12.4638 28.5732 12.159 28.2704C11.8542 27.9676 11.6829 27.5568 11.6829 27.1285V21.465Z" fill="#564218"/>
<path d="M13.4341 22.3933C16.9734 22.3933 19.8425 19.5432 19.8425 16.0276C19.8425 12.512 16.9734 9.66195 13.4341 9.66195C9.89487 9.66195 7.02576 12.512 7.02576 16.0276C7.02576 19.5432 9.89487 22.3933 13.4341 22.3933Z" fill="#95CC5F"/>
<path d="M13.4339 13.8511C15.1645 13.8511 16.5674 12.4575 16.5674 10.7384C16.5674 9.01944 15.1645 7.62583 13.4339 7.62583C11.7032 7.62583 10.3003 9.01944 10.3003 10.7384C10.3003 12.4575 11.7032 13.8511 13.4339 13.8511Z" fill="#95CC5F"/>
<path d="M11.9498 17.7359C13.7455 17.7359 15.2012 16.29 15.2012 14.5064C15.2012 12.7227 13.7455 11.2767 11.9498 11.2767C10.1542 11.2767 8.69853 12.7227 8.69853 14.5064C8.69853 16.29 10.1542 17.7359 11.9498 17.7359Z" fill="#BCE466"/>
<path d="M31.2146 41.2417C36.3429 41.2417 40.5002 37.0597 40.5002 31.9008C40.5002 26.742 36.3429 22.5598 31.2146 22.5598C26.0864 22.5598 21.9291 26.742 21.9291 31.9008C21.9291 37.0597 26.0864 41.2417 31.2146 41.2417Z" fill="#C3DD83"/>
<path d="M27.9455 39.9369C33.0738 39.9369 37.231 35.7547 37.231 30.5959C37.231 25.4371 33.0738 21.255 27.9455 21.255C22.8173 21.255 18.6601 25.4371 18.6601 30.5959C18.6601 35.7547 22.8173 39.9369 27.9455 39.9369Z" fill="#005D4D"/>
<path d="M21.4466 13.2347H34.5655V28.7813C34.5591 30.5275 33.8646 32.1997 32.6341 33.4315C31.4037 34.6631 29.7379 35.3536 28.0021 35.3516C26.2634 35.3516 24.596 34.6568 23.3667 33.42C22.1373 32.1833 21.4466 30.506 21.4466 28.757V13.2347Z" fill="white"/>
<path d="M27.9457 18.6625C31.5973 18.6625 34.5575 15.6847 34.5575 12.0112C34.5575 8.33788 31.5973 5.36001 27.9457 5.36001C24.2941 5.36001 21.3339 8.33788 21.3339 12.0112C21.3339 15.6847 24.2941 18.6625 27.9457 18.6625Z" fill="#005D4D"/>
<path d="M27.9456 13.2347C30.77 13.2347 33.0595 10.9314 33.0595 8.09026C33.0595 5.2491 30.77 2.94587 27.9456 2.94587C25.1213 2.94587 22.8318 5.2491 22.8318 8.09026C22.8318 10.9314 25.1213 13.2347 27.9456 13.2347Z" fill="#00987E"/>
<path d="M28.0021 23.3371C28.3945 23.337 28.7709 23.4927 29.0499 23.7703C29.3288 24.0478 29.4877 24.4249 29.4919 24.8196V29.2511H26.5122V24.8196C26.5164 24.4249 26.6753 24.0478 26.9542 23.7703C27.2332 23.4927 27.6098 23.337 28.0021 23.3371Z" fill="#2C2E30"/>
</svg>
