<svg width="21" height="31" viewBox="0 0 21 31" fill="none" xmlns="http://www.w3.org/2000/svg">
<path d="M0 10.0093C0 4.37293 4.69548 -0.192047 10.4718 0.00622342C15.7438 0.187213 20.0839 4.53196 20.2151 9.75322C20.3047 13.3224 18.514 16.4669 15.7676 18.2957C14.9306 18.853 14.4676 19.8201 14.4676 20.8189V21.0082C14.4676 23.4988 12.3357 25.5211 9.73242 25.3074C7.44696 25.1196 5.75073 23.1043 5.75073 20.8337V20.8144C5.75073 19.8064 5.26968 18.8447 4.42746 18.2784C1.75986 16.4848 0 13.4317 0 10.0093Z" fill="#FF48A1"/>
<path d="M14.4679 21.2544V24.7923C14.4679 25.977 13.9714 27.073 13.1819 27.8386C13.1249 27.9031 13.0679 27.9514 13.0029 28.0078C12.9296 29.531 11.6842 30.7318 10.1132 30.7318C8.57483 30.7318 7.28873 29.531 7.21547 28.0078C7.1504 27.9514 7.09344 27.9031 7.03638 27.8386C6.2469 27.073 5.75027 25.977 5.75027 24.7923V21.2544H14.4679Z" fill="#2C2E30"/>
<path d="M14.4679 21.2544V24.7923C14.4679 25.977 13.9714 27.073 13.1819 27.8386H7.03638C6.2469 27.073 5.75027 25.977 5.75027 24.7923V21.2544H14.4679Z" fill="#E3E8EB"/>
<path d="M2.28654 6.79052C2.46483 6.79052 2.64312 6.68414 2.71476 6.54311C3.64347 4.77497 5.17941 3.39527 7.03692 2.68769C7.28766 2.58212 7.43004 2.29925 7.32267 2.05103C7.21602 1.80362 6.93027 1.66259 6.68043 1.76816C4.608 2.58212 2.89377 4.10285 1.82178 6.08294C1.6785 6.33116 1.78596 6.61403 2.03589 6.75506C2.10753 6.79052 2.2149 6.79052 2.28654 6.79052Z" fill="white"/>
<path d="M12.8126 9.51697L12.6831 9.41149C12.3421 9.13609 11.85 9.13609 11.5122 9.41149L11.1735 9.68698C11.1338 9.72001 11.0758 9.7192 11.036 9.68617L10.6998 9.41311C10.3604 9.13681 9.86914 9.13609 9.52813 9.41149L9.18865 9.68698C9.14896 9.7192 9.09091 9.72001 9.05113 9.68779L8.70859 9.40915C8.36992 9.1369 7.87951 9.13609 7.54084 9.40996L7.4089 9.51697C6.95818 9.88219 6.75469 10.4583 6.87709 11.0201L8.02252 16.2869V21.5427H8.83657V16.2444C8.83657 16.216 8.83333 16.1877 8.82775 16.1593L7.67278 10.8501C7.61554 10.585 7.71175 10.3127 7.92397 10.1403L8.05591 10.034C8.09488 10.0018 8.15293 10.001 8.19343 10.0333L8.53606 10.3118C8.87626 10.5857 9.36676 10.5849 9.70534 10.3103L10.0447 10.0348C10.0845 10.0018 10.1426 10.0025 10.1822 10.0356L10.5185 10.3087C10.8588 10.5857 11.3516 10.5865 11.6902 10.3103L12.0289 10.0348C12.0677 10.0025 12.1258 10.001 12.1664 10.0348L12.2959 10.1395C12.5074 10.3127 12.6035 10.5842 12.5456 10.8494L11.3905 16.1593C11.385 16.1877 11.3818 16.216 11.3818 16.2443V21.5427H12.1957V16.2869L13.342 11.0186C13.4628 10.4575 13.2602 9.88219 12.8126 9.51697Z" fill="#F987BE"/>
<path d="M14.5554 20.7848H5.87656C5.53366 20.7848 5.25565 21.06 5.25565 21.3996C5.25565 21.7391 5.53366 22.0143 5.87656 22.0143H14.5554C14.8984 22.0143 15.1764 21.7391 15.1764 21.3996C15.1764 21.06 14.8984 20.7848 14.5554 20.7848Z" fill="#AEB7BD"/>
<path d="M14.5554 22.709H5.87656C5.53366 22.709 5.25565 22.9843 5.25565 23.3238C5.25565 23.6634 5.53366 23.9386 5.87656 23.9386H14.5554C14.8984 23.9386 15.1764 23.6634 15.1764 23.3238C15.1764 22.9843 14.8984 22.709 14.5554 22.709Z" fill="#AEB7BD"/>
<path d="M14.5554 24.6332H5.87656C5.53366 24.6332 5.25565 24.9084 5.25565 25.248C5.25565 25.5875 5.53366 25.8627 5.87656 25.8627H14.5554C14.8984 25.8627 15.1764 25.5875 15.1764 25.248C15.1764 24.9084 14.8984 24.6332 14.5554 24.6332Z" fill="#AEB7BD"/>
<path opacity="0.6" d="M17.7256 7.10992C18.5105 6.18067 18.0055 4.48228 16.5976 3.3166C15.1897 2.15083 13.4121 1.95922 12.6271 2.88847C11.8422 3.81772 12.3472 5.51611 13.7551 6.68179C15.163 7.84756 16.9406 8.03926 17.7256 7.10992Z" fill="#F987BE"/>
</svg>
