<svg width="74" height="74" viewBox="0 0 74 74" fill="none" xmlns="http://www.w3.org/2000/svg">
<path d="M35 32C32.2386 32 30 34.2386 30 37C30 39.7614 32.2386 42 35 42V32ZM40.5355 40.5355C42.4882 38.5829 42.4882 35.4171 40.5355 33.4645L8.71573 1.64466C6.76311 -0.307961 3.59728 -0.307961 1.64466 1.64466C-0.307961 3.59728 -0.307961 6.76311 1.64466 8.71573L29.9289 37L1.64466 65.2843C-0.307961 67.2369 -0.307961 70.4027 1.64466 72.3553C3.59728 74.308 6.76311 74.308 8.71573 72.3553L40.5355 40.5355ZM35 42H37V32H35V42Z" fill="white"/>
<path d="M39 42C41.7614 42 44 39.7614 44 37C44 34.2386 41.7614 32 39 32V42ZM33.4645 33.4645C31.5118 35.4171 31.5118 38.5829 33.4645 40.5355L65.2843 72.3553C67.2369 74.308 70.4027 74.308 72.3553 72.3553C74.308 70.4027 74.308 67.2369 72.3553 65.2843L44.0711 37L72.3553 8.71573C74.308 6.76311 74.308 3.59728 72.3553 1.64466C70.4027 -0.307961 67.2369 -0.307961 65.2843 1.64466L33.4645 33.4645ZM39 32H37V42H39V32Z" fill="white"/>
</svg>
