<svg width="26" height="18" viewBox="0 0 26 18" fill="none" xmlns="http://www.w3.org/2000/svg">
<path d="M12.2854 3.94981V0.959807H0.118408V17.0598H3.84441V11.1948H11.2964V8.20481H3.84441V3.94981H12.2854Z" fill="white"/>
<path d="M19.0142 14.0238L22.7172 10.5278C24.9712 8.43481 25.4082 7.00881 25.4082 5.44481C25.4082 2.52381 23.0162 0.683807 19.4282 0.683807C16.5302 0.683807 14.2762 1.85681 13.0342 3.67381L15.7482 5.42181C16.5302 4.34081 17.7032 3.81181 19.0832 3.81181C20.7852 3.81181 21.6592 4.54781 21.6592 5.81281C21.6592 6.59481 21.4062 7.42281 19.9802 8.77981L13.7702 14.6448V17.0598H25.9372V14.0238H19.0142Z" fill="white"/>
</svg>
