<svg width="56" height="67" viewBox="0 0 56 67" fill="none" xmlns="http://www.w3.org/2000/svg">
<path d="M48.444 1.8C49.5814 1.8 51.1079 2.86688 53.0235 5.00065C54.9989 7.07515 55.9866 8.85329 55.9866 10.3351C55.9866 10.9871 55.6873 11.5501 55.0887 12.0243C54.4901 12.4985 53.652 13.0616 52.5745 13.7135C51.5568 14.3655 50.6888 15.1361 49.9705 16.0251C42.6673 24.9751 37.2198 31.7913 33.628 36.4737C35.0647 39.0224 37.1001 42.5194 39.734 46.9648C42.368 51.4101 44.2536 54.7293 45.391 56.9224C46.5284 59.0561 47.0971 60.7157 47.0971 61.9011C47.0971 63.0273 46.6182 64.0349 45.6604 64.924C44.7624 65.7538 43.7149 66.1687 42.5176 66.1687C39.3449 66.1687 33.8974 59.7674 26.1752 46.9648C22.2243 52.7734 18.7822 57.4262 15.8489 60.9232C12.9157 64.3609 10.5212 66.0798 8.66543 66.0798C6.86956 66.0798 5.04375 65.4278 3.18802 64.1238C1.33229 62.8199 0.404419 61.5752 0.404419 60.3897C0.404419 59.7377 0.554075 59.2636 0.853387 58.9672C1.69146 58.1374 2.23022 57.5447 2.46967 57.1891C7.61784 51.3805 13.3347 44.0308 19.6202 35.1401C16.2081 28.6203 13.3946 22.545 11.1796 16.9142C8.96474 11.2241 7.85729 7.13442 7.85729 4.64502C7.85729 2.09635 8.39605 0.822021 9.47357 0.822021C11.9878 0.822021 14.6217 1.35546 17.3754 2.42235C20.1889 3.42996 21.5957 4.61539 21.5957 5.97863C21.5957 10.2462 23.4514 16.3215 27.1629 24.2046C33.0893 15.0768 37.5191 9.06074 40.4524 6.15644C43.3856 3.25215 46.0495 1.8 48.444 1.8Z" fill="#00B4E4"/>
</svg>
