<svg width="550" height="450" viewBox="0 0 550 450" fill="none" xmlns="http://www.w3.org/2000/svg">
<g clip-path="url(#clip0_24_19242)">
<path d="M550 0H0V450H550V0Z" fill="#B7B6B2"/>
<path d="M42.4441 139.075H28.8924C27.0684 139.075 25.5898 140.553 25.5898 142.377C25.5898 144.201 27.0684 145.68 28.8924 145.68H42.4441C44.268 145.68 45.7466 144.201 45.7466 142.377C45.7466 140.553 44.268 139.075 42.4441 139.075Z" fill="#A3A2A0"/>
<path d="M117.804 27.0601H104.252C102.429 27.0601 100.95 28.5387 100.95 30.3626C100.95 32.1866 102.429 33.6652 104.252 33.6652H117.804C119.628 33.6652 121.107 32.1866 121.107 30.3626C121.107 28.5387 119.628 27.0601 117.804 27.0601Z" fill="#A3A2A0"/>
<path d="M334.272 386.888H320.72C318.896 386.888 317.417 388.367 317.417 390.191C317.417 392.015 318.896 393.493 320.72 393.493H334.272C336.096 393.493 337.574 392.015 337.574 390.191C337.574 388.367 336.096 386.888 334.272 386.888Z" fill="#A3A2A0"/>
<path d="M488.68 20.7975H475.128C473.304 20.7975 471.825 22.2761 471.825 24.1C471.825 25.924 473.304 27.4026 475.128 27.4026H488.68C490.504 27.4026 491.982 25.924 491.982 24.1C491.982 22.2761 490.504 20.7975 488.68 20.7975Z" fill="#A3A2A0"/>
<path d="M477.57 324.1H464.018C462.194 324.1 460.716 325.579 460.716 327.403C460.716 329.226 462.194 330.705 464.018 330.705H477.57C479.394 330.705 480.873 329.226 480.873 327.403C480.873 325.579 479.394 324.1 477.57 324.1Z" fill="#A3A2A0"/>
<path d="M127.712 236.1H114.16C112.336 236.1 110.858 237.579 110.858 239.403C110.858 241.226 112.336 242.705 114.16 242.705H127.712C129.536 242.705 131.014 241.226 131.014 239.403C131.014 237.579 129.536 236.1 127.712 236.1Z" fill="#A3A2A0"/>
<path d="M257.539 309.293H243.987C242.163 309.293 240.685 310.772 240.685 312.596C240.685 314.42 242.163 315.898 243.987 315.898H257.539C259.363 315.898 260.842 314.42 260.842 312.596C260.842 310.772 259.363 309.293 257.539 309.293Z" fill="#A3A2A0"/>
<path d="M131.014 407.075H117.463C115.639 407.075 114.16 408.553 114.16 410.377C114.16 412.201 115.639 413.68 117.463 413.68H131.014C132.838 413.68 134.317 412.201 134.317 410.377C134.317 408.553 132.838 407.075 131.014 407.075Z" fill="#A3A2A0"/>
<path d="M288.862 43.901H275.311C273.487 43.901 272.008 45.3796 272.008 47.2035C272.008 49.0275 273.487 50.5061 275.311 50.5061H288.862C290.686 50.5061 292.165 49.0275 292.165 47.2035C292.165 45.3796 290.686 43.901 288.862 43.901Z" fill="#A3A2A0"/>
<path d="M282.248 177.42H268.696C266.872 177.42 265.393 178.898 265.393 180.722C265.393 182.546 266.872 184.025 268.696 184.025H282.248C284.071 184.025 285.55 182.546 285.55 180.722C285.55 178.898 284.071 177.42 282.248 177.42Z" fill="#A3A2A0"/>
<path d="M57.9294 356.948H44.3777C42.5537 356.948 41.0751 358.426 41.0751 360.25C41.0751 362.074 42.5537 363.553 44.3777 363.553H57.9294C59.7533 363.553 61.2319 362.074 61.2319 360.25C61.2319 358.426 59.7533 356.948 57.9294 356.948Z" fill="#A3A2A0"/>
<path d="M142.365 101.564H128.813C126.989 101.564 125.511 103.043 125.511 104.867C125.511 106.691 126.989 108.169 128.813 108.169H142.365C144.189 108.169 145.668 106.691 145.668 104.867C145.668 103.043 144.189 101.564 142.365 101.564Z" fill="#A3A2A0"/>
<path d="M114.16 262.154C114.16 260.331 112.682 258.852 110.858 258.852C109.034 258.852 107.555 260.331 107.555 262.154C107.555 263.978 109.034 265.457 110.858 265.457C112.682 265.457 114.16 263.978 114.16 262.154Z" fill="#A3A2A0"/>
<path d="M379.16 265.457C379.16 263.633 377.682 262.154 375.858 262.154C374.034 262.154 372.555 263.633 372.555 265.457C372.555 267.281 374.034 268.76 375.858 268.76C377.682 268.76 379.16 267.281 379.16 265.457Z" fill="#A3A2A0"/>
<path d="M402.16 53.8086C402.16 51.9846 400.682 50.506 398.858 50.506C397.034 50.506 395.555 51.9846 395.555 53.8086C395.555 55.6325 397.034 57.1111 398.858 57.1111C400.682 57.1111 402.16 55.6325 402.16 53.8086Z" fill="#A3A2A0"/>
<path d="M51.1534 50.5061C51.1534 48.6822 49.6748 47.2036 47.8509 47.2036C46.0269 47.2036 44.5483 48.6822 44.5483 50.5061C44.5483 52.3301 46.0269 53.8087 47.8509 53.8087C49.6748 53.8087 51.1534 52.3301 51.1534 50.5061Z" fill="#A3A2A0"/>
<path d="M257.368 36.9677C257.368 35.1438 255.89 33.6652 254.066 33.6652C252.242 33.6652 250.763 35.1438 250.763 36.9677C250.763 38.7917 252.242 40.2703 254.066 40.2703C255.89 40.2703 257.368 38.7917 257.368 36.9677Z" fill="#A3A2A0"/>
<path d="M463.629 156.746C463.629 154.922 462.151 153.443 460.327 153.443C458.503 153.443 457.024 154.922 457.024 156.746C457.024 158.57 458.503 160.048 460.327 160.048C462.151 160.048 463.629 158.57 463.629 156.746Z" fill="#A3A2A0"/>
<path d="M354.842 409.213C354.842 407.389 353.363 405.911 351.54 405.911C349.716 405.911 348.237 407.389 348.237 409.213C348.237 411.037 349.716 412.516 351.54 412.516C353.363 412.516 354.842 411.037 354.842 409.213Z" fill="#A3A2A0"/>
<path d="M257.368 160.048C257.368 158.225 255.89 156.746 254.066 156.746C252.242 156.746 250.763 158.225 250.763 160.048C250.763 161.872 252.242 163.351 254.066 163.351C255.89 163.351 257.368 161.872 257.368 160.048Z" fill="#A3A2A0"/>
<path d="M533.65 113.07C533.65 111.246 532.172 109.767 530.348 109.767C528.524 109.767 527.045 111.246 527.045 113.07C527.045 114.893 528.524 116.372 530.348 116.372C532.172 116.372 533.65 114.893 533.65 113.07Z" fill="#A3A2A0"/>
<path d="M495.348 185.129C495.028 185.419 494.628 185.689 494.158 185.959C494.568 185.679 494.958 185.399 495.348 185.129Z" fill="#999895"/>
<path opacity="0.5" d="M458.111 178.655H440.468C439.327 178.655 438.401 179.581 438.401 180.722C438.401 181.864 439.327 182.789 440.468 182.789H458.111C459.252 182.789 460.178 181.864 460.178 180.722C460.178 179.581 459.252 178.655 458.111 178.655Z" fill="#999895"/>
<path d="M185.997 436.438H182.07V448.616H185.997V436.438Z" fill="#6A7680"/>
<path d="M156.022 436.438H152.096V448.616H156.022V436.438Z" fill="#6A7680"/>
<path d="M126.048 436.438H122.121V448.616H126.048V436.438Z" fill="#6A7680"/>
<path d="M96.0791 436.438H92.1526V448.616H96.0791V436.438Z" fill="#6A7680"/>
<path d="M66.1046 436.438H62.1781V448.616H66.1046V436.438Z" fill="#6A7680"/>
<path d="M36.13 436.438H32.2035V448.616H36.13V436.438Z" fill="#6A7680"/>
<path d="M185.997 447.039H0V449.649H185.997V447.039Z" fill="#6A7680"/>
<path d="M185.997 435H0V436.842H185.997V435Z" fill="#6A7680"/>
<path d="M15.7786 436.395H15.3135V447.547H15.7786V436.395Z" fill="#6A7680"/>
<path d="M18.3036 436.395H17.8385V447.547H18.3036V436.395Z" fill="#6A7680"/>
<path d="M20.8227 436.395H20.3575V447.547H20.8227V436.395Z" fill="#6A7680"/>
<path d="M23.3477 436.395H22.8826V447.547H23.3477V436.395Z" fill="#6A7680"/>
<path d="M25.8668 436.395H25.4016V447.547H25.8668V436.395Z" fill="#6A7680"/>
<path d="M28.3918 436.395H27.9267V447.547H28.3918V436.395Z" fill="#6A7680"/>
<path d="M30.9108 436.395H30.4457V447.547H30.9108V436.395Z" fill="#6A7680"/>
<path d="M13.2535 436.395H12.7884V447.547H13.2535V436.395Z" fill="#6A7680"/>
<path d="M10.7345 436.395H10.2694V447.547H10.7345V436.395Z" fill="#6A7680"/>
<path d="M8.2095 436.395H7.74435V447.547H8.2095V436.395Z" fill="#6A7680"/>
<path d="M5.69045 436.395H5.22531V447.547H5.69045V436.395Z" fill="#6A7680"/>
<path d="M45.9585 436.395H45.4933V447.547H45.9585V436.395Z" fill="#6A7680"/>
<path d="M48.4835 436.395H48.0184V447.547H48.4835V436.395Z" fill="#6A7680"/>
<path d="M51.0026 436.395H50.5374V447.547H51.0026V436.395Z" fill="#6A7680"/>
<path d="M53.5276 436.395H53.0625V447.547H53.5276V436.395Z" fill="#6A7680"/>
<path d="M56.0467 436.395H55.5815V447.547H56.0467V436.395Z" fill="#6A7680"/>
<path d="M58.5717 436.395H58.1066V447.547H58.5717V436.395Z" fill="#6A7680"/>
<path d="M61.0907 436.395H60.6256V447.547H61.0907V436.395Z" fill="#6A7680"/>
<path d="M43.4395 436.395H42.9743V447.547H43.4395V436.395Z" fill="#6A7680"/>
<path d="M40.9144 436.395H40.4493V447.547H40.9144V436.395Z" fill="#6A7680"/>
<path d="M38.3954 436.395H37.9302V447.547H38.3954V436.395Z" fill="#6A7680"/>
<path d="M35.8703 436.395H35.4052V447.547H35.8703V436.395Z" fill="#6A7680"/>
<path d="M76.1384 436.395H75.6732V447.547H76.1384V436.395Z" fill="#6A7680"/>
<path d="M78.6634 436.395H78.1983V447.547H78.6634V436.395Z" fill="#6A7680"/>
<path d="M81.1825 436.395H80.7173V447.547H81.1825V436.395Z" fill="#6A7680"/>
<path d="M83.7075 436.395H83.2424V447.547H83.7075V436.395Z" fill="#6A7680"/>
<path d="M86.2265 436.395H85.7614V447.547H86.2265V436.395Z" fill="#6A7680"/>
<path d="M88.7516 436.395H88.2864V447.547H88.7516V436.395Z" fill="#6A7680"/>
<path d="M91.2706 436.395H90.8055V447.547H91.2706V436.395Z" fill="#6A7680"/>
<path d="M73.6194 436.395H73.1542V447.547H73.6194V436.395Z" fill="#6A7680"/>
<path d="M71.0943 436.395H70.6292V447.547H71.0943V436.395Z" fill="#6A7680"/>
<path d="M68.5753 436.395H68.1102V447.547H68.5753V436.395Z" fill="#6A7680"/>
<path d="M66.0502 436.395H65.5851V447.547H66.0502V436.395Z" fill="#6A7680"/>
<path d="M106.318 436.395H105.853V447.547H106.318V436.395Z" fill="#6A7680"/>
<path d="M108.843 436.395H108.378V447.547H108.843V436.395Z" fill="#6A7680"/>
<path d="M111.362 436.395H110.897V447.547H111.362V436.395Z" fill="#6A7680"/>
<path d="M113.887 436.395H113.422V447.547H113.887V436.395Z" fill="#6A7680"/>
<path d="M116.406 436.395H115.941V447.547H116.406V436.395Z" fill="#6A7680"/>
<path d="M118.931 436.395H118.466V447.547H118.931V436.395Z" fill="#6A7680"/>
<path d="M121.457 436.395H120.991V447.547H121.457V436.395Z" fill="#6A7680"/>
<path d="M103.799 436.395H103.334V447.547H103.799V436.395Z" fill="#6A7680"/>
<path d="M101.274 436.395H100.809V447.547H101.274V436.395Z" fill="#6A7680"/>
<path d="M98.7552 436.395H98.29V447.547H98.7552V436.395Z" fill="#6A7680"/>
<path d="M96.2301 436.395H95.765V447.547H96.2301V436.395Z" fill="#6A7680"/>
<path d="M136.498 436.395H136.033V447.547H136.498V436.395Z" fill="#6A7680"/>
<path d="M139.023 436.395H138.558V447.547H139.023V436.395Z" fill="#6A7680"/>
<path d="M141.542 436.395H141.077V447.547H141.542V436.395Z" fill="#6A7680"/>
<path d="M144.067 436.395H143.602V447.547H144.067V436.395Z" fill="#6A7680"/>
<path d="M146.586 436.395H146.121V447.547H146.586V436.395Z" fill="#6A7680"/>
<path d="M149.111 436.395H148.646V447.547H149.111V436.395Z" fill="#6A7680"/>
<path d="M151.636 436.395H151.171V447.547H151.636V436.395Z" fill="#6A7680"/>
<path d="M133.979 436.395H133.514V447.547H133.979V436.395Z" fill="#6A7680"/>
<path d="M131.454 436.395H130.989V447.547H131.454V436.395Z" fill="#6A7680"/>
<path d="M128.935 436.395H128.47V447.547H128.935V436.395Z" fill="#6A7680"/>
<path d="M126.41 436.395H125.945V447.547H126.41V436.395Z" fill="#6A7680"/>
<path d="M166.678 436.395H166.213V447.547H166.678V436.395Z" fill="#6A7680"/>
<path d="M169.203 436.395H168.738V447.547H169.203V436.395Z" fill="#6A7680"/>
<path d="M171.722 436.395H171.257V447.547H171.722V436.395Z" fill="#6A7680"/>
<path d="M174.247 436.395H173.782V447.547H174.247V436.395Z" fill="#6A7680"/>
<path d="M176.772 436.395H176.307V447.547H176.772V436.395Z" fill="#6A7680"/>
<path d="M179.291 436.395H178.826V447.547H179.291V436.395Z" fill="#6A7680"/>
<path d="M181.816 436.395H181.351V447.547H181.816V436.395Z" fill="#6A7680"/>
<path d="M164.159 436.395H163.694V447.547H164.159V436.395Z" fill="#6A7680"/>
<path d="M161.634 436.395H161.169V447.547H161.634V436.395Z" fill="#6A7680"/>
<path d="M159.115 436.395H158.65V447.547H159.115V436.395Z" fill="#6A7680"/>
<path d="M156.59 436.395H156.125V447.547H156.59V436.395Z" fill="#6A7680"/>
<path d="M63.5977 448.078V446.339L35.0609 436.039V437.779L63.5977 448.078Z" fill="#6A7680"/>
<path d="M32.4573 448.078V446.339L3.92651 436.039V437.779L32.4573 448.078Z" fill="#6A7680"/>
<path d="M93.1674 448.078V446.339L64.6306 436.039V437.779L93.1674 448.078Z" fill="#6A7680"/>
<path d="M122.737 448.078V446.339L94.2004 436.039V437.779L122.737 448.078Z" fill="#6A7680"/>
<path d="M153.201 448.078V446.339L124.664 436.039V437.779L153.201 448.078Z" fill="#6A7680"/>
<path d="M182.952 448.078V446.339L154.415 436.039V437.779L182.952 448.078Z" fill="#6A7680"/>
<path d="M34.3903 446.773C33.9252 446.773 33.5507 447.148 33.5507 447.607C33.5507 448.066 33.9252 448.441 34.3903 448.441C34.8494 448.441 35.224 448.066 35.224 447.607C35.23 447.148 34.8555 446.773 34.3903 446.773Z" fill="#F7DCC4"/>
<path d="M34.3903 435.604C33.9252 435.604 33.5507 435.979 33.5507 436.438C33.5507 436.897 33.9252 437.271 34.3903 437.271C34.8494 437.271 35.224 436.897 35.224 436.438C35.23 435.979 34.8555 435.604 34.3903 435.604Z" fill="#F7DCC4"/>
<path d="M3.92653 436.438H0V448.616H3.92653V436.438Z" fill="#6A7680"/>
<path d="M2.18678 446.773C1.72164 446.773 1.34711 447.148 1.34711 447.607C1.34711 448.066 1.72164 448.441 2.18678 448.441C2.64588 448.441 3.02041 448.066 3.02041 447.607C3.02041 447.148 2.64588 446.773 2.18678 446.773Z" fill="#F7DCC4"/>
<path d="M64.2319 446.773C63.7728 446.773 63.3983 447.148 63.3983 447.607C63.3983 448.066 63.7728 448.441 64.2319 448.441C64.691 448.441 65.0656 448.066 65.0656 447.607C65.0656 447.148 64.691 446.773 64.2319 446.773Z" fill="#F7DCC4"/>
<path d="M64.2319 435.604C63.7728 435.604 63.3983 435.979 63.3983 436.438C63.3983 436.897 63.7728 437.271 64.2319 437.271C64.691 437.271 65.0656 436.897 65.0656 436.438C65.0656 435.979 64.691 435.604 64.2319 435.604Z" fill="#F7DCC4"/>
<path d="M94.2004 446.773C93.7413 446.773 93.3668 447.148 93.3668 447.607C93.3668 448.066 93.7413 448.441 94.2004 448.441C94.6595 448.441 95.0341 448.066 95.0341 447.607C95.0401 447.148 94.6656 446.773 94.2004 446.773Z" fill="#F7DCC4"/>
<path d="M94.2004 435.604C93.7413 435.604 93.3668 435.979 93.3668 436.438C93.3668 436.897 93.7413 437.271 94.2004 437.271C94.6595 437.271 95.0341 436.897 95.0341 436.438C95.0401 435.979 94.6656 435.604 94.2004 435.604Z" fill="#F7DCC4"/>
<path d="M124 446.773C123.541 446.773 123.166 447.148 123.166 447.607C123.166 448.066 123.541 448.441 124 448.441C124.459 448.441 124.833 448.066 124.833 447.607C124.833 447.148 124.459 446.773 124 446.773Z" fill="#F7DCC4"/>
<path d="M124 435.604C123.541 435.604 123.166 435.979 123.166 436.438C123.166 436.897 123.541 437.271 124 437.271C124.459 437.271 124.833 436.897 124.833 436.438C124.833 435.979 124.459 435.604 124 435.604Z" fill="#F7DCC4"/>
<path d="M154.415 446.773C153.95 446.773 153.582 447.148 153.582 447.607C153.582 448.066 153.956 448.441 154.415 448.441C154.874 448.441 155.249 448.066 155.249 447.607C155.255 447.148 154.88 446.773 154.415 446.773Z" fill="#F7DCC4"/>
<path d="M154.415 435.604C153.95 435.604 153.582 435.979 153.582 436.438C153.582 436.897 153.956 437.271 154.415 437.271C154.874 437.271 155.249 436.897 155.249 436.438C155.255 435.979 154.88 435.604 154.415 435.604Z" fill="#F7DCC4"/>
<path d="M184.033 446.773C183.574 446.773 183.2 447.148 183.2 447.607C183.2 448.066 183.574 448.441 184.033 448.441C184.498 448.441 184.867 448.066 184.867 447.607C184.867 447.148 184.492 446.773 184.033 446.773Z" fill="#F7DCC4"/>
<path d="M184.033 435.604C183.574 435.604 183.2 435.979 183.2 436.438C183.2 436.897 183.574 437.271 184.033 437.271C184.498 437.271 184.867 436.897 184.867 436.438C184.867 435.979 184.492 435.604 184.033 435.604Z" fill="#F7DCC4"/>
<path d="M367.825 436.438H363.898V448.616H367.825V436.438Z" fill="#6A7680"/>
<path d="M337.85 436.438H333.924V448.616H337.85V436.438Z" fill="#6A7680"/>
<path d="M307.876 436.438H303.949V448.616H307.876V436.438Z" fill="#6A7680"/>
<path d="M277.908 436.438H273.981V448.616H277.908V436.438Z" fill="#6A7680"/>
<path d="M247.933 436.438H244.006V448.616H247.933V436.438Z" fill="#6A7680"/>
<path d="M217.959 436.438H214.032V448.616H217.959V436.438Z" fill="#6A7680"/>
<path d="M367.825 447.039H181.828V449.649H367.825V447.039Z" fill="#6A7680"/>
<path d="M367.825 435H181.828V436.842H367.825V435Z" fill="#6A7680"/>
<path d="M197.607 436.395H197.142V447.547H197.607V436.395Z" fill="#6A7680"/>
<path d="M200.132 436.395H199.667V447.547H200.132V436.395Z" fill="#6A7680"/>
<path d="M202.651 436.395H202.186V447.547H202.651V436.395Z" fill="#6A7680"/>
<path d="M205.176 436.395H204.711V447.547H205.176V436.395Z" fill="#6A7680"/>
<path d="M207.695 436.395H207.23V447.547H207.695V436.395Z" fill="#6A7680"/>
<path d="M210.22 436.395H209.755V447.547H210.22V436.395Z" fill="#6A7680"/>
<path d="M212.739 436.395H212.274V447.547H212.739V436.395Z" fill="#6A7680"/>
<path d="M195.082 436.395H194.617V447.547H195.082V436.395Z" fill="#6A7680"/>
<path d="M192.563 436.395H192.098V447.547H192.563V436.395Z" fill="#6A7680"/>
<path d="M190.038 436.395H189.573V447.547H190.038V436.395Z" fill="#6A7680"/>
<path d="M187.519 436.395H187.054V447.547H187.519V436.395Z" fill="#6A7680"/>
<path d="M227.787 436.395H227.322V447.547H227.787V436.395Z" fill="#6A7680"/>
<path d="M230.312 436.395H229.847V447.547H230.312V436.395Z" fill="#6A7680"/>
<path d="M232.831 436.395H232.366V447.547H232.831V436.395Z" fill="#6A7680"/>
<path d="M235.356 436.395H234.891V447.547H235.356V436.395Z" fill="#6A7680"/>
<path d="M237.875 436.395H237.41V447.547H237.875V436.395Z" fill="#6A7680"/>
<path d="M240.4 436.395H239.935V447.547H240.4V436.395Z" fill="#6A7680"/>
<path d="M242.919 436.395H242.454V447.547H242.919V436.395Z" fill="#6A7680"/>
<path d="M225.268 436.395H224.803V447.547H225.268V436.395Z" fill="#6A7680"/>
<path d="M222.743 436.395H222.278V447.547H222.743V436.395Z" fill="#6A7680"/>
<path d="M220.224 436.395H219.759V447.547H220.224V436.395Z" fill="#6A7680"/>
<path d="M217.699 436.395H217.234V447.547H217.699V436.395Z" fill="#6A7680"/>
<path d="M257.967 436.395H257.502V447.547H257.967V436.395Z" fill="#6A7680"/>
<path d="M260.492 436.395H260.027V447.547H260.492V436.395Z" fill="#6A7680"/>
<path d="M263.011 436.395H262.546V447.547H263.011V436.395Z" fill="#6A7680"/>
<path d="M265.536 436.395H265.071V447.547H265.536V436.395Z" fill="#6A7680"/>
<path d="M268.055 436.395H267.59V447.547H268.055V436.395Z" fill="#6A7680"/>
<path d="M270.58 436.395H270.115V447.547H270.58V436.395Z" fill="#6A7680"/>
<path d="M273.099 436.395H272.634V447.547H273.099V436.395Z" fill="#6A7680"/>
<path d="M255.448 436.395H254.983V447.547H255.448V436.395Z" fill="#6A7680"/>
<path d="M252.923 436.395H252.458V447.547H252.923V436.395Z" fill="#6A7680"/>
<path d="M250.404 436.395H249.939V447.547H250.404V436.395Z" fill="#6A7680"/>
<path d="M247.879 436.395H247.413V447.547H247.879V436.395Z" fill="#6A7680"/>
<path d="M288.147 436.395H287.682V447.547H288.147V436.395Z" fill="#6A7680"/>
<path d="M290.672 436.395H290.207V447.547H290.672V436.395Z" fill="#6A7680"/>
<path d="M293.191 436.395H292.726V447.547H293.191V436.395Z" fill="#6A7680"/>
<path d="M295.716 436.395H295.251V447.547H295.716V436.395Z" fill="#6A7680"/>
<path d="M298.235 436.395H297.77V447.547H298.235V436.395Z" fill="#6A7680"/>
<path d="M300.76 436.395H300.295V447.547H300.76V436.395Z" fill="#6A7680"/>
<path d="M303.285 436.395H302.82V447.547H303.285V436.395Z" fill="#6A7680"/>
<path d="M285.628 436.395H285.163V447.547H285.628V436.395Z" fill="#6A7680"/>
<path d="M283.103 436.395H282.637V447.547H283.103V436.395Z" fill="#6A7680"/>
<path d="M280.584 436.395H280.118V447.547H280.584V436.395Z" fill="#6A7680"/>
<path d="M278.059 436.395H277.593V447.547H278.059V436.395Z" fill="#6A7680"/>
<path d="M318.327 436.395H317.861V447.547H318.327V436.395Z" fill="#6A7680"/>
<path d="M320.852 436.395H320.386V447.547H320.852V436.395Z" fill="#6A7680"/>
<path d="M323.371 436.395H322.906V447.547H323.371V436.395Z" fill="#6A7680"/>
<path d="M325.896 436.395H325.431V447.547H325.896V436.395Z" fill="#6A7680"/>
<path d="M328.415 436.395H327.95V447.547H328.415V436.395Z" fill="#6A7680"/>
<path d="M330.94 436.395H330.475V447.547H330.94V436.395Z" fill="#6A7680"/>
<path d="M333.465 436.395H333V447.547H333.465V436.395Z" fill="#6A7680"/>
<path d="M315.808 436.395H315.342V447.547H315.808V436.395Z" fill="#6A7680"/>
<path d="M313.283 436.395H312.817V447.547H313.283V436.395Z" fill="#6A7680"/>
<path d="M310.763 436.395H310.298V447.547H310.763V436.395Z" fill="#6A7680"/>
<path d="M308.238 436.395H307.773V447.547H308.238V436.395Z" fill="#6A7680"/>
<path d="M348.506 436.395H348.041V447.547H348.506V436.395Z" fill="#6A7680"/>
<path d="M351.032 436.395H350.566V447.547H351.032V436.395Z" fill="#6A7680"/>
<path d="M353.551 436.395H353.085V447.547H353.551V436.395Z" fill="#6A7680"/>
<path d="M356.076 436.395H355.61V447.547H356.076V436.395Z" fill="#6A7680"/>
<path d="M358.601 436.395H358.136V447.547H358.601V436.395Z" fill="#6A7680"/>
<path d="M361.12 436.395H360.655V447.547H361.12V436.395Z" fill="#6A7680"/>
<path d="M363.645 436.395H363.18V447.547H363.645V436.395Z" fill="#6A7680"/>
<path d="M345.987 436.395H345.522V447.547H345.987V436.395Z" fill="#6A7680"/>
<path d="M343.462 436.395H342.997V447.547H343.462V436.395Z" fill="#6A7680"/>
<path d="M340.943 436.395H340.478V447.547H340.943V436.395Z" fill="#6A7680"/>
<path d="M338.418 436.395H337.953V447.547H338.418V436.395Z" fill="#6A7680"/>
<path d="M245.426 448.078V446.339L216.889 436.039V437.779L245.426 448.078Z" fill="#6A7680"/>
<path d="M214.286 448.078V446.339L185.755 436.039V437.779L214.286 448.078Z" fill="#6A7680"/>
<path d="M274.996 448.078V446.339L246.459 436.039V437.779L274.996 448.078Z" fill="#6A7680"/>
<path d="M304.566 448.078V446.339L276.029 436.039V437.779L304.566 448.078Z" fill="#6A7680"/>
<path d="M335.029 448.078V446.339L306.493 436.039V437.779L335.029 448.078Z" fill="#6A7680"/>
<path d="M364.78 448.078V446.339L336.244 436.039V437.779L364.78 448.078Z" fill="#6A7680"/>
<path d="M216.219 446.773C215.754 446.773 215.379 447.148 215.379 447.607C215.379 448.066 215.754 448.441 216.219 448.441C216.678 448.441 217.052 448.066 217.052 447.607C217.058 447.148 216.684 446.773 216.219 446.773Z" fill="#F7DCC4"/>
<path d="M216.219 435.604C215.754 435.604 215.379 435.979 215.379 436.438C215.379 436.897 215.754 437.271 216.219 437.271C216.678 437.271 217.052 436.897 217.052 436.438C217.058 435.979 216.684 435.604 216.219 435.604Z" fill="#F7DCC4"/>
<path d="M185.755 436.438H181.828V448.616H185.755V436.438Z" fill="#6A7680"/>
<path d="M184.015 446.773C183.55 446.773 183.176 447.148 183.176 447.607C183.176 448.066 183.55 448.441 184.015 448.441C184.474 448.441 184.849 448.066 184.849 447.607C184.849 447.148 184.474 446.773 184.015 446.773Z" fill="#F7DCC4"/>
<path d="M184.015 435.604C183.55 435.604 183.176 435.979 183.176 436.438C183.176 436.897 183.55 437.271 184.015 437.271C184.474 437.271 184.849 436.897 184.849 436.438C184.849 435.979 184.474 435.604 184.015 435.604Z" fill="#F7DCC4"/>
<path d="M246.06 446.773C245.601 446.773 245.227 447.148 245.227 447.607C245.227 448.066 245.601 448.441 246.06 448.441C246.519 448.441 246.894 448.066 246.894 447.607C246.894 447.148 246.519 446.773 246.06 446.773Z" fill="#F7DCC4"/>
<path d="M246.06 435.604C245.601 435.604 245.227 435.979 245.227 436.438C245.227 436.897 245.601 437.271 246.06 437.271C246.519 437.271 246.894 436.897 246.894 436.438C246.894 435.979 246.519 435.604 246.06 435.604Z" fill="#F7DCC4"/>
<path d="M276.029 446.773C275.57 446.773 275.195 447.148 275.195 447.607C275.195 448.066 275.57 448.441 276.029 448.441C276.488 448.441 276.862 448.066 276.862 447.607C276.869 447.148 276.494 446.773 276.029 446.773Z" fill="#F7DCC4"/>
<path d="M276.029 435.604C275.57 435.604 275.195 435.979 275.195 436.438C275.195 436.897 275.57 437.271 276.029 437.271C276.488 437.271 276.862 436.897 276.862 436.438C276.869 435.979 276.494 435.604 276.029 435.604Z" fill="#F7DCC4"/>
<path d="M305.828 446.773C305.369 446.773 304.995 447.148 304.995 447.607C304.995 448.066 305.369 448.441 305.828 448.441C306.287 448.441 306.662 448.066 306.662 447.607C306.662 447.148 306.287 446.773 305.828 446.773Z" fill="#F7DCC4"/>
<path d="M305.828 435.604C305.369 435.604 304.995 435.979 304.995 436.438C304.995 436.897 305.369 437.271 305.828 437.271C306.287 437.271 306.662 436.897 306.662 436.438C306.662 435.979 306.287 435.604 305.828 435.604Z" fill="#F7DCC4"/>
<path d="M336.244 446.773C335.778 446.773 335.41 447.148 335.41 447.607C335.41 448.066 335.785 448.441 336.244 448.441C336.703 448.441 337.077 448.066 337.077 447.607C337.083 447.148 336.709 446.773 336.244 446.773Z" fill="#F7DCC4"/>
<path d="M336.244 435.604C335.778 435.604 335.41 435.979 335.41 436.438C335.41 436.897 335.785 437.271 336.244 437.271C336.703 437.271 337.077 436.897 337.077 436.438C337.083 435.979 336.709 435.604 336.244 435.604Z" fill="#F7DCC4"/>
<path d="M365.862 446.773C365.403 446.773 365.028 447.148 365.028 447.607C365.028 448.066 365.403 448.441 365.862 448.441C366.327 448.441 366.695 448.066 366.695 447.607C366.695 447.148 366.321 446.773 365.862 446.773Z" fill="#F7DCC4"/>
<path d="M365.862 435.604C365.403 435.604 365.028 435.979 365.028 436.438C365.028 436.897 365.403 437.271 365.862 437.271C366.327 437.271 366.695 436.897 366.695 436.438C366.695 435.979 366.321 435.604 365.862 435.604Z" fill="#F7DCC4"/>
<path d="M550 436.438H546.073V448.616H550V436.438Z" fill="#6A7680"/>
<path d="M520.025 436.438H516.099V448.616H520.025V436.438Z" fill="#6A7680"/>
<path d="M490.051 436.438H486.124V448.616H490.051V436.438Z" fill="#6A7680"/>
<path d="M460.083 436.438H456.156V448.616H460.083V436.438Z" fill="#6A7680"/>
<path d="M430.108 436.438H426.181V448.616H430.108V436.438Z" fill="#6A7680"/>
<path d="M400.134 436.438H396.207V448.616H400.134V436.438Z" fill="#6A7680"/>
<path d="M550 447.039H364.003V449.649H550V447.039Z" fill="#6A7680"/>
<path d="M550 435H364.003V436.842H550V435Z" fill="#6A7680"/>
<path d="M379.782 436.395H379.317V447.547H379.782V436.395Z" fill="#6A7680"/>
<path d="M382.307 436.395H381.842V447.547H382.307V436.395Z" fill="#6A7680"/>
<path d="M384.826 436.395H384.361V447.547H384.826V436.395Z" fill="#6A7680"/>
<path d="M387.351 436.395H386.886V447.547H387.351V436.395Z" fill="#6A7680"/>
<path d="M389.87 436.395H389.405V447.547H389.87V436.395Z" fill="#6A7680"/>
<path d="M392.395 436.395H391.93V447.547H392.395V436.395Z" fill="#6A7680"/>
<path d="M394.914 436.395H394.449V447.547H394.914V436.395Z" fill="#6A7680"/>
<path d="M377.257 436.395H376.792V447.547H377.257V436.395Z" fill="#6A7680"/>
<path d="M374.738 436.395H374.273V447.547H374.738V436.395Z" fill="#6A7680"/>
<path d="M372.213 436.395H371.748V447.547H372.213V436.395Z" fill="#6A7680"/>
<path d="M369.694 436.395H369.229V447.547H369.694V436.395Z" fill="#6A7680"/>
<path d="M409.962 436.395H409.497V447.547H409.962V436.395Z" fill="#6A7680"/>
<path d="M412.487 436.395H412.022V447.547H412.487V436.395Z" fill="#6A7680"/>
<path d="M415.006 436.395H414.541V447.547H415.006V436.395Z" fill="#6A7680"/>
<path d="M417.531 436.395H417.066V447.547H417.531V436.395Z" fill="#6A7680"/>
<path d="M420.05 436.395H419.585V447.547H420.05V436.395Z" fill="#6A7680"/>
<path d="M422.575 436.395H422.11V447.547H422.575V436.395Z" fill="#6A7680"/>
<path d="M425.094 436.395H424.629V447.547H425.094V436.395Z" fill="#6A7680"/>
<path d="M407.443 436.395H406.978V447.547H407.443V436.395Z" fill="#6A7680"/>
<path d="M404.918 436.395H404.453V447.547H404.918V436.395Z" fill="#6A7680"/>
<path d="M402.399 436.395H401.934V447.547H402.399V436.395Z" fill="#6A7680"/>
<path d="M399.874 436.395H399.409V447.547H399.874V436.395Z" fill="#6A7680"/>
<path d="M440.142 436.395H439.677V447.547H440.142V436.395Z" fill="#6A7680"/>
<path d="M442.667 436.395H442.202V447.547H442.667V436.395Z" fill="#6A7680"/>
<path d="M445.186 436.395H444.721V447.547H445.186V436.395Z" fill="#6A7680"/>
<path d="M447.711 436.395H447.246V447.547H447.711V436.395Z" fill="#6A7680"/>
<path d="M450.23 436.395H449.765V447.547H450.23V436.395Z" fill="#6A7680"/>
<path d="M452.755 436.395H452.29V447.547H452.755V436.395Z" fill="#6A7680"/>
<path d="M455.274 436.395H454.809V447.547H455.274V436.395Z" fill="#6A7680"/>
<path d="M437.623 436.395H437.158V447.547H437.623V436.395Z" fill="#6A7680"/>
<path d="M435.098 436.395H434.633V447.547H435.098V436.395Z" fill="#6A7680"/>
<path d="M432.579 436.395H432.114V447.547H432.579V436.395Z" fill="#6A7680"/>
<path d="M430.054 436.395H429.589V447.547H430.054V436.395Z" fill="#6A7680"/>
<path d="M470.322 436.395H469.857V447.547H470.322V436.395Z" fill="#6A7680"/>
<path d="M472.847 436.395H472.382V447.547H472.847V436.395Z" fill="#6A7680"/>
<path d="M475.366 436.395H474.901V447.547H475.366V436.395Z" fill="#6A7680"/>
<path d="M477.891 436.395H477.426V447.547H477.891V436.395Z" fill="#6A7680"/>
<path d="M480.41 436.395H479.945V447.547H480.41V436.395Z" fill="#6A7680"/>
<path d="M482.935 436.395H482.47V447.547H482.935V436.395Z" fill="#6A7680"/>
<path d="M485.46 436.395H484.995V447.547H485.46V436.395Z" fill="#6A7680"/>
<path d="M467.803 436.395H467.338V447.547H467.803V436.395Z" fill="#6A7680"/>
<path d="M465.278 436.395H464.812V447.547H465.278V436.395Z" fill="#6A7680"/>
<path d="M462.759 436.395H462.293V447.547H462.759V436.395Z" fill="#6A7680"/>
<path d="M460.234 436.395H459.768V447.547H460.234V436.395Z" fill="#6A7680"/>
<path d="M500.502 436.395H500.036V447.547H500.502V436.395Z" fill="#6A7680"/>
<path d="M503.027 436.395H502.562V447.547H503.027V436.395Z" fill="#6A7680"/>
<path d="M505.546 436.395H505.081V447.547H505.546V436.395Z" fill="#6A7680"/>
<path d="M508.071 436.395H507.606V447.547H508.071V436.395Z" fill="#6A7680"/>
<path d="M510.59 436.395H510.125V447.547H510.59V436.395Z" fill="#6A7680"/>
<path d="M513.115 436.395H512.65V447.547H513.115V436.395Z" fill="#6A7680"/>
<path d="M515.64 436.395H515.175V447.547H515.64V436.395Z" fill="#6A7680"/>
<path d="M497.983 436.395H497.517V447.547H497.983V436.395Z" fill="#6A7680"/>
<path d="M495.457 436.395H494.992V447.547H495.457V436.395Z" fill="#6A7680"/>
<path d="M492.939 436.395H492.473V447.547H492.939V436.395Z" fill="#6A7680"/>
<path d="M490.413 436.395H489.948V447.547H490.413V436.395Z" fill="#6A7680"/>
<path d="M530.681 436.395H530.216V447.547H530.681V436.395Z" fill="#6A7680"/>
<path d="M533.207 436.395H532.741V447.547H533.207V436.395Z" fill="#6A7680"/>
<path d="M535.726 436.395H535.26V447.547H535.726V436.395Z" fill="#6A7680"/>
<path d="M538.251 436.395H537.785V447.547H538.251V436.395Z" fill="#6A7680"/>
<path d="M540.776 436.395H540.311V447.547H540.776V436.395Z" fill="#6A7680"/>
<path d="M543.295 436.395H542.83V447.547H543.295V436.395Z" fill="#6A7680"/>
<path d="M545.82 436.395H545.355V447.547H545.82V436.395Z" fill="#6A7680"/>
<path d="M528.162 436.395H527.697V447.547H528.162V436.395Z" fill="#6A7680"/>
<path d="M525.637 436.395H525.172V447.547H525.637V436.395Z" fill="#6A7680"/>
<path d="M523.118 436.395H522.653V447.547H523.118V436.395Z" fill="#6A7680"/>
<path d="M520.593 436.395H520.128V447.547H520.593V436.395Z" fill="#6A7680"/>
<path d="M427.601 448.078V446.339L399.064 436.039V437.779L427.601 448.078Z" fill="#6A7680"/>
<path d="M396.461 448.078V446.339L367.93 436.039V437.779L396.461 448.078Z" fill="#6A7680"/>
<path d="M457.171 448.078V446.339L428.634 436.039V437.779L457.171 448.078Z" fill="#6A7680"/>
<path d="M486.741 448.078V446.339L458.204 436.039V437.779L486.741 448.078Z" fill="#6A7680"/>
<path d="M517.204 448.078V446.339L488.668 436.039V437.779L517.204 448.078Z" fill="#6A7680"/>
<path d="M546.955 448.078V446.339L518.419 436.039V437.779L546.955 448.078Z" fill="#6A7680"/>
<path d="M398.394 446.773C397.929 446.773 397.554 447.148 397.554 447.607C397.554 448.066 397.929 448.441 398.394 448.441C398.853 448.441 399.227 448.066 399.227 447.607C399.233 447.148 398.859 446.773 398.394 446.773Z" fill="#F7DCC4"/>
<path d="M398.394 435.604C397.929 435.604 397.554 435.979 397.554 436.438C397.554 436.897 397.929 437.271 398.394 437.271C398.853 437.271 399.227 436.897 399.227 436.438C399.233 435.979 398.859 435.604 398.394 435.604Z" fill="#F7DCC4"/>
<path d="M367.93 436.438H364.003V448.616H367.93V436.438Z" fill="#6A7680"/>
<path d="M366.19 446.773C365.725 446.773 365.351 447.148 365.351 447.607C365.351 448.066 365.725 448.441 366.19 448.441C366.649 448.441 367.024 448.066 367.024 447.607C367.024 447.148 366.649 446.773 366.19 446.773Z" fill="#F7DCC4"/>
<path d="M366.19 435.604C365.725 435.604 365.351 435.979 365.351 436.438C365.351 436.897 365.725 437.271 366.19 437.271C366.649 437.271 367.024 436.897 367.024 436.438C367.024 435.979 366.649 435.604 366.19 435.604Z" fill="#F7DCC4"/>
<path d="M428.235 446.773C427.776 446.773 427.402 447.148 427.402 447.607C427.402 448.066 427.776 448.441 428.235 448.441C428.694 448.441 429.069 448.066 429.069 447.607C429.069 447.148 428.694 446.773 428.235 446.773Z" fill="#F7DCC4"/>
<path d="M428.235 435.604C427.776 435.604 427.402 435.979 427.402 436.438C427.402 436.897 427.776 437.271 428.235 437.271C428.694 437.271 429.069 436.897 429.069 436.438C429.069 435.979 428.694 435.604 428.235 435.604Z" fill="#F7DCC4"/>
<path d="M458.204 446.773C457.745 446.773 457.37 447.148 457.37 447.607C457.37 448.066 457.745 448.441 458.204 448.441C458.663 448.441 459.037 448.066 459.037 447.607C459.043 447.148 458.669 446.773 458.204 446.773Z" fill="#F7DCC4"/>
<path d="M458.204 435.604C457.745 435.604 457.37 435.979 457.37 436.438C457.37 436.897 457.745 437.271 458.204 437.271C458.663 437.271 459.037 436.897 459.037 436.438C459.043 435.979 458.669 435.604 458.204 435.604Z" fill="#F7DCC4"/>
<path d="M488.003 446.773C487.544 446.773 487.17 447.148 487.17 447.607C487.17 448.066 487.544 448.441 488.003 448.441C488.462 448.441 488.837 448.066 488.837 447.607C488.837 447.148 488.462 446.773 488.003 446.773Z" fill="#F7DCC4"/>
<path d="M488.003 435.604C487.544 435.604 487.17 435.979 487.17 436.438C487.17 436.897 487.544 437.271 488.003 437.271C488.462 437.271 488.837 436.897 488.837 436.438C488.837 435.979 488.462 435.604 488.003 435.604Z" fill="#F7DCC4"/>
<path d="M518.419 446.773C517.953 446.773 517.585 447.148 517.585 447.607C517.585 448.066 517.96 448.441 518.419 448.441C518.878 448.441 519.252 448.066 519.252 447.607C519.258 447.148 518.884 446.773 518.419 446.773Z" fill="#F7DCC4"/>
<path d="M518.419 435.604C517.953 435.604 517.585 435.979 517.585 436.438C517.585 436.897 517.96 437.271 518.419 437.271C518.878 437.271 519.252 436.897 519.252 436.438C519.258 435.979 518.884 435.604 518.419 435.604Z" fill="#F7DCC4"/>
<path d="M548.037 446.773C547.578 446.773 547.203 447.148 547.203 447.607C547.203 448.066 547.578 448.441 548.037 448.441C548.502 448.441 548.87 448.066 548.87 447.607C548.87 447.148 548.496 446.773 548.037 446.773Z" fill="#F7DCC4"/>
<path d="M185.997 1.43774H182.07V13.616H185.997V1.43774Z" fill="#6A7680"/>
<path d="M156.022 1.43774H152.096V13.616H156.022V1.43774Z" fill="#6A7680"/>
<path d="M126.048 1.43774H122.121V13.616H126.048V1.43774Z" fill="#6A7680"/>
<path d="M96.0791 1.43774H92.1526V13.616H96.0791V1.43774Z" fill="#6A7680"/>
<path d="M66.1046 1.43774H62.1781V13.616H66.1046V1.43774Z" fill="#6A7680"/>
<path d="M36.13 1.43774H32.2035V13.616H36.13V1.43774Z" fill="#6A7680"/>
<path d="M185.997 12.0393H0V14.6489H185.997V12.0393Z" fill="#6A7680"/>
<path d="M185.997 0H0V1.84245H185.997V0Z" fill="#6A7680"/>
<path d="M15.7786 1.39539H15.3135V12.5467H15.7786V1.39539Z" fill="#6A7680"/>
<path d="M18.3036 1.39539H17.8385V12.5467H18.3036V1.39539Z" fill="#6A7680"/>
<path d="M20.8227 1.39539H20.3575V12.5467H20.8227V1.39539Z" fill="#6A7680"/>
<path d="M23.3477 1.39539H22.8826V12.5467H23.3477V1.39539Z" fill="#6A7680"/>
<path d="M25.8668 1.39539H25.4016V12.5467H25.8668V1.39539Z" fill="#6A7680"/>
<path d="M28.3918 1.39539H27.9267V12.5467H28.3918V1.39539Z" fill="#6A7680"/>
<path d="M30.9108 1.39539H30.4457V12.5467H30.9108V1.39539Z" fill="#6A7680"/>
<path d="M13.2535 1.39539H12.7884V12.5467H13.2535V1.39539Z" fill="#6A7680"/>
<path d="M10.7345 1.39539H10.2694V12.5467H10.7345V1.39539Z" fill="#6A7680"/>
<path d="M8.2095 1.39539H7.74435V12.5467H8.2095V1.39539Z" fill="#6A7680"/>
<path d="M5.69045 1.39539H5.22531V12.5467H5.69045V1.39539Z" fill="#6A7680"/>
<path d="M45.9585 1.39539H45.4933V12.5467H45.9585V1.39539Z" fill="#6A7680"/>
<path d="M48.4835 1.39539H48.0184V12.5467H48.4835V1.39539Z" fill="#6A7680"/>
<path d="M51.0026 1.39539H50.5374V12.5467H51.0026V1.39539Z" fill="#6A7680"/>
<path d="M53.5276 1.39539H53.0625V12.5467H53.5276V1.39539Z" fill="#6A7680"/>
<path d="M56.0467 1.39539H55.5815V12.5467H56.0467V1.39539Z" fill="#6A7680"/>
<path d="M58.5717 1.39539H58.1066V12.5467H58.5717V1.39539Z" fill="#6A7680"/>
<path d="M61.0907 1.39539H60.6256V12.5467H61.0907V1.39539Z" fill="#6A7680"/>
<path d="M43.4395 1.39539H42.9743V12.5467H43.4395V1.39539Z" fill="#6A7680"/>
<path d="M40.9144 1.39539H40.4493V12.5467H40.9144V1.39539Z" fill="#6A7680"/>
<path d="M38.3954 1.39539H37.9302V12.5467H38.3954V1.39539Z" fill="#6A7680"/>
<path d="M35.8703 1.39539H35.4052V12.5467H35.8703V1.39539Z" fill="#6A7680"/>
<path d="M76.1384 1.39539H75.6732V12.5467H76.1384V1.39539Z" fill="#6A7680"/>
<path d="M78.6634 1.39539H78.1983V12.5467H78.6634V1.39539Z" fill="#6A7680"/>
<path d="M81.1825 1.39539H80.7173V12.5467H81.1825V1.39539Z" fill="#6A7680"/>
<path d="M83.7075 1.39539H83.2424V12.5467H83.7075V1.39539Z" fill="#6A7680"/>
<path d="M86.2265 1.39539H85.7614V12.5467H86.2265V1.39539Z" fill="#6A7680"/>
<path d="M88.7516 1.39539H88.2864V12.5467H88.7516V1.39539Z" fill="#6A7680"/>
<path d="M91.2706 1.39539H90.8055V12.5467H91.2706V1.39539Z" fill="#6A7680"/>
<path d="M73.6194 1.39539H73.1542V12.5467H73.6194V1.39539Z" fill="#6A7680"/>
<path d="M71.0943 1.39539H70.6292V12.5467H71.0943V1.39539Z" fill="#6A7680"/>
<path d="M68.5753 1.39539H68.1102V12.5467H68.5753V1.39539Z" fill="#6A7680"/>
<path d="M66.0502 1.39539H65.5851V12.5467H66.0502V1.39539Z" fill="#6A7680"/>
<path d="M106.318 1.39539H105.853V12.5467H106.318V1.39539Z" fill="#6A7680"/>
<path d="M108.843 1.39539H108.378V12.5467H108.843V1.39539Z" fill="#6A7680"/>
<path d="M111.362 1.39539H110.897V12.5467H111.362V1.39539Z" fill="#6A7680"/>
<path d="M113.887 1.39539H113.422V12.5467H113.887V1.39539Z" fill="#6A7680"/>
<path d="M116.406 1.39539H115.941V12.5467H116.406V1.39539Z" fill="#6A7680"/>
<path d="M118.931 1.39539H118.466V12.5467H118.931V1.39539Z" fill="#6A7680"/>
<path d="M121.457 1.39539H120.991V12.5467H121.457V1.39539Z" fill="#6A7680"/>
<path d="M103.799 1.39539H103.334V12.5467H103.799V1.39539Z" fill="#6A7680"/>
<path d="M101.274 1.39539H100.809V12.5467H101.274V1.39539Z" fill="#6A7680"/>
<path d="M98.7552 1.39539H98.29V12.5467H98.7552V1.39539Z" fill="#6A7680"/>
<path d="M96.2301 1.39539H95.765V12.5467H96.2301V1.39539Z" fill="#6A7680"/>
<path d="M136.498 1.39539H136.033V12.5467H136.498V1.39539Z" fill="#6A7680"/>
<path d="M139.023 1.39539H138.558V12.5467H139.023V1.39539Z" fill="#6A7680"/>
<path d="M141.542 1.39539H141.077V12.5467H141.542V1.39539Z" fill="#6A7680"/>
<path d="M144.067 1.39539H143.602V12.5467H144.067V1.39539Z" fill="#6A7680"/>
<path d="M146.586 1.39539H146.121V12.5467H146.586V1.39539Z" fill="#6A7680"/>
<path d="M149.111 1.39539H148.646V12.5467H149.111V1.39539Z" fill="#6A7680"/>
<path d="M151.636 1.39539H151.171V12.5467H151.636V1.39539Z" fill="#6A7680"/>
<path d="M133.979 1.39539H133.514V12.5467H133.979V1.39539Z" fill="#6A7680"/>
<path d="M131.454 1.39539H130.989V12.5467H131.454V1.39539Z" fill="#6A7680"/>
<path d="M128.935 1.39539H128.47V12.5467H128.935V1.39539Z" fill="#6A7680"/>
<path d="M126.41 1.39539H125.945V12.5467H126.41V1.39539Z" fill="#6A7680"/>
<path d="M166.678 1.39539H166.213V12.5467H166.678V1.39539Z" fill="#6A7680"/>
<path d="M169.203 1.39539H168.738V12.5467H169.203V1.39539Z" fill="#6A7680"/>
<path d="M171.722 1.39539H171.257V12.5467H171.722V1.39539Z" fill="#6A7680"/>
<path d="M174.247 1.39539H173.782V12.5467H174.247V1.39539Z" fill="#6A7680"/>
<path d="M176.772 1.39539H176.307V12.5467H176.772V1.39539Z" fill="#6A7680"/>
<path d="M179.291 1.39539H178.826V12.5467H179.291V1.39539Z" fill="#6A7680"/>
<path d="M181.816 1.39539H181.351V12.5467H181.816V1.39539Z" fill="#6A7680"/>
<path d="M164.159 1.39539H163.694V12.5467H164.159V1.39539Z" fill="#6A7680"/>
<path d="M161.634 1.39539H161.169V12.5467H161.634V1.39539Z" fill="#6A7680"/>
<path d="M159.115 1.39539H158.65V12.5467H159.115V1.39539Z" fill="#6A7680"/>
<path d="M156.59 1.39539H156.125V12.5467H156.59V1.39539Z" fill="#6A7680"/>
<path d="M63.5977 13.0783V11.3386L35.0609 1.039V2.77875L63.5977 13.0783Z" fill="#6A7680"/>
<path d="M32.4573 13.0783V11.3386L3.92651 1.039V2.77875L32.4573 13.0783Z" fill="#6A7680"/>
<path d="M93.1674 13.0783V11.3386L64.6306 1.039V2.77875L93.1674 13.0783Z" fill="#6A7680"/>
<path d="M122.737 13.0783V11.3386L94.2004 1.039V2.77875L122.737 13.0783Z" fill="#6A7680"/>
<path d="M153.201 13.0783V11.3386L124.664 1.039V2.77875L153.201 13.0783Z" fill="#6A7680"/>
<path d="M182.952 13.0783V11.3386L154.415 1.039V2.77875L182.952 13.0783Z" fill="#6A7680"/>
<path d="M34.3903 11.7735C33.9252 11.7735 33.5507 12.148 33.5507 12.6071C33.5507 13.0662 33.9252 13.4408 34.3903 13.4408C34.8494 13.4408 35.224 13.0662 35.224 12.6071C35.23 12.148 34.8555 11.7735 34.3903 11.7735Z" fill="#F7DCC4"/>
<path d="M34.3903 0.604065C33.9252 0.604065 33.5507 0.978595 33.5507 1.4377C33.5507 1.8968 33.9252 2.27133 34.3903 2.27133C34.8494 2.27133 35.224 1.8968 35.224 1.4377C35.23 0.978595 34.8555 0.604065 34.3903 0.604065Z" fill="#F7DCC4"/>
<path d="M3.92653 1.43774H0V13.616H3.92653V1.43774Z" fill="#6A7680"/>
<path d="M2.18678 0.604065C1.72164 0.604065 1.34711 0.978595 1.34711 1.4377C1.34711 1.8968 1.72164 2.27133 2.18678 2.27133C2.64588 2.27133 3.02041 1.8968 3.02041 1.4377C3.02041 0.978595 2.64588 0.604065 2.18678 0.604065Z" fill="#F7DCC4"/>
<path d="M64.2319 11.7735C63.7728 11.7735 63.3983 12.148 63.3983 12.6071C63.3983 13.0662 63.7728 13.4408 64.2319 13.4408C64.691 13.4408 65.0656 13.0662 65.0656 12.6071C65.0656 12.148 64.691 11.7735 64.2319 11.7735Z" fill="#F7DCC4"/>
<path d="M64.2319 0.604065C63.7728 0.604065 63.3983 0.978595 63.3983 1.4377C63.3983 1.8968 63.7728 2.27133 64.2319 2.27133C64.691 2.27133 65.0656 1.8968 65.0656 1.4377C65.0656 0.978595 64.691 0.604065 64.2319 0.604065Z" fill="#F7DCC4"/>
<path d="M94.2004 11.7735C93.7413 11.7735 93.3668 12.148 93.3668 12.6071C93.3668 13.0662 93.7413 13.4408 94.2004 13.4408C94.6595 13.4408 95.0341 13.0662 95.0341 12.6071C95.0401 12.148 94.6656 11.7735 94.2004 11.7735Z" fill="#F7DCC4"/>
<path d="M94.2004 0.604065C93.7413 0.604065 93.3668 0.978595 93.3668 1.4377C93.3668 1.8968 93.7413 2.27133 94.2004 2.27133C94.6595 2.27133 95.0341 1.8968 95.0341 1.4377C95.0401 0.978595 94.6656 0.604065 94.2004 0.604065Z" fill="#F7DCC4"/>
<path d="M124 11.7735C123.541 11.7735 123.166 12.148 123.166 12.6071C123.166 13.0662 123.541 13.4408 124 13.4408C124.459 13.4408 124.833 13.0662 124.833 12.6071C124.833 12.148 124.459 11.7735 124 11.7735Z" fill="#F7DCC4"/>
<path d="M124 0.604065C123.541 0.604065 123.166 0.978595 123.166 1.4377C123.166 1.8968 123.541 2.27133 124 2.27133C124.459 2.27133 124.833 1.8968 124.833 1.4377C124.833 0.978595 124.459 0.604065 124 0.604065Z" fill="#F7DCC4"/>
<path d="M154.415 11.7735C153.95 11.7735 153.582 12.148 153.582 12.6071C153.582 13.0662 153.956 13.4408 154.415 13.4408C154.874 13.4408 155.249 13.0662 155.249 12.6071C155.255 12.148 154.88 11.7735 154.415 11.7735Z" fill="#F7DCC4"/>
<path d="M154.415 0.604065C153.95 0.604065 153.582 0.978595 153.582 1.4377C153.582 1.8968 153.956 2.27133 154.415 2.27133C154.874 2.27133 155.249 1.8968 155.249 1.4377C155.255 0.978595 154.88 0.604065 154.415 0.604065Z" fill="#F7DCC4"/>
<path d="M184.033 11.7735C183.574 11.7735 183.2 12.148 183.2 12.6071C183.2 13.0662 183.574 13.4408 184.033 13.4408C184.498 13.4408 184.867 13.0662 184.867 12.6071C184.867 12.148 184.492 11.7735 184.033 11.7735Z" fill="#F7DCC4"/>
<path d="M184.033 0.604065C183.574 0.604065 183.2 0.978595 183.2 1.4377C183.2 1.8968 183.574 2.27133 184.033 2.27133C184.498 2.27133 184.867 1.8968 184.867 1.4377C184.867 0.978595 184.492 0.604065 184.033 0.604065Z" fill="#F7DCC4"/>
<path d="M367.825 1.43774H363.898V13.616H367.825V1.43774Z" fill="#6A7680"/>
<path d="M337.85 1.43774H333.924V13.616H337.85V1.43774Z" fill="#6A7680"/>
<path d="M307.876 1.43774H303.949V13.616H307.876V1.43774Z" fill="#6A7680"/>
<path d="M277.908 1.43774H273.981V13.616H277.908V1.43774Z" fill="#6A7680"/>
<path d="M247.933 1.43774H244.006V13.616H247.933V1.43774Z" fill="#6A7680"/>
<path d="M217.959 1.43774H214.032V13.616H217.959V1.43774Z" fill="#6A7680"/>
<path d="M367.825 12.0393H181.828V14.6489H367.825V12.0393Z" fill="#6A7680"/>
<path d="M367.825 0H181.828V1.84245H367.825V0Z" fill="#6A7680"/>
<path d="M197.607 1.39539H197.142V12.5467H197.607V1.39539Z" fill="#6A7680"/>
<path d="M200.132 1.39539H199.667V12.5467H200.132V1.39539Z" fill="#6A7680"/>
<path d="M202.651 1.39539H202.186V12.5467H202.651V1.39539Z" fill="#6A7680"/>
<path d="M205.176 1.39539H204.711V12.5467H205.176V1.39539Z" fill="#6A7680"/>
<path d="M207.695 1.39539H207.23V12.5467H207.695V1.39539Z" fill="#6A7680"/>
<path d="M210.22 1.39539H209.755V12.5467H210.22V1.39539Z" fill="#6A7680"/>
<path d="M212.739 1.39539H212.274V12.5467H212.739V1.39539Z" fill="#6A7680"/>
<path d="M195.082 1.39539H194.617V12.5467H195.082V1.39539Z" fill="#6A7680"/>
<path d="M192.563 1.39539H192.098V12.5467H192.563V1.39539Z" fill="#6A7680"/>
<path d="M190.038 1.39539H189.573V12.5467H190.038V1.39539Z" fill="#6A7680"/>
<path d="M187.519 1.39539H187.054V12.5467H187.519V1.39539Z" fill="#6A7680"/>
<path d="M227.787 1.39539H227.322V12.5467H227.787V1.39539Z" fill="#6A7680"/>
<path d="M230.312 1.39539H229.847V12.5467H230.312V1.39539Z" fill="#6A7680"/>
<path d="M232.831 1.39539H232.366V12.5467H232.831V1.39539Z" fill="#6A7680"/>
<path d="M235.356 1.39539H234.891V12.5467H235.356V1.39539Z" fill="#6A7680"/>
<path d="M237.875 1.39539H237.41V12.5467H237.875V1.39539Z" fill="#6A7680"/>
<path d="M240.4 1.39539H239.935V12.5467H240.4V1.39539Z" fill="#6A7680"/>
<path d="M242.919 1.39539H242.454V12.5467H242.919V1.39539Z" fill="#6A7680"/>
<path d="M225.268 1.39539H224.803V12.5467H225.268V1.39539Z" fill="#6A7680"/>
<path d="M222.743 1.39539H222.278V12.5467H222.743V1.39539Z" fill="#6A7680"/>
<path d="M220.224 1.39539H219.759V12.5467H220.224V1.39539Z" fill="#6A7680"/>
<path d="M217.699 1.39539H217.234V12.5467H217.699V1.39539Z" fill="#6A7680"/>
<path d="M257.967 1.39539H257.502V12.5467H257.967V1.39539Z" fill="#6A7680"/>
<path d="M260.492 1.39539H260.027V12.5467H260.492V1.39539Z" fill="#6A7680"/>
<path d="M263.011 1.39539H262.546V12.5467H263.011V1.39539Z" fill="#6A7680"/>
<path d="M265.536 1.39539H265.071V12.5467H265.536V1.39539Z" fill="#6A7680"/>
<path d="M268.055 1.39539H267.59V12.5467H268.055V1.39539Z" fill="#6A7680"/>
<path d="M270.58 1.39539H270.115V12.5467H270.58V1.39539Z" fill="#6A7680"/>
<path d="M273.099 1.39539H272.634V12.5467H273.099V1.39539Z" fill="#6A7680"/>
<path d="M255.448 1.39539H254.983V12.5467H255.448V1.39539Z" fill="#6A7680"/>
<path d="M252.923 1.39539H252.458V12.5467H252.923V1.39539Z" fill="#6A7680"/>
<path d="M250.404 1.39539H249.939V12.5467H250.404V1.39539Z" fill="#6A7680"/>
<path d="M247.879 1.39539H247.413V12.5467H247.879V1.39539Z" fill="#6A7680"/>
<path d="M288.147 1.39539H287.682V12.5467H288.147V1.39539Z" fill="#6A7680"/>
<path d="M290.672 1.39539H290.207V12.5467H290.672V1.39539Z" fill="#6A7680"/>
<path d="M293.191 1.39539H292.726V12.5467H293.191V1.39539Z" fill="#6A7680"/>
<path d="M295.716 1.39539H295.251V12.5467H295.716V1.39539Z" fill="#6A7680"/>
<path d="M298.235 1.39539H297.77V12.5467H298.235V1.39539Z" fill="#6A7680"/>
<path d="M300.76 1.39539H300.295V12.5467H300.76V1.39539Z" fill="#6A7680"/>
<path d="M303.285 1.39539H302.82V12.5467H303.285V1.39539Z" fill="#6A7680"/>
<path d="M285.628 1.39539H285.163V12.5467H285.628V1.39539Z" fill="#6A7680"/>
<path d="M283.103 1.39539H282.637V12.5467H283.103V1.39539Z" fill="#6A7680"/>
<path d="M280.584 1.39539H280.118V12.5467H280.584V1.39539Z" fill="#6A7680"/>
<path d="M278.059 1.39539H277.593V12.5467H278.059V1.39539Z" fill="#6A7680"/>
<path d="M318.327 1.39539H317.861V12.5467H318.327V1.39539Z" fill="#6A7680"/>
<path d="M320.852 1.39539H320.386V12.5467H320.852V1.39539Z" fill="#6A7680"/>
<path d="M323.371 1.39539H322.906V12.5467H323.371V1.39539Z" fill="#6A7680"/>
<path d="M325.896 1.39539H325.431V12.5467H325.896V1.39539Z" fill="#6A7680"/>
<path d="M328.415 1.39539H327.95V12.5467H328.415V1.39539Z" fill="#6A7680"/>
<path d="M330.94 1.39539H330.475V12.5467H330.94V1.39539Z" fill="#6A7680"/>
<path d="M333.465 1.39539H333V12.5467H333.465V1.39539Z" fill="#6A7680"/>
<path d="M315.808 1.39539H315.342V12.5467H315.808V1.39539Z" fill="#6A7680"/>
<path d="M313.283 1.39539H312.817V12.5467H313.283V1.39539Z" fill="#6A7680"/>
<path d="M310.763 1.39539H310.298V12.5467H310.763V1.39539Z" fill="#6A7680"/>
<path d="M308.238 1.39539H307.773V12.5467H308.238V1.39539Z" fill="#6A7680"/>
<path d="M348.506 1.39539H348.041V12.5467H348.506V1.39539Z" fill="#6A7680"/>
<path d="M351.032 1.39539H350.566V12.5467H351.032V1.39539Z" fill="#6A7680"/>
<path d="M353.551 1.39539H353.085V12.5467H353.551V1.39539Z" fill="#6A7680"/>
<path d="M356.076 1.39539H355.61V12.5467H356.076V1.39539Z" fill="#6A7680"/>
<path d="M358.601 1.39539H358.136V12.5467H358.601V1.39539Z" fill="#6A7680"/>
<path d="M361.12 1.39539H360.655V12.5467H361.12V1.39539Z" fill="#6A7680"/>
<path d="M363.645 1.39539H363.18V12.5467H363.645V1.39539Z" fill="#6A7680"/>
<path d="M345.987 1.39539H345.522V12.5467H345.987V1.39539Z" fill="#6A7680"/>
<path d="M343.462 1.39539H342.997V12.5467H343.462V1.39539Z" fill="#6A7680"/>
<path d="M340.943 1.39539H340.478V12.5467H340.943V1.39539Z" fill="#6A7680"/>
<path d="M338.418 1.39539H337.953V12.5467H338.418V1.39539Z" fill="#6A7680"/>
<path d="M245.426 13.0783V11.3386L216.889 1.039V2.77875L245.426 13.0783Z" fill="#6A7680"/>
<path d="M214.286 13.0783V11.3386L185.755 1.039V2.77875L214.286 13.0783Z" fill="#6A7680"/>
<path d="M274.996 13.0783V11.3386L246.459 1.039V2.77875L274.996 13.0783Z" fill="#6A7680"/>
<path d="M304.566 13.0783V11.3386L276.029 1.039V2.77875L304.566 13.0783Z" fill="#6A7680"/>
<path d="M335.029 13.0783V11.3386L306.493 1.039V2.77875L335.029 13.0783Z" fill="#6A7680"/>
<path d="M364.78 13.0783V11.3386L336.244 1.039V2.77875L364.78 13.0783Z" fill="#6A7680"/>
<path d="M216.219 11.7735C215.754 11.7735 215.379 12.148 215.379 12.6071C215.379 13.0662 215.754 13.4408 216.219 13.4408C216.678 13.4408 217.052 13.0662 217.052 12.6071C217.058 12.148 216.684 11.7735 216.219 11.7735Z" fill="#F7DCC4"/>
<path d="M216.219 0.604065C215.754 0.604065 215.379 0.978595 215.379 1.4377C215.379 1.8968 215.754 2.27133 216.219 2.27133C216.678 2.27133 217.052 1.8968 217.052 1.4377C217.058 0.978595 216.684 0.604065 216.219 0.604065Z" fill="#F7DCC4"/>
<path d="M185.755 1.43774H181.828V13.616H185.755V1.43774Z" fill="#6A7680"/>
<path d="M184.015 11.7735C183.55 11.7735 183.176 12.148 183.176 12.6071C183.176 13.0662 183.55 13.4408 184.015 13.4408C184.474 13.4408 184.849 13.0662 184.849 12.6071C184.849 12.148 184.474 11.7735 184.015 11.7735Z" fill="#F7DCC4"/>
<path d="M184.015 0.604065C183.55 0.604065 183.176 0.978595 183.176 1.4377C183.176 1.8968 183.55 2.27133 184.015 2.27133C184.474 2.27133 184.849 1.8968 184.849 1.4377C184.849 0.978595 184.474 0.604065 184.015 0.604065Z" fill="#F7DCC4"/>
<path d="M246.06 11.7735C245.601 11.7735 245.227 12.148 245.227 12.6071C245.227 13.0662 245.601 13.4408 246.06 13.4408C246.519 13.4408 246.894 13.0662 246.894 12.6071C246.894 12.148 246.519 11.7735 246.06 11.7735Z" fill="#F7DCC4"/>
<path d="M246.06 0.604065C245.601 0.604065 245.227 0.978595 245.227 1.4377C245.227 1.8968 245.601 2.27133 246.06 2.27133C246.519 2.27133 246.894 1.8968 246.894 1.4377C246.894 0.978595 246.519 0.604065 246.06 0.604065Z" fill="#F7DCC4"/>
<path d="M276.029 11.7735C275.57 11.7735 275.195 12.148 275.195 12.6071C275.195 13.0662 275.57 13.4408 276.029 13.4408C276.488 13.4408 276.862 13.0662 276.862 12.6071C276.869 12.148 276.494 11.7735 276.029 11.7735Z" fill="#F7DCC4"/>
<path d="M276.029 0.604065C275.57 0.604065 275.195 0.978595 275.195 1.4377C275.195 1.8968 275.57 2.27133 276.029 2.27133C276.488 2.27133 276.862 1.8968 276.862 1.4377C276.869 0.978595 276.494 0.604065 276.029 0.604065Z" fill="#F7DCC4"/>
<path d="M305.828 11.7735C305.369 11.7735 304.995 12.148 304.995 12.6071C304.995 13.0662 305.369 13.4408 305.828 13.4408C306.287 13.4408 306.662 13.0662 306.662 12.6071C306.662 12.148 306.287 11.7735 305.828 11.7735Z" fill="#F7DCC4"/>
<path d="M305.828 0.604065C305.369 0.604065 304.995 0.978595 304.995 1.4377C304.995 1.8968 305.369 2.27133 305.828 2.27133C306.287 2.27133 306.662 1.8968 306.662 1.4377C306.662 0.978595 306.287 0.604065 305.828 0.604065Z" fill="#F7DCC4"/>
<path d="M336.244 11.7735C335.778 11.7735 335.41 12.148 335.41 12.6071C335.41 13.0662 335.785 13.4408 336.244 13.4408C336.703 13.4408 337.077 13.0662 337.077 12.6071C337.083 12.148 336.709 11.7735 336.244 11.7735Z" fill="#F7DCC4"/>
<path d="M336.244 0.604065C335.778 0.604065 335.41 0.978595 335.41 1.4377C335.41 1.8968 335.785 2.27133 336.244 2.27133C336.703 2.27133 337.077 1.8968 337.077 1.4377C337.083 0.978595 336.709 0.604065 336.244 0.604065Z" fill="#F7DCC4"/>
<path d="M365.862 11.7735C365.403 11.7735 365.028 12.148 365.028 12.6071C365.028 13.0662 365.403 13.4408 365.862 13.4408C366.327 13.4408 366.695 13.0662 366.695 12.6071C366.695 12.148 366.321 11.7735 365.862 11.7735Z" fill="#F7DCC4"/>
<path d="M365.862 0.604065C365.403 0.604065 365.028 0.978595 365.028 1.4377C365.028 1.8968 365.403 2.27133 365.862 2.27133C366.327 2.27133 366.695 1.8968 366.695 1.4377C366.695 0.978595 366.321 0.604065 365.862 0.604065Z" fill="#F7DCC4"/>
<path d="M550 1.43774H546.073V13.616H550V1.43774Z" fill="#6A7680"/>
<path d="M520.025 1.43774H516.099V13.616H520.025V1.43774Z" fill="#6A7680"/>
<path d="M490.051 1.43774H486.124V13.616H490.051V1.43774Z" fill="#6A7680"/>
<path d="M460.083 1.43774H456.156V13.616H460.083V1.43774Z" fill="#6A7680"/>
<path d="M430.108 1.43774H426.181V13.616H430.108V1.43774Z" fill="#6A7680"/>
<path d="M400.134 1.43774H396.207V13.616H400.134V1.43774Z" fill="#6A7680"/>
<path d="M550 12.0393H364.003V14.6489H550V12.0393Z" fill="#6A7680"/>
<path d="M550 0H364.003V1.84245H550V0Z" fill="#6A7680"/>
<path d="M379.782 1.39539H379.317V12.5467H379.782V1.39539Z" fill="#6A7680"/>
<path d="M382.307 1.39539H381.842V12.5467H382.307V1.39539Z" fill="#6A7680"/>
<path d="M384.826 1.39539H384.361V12.5467H384.826V1.39539Z" fill="#6A7680"/>
<path d="M387.351 1.39539H386.886V12.5467H387.351V1.39539Z" fill="#6A7680"/>
<path d="M389.87 1.39539H389.405V12.5467H389.87V1.39539Z" fill="#6A7680"/>
<path d="M392.395 1.39539H391.93V12.5467H392.395V1.39539Z" fill="#6A7680"/>
<path d="M394.914 1.39539H394.449V12.5467H394.914V1.39539Z" fill="#6A7680"/>
<path d="M377.257 1.39539H376.792V12.5467H377.257V1.39539Z" fill="#6A7680"/>
<path d="M374.738 1.39539H374.273V12.5467H374.738V1.39539Z" fill="#6A7680"/>
<path d="M372.213 1.39539H371.748V12.5467H372.213V1.39539Z" fill="#6A7680"/>
<path d="M369.694 1.39539H369.229V12.5467H369.694V1.39539Z" fill="#6A7680"/>
<path d="M409.962 1.39539H409.497V12.5467H409.962V1.39539Z" fill="#6A7680"/>
<path d="M412.487 1.39539H412.022V12.5467H412.487V1.39539Z" fill="#6A7680"/>
<path d="M415.006 1.39539H414.541V12.5467H415.006V1.39539Z" fill="#6A7680"/>
<path d="M417.531 1.39539H417.066V12.5467H417.531V1.39539Z" fill="#6A7680"/>
<path d="M420.05 1.39539H419.585V12.5467H420.05V1.39539Z" fill="#6A7680"/>
<path d="M422.575 1.39539H422.11V12.5467H422.575V1.39539Z" fill="#6A7680"/>
<path d="M425.094 1.39539H424.629V12.5467H425.094V1.39539Z" fill="#6A7680"/>
<path d="M407.443 1.39539H406.978V12.5467H407.443V1.39539Z" fill="#6A7680"/>
<path d="M404.918 1.39539H404.453V12.5467H404.918V1.39539Z" fill="#6A7680"/>
<path d="M402.399 1.39539H401.934V12.5467H402.399V1.39539Z" fill="#6A7680"/>
<path d="M399.874 1.39539H399.409V12.5467H399.874V1.39539Z" fill="#6A7680"/>
<path d="M440.142 1.39539H439.677V12.5467H440.142V1.39539Z" fill="#6A7680"/>
<path d="M442.667 1.39539H442.202V12.5467H442.667V1.39539Z" fill="#6A7680"/>
<path d="M445.186 1.39539H444.721V12.5467H445.186V1.39539Z" fill="#6A7680"/>
<path d="M447.711 1.39539H447.246V12.5467H447.711V1.39539Z" fill="#6A7680"/>
<path d="M450.23 1.39539H449.765V12.5467H450.23V1.39539Z" fill="#6A7680"/>
<path d="M452.755 1.39539H452.29V12.5467H452.755V1.39539Z" fill="#6A7680"/>
<path d="M455.274 1.39539H454.809V12.5467H455.274V1.39539Z" fill="#6A7680"/>
<path d="M437.623 1.39539H437.158V12.5467H437.623V1.39539Z" fill="#6A7680"/>
<path d="M435.098 1.39539H434.633V12.5467H435.098V1.39539Z" fill="#6A7680"/>
<path d="M432.579 1.39539H432.114V12.5467H432.579V1.39539Z" fill="#6A7680"/>
<path d="M430.054 1.39539H429.589V12.5467H430.054V1.39539Z" fill="#6A7680"/>
<path d="M470.322 1.39539H469.857V12.5467H470.322V1.39539Z" fill="#6A7680"/>
<path d="M472.847 1.39539H472.382V12.5467H472.847V1.39539Z" fill="#6A7680"/>
<path d="M475.366 1.39539H474.901V12.5467H475.366V1.39539Z" fill="#6A7680"/>
<path d="M477.891 1.39539H477.426V12.5467H477.891V1.39539Z" fill="#6A7680"/>
<path d="M480.41 1.39539H479.945V12.5467H480.41V1.39539Z" fill="#6A7680"/>
<path d="M482.935 1.39539H482.47V12.5467H482.935V1.39539Z" fill="#6A7680"/>
<path d="M485.46 1.39539H484.995V12.5467H485.46V1.39539Z" fill="#6A7680"/>
<path d="M467.803 1.39539H467.338V12.5467H467.803V1.39539Z" fill="#6A7680"/>
<path d="M465.278 1.39539H464.812V12.5467H465.278V1.39539Z" fill="#6A7680"/>
<path d="M462.759 1.39539H462.293V12.5467H462.759V1.39539Z" fill="#6A7680"/>
<path d="M460.234 1.39539H459.768V12.5467H460.234V1.39539Z" fill="#6A7680"/>
<path d="M500.502 1.39539H500.036V12.5467H500.502V1.39539Z" fill="#6A7680"/>
<path d="M503.027 1.39539H502.562V12.5467H503.027V1.39539Z" fill="#6A7680"/>
<path d="M505.546 1.39539H505.081V12.5467H505.546V1.39539Z" fill="#6A7680"/>
<path d="M508.071 1.39539H507.606V12.5467H508.071V1.39539Z" fill="#6A7680"/>
<path d="M510.59 1.39539H510.125V12.5467H510.59V1.39539Z" fill="#6A7680"/>
<path d="M513.115 1.39539H512.65V12.5467H513.115V1.39539Z" fill="#6A7680"/>
<path d="M515.64 1.39539H515.175V12.5467H515.64V1.39539Z" fill="#6A7680"/>
<path d="M497.983 1.39539H497.517V12.5467H497.983V1.39539Z" fill="#6A7680"/>
<path d="M495.457 1.39539H494.992V12.5467H495.457V1.39539Z" fill="#6A7680"/>
<path d="M492.939 1.39539H492.473V12.5467H492.939V1.39539Z" fill="#6A7680"/>
<path d="M490.413 1.39539H489.948V12.5467H490.413V1.39539Z" fill="#6A7680"/>
<path d="M530.681 1.39539H530.216V12.5467H530.681V1.39539Z" fill="#6A7680"/>
<path d="M533.207 1.39539H532.741V12.5467H533.207V1.39539Z" fill="#6A7680"/>
<path d="M535.726 1.39539H535.26V12.5467H535.726V1.39539Z" fill="#6A7680"/>
<path d="M538.251 1.39539H537.785V12.5467H538.251V1.39539Z" fill="#6A7680"/>
<path d="M540.776 1.39539H540.311V12.5467H540.776V1.39539Z" fill="#6A7680"/>
<path d="M543.295 1.39539H542.83V12.5467H543.295V1.39539Z" fill="#6A7680"/>
<path d="M545.82 1.39539H545.355V12.5467H545.82V1.39539Z" fill="#6A7680"/>
<path d="M528.162 1.39539H527.697V12.5467H528.162V1.39539Z" fill="#6A7680"/>
<path d="M525.637 1.39539H525.172V12.5467H525.637V1.39539Z" fill="#6A7680"/>
<path d="M523.118 1.39539H522.653V12.5467H523.118V1.39539Z" fill="#6A7680"/>
<path d="M520.593 1.39539H520.128V12.5467H520.593V1.39539Z" fill="#6A7680"/>
<path d="M427.601 13.0783V11.3386L399.064 1.039V2.77875L427.601 13.0783Z" fill="#6A7680"/>
<path d="M396.461 13.0783V11.3386L367.93 1.039V2.77875L396.461 13.0783Z" fill="#6A7680"/>
<path d="M457.171 13.0783V11.3386L428.634 1.039V2.77875L457.171 13.0783Z" fill="#6A7680"/>
<path d="M486.741 13.0783V11.3386L458.204 1.039V2.77875L486.741 13.0783Z" fill="#6A7680"/>
<path d="M517.204 13.0783V11.3386L488.668 1.039V2.77875L517.204 13.0783Z" fill="#6A7680"/>
<path d="M546.955 13.0783V11.3386L518.419 1.039V2.77875L546.955 13.0783Z" fill="#6A7680"/>
<path d="M398.394 11.7735C397.929 11.7735 397.554 12.148 397.554 12.6071C397.554 13.0662 397.929 13.4408 398.394 13.4408C398.853 13.4408 399.227 13.0662 399.227 12.6071C399.233 12.148 398.859 11.7735 398.394 11.7735Z" fill="#F7DCC4"/>
<path d="M398.394 0.604065C397.929 0.604065 397.554 0.978595 397.554 1.4377C397.554 1.8968 397.929 2.27133 398.394 2.27133C398.853 2.27133 399.227 1.8968 399.227 1.4377C399.233 0.978595 398.859 0.604065 398.394 0.604065Z" fill="#F7DCC4"/>
<path d="M367.93 1.43774H364.003V13.616H367.93V1.43774Z" fill="#6A7680"/>
<path d="M366.19 11.7735C365.725 11.7735 365.351 12.148 365.351 12.6071C365.351 13.0662 365.725 13.4408 366.19 13.4408C366.649 13.4408 367.024 13.0662 367.024 12.6071C367.024 12.148 366.649 11.7735 366.19 11.7735Z" fill="#F7DCC4"/>
<path d="M366.19 0.604065C365.725 0.604065 365.351 0.978595 365.351 1.4377C365.351 1.8968 365.725 2.27133 366.19 2.27133C366.649 2.27133 367.024 1.8968 367.024 1.4377C367.024 0.978595 366.649 0.604065 366.19 0.604065Z" fill="#F7DCC4"/>
<path d="M428.235 11.7735C427.776 11.7735 427.402 12.148 427.402 12.6071C427.402 13.0662 427.776 13.4408 428.235 13.4408C428.694 13.4408 429.069 13.0662 429.069 12.6071C429.069 12.148 428.694 11.7735 428.235 11.7735Z" fill="#F7DCC4"/>
<path d="M428.235 0.604065C427.776 0.604065 427.402 0.978595 427.402 1.4377C427.402 1.8968 427.776 2.27133 428.235 2.27133C428.694 2.27133 429.069 1.8968 429.069 1.4377C429.069 0.978595 428.694 0.604065 428.235 0.604065Z" fill="#F7DCC4"/>
<path d="M458.204 11.7735C457.745 11.7735 457.37 12.148 457.37 12.6071C457.37 13.0662 457.745 13.4408 458.204 13.4408C458.663 13.4408 459.037 13.0662 459.037 12.6071C459.043 12.148 458.669 11.7735 458.204 11.7735Z" fill="#F7DCC4"/>
<path d="M458.204 0.604065C457.745 0.604065 457.37 0.978595 457.37 1.4377C457.37 1.8968 457.745 2.27133 458.204 2.27133C458.663 2.27133 459.037 1.8968 459.037 1.4377C459.043 0.978595 458.669 0.604065 458.204 0.604065Z" fill="#F7DCC4"/>
<path d="M488.003 11.7735C487.544 11.7735 487.17 12.148 487.17 12.6071C487.17 13.0662 487.544 13.4408 488.003 13.4408C488.462 13.4408 488.837 13.0662 488.837 12.6071C488.837 12.148 488.462 11.7735 488.003 11.7735Z" fill="#F7DCC4"/>
<path d="M488.003 0.604065C487.544 0.604065 487.17 0.978595 487.17 1.4377C487.17 1.8968 487.544 2.27133 488.003 2.27133C488.462 2.27133 488.837 1.8968 488.837 1.4377C488.837 0.978595 488.462 0.604065 488.003 0.604065Z" fill="#F7DCC4"/>
<path d="M518.419 11.7735C517.953 11.7735 517.585 12.148 517.585 12.6071C517.585 13.0662 517.96 13.4408 518.419 13.4408C518.878 13.4408 519.252 13.0662 519.252 12.6071C519.258 12.148 518.884 11.7735 518.419 11.7735Z" fill="#F7DCC4"/>
<path d="M518.419 0.604065C517.953 0.604065 517.585 0.978595 517.585 1.4377C517.585 1.8968 517.96 2.27133 518.419 2.27133C518.878 2.27133 519.252 1.8968 519.252 1.4377C519.258 0.978595 518.884 0.604065 518.419 0.604065Z" fill="#F7DCC4"/>
<path d="M548.037 0.604065C547.578 0.604065 547.203 0.978595 547.203 1.4377C547.203 1.8968 547.578 2.27133 548.037 2.27133C548.502 2.27133 548.87 1.8968 548.87 1.4377C548.87 0.978595 548.496 0.604065 548.037 0.604065Z" fill="#F7DCC4"/>
<path d="M8.1167 226.706L8.1167 222.173L0.634644 222.173L0.634644 226.706L8.1167 226.706Z" fill="#6A7680"/>
<path d="M8.1167 192.105L8.1167 187.572L0.634644 187.572L0.634644 192.105L8.1167 192.105Z" fill="#6A7680"/>
<path d="M8.1167 157.503L8.1167 152.971L0.634644 152.971L0.634644 157.503L8.1167 157.503Z" fill="#6A7680"/>
<path d="M8.1167 122.909L8.1167 118.377L0.634644 118.377L0.634644 122.909L8.1167 122.909Z" fill="#6A7680"/>
<path d="M8.1167 88.308L8.1167 83.7754L0.634644 83.7754L0.634644 88.308L8.1167 88.308Z" fill="#6A7680"/>
<path d="M8.1167 53.7069L8.1167 49.1743L0.634644 49.1743L0.634644 53.7069L8.1167 53.7069Z" fill="#6A7680"/>
<path d="M1.60335 226.706L1.60336 12L6.56843e-05 12L5.75542e-05 226.706L1.60335 226.706Z" fill="#6A7680"/>
<path d="M8.99999 226.706L9 12L7.86804 12L7.86803 226.706L8.99999 226.706Z" fill="#6A7680"/>
<path d="M8.1427 30.214L8.1427 29.6771L1.29157 29.6771L1.29157 30.214L8.1427 30.214Z" fill="#6A7680"/>
<path d="M8.1427 33.1289L8.1427 32.592L1.29157 32.592L1.29157 33.1289L8.1427 33.1289Z" fill="#6A7680"/>
<path d="M8.1427 36.0367L8.1427 35.4998L1.29157 35.4998L1.29157 36.0367L8.1427 36.0367Z" fill="#6A7680"/>
<path d="M8.1427 38.9515L8.1427 38.4146L1.29157 38.4146L1.29157 38.9515L8.1427 38.9515Z" fill="#6A7680"/>
<path d="M8.1427 41.8594L8.1427 41.3224L1.29157 41.3224L1.29157 41.8594L8.1427 41.8594Z" fill="#6A7680"/>
<path d="M8.1427 44.7742L8.1427 44.2372L1.29157 44.2372L1.29157 44.7742L8.1427 44.7742Z" fill="#6A7680"/>
<path d="M8.1427 47.682L8.1427 47.1451L1.29157 47.1451L1.29157 47.682L8.1427 47.682Z" fill="#6A7680"/>
<path d="M8.1427 27.2993L8.1427 26.7623L1.29157 26.7623L1.29157 27.2993L8.1427 27.2993Z" fill="#6A7680"/>
<path d="M8.1427 24.3914L8.1427 23.8544L1.29157 23.8544L1.29157 24.3914L8.1427 24.3914Z" fill="#6A7680"/>
<path d="M8.1427 21.4766L8.1427 20.9397L1.29157 20.9397L1.29157 21.4766L8.1427 21.4766Z" fill="#6A7680"/>
<path d="M8.1427 18.5688L8.1427 18.0319L1.29157 18.0319L1.29157 18.5688L8.1427 18.5688Z" fill="#6A7680"/>
<path d="M8.1427 65.0523L8.1427 64.5153L1.29157 64.5153L1.29157 65.0523L8.1427 65.0523Z" fill="#6A7680"/>
<path d="M8.1427 67.9671L8.1427 67.4302L1.29157 67.4302L1.29157 67.9671L8.1427 67.9671Z" fill="#6A7680"/>
<path d="M8.1427 70.8749L8.1427 70.338L1.29157 70.338L1.29157 70.8749L8.1427 70.8749Z" fill="#6A7680"/>
<path d="M8.1427 73.7897L8.1427 73.2528L1.29157 73.2528L1.29157 73.7897L8.1427 73.7897Z" fill="#6A7680"/>
<path d="M8.1427 76.6976L8.1427 76.1606L1.29157 76.1606L1.29157 76.6976L8.1427 76.6976Z" fill="#6A7680"/>
<path d="M8.1427 79.6124L8.1427 79.0754L1.29157 79.0754L1.29157 79.6124L8.1427 79.6124Z" fill="#6A7680"/>
<path d="M8.1427 82.5203L8.1427 81.9833L1.29157 81.9833L1.29157 82.5203L8.1427 82.5203Z" fill="#6A7680"/>
<path d="M8.1427 62.1444L8.1427 61.6075L1.29157 61.6075L1.29157 62.1444L8.1427 62.1444Z" fill="#6A7680"/>
<path d="M8.1427 59.2296L8.1427 58.6927L1.29157 58.6927L1.29157 59.2296L8.1427 59.2296Z" fill="#6A7680"/>
<path d="M8.1427 56.3219L8.1427 55.7849L1.29157 55.7849L1.29157 56.3219L8.1427 56.3219Z" fill="#6A7680"/>
<path d="M8.1427 53.407L8.1427 52.8701L1.29157 52.8701L1.29157 53.407L8.1427 53.407Z" fill="#6A7680"/>
<path d="M8.1427 99.8906L8.1427 99.3536L1.29157 99.3536L1.29157 99.8906L8.1427 99.8906Z" fill="#6A7680"/>
<path d="M8.1427 102.805L8.1427 102.268L1.29157 102.268L1.29157 102.805L8.1427 102.805Z" fill="#6A7680"/>
<path d="M8.1427 105.713L8.1427 105.176L1.29157 105.176L1.29157 105.713L8.1427 105.713Z" fill="#6A7680"/>
<path d="M8.1427 108.628L8.1427 108.091L1.29157 108.091L1.29157 108.628L8.1427 108.628Z" fill="#6A7680"/>
<path d="M8.1427 111.536L8.1427 110.999L1.29157 110.999L1.29157 111.536L8.1427 111.536Z" fill="#6A7680"/>
<path d="M8.1427 114.451L8.1427 113.914L1.29157 113.914L1.29157 114.451L8.1427 114.451Z" fill="#6A7680"/>
<path d="M8.1427 117.359L8.1427 116.822L1.29157 116.822L1.29157 117.359L8.1427 117.359Z" fill="#6A7680"/>
<path d="M8.1427 96.9827L8.1427 96.4458L1.29157 96.4458L1.29157 96.9827L8.1427 96.9827Z" fill="#6A7680"/>
<path d="M8.1427 94.0679L8.1427 93.5309L1.29157 93.5309L1.29157 94.0679L8.1427 94.0679Z" fill="#6A7680"/>
<path d="M8.1427 91.1601L8.1427 90.6232L1.29157 90.6232L1.29157 91.1601L8.1427 91.1601Z" fill="#6A7680"/>
<path d="M8.1427 88.2453L8.1427 87.7084L1.29157 87.7084L1.29157 88.2453L8.1427 88.2453Z" fill="#6A7680"/>
<path d="M8.1427 134.729L8.1427 134.192L1.29157 134.192L1.29157 134.729L8.1427 134.729Z" fill="#6A7680"/>
<path d="M8.1427 137.644L8.1427 137.107L1.29157 137.107L1.29157 137.644L8.1427 137.644Z" fill="#6A7680"/>
<path d="M8.1427 140.551L8.1427 140.014L1.29157 140.014L1.29157 140.551L8.1427 140.551Z" fill="#6A7680"/>
<path d="M8.1427 143.466L8.1427 142.929L1.29157 142.929L1.29157 143.466L8.1427 143.466Z" fill="#6A7680"/>
<path d="M8.1427 146.374L8.1427 145.837L1.29157 145.837L1.29157 146.374L8.1427 146.374Z" fill="#6A7680"/>
<path d="M8.1427 149.289L8.1427 148.752L1.29157 148.752L1.29157 149.289L8.1427 149.289Z" fill="#6A7680"/>
<path d="M8.1427 152.204L8.1427 151.667L1.29157 151.667L1.29157 152.204L8.1427 152.204Z" fill="#6A7680"/>
<path d="M8.1427 131.821L8.1427 131.284L1.29157 131.284L1.29157 131.821L8.1427 131.821Z" fill="#6A7680"/>
<path d="M8.1427 128.906L8.1427 128.369L1.29157 128.369L1.29157 128.906L8.1427 128.906Z" fill="#6A7680"/>
<path d="M8.1427 125.998L8.1427 125.461L1.29157 125.461L1.29157 125.998L8.1427 125.998Z" fill="#6A7680"/>
<path d="M8.1427 123.084L8.1427 122.547L1.29157 122.547L1.29157 123.084L8.1427 123.084Z" fill="#6A7680"/>
<path d="M8.1427 169.567L8.1427 169.03L1.29157 169.03L1.29157 169.567L8.1427 169.567Z" fill="#6A7680"/>
<path d="M8.1427 172.482L8.1427 171.945L1.29157 171.945L1.29157 172.482L8.1427 172.482Z" fill="#6A7680"/>
<path d="M8.1427 175.39L8.1427 174.853L1.29157 174.853L1.29157 175.39L8.1427 175.39Z" fill="#6A7680"/>
<path d="M8.1427 178.305L8.1427 177.768L1.29157 177.768L1.29157 178.305L8.1427 178.305Z" fill="#6A7680"/>
<path d="M8.1427 181.212L8.1427 180.676L1.29157 180.676L1.29157 181.212L8.1427 181.212Z" fill="#6A7680"/>
<path d="M8.1427 184.127L8.1427 183.59L1.29157 183.59L1.29157 184.127L8.1427 184.127Z" fill="#6A7680"/>
<path d="M8.1427 187.042L8.1427 186.505L1.29157 186.505L1.29157 187.042L8.1427 187.042Z" fill="#6A7680"/>
<path d="M8.1427 166.659L8.1427 166.122L1.29157 166.122L1.29157 166.659L8.1427 166.659Z" fill="#6A7680"/>
<path d="M8.1427 163.744L8.1427 163.207L1.29157 163.207L1.29157 163.744L8.1427 163.744Z" fill="#6A7680"/>
<path d="M8.1427 160.837L8.1427 160.3L1.29157 160.3L1.29157 160.837L8.1427 160.837Z" fill="#6A7680"/>
<path d="M8.1427 157.922L8.1427 157.385L1.29157 157.385L1.29157 157.922L8.1427 157.922Z" fill="#6A7680"/>
<path d="M8.1427 204.405L8.1427 203.868L1.29157 203.868L1.29157 204.405L8.1427 204.405Z" fill="#6A7680"/>
<path d="M8.1427 207.32L8.1427 206.783L1.29157 206.783L1.29157 207.32L8.1427 207.32Z" fill="#6A7680"/>
<path d="M8.1427 210.228L8.1427 209.691L1.29157 209.691L1.29157 210.228L8.1427 210.228Z" fill="#6A7680"/>
<path d="M8.1427 213.143L8.1427 212.606L1.29157 212.606L1.29157 213.143L8.1427 213.143Z" fill="#6A7680"/>
<path d="M8.1427 216.058L8.1427 215.521L1.29157 215.521L1.29157 216.058L8.1427 216.058Z" fill="#6A7680"/>
<path d="M8.1427 218.965L8.1427 218.428L1.29157 218.428L1.29157 218.965L8.1427 218.965Z" fill="#6A7680"/>
<path d="M8.1427 221.88L8.1427 221.343L1.29157 221.343L1.29157 221.88L8.1427 221.88Z" fill="#6A7680"/>
<path d="M8.1427 201.498L8.1427 200.961L1.29157 200.961L1.29157 201.498L8.1427 201.498Z" fill="#6A7680"/>
<path d="M8.1427 198.583L8.1427 198.046L1.29157 198.046L1.29157 198.583L8.1427 198.583Z" fill="#6A7680"/>
<path d="M8.1427 195.675L8.1427 195.138L1.29157 195.138L1.29157 195.675L8.1427 195.675Z" fill="#6A7680"/>
<path d="M8.1427 192.76L8.1427 192.223L1.29157 192.223L1.29157 192.76L8.1427 192.76Z" fill="#6A7680"/>
<path d="M0.964968 85.4141L2.03383 85.4141L8.36166 52.4725L7.2928 52.4725L0.964968 85.4141Z" fill="#6A7680"/>
<path d="M0.964968 49.4672L2.03383 49.4672L8.36166 16.5326L7.2928 16.5326L0.964968 49.4672Z" fill="#6A7680"/>
<path d="M0.964968 119.548L2.03383 119.548L8.36166 86.6065L7.2928 86.6065L0.964968 119.548Z" fill="#6A7680"/>
<path d="M0.964968 153.682L2.03383 153.682L8.36166 120.74L7.2928 120.74L0.964968 153.682Z" fill="#6A7680"/>
<path d="M0.964968 188.848L2.03383 188.848L8.36166 155.906L7.2928 155.906L0.964968 188.848Z" fill="#6A7680"/>
<path d="M0.964968 223.191L2.03383 223.191L8.36166 190.25L7.2928 190.25L0.964968 223.191Z" fill="#6A7680"/>
<path d="M8.1167 16.5326L8.1167 12L0.634644 12L0.634644 16.5326L8.1167 16.5326Z" fill="#6A7680"/>
<path d="M8.1167 437L8.1167 432.467L0.634644 432.467L0.634644 437L8.1167 437Z" fill="#6A7680"/>
<path d="M8.1167 402.399L8.1167 397.866L0.634644 397.866L0.634644 402.399L8.1167 402.399Z" fill="#6A7680"/>
<path d="M8.1167 367.798L8.1167 363.265L0.634644 363.265L0.634644 367.798L8.1167 367.798Z" fill="#6A7680"/>
<path d="M8.1167 333.203L8.1167 328.671L0.634644 328.671L0.634644 333.203L8.1167 333.203Z" fill="#6A7680"/>
<path d="M8.1167 298.602L8.1167 294.07L0.634644 294.07L0.634644 298.602L8.1167 298.602Z" fill="#6A7680"/>
<path d="M8.1167 264.001L8.1167 259.469L0.634644 259.469L0.634644 264.001L8.1167 264.001Z" fill="#6A7680"/>
<path d="M1.60332 437L1.60333 222.294L3.51667e-05 222.294L2.70366e-05 437L1.60332 437Z" fill="#6A7680"/>
<path d="M8.99999 437L9 222.294L7.86804 222.294L7.86803 437L8.99999 437Z" fill="#6A7680"/>
<path d="M8.14273 240.508L8.14273 239.971L1.2916 239.971L1.2916 240.508L8.14273 240.508Z" fill="#6A7680"/>
<path d="M8.14273 243.423L8.14273 242.886L1.2916 242.886L1.2916 243.423L8.14273 243.423Z" fill="#6A7680"/>
<path d="M8.14273 246.331L8.14273 245.794L1.2916 245.794L1.2916 246.331L8.14273 246.331Z" fill="#6A7680"/>
<path d="M8.14273 249.246L8.14273 248.709L1.2916 248.709L1.2916 249.246L8.14273 249.246Z" fill="#6A7680"/>
<path d="M8.14273 252.154L8.14273 251.617L1.2916 251.617L1.2916 252.154L8.14273 252.154Z" fill="#6A7680"/>
<path d="M8.14273 255.068L8.14273 254.531L1.2916 254.531L1.2916 255.068L8.14273 255.068Z" fill="#6A7680"/>
<path d="M8.14273 257.976L8.14273 257.439L1.2916 257.439L1.2916 257.976L8.14273 257.976Z" fill="#6A7680"/>
<path d="M8.14273 237.594L8.14273 237.057L1.2916 237.057L1.2916 237.594L8.14273 237.594Z" fill="#6A7680"/>
<path d="M8.14273 234.686L8.14273 234.149L1.2916 234.149L1.2916 234.686L8.14273 234.686Z" fill="#6A7680"/>
<path d="M8.14273 231.771L8.14273 231.234L1.2916 231.234L1.2916 231.771L8.14273 231.771Z" fill="#6A7680"/>
<path d="M8.14273 228.863L8.14273 228.326L1.2916 228.326L1.2916 228.863L8.14273 228.863Z" fill="#6A7680"/>
<path d="M8.14273 275.347L8.14273 274.81L1.2916 274.81L1.2916 275.347L8.14273 275.347Z" fill="#6A7680"/>
<path d="M8.14273 278.261L8.14273 277.725L1.2916 277.725L1.2916 278.261L8.14273 278.261Z" fill="#6A7680"/>
<path d="M8.14273 281.169L8.14273 280.632L1.2916 280.632L1.2916 281.169L8.14273 281.169Z" fill="#6A7680"/>
<path d="M8.14273 284.084L8.14273 283.547L1.2916 283.547L1.2916 284.084L8.14273 284.084Z" fill="#6A7680"/>
<path d="M8.14273 286.992L8.14273 286.455L1.2916 286.455L1.2916 286.992L8.14273 286.992Z" fill="#6A7680"/>
<path d="M8.14273 289.907L8.14273 289.37L1.2916 289.37L1.2916 289.907L8.14273 289.907Z" fill="#6A7680"/>
<path d="M8.14273 292.815L8.14273 292.278L1.2916 292.278L1.2916 292.815L8.14273 292.815Z" fill="#6A7680"/>
<path d="M8.14273 272.439L8.14273 271.902L1.2916 271.902L1.2916 272.439L8.14273 272.439Z" fill="#6A7680"/>
<path d="M8.14273 269.524L8.14273 268.987L1.2916 268.987L1.2916 269.524L8.14273 269.524Z" fill="#6A7680"/>
<path d="M8.14273 266.616L8.14273 266.079L1.2916 266.079L1.2916 266.616L8.14273 266.616Z" fill="#6A7680"/>
<path d="M8.14273 263.701L8.14273 263.164L1.2916 263.164L1.2916 263.701L8.14273 263.701Z" fill="#6A7680"/>
<path d="M8.14267 310.185L8.14267 309.648L1.29154 309.648L1.29154 310.185L8.14267 310.185Z" fill="#6A7680"/>
<path d="M8.14267 313.1L8.14267 312.563L1.29154 312.563L1.29154 313.1L8.14267 313.1Z" fill="#6A7680"/>
<path d="M8.14267 316.007L8.14267 315.471L1.29154 315.471L1.29154 316.007L8.14267 316.007Z" fill="#6A7680"/>
<path d="M8.14267 318.922L8.14267 318.385L1.29154 318.385L1.29154 318.922L8.14267 318.922Z" fill="#6A7680"/>
<path d="M8.14267 321.83L8.14267 321.293L1.29154 321.293L1.29154 321.83L8.14267 321.83Z" fill="#6A7680"/>
<path d="M8.14267 324.745L8.14267 324.208L1.29154 324.208L1.29154 324.745L8.14267 324.745Z" fill="#6A7680"/>
<path d="M8.14267 327.653L8.14267 327.116L1.29154 327.116L1.29154 327.653L8.14267 327.653Z" fill="#6A7680"/>
<path d="M8.14267 307.277L8.14267 306.74L1.29154 306.74L1.29154 307.277L8.14267 307.277Z" fill="#6A7680"/>
<path d="M8.14267 304.362L8.14267 303.825L1.29154 303.825L1.29154 304.362L8.14267 304.362Z" fill="#6A7680"/>
<path d="M8.14267 301.454L8.14267 300.917L1.29154 300.917L1.29154 301.454L8.14267 301.454Z" fill="#6A7680"/>
<path d="M8.14267 298.54L8.14267 298.003L1.29154 298.003L1.29154 298.54L8.14267 298.54Z" fill="#6A7680"/>
<path d="M8.14267 345.023L8.14267 344.486L1.29154 344.486L1.29154 345.023L8.14267 345.023Z" fill="#6A7680"/>
<path d="M8.14267 347.938L8.14267 347.401L1.29154 347.401L1.29154 347.938L8.14267 347.938Z" fill="#6A7680"/>
<path d="M8.14267 350.846L8.14267 350.309L1.29154 350.309L1.29154 350.846L8.14267 350.846Z" fill="#6A7680"/>
<path d="M8.14267 353.761L8.14267 353.224L1.29154 353.224L1.29154 353.761L8.14267 353.761Z" fill="#6A7680"/>
<path d="M8.14267 356.668L8.14267 356.131L1.29154 356.131L1.29154 356.668L8.14267 356.668Z" fill="#6A7680"/>
<path d="M8.14267 359.583L8.14267 359.046L1.29154 359.046L1.29154 359.583L8.14267 359.583Z" fill="#6A7680"/>
<path d="M8.14267 362.498L8.14267 361.961L1.29154 361.961L1.29154 362.498L8.14267 362.498Z" fill="#6A7680"/>
<path d="M8.14267 342.115L8.14267 341.578L1.29154 341.578L1.29154 342.115L8.14267 342.115Z" fill="#6A7680"/>
<path d="M8.14267 339.2L8.14267 338.663L1.29154 338.663L1.29154 339.2L8.14267 339.2Z" fill="#6A7680"/>
<path d="M8.14267 336.293L8.14267 335.756L1.29154 335.756L1.29154 336.293L8.14267 336.293Z" fill="#6A7680"/>
<path d="M8.14267 333.378L8.14267 332.841L1.29154 332.841L1.29154 333.378L8.14267 333.378Z" fill="#6A7680"/>
<path d="M8.14267 379.861L8.14267 379.324L1.29154 379.324L1.29154 379.861L8.14267 379.861Z" fill="#6A7680"/>
<path d="M8.14267 382.776L8.14267 382.239L1.29154 382.239L1.29154 382.776L8.14267 382.776Z" fill="#6A7680"/>
<path d="M8.14267 385.684L8.14267 385.147L1.29154 385.147L1.29154 385.684L8.14267 385.684Z" fill="#6A7680"/>
<path d="M8.14267 388.599L8.14267 388.062L1.29154 388.062L1.29154 388.599L8.14267 388.599Z" fill="#6A7680"/>
<path d="M8.14267 391.507L8.14267 390.97L1.29154 390.97L1.29154 391.507L8.14267 391.507Z" fill="#6A7680"/>
<path d="M8.14267 394.421L8.14267 393.885L1.29154 393.885L1.29154 394.421L8.14267 394.421Z" fill="#6A7680"/>
<path d="M8.14267 397.336L8.14267 396.799L1.29154 396.799L1.29154 397.336L8.14267 397.336Z" fill="#6A7680"/>
<path d="M8.14267 376.953L8.14267 376.417L1.29154 376.417L1.29154 376.953L8.14267 376.953Z" fill="#6A7680"/>
<path d="M8.14267 374.039L8.14267 373.502L1.29154 373.502L1.29154 374.039L8.14267 374.039Z" fill="#6A7680"/>
<path d="M8.14267 371.131L8.14267 370.594L1.29154 370.594L1.29154 371.131L8.14267 371.131Z" fill="#6A7680"/>
<path d="M8.14267 368.216L8.14267 367.679L1.29154 367.679L1.29154 368.216L8.14267 368.216Z" fill="#6A7680"/>
<path d="M8.14267 414.7L8.14267 414.163L1.29154 414.163L1.29154 414.7L8.14267 414.7Z" fill="#6A7680"/>
<path d="M8.14267 417.614L8.14267 417.077L1.29154 417.077L1.29154 417.614L8.14267 417.614Z" fill="#6A7680"/>
<path d="M8.14267 420.522L8.14267 419.985L1.29154 419.985L1.29154 420.522L8.14267 420.522Z" fill="#6A7680"/>
<path d="M8.14267 423.437L8.14267 422.9L1.29154 422.9L1.29154 423.437L8.14267 423.437Z" fill="#6A7680"/>
<path d="M8.14267 426.352L8.14267 425.815L1.29154 425.815L1.29154 426.352L8.14267 426.352Z" fill="#6A7680"/>
<path d="M8.14267 429.26L8.14267 428.723L1.29154 428.723L1.29154 429.26L8.14267 429.26Z" fill="#6A7680"/>
<path d="M8.14267 432.175L8.14267 431.638L1.29154 431.638L1.29154 432.175L8.14267 432.175Z" fill="#6A7680"/>
<path d="M8.14267 411.792L8.14267 411.255L1.29154 411.255L1.29154 411.792L8.14267 411.792Z" fill="#6A7680"/>
<path d="M8.14267 408.877L8.14267 408.34L1.29154 408.34L1.29154 408.877L8.14267 408.877Z" fill="#6A7680"/>
<path d="M8.14267 405.969L8.14267 405.432L1.29154 405.432L1.29154 405.969L8.14267 405.969Z" fill="#6A7680"/>
<path d="M8.14267 403.054L8.14267 402.517L1.29154 402.517L1.29154 403.054L8.14267 403.054Z" fill="#6A7680"/>
<path d="M0.964968 295.708L2.03383 295.708L8.36166 262.767L7.2928 262.767L0.964968 295.708Z" fill="#6A7680"/>
<path d="M0.964968 259.761L2.03383 259.761L8.36166 226.827L7.2928 226.827L0.964968 259.761Z" fill="#6A7680"/>
<path d="M0.964968 329.842L2.03383 329.842L8.36166 296.901L7.2928 296.901L0.964968 329.842Z" fill="#6A7680"/>
<path d="M0.964968 363.976L2.03383 363.976L8.36166 331.035L7.2928 331.035L0.964968 363.976Z" fill="#6A7680"/>
<path d="M0.964968 399.142L2.03383 399.142L8.36166 366.201L7.2928 366.201L0.964968 399.142Z" fill="#6A7680"/>
<path d="M0.964968 433.485L2.03383 433.485L8.36166 400.544L7.2928 400.544L0.964968 433.485Z" fill="#6A7680"/>
<path d="M8.1167 226.827L8.1167 222.294L0.634644 222.294L0.634644 226.827L8.1167 226.827Z" fill="#6A7680"/>
<path d="M549.117 226.706L549.117 222.173L541.635 222.173L541.635 226.706L549.117 226.706Z" fill="#6A7680"/>
<path d="M549.117 192.105L549.117 187.572L541.635 187.572L541.635 192.105L549.117 192.105Z" fill="#6A7680"/>
<path d="M549.117 157.503L549.117 152.971L541.635 152.971L541.635 157.503L549.117 157.503Z" fill="#6A7680"/>
<path d="M549.117 122.909L549.117 118.377L541.635 118.377L541.635 122.909L549.117 122.909Z" fill="#6A7680"/>
<path d="M549.117 88.308L549.117 83.7754L541.635 83.7754L541.635 88.308L549.117 88.308Z" fill="#6A7680"/>
<path d="M549.117 53.7069L549.117 49.1743L541.635 49.1743L541.635 53.7069L549.117 53.7069Z" fill="#6A7680"/>
<path d="M542.603 226.706L542.603 12L541 12L541 226.706L542.603 226.706Z" fill="#6A7680"/>
<path d="M550 226.706L550 12L548.868 12L548.868 226.706L550 226.706Z" fill="#6A7680"/>
<path d="M549.143 30.214L549.143 29.6771L542.292 29.6771L542.292 30.214L549.143 30.214Z" fill="#6A7680"/>
<path d="M549.143 33.1289L549.143 32.592L542.292 32.592L542.292 33.1289L549.143 33.1289Z" fill="#6A7680"/>
<path d="M549.143 36.0367L549.143 35.4998L542.292 35.4998L542.292 36.0367L549.143 36.0367Z" fill="#6A7680"/>
<path d="M549.143 38.9515L549.143 38.4146L542.292 38.4146L542.292 38.9515L549.143 38.9515Z" fill="#6A7680"/>
<path d="M549.143 41.8594L549.143 41.3224L542.292 41.3224L542.292 41.8594L549.143 41.8594Z" fill="#6A7680"/>
<path d="M549.143 44.7742L549.143 44.2372L542.292 44.2372L542.292 44.7742L549.143 44.7742Z" fill="#6A7680"/>
<path d="M549.143 47.682L549.143 47.1451L542.292 47.1451L542.292 47.682L549.143 47.682Z" fill="#6A7680"/>
<path d="M549.143 27.2993L549.143 26.7623L542.292 26.7623L542.292 27.2993L549.143 27.2993Z" fill="#6A7680"/>
<path d="M549.143 24.3914L549.143 23.8544L542.292 23.8544L542.292 24.3914L549.143 24.3914Z" fill="#6A7680"/>
<path d="M549.143 21.4766L549.143 20.9397L542.292 20.9397L542.292 21.4766L549.143 21.4766Z" fill="#6A7680"/>
<path d="M549.143 18.5688L549.143 18.0319L542.292 18.0319L542.292 18.5688L549.143 18.5688Z" fill="#6A7680"/>
<path d="M549.143 65.0523L549.143 64.5153L542.292 64.5153L542.292 65.0523L549.143 65.0523Z" fill="#6A7680"/>
<path d="M549.143 67.9671L549.143 67.4302L542.292 67.4302L542.292 67.9671L549.143 67.9671Z" fill="#6A7680"/>
<path d="M549.143 70.8749L549.143 70.338L542.292 70.338L542.292 70.8749L549.143 70.8749Z" fill="#6A7680"/>
<path d="M549.143 73.7897L549.143 73.2528L542.292 73.2528L542.292 73.7897L549.143 73.7897Z" fill="#6A7680"/>
<path d="M549.143 76.6976L549.143 76.1606L542.292 76.1606L542.292 76.6976L549.143 76.6976Z" fill="#6A7680"/>
<path d="M549.143 79.6124L549.143 79.0754L542.292 79.0754L542.292 79.6124L549.143 79.6124Z" fill="#6A7680"/>
<path d="M549.143 82.5203L549.143 81.9833L542.292 81.9833L542.292 82.5203L549.143 82.5203Z" fill="#6A7680"/>
<path d="M549.143 62.1444L549.143 61.6075L542.292 61.6075L542.292 62.1444L549.143 62.1444Z" fill="#6A7680"/>
<path d="M549.143 59.2296L549.143 58.6927L542.292 58.6927L542.292 59.2296L549.143 59.2296Z" fill="#6A7680"/>
<path d="M549.143 56.3219L549.143 55.7849L542.292 55.7849L542.292 56.3219L549.143 56.3219Z" fill="#6A7680"/>
<path d="M549.143 53.407L549.143 52.8701L542.292 52.8701L542.292 53.407L549.143 53.407Z" fill="#6A7680"/>
<path d="M549.143 99.8906L549.143 99.3536L542.292 99.3536L542.292 99.8906L549.143 99.8906Z" fill="#6A7680"/>
<path d="M549.143 102.805L549.143 102.268L542.292 102.268L542.292 102.805L549.143 102.805Z" fill="#6A7680"/>
<path d="M549.143 105.713L549.143 105.176L542.292 105.176L542.292 105.713L549.143 105.713Z" fill="#6A7680"/>
<path d="M549.143 108.628L549.143 108.091L542.292 108.091L542.292 108.628L549.143 108.628Z" fill="#6A7680"/>
<path d="M549.143 111.536L549.143 110.999L542.292 110.999L542.292 111.536L549.143 111.536Z" fill="#6A7680"/>
<path d="M549.143 114.451L549.143 113.914L542.292 113.914L542.292 114.451L549.143 114.451Z" fill="#6A7680"/>
<path d="M549.143 117.359L549.143 116.822L542.292 116.822L542.292 117.359L549.143 117.359Z" fill="#6A7680"/>
<path d="M549.143 96.9827L549.143 96.4458L542.292 96.4458L542.292 96.9827L549.143 96.9827Z" fill="#6A7680"/>
<path d="M549.143 94.0679L549.143 93.5309L542.292 93.5309L542.292 94.0679L549.143 94.0679Z" fill="#6A7680"/>
<path d="M549.143 91.1601L549.143 90.6232L542.292 90.6232L542.292 91.1601L549.143 91.1601Z" fill="#6A7680"/>
<path d="M549.143 88.2453L549.143 87.7084L542.292 87.7084L542.292 88.2453L549.143 88.2453Z" fill="#6A7680"/>
<path d="M549.143 134.729L549.143 134.192L542.292 134.192L542.292 134.729L549.143 134.729Z" fill="#6A7680"/>
<path d="M549.143 137.644L549.143 137.107L542.292 137.107L542.292 137.644L549.143 137.644Z" fill="#6A7680"/>
<path d="M549.143 140.551L549.143 140.014L542.292 140.014L542.292 140.551L549.143 140.551Z" fill="#6A7680"/>
<path d="M549.143 143.466L549.143 142.929L542.292 142.929L542.292 143.466L549.143 143.466Z" fill="#6A7680"/>
<path d="M549.143 146.374L549.143 145.837L542.292 145.837L542.292 146.374L549.143 146.374Z" fill="#6A7680"/>
<path d="M549.143 149.289L549.143 148.752L542.292 148.752L542.292 149.289L549.143 149.289Z" fill="#6A7680"/>
<path d="M549.143 152.204L549.143 151.667L542.292 151.667L542.292 152.204L549.143 152.204Z" fill="#6A7680"/>
<path d="M549.143 131.821L549.143 131.284L542.292 131.284L542.292 131.821L549.143 131.821Z" fill="#6A7680"/>
<path d="M549.143 128.906L549.143 128.369L542.292 128.369L542.292 128.906L549.143 128.906Z" fill="#6A7680"/>
<path d="M549.143 125.998L549.143 125.461L542.292 125.461L542.292 125.998L549.143 125.998Z" fill="#6A7680"/>
<path d="M549.143 123.084L549.143 122.547L542.292 122.547L542.292 123.084L549.143 123.084Z" fill="#6A7680"/>
<path d="M549.143 169.567L549.143 169.03L542.292 169.03L542.292 169.567L549.143 169.567Z" fill="#6A7680"/>
<path d="M549.143 172.482L549.143 171.945L542.292 171.945L542.292 172.482L549.143 172.482Z" fill="#6A7680"/>
<path d="M549.143 175.39L549.143 174.853L542.292 174.853L542.292 175.39L549.143 175.39Z" fill="#6A7680"/>
<path d="M549.143 178.305L549.143 177.768L542.292 177.768L542.292 178.305L549.143 178.305Z" fill="#6A7680"/>
<path d="M549.143 181.212L549.143 180.676L542.292 180.676L542.292 181.212L549.143 181.212Z" fill="#6A7680"/>
<path d="M549.143 184.127L549.143 183.59L542.292 183.59L542.292 184.127L549.143 184.127Z" fill="#6A7680"/>
<path d="M549.143 187.042L549.143 186.505L542.292 186.505L542.292 187.042L549.143 187.042Z" fill="#6A7680"/>
<path d="M549.143 166.659L549.143 166.122L542.292 166.122L542.292 166.659L549.143 166.659Z" fill="#6A7680"/>
<path d="M549.143 163.744L549.143 163.207L542.292 163.207L542.292 163.744L549.143 163.744Z" fill="#6A7680"/>
<path d="M549.143 160.837L549.143 160.3L542.292 160.3L542.292 160.837L549.143 160.837Z" fill="#6A7680"/>
<path d="M549.143 157.922L549.143 157.385L542.292 157.385L542.292 157.922L549.143 157.922Z" fill="#6A7680"/>
<path d="M549.143 204.405L549.143 203.868L542.292 203.868L542.292 204.405L549.143 204.405Z" fill="#6A7680"/>
<path d="M549.143 207.32L549.143 206.783L542.292 206.783L542.292 207.32L549.143 207.32Z" fill="#6A7680"/>
<path d="M549.143 210.228L549.143 209.691L542.292 209.691L542.292 210.228L549.143 210.228Z" fill="#6A7680"/>
<path d="M549.143 213.143L549.143 212.606L542.292 212.606L542.292 213.143L549.143 213.143Z" fill="#6A7680"/>
<path d="M549.143 216.058L549.143 215.521L542.292 215.521L542.292 216.058L549.143 216.058Z" fill="#6A7680"/>
<path d="M549.143 218.965L549.143 218.428L542.292 218.428L542.292 218.965L549.143 218.965Z" fill="#6A7680"/>
<path d="M549.143 221.88L549.143 221.343L542.292 221.343L542.292 221.88L549.143 221.88Z" fill="#6A7680"/>
<path d="M549.143 201.498L549.143 200.961L542.292 200.961L542.292 201.498L549.143 201.498Z" fill="#6A7680"/>
<path d="M549.143 198.583L549.143 198.046L542.292 198.046L542.292 198.583L549.143 198.583Z" fill="#6A7680"/>
<path d="M549.143 195.675L549.143 195.138L542.292 195.138L542.292 195.675L549.143 195.675Z" fill="#6A7680"/>
<path d="M549.143 192.76L549.143 192.223L542.292 192.223L542.292 192.76L549.143 192.76Z" fill="#6A7680"/>
<path d="M541.965 85.4141L543.034 85.4141L549.362 52.4725L548.293 52.4725L541.965 85.4141Z" fill="#6A7680"/>
<path d="M541.965 49.4672L543.034 49.4672L549.362 16.5326L548.293 16.5326L541.965 49.4672Z" fill="#6A7680"/>
<path d="M541.965 119.548L543.034 119.548L549.362 86.6065L548.293 86.6065L541.965 119.548Z" fill="#6A7680"/>
<path d="M541.965 153.682L543.034 153.682L549.362 120.74L548.293 120.74L541.965 153.682Z" fill="#6A7680"/>
<path d="M541.965 188.848L543.034 188.848L549.362 155.906L548.293 155.906L541.965 188.848Z" fill="#6A7680"/>
<path d="M541.965 223.191L543.034 223.191L549.362 190.25L548.293 190.25L541.965 223.191Z" fill="#6A7680"/>
<path d="M549.117 16.5326L549.117 12L541.635 12L541.635 16.5326L549.117 16.5326Z" fill="#6A7680"/>
<path d="M549.117 437L549.117 432.467L541.635 432.467L541.635 437L549.117 437Z" fill="#6A7680"/>
<path d="M549.117 402.399L549.117 397.866L541.635 397.866L541.635 402.399L549.117 402.399Z" fill="#6A7680"/>
<path d="M549.117 367.798L549.117 363.265L541.635 363.265L541.635 367.798L549.117 367.798Z" fill="#6A7680"/>
<path d="M549.117 333.203L549.117 328.671L541.635 328.671L541.635 333.203L549.117 333.203Z" fill="#6A7680"/>
<path d="M549.117 298.602L549.117 294.07L541.635 294.07L541.635 298.602L549.117 298.602Z" fill="#6A7680"/>
<path d="M549.117 264.001L549.117 259.469L541.635 259.469L541.635 264.001L549.117 264.001Z" fill="#6A7680"/>
<path d="M542.603 437L542.603 222.294L541 222.294L541 437L542.603 437Z" fill="#6A7680"/>
<path d="M550 437L550 222.294L548.868 222.294L548.868 437L550 437Z" fill="#6A7680"/>
<path d="M549.143 240.508L549.143 239.971L542.292 239.971L542.292 240.508L549.143 240.508Z" fill="#6A7680"/>
<path d="M549.143 243.423L549.143 242.886L542.292 242.886L542.292 243.423L549.143 243.423Z" fill="#6A7680"/>
<path d="M549.143 246.331L549.143 245.794L542.292 245.794L542.292 246.331L549.143 246.331Z" fill="#6A7680"/>
<path d="M549.143 249.246L549.143 248.709L542.292 248.709L542.292 249.246L549.143 249.246Z" fill="#6A7680"/>
<path d="M549.143 252.154L549.143 251.617L542.292 251.617L542.292 252.154L549.143 252.154Z" fill="#6A7680"/>
<path d="M549.143 255.068L549.143 254.531L542.292 254.531L542.292 255.068L549.143 255.068Z" fill="#6A7680"/>
<path d="M549.143 257.976L549.143 257.439L542.292 257.439L542.292 257.976L549.143 257.976Z" fill="#6A7680"/>
<path d="M549.143 237.594L549.143 237.057L542.292 237.057L542.292 237.594L549.143 237.594Z" fill="#6A7680"/>
<path d="M549.143 234.686L549.143 234.149L542.292 234.149L542.292 234.686L549.143 234.686Z" fill="#6A7680"/>
<path d="M549.143 231.771L549.143 231.234L542.292 231.234L542.292 231.771L549.143 231.771Z" fill="#6A7680"/>
<path d="M549.143 228.863L549.143 228.326L542.292 228.326L542.292 228.863L549.143 228.863Z" fill="#6A7680"/>
<path d="M549.143 275.347L549.143 274.81L542.292 274.81L542.292 275.347L549.143 275.347Z" fill="#6A7680"/>
<path d="M549.143 278.261L549.143 277.725L542.292 277.725L542.292 278.261L549.143 278.261Z" fill="#6A7680"/>
<path d="M549.143 281.169L549.143 280.632L542.292 280.632L542.292 281.169L549.143 281.169Z" fill="#6A7680"/>
<path d="M549.143 284.084L549.143 283.547L542.292 283.547L542.292 284.084L549.143 284.084Z" fill="#6A7680"/>
<path d="M549.143 286.992L549.143 286.455L542.292 286.455L542.292 286.992L549.143 286.992Z" fill="#6A7680"/>
<path d="M549.143 289.907L549.143 289.37L542.292 289.37L542.292 289.907L549.143 289.907Z" fill="#6A7680"/>
<path d="M549.143 292.815L549.143 292.278L542.292 292.278L542.292 292.815L549.143 292.815Z" fill="#6A7680"/>
<path d="M549.143 272.439L549.143 271.902L542.292 271.902L542.292 272.439L549.143 272.439Z" fill="#6A7680"/>
<path d="M549.143 269.524L549.143 268.987L542.292 268.987L542.292 269.524L549.143 269.524Z" fill="#6A7680"/>
<path d="M549.143 266.616L549.143 266.079L542.292 266.079L542.292 266.616L549.143 266.616Z" fill="#6A7680"/>
<path d="M549.143 263.701L549.143 263.164L542.292 263.164L542.292 263.701L549.143 263.701Z" fill="#6A7680"/>
<path d="M549.143 310.185L549.143 309.648L542.292 309.648L542.292 310.185L549.143 310.185Z" fill="#6A7680"/>
<path d="M549.143 313.1L549.143 312.563L542.292 312.563L542.292 313.1L549.143 313.1Z" fill="#6A7680"/>
<path d="M549.143 316.007L549.143 315.471L542.292 315.471L542.292 316.007L549.143 316.007Z" fill="#6A7680"/>
<path d="M549.143 318.922L549.143 318.385L542.292 318.385L542.292 318.922L549.143 318.922Z" fill="#6A7680"/>
<path d="M549.143 321.83L549.143 321.293L542.292 321.293L542.292 321.83L549.143 321.83Z" fill="#6A7680"/>
<path d="M549.143 324.745L549.143 324.208L542.292 324.208L542.292 324.745L549.143 324.745Z" fill="#6A7680"/>
<path d="M549.143 327.653L549.143 327.116L542.292 327.116L542.292 327.653L549.143 327.653Z" fill="#6A7680"/>
<path d="M549.143 307.277L549.143 306.74L542.292 306.74L542.292 307.277L549.143 307.277Z" fill="#6A7680"/>
<path d="M549.143 304.362L549.143 303.825L542.292 303.825L542.292 304.362L549.143 304.362Z" fill="#6A7680"/>
<path d="M549.143 301.454L549.143 300.917L542.292 300.917L542.292 301.454L549.143 301.454Z" fill="#6A7680"/>
<path d="M549.143 298.54L549.143 298.003L542.292 298.003L542.292 298.54L549.143 298.54Z" fill="#6A7680"/>
<path d="M549.143 345.023L549.143 344.486L542.292 344.486L542.292 345.023L549.143 345.023Z" fill="#6A7680"/>
<path d="M549.143 347.938L549.143 347.401L542.292 347.401L542.292 347.938L549.143 347.938Z" fill="#6A7680"/>
<path d="M549.143 350.846L549.143 350.309L542.292 350.309L542.292 350.846L549.143 350.846Z" fill="#6A7680"/>
<path d="M549.143 353.761L549.143 353.224L542.292 353.224L542.292 353.761L549.143 353.761Z" fill="#6A7680"/>
<path d="M549.143 356.668L549.143 356.131L542.292 356.131L542.292 356.668L549.143 356.668Z" fill="#6A7680"/>
<path d="M549.143 359.583L549.143 359.046L542.292 359.046L542.292 359.583L549.143 359.583Z" fill="#6A7680"/>
<path d="M549.143 362.498L549.143 361.961L542.292 361.961L542.292 362.498L549.143 362.498Z" fill="#6A7680"/>
<path d="M549.143 342.115L549.143 341.578L542.292 341.578L542.292 342.115L549.143 342.115Z" fill="#6A7680"/>
<path d="M549.143 339.2L549.143 338.663L542.292 338.663L542.292 339.2L549.143 339.2Z" fill="#6A7680"/>
<path d="M549.143 336.293L549.143 335.756L542.292 335.756L542.292 336.293L549.143 336.293Z" fill="#6A7680"/>
<path d="M549.143 333.378L549.143 332.841L542.292 332.841L542.292 333.378L549.143 333.378Z" fill="#6A7680"/>
<path d="M549.143 379.861L549.143 379.324L542.292 379.324L542.292 379.861L549.143 379.861Z" fill="#6A7680"/>
<path d="M549.143 382.776L549.143 382.239L542.292 382.239L542.292 382.776L549.143 382.776Z" fill="#6A7680"/>
<path d="M549.143 385.684L549.143 385.147L542.292 385.147L542.292 385.684L549.143 385.684Z" fill="#6A7680"/>
<path d="M549.143 388.599L549.143 388.062L542.292 388.062L542.292 388.599L549.143 388.599Z" fill="#6A7680"/>
<path d="M549.143 391.507L549.143 390.97L542.292 390.97L542.292 391.507L549.143 391.507Z" fill="#6A7680"/>
<path d="M549.143 394.421L549.143 393.885L542.292 393.885L542.292 394.421L549.143 394.421Z" fill="#6A7680"/>
<path d="M549.143 397.336L549.143 396.799L542.292 396.799L542.292 397.336L549.143 397.336Z" fill="#6A7680"/>
<path d="M549.143 376.953L549.143 376.417L542.292 376.417L542.292 376.953L549.143 376.953Z" fill="#6A7680"/>
<path d="M549.143 374.039L549.143 373.502L542.292 373.502L542.292 374.039L549.143 374.039Z" fill="#6A7680"/>
<path d="M549.143 371.131L549.143 370.594L542.292 370.594L542.292 371.131L549.143 371.131Z" fill="#6A7680"/>
<path d="M549.143 368.216L549.143 367.679L542.292 367.679L542.292 368.216L549.143 368.216Z" fill="#6A7680"/>
<path d="M549.143 414.7L549.143 414.163L542.292 414.163L542.292 414.7L549.143 414.7Z" fill="#6A7680"/>
<path d="M549.143 417.614L549.143 417.077L542.292 417.077L542.292 417.614L549.143 417.614Z" fill="#6A7680"/>
<path d="M549.143 420.522L549.143 419.985L542.292 419.985L542.292 420.522L549.143 420.522Z" fill="#6A7680"/>
<path d="M549.143 423.437L549.143 422.9L542.292 422.9L542.292 423.437L549.143 423.437Z" fill="#6A7680"/>
<path d="M549.143 426.352L549.143 425.815L542.292 425.815L542.292 426.352L549.143 426.352Z" fill="#6A7680"/>
<path d="M549.143 429.26L549.143 428.723L542.292 428.723L542.292 429.26L549.143 429.26Z" fill="#6A7680"/>
<path d="M549.143 432.175L549.143 431.638L542.292 431.638L542.292 432.175L549.143 432.175Z" fill="#6A7680"/>
<path d="M549.143 411.792L549.143 411.255L542.292 411.255L542.292 411.792L549.143 411.792Z" fill="#6A7680"/>
<path d="M549.143 408.877L549.143 408.34L542.292 408.34L542.292 408.877L549.143 408.877Z" fill="#6A7680"/>
<path d="M549.143 405.969L549.143 405.432L542.292 405.432L542.292 405.969L549.143 405.969Z" fill="#6A7680"/>
<path d="M549.143 403.054L549.143 402.517L542.292 402.517L542.292 403.054L549.143 403.054Z" fill="#6A7680"/>
<path d="M541.965 295.708L543.034 295.708L549.362 262.767L548.293 262.767L541.965 295.708Z" fill="#6A7680"/>
<path d="M541.965 259.761L543.034 259.761L549.362 226.827L548.293 226.827L541.965 259.761Z" fill="#6A7680"/>
<path d="M541.965 329.842L543.034 329.842L549.362 296.901L548.293 296.901L541.965 329.842Z" fill="#6A7680"/>
<path d="M541.965 363.976L543.034 363.976L549.362 331.035L548.293 331.035L541.965 363.976Z" fill="#6A7680"/>
<path d="M541.965 399.142L543.034 399.142L549.362 366.201L548.293 366.201L541.965 399.142Z" fill="#6A7680"/>
<path d="M541.965 433.485L543.034 433.485L549.362 400.544L548.293 400.544L541.965 433.485Z" fill="#6A7680"/>
<path d="M549.117 226.827L549.117 222.294L541.635 222.294L541.635 226.827L549.117 226.827Z" fill="#6A7680"/>
</g>
<defs>
<clipPath id="clip0_24_19242">
<rect width="550" height="450" fill="white"/>
</clipPath>
</defs>
</svg>
