<svg width="50" height="50" viewBox="0 0 50 50" fill="none" xmlns="http://www.w3.org/2000/svg">
<path d="M50 0H0V50H50V0Z" fill="#D1D1CF"/>
<path d="M3.30188 4.71701H2.35849C1.83746 4.71701 1.4151 5.13937 1.4151 5.6604V6.60379C1.4151 7.12482 1.83746 7.5472 2.35849 7.5472H3.30188C3.82291 7.5472 4.24529 7.12482 4.24529 6.60379V5.6604C4.24529 5.13937 3.82291 4.71701 3.30188 4.71701Z" fill="#B5B4B0" fill-opacity="0.6"/>
<path d="M19.3396 12.2642H18.3962C17.8752 12.2642 17.4528 12.6866 17.4528 13.2076V14.151C17.4528 14.672 17.8752 15.0944 18.3962 15.0944H19.3396C19.8606 15.0944 20.283 14.672 20.283 14.151V13.2076C20.283 12.6866 19.8606 12.2642 19.3396 12.2642Z" fill="#B5B4B0" fill-opacity="0.6"/>
<path d="M24.6613 19.8113H20.15C19.7024 19.8113 19.3396 20.175 19.3396 20.6236V20.6322C19.3396 21.0808 19.7024 21.4445 20.15 21.4445H24.6613C25.1088 21.4445 25.4717 21.0808 25.4717 20.6322V20.6236C25.4717 20.175 25.1088 19.8113 24.6613 19.8113Z" fill="#B5B4B0" fill-opacity="0.6"/>
<path d="M16.1707 8.4906H11.6595C11.2119 8.4906 10.8491 8.85425 10.8491 9.30284V9.31149C10.8491 9.76008 11.2119 10.1237 11.6595 10.1237H16.1707C16.6183 10.1237 16.9811 9.76008 16.9811 9.31149V9.30284C16.9811 8.85425 16.6183 8.4906 16.1707 8.4906Z" fill="#B5B4B0" fill-opacity="0.6"/>
<path d="M11.4538 38.6792H6.9425C6.49492 38.6792 6.13208 39.0429 6.13208 39.4915V39.5001C6.13208 39.9487 6.49492 40.3124 6.9425 40.3124H11.4538C11.9013 40.3124 12.2642 39.9487 12.2642 39.5001V39.4915C12.2642 39.0429 11.9013 38.6792 11.4538 38.6792Z" fill="#B5B4B0" fill-opacity="0.6"/>
<path d="M42.5858 44.3396H38.0746C37.627 44.3396 37.2642 44.7033 37.2642 45.1519V45.1605C37.2642 45.6091 37.627 45.9728 38.0746 45.9728H42.5858C43.0334 45.9728 43.3962 45.6091 43.3962 45.1605V45.1519C43.3962 44.7033 43.0334 44.3396 42.5858 44.3396Z" fill="#B5B4B0" fill-opacity="0.6"/>
<path d="M25 0.94342H24.0566C23.5356 0.94342 23.1132 1.3658 23.1132 1.88683V2.83022C23.1132 3.35124 23.5356 3.77362 24.0566 3.77362H25C25.521 3.77362 25.9434 3.35124 25.9434 2.83022V1.88683C25.9434 1.3658 25.521 0.94342 25 0.94342Z" fill="#B5B4B0" fill-opacity="0.6"/>
<path d="M5.18866 31.1321H4.24527C3.72424 31.1321 3.30188 31.5545 3.30188 32.0755V33.0189C3.30188 33.5399 3.72424 33.9623 4.24527 33.9623H5.18866C5.70969 33.9623 6.13206 33.5399 6.13206 33.0189V32.0755C6.13206 31.5545 5.70969 31.1321 5.18866 31.1321Z" fill="#B5B4B0" fill-opacity="0.6"/>
<path d="M38.2075 21.6981H37.2641C36.7431 21.6981 36.3207 22.1205 36.3207 22.6415V23.5849C36.3207 24.1059 36.7431 24.5283 37.2641 24.5283H38.2075C38.7285 24.5283 39.1509 24.1059 39.1509 23.5849V22.6415C39.1509 22.1205 38.7285 21.6981 38.2075 21.6981Z" fill="#B5B4B0" fill-opacity="0.6"/>
<path d="M47.6415 24.5283H46.6981C46.1771 24.5283 45.7547 24.9507 45.7547 25.4717V26.4151C45.7547 26.9361 46.1771 27.3585 46.6981 27.3585H47.6415C48.1625 27.3585 48.5849 26.9361 48.5849 26.4151V25.4717C48.5849 24.9507 48.1625 24.5283 47.6415 24.5283Z" fill="#B5B4B0" fill-opacity="0.6"/>
<path d="M32.5472 10.3774H31.6038C31.0828 10.3774 30.6604 10.7998 30.6604 11.3208V12.2642C30.6604 12.7852 31.0828 13.2076 31.6038 13.2076H32.5472C33.0682 13.2076 33.4906 12.7852 33.4906 12.2642V11.3208C33.4906 10.7998 33.0682 10.3774 32.5472 10.3774Z" fill="#B5B4B0" fill-opacity="0.6"/>
<path d="M20.283 25.4717H19.3396C18.8185 25.4717 18.3962 25.8941 18.3962 26.4151V27.3585C18.3962 27.8795 18.8185 28.3019 19.3396 28.3019H20.283C20.804 28.3019 21.2264 27.8795 21.2264 27.3585V26.4151C21.2264 25.8941 20.804 25.4717 20.283 25.4717Z" fill="#B5B4B0" fill-opacity="0.6"/>
<path d="M6.1321 17.9245H5.18869C4.66766 17.9245 4.2453 18.3469 4.2453 18.8679V19.8113C4.2453 20.3323 4.66766 20.7547 5.18869 20.7547H6.1321C6.65312 20.7547 7.07549 20.3323 7.07549 19.8113V18.8679C7.07549 18.3469 6.65312 17.9245 6.1321 17.9245Z" fill="#B5B4B0" fill-opacity="0.6"/>
<path d="M13.6792 46.2264H12.7358C12.2148 46.2264 11.7924 46.6488 11.7924 47.1698V48.1132C11.7924 48.6343 12.2148 49.0566 12.7358 49.0566H13.6792C14.2002 49.0566 14.6226 48.6343 14.6226 48.1132V47.1698C14.6226 46.6488 14.2002 46.2264 13.6792 46.2264Z" fill="#B5B4B0" fill-opacity="0.6"/>
<path d="M30.6604 33.0189H29.717C29.196 33.0189 28.7736 33.4413 28.7736 33.9623V34.9057C28.7736 35.4267 29.196 35.8491 29.717 35.8491H30.6604C31.1814 35.8491 31.6038 35.4267 31.6038 34.9057V33.9623C31.6038 33.4413 31.1814 33.0189 30.6604 33.0189Z" fill="#B5B4B0" fill-opacity="0.6"/>
<path d="M23.1132 43.3962H22.1698C21.6487 43.3962 21.2264 43.8186 21.2264 44.3396V45.283C21.2264 45.8041 21.6487 46.2264 22.1698 46.2264H23.1132C23.6342 46.2264 24.0566 45.8041 24.0566 45.283V44.3396C24.0566 43.8186 23.6342 43.3962 23.1132 43.3962Z" fill="#B5B4B0" fill-opacity="0.6"/>
<path d="M26.8868 4.71701C27.4078 4.71701 27.8302 5.13937 27.8302 5.6604C27.8302 6.18142 27.4078 6.60379 26.8868 6.60379C26.3658 6.60379 25.9434 6.18143 25.9434 5.6604C25.9434 5.13938 26.3657 4.71701 26.8868 4.71701Z" fill="#B5B4B0" fill-opacity="0.6"/>
<path d="M8.01883 29.2453C8.53985 29.2453 8.96222 29.6677 8.96222 30.1887C8.96222 30.7097 8.53985 31.1321 8.01883 31.1321C7.49781 31.1321 7.07544 30.7098 7.07544 30.1887C7.07544 29.6677 7.49781 29.2453 8.01883 29.2453Z" fill="#B5B4B0" fill-opacity="0.6"/>
<path d="M20.283 41.5094C20.804 41.5094 21.2264 41.9318 21.2264 42.4528C21.2264 42.9738 20.804 43.3962 20.283 43.3962C19.762 43.3962 19.3396 42.9738 19.3396 42.4528C19.3396 41.9318 19.762 41.5094 20.283 41.5094Z" fill="#B5B4B0" fill-opacity="0.6"/>
<path d="M4.24529 45.283C4.7663 45.283 5.18867 45.7054 5.18867 46.2264C5.18867 46.7474 4.76631 47.1698 4.24529 47.1698C3.72427 47.1698 3.30188 46.7474 3.30188 46.2264C3.30188 45.7054 3.72426 45.283 4.24529 45.283Z" fill="#B5B4B0" fill-opacity="0.6"/>
<path d="M43.8679 33.0189C43.8679 32.4979 43.4455 32.0755 42.9245 32.0755C42.4035 32.0755 41.9811 32.4979 41.9811 33.0189V33.0189C41.9811 33.5399 42.4035 33.9623 42.9245 33.9623C43.4455 33.9623 43.8679 33.5399 43.8679 33.0189V33.0189Z" fill="#B5B4B0" fill-opacity="0.6"/>
<path d="M33.4906 41.5094C33.4906 40.9884 33.0682 40.566 32.5472 40.566C32.0262 40.566 31.6038 40.9884 31.6038 41.5094V41.5094C31.6038 42.0305 32.0262 42.4528 32.5472 42.4528C33.0682 42.4528 33.4906 42.0305 33.4906 41.5094V41.5094Z" fill="#B5B4B0" fill-opacity="0.6"/>
<path d="M17.4528 33.9623C17.9738 33.9623 18.3962 34.3847 18.3962 34.9057C18.3962 35.4268 17.9738 35.8491 17.4528 35.8491C16.9318 35.8491 16.5094 35.4268 16.5094 34.9057C16.5094 34.3847 16.9318 33.9623 17.4528 33.9623Z" fill="#B5B4B0" fill-opacity="0.6"/>
<path d="M41.0378 19.8113C41.5588 19.8113 41.9812 20.2337 41.9812 20.7547C41.9812 21.2758 41.5588 21.6981 41.0378 21.6981C40.5168 21.6981 40.0944 21.2758 40.0944 20.7547C40.0944 20.2337 40.5168 19.8113 41.0378 19.8113Z" fill="#B5B4B0" fill-opacity="0.6"/>
<path d="M42.9245 6.60379C43.4455 6.60379 43.8679 7.02617 43.8679 7.5472C43.8679 8.06822 43.4455 8.49059 42.9245 8.49059C42.4035 8.49059 41.9811 8.06821 41.9811 7.54718C41.9811 7.02616 42.4035 6.60379 42.9245 6.60379Z" fill="#B5B4B0" fill-opacity="0.6"/>
</svg>
