<svg width="45" height="45" viewBox="0 0 45 45" fill="none" xmlns="http://www.w3.org/2000/svg">
<path opacity="0.5" d="M38.2524 30.9065H5.89675C4.8492 30.9065 4 31.7557 4 32.8032C4 33.8508 4.8492 34.7 5.89675 34.7H38.2524C39.3 34.7 40.1492 33.8508 40.1492 32.8032C40.1492 31.7557 39.3 30.9065 38.2524 30.9065Z" fill="#999895"/>
<path d="M32.5428 20.8979C32.773 20.8979 32.9598 21.0849 32.9598 21.3151V27.382H32.1257V21.3151C32.1257 21.0849 32.3126 20.8979 32.5428 20.8979Z" fill="#333132"/>
<path d="M13.2868 30.0917C13.5251 30.0917 13.7041 29.8807 13.6744 29.6442C13.4544 27.891 11.9582 26.5347 10.1453 26.5347C8.33243 26.5347 6.83631 27.891 6.61626 29.6442C6.58658 29.8807 6.7656 30.0917 7.00391 30.0917H13.2868Z" fill="#44515C"/>
<path d="M10.1453 32.9044C11.6987 32.9044 12.9579 31.6452 12.9579 30.0918C12.9579 28.5384 11.6987 27.2791 10.1453 27.2791C8.59193 27.2791 7.33267 28.5384 7.33267 30.0918C7.33267 31.6452 8.59193 32.9044 10.1453 32.9044Z" fill="#333132"/>
<path d="M10.1453 31.39C10.8624 31.39 11.4437 30.8088 11.4437 30.0917C11.4437 29.3746 10.8624 28.7933 10.1453 28.7933C9.42825 28.7933 8.84695 29.3746 8.84695 30.0917C8.84695 30.8088 9.42825 31.39 10.1453 31.39Z" fill="#D1D3D4"/>
<path d="M13.27 30.4135H7.51111C7.51111 29.9527 7.88465 29.5792 8.34544 29.5792H13.27V30.4135Z" fill="#909AA7"/>
<path d="M26.8799 30.5813C26.7873 30.5813 26.7121 30.5062 26.7121 30.4136V19.9404C26.7121 19.8478 26.7873 19.7726 26.8799 19.7726C26.9725 19.7726 27.0477 19.8478 27.0477 19.9404V30.4136C27.0477 30.5062 26.9725 30.5813 26.8799 30.5813Z" fill="#333132"/>
<path d="M30.9005 30.5813C30.8078 30.5813 30.7327 30.5062 30.7327 30.4136V19.2462C30.7327 19.1536 30.8078 19.0784 30.9005 19.0784C30.9931 19.0784 31.0683 19.1536 31.0683 19.2462V30.4136C31.0683 30.5062 30.9931 30.5813 30.9005 30.5813Z" fill="#333132"/>
<path d="M11.026 28.012C10.9334 28.012 10.8582 27.9368 10.8582 27.8442V16.3317L4.88952 10.3629C4.82398 10.2974 4.82398 10.1912 4.88952 10.1257C4.95506 10.0601 5.06123 10.0601 5.12677 10.1257L11.1446 16.1436C11.1761 16.175 11.1938 16.2177 11.1938 16.2622V27.8442C11.1938 27.9368 11.1186 28.012 11.026 28.012Z" fill="#333132"/>
<path d="M11.026 16.8169C11.3323 16.8169 11.5807 16.5686 11.5807 16.2622C11.5807 15.9558 11.3323 15.7075 11.026 15.7075C10.7196 15.7075 10.4713 15.9558 10.4713 16.2622C10.4713 16.5686 10.7196 16.8169 11.026 16.8169Z" fill="#999B9E"/>
<path d="M11.026 16.5557C11.1881 16.5557 11.3195 16.4243 11.3195 16.2622C11.3195 16.1001 11.1881 15.9688 11.026 15.9688C10.8639 15.9688 10.7325 16.1001 10.7325 16.2622C10.7325 16.4243 10.8639 16.5557 11.026 16.5557Z" fill="#333132"/>
<path d="M27.2087 30.0917C27.447 30.0917 27.626 29.8807 27.5963 29.6442C27.3763 27.891 25.8802 26.5347 24.0673 26.5347C22.2544 26.5347 20.7582 27.891 20.5382 29.6442C20.5085 29.8807 20.6875 30.0917 20.9258 30.0917H27.2087Z" fill="#44515C"/>
<path d="M24.0673 32.9044C25.6206 32.9044 26.8799 31.6452 26.8799 30.0918C26.8799 28.5384 25.6206 27.2791 24.0673 27.2791C22.5139 27.2791 21.2546 28.5384 21.2546 30.0918C21.2546 31.6452 22.5139 32.9044 24.0673 32.9044Z" fill="#333132"/>
<path d="M24.0673 31.39C24.7843 31.39 25.3656 30.8088 25.3656 30.0917C25.3656 29.3746 24.7843 28.7933 24.0673 28.7933C23.3502 28.7933 22.7689 29.3746 22.7689 30.0917C22.7689 30.8088 23.3502 31.39 24.0673 31.39Z" fill="#D1D3D4"/>
<path d="M36.0067 30.0413H15.3441V30.7859H36.0067V30.0413Z" fill="#333132"/>
<path d="M31.676 23.2872H26.3597C25.7467 23.2872 25.25 23.7838 25.25 24.3968V28.2379C25.25 28.4571 25.0733 28.6338 24.8563 28.6338H22.664C21.8877 28.6338 21.2568 29.2647 21.2568 30.041H31.676V23.2872Z" fill="#333132"/>
<path d="M32.4681 23.2872H30.424C29.811 23.2872 29.3144 23.7838 29.3144 24.3968V28.2379C29.3144 28.4571 29.1376 28.6338 28.9206 28.6338H26.7283C25.952 28.6338 25.3212 29.2647 25.3212 30.041H32.4681V23.2872Z" fill="#9AA2AE"/>
<path d="M13.096 9C13.096 9 13.1117 10.7718 12.0178 12.8747C11.5882 13.7024 10.9865 14.5793 10.1453 15.4205C7.16325 18.4003 4 18.3108 4 18.3108L5.47649 16.8008L8.46525 13.7404L11.5166 10.6174V10.6152L13.096 9Z" fill="#333132"/>
<path d="M12.0178 12.8747C11.5882 13.7024 10.9864 14.5793 10.1453 15.4205L8.46524 13.7404L11.5166 10.6174L12.0178 12.8747Z" fill="#C2C4C6"/>
<path d="M10.1453 15.4205L5.47647 16.8008L8.46523 13.7404L10.1453 15.4205Z" fill="#999B9E"/>
<path d="M13.096 9C13.096 9 13.1273 12.4384 10.1453 15.4205L11.5166 10.6174V10.6152L13.096 9Z" fill="#E4E5E6"/>
<path d="M20.535 26.5347H22.4201C22.7951 26.5347 23.099 26.2308 23.099 25.8558C23.099 25.4809 22.7951 25.1769 22.4201 25.1769H20.535V26.5347Z" fill="#E4E5E6"/>
<path d="M11.0259 27.0782C10.9829 27.0782 10.9463 27.0452 10.9425 27.0016C10.9384 26.9555 10.9726 26.9147 11.0188 26.9108C11.0669 26.9066 15.8528 26.4655 18.4193 23.9537C18.4524 23.9215 18.5054 23.9219 18.5379 23.955C18.5703 23.9881 18.5697 24.0412 18.5366 24.0737C15.9268 26.628 11.0818 27.0738 11.0332 27.0779C11.0308 27.0781 11.0283 27.0782 11.0259 27.0782Z" fill="#333132"/>
<path d="M16.924 30.0917C17.1623 30.0917 17.3413 29.8807 17.3116 29.6442C17.0916 27.891 15.5954 26.5347 13.7825 26.5347C11.9696 26.5347 10.4735 27.891 10.2535 29.6442C10.2238 29.8807 10.4028 30.0917 10.6411 30.0917H16.924Z" fill="#5F6E7D"/>
<path d="M13.7826 32.9044C15.3359 32.9044 16.5952 31.6452 16.5952 30.0918C16.5952 28.5384 15.3359 27.2791 13.7826 27.2791C12.2292 27.2791 10.9699 28.5384 10.9699 30.0918C10.9699 31.6452 12.2292 32.9044 13.7826 32.9044Z" fill="#333132"/>
<path d="M13.7826 31.39C14.4996 31.39 15.0809 30.8088 15.0809 30.0917C15.0809 29.3746 14.4996 28.7933 13.7826 28.7933C13.0655 28.7933 12.4842 29.3746 12.4842 30.0917C12.4842 30.8088 13.0655 31.39 13.7826 31.39Z" fill="#D1D3D4"/>
<path d="M13.7826 30.6042C14.0656 30.6042 14.2951 30.3747 14.2951 30.0917C14.2951 29.8086 14.0656 29.5792 13.7826 29.5792C13.4995 29.5792 13.2701 29.8086 13.2701 30.0917C13.2701 30.3747 13.4995 30.6042 13.7826 30.6042Z" fill="#333E48"/>
<path d="M18.5251 24.9568H20.535V22.2849H18.5251C18.3601 22.2849 18.2263 22.4187 18.2263 22.5837V24.658C18.2263 24.823 18.3601 24.9568 18.5251 24.9568Z" fill="#E4E5E6"/>
<path d="M20.535 30.5814C20.4423 30.5814 20.3672 30.5063 20.3672 30.4137V16.8009C20.3672 16.7083 20.4423 16.6331 20.535 16.6331C20.6276 16.6331 20.7028 16.7083 20.7028 16.8009V30.4137C20.7028 30.5063 20.6276 30.5814 20.535 30.5814Z" fill="#333132"/>
<path d="M36.8545 30.0917C37.0928 30.0917 37.2719 29.8807 37.2422 29.6442C37.0221 27.891 35.526 26.5347 33.7131 26.5347C31.9002 26.5347 30.4041 27.891 30.184 29.6442C30.1544 29.8807 30.3334 30.0917 30.5717 30.0917H36.8545Z" fill="#5F6E7D"/>
<path d="M33.7131 32.9044C35.2665 32.9044 36.5257 31.6452 36.5257 30.0918C36.5257 28.5384 35.2665 27.2791 33.7131 27.2791C32.1597 27.2791 30.9005 28.5384 30.9005 30.0918C30.9005 31.6452 32.1597 32.9044 33.7131 32.9044Z" fill="#333132"/>
<path d="M33.7131 31.39C34.4302 31.39 35.0115 30.8088 35.0115 30.0917C35.0115 29.3746 34.4302 28.7933 33.7131 28.7933C32.9961 28.7933 32.4148 29.3746 32.4148 30.0917C32.4148 30.8088 32.9961 31.39 33.7131 31.39Z" fill="#D1D3D4"/>
<path d="M33.7131 30.6042C33.9962 30.6042 34.2256 30.3747 34.2256 30.0917C34.2256 29.8086 33.9962 29.5792 33.7131 29.5792C33.4301 29.5792 33.2006 29.8086 33.2006 30.0917C33.2006 30.3747 33.4301 30.6042 33.7131 30.6042Z" fill="#333E48"/>
</svg>
