<svg width="45" height="45" viewBox="0 0 45 45" fill="none" xmlns="http://www.w3.org/2000/svg">
<path opacity="0.5" d="M13.8565 28.0098H4.19508C3.53506 28.0098 3 28.5449 3 29.2049C3 29.8649 3.53506 30.4 4.19508 30.4H13.8565C14.5165 30.4 15.0515 29.8649 15.0515 29.2049C15.0515 28.5449 14.5165 28.0098 13.8565 28.0098Z" fill="#999895"/>
<path opacity="0.5" d="M40.2922 28.0098H30.6308C29.9708 28.0098 29.4357 28.5449 29.4357 29.2049C29.4357 29.8649 29.9708 30.4 30.6308 30.4H40.2922C40.9522 30.4 41.4873 29.8649 41.4873 29.2049C41.4873 28.5449 40.9522 28.0098 40.2922 28.0098Z" fill="#999895"/>
<path opacity="0.5" d="M22.2656 29.1983C25.0841 29.1983 27.369 28.7848 27.369 28.2747C27.369 27.7645 25.0841 27.351 22.2656 27.351C19.447 27.351 17.1622 27.7645 17.1622 28.2747C17.1622 28.7848 19.447 29.1983 22.2656 29.1983Z" fill="#999895"/>
<path d="M16.3561 18.0675H12.285V18.2609H16.3561V18.0675Z" fill="#333132"/>
<path d="M32.3724 18.0675H28.3012V18.2609H32.3724V18.0675Z" fill="#333132"/>
<path d="M22.4234 23.723H22.1077V27.6169H22.4234V23.723Z" fill="#53616E"/>
<path d="M16.8698 20.6154H16.0877V25.2068H16.8698V20.6154Z" fill="#00AAAC"/>
<path d="M18.0303 20.6154H17.2482V25.2068H18.0303V20.6154Z" fill="#00AAAC"/>
<path d="M19.1907 20.6154H18.4087V25.2068H19.1907V20.6154Z" fill="#00AAAC"/>
<path d="M27.6605 25.2069H28.4426V20.6154H27.6605V25.2069Z" fill="#00AAAC"/>
<path d="M26.5 25.2069H27.2821V20.6154H26.5V25.2069Z" fill="#00AAAC"/>
<path d="M25.3396 25.2069H26.1216V20.6154H25.3396V25.2069Z" fill="#00AAAC"/>
<path d="M7.93515 20.8134L7.79282 21.5151L7.73789 21.7823L7.53063 22.8136L7.47569 23.0807L7.26595 24.112L7.21351 24.3792L7.00376 25.413L6.94882 25.6776L6.73908 26.7114L6.68664 26.9761L6.47688 28.0099L6.42445 28.2745L6.34204 28.6766H5.21838L5.30078 28.2745L5.35321 28.0099L5.56297 26.9761L5.61541 26.7114L5.82515 25.6776L5.8801 25.413L6.08984 24.3792L6.14228 24.112L6.35202 23.0807L6.40697 22.8136L6.61422 21.7823L6.66915 21.5151L6.81148 20.8134H7.93515Z" fill="#A7DCDF"/>
<path d="M10.0002 20.8134L9.85785 21.5151L9.80291 21.7823L9.59567 22.8136L9.54072 23.0807L9.33098 24.112L9.27854 24.3792L9.06879 25.413L9.01385 25.6776L8.8041 26.7114L8.75167 26.9761L8.54192 28.0099L8.48949 28.2745L8.40708 28.6766H7.28342L7.36582 28.2745L7.41825 28.0099L7.628 26.9761L7.68043 26.7114L7.8902 25.6776L7.94512 25.413L8.15487 24.3792L8.20733 24.112L8.41707 23.0807L8.472 22.8136L8.67925 21.7823L8.73419 21.5151L8.87653 20.8134H10.0002Z" fill="#A7DCDF"/>
<path d="M12.0652 20.8134L11.9229 21.5151L11.868 21.7823L11.6607 22.8136L11.6058 23.0807L11.396 24.112L11.3436 24.3792L11.1338 25.413L11.0789 25.6776L10.8691 26.7114L10.8167 26.9761L10.607 28.0099L10.5545 28.2745L10.4721 28.6766H9.34845L9.43086 28.2745L9.4833 28.0099L9.69304 26.9761L9.74549 26.7114L9.95524 25.6776L10.0102 25.413L10.2199 24.3792L10.2724 24.112L10.4821 23.0807L10.537 22.8136L10.7443 21.7823L10.7992 21.5151L10.9416 20.8134H12.0652Z" fill="#A7DCDF"/>
<path d="M14.1303 20.8134L13.9879 21.5151L13.933 21.7823L13.7258 22.8136L13.6708 23.0807L13.4611 24.112L13.4086 24.3792L13.1989 25.413L13.1439 25.6776L12.9342 26.7114L12.8818 26.9761L12.672 28.0099L12.6196 28.2745L12.5372 28.6766H11.4135L11.4959 28.2745L11.5483 28.0099L11.7581 26.9761L11.813 26.7114L12.0228 25.6776L12.0752 25.413L12.285 24.3792L12.3399 24.112L12.5496 23.0807L12.6021 22.8136L12.8118 21.7823L12.8668 21.5151L13.0091 20.8134H14.1303Z" fill="#A7DCDF"/>
<path d="M7.79282 21.5151L7.73789 21.7823H6.61423L6.66916 21.5151H7.79282Z" fill="#84D0D3"/>
<path d="M8.73419 21.5151H9.85785L9.80291 21.7823H8.67924L8.73419 21.5151Z" fill="#84D0D3"/>
<path d="M10.7992 21.5151H11.9229L11.868 21.7823H10.7443L10.7992 21.5151Z" fill="#84D0D3"/>
<path d="M13.9879 21.5151L13.933 21.7823H12.8118L12.8668 21.5151H13.9879Z" fill="#84D0D3"/>
<path d="M7.53062 22.8136L7.47569 23.0807H6.35202L6.40697 22.8136H7.53062Z" fill="#84D0D3"/>
<path d="M8.47201 22.8136H9.59567L9.54072 23.0807H8.41707L8.47201 22.8136Z" fill="#84D0D3"/>
<path d="M10.537 22.8136H11.6607L11.6058 23.0807H10.4821L10.537 22.8136Z" fill="#84D0D3"/>
<path d="M13.7258 22.8136L13.6708 23.0807H12.5497L12.6021 22.8136H13.7258Z" fill="#84D0D3"/>
<path d="M7.26593 24.1121L7.21349 24.3793H6.08983L6.14227 24.1121H7.26593Z" fill="#84D0D3"/>
<path d="M8.20733 24.1121H9.33098L9.27854 24.3793H8.15488L8.20733 24.1121Z" fill="#84D0D3"/>
<path d="M10.2724 24.1121H11.396L11.3436 24.3793H10.2199L10.2724 24.1121Z" fill="#84D0D3"/>
<path d="M13.4611 24.1121L13.4086 24.3793H12.285L12.3399 24.1121H13.4611Z" fill="#84D0D3"/>
<path d="M7.00375 25.413L6.94882 25.6777H5.82515L5.8801 25.413H7.00375Z" fill="#84D0D3"/>
<path d="M7.94513 25.413H9.06879L9.01385 25.6777H7.8902L7.94513 25.413Z" fill="#84D0D3"/>
<path d="M10.0102 25.413H11.1338L11.0789 25.6777H9.95525L10.0102 25.413Z" fill="#84D0D3"/>
<path d="M13.1989 25.413L13.1439 25.6777H12.0228L12.0752 25.413H13.1989Z" fill="#84D0D3"/>
<path d="M6.73906 26.7114L6.68662 26.9761H5.56296L5.6154 26.7114H6.73906Z" fill="#84D0D3"/>
<path d="M7.68045 26.7114H8.80412L8.75169 26.9761H7.62802L7.68045 26.7114Z" fill="#84D0D3"/>
<path d="M9.74549 26.7114H10.8691L10.8167 26.9761H9.69304L9.74549 26.7114Z" fill="#84D0D3"/>
<path d="M12.9342 26.7114L12.8818 26.9761H11.7581L11.813 26.7114H12.9342Z" fill="#84D0D3"/>
<path d="M6.47688 28.0099L6.42445 28.2746H5.30078L5.35321 28.0099H6.47688Z" fill="#84D0D3"/>
<path d="M7.41826 28.0099H8.54193L8.4895 28.2746H7.36583L7.41826 28.0099Z" fill="#84D0D3"/>
<path d="M9.4833 28.0099H10.607L10.5545 28.2746H9.43086L9.4833 28.0099Z" fill="#84D0D3"/>
<path d="M12.672 28.0099L12.6196 28.2746H11.4959L11.5484 28.0099H12.672Z" fill="#84D0D3"/>
<path d="M35.727 20.1767C35.727 20.5288 35.4399 20.8134 35.0903 20.8134H9.44085C9.08876 20.8134 8.80409 20.5288 8.80409 20.1767C8.80409 20.0019 8.87652 19.8421 8.99137 19.7272C9.10624 19.6124 9.26606 19.54 9.44085 19.54H35.0903C35.2651 19.54 35.4249 19.6124 35.5398 19.7272C35.6546 19.8421 35.727 20.0019 35.727 20.1767Z" fill="#333132"/>
<path d="M13.303 19.5396H12.2505L10.0189 15.2754H11.0714L13.303 19.5396Z" fill="#FCFAED"/>
<path d="M17.7662 19.5396H16.7137L14.4821 15.2754H15.5346L17.7662 19.5396Z" fill="#FCFAED"/>
<path d="M36.5952 20.8134L36.7375 21.5151L36.7924 21.7823L36.9997 22.8136L37.0546 23.0807L37.2644 24.112L37.3168 24.3792L37.5265 25.413L37.5815 25.6776L37.7912 26.7114L37.8437 26.9761L38.0534 28.0099L38.1059 28.2745L38.1883 28.6766H39.3119L39.2295 28.2745L39.1771 28.0099L38.9673 26.9761L38.9149 26.7114L38.7052 25.6776L38.6502 25.413L38.4405 24.3792L38.388 24.112L38.1783 23.0807L38.1233 22.8136L37.9161 21.7823L37.8612 21.5151L37.7188 20.8134H36.5952Z" fill="#A7DCDF"/>
<path d="M34.5301 20.8134L34.6724 21.5151L34.7274 21.7823L34.9346 22.8136L34.9896 23.0807L35.1993 24.112L35.2517 24.3792L35.4615 25.413L35.5164 25.6776L35.7262 26.7114L35.7786 26.9761L35.9884 28.0099L36.0408 28.2745L36.1232 28.6766H37.2469L37.1645 28.2745L37.112 28.0099L36.9023 26.9761L36.8499 26.7114L36.6401 25.6776L36.5852 25.413L36.3754 24.3792L36.323 24.112L36.1132 23.0807L36.0583 22.8136L35.851 21.7823L35.7961 21.5151L35.6538 20.8134H34.5301Z" fill="#A7DCDF"/>
<path d="M32.4651 20.8134L32.6074 21.5151L32.6623 21.7823L32.8696 22.8136L32.9245 23.0807L33.1343 24.112L33.1867 24.3792L33.3965 25.413L33.4514 25.6776L33.6611 26.7114L33.7136 26.9761L33.9233 28.0099L33.9758 28.2745L34.0582 28.6766H35.1818L35.0994 28.2745L35.047 28.0099L34.8372 26.9761L34.7848 26.7114L34.575 25.6776L34.5201 25.413L34.3104 24.3792L34.2579 24.112L34.0482 23.0807L33.9933 22.8136L33.786 21.7823L33.731 21.5151L33.5887 20.8134H32.4651Z" fill="#A7DCDF"/>
<path d="M30.4 20.8134L30.5424 21.5151L30.5973 21.7823L30.8045 22.8136L30.8595 23.0807L31.0692 24.112L31.1217 24.3792L31.3314 25.413L31.3864 25.6776L31.5961 26.7114L31.6485 26.9761L31.8583 28.0099L31.9107 28.2745L31.9931 28.6766H33.1168L33.0344 28.2745L32.9819 28.0099L32.7722 26.9761L32.7173 26.7114L32.5075 25.6776L32.4551 25.413L32.2453 24.3792L32.1904 24.112L31.9807 23.0807L31.9282 22.8136L31.7185 21.7823L31.6635 21.5151L31.5212 20.8134H30.4Z" fill="#A7DCDF"/>
<path d="M36.7375 21.5151L36.7924 21.7823H37.9161L37.8612 21.5151H36.7375Z" fill="#84D0D3"/>
<path d="M35.7961 21.5151H34.6724L34.7274 21.7823H35.851L35.7961 21.5151Z" fill="#84D0D3"/>
<path d="M33.7311 21.5151H32.6074L32.6623 21.7823H33.786L33.7311 21.5151Z" fill="#84D0D3"/>
<path d="M30.5424 21.5151L30.5973 21.7823H31.7185L31.6635 21.5151H30.5424Z" fill="#84D0D3"/>
<path d="M36.9997 22.8136L37.0546 23.0807H38.1783L38.1233 22.8136H36.9997Z" fill="#84D0D3"/>
<path d="M36.0583 22.8136H34.9346L34.9896 23.0807H36.1132L36.0583 22.8136Z" fill="#84D0D3"/>
<path d="M33.9933 22.8136H32.8696L32.9245 23.0807H34.0482L33.9933 22.8136Z" fill="#84D0D3"/>
<path d="M30.8046 22.8136L30.8595 23.0807H31.9807L31.9282 22.8136H30.8046Z" fill="#84D0D3"/>
<path d="M37.2643 24.1121L37.3168 24.3793H38.4404L38.388 24.1121H37.2643Z" fill="#84D0D3"/>
<path d="M36.323 24.1121H35.1993L35.2518 24.3793H36.3754L36.323 24.1121Z" fill="#84D0D3"/>
<path d="M34.2579 24.1121H33.1343L33.1867 24.3793H34.3104L34.2579 24.1121Z" fill="#84D0D3"/>
<path d="M31.0692 24.1121L31.1217 24.3793H32.2453L32.1904 24.1121H31.0692Z" fill="#84D0D3"/>
<path d="M37.5265 25.413L37.5815 25.6777H38.7051L38.6502 25.413H37.5265Z" fill="#84D0D3"/>
<path d="M36.5852 25.413H35.4615L35.5164 25.6777H36.6401L36.5852 25.413Z" fill="#84D0D3"/>
<path d="M34.5201 25.413H33.3965L33.4514 25.6777H34.5751L34.5201 25.413Z" fill="#84D0D3"/>
<path d="M31.3314 25.413L31.3864 25.6777H32.5075L32.4551 25.413H31.3314Z" fill="#84D0D3"/>
<path d="M37.7912 26.7114L37.8437 26.9761H38.9673L38.9149 26.7114H37.7912Z" fill="#84D0D3"/>
<path d="M36.8498 26.7114H35.7262L35.7786 26.9761H36.9023L36.8498 26.7114Z" fill="#84D0D3"/>
<path d="M34.7848 26.7114H33.6611L33.7136 26.9761H34.8373L34.7848 26.7114Z" fill="#84D0D3"/>
<path d="M31.5961 26.7114L31.6485 26.9761H32.7722L32.7173 26.7114H31.5961Z" fill="#84D0D3"/>
<path d="M38.0534 28.0099L38.1058 28.2746H39.2295L39.1771 28.0099H38.0534Z" fill="#84D0D3"/>
<path d="M37.112 28.0099H35.9884L36.0408 28.2746H37.1645L37.112 28.0099Z" fill="#84D0D3"/>
<path d="M35.047 28.0099H33.9233L33.9758 28.2746H35.0994L35.047 28.0099Z" fill="#84D0D3"/>
<path d="M31.8583 28.0099L31.9107 28.2746H33.0344L32.9819 28.0099H31.8583Z" fill="#84D0D3"/>
<path d="M31.2273 19.5396H32.2798L34.5114 15.2754H33.4589L31.2273 19.5396Z" fill="#FCFAED"/>
<path d="M26.7641 19.5396H27.8166L30.0482 15.2754H28.9957L26.7641 19.5396Z" fill="#FCFAED"/>
<path d="M22.9235 20.8142V23.3633C22.9235 23.7259 22.6299 24.0195 22.2672 24.0195C21.9011 24.0195 21.6075 23.7259 21.6075 23.3633V20.8142H22.9235Z" fill="#FCFAED"/>
<path d="M22.9225 14.6597V19.5402H21.6065V14.6597C21.6065 14.297 21.9036 14 22.2662 14C22.6289 14 22.9225 14.297 22.9225 14.6597Z" fill="#FCFAED"/>
<path d="M24.4492 24.9768C24.4492 25.1046 24.3455 25.2082 24.2177 25.2082H20.3113C20.1835 25.2082 20.0798 25.1046 20.0798 24.9768C20.0798 24.849 20.1835 24.7454 20.3113 24.7454H24.2177C24.3455 24.7454 24.4492 24.849 24.4492 24.9768Z" fill="#FCFAED"/>
<path d="M23.71 25.9094C23.71 26.0372 23.6098 26.1408 23.4821 26.1408H21.0504C20.9226 26.1408 20.819 26.0372 20.819 25.9094C20.819 25.7816 20.9226 25.678 21.0504 25.678H23.4821C23.6099 25.678 23.71 25.7816 23.71 25.9094Z" fill="#FCFAED"/>
<path d="M22.9235 20.8142V21.619C22.3225 21.8262 21.8838 22.2269 21.6075 22.5551V20.8142H22.9235Z" fill="#E5E3DA"/>
<path d="M21.0504 25.678H21.793C21.679 25.8369 21.5927 25.9957 21.5305 26.1408H21.0504C20.9226 26.1408 20.819 26.0372 20.819 25.9094C20.819 25.7816 20.9226 25.678 21.0504 25.678Z" fill="#E5E3DA"/>
<path d="M22.8327 24.7454C22.584 24.8939 22.3802 25.0493 22.2075 25.2082H20.3113C20.1835 25.2082 20.0798 25.1046 20.0798 24.9768C20.0798 24.849 20.1835 24.7454 20.3113 24.7454H22.8327Z" fill="#E5E3DA"/>
<path d="M22.9225 16.3971V17.0533L21.6065 18.3658V16.3971H22.9225Z" fill="#E5E3DA"/>
<path d="M25.1521 16.1923H19.3791C19.1336 16.1923 18.9346 16.3913 18.9346 16.6367C18.9346 16.8822 19.1336 17.0812 19.3791 17.0812H25.1521C25.3976 17.0812 25.5965 16.8822 25.5965 16.6367C25.5965 16.3913 25.3976 16.1923 25.1521 16.1923Z" fill="#333132"/>
</svg>
