<svg width="45" height="45" viewBox="0 0 45 45" fill="none" xmlns="http://www.w3.org/2000/svg">
<path d="M41.2103 22.7943L36.4869 20.959C36.4306 20.6861 36.1889 20.4805 35.8998 20.4797V20.4745C35.8998 19.6844 35.2592 19.0438 34.4691 19.0438H33.9802C33.9802 18.0226 33.1524 17.1948 32.1312 17.1948H31.8022C31.8004 17.1731 31.798 17.1516 31.7953 17.1301C31.6994 15.8735 30.6517 14.8831 29.3705 14.8831H26.012C25.6313 14.8831 25.3227 15.1917 25.3227 15.5724V17.1933C25.3204 16.5791 23.9474 16.0815 22.2539 16.0815C20.5589 16.0815 19.1848 16.5799 19.1848 17.1948V15.5724C19.1848 15.1917 18.8762 14.8831 18.4955 14.8831H15.137C13.844 14.8831 12.7893 15.8921 12.7104 17.1652C12.7094 17.1749 12.7097 17.185 12.7089 17.1948H12.3799C11.3587 17.1948 10.5309 18.0226 10.5309 19.0438H10.042C9.25186 19.0438 8.61131 19.6844 8.61131 20.4745C8.31942 20.4745 8.07548 20.684 8.02123 20.9602L3.30081 22.7943C3.14129 22.8563 3.03619 23.0099 3.03619 23.1811V24.8802C3.03619 24.9621 3.06301 25.0374 3.10738 25.0992C3.25608 25.4842 3.62733 25.7585 4.06485 25.7585H13.9159V26.825C13.9159 27.0476 14.0423 27.2508 14.242 27.3493L22.2555 31.3001L22.2549 28.0687H22.2561L22.2555 31.3001L30.2691 27.3493C30.4687 27.2508 30.5951 27.0476 30.5951 26.825V25.7585H40.4462C40.8837 25.7585 41.255 25.4842 41.4037 25.0992C41.4481 25.0374 41.4749 24.9621 41.4749 24.8802V23.1811C41.4749 23.0099 41.3699 22.8563 41.2103 22.7943ZM22.2544 25.2162L22.2539 18.7559C22.2537 18.7559 22.254 18.7559 22.2539 18.7559C22.2549 18.7559 22.2563 18.7558 22.2572 18.7558V25.2161L22.2567 25.2213L22.2555 25.2218V25.8L22.2544 25.2162ZM14.6877 24.3614V24.3389L14.7471 24.3681L14.6877 24.3614ZM29.8234 24.3422V24.3614L29.7727 24.3671L29.8234 24.3422Z" fill="#999895"/>
<path d="M12.6665 15.4343C12.6665 14.0899 13.7564 13 15.1008 13H18.4593C18.84 13 19.1486 13.3086 19.1486 13.6893V15.6889C19.1486 15.6889 12.6665 15.016 12.6665 15.4343Z" fill="#FCFAED"/>
<path d="M31.7686 15.4343C31.7686 14.0899 30.6787 13 29.3343 13H25.9758C25.5951 13 25.2865 13.3086 25.2865 13.6893V15.6056C25.2865 15.6056 31.7686 15.016 31.7686 15.4343Z" fill="#E5E3DA"/>
<path d="M30.559 22.3912V24.9419C30.559 25.1645 30.4326 25.3678 30.2329 25.4662L22.2194 29.417L22.2205 23.3331L30.559 22.3912Z" fill="#E5E3DA"/>
<path d="M40.41 23.8754H30.5589V22.8468H41.4387C41.4387 23.4145 40.9778 23.8754 40.41 23.8754Z" fill="#333E48"/>
<path d="M36.0614 18.9247L41.1741 20.9112C41.3336 20.9732 41.4387 21.1268 41.4387 21.298V22.9971C41.4387 23.2052 41.27 23.3739 41.062 23.3739H29.7872V18.9247H36.0614Z" fill="#E5E3DA"/>
<path d="M35.8636 18.5914C35.8636 17.8012 35.223 17.1606 34.4329 17.1606H33.944C33.944 16.1394 33.1162 15.3116 32.095 15.3116H25.2901H22.221V26.1813L29.6191 21.8636H35.0867L36.0614 20.5627L35.8636 19.691V18.5914Z" fill="#E5E3DA"/>
<path d="M27.51 16.9224H30.284C31.1059 16.9224 31.7722 16.2561 31.7722 15.4342C31.7722 14.6123 31.1059 13.946 30.284 13.946H27.51C26.6881 13.946 26.0218 14.6123 26.0218 15.4342C26.0218 16.2561 26.6881 16.9224 27.51 16.9224Z" fill="#999895"/>
<path d="M33.944 17.1606V18.5425C33.944 18.8744 33.675 19.1434 33.343 19.1434H30.6571V19.6826H33.3616C33.9388 19.6826 34.4067 19.2148 34.4067 18.6376V17.6233C34.4067 17.3678 34.1995 17.1606 33.944 17.1606Z" fill="#646668"/>
<path d="M27.6327 18.4358L25.2901 15.3116H22.221V22.7113L25.7945 20.9327C25.8546 20.9027 25.8926 20.8414 25.8926 20.7742V19.7598C25.8926 19.6962 25.9267 19.6375 25.9819 19.606L27.5788 18.6957C27.6713 18.643 27.6966 18.521 27.6327 18.4358Z" fill="#999895"/>
<path d="M13.8798 22.3912V24.9419C13.8798 25.1645 14.0062 25.3678 14.2058 25.4662L22.2194 29.417L22.2182 23.3331L13.8798 22.3912Z" fill="#FCFAED"/>
<path d="M3 22.8468H13.8798V23.8754H4.02865C3.46092 23.8754 3 23.4145 3 22.8468Z" fill="#333E48"/>
<path d="M8.3773 18.9247L3.26463 20.9112C3.10509 20.9732 3 21.1268 3 21.298V22.9971C3 23.2052 3.16866 23.3739 3.37671 23.3739H14.6515V18.9247H8.3773Z" fill="#FCFAED"/>
<path d="M8.57513 18.5914C8.57513 17.8012 9.21569 17.1606 10.0059 17.1606H10.4947C10.4947 16.1394 11.3225 15.3116 12.3437 15.3116H22.2177V26.1813L14.8196 21.8636H9.35199L8.37732 20.5627L8.57513 19.691V18.5914Z" fill="#FCFAED"/>
<path d="M36.4631 19.1977V19.9794C36.4631 21.2868 35.4028 22.3472 34.0954 22.3472H30.1292C30.0536 22.3472 29.9803 22.3641 29.9137 22.3968L22.2194 26.1859V23.3387L26.4055 21.2439C26.4834 21.2044 26.533 21.1255 26.533 21.0375V20.2118C26.533 20.1283 26.5781 20.0505 26.6526 20.0099L28.1822 19.1762C28.216 19.1582 28.2544 19.148 28.2927 19.148H30.6549V19.6872H28.3875C28.3537 19.6872 28.3367 19.7278 28.3604 19.7515L30.0728 21.4639C30.1642 21.5553 30.2882 21.6072 30.418 21.6072H33.9499C35.0057 21.6072 35.8619 20.751 35.8619 19.6963V18.5964C36.1935 18.5964 36.4631 18.866 36.4631 19.1977Z" fill="#999895"/>
<path d="M22.2182 23.3331L22.2193 26.1859L14.5227 22.3923C14.4561 22.3596 14.3828 22.3427 14.3073 22.3427H10.3411C9.03366 22.3427 7.9733 21.2823 7.9733 19.9738V19.1932C7.9733 18.8615 8.2429 18.5919 8.57454 18.5919V19.6906C8.57454 20.7465 9.43073 21.6027 10.4866 21.6027H14.0185C14.1482 21.6027 14.2723 21.5508 14.3637 21.4594L16.076 19.747C16.0997 19.7233 16.0828 19.6827 16.049 19.6827H13.7816V19.1435H16.1437C16.1821 19.1435 16.2204 19.1526 16.2542 19.1717L17.7839 20.0054C17.8583 20.046 17.9035 20.1238 17.9035 20.2073V21.033C17.9035 21.121 17.9531 21.2 18.0309 21.2394L22.2182 23.3331Z" fill="#D1CFC9"/>
<path d="M22.2182 23.9175V25.5678L14.9187 22.0247C14.8702 22.001 14.8589 21.9367 14.8961 21.8972L16.2701 20.4725H16.2712L16.5724 20.16C16.6062 20.125 16.6581 20.116 16.701 20.1374L17.3462 20.4544C17.3834 20.4725 17.4083 20.5108 17.4083 20.5537V21.5114C17.4083 21.5531 17.4319 21.5926 17.4703 21.6107L22.2182 23.9175Z" fill="#AEDFE6"/>
<path d="M22.2182 23.9175V25.5678L29.5178 22.0247C29.5663 22.001 29.5776 21.9367 29.5404 21.8972L28.1664 20.4725H28.1653L27.8641 20.16C27.8302 20.125 27.7784 20.116 27.7355 20.1374L27.0902 20.4544C27.053 20.4725 27.0282 20.5108 27.0282 20.5537V21.5114C27.0282 21.5531 27.0045 21.5926 26.9662 21.6107L22.2182 23.9175Z" fill="#99D2D6"/>
<path d="M29.5178 22.0245L22.2182 25.5676L14.9187 22.0245C14.8702 22.0008 14.8589 21.9365 14.8961 21.8971L16.2701 20.4723H16.2712C16.3005 20.4611 16.3332 20.4611 16.3626 20.4757L17.0078 20.7927C17.045 20.8108 17.0698 20.8491 17.0698 20.892V21.8497C17.0698 21.8914 17.0935 21.9309 17.1319 21.9489L22.2182 24.4273L27.3046 21.9489C27.3429 21.9309 27.3666 21.8914 27.3666 21.8497V20.892C27.3666 20.8491 27.3914 20.8108 27.4286 20.7927L28.0739 20.4757C28.1032 20.4611 28.1359 20.4611 28.1653 20.4723H28.1664L29.5403 21.8971C29.5776 21.9365 29.5663 22.0008 29.5178 22.0245Z" fill="#CEEBF0"/>
<path d="M16.9287 13.946H14.1547C13.3328 13.946 12.6665 14.6123 12.6665 15.4342C12.6665 16.2561 13.3328 16.9224 14.1547 16.9224H16.9287C17.7506 16.9224 18.4169 16.2561 18.4169 15.4342C18.4169 14.6123 17.7506 13.946 16.9287 13.946Z" fill="#999895"/>
<path d="M16.7653 14.4417H14.3182C13.7699 14.4417 13.3255 14.8862 13.3255 15.4344C13.3255 15.9827 13.7699 16.4271 14.3182 16.4271H16.7653C17.3135 16.4271 17.758 15.9827 17.758 15.4344C17.758 14.8862 17.3135 14.4417 16.7653 14.4417Z" fill="#646668"/>
<path d="M10.4947 17.1606V18.5425C10.4947 18.8744 10.7638 19.1434 11.0957 19.1434H13.7816V19.6826H11.0771C10.4999 19.6826 10.032 19.2148 10.032 18.6376V17.6233C10.032 17.3678 10.2392 17.1606 10.4947 17.1606Z" fill="#8F9193"/>
<path d="M16.806 18.4358L19.1486 15.3116H22.2177V22.7113L18.6442 20.9327C18.5841 20.9027 18.5461 20.8414 18.5461 20.7742V19.7598C18.5461 19.6962 18.512 19.6375 18.4568 19.606L16.8599 18.6957C16.7674 18.643 16.7421 18.521 16.806 18.4358Z" fill="#D1CFC9"/>
<path d="M25.2865 15.3116V15.7594C25.2865 16.3742 23.9125 16.8728 22.2182 16.8728C20.5228 16.8728 19.1488 16.3742 19.1488 15.7594V15.3116H19.4083C19.8843 14.919 20.9627 14.646 22.2182 14.646C23.4726 14.646 24.5521 14.919 25.027 15.3116H25.2865Z" fill="#646668"/>
<path d="M22.2177 16.425C23.9126 16.425 25.2867 15.9265 25.2867 15.3117C25.2867 14.6969 23.9126 14.1984 22.2177 14.1984C20.5227 14.1984 19.1486 14.6969 19.1486 15.3117C19.1486 15.9265 20.5227 16.425 22.2177 16.425Z" fill="#999895"/>
<path d="M14.7364 14.2981H14.2417V16.7508H14.7364V14.2981Z" fill="#999895"/>
<path d="M15.7891 14.2981H15.2944V16.7508H15.7891V14.2981Z" fill="#999895"/>
<path d="M16.8418 14.2981H16.3471V16.7508H16.8418V14.2981Z" fill="#999895"/>
<path d="M30.1205 14.4417H27.6734C27.1252 14.4417 26.6807 14.8862 26.6807 15.4344C26.6807 15.9827 27.1252 16.4271 27.6734 16.4271H30.1205C30.6688 16.4271 31.1132 15.9827 31.1132 15.4344C31.1132 14.8862 30.6688 14.4417 30.1205 14.4417Z" fill="#646668"/>
<path d="M28.0916 14.2981H27.5969V16.7508H28.0916V14.2981Z" fill="#999895"/>
<path d="M29.1443 14.2981H28.6497V16.7508H29.1443V14.2981Z" fill="#999895"/>
<path d="M30.197 14.2981H29.7023V16.7508H30.197V14.2981Z" fill="#999895"/>
<path d="M15.8311 17.8651H15.2523C15.1215 17.8651 15.0154 17.9712 15.0154 18.1021C15.0154 18.233 15.1215 18.3391 15.2523 18.3391H15.8311C15.962 18.3391 16.0681 18.233 16.0681 18.1021C16.0681 17.9712 15.962 17.8651 15.8311 17.8651Z" fill="#D1CFC9"/>
<path d="M29.1864 17.8651H28.6076C28.4767 17.8651 28.3706 17.9712 28.3706 18.1021C28.3706 18.233 28.4767 18.3391 28.6076 18.3391H29.1864C29.3172 18.3391 29.4233 18.233 29.4233 18.1021C29.4233 17.9712 29.3172 17.8651 29.1864 17.8651Z" fill="#999895"/>
</svg>
