<svg width="45" height="45" viewBox="0 0 45 45" fill="none" xmlns="http://www.w3.org/2000/svg">
<path opacity="0.5" d="M37.8922 22.554H5.17304C2.86833 22.554 1 24.4223 1 26.727C1 29.0317 2.86833 30.9001 5.17304 30.9001H37.8922C40.1969 30.9001 42.0653 29.0318 42.0653 26.727C42.0653 24.4223 40.1969 22.554 37.8922 22.554Z" fill="#999895"/>
<path d="M35.0335 13.7342L29.8163 26.3732L22.9316 27.3412H18.3057L15.8641 26.7839H15.8618L4.37596 24.1685L10.5612 16.7986H19.2196L22.4487 9L31.2154 10.4532L35.0335 13.7342Z" fill="#999895"/>
<path d="M41.2181 23.9529L29.816 26.3732L30.1387 18.5746L26.4276 16.1543L24.8679 12.8735L31.2144 10.4532L36.5927 12.497L35.1406 18.4132L41.2181 23.9529Z" fill="#848380"/>
<path d="M22.9316 27.3413H18.3057L15.8641 26.7839H15.8618L16.3154 20.4024L20.0816 17.7668L22.5548 25.0283L22.9316 27.3413Z" fill="#848380"/>
</svg>
