<svg width="45" height="45" viewBox="0 0 45 45" fill="none" xmlns="http://www.w3.org/2000/svg">
<path d="M19.3274 24.3059C18.164 29.2621 7.14492 29.2621 5.98154 24.3059C7.14492 19.3497 18.1687 19.3497 19.3274 24.3059Z" fill="#848380"/>
<path d="M30.1242 17.5857C28.9608 22.5419 17.9417 22.5419 16.7783 17.5857C17.9417 12.6247 28.9655 12.6247 30.1242 17.5857Z" fill="#848380"/>
<path d="M19.2092 16.2709L19.2281 18.995L22.2359 20.7637L22.2217 18.0349L19.2092 16.2709Z" fill="#C2BEA8"/>
<path d="M22.2216 18.0349L22.2358 20.7637L25.2152 19.0423L25.1963 16.3135L22.2216 18.0349Z" fill="#70665A"/>
<path d="M19.2092 16.271L22.2217 18.035L25.1963 16.3136L22.1838 14.5496L19.2092 16.271Z" fill="#F4F3EA"/>
<path d="M22.2689 11.5275L20.2969 10.3878L18.8308 12.7477L20.8029 13.8827L22.2689 11.5275Z" fill="#83BCDB"/>
<path d="M19.1713 16.5074L20.6374 14.1475L18.6653 13.0078L17.1992 15.3677L19.1713 16.5074Z" fill="#83BCDB"/>
<path d="M22.9925 15.1501L24.4586 12.7902L22.4865 11.6505L21.0204 14.0104L22.9925 15.1501Z" fill="#83BCDB"/>
<path d="M17.5445 19.1274L19.0105 16.7675L17.0384 15.6278L15.5724 17.9877L17.5445 19.1274Z" fill="#83BCDB"/>
<path d="M19.7341 20.39L21.2001 18.0348L19.2281 16.8951L17.762 19.255L19.7341 20.39Z" fill="#83BCDB"/>
<path d="M21.9284 21.6576L23.3945 19.2977L21.4224 18.158L19.9516 20.5179L21.9284 21.6576Z" fill="#83BCDB"/>
<path d="M21.3657 17.7701L22.8317 15.4102L20.8597 14.2705L19.3936 16.6304L21.3657 17.7701Z" fill="#83BCDB"/>
<path d="M25.1869 16.4175L26.6529 14.0576L24.6809 12.9178L23.2148 15.2777L25.1869 16.4175Z" fill="#83BCDB"/>
<path d="M23.5553 19.0374L25.0214 16.6776L23.0493 15.5378L21.5832 17.8977L23.5553 19.0374Z" fill="#83BCDB"/>
<g opacity="0.6">
<path d="M24.8653 12.672L17.1945 19.2787L15.388 18.2336L23.054 11.6268L24.8653 12.672Z" fill="#C2E6F2"/>
<path d="M26.7192 13.7455L19.0531 20.3523L18.4525 20.0023L26.1185 13.3956L26.7192 13.7455Z" fill="#C2E6F2"/>
</g>
<path d="M22.4912 11.6505L24.4633 12.7902L22.9973 15.1501L21.0252 14.0104L20.8644 14.2705L22.8365 15.4102L21.3704 17.7701L19.3983 16.6304L20.8644 14.2705L21.0252 14.0104L22.4912 11.6505ZM20.2969 10.3878L22.269 11.5275L20.8029 13.8874L18.8308 12.7477L20.2969 10.3878ZM17.0337 15.6278L19.0058 16.7675L19.1666 16.5074L17.1945 15.3677L18.6606 13.0078L20.6327 14.1475L19.1666 16.5074L19.0058 16.7675L17.5398 19.1274L15.5677 17.9876L17.0337 15.6278ZM19.2281 16.8952L21.2002 18.0349L19.7341 20.3948L17.762 19.2551L19.2281 16.8952ZM25.1869 16.4175L23.2148 15.2778L23.054 15.5379L25.0261 16.6777L23.56 19.0375L21.588 17.8978L21.4272 18.1579L23.3992 19.2976L21.9332 21.6575L19.9611 20.5178L21.4272 18.1579L21.588 17.8978L23.054 15.5379L23.2148 15.2778L24.6809 12.9179L26.6529 14.0577L25.1869 16.4175ZM26.7192 13.7455L26.1185 13.3956L24.8606 12.672L23.0493 11.6268L20.2354 10L15.1893 18.1201L15.388 18.2336L17.1992 19.2787L18.4572 20.0023L19.0578 20.3523L21.9852 22.0453L27.036 13.9205L26.7192 13.7455Z" fill="#F4F3EA"/>
<path d="M21.9852 22.0453L22.1271 22.1494L27.1779 14.0246L27.036 13.9205L21.9852 22.0453Z" fill="#C2BEA8"/>
<path d="M8.01984 22.7689L8.03875 25.4977L11.0465 27.2617L11.0323 24.5329L8.01984 22.7689Z" fill="#C2BEA8"/>
<path d="M11.0323 24.5329L11.0465 27.2616L14.0259 25.5402L14.007 22.8162L11.0323 24.5329Z" fill="#70665A"/>
<path d="M8.01984 22.7689L11.0323 24.5329L14.007 22.8162L10.9992 21.0522L8.01984 22.7689Z" fill="#F4F3EA"/>
<path d="M11.0796 18.0254L9.10755 16.8857L7.64149 19.2455L9.61358 20.3853L11.0796 18.0254Z" fill="#83BCDB"/>
<path d="M7.982 23.0054L9.45279 20.6455L7.47597 19.5057L6.00992 21.8656L7.982 23.0054Z" fill="#83BCDB"/>
<path d="M11.8032 21.6481L13.274 19.2882L11.2972 18.1532L9.83112 20.5083L11.8032 21.6481Z" fill="#83BCDB"/>
<path d="M6.35515 25.6253L7.82121 23.2655L5.84913 22.1257L4.38307 24.4856L6.35515 25.6253Z" fill="#83BCDB"/>
<path d="M8.54478 26.8928L10.0108 24.5329L8.03875 23.3932L6.57269 25.753L8.54478 26.8928Z" fill="#83BCDB"/>
<path d="M10.7391 28.1555L12.2052 25.7956L10.2331 24.6606L8.76706 27.0157L10.7391 28.1555Z" fill="#83BCDB"/>
<path d="M10.1764 24.2681L11.6424 21.9129L9.67033 20.7732L8.20427 23.1331L10.1764 24.2681Z" fill="#83BCDB"/>
<path d="M13.9976 22.9155L15.4636 20.5556L13.4915 19.4159L12.0255 21.7758L13.9976 22.9155Z" fill="#83BCDB"/>
<path d="M12.366 25.5355L13.832 23.1756L11.86 22.0359L10.3939 24.3958L12.366 25.5355Z" fill="#83BCDB"/>
<g opacity="0.6">
<path d="M13.676 19.17L6.00518 25.7814L4.19862 24.7315L11.8647 18.1248L13.676 19.17Z" fill="#C2E6F2"/>
<path d="M15.5298 20.2434L7.86376 26.8501L7.26315 26.5049L14.9339 19.8934L15.5298 20.2434Z" fill="#C2E6F2"/>
</g>
<path d="M11.3019 18.1532L13.274 19.2929L11.8079 21.6528L9.83585 20.5131L9.67506 20.7732L11.6471 21.9129L10.1811 24.2728L8.209 23.133L9.67506 20.7732L9.83585 20.5131L11.3019 18.1532ZM9.10755 16.8857L11.0796 18.0255L9.61358 20.3854L7.6415 19.2456L9.10755 16.8857ZM5.84439 22.1257L7.81648 23.2655L7.97727 23.0053L6.00519 21.8656L7.47124 19.5057L9.44333 20.6455L7.97727 23.0053L7.81648 23.2655L6.35042 25.6253L4.37834 24.4856L5.84439 22.1257ZM8.03875 23.3931L10.0108 24.5329L8.54478 26.8928L6.57269 25.753L8.03875 23.3931ZM13.9976 22.9155L12.0255 21.7758L11.8647 22.0359L13.8368 23.1756L12.3707 25.5355L10.3986 24.3957L10.2331 24.6606L12.2052 25.8003L10.7391 28.1602L8.76705 27.0205L8.68192 27.1481L8.46438 27.0252L8.68192 27.1529L8.76232 27.0205L10.2284 24.6606L10.3892 24.4005L11.8552 22.0406L12.016 21.7805L13.4821 19.4206L15.4542 20.5603L13.9976 22.9155ZM15.5298 20.2435L14.9292 19.8935L13.6712 19.17L11.86 18.1248L9.04134 16.4979L4 24.6227L4.19863 24.7362L6.00992 25.7814L7.26316 26.505L7.86377 26.8549L10.7912 28.548L15.8467 20.4279L15.5298 20.2435Z" fill="#F4F3EA"/>
<path d="M10.7959 28.5433L10.9378 28.6473L15.9886 20.5225L15.8467 20.4185L10.7959 28.5433Z" fill="#C2BEA8"/>
<path d="M29.2587 30.4585C28.0953 35.4147 17.0763 35.4147 15.9129 30.4585C17.0763 25.4975 28.0953 25.4975 29.2587 30.4585Z" fill="#848380"/>
<path d="M40.0555 23.7336C38.8921 28.6899 27.8731 28.6899 26.7097 23.7336C27.8731 18.7774 38.8921 18.7774 40.0555 23.7336Z" fill="#848380"/>
<path d="M29.1405 22.4189L29.1547 25.1477L32.1672 26.9117L32.1483 24.1829L29.1405 22.4189Z" fill="#C2BEA8"/>
<path d="M32.1483 24.1829L32.1672 26.9117L35.1466 25.195L35.1277 22.4662L32.1483 24.1829Z" fill="#70665A"/>
<path d="M29.1405 22.4188L32.1483 24.1828L35.1277 22.4661L32.1152 20.7021L29.1405 22.4188Z" fill="#F4F3EA"/>
<path d="M32.2003 17.6756L30.2235 16.5358L28.7574 18.8957L30.7342 20.0354L32.2003 17.6756Z" fill="#83BCDB"/>
<path d="M29.1027 22.6554L30.5687 20.2955L28.5966 19.1558L27.1306 21.5157L29.1027 22.6554Z" fill="#83BCDB"/>
<path d="M32.9239 21.2981L34.3899 18.943L32.4178 17.8032L30.9518 20.1631L32.9239 21.2981Z" fill="#83BCDB"/>
<path d="M27.4711 25.2754L28.9419 22.9155L26.9651 21.7805L25.499 24.1357L27.4711 25.2754Z" fill="#83BCDB"/>
<path d="M29.6654 26.5428L31.1315 24.183L29.1594 23.0432L27.6934 25.4031L29.6654 26.5428Z" fill="#83BCDB"/>
<path d="M31.8551 27.8054L33.3211 25.4503L31.3491 24.3105L29.883 26.6704L31.8551 27.8054Z" fill="#83BCDB"/>
<path d="M31.2923 23.9228L32.7631 21.563L30.7863 20.4232L29.3202 22.7831L31.2923 23.9228Z" fill="#83BCDB"/>
<path d="M35.1135 22.5656L36.5843 20.2057L34.6075 19.0659L33.1414 21.4258L35.1135 22.5656Z" fill="#83BCDB"/>
<path d="M33.4866 25.1855L34.9527 22.8257L32.9806 21.6907L31.5146 24.0458L33.4866 25.1855Z" fill="#83BCDB"/>
<g opacity="0.6">
<path d="M34.7919 18.8247L27.1258 25.4314L25.3146 24.3863L32.9853 17.7748L34.7919 18.8247Z" fill="#C2E6F2"/>
<path d="M36.6505 19.8935L28.9797 26.505L28.3838 26.155L36.0499 19.5483L36.6505 19.8935Z" fill="#C2E6F2"/>
</g>
<path d="M32.4178 17.8031L34.3899 18.9429L32.9239 21.3027L30.9518 20.163L30.791 20.4231L32.7631 21.5628L31.297 23.9227L29.3249 22.783L30.791 20.4231L30.9518 20.163L32.4178 17.8031ZM30.2235 16.5357L32.1956 17.6754L30.7295 20.0353L28.7574 18.8956L30.2235 16.5357ZM26.9651 21.7757L28.9371 22.9154L29.0979 22.6553L27.1259 21.5156L28.5919 19.1557L30.564 20.2954L29.0979 22.6553L28.9371 22.9154L27.4711 25.2753L25.499 24.1355L26.9651 21.7757ZM29.1594 23.0431L31.1315 24.1828L29.6654 26.5427L27.6934 25.403L29.1594 23.0431ZM35.1135 22.5654L33.1414 21.4257L32.9806 21.6858L34.9527 22.8255L33.4866 25.1854L31.5146 24.0457L31.3538 24.3058L33.3259 25.4455L31.8598 27.8054L29.8877 26.6657L31.3538 24.3058L31.5146 24.0457L32.9806 21.6858L33.1414 21.4257L34.6075 19.0658L36.5796 20.2056L35.1135 22.5654ZM36.6505 19.8934L36.0499 19.5435L34.7919 18.8199L32.9806 17.7747L30.162 16.1479L25.1207 24.2727L25.3193 24.3862L27.1306 25.4313L28.3886 26.1549L28.9892 26.5049L31.9165 28.1979L36.9721 20.0779L36.6505 19.8934Z" fill="#F4F3EA"/>
<path d="M31.9118 28.198L32.0584 28.2974L37.1092 20.1726L36.9626 20.0732L31.9118 28.198Z" fill="#C2BEA8"/>
<path d="M17.9512 28.9216L17.9654 31.6456L20.9779 33.4096L20.959 30.6856L17.9512 28.9216Z" fill="#C2BEA8"/>
<path d="M20.959 30.6856L20.9779 33.4096L23.9573 31.6929L23.9384 28.9641L20.959 30.6856Z" fill="#70665A"/>
<path d="M17.9512 28.9216L20.959 30.6856L23.9384 28.9642L20.9258 27.2002L17.9512 28.9216Z" fill="#F4F3EA"/>
<path d="M21.011 24.1735L19.0389 23.0337L17.5681 25.3936L19.5449 26.5333L21.011 24.1735Z" fill="#83BCDB"/>
<path d="M17.9133 29.1533L19.3794 26.7982L17.4073 25.6584L15.9413 28.0183L17.9133 29.1533Z" fill="#83BCDB"/>
<path d="M21.7345 27.8008L23.2006 25.4409L21.2285 24.3011L19.7625 26.661L21.7345 27.8008Z" fill="#83BCDB"/>
<path d="M16.2818 31.778L17.7525 29.4182L15.7757 28.2784L14.3097 30.6383L16.2818 31.778Z" fill="#83BCDB"/>
<path d="M18.4761 33.0407L19.9422 30.6809L17.9701 29.5411L16.504 31.901L18.4761 33.0407Z" fill="#83BCDB"/>
<path d="M20.6657 34.3082L22.1365 31.9483L20.1597 30.8086L18.6937 33.1684L20.6657 34.3082Z" fill="#83BCDB"/>
<path d="M20.1077 30.4208L21.5738 28.0609L19.5969 26.9211L18.1309 29.281L20.1077 30.4208Z" fill="#83BCDB"/>
<path d="M23.9289 29.0635L25.395 26.7036L23.4229 25.5686L21.9521 27.9237L23.9289 29.0635Z" fill="#83BCDB"/>
<path d="M22.2973 31.6882L23.7634 29.3283L21.7913 28.1886L20.3253 30.5484L22.2973 31.6882Z" fill="#83BCDB"/>
<g opacity="0.6">
<path d="M23.6026 25.3227L15.9365 31.9294L14.1252 30.8842L21.796 24.2775L23.6026 25.3227Z" fill="#C2E6F2"/>
<path d="M25.4612 26.3961L17.7951 33.0028L17.1945 32.6529L24.8606 26.0461L25.4612 26.3961Z" fill="#C2E6F2"/>
</g>
<path d="M21.2285 24.3013L23.2006 25.441L21.7346 27.8009L19.7625 26.6611L19.6017 26.9212L21.5738 28.061L20.1077 30.4209L18.1356 29.2811L19.6017 26.9212L19.7625 26.6611L21.2285 24.3013ZM19.0389 23.0338L21.011 24.1736L19.5449 26.5334L17.5728 25.3937L19.0389 23.0338ZM15.7757 28.2738L17.7478 29.4135L17.9086 29.1534L15.9365 28.0137L17.4026 25.6538L19.3747 26.7936L17.9086 29.1534L17.7478 29.4135L16.2818 31.7734L14.3097 30.6337L15.7757 28.2738ZM17.9701 29.5412L19.9422 30.681L18.4761 33.0408L16.504 31.9011L17.9701 29.5412ZM23.9289 29.0636L21.9568 27.9238L21.796 28.1839L23.7681 29.3237L22.3021 31.6836L20.33 30.5438L20.1692 30.8039L22.1413 31.9437L20.6752 34.3035L18.7031 33.1638L20.1692 30.8039L20.33 30.5438L21.796 28.1839L21.9568 27.9238L23.4229 25.564L25.395 26.7037L23.9289 29.0636ZM25.4612 26.3963L24.8606 26.0463L23.6026 25.3228L21.7913 24.2776L18.9727 22.6508L13.9314 30.7708L14.13 30.8843L15.9413 31.9295L17.1992 32.653L17.7998 33.003L20.7272 34.6961L25.7828 26.576L25.4612 26.3963Z" fill="#F4F3EA"/>
<path d="M20.7225 34.696L20.8691 34.8L25.9199 26.6752L25.7733 26.5712L20.7225 34.696Z" fill="#C2BEA8"/>
</svg>
