<svg width="45" height="45" viewBox="0 0 45 45" fill="none" xmlns="http://www.w3.org/2000/svg">
<path d="M34.9185 39.1986C34.3334 39.4669 33.7077 39.6797 33.0417 39.8169C31.3183 40.1718 29.394 40.1999 27.6223 40.1999C23.4483 40.1999 20.0644 39.6207 20.0643 38.9059C20.0643 37.9938 23.4894 37.8141 24.1889 37.7527C25.8412 37.6078 27.5709 37.6637 29.2546 37.6996C30.9152 37.7351 32.741 37.8581 34.3192 37.3749C35.3783 37.0506 37.007 36.3083 36.6915 35.2397C36.5494 34.7559 35.585 33.8034 30.7222 32.8542C27.1574 32.1578 22.555 31.6639 18.4929 31.2304C14.7279 30.8269 11.1739 30.4469 9.00181 29.9648C7.98791 29.7405 5.88045 29.2717 6.00531 28.1066C6.13231 26.9164 8.64878 26.3137 12.6678 25.7261C15.5631 25.3026 18.3874 25.0548 18.5058 25.0448C19.0375 24.9962 19.5176 25.2959 19.5778 25.7094C19.636 26.1229 19.2549 26.4945 18.7232 26.5414C14.1316 26.9431 9.766 27.6429 8.30651 28.1819C8.56052 28.2723 8.948 28.3862 9.53351 28.5151C11.5742 28.9687 15.0637 29.342 18.7555 29.7371C29.8223 30.9223 37.7226 31.9854 38.5815 34.9032C38.9074 36.0102 38.0796 37.029 37.137 37.7994C36.4785 38.3375 35.7385 38.8225 34.9185 39.1986Z" fill="#BFBEBA"/>
<path d="M34.6723 39.3748C34.5862 39.42 34.4979 39.4652 34.4097 39.512C34.2439 39.5974 34.0566 39.6376 33.8737 39.6376H33.8651C34.1901 39.5556 34.4614 39.4668 34.6723 39.3748Z" fill="#BFBEBA"/>
<path d="M31.446 34.1931H23.7975V38.6984H31.446V34.1931Z" fill="#506A6E"/>
<path d="M28.3028 34.1931H23.7975V38.6984H28.3028V34.1931Z" fill="#6F898E"/>
<path d="M26.9773 35.5186H25.1229V37.373H26.9773V35.5186Z" fill="#A9B3B6"/>
<path d="M29.426 31.9626H24.8765V34.193H29.426V31.9626Z" fill="#506A6E"/>
<path d="M29.426 31.9626H27.0463V34.193H29.426V31.9626Z" fill="#445C5F"/>
<path d="M18.1455 27.1846C20.7064 27.1846 22.7824 26.5914 22.7824 25.8597C22.7824 25.1281 20.7064 24.5349 18.1455 24.5349C15.5846 24.5349 13.5086 25.1281 13.5086 25.8597C13.5086 26.5914 15.5846 27.1846 18.1455 27.1846Z" fill="#999895"/>
<path d="M18.027 4C18.201 4 18.3422 4.14123 18.3422 4.31517V22.1752H17.7118V4.31518C17.7118 4.14123 17.8531 4 18.027 4Z" fill="#848380"/>
<path d="M26.0944 4.77016V9.51249C26.0944 9.64817 25.9651 9.74914 25.8326 9.71759C25.536 9.64503 25.0122 9.5409 24.3874 9.5409C24.0877 9.5409 23.6712 9.59769 23.2042 9.67657C22.1535 9.85326 20.8441 10.1435 19.9953 10.1435C18.7679 10.1435 18.342 9.83433 18.342 9.83433V4.60924C18.342 4.60924 18.8563 4.84272 19.5568 4.93108H19.5599C19.724 4.95001 19.8975 4.96262 20.0774 4.96262C21.0366 4.96262 23.2642 4.3158 24.4285 4.3158C25.2646 4.3158 25.7568 4.48302 25.9682 4.57769C26.0471 4.60924 26.0944 4.68496 26.0944 4.77016Z" fill="white"/>
<path d="M23.2042 9.67647C22.1535 9.85316 20.8441 10.1434 19.9953 10.1434C18.7679 10.1434 18.342 9.83423 18.342 9.83423V4.60913C18.342 4.60913 18.8563 4.84262 19.5568 4.93097H19.5599C19.9512 6.21201 20.9419 8.49009 23.2042 9.67647Z" fill="#E3E8EB"/>
<path d="M20.3118 23.4047H15.669V25.4624H20.3118V23.4047Z" fill="#B7B6B2"/>
<path d="M20.3118 23.4047H17.7118V25.4624H20.3118V23.4047Z" fill="#999895"/>
<path d="M19.6398 22.1752H16.9926V23.4047H19.6398V22.1752Z" fill="#999895"/>
<path d="M19.6398 22.1752H18.3162V23.4047H19.6398V22.1752Z" fill="#848380"/>
</svg>
