<svg width="550" height="450" viewBox="0 0 550 450" fill="none" xmlns="http://www.w3.org/2000/svg">
<g clip-path="url(#clip0_6_7893)">
<path d="M550 0H0V450H550V0Z" fill="#B9CEEB"/>
<path d="M61.99 45.39H53.85C53.38 45.39 53 45.01 53 44.54V40.85C53 40.38 53.38 40 53.85 40H61.99C62.46 40 62.84 40.38 62.84 40.85V44.54C62.85 45 62.46 45.39 61.99 45.39Z" fill="#CEE0F8"/>
<path d="M75.42 45.39H67.28C66.81 45.39 66.43 45.01 66.43 44.54V40.85C66.43 40.38 66.81 40 67.28 40H75.42C75.89 40 76.27 40.38 76.27 40.85V44.54C76.27 45 75.89 45.39 75.42 45.39Z" fill="#CEE0F8"/>
<path d="M67.63 53.54H59.49C59.02 53.54 58.64 53.16 58.64 52.69V49C58.64 48.53 59.02 48.15 59.49 48.15H67.63C68.1 48.15 68.48 48.53 68.48 49V52.69C68.48 53.16 68.1 53.54 67.63 53.54Z" fill="#CEE0F8"/>
<path d="M391.99 258.39H383.85C383.38 258.39 383 258.01 383 257.54V253.85C383 253.38 383.38 253 383.85 253H391.99C392.46 253 392.84 253.38 392.84 253.85V257.54C392.85 258 392.46 258.39 391.99 258.39Z" fill="#CEE0F8"/>
<path d="M405.42 258.39H397.28C396.81 258.39 396.43 258.01 396.43 257.54V253.85C396.43 253.38 396.81 253 397.28 253H405.42C405.89 253 406.27 253.38 406.27 253.85V257.54C406.27 258 405.89 258.39 405.42 258.39Z" fill="#CEE0F8"/>
<path d="M397.63 266.54H389.49C389.02 266.54 388.64 266.16 388.64 265.69V262C388.64 261.53 389.02 261.15 389.49 261.15H397.63C398.1 261.15 398.48 261.53 398.48 262V265.69C398.48 266.16 398.1 266.54 397.63 266.54Z" fill="#CEE0F8"/>
<path d="M440.99 40.39H432.85C432.38 40.39 432 40.01 432 39.54V35.85C432 35.38 432.38 35 432.85 35H440.99C441.46 35 441.84 35.38 441.84 35.85V39.54C441.85 40 441.46 40.39 440.99 40.39Z" fill="#CEE0F8"/>
<path d="M454.42 40.39H446.28C445.81 40.39 445.43 40.01 445.43 39.54V35.85C445.43 35.38 445.81 35 446.28 35H454.42C454.89 35 455.27 35.38 455.27 35.85V39.54C455.27 40 454.89 40.39 454.42 40.39Z" fill="#CEE0F8"/>
<path d="M446.63 48.54H438.49C438.02 48.54 437.64 48.16 437.64 47.69V44C437.64 43.53 438.02 43.15 438.49 43.15H446.63C447.1 43.15 447.48 43.53 447.48 44V47.69C447.48 48.16 447.1 48.54 446.63 48.54Z" fill="#CEE0F8"/>
<path d="M460.99 49.39H452.85C452.38 49.39 452 49.01 452 48.54V44.85C452 44.38 452.38 44 452.85 44H460.99C461.46 44 461.84 44.38 461.84 44.85V48.54C461.85 49 461.46 49.39 460.99 49.39Z" fill="#CEE0F8"/>
<path d="M474.42 49.39H466.28C465.81 49.39 465.43 49.01 465.43 48.54V44.85C465.43 44.38 465.81 44 466.28 44H474.42C474.89 44 475.27 44.38 475.27 44.85V48.54C475.27 49 474.89 49.39 474.42 49.39Z" fill="#CEE0F8"/>
<path d="M466.63 57.54H458.49C458.02 57.54 457.64 57.16 457.64 56.69V53C457.64 52.53 458.02 52.15 458.49 52.15H466.63C467.1 52.15 467.48 52.53 467.48 53V56.69C467.48 57.16 467.1 57.54 466.63 57.54Z" fill="#CEE0F8"/>
<path d="M494.99 419.39H486.85C486.38 419.39 486 419.01 486 418.54V414.85C486 414.38 486.38 414 486.85 414H494.99C495.46 414 495.84 414.38 495.84 414.85V418.54C495.85 419 495.46 419.39 494.99 419.39Z" fill="#CEE0F8"/>
<path d="M508.42 419.39H500.28C499.81 419.39 499.43 419.01 499.43 418.54V414.85C499.43 414.38 499.81 414 500.28 414H508.42C508.89 414 509.27 414.38 509.27 414.85V418.54C509.27 419 508.89 419.39 508.42 419.39Z" fill="#CEE0F8"/>
<path d="M500.63 427.54H492.49C492.02 427.54 491.64 427.16 491.64 426.69V423C491.64 422.53 492.02 422.15 492.49 422.15H500.63C501.1 422.15 501.48 422.53 501.48 423V426.69C501.48 427.16 501.1 427.54 500.63 427.54Z" fill="#CEE0F8"/>
<path d="M434.99 410.39H426.85C426.38 410.39 426 410.01 426 409.54V405.85C426 405.38 426.38 405 426.85 405H434.99C435.46 405 435.84 405.38 435.84 405.85V409.54C435.85 410 435.46 410.39 434.99 410.39Z" fill="#CEE0F8"/>
<path d="M448.42 410.39H440.28C439.81 410.39 439.43 410.01 439.43 409.54V405.85C439.43 405.38 439.81 405 440.28 405H448.42C448.89 405 449.27 405.38 449.27 405.85V409.54C449.27 410 448.89 410.39 448.42 410.39Z" fill="#CEE0F8"/>
<path d="M440.63 418.54H432.49C432.02 418.54 431.64 418.16 431.64 417.69V414C431.64 413.53 432.02 413.15 432.49 413.15H440.63C441.1 413.15 441.48 413.53 441.48 414V417.69C441.48 418.16 441.1 418.54 440.63 418.54Z" fill="#CEE0F8"/>
<path d="M455.99 399.39H447.85C447.38 399.39 447 399.01 447 398.54V394.85C447 394.38 447.38 394 447.85 394H455.99C456.46 394 456.84 394.38 456.84 394.85V398.54C456.85 399 456.46 399.39 455.99 399.39Z" fill="#CEE0F8"/>
<path d="M469.42 399.39H461.28C460.81 399.39 460.43 399.01 460.43 398.54V394.85C460.43 394.38 460.81 394 461.28 394H469.42C469.89 394 470.27 394.38 470.27 394.85V398.54C470.27 399 469.89 399.39 469.42 399.39Z" fill="#CEE0F8"/>
<path d="M461.63 407.54H453.49C453.02 407.54 452.64 407.16 452.64 406.69V403C452.64 402.53 453.02 402.15 453.49 402.15H461.63C462.1 402.15 462.48 402.53 462.48 403V406.69C462.48 407.16 462.1 407.54 461.63 407.54Z" fill="#CEE0F8"/>
<path d="M453.99 419.39H445.85C445.38 419.39 445 419.01 445 418.54V414.85C445 414.38 445.38 414 445.85 414H453.99C454.46 414 454.84 414.38 454.84 414.85V418.54C454.85 419 454.46 419.39 453.99 419.39Z" fill="#CEE0F8"/>
<path d="M467.42 419.39H459.28C458.81 419.39 458.43 419.01 458.43 418.54V414.85C458.43 414.38 458.81 414 459.28 414H467.42C467.89 414 468.27 414.38 468.27 414.85V418.54C468.27 419 467.89 419.39 467.42 419.39Z" fill="#CEE0F8"/>
<path d="M459.63 427.54H451.49C451.02 427.54 450.64 427.16 450.64 426.69V423C450.64 422.53 451.02 422.15 451.49 422.15H459.63C460.1 422.15 460.48 422.53 460.48 423V426.69C460.48 427.16 460.1 427.54 459.63 427.54Z" fill="#CEE0F8"/>
<path d="M248.28 399.15L256.42 399.15C256.89 399.15 257.27 399.53 257.27 400L257.27 403.69C257.27 404.16 256.89 404.54 256.42 404.54L248.28 404.54C247.81 404.54 247.43 404.16 247.43 403.69L247.43 400C247.42 399.54 247.81 399.15 248.28 399.15Z" fill="#CEE0F8"/>
<path d="M234.85 399.15L242.99 399.15C243.46 399.15 243.84 399.53 243.84 400L243.84 403.69C243.84 404.16 243.46 404.54 242.99 404.54L234.85 404.54C234.38 404.54 234 404.16 234 403.69L234 400C234 399.54 234.38 399.15 234.85 399.15Z" fill="#CEE0F8"/>
<path d="M242.64 391L250.78 391C251.25 391 251.63 391.38 251.63 391.85L251.63 395.54C251.63 396.01 251.25 396.39 250.78 396.39L242.64 396.39C242.17 396.39 241.79 396.01 241.79 395.54L241.79 391.85C241.79 391.38 242.17 391 242.64 391Z" fill="#CEE0F8"/>
<path d="M474.99 410.39H466.85C466.38 410.39 466 410.01 466 409.54V405.85C466 405.38 466.38 405 466.85 405H474.99C475.46 405 475.84 405.38 475.84 405.85V409.54C475.85 410 475.46 410.39 474.99 410.39Z" fill="#CEE0F8"/>
<path d="M488.42 410.39H480.28C479.81 410.39 479.43 410.01 479.43 409.54V405.85C479.43 405.38 479.81 405 480.28 405H488.42C488.89 405 489.27 405.38 489.27 405.85V409.54C489.27 410 488.89 410.39 488.42 410.39Z" fill="#CEE0F8"/>
<path d="M480.63 418.54H472.49C472.02 418.54 471.64 418.16 471.64 417.69V414C471.64 413.53 472.02 413.15 472.49 413.15H480.63C481.1 413.15 481.48 413.53 481.48 414V417.69C481.48 418.16 481.1 418.54 480.63 418.54Z" fill="#CEE0F8"/>
<path d="M186.99 337.39H178.85C178.38 337.39 178 337.01 178 336.54V332.85C178 332.38 178.38 332 178.85 332H186.99C187.46 332 187.84 332.38 187.84 332.85V336.54C187.85 337 187.46 337.39 186.99 337.39Z" fill="#CEE0F8"/>
<path d="M200.42 337.39H192.28C191.81 337.39 191.43 337.01 191.43 336.54V332.85C191.43 332.38 191.81 332 192.28 332H200.42C200.89 332 201.27 332.38 201.27 332.85V336.54C201.27 337 200.89 337.39 200.42 337.39Z" fill="#CEE0F8"/>
<path d="M192.63 345.54H184.49C184.02 345.54 183.64 345.16 183.64 344.69V341C183.64 340.53 184.02 340.15 184.49 340.15H192.63C193.1 340.15 193.48 340.53 193.48 341V344.69C193.48 345.16 193.1 345.54 192.63 345.54Z" fill="#CEE0F8"/>
<path d="M157.99 92.39H149.85C149.38 92.39 149 92.01 149 91.54V87.85C149 87.38 149.38 87 149.85 87H157.99C158.46 87 158.84 87.38 158.84 87.85V91.54C158.85 92 158.46 92.39 157.99 92.39Z" fill="#CEE0F8"/>
<path d="M171.42 92.39H163.28C162.81 92.39 162.43 92.01 162.43 91.54V87.85C162.43 87.38 162.81 87 163.28 87H171.42C171.89 87 172.27 87.38 172.27 87.85V91.54C172.27 92 171.89 92.39 171.42 92.39Z" fill="#CEE0F8"/>
<path d="M163.63 100.54H155.49C155.02 100.54 154.64 100.16 154.64 99.69V96C154.64 95.53 155.02 95.15 155.49 95.15H163.63C164.1 95.15 164.48 95.53 164.48 96V99.69C164.48 100.16 164.1 100.54 163.63 100.54Z" fill="#CEE0F8"/>
<path d="M253.99 254.39H245.85C245.38 254.39 245 254.01 245 253.54V249.85C245 249.38 245.38 249 245.85 249H253.99C254.46 249 254.84 249.38 254.84 249.85V253.54C254.85 254 254.46 254.39 253.99 254.39Z" fill="#CEE0F8"/>
<path d="M267.42 254.39H259.28C258.81 254.39 258.43 254.01 258.43 253.54V249.85C258.43 249.38 258.81 249 259.28 249H267.42C267.89 249 268.27 249.38 268.27 249.85V253.54C268.27 254 267.89 254.39 267.42 254.39Z" fill="#CEE0F8"/>
<path d="M259.63 262.54H251.49C251.02 262.54 250.64 262.16 250.64 261.69V258C250.64 257.53 251.02 257.15 251.49 257.15H259.63C260.1 257.15 260.48 257.53 260.48 258V261.69C260.48 262.16 260.1 262.54 259.63 262.54Z" fill="#CEE0F8"/>
<path d="M181.99 197.39H173.85C173.38 197.39 173 197.01 173 196.54V192.85C173 192.38 173.38 192 173.85 192H181.99C182.46 192 182.84 192.38 182.84 192.85V196.54C182.85 197 182.46 197.39 181.99 197.39Z" fill="#CEE0F8"/>
<path d="M195.42 197.39H187.28C186.81 197.39 186.43 197.01 186.43 196.54V192.85C186.43 192.38 186.81 192 187.28 192H195.42C195.89 192 196.27 192.38 196.27 192.85V196.54C196.27 197 195.89 197.39 195.42 197.39Z" fill="#CEE0F8"/>
<path d="M187.63 205.54H179.49C179.02 205.54 178.64 205.16 178.64 204.69V201C178.64 200.53 179.02 200.15 179.49 200.15H187.63C188.1 200.15 188.48 200.53 188.48 201V204.69C188.48 205.16 188.1 205.54 187.63 205.54Z" fill="#CEE0F8"/>
<path d="M67.99 365.39H59.85C59.38 365.39 59 365.01 59 364.54V360.85C59 360.38 59.38 360 59.85 360H67.99C68.46 360 68.84 360.38 68.84 360.85V364.54C68.85 365 68.46 365.39 67.99 365.39Z" fill="#CEE0F8"/>
<path d="M81.42 365.39H73.28C72.81 365.39 72.43 365.01 72.43 364.54V360.85C72.43 360.38 72.81 360 73.28 360H81.42C81.89 360 82.27 360.38 82.27 360.85V364.54C82.27 365 81.89 365.39 81.42 365.39Z" fill="#CEE0F8"/>
<path d="M73.63 373.54H65.49C65.02 373.54 64.64 373.16 64.64 372.69V369C64.64 368.53 65.02 368.15 65.49 368.15H73.63C74.1 368.15 74.48 368.53 74.48 369V372.69C74.48 373.16 74.1 373.54 73.63 373.54Z" fill="#CEE0F8"/>
<path d="M85.28 215.15L93.42 215.15C93.89 215.15 94.27 215.53 94.27 216L94.27 219.69C94.27 220.16 93.89 220.54 93.42 220.54L85.28 220.54C84.81 220.54 84.43 220.16 84.43 219.69L84.43 216C84.42 215.54 84.81 215.15 85.28 215.15Z" fill="#CEE0F8"/>
<path d="M71.85 215.15L79.99 215.15C80.46 215.15 80.84 215.53 80.84 216L80.84 219.69C80.84 220.16 80.46 220.54 79.99 220.54L71.85 220.54C71.38 220.54 71 220.16 71 219.69L71 216C71 215.54 71.38 215.15 71.85 215.15Z" fill="#CEE0F8"/>
<path d="M79.64 207L87.78 207C88.25 207 88.63 207.38 88.63 207.85L88.63 211.54C88.63 212.01 88.25 212.39 87.78 212.39L79.64 212.39C79.17 212.39 78.79 212.01 78.79 211.54L78.79 207.85C78.79 207.38 79.17 207 79.64 207Z" fill="#CEE0F8"/>
<path d="M179.99 83.39H171.85C171.38 83.39 171 83.01 171 82.54V78.85C171 78.38 171.38 78 171.85 78H179.99C180.46 78 180.84 78.38 180.84 78.85V82.54C180.85 83 180.46 83.39 179.99 83.39Z" fill="#CEE0F8"/>
<path d="M193.42 83.39H185.28C184.81 83.39 184.43 83.01 184.43 82.54V78.85C184.43 78.38 184.81 78 185.28 78H193.42C193.89 78 194.27 78.38 194.27 78.85V82.54C194.27 83 193.89 83.39 193.42 83.39Z" fill="#CEE0F8"/>
<path d="M185.63 91.54H177.49C177.02 91.54 176.64 91.16 176.64 90.69V87C176.64 86.53 177.02 86.15 177.49 86.15H185.63C186.1 86.15 186.48 86.53 186.48 87V90.69C186.48 91.16 186.1 91.54 185.63 91.54Z" fill="#CEE0F8"/>
<path d="M176.99 101.39H168.85C168.38 101.39 168 101.01 168 100.54V96.85C168 96.38 168.38 96 168.85 96H176.99C177.46 96 177.84 96.38 177.84 96.85V100.54C177.85 101 177.46 101.39 176.99 101.39Z" fill="#CEE0F8"/>
<path d="M190.42 101.39H182.28C181.81 101.39 181.43 101.01 181.43 100.54V96.85C181.43 96.38 181.81 96 182.28 96H190.42C190.89 96 191.27 96.38 191.27 96.85V100.54C191.27 101 190.89 101.39 190.42 101.39Z" fill="#CEE0F8"/>
<path d="M182.63 109.54H174.49C174.02 109.54 173.64 109.16 173.64 108.69V105C173.64 104.53 174.02 104.15 174.49 104.15H182.63C183.1 104.15 183.48 104.53 183.48 105V108.69C183.48 109.16 183.1 109.54 182.63 109.54Z" fill="#CEE0F8"/>
<path d="M136.99 82.39H128.85C128.38 82.39 128 82.01 128 81.54V77.85C128 77.38 128.38 77 128.85 77H136.99C137.46 77 137.84 77.38 137.84 77.85V81.54C137.85 82 137.46 82.39 136.99 82.39Z" fill="#CEE0F8"/>
<path d="M150.42 82.39H142.28C141.81 82.39 141.43 82.01 141.43 81.54V77.85C141.43 77.38 141.81 77 142.28 77H150.42C150.89 77 151.27 77.38 151.27 77.85V81.54C151.27 82 150.89 82.39 150.42 82.39Z" fill="#CEE0F8"/>
<path d="M142.63 90.54H134.49C134.02 90.54 133.64 90.16 133.64 89.69V86C133.64 85.53 134.02 85.15 134.49 85.15H142.63C143.1 85.15 143.48 85.53 143.48 86V89.69C143.48 90.16 143.1 90.54 142.63 90.54Z" fill="#CEE0F8"/>
<path d="M301.28 95.15L309.42 95.15C309.89 95.15 310.27 95.53 310.27 96L310.27 99.69C310.27 100.16 309.89 100.54 309.42 100.54L301.28 100.54C300.81 100.54 300.43 100.16 300.43 99.69L300.43 96C300.42 95.54 300.81 95.15 301.28 95.15Z" fill="#CEE0F8"/>
<path d="M287.85 95.15L295.99 95.15C296.46 95.15 296.84 95.53 296.84 96L296.84 99.69C296.84 100.16 296.46 100.54 295.99 100.54L287.85 100.54C287.38 100.54 287 100.16 287 99.69L287 96C287 95.54 287.38 95.15 287.85 95.15Z" fill="#CEE0F8"/>
<path d="M295.64 87L303.78 87C304.25 87 304.63 87.38 304.63 87.85L304.63 91.54C304.63 92.01 304.25 92.39 303.78 92.39L295.64 92.39C295.17 92.39 294.79 92.01 294.79 91.54L294.79 87.85C294.79 87.38 295.17 87 295.64 87Z" fill="#CEE0F8"/>
<path d="M494.99 244.39H486.85C486.38 244.39 486 244.01 486 243.54V239.85C486 239.38 486.38 239 486.85 239H494.99C495.46 239 495.84 239.38 495.84 239.85V243.54C495.84 244.01 495.46 244.39 494.99 244.39Z" fill="#CEE0F8"/>
<path d="M255.99 122.39H247.85C247.38 122.39 247 122.01 247 121.54V117.85C247 117.38 247.38 117 247.85 117H255.99C256.46 117 256.84 117.38 256.84 117.85V121.54C256.84 122.01 256.46 122.39 255.99 122.39Z" fill="#CEE0F8"/>
<path d="M116.99 194.39H108.85C108.38 194.39 108 194.01 108 193.54V189.85C108 189.38 108.38 189 108.85 189H116.99C117.46 189 117.84 189.38 117.84 189.85V193.54C117.84 194.01 117.46 194.39 116.99 194.39Z" fill="#CEE0F8"/>
<path d="M381.99 241.39H373.85C373.38 241.39 373 241.01 373 240.54V236.85C373 236.38 373.38 236 373.85 236H381.99C382.46 236 382.84 236.38 382.84 236.85V240.54C382.84 241.01 382.46 241.39 381.99 241.39Z" fill="#CEE0F8"/>
<path d="M358.99 177.39H350.85C350.38 177.39 350 177.01 350 176.54V172.85C350 172.38 350.38 172 350.85 172H358.99C359.46 172 359.84 172.38 359.84 172.85V176.54C359.84 177.01 359.46 177.39 358.99 177.39Z" fill="#CEE0F8"/>
<path d="M333.99 348.39H325.85C325.38 348.39 325 348.01 325 347.54V343.85C325 343.38 325.38 343 325.85 343H333.99C334.46 343 334.84 343.38 334.84 343.85V347.54C334.84 348.01 334.46 348.39 333.99 348.39Z" fill="#CEE0F8"/>
<path d="M348.99 339.39H340.85C340.38 339.39 340 339.01 340 338.54V334.85C340 334.38 340.38 334 340.85 334H348.99C349.46 334 349.84 334.38 349.84 334.85V338.54C349.84 339.01 349.46 339.39 348.99 339.39Z" fill="#CEE0F8"/>
<path d="M206.99 328.39H198.85C198.38 328.39 198 328.01 198 327.54V323.85C198 323.38 198.38 323 198.85 323H206.99C207.46 323 207.84 323.38 207.84 323.85V327.54C207.84 328.01 207.46 328.39 206.99 328.39Z" fill="#CEE0F8"/>
<path d="M452.99 106.39H444.85C444.38 106.39 444 106.01 444 105.54V101.85C444 101.38 444.38 101 444.85 101H452.99C453.46 101 453.84 101.38 453.84 101.85V105.54C453.84 106.01 453.46 106.39 452.99 106.39Z" fill="#CEE0F8"/>
<path d="M343.99 40.39H335.85C335.38 40.39 335 40.01 335 39.54V35.85C335 35.38 335.38 35 335.85 35H343.99C344.46 35 344.84 35.38 344.84 35.85V39.54C344.84 40.01 344.46 40.39 343.99 40.39Z" fill="#CEE0F8"/>
<path d="M457.99 365.39H449.85C449.38 365.39 449 365.01 449 364.54V360.85C449 360.38 449.38 360 449.85 360H457.99C458.46 360 458.84 360.38 458.84 360.85V364.54C458.84 365.01 458.46 365.39 457.99 365.39Z" fill="#CEE0F8"/>
<path d="M106.99 408.39H98.85C98.38 408.39 98 408.01 98 407.54V403.85C98 403.38 98.38 403 98.85 403H106.99C107.46 403 107.84 403.38 107.84 403.85V407.54C107.84 408.01 107.46 408.39 106.99 408.39Z" fill="#CEE0F8"/>
<rect y="12" width="550" height="5" fill="#9DB4D7"/>
<path d="M502.1 15.3602C500.531 15.3602 499.265 14.0947 499.265 12.5258V2.55844L502.1 0L504.934 2.55844V12.5258C504.924 14.0947 503.658 15.3602 502.1 15.3602Z" fill="#C7A26C"/>
<path d="M513.73 6.12497H504.924V9.71238H513.73V6.12497Z" fill="#C7A26C"/>
<path d="M513.73 6.12497H504.924V7.71473H513.73V6.12497Z" fill="#F5F5F5"/>
<path d="M516.565 15.3603C514.996 15.3603 513.731 14.0947 513.731 12.5259V2.55849L516.565 0L519.399 2.55849V12.5259C519.399 14.0947 518.134 15.3603 516.565 15.3603Z" fill="#C7A26C"/>
<path d="M528.205 6.12503H519.399V9.71244H528.205V6.12503Z" fill="#C7A26C"/>
<path d="M528.205 6.12503H519.399V7.7148H528.205V6.12503Z" fill="#F5F5F5"/>
<path d="M499.475 6.12503H490.668V9.71244H499.475V6.12503Z" fill="#C7A26C"/>
<path d="M499.475 6.12503H490.668V7.7148H499.475V6.12503Z" fill="#F5F5F5"/>
<path d="M531.039 15.3603C529.471 15.3603 528.205 14.0947 528.205 12.5259V2.55849L531.039 0L533.874 2.55849V12.5259C533.874 14.0947 532.608 15.3603 531.039 15.3603Z" fill="#C7A26C"/>
<path d="M542.68 6.12503H533.874V9.71244H542.68V6.12503Z" fill="#C7A26C"/>
<path d="M542.68 6.12503H533.874V7.7148H542.68V6.12503Z" fill="#F5F5F5"/>
<path d="M545.514 15.3603C543.946 15.3603 542.68 14.0947 542.68 12.5259V2.55849L545.514 0L548.349 2.55849V12.5259C548.338 14.0947 547.073 15.3603 545.514 15.3603Z" fill="#C7A26C"/>
<path d="M445.1 15.3602C443.531 15.3602 442.265 14.0947 442.265 12.5258V2.55844L445.1 0L447.934 2.55844V12.5258C447.924 14.0947 446.658 15.3602 445.1 15.3602Z" fill="#C7A26C"/>
<path d="M456.73 6.12497H447.924V9.71238H456.73V6.12497Z" fill="#C7A26C"/>
<path d="M456.73 6.12497H447.924V7.71473H456.73V6.12497Z" fill="#F5F5F5"/>
<path d="M459.565 15.3603C457.996 15.3603 456.731 14.0947 456.731 12.5259V2.55849L459.565 0L462.399 2.55849V12.5259C462.399 14.0947 461.134 15.3603 459.565 15.3603Z" fill="#C7A26C"/>
<path d="M471.205 6.12503H462.399V9.71244H471.205V6.12503Z" fill="#C7A26C"/>
<path d="M471.205 6.12503H462.399V7.7148H471.205V6.12503Z" fill="#F5F5F5"/>
<path d="M442.475 6.12503H433.668V9.71244H442.475V6.12503Z" fill="#C7A26C"/>
<path d="M442.475 6.12503H433.668V7.7148H442.475V6.12503Z" fill="#F5F5F5"/>
<path d="M474.039 15.3603C472.471 15.3603 471.205 14.0947 471.205 12.5259V2.55849L474.039 0L476.874 2.55849V12.5259C476.874 14.0947 475.608 15.3603 474.039 15.3603Z" fill="#C7A26C"/>
<path d="M485.68 6.12503H476.874V9.71244H485.68V6.12503Z" fill="#C7A26C"/>
<path d="M485.68 6.12503H476.874V7.7148H485.68V6.12503Z" fill="#F5F5F5"/>
<path d="M488.514 15.3603C486.946 15.3603 485.68 14.0947 485.68 12.5259V2.55849L488.514 0L491.349 2.55849V12.5259C491.338 14.0947 490.073 15.3603 488.514 15.3603Z" fill="#C7A26C"/>
<path d="M388.1 15.3602C386.531 15.3602 385.265 14.0947 385.265 12.5258V2.55844L388.1 0L390.934 2.55844V12.5258C390.924 14.0947 389.658 15.3602 388.1 15.3602Z" fill="#C7A26C"/>
<path d="M399.73 6.12497H390.924V9.71238H399.73V6.12497Z" fill="#C7A26C"/>
<path d="M399.73 6.12497H390.924V7.71473H399.73V6.12497Z" fill="#F5F5F5"/>
<path d="M402.565 15.3603C400.996 15.3603 399.731 14.0947 399.731 12.5259V2.55849L402.565 0L405.399 2.55849V12.5259C405.399 14.0947 404.134 15.3603 402.565 15.3603Z" fill="#C7A26C"/>
<path d="M414.205 6.12503H405.399V9.71244H414.205V6.12503Z" fill="#C7A26C"/>
<path d="M414.205 6.12503H405.399V7.7148H414.205V6.12503Z" fill="#F5F5F5"/>
<path d="M385.475 6.12503H376.668V9.71244H385.475V6.12503Z" fill="#C7A26C"/>
<path d="M385.475 6.12503H376.668V7.7148H385.475V6.12503Z" fill="#F5F5F5"/>
<path d="M417.039 15.3603C415.471 15.3603 414.205 14.0947 414.205 12.5259V2.55849L417.039 0L419.874 2.55849V12.5259C419.874 14.0947 418.608 15.3603 417.039 15.3603Z" fill="#C7A26C"/>
<path d="M428.68 6.12503H419.874V9.71244H428.68V6.12503Z" fill="#C7A26C"/>
<path d="M428.68 6.12503H419.874V7.7148H428.68V6.12503Z" fill="#F5F5F5"/>
<path d="M431.514 15.3603C429.946 15.3603 428.68 14.0947 428.68 12.5259V2.55849L431.514 0L434.349 2.55849V12.5259C434.338 14.0947 433.073 15.3603 431.514 15.3603Z" fill="#C7A26C"/>
<path d="M331.1 15.3602C329.531 15.3602 328.265 14.0947 328.265 12.5258V2.55844L331.1 0L333.934 2.55844V12.5258C333.924 14.0947 332.658 15.3602 331.1 15.3602Z" fill="#C7A26C"/>
<path d="M342.73 6.12497H333.924V9.71238H342.73V6.12497Z" fill="#C7A26C"/>
<path d="M342.73 6.12497H333.924V7.71473H342.73V6.12497Z" fill="#F5F5F5"/>
<path d="M345.565 15.3603C343.996 15.3603 342.731 14.0947 342.731 12.5259V2.55849L345.565 0L348.399 2.55849V12.5259C348.399 14.0947 347.134 15.3603 345.565 15.3603Z" fill="#C7A26C"/>
<path d="M357.205 6.12503H348.399V9.71244H357.205V6.12503Z" fill="#C7A26C"/>
<path d="M357.205 6.12503H348.399V7.7148H357.205V6.12503Z" fill="#F5F5F5"/>
<path d="M328.475 6.12503H319.668V9.71244H328.475V6.12503Z" fill="#C7A26C"/>
<path d="M328.475 6.12503H319.668V7.7148H328.475V6.12503Z" fill="#F5F5F5"/>
<path d="M360.039 15.3603C358.471 15.3603 357.205 14.0947 357.205 12.5259V2.55849L360.039 0L362.874 2.55849V12.5259C362.874 14.0947 361.608 15.3603 360.039 15.3603Z" fill="#C7A26C"/>
<path d="M371.68 6.12503H362.874V9.71244H371.68V6.12503Z" fill="#C7A26C"/>
<path d="M371.68 6.12503H362.874V7.7148H371.68V6.12503Z" fill="#F5F5F5"/>
<path d="M374.514 15.3603C372.946 15.3603 371.68 14.0947 371.68 12.5259V2.55849L374.514 0L377.349 2.55849V12.5259C377.338 14.0947 376.073 15.3603 374.514 15.3603Z" fill="#C7A26C"/>
<path d="M274.1 15.3602C272.531 15.3602 271.265 14.0947 271.265 12.5258V2.55844L274.1 0L276.934 2.55844V12.5258C276.924 14.0947 275.658 15.3602 274.1 15.3602Z" fill="#C7A26C"/>
<path d="M285.73 6.12497H276.924V9.71238H285.73V6.12497Z" fill="#C7A26C"/>
<path d="M285.73 6.12497H276.924V7.71473H285.73V6.12497Z" fill="#F5F5F5"/>
<path d="M288.565 15.3603C286.996 15.3603 285.731 14.0947 285.731 12.5259V2.55849L288.565 0L291.399 2.55849V12.5259C291.399 14.0947 290.134 15.3603 288.565 15.3603Z" fill="#C7A26C"/>
<path d="M300.205 6.12503H291.399V9.71244H300.205V6.12503Z" fill="#C7A26C"/>
<path d="M300.205 6.12503H291.399V7.7148H300.205V6.12503Z" fill="#F5F5F5"/>
<path d="M271.475 6.12503H262.668V9.71244H271.475V6.12503Z" fill="#C7A26C"/>
<path d="M271.475 6.12503H262.668V7.7148H271.475V6.12503Z" fill="#F5F5F5"/>
<path d="M303.039 15.3603C301.471 15.3603 300.205 14.0947 300.205 12.5259V2.55849L303.039 0L305.874 2.55849V12.5259C305.874 14.0947 304.608 15.3603 303.039 15.3603Z" fill="#C7A26C"/>
<path d="M314.68 6.12503H305.874V9.71244H314.68V6.12503Z" fill="#C7A26C"/>
<path d="M314.68 6.12503H305.874V7.7148H314.68V6.12503Z" fill="#F5F5F5"/>
<path d="M317.514 15.3603C315.946 15.3603 314.68 14.0947 314.68 12.5259V2.55849L317.514 0L320.349 2.55849V12.5259C320.338 14.0947 319.073 15.3603 317.514 15.3603Z" fill="#C7A26C"/>
<path d="M217.1 15.3602C215.531 15.3602 214.265 14.0947 214.265 12.5258V2.55844L217.1 0L219.934 2.55844V12.5258C219.924 14.0947 218.658 15.3602 217.1 15.3602Z" fill="#C7A26C"/>
<path d="M228.73 6.12497H219.924V9.71238H228.73V6.12497Z" fill="#C7A26C"/>
<path d="M228.73 6.12497H219.924V7.71473H228.73V6.12497Z" fill="#F5F5F5"/>
<path d="M231.565 15.3603C229.996 15.3603 228.731 14.0947 228.731 12.5259V2.55849L231.565 0L234.399 2.55849V12.5259C234.399 14.0947 233.134 15.3603 231.565 15.3603Z" fill="#C7A26C"/>
<path d="M243.205 6.12503H234.399V9.71244H243.205V6.12503Z" fill="#C7A26C"/>
<path d="M243.205 6.12503H234.399V7.7148H243.205V6.12503Z" fill="#F5F5F5"/>
<path d="M214.475 6.12503H205.668V9.71244H214.475V6.12503Z" fill="#C7A26C"/>
<path d="M214.475 6.12503H205.668V7.7148H214.475V6.12503Z" fill="#F5F5F5"/>
<path d="M246.039 15.3603C244.471 15.3603 243.205 14.0947 243.205 12.5259V2.55849L246.039 0L248.874 2.55849V12.5259C248.874 14.0947 247.608 15.3603 246.039 15.3603Z" fill="#C7A26C"/>
<path d="M257.68 6.12503H248.874V9.71244H257.68V6.12503Z" fill="#C7A26C"/>
<path d="M257.68 6.12503H248.874V7.7148H257.68V6.12503Z" fill="#F5F5F5"/>
<path d="M260.514 15.3603C258.946 15.3603 257.68 14.0947 257.68 12.5259V2.55849L260.514 0L263.349 2.55849V12.5259C263.338 14.0947 262.073 15.3603 260.514 15.3603Z" fill="#C7A26C"/>
<path d="M160.1 15.3602C158.531 15.3602 157.265 14.0947 157.265 12.5258V2.55844L160.1 0L162.934 2.55844V12.5258C162.924 14.0947 161.658 15.3602 160.1 15.3602Z" fill="#C7A26C"/>
<path d="M171.73 6.12497H162.924V9.71238H171.73V6.12497Z" fill="#C7A26C"/>
<path d="M171.73 6.12497H162.924V7.71473H171.73V6.12497Z" fill="#F5F5F5"/>
<path d="M174.565 15.3603C172.996 15.3603 171.731 14.0947 171.731 12.5259V2.55849L174.565 0L177.399 2.55849V12.5259C177.399 14.0947 176.134 15.3603 174.565 15.3603Z" fill="#C7A26C"/>
<path d="M186.205 6.12503H177.399V9.71244H186.205V6.12503Z" fill="#C7A26C"/>
<path d="M186.205 6.12503H177.399V7.7148H186.205V6.12503Z" fill="#F5F5F5"/>
<path d="M157.475 6.12503H148.668V9.71244H157.475V6.12503Z" fill="#C7A26C"/>
<path d="M157.475 6.12503H148.668V7.7148H157.475V6.12503Z" fill="#F5F5F5"/>
<path d="M189.039 15.3603C187.471 15.3603 186.205 14.0947 186.205 12.5259V2.55849L189.039 0L191.874 2.55849V12.5259C191.874 14.0947 190.608 15.3603 189.039 15.3603Z" fill="#C7A26C"/>
<path d="M200.68 6.12503H191.874V9.71244H200.68V6.12503Z" fill="#C7A26C"/>
<path d="M200.68 6.12503H191.874V7.7148H200.68V6.12503Z" fill="#F5F5F5"/>
<path d="M203.514 15.3603C201.946 15.3603 200.68 14.0947 200.68 12.5259V2.55849L203.514 0L206.349 2.55849V12.5259C206.338 14.0947 205.073 15.3603 203.514 15.3603Z" fill="#C7A26C"/>
<path d="M103.1 15.3602C101.531 15.3602 100.265 14.0947 100.265 12.5258V2.55844L103.1 0L105.934 2.55844V12.5258C105.924 14.0947 104.658 15.3602 103.1 15.3602Z" fill="#C7A26C"/>
<path d="M114.73 6.12497H105.924V9.71238H114.73V6.12497Z" fill="#C7A26C"/>
<path d="M114.73 6.12497H105.924V7.71473H114.73V6.12497Z" fill="#F5F5F5"/>
<path d="M117.565 15.3603C115.996 15.3603 114.731 14.0947 114.731 12.5259V2.55849L117.565 0L120.399 2.55849V12.5259C120.399 14.0947 119.134 15.3603 117.565 15.3603Z" fill="#C7A26C"/>
<path d="M129.205 6.12503H120.399V9.71244H129.205V6.12503Z" fill="#C7A26C"/>
<path d="M129.205 6.12503H120.399V7.7148H129.205V6.12503Z" fill="#F5F5F5"/>
<path d="M100.475 6.12503H91.6682V9.71244H100.475V6.12503Z" fill="#C7A26C"/>
<path d="M100.475 6.12503H91.6682V7.7148H100.475V6.12503Z" fill="#F5F5F5"/>
<path d="M132.039 15.3603C130.471 15.3603 129.205 14.0947 129.205 12.5259V2.55849L132.039 0L134.874 2.55849V12.5259C134.874 14.0947 133.608 15.3603 132.039 15.3603Z" fill="#C7A26C"/>
<path d="M143.68 6.12503H134.874V9.71244H143.68V6.12503Z" fill="#C7A26C"/>
<path d="M143.68 6.12503H134.874V7.7148H143.68V6.12503Z" fill="#F5F5F5"/>
<path d="M146.515 15.3603C144.946 15.3603 143.68 14.0947 143.68 12.5259V2.55849L146.515 0L149.349 2.55849V12.5259C149.338 14.0947 148.073 15.3603 146.515 15.3603Z" fill="#C7A26C"/>
<path d="M46.0997 15.3602C44.5309 15.3602 43.2654 14.0947 43.2654 12.5258V2.55844L46.0997 0L48.9341 2.55844V12.5258C48.9236 14.0947 47.6581 15.3602 46.0997 15.3602Z" fill="#C7A26C"/>
<path d="M57.7302 6.12497H48.9237V9.71238H57.7302V6.12497Z" fill="#C7A26C"/>
<path d="M57.7302 6.12497H48.9237V7.71473H57.7302V6.12497Z" fill="#F5F5F5"/>
<path d="M60.565 15.3603C58.9961 15.3603 57.7306 14.0947 57.7306 12.5259V2.55849L60.565 0L63.3993 2.55849V12.5259C63.3993 14.0947 62.1338 15.3603 60.565 15.3603Z" fill="#C7A26C"/>
<path d="M72.2052 6.12503H63.3988V9.71244H72.2052V6.12503Z" fill="#C7A26C"/>
<path d="M72.2052 6.12503H63.3988V7.7148H72.2052V6.12503Z" fill="#F5F5F5"/>
<path d="M43.4746 6.12503H34.6682V9.71244H43.4746V6.12503Z" fill="#C7A26C"/>
<path d="M43.4746 6.12503H34.6682V7.7148H43.4746V6.12503Z" fill="#F5F5F5"/>
<path d="M75.0394 15.3603C73.4706 15.3603 72.205 14.0947 72.205 12.5259V2.55849L75.0394 0L77.8738 2.55849V12.5259C77.8738 14.0947 76.6083 15.3603 75.0394 15.3603Z" fill="#C7A26C"/>
<path d="M86.6803 6.12503H77.8738V9.71244H86.6803V6.12503Z" fill="#C7A26C"/>
<path d="M86.6803 6.12503H77.8738V7.7148H86.6803V6.12503Z" fill="#F5F5F5"/>
<path d="M89.5145 15.3603C87.9457 15.3603 86.6801 14.0947 86.6801 12.5259V2.55849L89.5145 0L92.3489 2.55849V12.5259C92.3384 14.0947 91.0729 15.3603 89.5145 15.3603Z" fill="#C7A26C"/>
<path d="M3.56497 15.3603C1.99612 15.3603 0.730591 14.0947 0.730591 12.5259V2.55849L3.56497 0L6.39934 2.55849V12.5259C6.39934 14.0947 5.13381 15.3603 3.56497 15.3603Z" fill="#C7A26C"/>
<path d="M15.2052 6.12503H6.3988V9.71244H15.2052V6.12503Z" fill="#C7A26C"/>
<path d="M15.2052 6.12503H6.3988V7.7148H15.2052V6.12503Z" fill="#F5F5F5"/>
<path d="M18.0394 15.3603C16.4706 15.3603 15.205 14.0947 15.205 12.5259V2.55849L18.0394 0L20.8738 2.55849V12.5259C20.8738 14.0947 19.6083 15.3603 18.0394 15.3603Z" fill="#C7A26C"/>
<path d="M29.6803 6.12503H20.8738V9.71244H29.6803V6.12503Z" fill="#C7A26C"/>
<path d="M29.6803 6.12503H20.8738V7.7148H29.6803V6.12503Z" fill="#F5F5F5"/>
<path d="M32.5145 15.3603C30.9457 15.3603 29.6801 14.0947 29.6801 12.5259V2.55849L32.5145 0L35.3489 2.55849V12.5259C35.3384 14.0947 34.0729 15.3603 32.5145 15.3603Z" fill="#C7A26C"/>
<rect x="542" y="12" width="8" height="71" fill="#9DB4D7"/>
<path d="M545.834 15.3602C544.266 15.3602 543 14.0947 543 12.5258V2.55844L545.834 0L548.669 2.55844V12.5258C548.658 14.0947 547.393 15.3602 545.834 15.3602Z" fill="#C7A26C"/>
<path d="M545.834 15.3602C544.266 15.3602 543 14.0947 543 12.5258L543 12L543.161 12.1608C544.701 13.7013 547.221 13.6278 548.669 12L548.669 12.5258C548.658 14.0947 547.393 15.3602 545.834 15.3602Z" fill="#AC965F"/>
<path d="M547 20L547 10C547 9.44772 546.552 9 546 9C545.448 9 545 9.44771 545 10L545 20C545 20.5523 545.448 21 546 21C546.552 21 547 20.5523 547 20Z" fill="#F5F5F5"/>
<path d="M545.834 33.3602C544.266 33.3602 543 32.0947 543 30.5258V20.5584L545.834 18L548.669 20.5584V30.5258C548.658 32.0947 547.393 33.3602 545.834 33.3602Z" fill="#C7A26C"/>
<path d="M545.834 33.3602C544.266 33.3602 543 32.0947 543 30.5258L543 30L543.161 30.1608C544.701 31.7013 547.221 31.6278 548.669 30L548.669 30.5258C548.658 32.0947 547.393 33.3602 545.834 33.3602Z" fill="#AC965F"/>
<path d="M547 38L547 28C547 27.4477 546.552 27 546 27C545.448 27 545 27.4477 545 28L545 38C545 38.5523 545.448 39 546 39C546.552 39 547 38.5523 547 38Z" fill="#F5F5F5"/>
<path d="M545.834 51.3602C544.266 51.3602 543 50.0947 543 48.5258V38.5584L545.834 36L548.669 38.5584V48.5258C548.658 50.0947 547.393 51.3602 545.834 51.3602Z" fill="#C7A26C"/>
<path d="M545.834 51.3602C544.266 51.3602 543 50.0947 543 48.5258L543 48L543.161 48.1608C544.701 49.7013 547.221 49.6278 548.669 48L548.669 48.5258C548.658 50.0947 547.393 51.3602 545.834 51.3602Z" fill="#AC965F"/>
<path d="M547 56L547 46C547 45.4477 546.552 45 546 45C545.448 45 545 45.4477 545 46L545 56C545 56.5523 545.448 57 546 57C546.552 57 547 56.5523 547 56Z" fill="#F5F5F5"/>
<path d="M545.834 69.3602C544.266 69.3602 543 68.0947 543 66.5258V56.5584L545.834 54L548.669 56.5584V66.5258C548.658 68.0947 547.393 69.3602 545.834 69.3602Z" fill="#C7A26C"/>
<path d="M545.834 69.3602C544.266 69.3602 543 68.0947 543 66.5258L543 66L543.161 66.1608C544.701 67.7013 547.221 67.6278 548.669 66L548.669 66.5258C548.658 68.0947 547.393 69.3602 545.834 69.3602Z" fill="#AC965F"/>
<path d="M547 74L547 64C547 63.4477 546.552 63 546 63C545.448 63 545 63.4477 545 64L545 74C545 74.5523 545.448 75 546 75C546.552 75 547 74.5523 547 74Z" fill="#F5F5F5"/>
<rect y="12" width="8" height="71" fill="#9DB4D7"/>
<path d="M3.83437 15.3602C2.26553 15.3602 1 14.0947 1 12.5258V2.55844L3.83437 0L6.66875 2.55844V12.5258C6.65829 14.0947 5.39276 15.3602 3.83437 15.3602Z" fill="#C7A26C"/>
<path d="M3.83437 15.3602C2.26553 15.3602 1 14.0947 1 12.5258L1.00001 12L1.16079 12.1608C2.70131 13.7013 5.22072 13.6278 6.66876 12L6.66875 12.5258C6.65829 14.0947 5.39276 15.3602 3.83437 15.3602Z" fill="#AC965F"/>
<path d="M5 20L5 10C5 9.44772 4.55228 9 4 9C3.44772 9 3 9.44771 3 10L3 20C3 20.5523 3.44772 21 4 21C4.55228 21 5 20.5523 5 20Z" fill="#F5F5F5"/>
<path d="M3.83437 33.3602C2.26553 33.3602 1 32.0947 1 30.5258V20.5584L3.83437 18L6.66875 20.5584V30.5258C6.65829 32.0947 5.39276 33.3602 3.83437 33.3602Z" fill="#C7A26C"/>
<path d="M3.83437 33.3602C2.26553 33.3602 1 32.0947 1 30.5258L1.00001 30L1.16079 30.1608C2.70131 31.7013 5.22072 31.6278 6.66876 30L6.66875 30.5258C6.65829 32.0947 5.39276 33.3602 3.83437 33.3602Z" fill="#AC965F"/>
<path d="M5 38L5 28C5 27.4477 4.55228 27 4 27C3.44772 27 3 27.4477 3 28L3 38C3 38.5523 3.44772 39 4 39C4.55228 39 5 38.5523 5 38Z" fill="#F5F5F5"/>
<path d="M3.83437 51.3602C2.26553 51.3602 1 50.0947 1 48.5258V38.5584L3.83437 36L6.66875 38.5584V48.5258C6.65829 50.0947 5.39276 51.3602 3.83437 51.3602Z" fill="#C7A26C"/>
<path d="M3.83437 51.3602C2.26553 51.3602 1 50.0947 1 48.5258L1.00001 48L1.16079 48.1608C2.70131 49.7013 5.22072 49.6278 6.66876 48L6.66875 48.5258C6.65829 50.0947 5.39276 51.3602 3.83437 51.3602Z" fill="#AC965F"/>
<path d="M5 56L5 46C5 45.4477 4.55228 45 4 45C3.44772 45 3 45.4477 3 46L3 56C3 56.5523 3.44772 57 4 57C4.55228 57 5 56.5523 5 56Z" fill="#F5F5F5"/>
<path d="M3.83437 69.3602C2.26553 69.3602 1 68.0947 1 66.5258V56.5584L3.83437 54L6.66875 56.5584V66.5258C6.65829 68.0947 5.39276 69.3602 3.83437 69.3602Z" fill="#C7A26C"/>
<path d="M3.83437 69.3602C2.26553 69.3602 1 68.0947 1 66.5258L1.00001 66L1.16079 66.1608C2.70131 67.7013 5.22072 67.6278 6.66876 66L6.66875 66.5258C6.65829 68.0947 5.39276 69.3602 3.83437 69.3602Z" fill="#AC965F"/>
<path d="M5 74L5 64C5 63.4477 4.55228 63 4 63C3.44772 63 3 63.4477 3 64L3 74C3 74.5523 3.44772 75 4 75C4.55228 75 5 74.5523 5 74Z" fill="#F5F5F5"/>
<rect x="542" y="83" width="8" height="73" fill="#9DB4D7"/>
<path d="M545.834 88.3602C544.266 88.3602 543 87.0947 543 85.5258V75.5584L545.834 73L548.669 75.5584V85.5258C548.658 87.0947 547.393 88.3602 545.834 88.3602Z" fill="#C7A26C"/>
<path d="M545.834 88.3602C544.266 88.3602 543 87.0947 543 85.5258L543 85L543.161 85.1608C544.701 86.7013 547.221 86.6278 548.669 85L548.669 85.5258C548.658 87.0947 547.393 88.3602 545.834 88.3602Z" fill="#AC965F"/>
<path d="M547 93L547 83C547 82.4477 546.552 82 546 82C545.448 82 545 82.4477 545 83L545 93C545 93.5523 545.448 94 546 94C546.552 94 547 93.5523 547 93Z" fill="#F5F5F5"/>
<path d="M545.834 106.36C544.266 106.36 543 105.095 543 103.526V93.5584L545.834 91L548.669 93.5584V103.526C548.658 105.095 547.393 106.36 545.834 106.36Z" fill="#C7A26C"/>
<path d="M545.834 106.36C544.266 106.36 543 105.095 543 103.526L543 103L543.161 103.161C544.701 104.701 547.221 104.628 548.669 103L548.669 103.526C548.658 105.095 547.393 106.36 545.834 106.36Z" fill="#AC965F"/>
<path d="M547 111L547 101C547 100.448 546.552 100 546 100C545.448 100 545 100.448 545 101L545 111C545 111.552 545.448 112 546 112C546.552 112 547 111.552 547 111Z" fill="#F5F5F5"/>
<path d="M545.834 124.36C544.266 124.36 543 123.095 543 121.526V111.558L545.834 109L548.669 111.558V121.526C548.658 123.095 547.393 124.36 545.834 124.36Z" fill="#C7A26C"/>
<path d="M545.834 124.36C544.266 124.36 543 123.095 543 121.526L543 121L543.161 121.161C544.701 122.701 547.221 122.628 548.669 121L548.669 121.526C548.658 123.095 547.393 124.36 545.834 124.36Z" fill="#AC965F"/>
<path d="M547 129L547 119C547 118.448 546.552 118 546 118C545.448 118 545 118.448 545 119L545 129C545 129.552 545.448 130 546 130C546.552 130 547 129.552 547 129Z" fill="#F5F5F5"/>
<path d="M545.834 142.36C544.266 142.36 543 141.095 543 139.526V129.558L545.834 127L548.669 129.558V139.526C548.658 141.095 547.393 142.36 545.834 142.36Z" fill="#C7A26C"/>
<path d="M545.834 142.36C544.266 142.36 543 141.095 543 139.526L543 139L543.161 139.161C544.701 140.701 547.221 140.628 548.669 139L548.669 139.526C548.658 141.095 547.393 142.36 545.834 142.36Z" fill="#AC965F"/>
<path d="M547 147L547 137C547 136.448 546.552 136 546 136C545.448 136 545 136.448 545 137L545 147C545 147.552 545.448 148 546 148C546.552 148 547 147.552 547 147Z" fill="#F5F5F5"/>
<rect y="83" width="8" height="73" fill="#9DB4D7"/>
<path d="M3.83437 88.3602C2.26553 88.3602 1 87.0947 1 85.5258V75.5584L3.83437 73L6.66875 75.5584V85.5258C6.65829 87.0947 5.39276 88.3602 3.83437 88.3602Z" fill="#C7A26C"/>
<path d="M3.83437 88.3602C2.26553 88.3602 1 87.0947 1 85.5258L1.00001 85L1.16079 85.1608C2.70131 86.7013 5.22072 86.6278 6.66876 85L6.66875 85.5258C6.65829 87.0947 5.39276 88.3602 3.83437 88.3602Z" fill="#AC965F"/>
<path d="M5 93L5 83C5 82.4477 4.55228 82 4 82C3.44772 82 3 82.4477 3 83L3 93C3 93.5523 3.44772 94 4 94C4.55228 94 5 93.5523 5 93Z" fill="#F5F5F5"/>
<path d="M3.83437 106.36C2.26553 106.36 1 105.095 1 103.526V93.5584L3.83437 91L6.66875 93.5584V103.526C6.65829 105.095 5.39276 106.36 3.83437 106.36Z" fill="#C7A26C"/>
<path d="M3.83437 106.36C2.26553 106.36 1 105.095 1 103.526L1.00001 103L1.16079 103.161C2.70131 104.701 5.22072 104.628 6.66876 103L6.66875 103.526C6.65829 105.095 5.39276 106.36 3.83437 106.36Z" fill="#AC965F"/>
<path d="M5 111L5 101C5 100.448 4.55228 100 4 100C3.44772 100 3 100.448 3 101L3 111C3 111.552 3.44772 112 4 112C4.55228 112 5 111.552 5 111Z" fill="#F5F5F5"/>
<path d="M3.83437 124.36C2.26553 124.36 1 123.095 1 121.526V111.558L3.83437 109L6.66875 111.558V121.526C6.65829 123.095 5.39276 124.36 3.83437 124.36Z" fill="#C7A26C"/>
<path d="M3.83437 124.36C2.26553 124.36 1 123.095 1 121.526L1.00001 121L1.16079 121.161C2.70131 122.701 5.22072 122.628 6.66876 121L6.66875 121.526C6.65829 123.095 5.39276 124.36 3.83437 124.36Z" fill="#AC965F"/>
<path d="M5 129L5 119C5 118.448 4.55228 118 4 118C3.44772 118 3 118.448 3 119L3 129C3 129.552 3.44772 130 4 130C4.55228 130 5 129.552 5 129Z" fill="#F5F5F5"/>
<path d="M3.83437 142.36C2.26553 142.36 1 141.095 1 139.526V129.558L3.83437 127L6.66875 129.558V139.526C6.65829 141.095 5.39276 142.36 3.83437 142.36Z" fill="#C7A26C"/>
<path d="M3.83437 142.36C2.26553 142.36 1 141.095 1 139.526L1.00001 139L1.16079 139.161C2.70131 140.701 5.22072 140.628 6.66876 139L6.66875 139.526C6.65829 141.095 5.39276 142.36 3.83437 142.36Z" fill="#AC965F"/>
<path d="M5 147L5 137C5 136.448 4.55228 136 4 136C3.44772 136 3 136.448 3 137L3 147C3 147.552 3.44772 148 4 148C4.55228 148 5 147.552 5 147Z" fill="#F5F5F5"/>
<rect x="542" y="156" width="8" height="73" fill="#9DB4D7"/>
<path d="M545.834 161.36C544.266 161.36 543 160.095 543 158.526V148.558L545.834 146L548.669 148.558V158.526C548.658 160.095 547.393 161.36 545.834 161.36Z" fill="#C7A26C"/>
<path d="M545.834 161.36C544.266 161.36 543 160.095 543 158.526L543 158L543.161 158.161C544.701 159.701 547.221 159.628 548.669 158L548.669 158.526C548.658 160.095 547.393 161.36 545.834 161.36Z" fill="#AC965F"/>
<path d="M547 166L547 156C547 155.448 546.552 155 546 155C545.448 155 545 155.448 545 156L545 166C545 166.552 545.448 167 546 167C546.552 167 547 166.552 547 166Z" fill="#F5F5F5"/>
<path d="M545.834 179.36C544.266 179.36 543 178.095 543 176.526V166.558L545.834 164L548.669 166.558V176.526C548.658 178.095 547.393 179.36 545.834 179.36Z" fill="#C7A26C"/>
<path d="M545.834 179.36C544.266 179.36 543 178.095 543 176.526L543 176L543.161 176.161C544.701 177.701 547.221 177.628 548.669 176L548.669 176.526C548.658 178.095 547.393 179.36 545.834 179.36Z" fill="#AC965F"/>
<path d="M547 184L547 174C547 173.448 546.552 173 546 173C545.448 173 545 173.448 545 174L545 184C545 184.552 545.448 185 546 185C546.552 185 547 184.552 547 184Z" fill="#F5F5F5"/>
<path d="M545.834 197.36C544.266 197.36 543 196.095 543 194.526V184.558L545.834 182L548.669 184.558V194.526C548.658 196.095 547.393 197.36 545.834 197.36Z" fill="#C7A26C"/>
<path d="M545.834 197.36C544.266 197.36 543 196.095 543 194.526L543 194L543.161 194.161C544.701 195.701 547.221 195.628 548.669 194L548.669 194.526C548.658 196.095 547.393 197.36 545.834 197.36Z" fill="#AC965F"/>
<path d="M547 202L547 192C547 191.448 546.552 191 546 191C545.448 191 545 191.448 545 192L545 202C545 202.552 545.448 203 546 203C546.552 203 547 202.552 547 202Z" fill="#F5F5F5"/>
<path d="M545.834 215.36C544.266 215.36 543 214.095 543 212.526V202.558L545.834 200L548.669 202.558V212.526C548.658 214.095 547.393 215.36 545.834 215.36Z" fill="#C7A26C"/>
<path d="M545.834 215.36C544.266 215.36 543 214.095 543 212.526L543 212L543.161 212.161C544.701 213.701 547.221 213.628 548.669 212L548.669 212.526C548.658 214.095 547.393 215.36 545.834 215.36Z" fill="#AC965F"/>
<path d="M547 220L547 210C547 209.448 546.552 209 546 209C545.448 209 545 209.448 545 210L545 220C545 220.552 545.448 221 546 221C546.552 221 547 220.552 547 220Z" fill="#F5F5F5"/>
<rect y="156" width="8" height="73" fill="#9DB4D7"/>
<path d="M3.83437 161.36C2.26553 161.36 1 160.095 1 158.526V148.558L3.83437 146L6.66875 148.558V158.526C6.65829 160.095 5.39276 161.36 3.83437 161.36Z" fill="#C7A26C"/>
<path d="M3.83437 161.36C2.26553 161.36 1 160.095 1 158.526L1.00001 158L1.16079 158.161C2.70131 159.701 5.22072 159.628 6.66876 158L6.66875 158.526C6.65829 160.095 5.39276 161.36 3.83437 161.36Z" fill="#AC965F"/>
<path d="M5 166L5 156C5 155.448 4.55228 155 4 155C3.44772 155 3 155.448 3 156L3 166C3 166.552 3.44772 167 4 167C4.55228 167 5 166.552 5 166Z" fill="#F5F5F5"/>
<path d="M3.83437 179.36C2.26553 179.36 1 178.095 1 176.526V166.558L3.83437 164L6.66875 166.558V176.526C6.65829 178.095 5.39276 179.36 3.83437 179.36Z" fill="#C7A26C"/>
<path d="M3.83437 179.36C2.26553 179.36 1 178.095 1 176.526L1.00001 176L1.16079 176.161C2.70131 177.701 5.22072 177.628 6.66876 176L6.66875 176.526C6.65829 178.095 5.39276 179.36 3.83437 179.36Z" fill="#AC965F"/>
<path d="M5 184L5 174C5 173.448 4.55228 173 4 173C3.44772 173 3 173.448 3 174L3 184C3 184.552 3.44772 185 4 185C4.55228 185 5 184.552 5 184Z" fill="#F5F5F5"/>
<path d="M3.83437 197.36C2.26553 197.36 1 196.095 1 194.526V184.558L3.83437 182L6.66875 184.558V194.526C6.65829 196.095 5.39276 197.36 3.83437 197.36Z" fill="#C7A26C"/>
<path d="M3.83437 197.36C2.26553 197.36 1 196.095 1 194.526L1.00001 194L1.16079 194.161C2.70131 195.701 5.22072 195.628 6.66876 194L6.66875 194.526C6.65829 196.095 5.39276 197.36 3.83437 197.36Z" fill="#AC965F"/>
<path d="M5 202L5 192C5 191.448 4.55228 191 4 191C3.44772 191 3 191.448 3 192L3 202C3 202.552 3.44772 203 4 203C4.55228 203 5 202.552 5 202Z" fill="#F5F5F5"/>
<path d="M3.83437 215.36C2.26553 215.36 1 214.095 1 212.526V202.558L3.83437 200L6.66875 202.558V212.526C6.65829 214.095 5.39276 215.36 3.83437 215.36Z" fill="#C7A26C"/>
<path d="M3.83437 215.36C2.26553 215.36 1 214.095 1 212.526L1.00001 212L1.16079 212.161C2.70131 213.701 5.22072 213.628 6.66876 212L6.66875 212.526C6.65829 214.095 5.39276 215.36 3.83437 215.36Z" fill="#AC965F"/>
<path d="M5 220L5 210C5 209.448 4.55228 209 4 209C3.44772 209 3 209.448 3 210L3 220C3 220.552 3.44772 221 4 221C4.55228 221 5 220.552 5 220Z" fill="#F5F5F5"/>
<rect x="542" y="229" width="8" height="73" fill="#9DB4D7"/>
<path d="M545.834 234.36C544.266 234.36 543 233.095 543 231.526V221.558L545.834 219L548.669 221.558V231.526C548.658 233.095 547.393 234.36 545.834 234.36Z" fill="#C7A26C"/>
<path d="M545.834 234.36C544.266 234.36 543 233.095 543 231.526L543 231L543.161 231.161C544.701 232.701 547.221 232.628 548.669 231L548.669 231.526C548.658 233.095 547.393 234.36 545.834 234.36Z" fill="#AC965F"/>
<path d="M547 239L547 229C547 228.448 546.552 228 546 228C545.448 228 545 228.448 545 229L545 239C545 239.552 545.448 240 546 240C546.552 240 547 239.552 547 239Z" fill="#F5F5F5"/>
<path d="M545.834 252.36C544.266 252.36 543 251.095 543 249.526V239.558L545.834 237L548.669 239.558V249.526C548.658 251.095 547.393 252.36 545.834 252.36Z" fill="#C7A26C"/>
<path d="M545.834 252.36C544.266 252.36 543 251.095 543 249.526L543 249L543.161 249.161C544.701 250.701 547.221 250.628 548.669 249L548.669 249.526C548.658 251.095 547.393 252.36 545.834 252.36Z" fill="#AC965F"/>
<path d="M547 257L547 247C547 246.448 546.552 246 546 246C545.448 246 545 246.448 545 247L545 257C545 257.552 545.448 258 546 258C546.552 258 547 257.552 547 257Z" fill="#F5F5F5"/>
<path d="M545.834 270.36C544.266 270.36 543 269.095 543 267.526V257.558L545.834 255L548.669 257.558V267.526C548.658 269.095 547.393 270.36 545.834 270.36Z" fill="#C7A26C"/>
<path d="M545.834 270.36C544.266 270.36 543 269.095 543 267.526L543 267L543.161 267.161C544.701 268.701 547.221 268.628 548.669 267L548.669 267.526C548.658 269.095 547.393 270.36 545.834 270.36Z" fill="#AC965F"/>
<path d="M547 275L547 265C547 264.448 546.552 264 546 264C545.448 264 545 264.448 545 265L545 275C545 275.552 545.448 276 546 276C546.552 276 547 275.552 547 275Z" fill="#F5F5F5"/>
<path d="M545.834 288.36C544.266 288.36 543 287.095 543 285.526V275.558L545.834 273L548.669 275.558V285.526C548.658 287.095 547.393 288.36 545.834 288.36Z" fill="#C7A26C"/>
<path d="M545.834 288.36C544.266 288.36 543 287.095 543 285.526L543 285L543.161 285.161C544.701 286.701 547.221 286.628 548.669 285L548.669 285.526C548.658 287.095 547.393 288.36 545.834 288.36Z" fill="#AC965F"/>
<path d="M547 293L547 283C547 282.448 546.552 282 546 282C545.448 282 545 282.448 545 283L545 293C545 293.552 545.448 294 546 294C546.552 294 547 293.552 547 293Z" fill="#F5F5F5"/>
<rect y="229" width="8" height="73" fill="#9DB4D7"/>
<path d="M3.83437 234.36C2.26553 234.36 1 233.095 1 231.526V221.558L3.83437 219L6.66875 221.558V231.526C6.65829 233.095 5.39276 234.36 3.83437 234.36Z" fill="#C7A26C"/>
<path d="M3.83437 234.36C2.26553 234.36 1 233.095 1 231.526L1.00001 231L1.16079 231.161C2.70131 232.701 5.22072 232.628 6.66876 231L6.66875 231.526C6.65829 233.095 5.39276 234.36 3.83437 234.36Z" fill="#AC965F"/>
<path d="M5 239L5 229C5 228.448 4.55228 228 4 228C3.44772 228 3 228.448 3 229L3 239C3 239.552 3.44772 240 4 240C4.55228 240 5 239.552 5 239Z" fill="#F5F5F5"/>
<path d="M3.83437 252.36C2.26553 252.36 1 251.095 1 249.526V239.558L3.83437 237L6.66875 239.558V249.526C6.65829 251.095 5.39276 252.36 3.83437 252.36Z" fill="#C7A26C"/>
<path d="M3.83437 252.36C2.26553 252.36 1 251.095 1 249.526L1.00001 249L1.16079 249.161C2.70131 250.701 5.22072 250.628 6.66876 249L6.66875 249.526C6.65829 251.095 5.39276 252.36 3.83437 252.36Z" fill="#AC965F"/>
<path d="M5 257L5 247C5 246.448 4.55228 246 4 246C3.44772 246 3 246.448 3 247L3 257C3 257.552 3.44772 258 4 258C4.55228 258 5 257.552 5 257Z" fill="#F5F5F5"/>
<path d="M3.83437 270.36C2.26553 270.36 1 269.095 1 267.526V257.558L3.83437 255L6.66875 257.558V267.526C6.65829 269.095 5.39276 270.36 3.83437 270.36Z" fill="#C7A26C"/>
<path d="M3.83437 270.36C2.26553 270.36 1 269.095 1 267.526L1.00001 267L1.16079 267.161C2.70131 268.701 5.22072 268.628 6.66876 267L6.66875 267.526C6.65829 269.095 5.39276 270.36 3.83437 270.36Z" fill="#AC965F"/>
<path d="M5 275L5 265C5 264.448 4.55228 264 4 264C3.44772 264 3 264.448 3 265L3 275C3 275.552 3.44772 276 4 276C4.55228 276 5 275.552 5 275Z" fill="#F5F5F5"/>
<path d="M3.83437 288.36C2.26553 288.36 1 287.095 1 285.526V275.558L3.83437 273L6.66875 275.558V285.526C6.65829 287.095 5.39276 288.36 3.83437 288.36Z" fill="#C7A26C"/>
<path d="M3.83437 288.36C2.26553 288.36 1 287.095 1 285.526L1.00001 285L1.16079 285.161C2.70131 286.701 5.22072 286.628 6.66876 285L6.66875 285.526C6.65829 287.095 5.39276 288.36 3.83437 288.36Z" fill="#AC965F"/>
<path d="M5 293L5 283C5 282.448 4.55228 282 4 282C3.44772 282 3 282.448 3 283L3 293C3 293.552 3.44772 294 4 294C4.55228 294 5 293.552 5 293Z" fill="#F5F5F5"/>
<rect x="542" y="302" width="8" height="73" fill="#9DB4D7"/>
<path d="M545.834 307.36C544.266 307.36 543 306.095 543 304.526V294.558L545.834 292L548.669 294.558V304.526C548.658 306.095 547.393 307.36 545.834 307.36Z" fill="#C7A26C"/>
<path d="M545.834 307.36C544.266 307.36 543 306.095 543 304.526L543 304L543.161 304.161C544.701 305.701 547.221 305.628 548.669 304L548.669 304.526C548.658 306.095 547.393 307.36 545.834 307.36Z" fill="#AC965F"/>
<path d="M547 312L547 302C547 301.448 546.552 301 546 301C545.448 301 545 301.448 545 302L545 312C545 312.552 545.448 313 546 313C546.552 313 547 312.552 547 312Z" fill="#F5F5F5"/>
<path d="M545.834 325.36C544.266 325.36 543 324.095 543 322.526V312.558L545.834 310L548.669 312.558V322.526C548.658 324.095 547.393 325.36 545.834 325.36Z" fill="#C7A26C"/>
<path d="M545.834 325.36C544.266 325.36 543 324.095 543 322.526L543 322L543.161 322.161C544.701 323.701 547.221 323.628 548.669 322L548.669 322.526C548.658 324.095 547.393 325.36 545.834 325.36Z" fill="#AC965F"/>
<path d="M547 330L547 320C547 319.448 546.552 319 546 319C545.448 319 545 319.448 545 320L545 330C545 330.552 545.448 331 546 331C546.552 331 547 330.552 547 330Z" fill="#F5F5F5"/>
<path d="M545.834 343.36C544.266 343.36 543 342.095 543 340.526V330.558L545.834 328L548.669 330.558V340.526C548.658 342.095 547.393 343.36 545.834 343.36Z" fill="#C7A26C"/>
<path d="M545.834 343.36C544.266 343.36 543 342.095 543 340.526L543 340L543.161 340.161C544.701 341.701 547.221 341.628 548.669 340L548.669 340.526C548.658 342.095 547.393 343.36 545.834 343.36Z" fill="#AC965F"/>
<path d="M547 348L547 338C547 337.448 546.552 337 546 337C545.448 337 545 337.448 545 338L545 348C545 348.552 545.448 349 546 349C546.552 349 547 348.552 547 348Z" fill="#F5F5F5"/>
<path d="M545.834 361.36C544.266 361.36 543 360.095 543 358.526V348.558L545.834 346L548.669 348.558V358.526C548.658 360.095 547.393 361.36 545.834 361.36Z" fill="#C7A26C"/>
<path d="M545.834 361.36C544.266 361.36 543 360.095 543 358.526L543 358L543.161 358.161C544.701 359.701 547.221 359.628 548.669 358L548.669 358.526C548.658 360.095 547.393 361.36 545.834 361.36Z" fill="#AC965F"/>
<path d="M547 366L547 356C547 355.448 546.552 355 546 355C545.448 355 545 355.448 545 356L545 366C545 366.552 545.448 367 546 367C546.552 367 547 366.552 547 366Z" fill="#F5F5F5"/>
<rect y="302" width="8" height="73" fill="#9DB4D7"/>
<path d="M3.83437 307.36C2.26553 307.36 1 306.095 1 304.526V294.558L3.83437 292L6.66875 294.558V304.526C6.65829 306.095 5.39276 307.36 3.83437 307.36Z" fill="#C7A26C"/>
<path d="M3.83437 307.36C2.26553 307.36 1 306.095 1 304.526L1.00001 304L1.16079 304.161C2.70131 305.701 5.22072 305.628 6.66876 304L6.66875 304.526C6.65829 306.095 5.39276 307.36 3.83437 307.36Z" fill="#AC965F"/>
<path d="M5 312L5 302C5 301.448 4.55228 301 4 301C3.44772 301 3 301.448 3 302L3 312C3 312.552 3.44772 313 4 313C4.55228 313 5 312.552 5 312Z" fill="#F5F5F5"/>
<path d="M3.83437 325.36C2.26553 325.36 1 324.095 1 322.526V312.558L3.83437 310L6.66875 312.558V322.526C6.65829 324.095 5.39276 325.36 3.83437 325.36Z" fill="#C7A26C"/>
<path d="M3.83437 325.36C2.26553 325.36 1 324.095 1 322.526L1.00001 322L1.16079 322.161C2.70131 323.701 5.22072 323.628 6.66876 322L6.66875 322.526C6.65829 324.095 5.39276 325.36 3.83437 325.36Z" fill="#AC965F"/>
<path d="M5 330L5 320C5 319.448 4.55228 319 4 319C3.44772 319 3 319.448 3 320L3 330C3 330.552 3.44772 331 4 331C4.55228 331 5 330.552 5 330Z" fill="#F5F5F5"/>
<path d="M3.83437 343.36C2.26553 343.36 1 342.095 1 340.526V330.558L3.83437 328L6.66875 330.558V340.526C6.65829 342.095 5.39276 343.36 3.83437 343.36Z" fill="#C7A26C"/>
<path d="M3.83437 343.36C2.26553 343.36 1 342.095 1 340.526L1.00001 340L1.16079 340.161C2.70131 341.701 5.22072 341.628 6.66876 340L6.66875 340.526C6.65829 342.095 5.39276 343.36 3.83437 343.36Z" fill="#AC965F"/>
<path d="M5 348L5 338C5 337.448 4.55228 337 4 337C3.44772 337 3 337.448 3 338L3 348C3 348.552 3.44772 349 4 349C4.55228 349 5 348.552 5 348Z" fill="#F5F5F5"/>
<path d="M3.83437 361.36C2.26553 361.36 1 360.095 1 358.526V348.558L3.83437 346L6.66875 348.558V358.526C6.65829 360.095 5.39276 361.36 3.83437 361.36Z" fill="#C7A26C"/>
<path d="M3.83437 361.36C2.26553 361.36 1 360.095 1 358.526L1.00001 358L1.16079 358.161C2.70131 359.701 5.22072 359.628 6.66876 358L6.66875 358.526C6.65829 360.095 5.39276 361.36 3.83437 361.36Z" fill="#AC965F"/>
<path d="M5 366L5 356C5 355.448 4.55228 355 4 355C3.44772 355 3 355.448 3 356L3 366C3 366.552 3.44772 367 4 367C4.55228 367 5 366.552 5 366Z" fill="#F5F5F5"/>
<rect x="542" y="372" width="8" height="73" fill="#9DB4D7"/>
<path d="M545.834 377.36C544.266 377.36 543 376.095 543 374.526V364.558L545.834 362L548.669 364.558V374.526C548.658 376.095 547.393 377.36 545.834 377.36Z" fill="#C7A26C"/>
<path d="M545.834 377.36C544.266 377.36 543 376.095 543 374.526L543 374L543.161 374.161C544.701 375.701 547.221 375.628 548.669 374L548.669 374.526C548.658 376.095 547.393 377.36 545.834 377.36Z" fill="#AC965F"/>
<path d="M547 382L547 372C547 371.448 546.552 371 546 371C545.448 371 545 371.448 545 372L545 382C545 382.552 545.448 383 546 383C546.552 383 547 382.552 547 382Z" fill="#F5F5F5"/>
<path d="M545.834 395.36C544.266 395.36 543 394.095 543 392.526V382.558L545.834 380L548.669 382.558V392.526C548.658 394.095 547.393 395.36 545.834 395.36Z" fill="#C7A26C"/>
<path d="M545.834 395.36C544.266 395.36 543 394.095 543 392.526L543 392L543.161 392.161C544.701 393.701 547.221 393.628 548.669 392L548.669 392.526C548.658 394.095 547.393 395.36 545.834 395.36Z" fill="#AC965F"/>
<path d="M547 400L547 390C547 389.448 546.552 389 546 389C545.448 389 545 389.448 545 390L545 400C545 400.552 545.448 401 546 401C546.552 401 547 400.552 547 400Z" fill="#F5F5F5"/>
<path d="M545.834 413.36C544.266 413.36 543 412.095 543 410.526V400.558L545.834 398L548.669 400.558V410.526C548.658 412.095 547.393 413.36 545.834 413.36Z" fill="#C7A26C"/>
<path d="M545.834 413.36C544.266 413.36 543 412.095 543 410.526L543 410L543.161 410.161C544.701 411.701 547.221 411.628 548.669 410L548.669 410.526C548.658 412.095 547.393 413.36 545.834 413.36Z" fill="#AC965F"/>
<path d="M547 418L547 408C547 407.448 546.552 407 546 407C545.448 407 545 407.448 545 408L545 418C545 418.552 545.448 419 546 419C546.552 419 547 418.552 547 418Z" fill="#F5F5F5"/>
<path d="M545.834 431.36C544.266 431.36 543 430.095 543 428.526V418.558L545.834 416L548.669 418.558V428.526C548.658 430.095 547.393 431.36 545.834 431.36Z" fill="#C7A26C"/>
<path d="M545.834 431.36C544.266 431.36 543 430.095 543 428.526L543 428L543.161 428.161C544.701 429.701 547.221 429.628 548.669 428L548.669 428.526C548.658 430.095 547.393 431.36 545.834 431.36Z" fill="#AC965F"/>
<path d="M547 436L547 426C547 425.448 546.552 425 546 425C545.448 425 545 425.448 545 426L545 436C545 436.552 545.448 437 546 437C546.552 437 547 436.552 547 436Z" fill="#F5F5F5"/>
<rect y="372" width="8" height="73" fill="#9DB4D7"/>
<path d="M3.83437 377.36C2.26553 377.36 1 376.095 1 374.526V364.558L3.83437 362L6.66875 364.558V374.526C6.65829 376.095 5.39276 377.36 3.83437 377.36Z" fill="#C7A26C"/>
<path d="M3.83437 377.36C2.26553 377.36 1 376.095 1 374.526L1.00001 374L1.16079 374.161C2.70131 375.701 5.22072 375.628 6.66876 374L6.66875 374.526C6.65829 376.095 5.39276 377.36 3.83437 377.36Z" fill="#AC965F"/>
<path d="M5 382L5 372C5 371.448 4.55228 371 4 371C3.44772 371 3 371.448 3 372L3 382C3 382.552 3.44772 383 4 383C4.55228 383 5 382.552 5 382Z" fill="#F5F5F5"/>
<path d="M3.83437 395.36C2.26553 395.36 1 394.095 1 392.526V382.558L3.83437 380L6.66875 382.558V392.526C6.65829 394.095 5.39276 395.36 3.83437 395.36Z" fill="#C7A26C"/>
<path d="M3.83437 395.36C2.26553 395.36 1 394.095 1 392.526L1.00001 392L1.16079 392.161C2.70131 393.701 5.22072 393.628 6.66876 392L6.66875 392.526C6.65829 394.095 5.39276 395.36 3.83437 395.36Z" fill="#AC965F"/>
<path d="M5 400L5 390C5 389.448 4.55228 389 4 389C3.44772 389 3 389.448 3 390L3 400C3 400.552 3.44772 401 4 401C4.55228 401 5 400.552 5 400Z" fill="#F5F5F5"/>
<path d="M3.83437 413.36C2.26553 413.36 1 412.095 1 410.526V400.558L3.83437 398L6.66875 400.558V410.526C6.65829 412.095 5.39276 413.36 3.83437 413.36Z" fill="#C7A26C"/>
<path d="M3.83437 413.36C2.26553 413.36 1 412.095 1 410.526L1.00001 410L1.16079 410.161C2.70131 411.701 5.22072 411.628 6.66876 410L6.66875 410.526C6.65829 412.095 5.39276 413.36 3.83437 413.36Z" fill="#AC965F"/>
<path d="M5 418L5 408C5 407.448 4.55228 407 4 407C3.44772 407 3 407.448 3 408L3 418C3 418.552 3.44772 419 4 419C4.55228 419 5 418.552 5 418Z" fill="#F5F5F5"/>
<path d="M3.83437 431.36C2.26553 431.36 1 430.095 1 428.526V418.558L3.83437 416L6.66875 418.558V428.526C6.65829 430.095 5.39276 431.36 3.83437 431.36Z" fill="#C7A26C"/>
<path d="M3.83437 431.36C2.26553 431.36 1 430.095 1 428.526L1.00001 428L1.16079 428.161C2.70131 429.701 5.22072 429.628 6.66876 428L6.66875 428.526C6.65829 430.095 5.39276 431.36 3.83437 431.36Z" fill="#AC965F"/>
<path d="M5 436L5 426C5 425.448 4.55228 425 4 425C3.44772 425 3 425.448 3 426L3 436C3 436.552 3.44772 437 4 437C4.55228 437 5 436.552 5 436Z" fill="#F5F5F5"/>
<rect y="446.176" width="550" height="3.82353" fill="#9DB4D7"/>
<path d="M502.1 448.746C500.531 448.746 499.265 447.778 499.265 446.579V438.956L502.1 437L504.934 438.956V446.579C504.924 447.778 503.658 448.746 502.1 448.746Z" fill="#C7A26C"/>
<path d="M513.73 441.684H504.924V444.427H513.73V441.684Z" fill="#C7A26C"/>
<path d="M513.73 441.684H504.924V442.9H513.73V441.684Z" fill="#F5F5F5"/>
<path d="M516.565 448.746C514.996 448.746 513.731 447.778 513.731 446.579V438.956L516.565 437L519.399 438.956V446.579C519.399 447.778 518.134 448.746 516.565 448.746Z" fill="#C7A26C"/>
<path d="M528.205 441.684H519.399V444.427H528.205V441.684Z" fill="#C7A26C"/>
<path d="M528.205 441.684H519.399V442.9H528.205V441.684Z" fill="#F5F5F5"/>
<path d="M499.475 441.684H490.668V444.427H499.475V441.684Z" fill="#C7A26C"/>
<path d="M499.475 441.684H490.668V442.9H499.475V441.684Z" fill="#F5F5F5"/>
<path d="M531.039 448.746C529.471 448.746 528.205 447.778 528.205 446.579V438.956L531.039 437L533.874 438.956V446.579C533.874 447.778 532.608 448.746 531.039 448.746Z" fill="#C7A26C"/>
<path d="M542.68 441.684H533.874V444.427H542.68V441.684Z" fill="#C7A26C"/>
<path d="M542.68 441.684H533.874V442.9H542.68V441.684Z" fill="#F5F5F5"/>
<path d="M545.514 448.746C543.946 448.746 542.68 447.778 542.68 446.579V438.956L545.514 437L548.349 438.956V446.579C548.338 447.778 547.073 448.746 545.514 448.746Z" fill="#C7A26C"/>
<path d="M445.1 448.746C443.531 448.746 442.265 447.778 442.265 446.579V438.956L445.1 437L447.934 438.956V446.579C447.924 447.778 446.658 448.746 445.1 448.746Z" fill="#C7A26C"/>
<path d="M456.73 441.684H447.924V444.427H456.73V441.684Z" fill="#C7A26C"/>
<path d="M456.73 441.684H447.924V442.9H456.73V441.684Z" fill="#F5F5F5"/>
<path d="M459.565 448.746C457.996 448.746 456.731 447.778 456.731 446.579V438.956L459.565 437L462.399 438.956V446.579C462.399 447.778 461.134 448.746 459.565 448.746Z" fill="#C7A26C"/>
<path d="M471.205 441.684H462.399V444.427H471.205V441.684Z" fill="#C7A26C"/>
<path d="M471.205 441.684H462.399V442.9H471.205V441.684Z" fill="#F5F5F5"/>
<path d="M442.475 441.684H433.668V444.427H442.475V441.684Z" fill="#C7A26C"/>
<path d="M442.475 441.684H433.668V442.9H442.475V441.684Z" fill="#F5F5F5"/>
<path d="M474.039 448.746C472.471 448.746 471.205 447.778 471.205 446.579V438.956L474.039 437L476.874 438.956V446.579C476.874 447.778 475.608 448.746 474.039 448.746Z" fill="#C7A26C"/>
<path d="M485.68 441.684H476.874V444.427H485.68V441.684Z" fill="#C7A26C"/>
<path d="M485.68 441.684H476.874V442.9H485.68V441.684Z" fill="#F5F5F5"/>
<path d="M488.514 448.746C486.946 448.746 485.68 447.778 485.68 446.579V438.956L488.514 437L491.349 438.956V446.579C491.338 447.778 490.073 448.746 488.514 448.746Z" fill="#C7A26C"/>
<path d="M388.1 448.746C386.531 448.746 385.265 447.778 385.265 446.579V438.956L388.1 437L390.934 438.956V446.579C390.924 447.778 389.658 448.746 388.1 448.746Z" fill="#C7A26C"/>
<path d="M399.73 441.684H390.924V444.427H399.73V441.684Z" fill="#C7A26C"/>
<path d="M399.73 441.684H390.924V442.9H399.73V441.684Z" fill="#F5F5F5"/>
<path d="M402.565 448.746C400.996 448.746 399.731 447.778 399.731 446.579V438.956L402.565 437L405.399 438.956V446.579C405.399 447.778 404.134 448.746 402.565 448.746Z" fill="#C7A26C"/>
<path d="M414.205 441.684H405.399V444.427H414.205V441.684Z" fill="#C7A26C"/>
<path d="M414.205 441.684H405.399V442.9H414.205V441.684Z" fill="#F5F5F5"/>
<path d="M385.475 441.684H376.668V444.427H385.475V441.684Z" fill="#C7A26C"/>
<path d="M385.475 441.684H376.668V442.9H385.475V441.684Z" fill="#F5F5F5"/>
<path d="M417.039 448.746C415.471 448.746 414.205 447.778 414.205 446.579V438.956L417.039 437L419.874 438.956V446.579C419.874 447.778 418.608 448.746 417.039 448.746Z" fill="#C7A26C"/>
<path d="M428.68 441.684H419.874V444.427H428.68V441.684Z" fill="#C7A26C"/>
<path d="M428.68 441.684H419.874V442.9H428.68V441.684Z" fill="#F5F5F5"/>
<path d="M431.514 448.746C429.946 448.746 428.68 447.778 428.68 446.579V438.956L431.514 437L434.349 438.956V446.579C434.338 447.778 433.073 448.746 431.514 448.746Z" fill="#C7A26C"/>
<path d="M331.1 448.746C329.531 448.746 328.265 447.778 328.265 446.579V438.956L331.1 437L333.934 438.956V446.579C333.924 447.778 332.658 448.746 331.1 448.746Z" fill="#C7A26C"/>
<path d="M342.73 441.684H333.924V444.427H342.73V441.684Z" fill="#C7A26C"/>
<path d="M342.73 441.684H333.924V442.9H342.73V441.684Z" fill="#F5F5F5"/>
<path d="M345.565 448.746C343.996 448.746 342.731 447.778 342.731 446.579V438.956L345.565 437L348.399 438.956V446.579C348.399 447.778 347.134 448.746 345.565 448.746Z" fill="#C7A26C"/>
<path d="M357.205 441.684H348.399V444.427H357.205V441.684Z" fill="#C7A26C"/>
<path d="M357.205 441.684H348.399V442.9H357.205V441.684Z" fill="#F5F5F5"/>
<path d="M328.475 441.684H319.668V444.427H328.475V441.684Z" fill="#C7A26C"/>
<path d="M328.475 441.684H319.668V442.9H328.475V441.684Z" fill="#F5F5F5"/>
<path d="M360.039 448.746C358.471 448.746 357.205 447.778 357.205 446.579V438.956L360.039 437L362.874 438.956V446.579C362.874 447.778 361.608 448.746 360.039 448.746Z" fill="#C7A26C"/>
<path d="M371.68 441.684H362.874V444.427H371.68V441.684Z" fill="#C7A26C"/>
<path d="M371.68 441.684H362.874V442.9H371.68V441.684Z" fill="#F5F5F5"/>
<path d="M374.514 448.746C372.946 448.746 371.68 447.778 371.68 446.579V438.956L374.514 437L377.349 438.956V446.579C377.338 447.778 376.073 448.746 374.514 448.746Z" fill="#C7A26C"/>
<path d="M274.1 448.746C272.531 448.746 271.265 447.778 271.265 446.579V438.956L274.1 437L276.934 438.956V446.579C276.924 447.778 275.658 448.746 274.1 448.746Z" fill="#C7A26C"/>
<path d="M285.73 441.684H276.924V444.427H285.73V441.684Z" fill="#C7A26C"/>
<path d="M285.73 441.684H276.924V442.9H285.73V441.684Z" fill="#F5F5F5"/>
<path d="M288.565 448.746C286.996 448.746 285.731 447.778 285.731 446.579V438.956L288.565 437L291.399 438.956V446.579C291.399 447.778 290.134 448.746 288.565 448.746Z" fill="#C7A26C"/>
<path d="M300.205 441.684H291.399V444.427H300.205V441.684Z" fill="#C7A26C"/>
<path d="M300.205 441.684H291.399V442.9H300.205V441.684Z" fill="#F5F5F5"/>
<path d="M271.475 441.684H262.668V444.427H271.475V441.684Z" fill="#C7A26C"/>
<path d="M271.475 441.684H262.668V442.9H271.475V441.684Z" fill="#F5F5F5"/>
<path d="M303.039 448.746C301.471 448.746 300.205 447.778 300.205 446.579V438.956L303.039 437L305.874 438.956V446.579C305.874 447.778 304.608 448.746 303.039 448.746Z" fill="#C7A26C"/>
<path d="M314.68 441.684H305.874V444.427H314.68V441.684Z" fill="#C7A26C"/>
<path d="M314.68 441.684H305.874V442.9H314.68V441.684Z" fill="#F5F5F5"/>
<path d="M317.514 448.746C315.946 448.746 314.68 447.778 314.68 446.579V438.956L317.514 437L320.349 438.956V446.579C320.338 447.778 319.073 448.746 317.514 448.746Z" fill="#C7A26C"/>
<path d="M217.1 448.746C215.531 448.746 214.265 447.778 214.265 446.579V438.956L217.1 437L219.934 438.956V446.579C219.924 447.778 218.658 448.746 217.1 448.746Z" fill="#C7A26C"/>
<path d="M228.73 441.684H219.924V444.427H228.73V441.684Z" fill="#C7A26C"/>
<path d="M228.73 441.684H219.924V442.9H228.73V441.684Z" fill="#F5F5F5"/>
<path d="M231.565 448.746C229.996 448.746 228.731 447.778 228.731 446.579V438.956L231.565 437L234.399 438.956V446.579C234.399 447.778 233.134 448.746 231.565 448.746Z" fill="#C7A26C"/>
<path d="M243.205 441.684H234.399V444.427H243.205V441.684Z" fill="#C7A26C"/>
<path d="M243.205 441.684H234.399V442.9H243.205V441.684Z" fill="#F5F5F5"/>
<path d="M214.475 441.684H205.668V444.427H214.475V441.684Z" fill="#C7A26C"/>
<path d="M214.475 441.684H205.668V442.9H214.475V441.684Z" fill="#F5F5F5"/>
<path d="M246.039 448.746C244.471 448.746 243.205 447.778 243.205 446.579V438.956L246.039 437L248.874 438.956V446.579C248.874 447.778 247.608 448.746 246.039 448.746Z" fill="#C7A26C"/>
<path d="M257.68 441.684H248.874V444.427H257.68V441.684Z" fill="#C7A26C"/>
<path d="M257.68 441.684H248.874V442.9H257.68V441.684Z" fill="#F5F5F5"/>
<path d="M260.514 448.746C258.946 448.746 257.68 447.778 257.68 446.579V438.956L260.514 437L263.349 438.956V446.579C263.338 447.778 262.073 448.746 260.514 448.746Z" fill="#C7A26C"/>
<path d="M160.1 448.746C158.531 448.746 157.265 447.778 157.265 446.579V438.956L160.1 437L162.934 438.956V446.579C162.924 447.778 161.658 448.746 160.1 448.746Z" fill="#C7A26C"/>
<path d="M171.73 441.684H162.924V444.427H171.73V441.684Z" fill="#C7A26C"/>
<path d="M171.73 441.684H162.924V442.9H171.73V441.684Z" fill="#F5F5F5"/>
<path d="M174.565 448.746C172.996 448.746 171.731 447.778 171.731 446.579V438.956L174.565 437L177.399 438.956V446.579C177.399 447.778 176.134 448.746 174.565 448.746Z" fill="#C7A26C"/>
<path d="M186.205 441.684H177.399V444.427H186.205V441.684Z" fill="#C7A26C"/>
<path d="M186.205 441.684H177.399V442.9H186.205V441.684Z" fill="#F5F5F5"/>
<path d="M157.475 441.684H148.668V444.427H157.475V441.684Z" fill="#C7A26C"/>
<path d="M157.475 441.684H148.668V442.9H157.475V441.684Z" fill="#F5F5F5"/>
<path d="M189.039 448.746C187.471 448.746 186.205 447.778 186.205 446.579V438.956L189.039 437L191.874 438.956V446.579C191.874 447.778 190.608 448.746 189.039 448.746Z" fill="#C7A26C"/>
<path d="M200.68 441.684H191.874V444.427H200.68V441.684Z" fill="#C7A26C"/>
<path d="M200.68 441.684H191.874V442.9H200.68V441.684Z" fill="#F5F5F5"/>
<path d="M203.514 448.746C201.946 448.746 200.68 447.778 200.68 446.579V438.956L203.514 437L206.349 438.956V446.579C206.338 447.778 205.073 448.746 203.514 448.746Z" fill="#C7A26C"/>
<path d="M103.1 448.746C101.531 448.746 100.265 447.778 100.265 446.579V438.956L103.1 437L105.934 438.956V446.579C105.924 447.778 104.658 448.746 103.1 448.746Z" fill="#C7A26C"/>
<path d="M114.73 441.684H105.924V444.427H114.73V441.684Z" fill="#C7A26C"/>
<path d="M114.73 441.684H105.924V442.9H114.73V441.684Z" fill="#F5F5F5"/>
<path d="M117.565 448.746C115.996 448.746 114.731 447.778 114.731 446.579V438.956L117.565 437L120.399 438.956V446.579C120.399 447.778 119.134 448.746 117.565 448.746Z" fill="#C7A26C"/>
<path d="M129.205 441.684H120.399V444.427H129.205V441.684Z" fill="#C7A26C"/>
<path d="M129.205 441.684H120.399V442.9H129.205V441.684Z" fill="#F5F5F5"/>
<path d="M100.475 441.684H91.6682V444.427H100.475V441.684Z" fill="#C7A26C"/>
<path d="M100.475 441.684H91.6682V442.9H100.475V441.684Z" fill="#F5F5F5"/>
<path d="M132.039 448.746C130.471 448.746 129.205 447.778 129.205 446.579V438.956L132.039 437L134.874 438.956V446.579C134.874 447.778 133.608 448.746 132.039 448.746Z" fill="#C7A26C"/>
<path d="M143.68 441.684H134.874V444.427H143.68V441.684Z" fill="#C7A26C"/>
<path d="M143.68 441.684H134.874V442.9H143.68V441.684Z" fill="#F5F5F5"/>
<path d="M146.515 448.746C144.946 448.746 143.68 447.778 143.68 446.579V438.956L146.515 437L149.349 438.956V446.579C149.338 447.778 148.073 448.746 146.515 448.746Z" fill="#C7A26C"/>
<path d="M46.0997 448.746C44.5309 448.746 43.2654 447.778 43.2654 446.579V438.956L46.0997 437L48.9341 438.956V446.579C48.9236 447.778 47.6581 448.746 46.0997 448.746Z" fill="#C7A26C"/>
<path d="M57.7302 441.684H48.9237V444.427H57.7302V441.684Z" fill="#C7A26C"/>
<path d="M57.7302 441.684H48.9237V442.9H57.7302V441.684Z" fill="#F5F5F5"/>
<path d="M60.565 448.746C58.9961 448.746 57.7306 447.778 57.7306 446.579V438.956L60.565 437L63.3993 438.956V446.579C63.3993 447.778 62.1338 448.746 60.565 448.746Z" fill="#C7A26C"/>
<path d="M72.2052 441.684H63.3988V444.427H72.2052V441.684Z" fill="#C7A26C"/>
<path d="M72.2052 441.684H63.3988V442.9H72.2052V441.684Z" fill="#F5F5F5"/>
<path d="M43.4746 441.684H34.6682V444.427H43.4746V441.684Z" fill="#C7A26C"/>
<path d="M43.4746 441.684H34.6682V442.9H43.4746V441.684Z" fill="#F5F5F5"/>
<path d="M75.0394 448.746C73.4706 448.746 72.205 447.778 72.205 446.579V438.956L75.0394 437L77.8738 438.956V446.579C77.8738 447.778 76.6083 448.746 75.0394 448.746Z" fill="#C7A26C"/>
<path d="M86.6803 441.684H77.8738V444.427H86.6803V441.684Z" fill="#C7A26C"/>
<path d="M86.6803 441.684H77.8738V442.9H86.6803V441.684Z" fill="#F5F5F5"/>
<path d="M89.5145 448.746C87.9457 448.746 86.6801 447.778 86.6801 446.579V438.956L89.5145 437L92.3489 438.956V446.579C92.3384 447.778 91.0729 448.746 89.5145 448.746Z" fill="#C7A26C"/>
<path d="M3.56497 448.746C1.99612 448.746 0.730591 447.778 0.730591 446.579V438.956L3.56497 437L6.39934 438.956V446.579C6.39934 447.778 5.13381 448.746 3.56497 448.746Z" fill="#C7A26C"/>
<path d="M15.2052 441.684H6.3988V444.427H15.2052V441.684Z" fill="#C7A26C"/>
<path d="M15.2052 441.684H6.3988V442.9H15.2052V441.684Z" fill="#F5F5F5"/>
<path d="M18.0394 448.746C16.4706 448.746 15.205 447.778 15.205 446.579V438.956L18.0394 437L20.8738 438.956V446.579C20.8738 447.778 19.6083 448.746 18.0394 448.746Z" fill="#C7A26C"/>
<path d="M29.6803 441.684H20.8738V444.427H29.6803V441.684Z" fill="#C7A26C"/>
<path d="M29.6803 441.684H20.8738V442.9H29.6803V441.684Z" fill="#F5F5F5"/>
<path d="M32.5145 448.746C30.9457 448.746 29.6801 447.778 29.6801 446.579V438.956L32.5145 437L35.3489 438.956V446.579C35.3384 447.778 34.0729 448.746 32.5145 448.746Z" fill="#C7A26C"/>
</g>
<defs>
<clipPath id="clip0_6_7893">
<rect width="550" height="450" fill="white"/>
</clipPath>
</defs>
</svg>
