<svg width="50" height="50" viewBox="0 0 50 50" fill="none" xmlns="http://www.w3.org/2000/svg">
<rect width="50" height="50" fill="#F8F8F8"/>
<rect x="2.8302" y="3.77359" width="2.83019" height="2.83019" rx="0.943396" fill="#F1F1F1"/>
<rect x="18.8679" y="11.3208" width="2.83019" height="2.83019" rx="0.943396" fill="#F1F1F1"/>
<path d="M26.0764 18.8679H21.5651C21.1176 18.8679 20.7547 19.2316 20.7547 19.6802V19.6888C20.7547 20.1374 21.1176 20.5011 21.5651 20.5011H26.0764C26.524 20.5011 26.8868 20.1374 26.8868 19.6888V19.6802C26.8868 19.2316 26.524 18.8679 26.0764 18.8679Z" fill="#F1F1F1"/>
<path d="M17.5858 7.54717H13.0746C12.627 7.54717 12.2642 7.91083 12.2642 8.35942V8.36806C12.2642 8.81665 12.627 9.18031 13.0746 9.18031H17.5858C18.0334 9.18031 18.3962 8.81665 18.3962 8.36806V8.35942C18.3962 7.91083 18.0334 7.54717 17.5858 7.54717Z" fill="#F1F1F1"/>
<path d="M12.8689 37.7358H8.35759C7.91001 37.7358 7.54718 38.0995 7.54718 38.5481V38.5567C7.54718 39.0053 7.91001 39.369 8.35759 39.369H12.8689C13.3164 39.369 13.6793 39.0053 13.6793 38.5567V38.5481C13.6793 38.0995 13.3164 37.7358 12.8689 37.7358Z" fill="#F1F1F1"/>
<path d="M44.0009 43.3962H39.4897C39.0421 43.3962 38.6793 43.7599 38.6793 44.2085V44.2171C38.6793 44.6657 39.0421 45.0294 39.4897 45.0294H44.0009C44.4485 45.0294 44.8113 44.6657 44.8113 44.2171V44.2085C44.8113 43.7599 44.4485 43.3962 44.0009 43.3962Z" fill="#F1F1F1"/>
<rect x="24.5283" width="2.83019" height="2.83019" rx="0.943396" fill="#F1F1F1"/>
<rect x="4.71698" y="30.1887" width="2.83019" height="2.83019" rx="0.943396" fill="#F1F1F1"/>
<rect x="37.7358" y="20.7547" width="2.83019" height="2.83019" rx="0.943396" fill="#F1F1F1"/>
<rect x="47.1698" y="23.5849" width="2.83019" height="2.83019" rx="0.943396" fill="#F1F1F1"/>
<rect x="32.0755" y="9.43396" width="2.83019" height="2.83019" rx="0.943396" fill="#F1F1F1"/>
<rect x="19.8113" y="24.5283" width="2.83019" height="2.83019" rx="0.943396" fill="#F1F1F1"/>
<rect x="5.66037" y="16.9811" width="2.83019" height="2.83019" rx="0.943396" fill="#F1F1F1"/>
<rect x="13.2076" y="45.283" width="2.83019" height="2.83019" rx="0.943396" fill="#F1F1F1"/>
<rect x="30.1887" y="32.0755" width="2.83019" height="2.83019" rx="0.943396" fill="#F1F1F1"/>
<rect x="22.6415" y="42.4528" width="2.83019" height="2.83019" rx="0.943396" fill="#F1F1F1"/>
<rect x="27.3585" y="3.77359" width="1.88679" height="1.88679" rx="0.943396" fill="#F1F1F1"/>
<rect x="8.49057" y="28.3019" width="1.88679" height="1.88679" rx="0.943396" fill="#F1F1F1"/>
<rect x="20.7547" y="40.566" width="1.88679" height="1.88679" rx="0.943396" fill="#F1F1F1"/>
<rect x="4.71698" y="44.3396" width="1.88679" height="1.88679" rx="0.943396" fill="#F1F1F1"/>
<rect x="43.3962" y="31.1321" width="1.88679" height="1.88679" rx="0.943396" fill="#F1F1F1"/>
<rect x="33.0189" y="39.6226" width="1.88679" height="1.88679" rx="0.943396" fill="#F1F1F1"/>
<rect x="17.9245" y="33.0189" width="1.88679" height="1.88679" rx="0.943396" fill="#F1F1F1"/>
<rect x="41.5094" y="18.8679" width="1.88679" height="1.88679" rx="0.943396" fill="#F1F1F1"/>
<rect x="43.3962" y="5.66038" width="1.88679" height="1.88679" rx="0.943396" fill="#F1F1F1"/>
</svg>
