<svg width="45" height="45" viewBox="0 0 45 45" fill="none" xmlns="http://www.w3.org/2000/svg">
<path d="M22.95 36.75C31.6485 36.75 38.7 32.646 38.7 27.5835C38.7 22.521 31.6485 18.417 22.95 18.417C14.2515 18.417 7.20001 22.521 7.20001 27.5835C7.20001 32.646 14.2515 36.75 22.95 36.75Z" fill="#9DB4D7"/>
<path d="M12.3662 16.2948V20.6128C12.3662 20.6128 12.4542 22.8086 10.502 23.7076C8.54977 24.6065 8.79931 28.3498 12.0432 28.1877C15.2872 28.0256 16.5055 27.9371 17.6357 30.634C18.766 33.3162 25.5768 33.2425 27.118 30.634C28.6593 28.0256 30.2739 28.2761 31.6537 28.2761C33.0335 28.2761 36.116 26.7582 35.5435 24.4739C34.971 22.1749 32.3876 22.8381 32.2995 20.5538C32.2115 18.2696 32.2995 16.3243 32.2995 16.3243H12.3662V16.2948Z" fill="#8F7C4C"/>
<path d="M22.2444 22.6466C27.8056 22.6466 32.3139 19.5917 32.3139 15.8233C32.3139 12.0549 27.8056 9 22.2444 9C16.6832 9 12.175 12.0549 12.175 15.8233C12.175 19.5917 16.6832 22.6466 22.2444 22.6466Z" fill="#FFCE94"/>
<path d="M22.2455 19.9642C25.6179 19.9642 28.3517 18.1102 28.3517 15.8231C28.3517 13.536 25.6179 11.682 22.2455 11.682C18.8731 11.682 16.1392 13.536 16.1392 15.8231C16.1392 18.1102 18.8731 19.9642 22.2455 19.9642Z" fill="#C7A26C"/>
<path d="M22.2452 17.9307C23.9638 17.9307 25.357 16.9872 25.357 15.8233C25.357 14.6594 23.9638 13.7159 22.2452 13.7159C20.5266 13.7159 19.1334 14.6594 19.1334 15.8233C19.1334 16.9872 20.5266 17.9307 22.2452 17.9307Z" fill="#FFCE94"/>
</svg>
