<svg width="45" height="45" viewBox="0 0 45 45" fill="none" xmlns="http://www.w3.org/2000/svg">
<path d="M39.0062 27.9679H5.99374C5.16468 27.9679 4.5 27.3203 4.5 26.5279C4.5 25.7287 5.17182 25.0879 5.99374 25.0879H39.0062C39.8353 25.0879 40.4999 25.7356 40.4999 26.5279C40.5071 27.3203 39.8353 27.9679 39.0062 27.9679Z" fill="#9DB4D7"/>
<path d="M7.78369 26.8541C6.71807 26.8541 5.85846 25.9945 5.85846 24.9289V18.1586H9.70893V24.9289C9.70183 25.9945 8.84222 26.8541 7.78369 26.8541Z" fill="#8B7B4C"/>
<path d="M7.78373 19.3876C8.847 19.3876 9.70896 18.8755 9.70896 18.2438C9.70896 17.6121 8.847 17.1 7.78373 17.1C6.72045 17.1 5.85849 17.6121 5.85849 18.2438C5.85849 18.8755 6.72045 19.3876 7.78373 19.3876Z" fill="#C1A470"/>
<path d="M7.78398 18.7766C8.27835 18.7766 8.67911 18.538 8.67911 18.2438C8.67911 17.9495 8.27835 17.7109 7.78398 17.7109C7.28962 17.7109 6.88885 17.9495 6.88885 18.2438C6.88885 18.538 7.28962 18.7766 7.78398 18.7766Z" fill="#6B482D"/>
<path d="M15.6837 20.5811H9.70193V23.0178H15.6837V20.5811Z" fill="#8B7B4C"/>
<path d="M15.6837 20.5811H9.70193V21.661H15.6837V20.5811Z" fill="#BBA57E"/>
<path d="M17.6092 26.8541C16.5435 26.8541 15.6839 25.9945 15.6839 24.9289V18.1586H19.5344V24.9289C19.5344 25.9945 18.6748 26.8541 17.6092 26.8541Z" fill="#8B7B4C"/>
<path d="M17.6092 19.3876C18.6725 19.3876 19.5344 18.8755 19.5344 18.2438C19.5344 17.6121 18.6725 17.1 17.6092 17.1C16.5459 17.1 15.684 17.6121 15.684 18.2438C15.684 18.8755 16.5459 19.3876 17.6092 19.3876Z" fill="#C1A470"/>
<path d="M17.6091 18.7766C18.1034 18.7766 18.5042 18.538 18.5042 18.2438C18.5042 17.9495 18.1034 17.711 17.6091 17.711C17.1147 17.711 16.7139 17.9495 16.7139 18.2438C16.7139 18.538 17.1147 18.7766 17.6091 18.7766Z" fill="#6B482D"/>
<path d="M25.5158 20.5811H19.5341V23.0179H25.5158V20.5811Z" fill="#8B7B4C"/>
<path d="M25.5158 20.5811H19.5341V21.661H25.5158V20.5811Z" fill="#BBA57E"/>
<path d="M27.4409 26.8541C26.3752 26.8541 25.5156 25.9945 25.5156 24.9289V18.1586H29.3661V24.9289C29.3661 25.9945 28.5065 26.8541 27.4409 26.8541Z" fill="#8B7B4C"/>
<path d="M27.441 19.3876C28.5042 19.3876 29.3662 18.8755 29.3662 18.2438C29.3662 17.6121 28.5042 17.1 27.441 17.1C26.3777 17.1 25.5157 17.6121 25.5157 18.2438C25.5157 18.8755 26.3777 19.3876 27.441 19.3876Z" fill="#C1A470"/>
<path d="M27.4411 18.7766C27.9355 18.7766 28.3362 18.538 28.3362 18.2438C28.3362 17.9495 27.9355 17.711 27.4411 17.711C26.9467 17.711 26.546 17.9495 26.546 18.2438C26.546 18.538 26.9467 18.7766 27.4411 18.7766Z" fill="#6B482D"/>
<path d="M35.3479 20.5811H29.3661V23.0179H35.3479V20.5811Z" fill="#8B7B4C"/>
<path d="M35.3479 20.5811H29.3661V21.661H35.3479V20.5811Z" fill="#BBA57E"/>
<path d="M37.273 26.8541C36.2073 26.8541 35.3477 25.9945 35.3477 24.9289V18.1586H39.1982V24.9289C39.1911 25.9945 38.3315 26.8541 37.273 26.8541Z" fill="#8B7B4C"/>
<path d="M37.2731 19.3876C38.3364 19.3876 39.1983 18.8755 39.1983 18.2438C39.1983 17.6121 38.3364 17.1 37.2731 17.1C36.2098 17.1 35.3478 17.6121 35.3478 18.2438C35.3478 18.8755 36.2098 19.3876 37.2731 19.3876Z" fill="#C1A470"/>
<path d="M37.2732 18.7766C37.7676 18.7766 38.1684 18.538 38.1684 18.2438C38.1684 17.9495 37.7676 17.711 37.2732 17.711C36.7789 17.711 36.3781 17.9495 36.3781 18.2438C36.3781 18.538 36.7789 18.7766 37.2732 18.7766Z" fill="#6B482D"/>
</svg>
