<svg width="45" height="45" viewBox="0 0 45 45" fill="none" xmlns="http://www.w3.org/2000/svg">
<path d="M22.4754 39.96C26.4925 39.96 29.749 38.5549 29.749 36.8217C29.749 35.0885 26.4925 33.6834 22.4754 33.6834C18.4583 33.6834 15.2018 35.0885 15.2018 36.8217C15.2018 38.5549 18.4583 39.96 22.4754 39.96Z" fill="#9FB3D4"/>
<path d="M22.9397 36.8216H22.0226C21.4322 36.8216 20.9548 36.3308 20.9548 35.7238V5.39999H24.0075V35.7238C24.0075 36.3308 23.5301 36.8216 22.9397 36.8216Z" fill="#5E4B39"/>
<path d="M31.2431 16.2875H15.9797V10.7729H31.2431L35.0997 13.5366L31.2431 16.2875Z" fill="#6B4829"/>
<path d="M15.9801 9.14542V10.7727H31.2435L35.1001 13.5364V12.1029L31.6203 9.14542H15.9801Z" fill="#907B4C"/>
<path d="M30.5274 12.4129H17.764V14.4663H30.5274V12.4129Z" fill="#907B4C"/>
<path d="M13.7441 26.322H29.0074V20.8074H13.7441L9.89999 23.5712L13.7441 26.322Z" fill="#6B4829"/>
<path d="M29.0074 19.18V20.8072H13.7441L9.89999 23.571V22.1246L13.3672 19.18H29.0074Z" fill="#907B4C"/>
<path d="M14.4604 24.5006H27.2238V22.4472H14.4604V24.5006Z" fill="#907B4C"/>
</svg>
