<svg width="45" height="45" viewBox="0 0 45 45" fill="none" xmlns="http://www.w3.org/2000/svg">
<path d="M16.539 32.2352C16.1332 32.2276 15.7255 32.2632 15.3186 32.2386C14.3881 32.3167 13.0545 32.491 13.037 32.8689C13.0143 33.3603 13.8864 33.9166 15.6166 34.422C17.3467 34.9273 16.3986 36.5182 16.299 37.0731C16.1994 37.628 17.0965 38.5748 21.0927 38.871C25.0889 39.1671 25.5365 40.283 31.8191 39.8874C37.6158 39.1248 39.2167 38.5999 37.3446 37.5503C35.4726 36.5007 33.8841 36.6223 32.8895 35.7567C32.8846 34.0546 34.1649 34.2924 32.8709 33.3817C31.5769 32.471 29.7567 32.1076 25.908 32.2342C22.8632 32.3361 18.3085 32.2167 16.539 32.2352Z" fill="#9BB4D6"/>
<path d="M28.0499 4.5H18.7232V35.1235H28.0499V4.5Z" fill="#9BB4D6"/>
<path d="M23.39 6.95639L18.7232 4.5H28.0533L23.39 6.95639Z" fill="#C9E8E9"/>
<path d="M18.7232 11.5608L23.39 6.95639L18.7232 4.5V11.5608Z" fill="white"/>
<path d="M28.0533 11.5608L23.39 6.95639L28.0533 4.5V11.5608Z" fill="#B9CFEC"/>
<path d="M30.385 19.81H25.7217V35.12H30.385V19.81Z" fill="#7495C4"/>
<path d="M28.0533 21.0399L25.7217 19.81H30.385L28.0533 21.0399Z" fill="#C9E8E9"/>
<path d="M25.7217 23.3404L28.0533 21.0399L25.7217 19.81V23.3404Z" fill="white"/>
<path d="M30.385 23.3404L28.0533 21.0399L30.385 19.81V23.3404Z" fill="#B9CFEC"/>
<path d="M28.4518 30.3562V35.1235L16.7034 23.3404V18.587L28.4518 30.3562Z" fill="#BACEEC"/>
<path d="M19.0004 35.1235H28.4518L16.7034 23.3404H7.20001L19.0004 35.1235Z" fill="#7495C4"/>
<path d="M7.20001 18.587V23.3404H14.4237V24.2828C14.4237 24.5288 14.6212 24.7262 14.8671 24.7262C15.1131 24.7262 15.3106 24.5288 15.3106 24.2828V23.3404H16.7068V18.587H7.20001Z" fill="white"/>
<path d="M25.5554 32.1751V35.1234L32.8241 27.8374V24.896L25.5554 32.1751Z" fill="#FBFFFF"/>
<path d="M31.4036 35.1235H25.5554L32.8241 27.8374H38.7L31.4036 35.1235Z" fill="#7495C4"/>
<path d="M38.7 24.896V27.8374H34.2342V28.4195C34.2342 28.5719 34.1129 28.6932 33.9604 28.6932C33.808 28.6932 33.6867 28.5719 33.6867 28.4195V27.8374H32.8241V24.896H38.7Z" fill="#CBE8E7"/>
</svg>
