<svg width="45" height="45" viewBox="0 0 45 45" fill="none" xmlns="http://www.w3.org/2000/svg">
<path d="M7.0001 28.8552V32.1758C6.99431 33.1905 7.24343 34.1912 7.72563 35.0896C8.20782 35.988 8.90829 36.7566 9.76535 37.3279L16.7812 42.0546C17.7158 42.6715 18.8176 43.0007 19.9449 43H26.5381C28.1573 43.0014 29.7178 42.4066 30.9094 41.3338L36.9472 35.9453C37.5907 35.3692 38.1046 34.6681 38.4559 33.8869C38.8073 33.1056 38.9885 32.2612 38.9879 31.4077V19.9926C38.9879 18.2501 38.2806 16.579 37.0214 15.3468C35.7623 14.1147 34.0546 13.4224 32.274 13.4224H26.3328C24.6398 13.4215 22.9935 13.9654 21.6476 14.9704L9.08912 24.3294C8.43943 24.9009 7.91824 25.5984 7.55862 26.3775C7.19899 27.1566 7.00881 28.0003 7.0001 28.8552Z" fill="#8D7B47"/>
<path d="M7.00009 24.9793V28.288C7.00053 29.2981 7.2539 30.2926 7.73808 31.1846C8.22225 32.0766 8.92247 32.8389 9.77743 33.4047L16.7932 38.1314C17.7242 38.7572 18.8276 39.091 19.957 39.0886H26.5502C28.1683 39.0842 29.7267 38.4902 30.9215 37.4224L36.9592 32.0222C37.6028 31.446 38.1166 30.7449 38.468 29.9637C38.8194 29.1824 39.0005 28.3381 39 27.4845V16.0576C39 14.3151 38.2926 12.6439 37.0335 11.4118C35.7744 10.1796 34.0667 9.48743 32.286 9.48743H26.3449C24.6519 9.48647 23.0055 10.0304 21.6596 11.0354L9.1012 20.418C8.44599 20.9934 7.9207 21.6963 7.5589 22.4817C7.19711 23.2671 7.00678 24.1178 7.00009 24.9793Z" fill="#726339"/>
<path d="M7.0001 21.966V25.2747C6.99843 26.2851 7.25092 27.2804 7.73528 28.1727C8.21965 29.0651 8.92098 29.827 9.77743 30.3914L16.7933 35.1181C17.7242 35.7439 18.8276 36.0777 19.957 36.0753H26.5502C28.1683 36.0709 29.7267 35.4769 30.9215 34.4091L36.9592 29.0088C37.6028 28.4326 38.1166 27.7316 38.468 26.9503C38.8194 26.1691 39.0006 25.3247 39 24.4711V13.0561C39 11.3136 38.2926 9.64242 37.0335 8.41027C35.7744 7.17813 34.0667 6.48593 32.2861 6.48593H26.3449C24.6519 6.48497 23.0055 7.02891 21.6596 8.03393L9.10121 17.4165C8.44749 17.9906 7.92309 18.6916 7.56134 19.4748C7.1996 20.2581 7.00847 21.1065 7.0001 21.966Z" fill="#C9EBEC"/>
<path d="M7.00006 18.48V21.7888C7.0005 22.7988 7.25387 23.7933 7.73805 24.6853C8.22222 25.5773 8.92244 26.3396 9.7774 26.9054L16.7932 31.6322C17.7242 32.2579 18.8276 32.5917 19.957 32.5893H26.5502C28.1683 32.585 29.7267 31.991 30.9215 30.9232L36.9592 25.5229C37.6028 24.9467 38.1166 24.2457 38.468 23.4644C38.8193 22.6831 39.0005 21.8388 39 20.9852V9.57016C39 7.82765 38.2926 6.15649 37.0335 4.92435C35.7744 3.6922 34.0667 3 32.286 3H26.3449C24.6518 2.99904 23.0055 3.54299 21.6596 4.548L9.10117 13.9306C8.44745 14.5047 7.92305 15.2056 7.56131 15.9889C7.19957 16.7722 7.00843 17.6205 7.00006 18.48Z" fill="white"/>
</svg>
