<svg width="45" height="45" viewBox="0 0 45 45" fill="none" xmlns="http://www.w3.org/2000/svg">
<path d="M22.5384 39.3031C25.1043 39.3031 27.1843 38.4178 27.1843 37.3257C27.1843 36.2337 25.1043 35.3484 22.5384 35.3484C19.9726 35.3484 17.8926 36.2337 17.8926 37.3257C17.8926 38.4178 19.9726 39.3031 22.5384 39.3031Z" fill="#9BB3D5"/>
<path d="M22.8455 37.7032H22.148C21.3545 37.7032 20.7081 37.0568 20.7081 36.2633V32.0847H24.2853V36.2569C24.2853 37.0568 23.639 37.7032 22.8455 37.7032Z" fill="#8F7A4B"/>
<path d="M22.5 32.0847C28.1569 32.0847 30.467 29.941 31.2861 28.8211C31.5485 28.4628 31.5741 27.9828 31.3373 27.6053L28.624 23.2346C28.4065 22.889 28.4065 22.4475 28.624 22.1019L29.0592 21.3916C29.2704 21.0461 29.2704 20.6045 29.0592 20.259L27.1842 17.2257C26.9283 16.8162 26.9794 16.2851 27.3058 15.9331L27.3314 15.9075C27.6386 15.5683 27.7026 15.0692 27.485 14.6661L22.5 5.39999L17.515 14.6661C17.2974 15.0692 17.3614 15.5683 17.6686 15.9075L17.6942 15.9331C18.0206 16.2915 18.0653 16.8162 17.8158 17.2257L15.9408 20.259C15.7296 20.6045 15.7232 21.0461 15.9408 21.3916L16.376 22.1019C16.5935 22.4475 16.5871 22.889 16.376 23.2346L13.6627 27.6053C13.4259 27.9828 13.4515 28.4628 13.7139 28.8211C14.533 29.9474 16.8431 32.0847 22.5 32.0847Z" fill="white"/>
<path d="M31.3372 27.6117L28.624 23.241C28.4064 22.8954 28.4064 22.4539 28.624 22.1083L29.0591 21.398C29.2703 21.0525 29.2703 20.6109 29.0591 20.2654L27.1841 17.2321C26.9282 16.8226 26.9794 16.2915 27.3057 15.9395L27.3313 15.9139C27.6385 15.5747 27.7025 15.0756 27.4849 14.6725L22.4999 5.39999L25.2644 14.6661C25.482 15.0692 25.418 15.5683 25.1108 15.9075L25.0852 15.9331C24.7588 16.2915 24.714 16.8162 24.9636 17.2257L26.8386 20.259C27.0498 20.6045 27.0562 21.0461 26.8386 21.3916L26.4034 22.1019C26.1859 22.4475 26.1923 22.889 26.4034 23.2346L29.1167 27.6053C29.3535 27.9828 29.3279 28.4628 29.0655 28.8211C28.304 29.8642 26.2435 31.7903 21.3929 32.0527C21.7512 32.0719 22.116 32.0847 22.5063 32.0847C28.1632 32.0847 30.4733 29.941 31.2924 28.8211C31.5484 28.4692 31.5676 27.9892 31.3372 27.6117Z" fill="#C9EBEC"/>
<path d="M18.6285 27.7588C19.035 27.7588 19.3644 27.4293 19.3644 27.0229C19.3644 26.6164 19.035 26.287 18.6285 26.287C18.2221 26.287 17.8926 26.6164 17.8926 27.0229C17.8926 27.4293 18.2221 27.7588 18.6285 27.7588Z" fill="#BCCFE2"/>
<path d="M23.3061 21.9611C23.9529 21.9611 24.4772 21.4368 24.4772 20.7901C24.4772 20.1433 23.9529 19.619 23.3061 19.619C22.6594 19.619 22.1351 20.1433 22.1351 20.7901C22.1351 21.4368 22.6594 21.9611 23.3061 21.9611Z" fill="#BCCFE2"/>
<path d="M20.6442 13.7766C20.9976 13.7766 21.2841 13.4901 21.2841 13.1367C21.2841 12.7832 20.9976 12.4967 20.6442 12.4967C20.2907 12.4967 20.0042 12.7832 20.0042 13.1367C20.0042 13.4901 20.2907 13.7766 20.6442 13.7766Z" fill="#BCCFE2"/>
</svg>
