<svg width="45" height="45" viewBox="0 0 45 45" fill="none" xmlns="http://www.w3.org/2000/svg">
<path d="M33.8345 32.4462H9.17674C8.08588 32.4462 7.20001 31.5603 7.20001 30.4694C7.20001 29.3786 8.08588 28.4927 9.17674 28.4927H33.8345C34.9254 28.4927 35.8113 29.3786 35.8113 30.4694C35.8113 31.5603 34.9254 32.4462 33.8345 32.4462Z" fill="#9DB4D7"/>
<path d="M19.6973 30.3084C19.6973 30.3084 19.8803 28.1193 17.5082 28.1193L17.1788 24.898L15.7951 24.2391L12.7934 27.2701L15.8537 30.301H19.6973V30.3084Z" fill="#CFEFEA"/>
<path d="M27.1649 26.106L29.6688 30.3084H33.8711C33.8711 30.3084 33.9883 27.724 31.5284 27.724L30.3862 22.7382L27.1649 26.106Z" fill="#CFEFEA"/>
<path d="M12.6104 14.2164C12.6104 14.2164 7.98337 14.9338 7.80767 19.861H8.94977C8.94977 19.861 8.408 22.7456 9.49154 23.8877C9.49154 23.8877 7.33179 24.7882 7.33179 27.314C7.33179 29.8398 8.53246 28.8734 8.59103 30.3157H12.3175C12.3175 30.3157 12.6177 28.3902 10.8167 28.09C10.8167 28.09 14.9605 28.5732 15.8024 24.2464C15.8024 24.2464 16.7029 25.5057 21.0883 24.9053V28.7489C21.0883 28.7489 21.5715 30.3084 22.6477 30.3084C23.724 30.3084 26.2498 30.3084 26.2498 30.3084C26.2498 30.3084 26.6085 27.9656 24.5659 27.7825C24.5659 27.7825 28.2265 25.9815 30.3936 22.7382C30.3936 22.7382 33.0365 24.0561 35.3793 22.8554C35.3793 22.8554 36.8802 23.8145 37.9637 22.7382C39.0472 21.6547 37.2462 20.2783 37.2462 20.2783C37.2462 20.2783 37.7294 18.2943 35.5623 17.2181C35.5623 17.2181 35.4452 15.417 34.0615 15.417C32.6705 15.417 32.7949 16.259 32.7949 16.259L28.9513 13.3744C28.9513 13.3744 27.2674 11.632 24.9246 13.3744C24.9246 13.3744 24.3682 14.0919 22.8161 14.0919C21.264 14.0919 12.6104 14.2164 12.6104 14.2164Z" fill="#FBF9EF"/>
<path d="M35.0498 21.0251C35.4825 21.0251 35.8332 20.6744 35.8332 20.2417C35.8332 19.8091 35.4825 19.4584 35.0498 19.4584C34.6172 19.4584 34.2665 19.8091 34.2665 20.2417C34.2665 20.6744 34.6172 21.0251 35.0498 21.0251Z" fill="#0F2B3A"/>
<path d="M37.8465 22.87L37.2975 22.6211L37.8026 21.5303L38.3517 21.7792C38.6519 21.9183 38.7837 22.277 38.6446 22.5772C38.5055 22.8774 38.1467 23.0091 37.8465 22.87Z" fill="#0F2B3A"/>
</svg>
