<svg width="15" height="31" viewBox="0 0 15 31" fill="none" xmlns="http://www.w3.org/2000/svg">
<g clip-path="url(#clip0_113_2650)">
<path d="M0.5 8.28053C0.5 4.74392 3.75135 1.87946 7.7511 2.00391C11.4017 2.11748 14.407 4.84368 14.4978 8.11988C14.5599 10.3594 13.3199 12.3325 11.4182 13.48C10.8385 13.8298 10.4167 14.5552 10.4167 15.182V15.4449C10.4167 17.0078 9.14306 18.1233 7.34046 17.9891C5.75786 17.8714 4.58333 16.6068 4.58333 15.182C4.58333 14.5496 4.14893 13.8246 3.56574 13.4692C1.7186 12.3438 0.5 10.428 0.5 8.28053Z" fill="#F96A22"/>
<path d="M1.99722 5.66679C2.10861 5.66679 2.22 5.61537 2.26475 5.5472C2.84509 4.69262 3.80486 4.02578 4.96554 3.68381C5.12219 3.63278 5.2112 3.49606 5.14407 3.37609C5.07744 3.25652 4.8989 3.18835 4.74276 3.23937C3.44781 3.63278 2.37665 4.36778 1.70679 5.32479C1.61728 5.44475 1.68442 5.58148 1.84057 5.64964C1.88532 5.66678 1.95246 5.66679 1.99722 5.66679Z" fill="white"/>
<path d="M9.43072 8.29692L9.33819 8.23424C9.09463 8.0705 8.74324 8.0705 8.50196 8.23424L8.26011 8.39796C8.23174 8.41761 8.19028 8.41715 8.1619 8.3975L7.92177 8.23517C7.67936 8.07098 7.32851 8.0705 7.08497 8.23424L6.84257 8.39796C6.81418 8.41715 6.77274 8.41761 6.74435 8.39843L6.49967 8.23284C6.25784 8.07098 5.90757 8.07051 5.66572 8.2333L5.57148 8.29693C5.2496 8.51398 5.10428 8.8564 5.1917 9.19041L6.00975 12.3209V15.4449H6.59108V12.2956C6.59108 12.2788 6.5888 12.2619 6.58484 12.2451L5.75997 9.08936C5.71908 8.93172 5.78777 8.76987 5.93935 8.66742L6.03359 8.60426C6.06141 8.58508 6.10285 8.58461 6.1318 8.60379L6.37648 8.76939C6.61947 8.93218 6.96974 8.93171 7.21157 8.76845L7.45398 8.60473C7.48236 8.58508 7.5238 8.58555 7.55219 8.6052L7.79233 8.76752C8.03531 8.93218 8.38728 8.93266 8.62912 8.76845L8.87096 8.60473C8.89877 8.58555 8.94022 8.58461 8.96918 8.60473L9.06171 8.66694C9.21272 8.76986 9.28141 8.93124 9.23997 9.08889L8.4151 12.2451C8.41112 12.2619 8.40886 12.2788 8.40886 12.2956V15.4449H8.99018V12.3209L9.80881 9.18946C9.89509 8.85592 9.75032 8.51398 9.43072 8.29692Z" fill="#F1AA86"/>
<path opacity="0.6" d="M13.0377 6.48921C13.665 5.85806 13.2614 4.70459 12.1361 3.91286C11.0107 3.12113 9.5898 2.99094 8.96239 3.62209C8.33498 4.25324 8.73865 5.40672 9.864 6.19845C10.9893 6.99018 12.4103 7.12036 13.0377 6.48921Z" fill="#F1AA86"/>
<path d="M7.5 30C11.366 30 14.5 28.6568 14.5 26.9999C14.5 25.3432 11.366 24 7.5 24C3.63401 24 0.5 25.3432 0.5 26.9999C0.5 28.6568 3.63401 30 7.5 30Z" fill="#9FB3D4" fill-opacity="0.45"/>
<path d="M4.5 14H10.5V21V25.9737C10.5 27.0928 9.15685 28 7.5 28C5.84315 28 4.5 27.0928 4.5 25.9737V14Z" fill="#EFF3FB"/>
<mask id="mask0_113_2650" style="mask-type:alpha" maskUnits="userSpaceOnUse" x="4" y="14" width="7" height="14">
<path d="M4.5 14H10.5V25.9737C10.5 27.0928 9.15685 28 7.5 28C5.84315 28 4.5 27.0928 4.5 25.9737V14Z" fill="#EFF3FB"/>
</mask>
<g mask="url(#mask0_113_2650)">
<path d="M17.7699 16.5122L16.0415 14.4902L-1.90885 21.4902L-0.180431 23.5122L17.7699 16.5122Z" fill="#F96A22"/>
<path d="M17.7699 21.3661L16.0415 19.344L-1.90885 26.344L-0.180431 28.3661L17.7699 21.3661Z" fill="#F96A22"/>
<path d="M17.7699 26.2199L16.0415 24.1978L-1.90885 31.1978L-0.180431 33.2199L17.7699 26.2199Z" fill="#F96A22"/>
<path d="M15.3745 12.4673L13.6461 10.4453L-4.30424 17.4453L-2.57582 19.4673L15.3745 12.4673Z" fill="#F96A22"/>
</g>
</g>
<defs>
<clipPath id="clip0_113_2650">
<rect width="14" height="31" fill="white" transform="translate(0.5)"/>
</clipPath>
</defs>
</svg>
