<svg width="45" height="45" viewBox="0 0 45 45" fill="none" xmlns="http://www.w3.org/2000/svg">
<g clip-path="url(#clip0_134_48)">
<path d="M15.5 22.2805C15.5 18.7439 18.7513 15.8795 22.7511 16.0039C26.4017 16.1175 29.407 18.8437 29.4978 22.1199C29.5599 24.3594 28.3199 26.3325 26.4182 27.48C25.8385 27.8298 25.4167 28.5552 25.4167 29.182V29.4449C25.4167 31.0078 24.1431 32.1233 22.3405 31.9891C20.7579 31.8714 19.5833 30.6068 19.5833 29.182C19.5833 28.5496 19.1489 27.8246 18.5657 27.4692C16.7186 26.3438 15.5 24.428 15.5 22.2805Z" fill="#9F9F9F"/>
<path d="M16.9972 19.6668C17.1086 19.6668 17.22 19.6154 17.2648 19.5472C17.8451 18.6926 18.8049 18.0258 19.9655 17.6838C20.1222 17.6328 20.2112 17.4961 20.1441 17.3761C20.0774 17.2565 19.8989 17.1884 19.7428 17.2394C18.4478 17.6328 17.3766 18.3678 16.7068 19.3248C16.6173 19.4448 16.6844 19.5815 16.8406 19.6496C16.8853 19.6668 16.9525 19.6668 16.9972 19.6668Z" fill="white"/>
<path d="M24.4307 22.2969L24.3382 22.2342C24.0946 22.0705 23.7432 22.0705 23.502 22.2342L23.2601 22.398C23.2317 22.4176 23.1903 22.4171 23.1619 22.3975L22.9218 22.2352C22.6794 22.071 22.3285 22.0705 22.085 22.2342L21.8426 22.398C21.8142 22.4171 21.7727 22.4176 21.7444 22.3984L21.4997 22.2328C21.2578 22.071 20.9076 22.0705 20.6657 22.2333L20.5715 22.2969C20.2496 22.514 20.1043 22.8564 20.1917 23.1904L21.0097 26.3209V29.4449H21.5911V26.2956C21.5911 26.2788 21.5888 26.2619 21.5848 26.2451L20.76 23.0894C20.7191 22.9317 20.7878 22.7699 20.9394 22.6674L21.0336 22.6043C21.0614 22.5851 21.1028 22.5846 21.1318 22.6038L21.3765 22.7694C21.6195 22.9322 21.9697 22.9317 22.2116 22.7685L22.454 22.6047C22.4824 22.5851 22.5238 22.5855 22.5522 22.6052L22.7923 22.7675C23.0353 22.9322 23.3873 22.9327 23.6291 22.7685L23.871 22.6047C23.8988 22.5855 23.9402 22.5846 23.9692 22.6047L24.0617 22.6669C24.2127 22.7699 24.2814 22.9312 24.24 23.0889L23.4151 26.2451C23.4111 26.2619 23.4089 26.2788 23.4089 26.2956V29.4449H23.9902V26.3209L24.8088 23.1895C24.8951 22.8559 24.7503 22.514 24.4307 22.2969Z" fill="#C8C8C8"/>
<path opacity="0.6" d="M28.0377 20.4892C28.665 19.8581 28.2614 18.7046 27.1361 17.9129C26.0107 17.1211 24.5898 16.9909 23.9624 17.6221C23.335 18.2532 23.7386 19.4067 24.864 20.1984C25.9893 20.9902 27.4103 21.1204 28.0377 20.4892Z" fill="#C8C8C8"/>
<path d="M22.5 44C26.366 44 29.5 42.6568 29.5 40.9999C29.5 39.3432 26.366 38 22.5 38C18.634 38 15.5 39.3432 15.5 40.9999C15.5 42.6568 18.634 44 22.5 44Z" fill="#9FB3D4" fill-opacity="0.45"/>
<path d="M19.5 28H25.5V35V39.9737C25.5 41.0928 24.1569 42 22.5 42C20.8431 42 19.5 41.0928 19.5 39.9737V28Z" fill="#EFF3FB"/>
<mask id="mask0_134_48" style="mask-type:alpha" maskUnits="userSpaceOnUse" x="19" y="28" width="7" height="14">
<path d="M19.5 28H25.5V39.9737C25.5 41.0928 24.1569 42 22.5 42C20.8431 42 19.5 41.0928 19.5 39.9737V28Z" fill="#EFF3FB"/>
</mask>
<g mask="url(#mask0_134_48)">
<path d="M32.7699 30.5122L31.0415 28.4902L13.0912 35.4902L14.8196 37.5122L32.7699 30.5122Z" fill="#9F9F9F"/>
<path d="M32.7699 35.3661L31.0415 33.344L13.0912 40.344L14.8196 42.3661L32.7699 35.3661Z" fill="#9F9F9F"/>
<path d="M32.7699 40.2199L31.0415 38.1978L13.0912 45.1978L14.8196 47.2199L32.7699 40.2199Z" fill="#9F9F9F"/>
<path d="M30.3745 26.4673L28.6461 24.4453L10.6958 31.4453L12.4242 33.4673L30.3745 26.4673Z" fill="#9F9F9F"/>
</g>
</g>
<defs>
<clipPath id="clip0_134_48">
<rect width="14" height="31" fill="white" transform="translate(15.5 14)"/>
</clipPath>
</defs>
</svg>
