<svg width="14" height="9" viewBox="0 0 14 9" fill="none" xmlns="http://www.w3.org/2000/svg">
<path d="M2.36857 1.76526V3.98526H6.25657V5.54526H2.36857V8.60526H0.42457V0.205262H6.77257V1.76526H2.36857ZM13.8952 7.02126V8.60526H7.54723V7.34526L10.7872 4.28526C11.1312 3.95726 11.3632 3.67726 11.4832 3.44526C11.6032 3.20526 11.6632 2.96926 11.6632 2.73726C11.6632 2.40126 11.5472 2.14526 11.3152 1.96926C11.0912 1.78526 10.7592 1.69326 10.3192 1.69326C9.95123 1.69326 9.61923 1.76526 9.32323 1.90926C9.02723 2.04526 8.77923 2.25326 8.57923 2.53326L7.16323 1.62126C7.49123 1.13326 7.94323 0.753263 8.51923 0.481262C9.09523 0.201262 9.75523 0.0612626 10.4992 0.0612626C11.1232 0.0612626 11.6672 0.165262 12.1312 0.373262C12.6032 0.573262 12.9672 0.861263 13.2232 1.23726C13.4872 1.60526 13.6192 2.04126 13.6192 2.54526C13.6192 3.00126 13.5232 3.42926 13.3312 3.82926C13.1392 4.22926 12.7672 4.68526 12.2152 5.19726L10.2832 7.02126H13.8952Z" fill="black"/>
</svg>
